%FSDAX24Y24*%
%MOIN*%
%SFA1B1*%

%IPPOS*%
%AMD33*
4,1,8,-0.015200,0.005800,-0.015200,-0.005800,-0.010800,-0.010200,0.010800,-0.010200,0.015200,-0.005800,0.015200,0.005800,0.010800,0.010200,-0.010800,0.010200,-0.015200,0.005800,0.0*
1,1,0.008800,-0.010800,0.005800*
1,1,0.008800,-0.010800,-0.005800*
1,1,0.008800,0.010800,-0.005800*
1,1,0.008800,0.010800,0.005800*
%
%AMD39*
4,1,8,-0.003900,-0.019100,0.003900,-0.019100,0.010200,-0.012800,0.010200,0.012800,0.003900,0.019100,-0.003900,0.019100,-0.010200,0.012800,-0.010200,-0.012800,-0.003900,-0.019100,0.0*
1,1,0.012600,-0.003900,-0.012800*
1,1,0.012600,0.003900,-0.012800*
1,1,0.012600,0.003900,0.012800*
1,1,0.012600,-0.003900,0.012800*
%
%ADD29R,0.150000X0.190000*%
%ADD30R,0.066000X0.030000*%
%ADD31R,0.036300X0.036300*%
%ADD32R,0.027700X0.031600*%
G04~CAMADD=33~8~0.0~0.0~205.0~304.0~44.0~0.0~15~0.0~0.0~0.0~0.0~0~0.0~0.0~0.0~0.0~0~0.0~0.0~0.0~90.0~304.0~204.0*
%ADD33D33*%
%ADD34R,0.043400X0.039500*%
%ADD35R,0.011000X0.032000*%
%ADD36R,0.063000X0.021000*%
%ADD37R,0.021000X0.063000*%
%ADD38R,0.031600X0.027700*%
G04~CAMADD=39~8~0.0~0.0~205.0~383.0~63.0~0.0~15~0.0~0.0~0.0~0.0~0~0.0~0.0~0.0~0.0~0~0.0~0.0~0.0~180.0~204.0~382.0*
%ADD39D39*%
%ADD40R,0.039500X0.043400*%
%ADD41R,0.067100X0.067100*%
%ADD42C,0.067100*%
%ADD43C,0.094600*%
%ADD44R,0.067100X0.067100*%
%ADD45C,0.069000*%
%ADD46R,0.069000X0.069000*%
%ADD47C,0.028000*%
%ADD48C,0.058000*%
%ADD49C,0.023000*%
%ADD50C,0.030000*%
%ADD51C,0.038000*%
%ADD52C,0.017000*%
%ADD53C,0.128000*%
%LNee194_yesdig_pcb-1*%
%LPD*%
G54D29*
X037917Y029803D03*
G54D30*
X028965Y024819D03*
Y024449D03*
Y024079D03*
X029905D03*
Y024819D03*
G54D31*
X044671Y022126D03*
X045065D03*
X042230D03*
X042624D03*
X044986Y025591D03*
X044592D03*
X042624D03*
X042230D03*
G54D32*
X038578Y026569D03*
Y026175D03*
X035784Y026570D03*
Y026176D03*
X044487Y030555D03*
Y030949D03*
G54D33*
X029791Y033074D03*
Y032562D03*
X028984D03*
Y032818D03*
Y033074D03*
X029810Y030026D03*
Y029515D03*
X029003D03*
Y029770D03*
Y030026D03*
G54D34*
X029821Y030967D03*
Y031518D03*
X029033Y030967D03*
Y031518D03*
X028844Y025669D03*
Y026220D03*
X029907Y025669D03*
Y026220D03*
X032230Y027244D03*
Y027795D03*
X030608Y028959D03*
Y029511D03*
X031400Y023450D03*
Y024001D03*
X032961Y034530D03*
Y033978D03*
X029781Y034668D03*
Y034117D03*
X030569Y031991D03*
Y032542D03*
X028994Y034117D03*
Y034668D03*
G54D35*
X037407Y029053D03*
X037467D03*
X037527D03*
X037587D03*
X037647D03*
X037707D03*
X037767D03*
X037827D03*
X037887D03*
X037947D03*
X038007D03*
X038067D03*
X038127D03*
X038187D03*
X038247D03*
X038307D03*
X038367D03*
X038427D03*
Y030553D03*
X038367D03*
X038307D03*
X038247D03*
X038187D03*
X038127D03*
X038067D03*
X038007D03*
X037947D03*
X037887D03*
X037827D03*
X037767D03*
X037707D03*
X037647D03*
X037587D03*
X037527D03*
X037467D03*
X037407D03*
G54D36*
X041119Y035713D03*
Y035453D03*
Y035193D03*
Y034933D03*
Y034673D03*
Y034413D03*
Y034153D03*
Y033893D03*
X043419D03*
Y034153D03*
Y034413D03*
Y034673D03*
Y034933D03*
Y035193D03*
Y035453D03*
Y035713D03*
G54D37*
X036564Y025284D03*
X036304D03*
X036044D03*
X035784D03*
X035524D03*
X035264D03*
X035004D03*
X034744D03*
Y022984D03*
X035004D03*
X035264D03*
X035524D03*
X035784D03*
X036044D03*
X036304D03*
X036564D03*
X039359D03*
X039099D03*
X038839D03*
X038579D03*
X038319D03*
X038059D03*
X037799D03*
X037539D03*
Y025284D03*
X037799D03*
X038059D03*
X038319D03*
X038579D03*
X038839D03*
X039099D03*
X039359D03*
G54D38*
X035021Y028410D03*
X035415D03*
X035025Y031989D03*
X035419D03*
X035021Y031563D03*
X035415D03*
X035027Y031142D03*
X035421D03*
X035023Y030269D03*
X035417D03*
X035021Y030730D03*
X035415D03*
X042088Y032751D03*
X042482D03*
X042088Y036869D03*
X042482D03*
X040466Y023473D03*
X040860D03*
X032941D03*
X032547D03*
G54D39*
X042486Y024075D03*
X042230D03*
X041974D03*
X042486Y023346D03*
X042230D03*
X041974D03*
X044868Y024075D03*
X044612D03*
X044356D03*
X044868Y023346D03*
X044612D03*
X044356D03*
G54D40*
X032978Y038189D03*
X033529D03*
G54D41*
X044506Y020787D03*
X040553Y039055D03*
X035757Y038055D03*
X027813Y038898D03*
G54D42*
X043506Y020787D03*
X042506D03*
X041506D03*
X040506D03*
X039506D03*
X038506D03*
X037506D03*
X036506D03*
X035506D03*
X034506D03*
X033506D03*
X032506D03*
X031506D03*
X045553Y039055D03*
X044553D03*
X043553D03*
X042553D03*
X041553D03*
X035757D03*
X036757Y038055D03*
Y039055D03*
X037757Y038055D03*
Y039055D03*
X038757Y038055D03*
Y039055D03*
X032949Y031598D03*
X031949D03*
X032949Y032598D03*
X045457Y034953D03*
Y033953D03*
Y032953D03*
Y031953D03*
Y030953D03*
X028813Y038898D03*
G54D43*
X036207Y035366D03*
X038207D03*
Y033366D03*
X036207D03*
X037207Y034366D03*
G54D44*
X031949Y032598D03*
X045457Y035953D03*
G54D45*
X029946Y027520D03*
X028946D03*
X029946Y022700D03*
X028946D03*
X029946Y036571D03*
X028946D03*
G54D46*
X027946Y027520D03*
Y022700D03*
Y036571D03*
G54D47*
X038534Y022381D03*
X044660Y024485D03*
X038485Y027141D03*
X028320Y024434D03*
X035652Y026996D03*
X035620Y022389D03*
X042284Y022885D03*
X041974Y022791D03*
G54D48*
X043399Y022740D03*
X044967Y024922D03*
X040934Y036894D03*
X042061Y031572D03*
X045153Y022755D03*
X034055Y023543D03*
X040160Y024571D03*
X042628Y024738D03*
G54D49*
X037660Y030985D03*
X037199Y030962D03*
X037016Y031385D03*
X038271Y031110D03*
X038508Y031573D03*
X038661Y031277D03*
X036948Y030528D03*
X036992Y028731D03*
X039125Y030059D03*
X037863Y028002D03*
X038476Y032618D03*
X038262Y031837D03*
G54D50*
X029642Y021038D03*
X029142D03*
X028642D03*
X028142D03*
X028151Y020643D03*
X028651D03*
X029151D03*
X029651D03*
X033264Y037120D03*
Y036620D03*
Y036120D03*
Y035620D03*
X033659Y035629D03*
Y036129D03*
Y036629D03*
Y037129D03*
X030984Y037984D03*
X030484D03*
X029984D03*
X029484D03*
X029493Y037589D03*
X029993D03*
X030493D03*
X030993D03*
X041870Y029139D03*
X041370D03*
X040870D03*
X040370D03*
X040361Y029534D03*
X040861D03*
X041361D03*
X041861D03*
G54D51*
X035970Y030737D03*
X035984Y031563D03*
X036436Y031989D03*
X036433Y031140D03*
X028974Y032051D03*
G54D52*
X036930Y029971D03*
G54D53*
X031945Y039017D03*
X032911Y024784D03*
M02*