%FSDAX24Y24*%
%MOIN*%
%SFA1B1*%

%IPPOS*%
%ADD10C,0.000000*%
%ADD12C,0.006000*%
%ADD17C,0.005000*%
%LNee194_yesdig_pcb-1*%
%LPD*%
G54D10*
X029315Y025039D02*
D01*
X029315Y025030*
X029316Y025022*
X029317Y025014*
X029319Y025005*
X029322Y024997*
X029325Y024990*
X029329Y024982*
X029333Y024975*
X029337Y024968*
X029343Y024961*
X029348Y024955*
X029354Y024949*
X029361Y024944*
X029367Y024939*
X029375Y024935*
X029382Y024931*
X029390Y024927*
X029397Y024924*
X029405Y024922*
X029414Y024920*
X029422Y024919*
X029430Y024919*
X029439*
X029447Y024919*
X029455Y024920*
X029464Y024922*
X029472Y024924*
X029479Y024927*
X029487Y024931*
X029495Y024935*
X029502Y024939*
X029508Y024944*
X029515Y024949*
X029521Y024955*
X029526Y024961*
X029532Y024968*
X029536Y024975*
X029540Y024982*
X029544Y024990*
X029547Y024997*
X029550Y025005*
X029552Y025014*
X029553Y025022*
X029554Y025030*
X029555Y025039*
G54D12*
X029095Y023859D02*
X029775D01*
Y023979*
Y024179*
Y024719*
X029555Y025039D02*
X029775D01*
X029315D02*
X029555D01*
X029095D02*
X029315D01*
X029095Y024919D02*
Y025039D01*
Y024719D02*
Y024919D01*
Y024549D02*
Y024719D01*
Y024349D02*
Y024549D01*
Y024179D02*
Y024349D01*
X028845Y024919D02*
X029095D01*
X028845Y024719D02*
Y024919D01*
Y024719D02*
X029095D01*
X028845Y024549D02*
X029095D01*
X028845Y024349D02*
Y024549D01*
Y024349D02*
X029095D01*
Y023859D02*
Y023979D01*
Y024179*
X028845D02*
X029095D01*
X028845Y023979D02*
Y024179D01*
Y023979D02*
X029095D01*
X029775D02*
X030025D01*
Y024179*
X029775D02*
X030025D01*
X029775Y024919D02*
Y025039D01*
Y024719D02*
Y024919D01*
Y024719D02*
X030025D01*
Y024919*
X029775D02*
X030025D01*
G54D17*
X029137Y032968D02*
Y032801D01*
X029171Y032768*
X029237*
X029271Y032801*
Y032968*
X029337Y032934D02*
X029371Y032968D01*
X029437*
X029471Y032934*
Y032901*
X029437Y032868*
X029404*
X029437*
X029471Y032834*
Y032801*
X029437Y032768*
X029371*
X029337Y032801*
X029157Y029920D02*
Y029754D01*
X029190Y029720*
X029257*
X029290Y029754*
Y029920*
X029490D02*
X029357D01*
Y029820*
X029423Y029854*
X029457*
X029490Y029820*
Y029754*
X029457Y029720*
X029390*
X029357Y029754*
M02*