%FSDAX24Y24*%
%MOIN*%
%SFA1B1*%

%IPPOS*%
%ADD9500C,0.003000*%
%ADD9501C,0.005000*%
%ADD9502C,0.010000*%
%ADD9503C,0.020000*%
%ADD9504C,0.028000*%
%ADD9505C,0.035400*%
%ADD9506C,0.040200*%
%ADD9507C,0.065000*%
%ADD9508C,0.100000*%
%LNee194_yesdig_pcb-1*%
%LPD*%
G54D9500*
X036930Y029971D03*
G54D9501*
X036992Y028731D03*
X037863Y028002D03*
X037660Y030985D03*
X037199Y030962D03*
X036948Y030528D03*
X038271Y031110D03*
X039125Y030059D03*
X038661Y031277D03*
X038508Y031573D03*
X038262Y031837D03*
X038476Y032618D03*
X037016Y031385D03*
G54D9502*
X035620Y022389D03*
X038534Y022381D03*
X041974Y022791D03*
X042284Y022885D03*
X044660Y024485D03*
X041870Y029139D03*
X041861Y029534D03*
X041361D03*
X041370Y029139D03*
X040870D03*
X040861Y029534D03*
X040361D03*
X040370Y029139D03*
X038485Y027141D03*
X035652Y026996D03*
X028320Y024434D03*
X028142Y021038D03*
X028151Y020643D03*
X028651D03*
X028642Y021038D03*
X029142D03*
X029151Y020643D03*
X029651D03*
X029642Y021038D03*
X029493Y037589D03*
X029484Y037984D03*
X029984D03*
X029993Y037589D03*
X030493D03*
X030484Y037984D03*
X030984D03*
X030993Y037589D03*
X033264Y037120D03*
X033659Y037129D03*
Y036629D03*
X033264Y036620D03*
Y036120D03*
X033659Y036129D03*
Y035629D03*
X033264Y035620D03*
G54D9503*
X035970Y030737D03*
X036433Y031140D03*
X028974Y032051D03*
X035984Y031563D03*
X036436Y031989D03*
G54D9504*
X034055Y023543D03*
X040160Y024571D03*
X042628Y024738D03*
X044967Y024922D03*
X045153Y022755D03*
X043399Y022740D03*
X042061Y031572D03*
X040934Y036894D03*
G54D9505*
X031506Y020787D03*
X032506D03*
X033506D03*
X034506D03*
X035506D03*
X036506D03*
X037506D03*
X038506D03*
X039506D03*
X040506D03*
X041506D03*
X042506D03*
X043506D03*
X044506D03*
X045457Y030953D03*
X028813Y038898D03*
X027813D03*
X035757Y039055D03*
Y038055D03*
X036757D03*
Y039055D03*
X037757D03*
Y038055D03*
X038757D03*
Y039055D03*
X040553D03*
X041553D03*
X042553D03*
X043553D03*
X044553D03*
X045553D03*
X045457Y035953D03*
Y034953D03*
Y033953D03*
Y032953D03*
Y031953D03*
X032949Y031598D03*
X031949D03*
Y032598D03*
X032949D03*
G54D9506*
X027946Y022700D03*
X028946D03*
X029946D03*
Y027520D03*
X028946D03*
X027946D03*
Y036571D03*
X028946D03*
X029946D03*
G54D9507*
X036207Y033366D03*
Y035366D03*
X038207D03*
Y033366D03*
X037207Y034366D03*
G54D9508*
X032911Y024784D03*
X031945Y039017D03*
M02*