%FSDAX24Y24*%
%MOIN*%
%SFA1B1*%

%IPPOS*%
%AMD22*
4,1,8,-0.012800,0.005800,-0.012800,-0.005800,-0.010800,-0.007800,0.010800,-0.007800,0.012800,-0.005800,0.012800,0.005800,0.010800,0.007800,-0.010800,0.007800,-0.012800,0.005800,0.0*
1,1,0.004000,-0.010800,0.005800*
1,1,0.004000,-0.010800,-0.005800*
1,1,0.004000,0.010800,-0.005800*
1,1,0.004000,0.010800,0.005800*
%
%AMD27*
4,1,8,-0.003900,-0.016700,0.003900,-0.016700,0.007800,-0.012800,0.007800,0.012800,0.003900,0.016700,-0.003900,0.016700,-0.007800,0.012800,-0.007800,-0.012800,-0.003900,-0.016700,0.0*
1,1,0.007800,-0.003900,-0.012800*
1,1,0.007800,0.003900,-0.012800*
1,1,0.007800,0.003900,0.012800*
1,1,0.007800,-0.003900,0.012800*
%
%ADD13C,0.010000*%
%ADD17C,0.005000*%
%ADD19R,0.058000X0.022000*%
%ADD20R,0.028300X0.028300*%
%ADD21R,0.019700X0.023600*%
G04~CAMADD=22~8~0.0~0.0~157.0~256.0~20.0~0.0~15~0.0~0.0~0.0~0.0~0~0.0~0.0~0.0~0.0~0~0.0~0.0~0.0~90.0~256.0~156.0*
%ADD22D22*%
%ADD23R,0.035400X0.031500*%
%ADD24R,0.056000X0.014000*%
%ADD25R,0.014000X0.056000*%
%ADD26R,0.023600X0.019700*%
G04~CAMADD=27~8~0.0~0.0~157.0~335.0~39.0~0.0~15~0.0~0.0~0.0~0.0~0~0.0~0.0~0.0~0.0~0~0.0~0.0~0.0~180.0~156.0~334.0*
%ADD27D27*%
%ADD28R,0.031500X0.035400*%
%ADD50C,0.030000*%
%ADD54R,0.003000X0.035000*%
%ADD55R,0.003000X0.024000*%
%ADD56C,0.020000*%
%ADD57C,0.003000*%
%ADD58C,0.050000*%
%ADD59C,0.100000*%
%ADD60R,0.059100X0.059100*%
%ADD61C,0.059100*%
%ADD62C,0.086600*%
%ADD63R,0.059100X0.059100*%
%ADD64C,0.061000*%
%ADD65R,0.061000X0.061000*%
%ADD66C,0.020000*%
%ADD67C,0.050000*%
%ADD68C,0.015000*%
%ADD69C,0.022000*%
%ADD70C,0.009000*%
%ADD71C,0.120000*%
%LNee194_yesdig_pcb-1*%
%LPD*%
G54D17*
X035477Y039692D02*
X035455Y039673D01*
X035431Y039645*
X032308*
X032223Y039690*
X032185Y039701*
X032186Y039709*
X035471*
X035477Y039692*
X032290Y039660D02*
X035440D01*
X042489Y038785D02*
X042506D01*
X042428Y038778*
X042393Y038774*
X042360Y038767*
X042331Y038758*
X042304Y038749*
X042279Y038736*
X042258Y038723*
X042258Y038723*
X042219Y038760*
X042220Y038761*
X042234Y038782*
X042246Y038806*
X042256Y038833*
X042265Y038863*
X042271Y038895*
X042276Y038931*
X042282Y039009*
Y038991*
X042489Y038785*
X042240Y038750D02*
X042290D01*
X042260Y038800D02*
X042460D01*
X042280Y038850D02*
X042410D01*
X042280Y038900D02*
X042360D01*
X042290Y038950D02*
X042310D01*
X041489Y038785D02*
X041506D01*
X041428Y038778*
X041393Y038774*
X041360Y038767*
X041331Y038758*
X041304Y038749*
X041279Y038736*
X041258Y038723*
X041258Y038723*
X041219Y038760*
X041220Y038761*
X041234Y038782*
X041246Y038806*
X041256Y038833*
X041265Y038863*
X041271Y038895*
X041276Y038931*
X041282Y039009*
Y038991*
X041489Y038785*
X041240Y038750D02*
X041290D01*
X041260Y038800D02*
X041460D01*
X041280Y038850D02*
X041410D01*
X041280Y038900D02*
X041360D01*
X041290Y038950D02*
X041310D01*
X040132Y038662D02*
X040127Y038638D01*
X039186*
X039180Y038653*
X039404Y038877*
X040132*
Y038662*
X040082Y038666D02*
X040085Y038688D01*
X039220*
X039239Y038641*
X039424Y038827*
X040082*
Y038666*
X039200Y038660D02*
X040130D01*
X039250Y038710D02*
X040130D01*
X039300Y038760D02*
X040130D01*
X039350Y038810D02*
X040130D01*
X039400Y038860D02*
X040130D01*
X046152Y020228D02*
X046138Y020215D01*
X026935*
X026935Y022849*
X026947Y022852*
X026975Y022801*
X027052Y022706*
X027503Y022255*
X027597Y022178*
X027706Y022119*
X027824Y022084*
X027945Y022071*
X028068Y022084*
X028186Y022119*
X028294Y022178*
X028390Y022256*
X028468Y022351*
X028526Y022459*
X028541Y022509*
X028559Y022510*
X028571Y022483*
X028640Y022393*
X028729Y022324*
X028834Y022280*
X028945Y022265*
X029058Y022280*
X029163Y022324*
X029252Y022393*
X029321Y022483*
X029365Y022587*
X029380Y022700*
X029365Y022812*
X029321Y022916*
X029273Y022980*
X029270Y022985*
X029259Y022999*
X029253Y023005*
X029253Y023005*
X029252Y023007*
X029237Y023026*
X029226Y023043*
X029217Y023061*
X029208Y023077*
X029202Y023094*
X029198Y023111*
X029194Y023128*
X029194Y023136*
Y023813*
X029194Y023826*
X029197Y023844*
X029201Y023858*
X029190Y023851*
X029380Y023842*
Y024239*
Y024447*
X029402Y024456*
X029391Y024459*
X029460Y024374*
X029514Y024330*
X029508Y024314*
X029490*
Y023844*
X030320*
Y023850*
X031098*
Y023757*
Y023744*
Y023707*
Y023694*
Y023475*
X031400*
X031702*
Y023694*
Y023707*
Y023744*
Y023757*
Y024191*
X032490*
X032505Y024178*
X032632Y024110*
X032769Y024069*
X032911Y024055*
X033052Y024069*
X033189Y024110*
X033193Y024114*
X033191Y024113*
X033240Y024133*
X033272Y024145*
X033306Y024154*
X033390Y024172*
X033432Y024178*
X033586Y024189*
X038462*
X038493Y024193*
X040161*
X040257Y024205*
X040349Y024243*
X040427Y024303*
X040487Y024381*
X040525Y024473*
X040538Y024571*
X040525Y024668*
X040487Y024760*
X040427Y024838*
X040349Y024898*
X040257Y024936*
X040161Y024949*
X039554*
Y025170*
X039571Y025196*
X039588Y025281*
Y026845*
X039603Y026851*
X041745Y024710*
Y024072*
X041762Y023987*
X041768Y023978*
Y023944*
X041779Y023882*
X041816Y023827*
X041870Y023792*
X041932Y023780*
X042015*
X042077Y023792*
X042102Y023808*
X042126Y023792*
X042205Y023776*
Y024050*
X042256*
X042255Y024058*
Y023776*
X042333Y023792*
X042358Y023808*
X042382Y023792*
X042443Y023780*
X042527*
X042589Y023792*
X042644Y023827*
X042679Y023882*
X042692Y023944*
Y023995*
X042691Y023994*
X042709Y024078*
Y024268*
X042791Y024351*
X042835Y024417*
X042855Y024439*
X042895Y024470*
X042955Y024548*
X042993Y024640*
X043006Y024738*
X042993Y024835*
X042955Y024927*
X042895Y025006*
X042887Y025012*
X042880Y025018*
X042874Y025026*
X042869Y025033*
X042865Y025041*
X042861Y025051*
X042857Y025061*
X042854Y025073*
X042852Y025087*
X042853Y025087*
Y025316*
X042853Y025343*
X042854Y025324*
X042890*
Y025442*
X042891Y025450*
X042890Y025457*
Y025857*
X042255*
Y025616*
X042205*
Y025566*
X041963*
Y025457*
X041961Y025450*
X041963Y025442*
Y025324*
X041999*
X042001Y025307*
Y025123*
X041985Y025117*
X041107Y025995*
X041110Y026005*
X041114Y026011*
X043126*
X044127Y025010*
Y024072*
X044144Y023988*
X044149Y023979*
Y023944*
X044161Y023882*
X044198Y023827*
X044252Y023792*
X044314Y023780*
X044397*
X044459Y023792*
X044484Y023808*
X044508Y023792*
X044587Y023776*
Y024050*
X044637*
Y023776*
X044715Y023792*
X044740Y023808*
X044764Y023792*
X044825Y023780*
X044909*
X044970Y023792*
X045025Y023827*
X045061Y023882*
X045074Y023944*
Y023957*
X045149Y024033*
X045197Y024105*
X045215Y024190*
Y024587*
Y024587*
X045216Y024600*
X045220Y024613*
X045223Y024626*
X045228Y024637*
X045232Y024646*
X045238Y024656*
X045244Y024665*
X045254Y024679*
X045258Y024686*
X045294Y024732*
X045332Y024824*
X045345Y024922*
X045332Y025019*
X045294Y025111*
X045258Y025157*
X045254Y025164*
X045244Y025178*
X045237Y025187*
X045232Y025196*
X045228Y025206*
X045223Y025217*
X045220Y025230*
X045216Y025243*
X045215Y025256*
Y025257*
Y025316*
X045215Y025341*
X045212Y025324*
X045253*
Y025446*
Y025450*
Y025454*
Y025857*
X044617*
Y025616*
X044567*
Y025566*
X044325*
Y025480*
X044309Y025474*
X043380Y026403*
X043308Y026451*
X043223Y026469*
X041188*
X040072Y027584*
X040067Y027593*
X039992Y027642*
X039905Y027660*
X039897Y027658*
X039902Y027659*
X039892Y027664*
X039880Y027670*
X039866Y027679*
X039852Y027689*
X039813Y027723*
X039805Y027731*
X038677Y028859*
X038653Y028885*
Y030121*
X038861*
X038898Y030084*
X039084*
X039066Y030120*
X039064Y030126*
X039059Y030136*
X039053Y030143*
X039064Y030129*
X039054Y030119*
X039041Y030130*
X039047Y030124*
X039057Y030119*
X039065Y030117*
X039073Y030114*
X039082Y030112*
X039093Y030111*
X039102Y030110*
X039066Y030111*
X039038Y030084*
X039322*
X039313Y030136*
X039291Y030170*
X039298Y030177*
X039306Y030172*
X039391Y030155*
X043504*
X043589Y030172*
X043661Y030220*
X044158Y030717*
X044264*
Y030580*
X044487*
X044710*
Y030720*
X045105*
X045157Y030653*
X045245Y030585*
X045347Y030543*
X045457Y030528*
X045566Y030543*
X045668Y030585*
X045756Y030653*
X045823Y030740*
X045866Y030843*
X045881Y030953*
X045866Y031062*
X045823Y031164*
X045756Y031252*
X045668Y031319*
X045566Y031362*
X045457Y031376*
X045347Y031362*
X045245Y031319*
X045157Y031252*
X045099Y031178*
X044710*
Y031192*
X044264*
Y031175*
X044061*
X043976Y031157*
X043904Y031109*
X043407Y030613*
X039391*
X039306Y030595*
X039231Y030546*
X039216Y030523*
X038653*
Y030660*
X038662Y030669*
X038677Y030679*
X038690Y030688*
X038702Y030694*
X038711Y030699*
X038710Y030699*
X038715Y030699*
X038802Y030716*
X038874Y030764*
X040643Y032533*
X040691Y032605*
X040709Y032690*
Y033468*
X040905Y033664*
X041121*
X041206Y033681*
X041232Y033698*
X041524*
Y033983*
Y034243*
Y034477*
X041571Y034509*
X041838Y034776*
X042251Y035188*
X042300Y035261*
X042317Y035346*
Y036670*
X042304Y036658*
X042457Y036643*
Y036869*
Y037092*
X042171*
X042150Y037105*
X042065Y037123*
X041280*
X041280*
X041266Y037125*
X041254Y037128*
X041243Y037131*
X041235Y037135*
X041225Y037140*
X041217Y037145*
X041210Y037150*
X041207Y037153*
X041202Y037161*
X041123Y037221*
X041031Y037259*
X040934Y037272*
X040836Y037259*
X040744Y037221*
X040666Y037161*
X040606Y037083*
X040568Y036991*
X040555Y036894*
X040568Y036796*
X040606Y036704*
X040666Y036626*
X040744Y036566*
X040836Y036528*
X040934Y036515*
X041031Y036528*
X041123Y036566*
X041202Y036626*
X041207Y036634*
X041210Y036637*
X041217Y036642*
X041225Y036647*
X041235Y036652*
X041243Y036656*
X041254Y036659*
X041267Y036662*
X041280Y036665*
X041280*
X041845*
Y036646*
X041858*
X041859Y036631*
Y035444*
X041659Y035244*
X041642Y035231*
X041619Y035215*
X041596Y035202*
X041572Y035191*
X041546Y035181*
X041552Y035183*
X041524Y035200*
Y035543*
Y035908*
X041232*
X041206Y035925*
X041121Y035942*
X039464*
X039379Y035925*
X039306Y035876*
X038913Y035482*
X038865Y035410*
X038848Y035325*
Y033313*
X038763Y033230*
X038751Y033238*
Y033225*
X038766Y033341*
X038232*
Y032806*
X038347Y032822*
X038337Y032827*
X038345Y032811*
X038312Y032777*
X038264Y032705*
X038246Y032618*
X038264Y032530*
X038313Y032455*
X038388Y032406*
X038475Y032388*
X038467Y032386*
X038475Y032373*
X038098Y031997*
X038069Y031955*
X038034Y031947*
X037440Y032542*
Y033708*
X037443Y033727*
X037449Y033751*
X037459Y033777*
X037473Y033805*
X037491Y033834*
X037511Y033865*
X037569Y033935*
X037589Y033956*
X037604Y033968*
X037694Y034084*
X037750Y034220*
X037770Y034366*
X037750Y034511*
X037694Y034647*
X037604Y034763*
X037488Y034853*
X037352Y034909*
X037207Y034929*
X037061Y034909*
X036925Y034853*
X036809Y034763*
X036719Y034647*
X036663Y034511*
X036643Y034366*
X036663Y034220*
X036719Y034084*
X036809Y033968*
X036826Y033954*
X036852Y033927*
X036883Y033893*
X036909Y033861*
X036931Y033831*
X036949Y033802*
X036962Y033774*
X036972Y033749*
X036978Y033725*
X036982Y033707*
Y032445*
X036999Y032360*
X037047Y032288*
X037108Y032227*
X037100Y032213*
X037079Y032218*
X036588*
X036543Y032248*
X036436Y032269*
X036328Y032248*
X036284Y032218*
X036268Y032218*
X035416*
X035388Y032212*
X035050*
Y032014*
X035000*
Y031964*
X034782*
Y031792*
X034778Y031762*
Y031742*
Y031588*
X034996*
Y031538*
X034778*
Y031388*
Y031362*
X034784Y031337*
Y031167*
X035002*
Y031117*
X034784*
Y030948*
X034778Y030932*
Y030896*
Y030755*
X034996*
Y030705*
X035046*
Y030507*
X035267*
X035277Y030484*
X035283Y030492*
X035048*
Y030269*
Y030046*
X035186*
X035188Y030031*
Y029637*
X032598*
Y030249*
X033217Y030868*
X033276Y030945*
X033314Y031037*
X033327Y031133*
Y031412*
X033358Y031488*
X033373Y031598*
X033358Y031707*
X033315Y031809*
X033248Y031897*
X033160Y031964*
X033058Y032007*
X032949Y032022*
X032839Y032007*
X032737Y031964*
X032649Y031897*
X032582Y031809*
X032539Y031707*
X032524Y031598*
X032539Y031488*
X032571Y031412*
Y031291*
X031951Y030672*
X031892Y030595*
X031854Y030503*
X031842Y030407*
Y027803*
X031854Y027707*
X031892Y027616*
X031923Y027576*
X031928Y027536*
Y027502*
Y027269*
X032230*
X032532*
Y027502*
Y027536*
X032535Y027576*
X032557Y027606*
X032595Y027697*
X032608Y027793*
Y028881*
X035167*
X035166Y028891*
X035181Y028665*
X035157Y028633*
X035046*
Y028410*
Y028187*
X035166*
X035172Y028170*
X034616Y027614*
X034587Y027570*
X034583Y027566*
X034532Y027492*
X034515Y027407*
Y025281*
X034532Y025196*
X034549Y025170*
Y024945*
X033840*
X033816Y024945*
X033769Y024950*
X033729Y024958*
X033694Y024969*
X033665Y024981*
X033640Y024995*
X033620Y025010*
X033605Y025027*
X033591Y025048*
X033585Y025059*
X033584Y025062*
X033516Y025189*
X033425Y025298*
X033316Y025389*
X033189Y025457*
X033052Y025498*
X032911Y025512*
X032769Y025498*
X032632Y025457*
X032612Y025447*
X030300*
X030302Y025438*
X030293Y025488*
X030283Y025606*
Y025620*
Y025649*
X030285Y025669*
X030272Y025767*
X030234Y025858*
X030212Y025887*
X030209Y025928*
Y025963*
Y026195*
X029605*
Y025963*
Y025928*
X029601Y025887*
X029577Y025855*
X029539Y025764*
X029527Y025668*
Y025646*
X029522Y025544*
X029515Y025489*
X029506Y025438*
X029494Y025389*
X029480Y025344*
X029464Y025301*
X029445Y025263*
X029425Y025228*
X029399Y025189*
X029381Y025167*
X029324Y025059*
X029322Y025054*
X028550*
Y025048*
X028125*
Y025270*
X028135Y025274*
X028156Y025291*
X028845*
X028941Y025303*
X029033Y025342*
X029091Y025387*
X029146*
Y025447*
X029171Y025480*
X029209Y025571*
X029222Y025668*
X029209Y025767*
X029171Y025858*
X029149Y025887*
X029146Y025928*
Y025963*
Y026195*
X028542*
Y026047*
X028125*
Y026809*
X028391Y027076*
X028468Y027171*
X028526Y027279*
X028541Y027329*
X028559Y027330*
X028571Y027302*
X028640Y027213*
X028729Y027144*
X028834Y027100*
X028945Y027085*
X029058Y027100*
X029163Y027144*
X029252Y027213*
X029321Y027302*
X029365Y027407*
X029380Y027520*
X029365Y027631*
X029321Y027736*
X029252Y027826*
X029243Y027833*
X029233Y027844*
X029219Y027861*
X029207Y027876*
X029198Y027893*
X029190Y027908*
X029184Y027923*
X029180Y027940*
X029176Y027957*
X029175Y027965*
Y029278*
X029175Y029284*
X029178Y029303*
X029182Y029319*
X029184Y029327*
X029187Y029332*
X029185Y029329*
X029186Y029329*
X029196Y029338*
X029212Y029346*
X029214Y029349*
X029215Y029350*
X029221Y029358*
X029223Y029361*
X029230Y029372*
X029243Y029388*
Y029392*
X029247Y029399*
X029259Y029452*
Y029576*
X029247Y029630*
X029239Y029642*
X029247Y029655*
X029259Y029708*
Y029745*
X029003*
X028748*
Y029708*
X028758Y029655*
X028766Y029642*
X028758Y029629*
X028748Y029576*
Y029565*
X028734Y029545*
X028718Y029460*
Y027965*
X028716Y027956*
X028712Y027940*
X028708Y027923*
X028702Y027908*
X028693Y027892*
X028685Y027876*
X028673Y027861*
X028659Y027844*
X028649Y027833*
X028640Y027826*
X028588Y027760*
X028571Y027763*
X028574Y027761*
Y029797*
X028748*
Y029795*
X029003*
X029259*
Y029831*
X029247Y029886*
X029239Y029898*
X029247Y029911*
X029259Y029964*
Y030087*
X029247Y030141*
X029216Y030190*
X029167Y030221*
X029114Y030232*
X029100*
X029091Y030238*
X029005Y030255*
X028574*
Y030589*
X029034*
X029131Y030601*
X029222Y030640*
X029281Y030685*
X029335*
Y030745*
X029360Y030778*
X029398Y030869*
X029411Y030966*
X029398Y031065*
X029360Y031156*
X029338Y031185*
X029335Y031226*
Y031261*
Y031493*
X028731*
Y031345*
X028574*
Y032845*
X028729*
Y032843*
X028984*
X029239*
Y032879*
X029228Y032932*
X029220Y032945*
X029228Y032958*
X029239Y033012*
Y033135*
X029228Y033188*
X029197Y033237*
X029148Y033268*
X029094Y033280*
X029080*
X029071Y033285*
X028986Y033302*
X028574*
Y034290*
X028692*
Y034142*
X028994*
X029296*
Y034374*
Y034409*
X029299Y034449*
X029321Y034479*
X029359Y034570*
X029372Y034668*
X029359Y034765*
X029321Y034857*
X029296Y034890*
Y034951*
X029241*
X029182Y034995*
X029091Y035033*
X028995Y035046*
X028574*
Y036329*
X028571Y036328*
X028588Y036330*
X028640Y036264*
X028729Y036195*
X028834Y036151*
X028945Y036136*
X029058Y036151*
X029163Y036195*
X029252Y036264*
X029321Y036354*
X029365Y036458*
X029380Y036571*
X029365Y036683*
X029321Y036787*
X029252Y036877*
X029163Y036946*
X029058Y036990*
X028945Y037005*
X028834Y036990*
X028729Y036946*
X028640Y036877*
X028571Y036787*
X028559Y036760*
X028541Y036761*
X028526Y036811*
X028468Y036919*
X028441Y036953*
Y038672*
X028449Y038674*
X028445Y038685*
X028513Y038598*
X028600Y038530*
X028702Y038488*
X028788Y038477*
Y038898*
Y039318*
X028702Y039307*
X028600Y039264*
X028513Y039197*
X028445Y039109*
X028430Y039072*
X028412Y039073*
X028393Y039137*
X028334Y039246*
X028256Y039341*
X028161Y039419*
X028052Y039478*
X027934Y039513*
X027813Y039526*
X027690Y039513*
X027572Y039478*
X027464Y039419*
X027368Y039341*
X027290Y039246*
X027232Y039137*
X027196Y039019*
X027185Y038899*
Y036703*
X027196Y036582*
X027232Y036464*
X027290Y036356*
X027307Y036334*
X027319Y036314*
Y034707*
Y033074*
Y030961*
Y030026*
Y027779*
X027052Y027513*
X026975Y027418*
X026944Y027362*
X026931Y027365*
X026926Y039677*
X026957Y039709*
X031703*
X031704Y039701*
X031666Y039690*
X031539Y039622*
X031430Y039531*
X031339Y039422*
X031271Y039295*
X031230Y039158*
X031216Y039017*
X031230Y038875*
X031271Y038738*
X031339Y038611*
X031430Y038502*
X031539Y038411*
X031666Y038343*
X031803Y038302*
X031945Y038288*
X032086Y038302*
X032223Y038343*
X032308Y038389*
X032695*
Y038214*
X032953*
Y038164*
X033003*
Y037887*
X033235*
X033270*
X033310Y037883*
X033340Y037861*
X033431Y037823*
X033528Y037810*
X033627Y037823*
X033718Y037861*
X033751Y037887*
X033812*
Y037941*
X033856Y037999*
X033894Y038091*
X033907Y038187*
Y038389*
X035337*
Y037635*
X036178*
Y037914*
X036197Y037927*
X036318Y038049*
X036330Y038043*
X036335Y038040*
X036347Y037945*
X036390Y037843*
X036458Y037755*
X036545Y037688*
X036647Y037645*
X036756Y037630*
X036867Y037645*
X036969Y037688*
X037056Y037755*
X037114Y037829*
X037124Y037842*
X037128Y037854*
X037127Y037849*
X037131Y037854*
X037138Y037861*
X037143Y037865*
X037149Y037869*
X037156Y037872*
X037161Y037875*
X037166Y037876*
X037171Y037877*
X037186*
X037252Y037890*
X037307Y037927*
X037330Y037949*
X037347Y037943*
X037347Y037945*
X037390Y037843*
X037458Y037755*
X037545Y037688*
X037647Y037645*
X037756Y037630*
X037867Y037645*
X037969Y037688*
X038056Y037755*
X038115Y037830*
X038118Y037834*
X038118Y037834*
X038124Y037837*
X038146Y037837*
X038150Y037837*
X038465Y037522*
X038521Y037485*
X038587Y037472*
X041149*
X041215Y037485*
X041271Y037522*
X042350Y038601*
X042355Y038604*
X042365Y038609*
X042378Y038614*
X042397Y038619*
X042419Y038624*
X042444Y038628*
X042511Y038633*
X042539*
X042552Y038630*
X042662Y038645*
X042764Y038688*
X042852Y038755*
X042919Y038843*
X042962Y038945*
X042976Y039055*
X042962Y039164*
X042920Y039265*
X042920Y039264*
X042929Y039282*
X043172*
X043177Y039277*
X043181Y039263*
X043185Y039268*
X043143Y039164*
X043128Y039055*
X043143Y038945*
X043185Y038843*
X043253Y038755*
X043340Y038688*
X043443Y038645*
X043553Y038630*
X043662Y038645*
X043764Y038688*
X043852Y038755*
X043919Y038843*
X043962Y038945*
X043976Y039055*
X043962Y039164*
X043919Y039266*
X043852Y039354*
X043764Y039421*
X043750Y039427*
X043670Y039471*
X043552Y039540*
X043519Y039561*
X043520Y039561*
X043486Y039594*
X043431Y039631*
X043362Y039645*
X043327Y039638*
X042382*
X042316Y039625*
X042261Y039588*
X041940Y039268*
X041917Y039272*
X041912Y039276*
X041852Y039354*
X041764Y039421*
X041662Y039464*
X041553Y039479*
X041443Y039464*
X041340Y039421*
X041253Y039354*
X041185Y039266*
X041143Y039164*
X041128Y039055*
X041130Y039042*
Y039014*
X041126Y038946*
X041122Y038922*
X041117Y038899*
X041112Y038880*
X041107Y038867*
X041102Y038857*
X041099Y038854*
X040988Y038742*
X040973Y038748*
Y039475*
X040132*
Y039233*
X039340*
X039339Y039233*
X039309Y039261*
X039300Y039351*
X039265Y039470*
X039206Y039579*
X039128Y039673*
X039106Y039692*
X039112Y039709*
X046152*
Y020228*
X026950Y020220D02*
Y022840D01*
Y027390D02*
Y039710D01*
X027000Y020220D02*
Y022770D01*
Y027460D02*
Y039710D01*
X027050Y020220D02*
Y022700D01*
Y027530D02*
Y039710D01*
X027100Y020220D02*
Y022650D01*
Y027580D02*
Y039710D01*
X027150Y020220D02*
Y022600D01*
Y027630D02*
Y039710D01*
X027200Y020220D02*
Y022550D01*
Y027680D02*
Y036570D01*
Y039040D02*
Y039710D01*
X027250Y020220D02*
Y022500D01*
Y027730D02*
Y036420D01*
Y039190D02*
Y039710D01*
X027300Y020220D02*
Y022450D01*
Y027780D02*
Y036340D01*
Y039280D02*
Y039710D01*
X027350Y020220D02*
Y022400D01*
Y039330D02*
Y039710D01*
X027400Y020220D02*
Y022350D01*
Y039380D02*
Y039710D01*
X027450Y020220D02*
Y022300D01*
Y039430D02*
Y039710D01*
X027500Y020220D02*
Y022250D01*
Y039460D02*
Y039710D01*
X027550Y020220D02*
Y022210D01*
Y039480D02*
Y039710D01*
X027600Y020220D02*
Y022170D01*
Y039500D02*
Y039710D01*
X027650Y020220D02*
Y022150D01*
Y039520D02*
Y039710D01*
X027700Y020220D02*
Y022120D01*
Y039530D02*
Y039710D01*
X027750Y020220D02*
Y022100D01*
Y039540D02*
Y039710D01*
X027800Y020220D02*
Y022080D01*
Y039540D02*
Y039710D01*
X027850Y020220D02*
Y022070D01*
Y039540D02*
Y039710D01*
X027900Y020220D02*
Y022070D01*
Y039530D02*
Y039710D01*
X027950Y020220D02*
Y022070D01*
Y039520D02*
Y039710D01*
X028000Y020220D02*
Y022070D01*
Y039510D02*
Y039710D01*
X028050Y020220D02*
Y022070D01*
Y039490D02*
Y039710D01*
X028100Y020220D02*
Y022090D01*
Y039470D02*
Y039710D01*
X028150Y020220D02*
Y022100D01*
Y025060D02*
Y025280D01*
Y026060D02*
Y026840D01*
Y039440D02*
Y039710D01*
X028200Y020220D02*
Y022120D01*
Y025060D02*
Y025280D01*
Y026060D02*
Y026890D01*
Y039400D02*
Y039710D01*
X028250Y020220D02*
Y022150D01*
Y025060D02*
Y025280D01*
Y026060D02*
Y026940D01*
Y039360D02*
Y039710D01*
X028300Y020220D02*
Y022180D01*
Y025060D02*
Y025280D01*
Y026060D02*
Y026990D01*
Y039300D02*
Y039710D01*
X028350Y020220D02*
Y022220D01*
Y025060D02*
Y025280D01*
Y026060D02*
Y027040D01*
Y039230D02*
Y039710D01*
X028400Y020220D02*
Y022270D01*
Y025060D02*
Y025280D01*
Y026060D02*
Y027090D01*
Y039120D02*
Y039710D01*
X028450Y020220D02*
Y022320D01*
Y025060D02*
Y025280D01*
Y026060D02*
Y027140D01*
Y036950D02*
Y038680D01*
Y039130D02*
Y039710D01*
X028500Y020220D02*
Y022400D01*
Y025060D02*
Y025280D01*
Y026060D02*
Y027220D01*
Y036880D02*
Y038610D01*
Y039200D02*
Y039710D01*
X028550Y020220D02*
Y022500D01*
Y025060D02*
Y025280D01*
Y026200D02*
Y027320D01*
Y036770D02*
Y038560D01*
Y039240D02*
Y039710D01*
X028600Y020220D02*
Y022440D01*
Y025060D02*
Y025280D01*
Y026200D02*
Y027260D01*
Y027790D02*
Y029790D01*
Y030260D02*
Y030580D01*
Y031350D02*
Y032830D01*
Y033310D02*
Y034280D01*
Y035060D02*
Y036310D01*
Y036840D02*
Y038520D01*
Y039280D02*
Y039710D01*
X028650Y020220D02*
Y022380D01*
Y025060D02*
Y025280D01*
Y026200D02*
Y027200D01*
Y027850D02*
Y029790D01*
Y030260D02*
Y030580D01*
Y031350D02*
Y032830D01*
Y033310D02*
Y034280D01*
Y035060D02*
Y036250D01*
Y036900D02*
Y038500D01*
Y039300D02*
Y039710D01*
X028700Y020220D02*
Y022340D01*
Y025060D02*
Y025280D01*
Y026200D02*
Y027160D01*
Y027930D02*
Y029790D01*
Y030260D02*
Y030580D01*
Y031350D02*
Y032830D01*
Y033310D02*
Y034130D01*
Y035060D02*
Y036210D01*
Y036940D02*
Y038480D01*
Y039330D02*
Y039710D01*
X028750Y020220D02*
Y022310D01*
Y025060D02*
Y025280D01*
Y026200D02*
Y027130D01*
Y029600D02*
Y029700D01*
Y029750D02*
Y029780D01*
Y030260D02*
Y030580D01*
Y031500D02*
Y032830D01*
Y033310D02*
Y034130D01*
Y035060D02*
Y036180D01*
Y036970D02*
Y038480D01*
Y039330D02*
Y039710D01*
X028800Y020220D02*
Y022290D01*
Y025060D02*
Y025280D01*
Y026200D02*
Y027110D01*
Y029750D02*
Y029780D01*
Y030260D02*
Y030580D01*
Y031500D02*
Y032830D01*
Y033310D02*
Y034130D01*
Y035060D02*
Y036160D01*
Y036990D02*
Y039710D01*
X028850Y020220D02*
Y022270D01*
Y025060D02*
Y025290D01*
Y026200D02*
Y027090D01*
Y029750D02*
Y029780D01*
Y030260D02*
Y030580D01*
Y031500D02*
Y032830D01*
Y033310D02*
Y034130D01*
Y035060D02*
Y036140D01*
Y037010D02*
Y039710D01*
X028900Y020220D02*
Y022270D01*
Y025060D02*
Y025290D01*
Y026200D02*
Y027090D01*
Y029750D02*
Y029780D01*
Y030260D02*
Y030580D01*
Y031500D02*
Y032830D01*
Y033310D02*
Y034130D01*
Y035060D02*
Y036140D01*
Y037020D02*
Y039710D01*
X028950Y020220D02*
Y022270D01*
Y025060D02*
Y025300D01*
Y026200D02*
Y027090D01*
Y029750D02*
Y029780D01*
Y030260D02*
Y030580D01*
Y031500D02*
Y032830D01*
Y033310D02*
Y034130D01*
Y035060D02*
Y036140D01*
Y037020D02*
Y039710D01*
X029000Y020220D02*
Y022270D01*
Y025060D02*
Y025320D01*
Y026200D02*
Y027090D01*
Y029750D02*
Y029780D01*
Y030260D02*
Y030580D01*
Y031500D02*
Y032830D01*
Y033310D02*
Y034130D01*
Y035060D02*
Y036140D01*
Y037020D02*
Y039710D01*
X029050Y020220D02*
Y022270D01*
Y025060D02*
Y025350D01*
Y026200D02*
Y027090D01*
Y029750D02*
Y029780D01*
Y030260D02*
Y030590D01*
Y031500D02*
Y032830D01*
Y033310D02*
Y034130D01*
Y035050D02*
Y036140D01*
Y037010D02*
Y039710D01*
X029100Y020220D02*
Y022290D01*
Y025060D02*
Y025380D01*
Y026200D02*
Y027110D01*
Y029750D02*
Y029780D01*
Y030240D02*
Y030590D01*
Y031500D02*
Y032830D01*
Y033290D02*
Y034130D01*
Y035040D02*
Y036170D01*
Y036990D02*
Y039710D01*
X029150Y020220D02*
Y022310D01*
Y025060D02*
Y025450D01*
Y025900D02*
Y027130D01*
Y029750D02*
Y029780D01*
Y030240D02*
Y030600D01*
Y031500D02*
Y032830D01*
Y033280D02*
Y034130D01*
Y035020D02*
Y036190D01*
Y036970D02*
Y039710D01*
X029200Y020220D02*
Y022350D01*
Y023100D02*
Y023840D01*
Y025060D02*
Y025540D01*
Y025810D02*
Y027170D01*
Y027900D02*
Y029340D01*
Y029750D02*
Y029780D01*
Y030220D02*
Y030630D01*
Y031500D02*
Y032830D01*
Y033250D02*
Y034130D01*
Y035000D02*
Y036220D01*
Y036930D02*
Y039710D01*
X029250Y020220D02*
Y022390D01*
Y023020D02*
Y023840D01*
Y025060D02*
Y027210D01*
Y027840D02*
Y029400D01*
Y029640D02*
Y029660D01*
Y029750D02*
Y029780D01*
Y029900D02*
Y029910D01*
Y030150D02*
Y030660D01*
Y031500D02*
Y034130D01*
Y034960D02*
Y036260D01*
Y036890D02*
Y039710D01*
X029300Y020220D02*
Y022450D01*
Y022960D02*
Y023840D01*
Y025060D02*
Y027270D01*
Y027780D02*
Y030670D01*
Y031500D02*
Y034450D01*
Y034900D02*
Y036320D01*
Y036830D02*
Y039710D01*
X029350Y020220D02*
Y022540D01*
Y022870D02*
Y023840D01*
Y025130D02*
Y027360D01*
Y027690D02*
Y030770D01*
Y031190D02*
Y034540D01*
Y034810D02*
Y036410D01*
Y036740D02*
Y039710D01*
X029400Y020220D02*
Y024440D01*
Y025210D02*
Y030870D01*
Y031080D02*
Y039710D01*
X029450Y020220D02*
Y024380D01*
Y025280D02*
Y039710D01*
X029500Y020220D02*
Y023830D01*
Y024320D02*
Y024330D01*
Y025430D02*
Y039710D01*
X029550Y020220D02*
Y023830D01*
Y025800D02*
Y039710D01*
X029600Y020220D02*
Y023830D01*
Y026200D02*
Y039710D01*
X029650Y020220D02*
Y023830D01*
Y026200D02*
Y039710D01*
X029700Y020220D02*
Y023830D01*
Y026200D02*
Y039710D01*
X029750Y020220D02*
Y023830D01*
Y026200D02*
Y039710D01*
X029800Y020220D02*
Y023830D01*
Y026200D02*
Y039710D01*
X029850Y020220D02*
Y023830D01*
Y026200D02*
Y039710D01*
X029900Y020220D02*
Y023830D01*
Y026200D02*
Y039710D01*
X029950Y020220D02*
Y023830D01*
Y026200D02*
Y039710D01*
X030000Y020220D02*
Y023830D01*
Y026200D02*
Y039710D01*
X030050Y020220D02*
Y023830D01*
Y026200D02*
Y039710D01*
X030100Y020220D02*
Y023830D01*
Y026200D02*
Y039710D01*
X030150Y020220D02*
Y023830D01*
Y026200D02*
Y039710D01*
X030200Y020220D02*
Y023830D01*
Y026200D02*
Y039710D01*
X030250Y020220D02*
Y023830D01*
Y025830D02*
Y039710D01*
X030300Y020220D02*
Y023830D01*
Y025460D02*
Y039710D01*
X030350Y020220D02*
Y023840D01*
Y025460D02*
Y039710D01*
X030400Y020220D02*
Y023840D01*
Y025460D02*
Y039710D01*
X030450Y020220D02*
Y023840D01*
Y025460D02*
Y039710D01*
X030500Y020220D02*
Y023840D01*
Y025460D02*
Y039710D01*
X030550Y020220D02*
Y023840D01*
Y025460D02*
Y039710D01*
X030600Y020220D02*
Y023840D01*
Y025460D02*
Y039710D01*
X030650Y020220D02*
Y023840D01*
Y025460D02*
Y039710D01*
X030700Y020220D02*
Y023840D01*
Y025460D02*
Y039710D01*
X030750Y020220D02*
Y023840D01*
Y025460D02*
Y039710D01*
X030800Y020220D02*
Y023840D01*
Y025460D02*
Y039710D01*
X030850Y020220D02*
Y023840D01*
Y025460D02*
Y039710D01*
X030900Y020220D02*
Y023840D01*
Y025460D02*
Y039710D01*
X030950Y020220D02*
Y023840D01*
Y025460D02*
Y039710D01*
X031000Y020220D02*
Y023840D01*
Y025460D02*
Y039710D01*
X031050Y020220D02*
Y023840D01*
Y025460D02*
Y039710D01*
X031100Y020220D02*
Y023460D01*
Y025460D02*
Y039710D01*
X031150Y020220D02*
Y023460D01*
Y025460D02*
Y039710D01*
X031200Y020220D02*
Y023460D01*
Y025460D02*
Y039710D01*
X031250Y020220D02*
Y023460D01*
Y025460D02*
Y038800D01*
Y039250D02*
Y039710D01*
X031300Y020220D02*
Y023460D01*
Y025460D02*
Y038680D01*
Y039370D02*
Y039710D01*
X031350Y020220D02*
Y023460D01*
Y025460D02*
Y038590D01*
Y039450D02*
Y039710D01*
X031400Y020220D02*
Y023460D01*
Y025460D02*
Y038530D01*
Y039510D02*
Y039710D01*
X031450Y020220D02*
Y023460D01*
Y025460D02*
Y038480D01*
Y039560D02*
Y039710D01*
X031500Y020220D02*
Y023460D01*
Y025460D02*
Y038440D01*
Y039600D02*
Y039710D01*
X031550Y020220D02*
Y023460D01*
Y025460D02*
Y038400D01*
Y039640D02*
Y039710D01*
X031600Y020220D02*
Y023460D01*
Y025460D02*
Y038370D01*
Y039670D02*
Y039710D01*
X031650Y020220D02*
Y023460D01*
Y025460D02*
Y038350D01*
Y039690D02*
Y039710D01*
X031700Y020220D02*
Y024180D01*
Y025460D02*
Y038330D01*
X031750Y020220D02*
Y024180D01*
Y025460D02*
Y038310D01*
X031800Y020220D02*
Y024180D01*
Y025460D02*
Y038290D01*
X031850Y020220D02*
Y024180D01*
Y025460D02*
Y027700D01*
Y030520D02*
Y038290D01*
X031900Y020220D02*
Y024180D01*
Y025460D02*
Y027600D01*
Y030630D02*
Y038290D01*
X031950Y020220D02*
Y024180D01*
Y025460D02*
Y027260D01*
Y030690D02*
Y038290D01*
X032000Y020220D02*
Y024180D01*
Y025460D02*
Y027260D01*
Y030740D02*
Y038290D01*
X032050Y020220D02*
Y024180D01*
Y025460D02*
Y027260D01*
Y030790D02*
Y038290D01*
X032100Y020220D02*
Y024180D01*
Y025460D02*
Y027260D01*
Y030840D02*
Y038300D01*
X032150Y020220D02*
Y024180D01*
Y025460D02*
Y027260D01*
Y030890D02*
Y038310D01*
X032200Y020220D02*
Y024180D01*
Y025460D02*
Y027260D01*
Y030940D02*
Y038330D01*
X032250Y020220D02*
Y024180D01*
Y025460D02*
Y027260D01*
Y030990D02*
Y038350D01*
X032300Y020220D02*
Y024180D01*
Y025460D02*
Y027260D01*
Y031040D02*
Y038380D01*
X032350Y020220D02*
Y024180D01*
Y025460D02*
Y027260D01*
Y031090D02*
Y038380D01*
X032400Y020220D02*
Y024180D01*
Y025460D02*
Y027260D01*
Y031140D02*
Y038380D01*
X032450Y020220D02*
Y024180D01*
Y025460D02*
Y027260D01*
Y031190D02*
Y038380D01*
X032500Y020220D02*
Y024180D01*
Y025460D02*
Y027260D01*
Y031240D02*
Y038380D01*
X032550Y020220D02*
Y024150D01*
Y025460D02*
Y027590D01*
Y031290D02*
Y031460D01*
Y031750D02*
Y038380D01*
X032600Y020220D02*
Y024120D01*
Y025460D02*
Y027700D01*
Y029650D02*
Y030250D01*
Y031850D02*
Y038380D01*
X032650Y020220D02*
Y024100D01*
Y025480D02*
Y028870D01*
Y029650D02*
Y030300D01*
Y031920D02*
Y038380D01*
X032700Y020220D02*
Y024080D01*
Y025500D02*
Y028870D01*
Y029650D02*
Y030350D01*
Y031950D02*
Y038200D01*
X032750Y020220D02*
Y024070D01*
Y025510D02*
Y028870D01*
Y029650D02*
Y030400D01*
Y031980D02*
Y038200D01*
X032800Y020220D02*
Y024060D01*
Y025520D02*
Y028870D01*
Y029650D02*
Y030450D01*
Y032010D02*
Y038200D01*
X032850Y020220D02*
Y024060D01*
Y025520D02*
Y028870D01*
Y029650D02*
Y030500D01*
Y032030D02*
Y038200D01*
X032900Y020220D02*
Y024060D01*
Y025520D02*
Y028870D01*
Y029650D02*
Y030550D01*
Y032030D02*
Y038200D01*
X032950Y020220D02*
Y024060D01*
Y025520D02*
Y028870D01*
Y029650D02*
Y030600D01*
Y032030D02*
Y038150D01*
X033000Y020220D02*
Y024060D01*
Y025520D02*
Y028870D01*
Y029650D02*
Y030650D01*
Y032030D02*
Y037880D01*
X033050Y020220D02*
Y024070D01*
Y025510D02*
Y028870D01*
Y029650D02*
Y030700D01*
Y032030D02*
Y037880D01*
X033100Y020220D02*
Y024080D01*
Y025500D02*
Y028870D01*
Y029650D02*
Y030750D01*
Y032000D02*
Y037880D01*
X033150Y020220D02*
Y024090D01*
Y025490D02*
Y028870D01*
Y029650D02*
Y030800D01*
Y031980D02*
Y037880D01*
X033200Y020220D02*
Y024110D01*
Y025470D02*
Y028870D01*
Y029650D02*
Y030850D01*
Y031950D02*
Y037880D01*
X033250Y020220D02*
Y024130D01*
Y025440D02*
Y028870D01*
Y029650D02*
Y030910D01*
Y031910D02*
Y037880D01*
X033300Y020220D02*
Y024140D01*
Y025420D02*
Y028870D01*
Y029650D02*
Y031010D01*
Y031850D02*
Y037880D01*
X033350Y020220D02*
Y024160D01*
Y025380D02*
Y028870D01*
Y029650D02*
Y031460D01*
Y031750D02*
Y037850D01*
X033400Y020220D02*
Y024170D01*
Y025340D02*
Y028870D01*
Y029650D02*
Y037830D01*
X033450Y020220D02*
Y024180D01*
Y025290D02*
Y028870D01*
Y029650D02*
Y037810D01*
X033500Y020220D02*
Y024180D01*
Y025230D02*
Y028870D01*
Y029650D02*
Y037810D01*
X033550Y020220D02*
Y024180D01*
Y025140D02*
Y028870D01*
Y029650D02*
Y037810D01*
X033600Y020220D02*
Y024180D01*
Y025050D02*
Y028870D01*
Y029650D02*
Y037810D01*
X033650Y020220D02*
Y024180D01*
Y025010D02*
Y028870D01*
Y029650D02*
Y037820D01*
X033700Y020220D02*
Y024180D01*
Y024980D02*
Y028870D01*
Y029650D02*
Y037850D01*
X033750Y020220D02*
Y024180D01*
Y024970D02*
Y028870D01*
Y029650D02*
Y037880D01*
X033800Y020220D02*
Y024180D01*
Y024960D02*
Y028870D01*
Y029650D02*
Y037880D01*
X033850Y020220D02*
Y024180D01*
Y024950D02*
Y028870D01*
Y029650D02*
Y037980D01*
X033900Y020220D02*
Y024180D01*
Y024950D02*
Y028870D01*
Y029650D02*
Y038140D01*
X033950Y020220D02*
Y024180D01*
Y024950D02*
Y028870D01*
Y029650D02*
Y038380D01*
X034000Y020220D02*
Y024180D01*
Y024950D02*
Y028870D01*
Y029650D02*
Y038380D01*
X034050Y020220D02*
Y024180D01*
Y024950D02*
Y028870D01*
Y029650D02*
Y038380D01*
X034100Y020220D02*
Y024180D01*
Y024950D02*
Y028870D01*
Y029650D02*
Y038380D01*
X034150Y020220D02*
Y024180D01*
Y024950D02*
Y028870D01*
Y029650D02*
Y038380D01*
X034200Y020220D02*
Y024180D01*
Y024950D02*
Y028870D01*
Y029650D02*
Y038380D01*
X034250Y020220D02*
Y024180D01*
Y024950D02*
Y028870D01*
Y029650D02*
Y038380D01*
X034300Y020220D02*
Y024180D01*
Y024950D02*
Y028870D01*
Y029650D02*
Y038380D01*
X034350Y020220D02*
Y024180D01*
Y024950D02*
Y028870D01*
Y029650D02*
Y038380D01*
X034400Y020220D02*
Y024180D01*
Y024950D02*
Y028870D01*
Y029650D02*
Y038380D01*
X034450Y020220D02*
Y024180D01*
Y024950D02*
Y028870D01*
Y029650D02*
Y038380D01*
X034500Y020220D02*
Y024180D01*
Y024950D02*
Y028870D01*
Y029650D02*
Y038380D01*
X034550Y020220D02*
Y024180D01*
Y027540D02*
Y028870D01*
Y029650D02*
Y038380D01*
X034600Y020220D02*
Y024180D01*
Y027600D02*
Y028870D01*
Y029650D02*
Y038380D01*
X034650Y020220D02*
Y024180D01*
Y027660D02*
Y028870D01*
Y029650D02*
Y038380D01*
X034700Y020220D02*
Y024180D01*
Y027710D02*
Y028870D01*
Y029650D02*
Y038380D01*
X034750Y020220D02*
Y024180D01*
Y027760D02*
Y028870D01*
Y029650D02*
Y038380D01*
X034800Y020220D02*
Y024180D01*
Y027810D02*
Y028870D01*
Y029650D02*
Y030740D01*
Y031130D02*
Y031160D01*
Y031550D02*
Y031580D01*
Y031970D02*
Y038380D01*
X034850Y020220D02*
Y024180D01*
Y027860D02*
Y028870D01*
Y029650D02*
Y030740D01*
Y031130D02*
Y031160D01*
Y031550D02*
Y031580D01*
Y031970D02*
Y038380D01*
X034900Y020220D02*
Y024180D01*
Y027910D02*
Y028870D01*
Y029650D02*
Y030740D01*
Y031130D02*
Y031160D01*
Y031550D02*
Y031580D01*
Y031970D02*
Y038380D01*
X034950Y020220D02*
Y024180D01*
Y027960D02*
Y028870D01*
Y029650D02*
Y030740D01*
Y031130D02*
Y031160D01*
Y031550D02*
Y031580D01*
Y031970D02*
Y038380D01*
X035000Y020220D02*
Y024180D01*
Y028010D02*
Y028870D01*
Y029650D02*
Y030690D01*
Y032020D02*
Y038380D01*
X035050Y020220D02*
Y024180D01*
Y028060D02*
Y028180D01*
Y028640D02*
Y028870D01*
Y029650D02*
Y030040D01*
Y030500D02*
D01*
Y032220D02*
Y038380D01*
X035100Y020220D02*
Y024180D01*
Y028110D02*
Y028180D01*
Y028640D02*
Y028870D01*
Y029650D02*
Y030040D01*
Y030500D02*
D01*
Y032220D02*
Y038380D01*
X035150Y020220D02*
Y024180D01*
Y028160D02*
Y028180D01*
Y028640D02*
Y028870D01*
Y029650D02*
Y030040D01*
Y030500D02*
D01*
Y032220D02*
Y038380D01*
X035200Y020220D02*
Y024180D01*
Y030500D02*
D01*
Y032220D02*
Y038380D01*
X035250Y020220D02*
Y024180D01*
Y030500D02*
D01*
Y032220D02*
Y038380D01*
X035300Y020220D02*
Y024180D01*
Y032220D02*
Y038380D01*
X035350Y020220D02*
Y024180D01*
Y032220D02*
Y037620D01*
X035400Y020220D02*
Y024180D01*
Y032230D02*
Y037620D01*
X035450Y020220D02*
Y024180D01*
Y032230D02*
Y037620D01*
X035500Y020220D02*
Y024180D01*
Y032230D02*
Y037620D01*
X035550Y020220D02*
Y024180D01*
Y032230D02*
Y037620D01*
X035600Y020220D02*
Y024180D01*
Y032230D02*
Y037620D01*
X035650Y020220D02*
Y024180D01*
Y032230D02*
Y037620D01*
X035700Y020220D02*
Y024180D01*
Y032230D02*
Y037620D01*
X035750Y020220D02*
Y024180D01*
Y032230D02*
Y037620D01*
X035800Y020220D02*
Y024180D01*
Y032230D02*
Y037620D01*
X035850Y020220D02*
Y024180D01*
Y032230D02*
Y037620D01*
X035900Y020220D02*
Y024180D01*
Y032230D02*
Y037620D01*
X035950Y020220D02*
Y024180D01*
Y032230D02*
Y037620D01*
X036000Y020220D02*
Y024180D01*
Y032230D02*
Y037620D01*
X036050Y020220D02*
Y024180D01*
Y032230D02*
Y037620D01*
X036100Y020220D02*
Y024180D01*
Y032230D02*
Y037620D01*
X036150Y020220D02*
Y024180D01*
Y032230D02*
Y037620D01*
X036200Y020220D02*
Y024180D01*
Y032230D02*
Y037930D01*
X036250Y020220D02*
Y024180D01*
Y032230D02*
Y037980D01*
X036300Y020220D02*
Y024180D01*
Y032250D02*
Y038030D01*
X036350Y020220D02*
Y024180D01*
Y032270D02*
Y037940D01*
X036400Y020220D02*
Y024180D01*
Y032280D02*
Y037820D01*
X036450Y020220D02*
Y024180D01*
Y032280D02*
Y037770D01*
X036500Y020220D02*
Y024180D01*
Y032270D02*
Y037720D01*
X036550Y020220D02*
Y024180D01*
Y032260D02*
Y037680D01*
X036600Y020220D02*
Y024180D01*
Y032230D02*
Y037660D01*
X036650Y020220D02*
Y024180D01*
Y032230D02*
Y034290D01*
Y034460D02*
Y037640D01*
X036700Y020220D02*
Y024180D01*
Y032230D02*
Y034120D01*
Y034620D02*
Y037640D01*
X036750Y020220D02*
Y024180D01*
Y032230D02*
Y034040D01*
Y034700D02*
Y037630D01*
X036800Y020220D02*
Y024180D01*
Y032230D02*
Y033980D01*
Y034760D02*
Y037630D01*
X036850Y020220D02*
Y024180D01*
Y032230D02*
Y033920D01*
Y034810D02*
Y037640D01*
X036900Y020220D02*
Y024180D01*
Y032230D02*
Y033860D01*
Y034840D02*
Y037660D01*
X036950Y020220D02*
Y024180D01*
Y032230D02*
Y033790D01*
Y034870D02*
Y037680D01*
X037000Y020220D02*
Y024180D01*
Y032230D02*
Y032350D01*
Y034900D02*
Y037710D01*
X037050Y020220D02*
Y024180D01*
Y032230D02*
Y032280D01*
Y034920D02*
Y037750D01*
X037100Y020220D02*
Y024180D01*
Y032230D02*
D01*
Y034930D02*
Y037810D01*
X037150Y020220D02*
Y024180D01*
Y034940D02*
Y037860D01*
X037200Y020220D02*
Y024180D01*
Y034940D02*
Y037880D01*
X037250Y020220D02*
Y024180D01*
Y034940D02*
Y037890D01*
X037300Y020220D02*
Y024180D01*
Y034930D02*
Y037920D01*
X037350Y020220D02*
Y024180D01*
Y034920D02*
Y037940D01*
X037400Y020220D02*
Y024180D01*
Y034900D02*
Y037820D01*
X037450Y020220D02*
Y024180D01*
Y032540D02*
Y033750D01*
Y034880D02*
Y037770D01*
X037500Y020220D02*
Y024180D01*
Y032490D02*
Y033850D01*
Y034860D02*
Y037720D01*
X037550Y020220D02*
Y024180D01*
Y032440D02*
Y033910D01*
Y034820D02*
Y037680D01*
X037600Y020220D02*
Y024180D01*
Y032390D02*
Y033970D01*
Y034770D02*
Y037660D01*
X037650Y020220D02*
Y024180D01*
Y032340D02*
Y034030D01*
Y034710D02*
Y037640D01*
X037700Y020220D02*
Y024180D01*
Y032290D02*
Y034100D01*
Y034640D02*
Y037640D01*
X037750Y020220D02*
Y024180D01*
Y032240D02*
Y034220D01*
Y034520D02*
Y037630D01*
X037800Y020220D02*
Y024180D01*
Y032190D02*
Y037630D01*
X037850Y020220D02*
Y024180D01*
Y032140D02*
Y037640D01*
X037900Y020220D02*
Y024180D01*
Y032090D02*
Y037660D01*
X037950Y020220D02*
Y024180D01*
Y032040D02*
Y037680D01*
X038000Y020220D02*
Y024180D01*
Y031990D02*
Y037710D01*
X038050Y020220D02*
Y024180D01*
Y031970D02*
Y037750D01*
X038100Y020220D02*
Y024180D01*
Y032020D02*
Y037800D01*
X038150Y020220D02*
Y024180D01*
Y032060D02*
Y037830D01*
X038200Y020220D02*
Y024180D01*
Y032110D02*
Y037780D01*
X038250Y020220D02*
Y024180D01*
Y032160D02*
Y032610D01*
Y032640D02*
Y032810D01*
Y033350D02*
Y037730D01*
X038300Y020220D02*
Y024180D01*
Y032210D02*
Y032470D01*
Y032780D02*
Y032810D01*
Y033350D02*
Y037680D01*
X038350Y020220D02*
Y024180D01*
Y032260D02*
Y032430D01*
Y033350D02*
Y037630D01*
X038400Y020220D02*
Y024180D01*
Y032310D02*
Y032400D01*
Y033350D02*
Y037580D01*
X038450Y020220D02*
Y024180D01*
Y032360D02*
Y032390D01*
Y033350D02*
Y037530D01*
X038500Y020220D02*
Y024180D01*
Y033350D02*
Y037500D01*
X038550Y020220D02*
Y024180D01*
Y033350D02*
Y037480D01*
X038600Y020220D02*
Y024180D01*
Y033350D02*
Y037460D01*
X038650Y020220D02*
Y024180D01*
Y028900D02*
Y030110D01*
Y030530D02*
Y030660D01*
Y033350D02*
Y037460D01*
X038700Y020220D02*
Y024180D01*
Y028850D02*
Y030110D01*
Y030530D02*
Y030690D01*
Y033350D02*
Y037460D01*
X038750Y020220D02*
Y024180D01*
Y028800D02*
Y030110D01*
Y030530D02*
Y030700D01*
Y033350D02*
Y037460D01*
X038800Y020220D02*
Y024180D01*
Y028750D02*
Y030110D01*
Y030530D02*
Y030720D01*
Y033280D02*
Y037460D01*
X038850Y020220D02*
Y024180D01*
Y028700D02*
Y030110D01*
Y030530D02*
Y030740D01*
Y035350D02*
Y037460D01*
X038900Y020220D02*
Y024180D01*
Y028650D02*
Y030070D01*
Y030530D02*
Y030790D01*
Y035480D02*
Y037460D01*
X038950Y020220D02*
Y024180D01*
Y028600D02*
Y030070D01*
Y030530D02*
Y030840D01*
Y035540D02*
Y037460D01*
X039000Y020220D02*
Y024180D01*
Y028550D02*
Y030070D01*
Y030530D02*
Y030890D01*
Y035590D02*
Y037460D01*
X039050Y020220D02*
Y024180D01*
Y028500D02*
Y030090D01*
Y030130D02*
Y030120D01*
Y030530D02*
Y030940D01*
Y035640D02*
Y037460D01*
X039100Y020220D02*
Y024180D01*
Y028450D02*
Y030070D01*
Y030530D02*
Y030990D01*
Y035690D02*
Y037460D01*
X039150Y020220D02*
Y024180D01*
Y028400D02*
Y030070D01*
Y030530D02*
Y031040D01*
Y035740D02*
Y037460D01*
Y039660D02*
Y039710D01*
X039200Y020220D02*
Y024180D01*
Y028350D02*
Y030070D01*
Y030530D02*
Y031090D01*
Y035790D02*
Y037460D01*
Y039610D02*
Y039710D01*
X039250Y020220D02*
Y024180D01*
Y028300D02*
Y030070D01*
Y030580D02*
Y031140D01*
Y035840D02*
Y037460D01*
Y039520D02*
Y039710D01*
X039300Y020220D02*
Y024180D01*
Y028250D02*
Y030070D01*
Y030170D02*
D01*
Y030610D02*
Y031190D01*
Y035890D02*
Y037460D01*
Y039360D02*
Y039710D01*
X039350Y020220D02*
Y024180D01*
Y028200D02*
Y030150D01*
Y030620D02*
Y031240D01*
Y035920D02*
Y037460D01*
Y039240D02*
Y039710D01*
X039400Y020220D02*
Y024180D01*
Y028150D02*
Y030140D01*
Y030620D02*
Y031290D01*
Y035950D02*
Y037460D01*
Y039240D02*
Y039710D01*
X039450Y020220D02*
Y024180D01*
Y028100D02*
Y030140D01*
Y030620D02*
Y031340D01*
Y035950D02*
Y037460D01*
Y039240D02*
Y039710D01*
X039500Y020220D02*
Y024180D01*
Y028050D02*
Y030140D01*
Y030620D02*
Y031390D01*
Y035950D02*
Y037460D01*
Y039240D02*
Y039710D01*
X039550Y020220D02*
Y024180D01*
Y024960D02*
Y025170D01*
Y028000D02*
Y030140D01*
Y030620D02*
Y031440D01*
Y035950D02*
Y037460D01*
Y039240D02*
Y039710D01*
X039600Y020220D02*
Y024180D01*
Y024960D02*
Y026840D01*
Y027950D02*
Y030140D01*
Y030620D02*
Y031490D01*
Y035950D02*
Y037460D01*
Y039240D02*
Y039710D01*
X039650Y020220D02*
Y024180D01*
Y024960D02*
Y026790D01*
Y027900D02*
Y030140D01*
Y030620D02*
Y031540D01*
Y035950D02*
Y037460D01*
Y039240D02*
Y039710D01*
X039700Y020220D02*
Y024180D01*
Y024960D02*
Y026740D01*
Y027850D02*
Y030140D01*
Y030620D02*
Y031590D01*
Y035950D02*
Y037460D01*
Y039240D02*
Y039710D01*
X039750Y020220D02*
Y024180D01*
Y024960D02*
Y026690D01*
Y027800D02*
Y030140D01*
Y030620D02*
Y031640D01*
Y035950D02*
Y037460D01*
Y039240D02*
Y039710D01*
X039800Y020220D02*
Y024180D01*
Y024960D02*
Y026640D01*
Y027750D02*
Y030140D01*
Y030620D02*
Y031690D01*
Y035950D02*
Y037460D01*
Y039240D02*
Y039710D01*
X039850Y020220D02*
Y024180D01*
Y024960D02*
Y026590D01*
Y027700D02*
Y030140D01*
Y030620D02*
Y031740D01*
Y035950D02*
Y037460D01*
Y039240D02*
Y039710D01*
X039900Y020220D02*
Y024180D01*
Y024960D02*
Y026540D01*
Y027670D02*
Y030140D01*
Y030620D02*
Y031790D01*
Y035950D02*
Y037460D01*
Y039240D02*
Y039710D01*
X039950Y020220D02*
Y024180D01*
Y024960D02*
Y026490D01*
Y027660D02*
Y030140D01*
Y030620D02*
Y031840D01*
Y035950D02*
Y037460D01*
Y039240D02*
Y039710D01*
X040000Y020220D02*
Y024180D01*
Y024960D02*
Y026440D01*
Y027650D02*
Y030140D01*
Y030620D02*
Y031890D01*
Y035950D02*
Y037460D01*
Y039240D02*
Y039710D01*
X040050Y020220D02*
Y024180D01*
Y024960D02*
Y026390D01*
Y027620D02*
Y030140D01*
Y030620D02*
Y031940D01*
Y035950D02*
Y037460D01*
Y039240D02*
Y039710D01*
X040100Y020220D02*
Y024180D01*
Y024960D02*
Y026340D01*
Y027570D02*
Y030140D01*
Y030620D02*
Y031990D01*
Y035950D02*
Y037460D01*
Y039240D02*
Y039710D01*
X040150Y020220D02*
Y024180D01*
Y024960D02*
Y026290D01*
Y027520D02*
Y030140D01*
Y030620D02*
Y032040D01*
Y035950D02*
Y037460D01*
Y039480D02*
Y039710D01*
X040200Y020220D02*
Y024190D01*
Y024960D02*
Y026240D01*
Y027470D02*
Y030140D01*
Y030620D02*
Y032090D01*
Y035950D02*
Y037460D01*
Y039480D02*
Y039710D01*
X040250Y020220D02*
Y024200D01*
Y024960D02*
Y026190D01*
Y027420D02*
Y030140D01*
Y030620D02*
Y032140D01*
Y035950D02*
Y037460D01*
Y039480D02*
Y039710D01*
X040300Y020220D02*
Y024220D01*
Y024940D02*
Y026140D01*
Y027370D02*
Y030140D01*
Y030620D02*
Y032190D01*
Y035950D02*
Y037460D01*
Y039480D02*
Y039710D01*
X040350Y020220D02*
Y024240D01*
Y024910D02*
Y026090D01*
Y027320D02*
Y030140D01*
Y030620D02*
Y032240D01*
Y035950D02*
Y037460D01*
Y039480D02*
Y039710D01*
X040400Y020220D02*
Y024270D01*
Y024880D02*
Y026040D01*
Y027270D02*
Y030140D01*
Y030620D02*
Y032290D01*
Y035950D02*
Y037460D01*
Y039480D02*
Y039710D01*
X040450Y020220D02*
Y024320D01*
Y024830D02*
Y025990D01*
Y027220D02*
Y030140D01*
Y030620D02*
Y032340D01*
Y035950D02*
Y037460D01*
Y039480D02*
Y039710D01*
X040500Y020220D02*
Y024400D01*
Y024750D02*
Y025940D01*
Y027170D02*
Y030140D01*
Y030620D02*
Y032390D01*
Y035950D02*
Y037460D01*
Y039480D02*
Y039710D01*
X040550Y020220D02*
Y025890D01*
Y027120D02*
Y030140D01*
Y030620D02*
Y032440D01*
Y035950D02*
Y037460D01*
Y039480D02*
Y039710D01*
X040600Y020220D02*
Y025840D01*
Y027070D02*
Y030140D01*
Y030620D02*
Y032490D01*
Y035950D02*
Y036720D01*
Y037070D02*
Y037460D01*
Y039480D02*
Y039710D01*
X040650Y020220D02*
Y025790D01*
Y027020D02*
Y030140D01*
Y030620D02*
Y032540D01*
Y035950D02*
Y036650D01*
Y037150D02*
Y037460D01*
Y039480D02*
Y039710D01*
X040700Y020220D02*
Y025740D01*
Y026970D02*
Y030140D01*
Y030620D02*
Y032650D01*
Y035950D02*
Y036600D01*
Y037200D02*
Y037460D01*
Y039480D02*
Y039710D01*
X040750Y020220D02*
Y025690D01*
Y026920D02*
Y030140D01*
Y030620D02*
Y033500D01*
Y035950D02*
Y036560D01*
Y037240D02*
Y037460D01*
Y039480D02*
Y039710D01*
X040800Y020220D02*
Y025640D01*
Y026870D02*
Y030140D01*
Y030620D02*
Y033550D01*
Y035950D02*
Y036540D01*
Y037260D02*
Y037460D01*
Y039480D02*
Y039710D01*
X040850Y020220D02*
Y025590D01*
Y026820D02*
Y030140D01*
Y030620D02*
Y033600D01*
Y035950D02*
Y036520D01*
Y037280D02*
Y037460D01*
Y039480D02*
Y039710D01*
X040900Y020220D02*
Y025540D01*
Y026770D02*
Y030140D01*
Y030620D02*
Y033650D01*
Y035950D02*
Y036520D01*
Y037280D02*
Y037460D01*
Y039480D02*
Y039710D01*
X040950Y020220D02*
Y025490D01*
Y026720D02*
Y030140D01*
Y030620D02*
Y033650D01*
Y035950D02*
Y036520D01*
Y037280D02*
Y037460D01*
Y039480D02*
Y039710D01*
X041000Y020220D02*
Y025440D01*
Y026670D02*
Y030140D01*
Y030620D02*
Y033650D01*
Y035950D02*
Y036520D01*
Y037280D02*
Y037460D01*
Y038770D02*
Y039710D01*
X041050Y020220D02*
Y025390D01*
Y026620D02*
Y030140D01*
Y030620D02*
Y033650D01*
Y035950D02*
Y036530D01*
Y037270D02*
Y037460D01*
Y038820D02*
Y039710D01*
X041100Y020220D02*
Y025340D01*
Y026570D02*
Y030140D01*
Y030620D02*
Y033650D01*
Y035950D02*
Y036560D01*
Y037240D02*
Y037460D01*
Y038880D02*
Y039710D01*
X041150Y020220D02*
Y025290D01*
Y025970D02*
Y026000D01*
Y026520D02*
Y030140D01*
Y030620D02*
Y033660D01*
Y035950D02*
Y036590D01*
Y037210D02*
Y037470D01*
Y039200D02*
Y039710D01*
X041200Y020220D02*
Y025240D01*
Y025920D02*
Y026000D01*
Y026480D02*
Y030140D01*
Y030620D02*
Y033670D01*
Y035950D02*
Y036620D01*
Y037170D02*
Y037480D01*
Y039300D02*
Y039710D01*
X041250Y020220D02*
Y025190D01*
Y025870D02*
Y026000D01*
Y026480D02*
Y030140D01*
Y030620D02*
Y033690D01*
Y035920D02*
Y036650D01*
Y037140D02*
Y037500D01*
Y039370D02*
Y039710D01*
X041300Y020220D02*
Y025140D01*
Y025820D02*
Y026000D01*
Y026480D02*
Y030140D01*
Y030620D02*
Y033690D01*
Y035920D02*
Y036650D01*
Y037130D02*
Y037550D01*
Y039400D02*
Y039710D01*
X041350Y020220D02*
Y025090D01*
Y025770D02*
Y026000D01*
Y026480D02*
Y030140D01*
Y030620D02*
Y033690D01*
Y035920D02*
Y036650D01*
Y037130D02*
Y037600D01*
Y039440D02*
Y039710D01*
X041400Y020220D02*
Y025040D01*
Y025720D02*
Y026000D01*
Y026480D02*
Y030140D01*
Y030620D02*
Y033690D01*
Y035920D02*
Y036650D01*
Y037130D02*
Y037650D01*
Y039460D02*
Y039710D01*
X041450Y020220D02*
Y024990D01*
Y025670D02*
Y026000D01*
Y026480D02*
Y030140D01*
Y030620D02*
Y033690D01*
Y035920D02*
Y036650D01*
Y037130D02*
Y037700D01*
Y039480D02*
Y039710D01*
X041500Y020220D02*
Y024940D01*
Y025620D02*
Y026000D01*
Y026480D02*
Y030140D01*
Y030620D02*
Y033690D01*
Y035920D02*
Y036650D01*
Y037130D02*
Y037750D01*
Y039490D02*
Y039710D01*
X041550Y020220D02*
Y024890D01*
Y025570D02*
Y026000D01*
Y026480D02*
Y030140D01*
Y030620D02*
Y034490D01*
Y035200D02*
Y036650D01*
Y037130D02*
Y037800D01*
Y039490D02*
Y039710D01*
X041600Y020220D02*
Y024840D01*
Y025520D02*
Y026000D01*
Y026480D02*
Y030140D01*
Y030620D02*
Y034540D01*
Y035220D02*
Y036650D01*
Y037130D02*
Y037850D01*
Y039490D02*
Y039710D01*
X041650Y020220D02*
Y024790D01*
Y025470D02*
Y026000D01*
Y026480D02*
Y030140D01*
Y030620D02*
Y034590D01*
Y035250D02*
Y036650D01*
Y037130D02*
Y037900D01*
Y039480D02*
Y039710D01*
X041700Y020220D02*
Y024740D01*
Y025420D02*
Y026000D01*
Y026480D02*
Y030140D01*
Y030620D02*
Y034640D01*
Y035300D02*
Y036650D01*
Y037130D02*
Y037950D01*
Y039460D02*
Y039710D01*
X041750Y020220D02*
Y024020D01*
Y025370D02*
Y026000D01*
Y026480D02*
Y030140D01*
Y030620D02*
Y034690D01*
Y035350D02*
Y036650D01*
Y037130D02*
Y038000D01*
Y039440D02*
Y039710D01*
X041800Y020220D02*
Y023850D01*
Y025320D02*
Y026000D01*
Y026480D02*
Y030140D01*
Y030620D02*
Y034740D01*
Y035400D02*
Y036650D01*
Y037130D02*
Y038050D01*
Y039400D02*
Y039710D01*
X041850Y020220D02*
Y023800D01*
Y025270D02*
Y026000D01*
Y026480D02*
Y030140D01*
Y030620D02*
Y034790D01*
Y035450D02*
Y036640D01*
Y037130D02*
Y038100D01*
Y039360D02*
Y039710D01*
X041900Y020220D02*
Y023780D01*
Y025220D02*
Y026000D01*
Y026480D02*
Y030140D01*
Y030620D02*
Y034840D01*
Y037130D02*
Y038150D01*
Y039310D02*
Y039710D01*
X041950Y020220D02*
Y023770D01*
Y025170D02*
Y026000D01*
Y026480D02*
Y030140D01*
Y030620D02*
Y034890D01*
Y037130D02*
Y038200D01*
Y039300D02*
Y039710D01*
X042000Y020220D02*
Y023770D01*
Y025580D02*
Y026000D01*
Y026480D02*
Y030140D01*
Y030620D02*
Y034940D01*
Y037130D02*
Y038250D01*
Y039350D02*
Y039710D01*
X042050Y020220D02*
Y023780D01*
Y025580D02*
Y026000D01*
Y026480D02*
Y030140D01*
Y030620D02*
Y034990D01*
Y037130D02*
Y038300D01*
Y039400D02*
Y039710D01*
X042100Y020220D02*
Y023800D01*
Y025580D02*
Y026000D01*
Y026480D02*
Y030140D01*
Y030620D02*
Y035040D01*
Y037130D02*
Y038350D01*
Y039450D02*
Y039710D01*
X042150Y020220D02*
Y023780D01*
Y025580D02*
Y026000D01*
Y026480D02*
Y030140D01*
Y030620D02*
Y035090D01*
Y037120D02*
Y038400D01*
Y039500D02*
Y039710D01*
X042200Y020220D02*
Y024040D01*
Y025630D02*
Y026000D01*
Y026480D02*
Y030140D01*
Y030620D02*
Y035140D01*
Y037100D02*
Y038450D01*
Y039550D02*
Y039710D01*
X042250Y020220D02*
Y023780D01*
Y024060D02*
Y024050D01*
Y025870D02*
Y026000D01*
Y026480D02*
Y030140D01*
Y030620D02*
Y035190D01*
Y037100D02*
Y038500D01*
Y039600D02*
Y039710D01*
X042300Y020220D02*
Y023780D01*
Y025870D02*
Y026000D01*
Y026480D02*
Y030140D01*
Y030620D02*
Y035260D01*
Y036670D02*
Y036660D01*
Y037100D02*
Y038550D01*
Y039630D02*
Y039710D01*
X042350Y020220D02*
Y023800D01*
Y025870D02*
Y026000D01*
Y026480D02*
Y030140D01*
Y030620D02*
Y036650D01*
Y037100D02*
Y038590D01*
Y039650D02*
Y039710D01*
X042400Y020220D02*
Y023780D01*
Y025870D02*
Y026000D01*
Y026480D02*
Y030140D01*
Y030620D02*
Y036640D01*
Y037100D02*
Y038610D01*
Y039650D02*
Y039710D01*
X042450Y020220D02*
Y023770D01*
Y025870D02*
Y026000D01*
Y026480D02*
Y030140D01*
Y030620D02*
Y036640D01*
Y037100D02*
Y038620D01*
Y039650D02*
Y039710D01*
X042500Y020220D02*
Y023770D01*
Y025870D02*
Y026000D01*
Y026480D02*
Y030140D01*
Y030620D02*
Y038620D01*
Y039650D02*
Y039710D01*
X042550Y020220D02*
Y023780D01*
Y025870D02*
Y026000D01*
Y026480D02*
Y030140D01*
Y030620D02*
Y038630D01*
Y039650D02*
Y039710D01*
X042600Y020220D02*
Y023790D01*
Y025870D02*
Y026000D01*
Y026480D02*
Y030140D01*
Y030620D02*
Y038630D01*
Y039650D02*
Y039710D01*
X042650Y020220D02*
Y023840D01*
Y025870D02*
Y026000D01*
Y026480D02*
Y030140D01*
Y030620D02*
Y038640D01*
Y039650D02*
Y039710D01*
X042700Y020220D02*
Y024030D01*
Y025870D02*
Y026000D01*
Y026480D02*
Y030140D01*
Y030620D02*
Y038660D01*
Y039650D02*
Y039710D01*
X042750Y020220D02*
Y024310D01*
Y025870D02*
Y026000D01*
Y026480D02*
Y030140D01*
Y030620D02*
Y038680D01*
Y039650D02*
Y039710D01*
X042800Y020220D02*
Y024360D01*
Y025870D02*
Y026000D01*
Y026480D02*
Y030140D01*
Y030620D02*
Y038720D01*
Y039650D02*
Y039710D01*
X042850Y020220D02*
Y024430D01*
Y025080D02*
Y025310D01*
Y025870D02*
Y026000D01*
Y026480D02*
Y030140D01*
Y030620D02*
Y038760D01*
Y039650D02*
Y039710D01*
X042900Y020220D02*
Y024470D01*
Y025020D02*
Y026000D01*
Y026480D02*
Y030140D01*
Y030620D02*
Y038810D01*
Y039650D02*
Y039710D01*
X042950Y020220D02*
Y024530D01*
Y024960D02*
Y026000D01*
Y026480D02*
Y030140D01*
Y030620D02*
Y038920D01*
Y039200D02*
Y039270D01*
Y039650D02*
Y039710D01*
X043000Y020220D02*
Y024690D01*
Y024800D02*
Y026000D01*
Y026480D02*
Y030140D01*
Y030620D02*
Y039270D01*
Y039650D02*
Y039710D01*
X043050Y020220D02*
Y026000D01*
Y026480D02*
Y030140D01*
Y030620D02*
Y039270D01*
Y039650D02*
Y039710D01*
X043100Y020220D02*
Y026000D01*
Y026480D02*
Y030140D01*
Y030620D02*
Y039270D01*
Y039650D02*
Y039710D01*
X043150Y020220D02*
Y025980D01*
Y026480D02*
Y030140D01*
Y030620D02*
Y038920D01*
Y039200D02*
Y039270D01*
Y039650D02*
Y039710D01*
X043200Y020220D02*
Y025930D01*
Y026480D02*
Y030140D01*
Y030620D02*
Y038820D01*
Y039650D02*
Y039710D01*
X043250Y020220D02*
Y025880D01*
Y026480D02*
Y030140D01*
Y030620D02*
Y038750D01*
Y039650D02*
Y039710D01*
X043300Y020220D02*
Y025830D01*
Y026470D02*
Y030140D01*
Y030620D02*
Y038720D01*
Y039650D02*
Y039710D01*
X043350Y020220D02*
Y025780D01*
Y026440D02*
Y030140D01*
Y030620D02*
Y038680D01*
Y039660D02*
Y039710D01*
X043400Y020220D02*
Y025730D01*
Y026390D02*
Y030140D01*
Y030620D02*
Y038660D01*
Y039650D02*
Y039710D01*
X043450Y020220D02*
Y025680D01*
Y026340D02*
Y030140D01*
Y030670D02*
Y038640D01*
Y039630D02*
Y039710D01*
X043500Y020220D02*
Y025630D01*
Y026290D02*
Y030150D01*
Y030720D02*
Y038630D01*
Y039590D02*
Y039710D01*
X043550Y020220D02*
Y025580D01*
Y026240D02*
Y030160D01*
Y030770D02*
Y038630D01*
Y039550D02*
Y039710D01*
X043600Y020220D02*
Y025530D01*
Y026190D02*
Y030170D01*
Y030820D02*
Y038630D01*
Y039530D02*
Y039710D01*
X043650Y020220D02*
Y025480D01*
Y026140D02*
Y030210D01*
Y030870D02*
Y038640D01*
Y039500D02*
Y039710D01*
X043700Y020220D02*
Y025430D01*
Y026090D02*
Y030260D01*
Y030920D02*
Y038660D01*
Y039470D02*
Y039710D01*
X043750Y020220D02*
Y025380D01*
Y026040D02*
Y030310D01*
Y030970D02*
Y038680D01*
Y039440D02*
Y039710D01*
X043800Y020220D02*
Y025330D01*
Y025990D02*
Y030360D01*
Y031020D02*
Y038720D01*
Y039400D02*
Y039710D01*
X043850Y020220D02*
Y025280D01*
Y025940D02*
Y030410D01*
Y031070D02*
Y038760D01*
Y039360D02*
Y039710D01*
X043900Y020220D02*
Y025230D01*
Y025890D02*
Y030460D01*
Y031130D02*
Y038810D01*
Y039310D02*
Y039710D01*
X043950Y020220D02*
Y025180D01*
Y025840D02*
Y030510D01*
Y031160D02*
Y038920D01*
Y039200D02*
Y039710D01*
X044000Y020220D02*
Y025130D01*
Y025790D02*
Y030560D01*
Y031180D02*
Y039710D01*
X044050Y020220D02*
Y025080D01*
Y025740D02*
Y030610D01*
Y031180D02*
Y039710D01*
X044100Y020220D02*
Y025030D01*
Y025690D02*
Y030660D01*
Y031180D02*
Y039710D01*
X044150Y020220D02*
Y023930D01*
Y025640D02*
Y030710D01*
Y031180D02*
Y039710D01*
X044200Y020220D02*
Y023820D01*
Y025590D02*
Y030710D01*
Y031180D02*
Y039710D01*
X044250Y020220D02*
Y023780D01*
Y025540D02*
Y030710D01*
Y031180D02*
Y039710D01*
X044300Y020220D02*
Y023780D01*
Y025490D02*
Y030570D01*
Y031200D02*
Y039710D01*
X044350Y020220D02*
Y023770D01*
Y025580D02*
Y030570D01*
Y031200D02*
Y039710D01*
X044400Y020220D02*
Y023780D01*
Y025580D02*
Y030570D01*
Y031200D02*
Y039710D01*
X044450Y020220D02*
Y023780D01*
Y025580D02*
Y030570D01*
Y031200D02*
Y039710D01*
X044500Y020220D02*
Y023790D01*
Y025580D02*
Y030570D01*
Y031200D02*
Y039710D01*
X044550Y020220D02*
Y023780D01*
Y025580D02*
Y030570D01*
Y031200D02*
Y039710D01*
X044600Y020220D02*
Y024040D01*
Y025630D02*
Y030570D01*
Y031200D02*
Y039710D01*
X044650Y020220D02*
Y023780D01*
Y025870D02*
Y030570D01*
Y031200D02*
Y039710D01*
X044700Y020220D02*
Y023780D01*
Y025870D02*
Y030570D01*
Y031200D02*
Y039710D01*
X044750Y020220D02*
Y023790D01*
Y025870D02*
Y030710D01*
Y031190D02*
Y039710D01*
X044800Y020220D02*
Y023780D01*
Y025870D02*
Y030710D01*
Y031190D02*
Y039710D01*
X044850Y020220D02*
Y023770D01*
Y025870D02*
Y030710D01*
Y031190D02*
Y039710D01*
X044900Y020220D02*
Y023770D01*
Y025870D02*
Y030710D01*
Y031190D02*
Y039710D01*
X044950Y020220D02*
Y023780D01*
Y025870D02*
Y030710D01*
Y031190D02*
Y039710D01*
X045000Y020220D02*
Y023810D01*
Y025870D02*
Y030710D01*
Y031190D02*
Y039710D01*
X045050Y020220D02*
Y023860D01*
Y025870D02*
Y030710D01*
Y031190D02*
Y039710D01*
X045100Y020220D02*
Y023980D01*
Y025870D02*
Y030710D01*
Y031200D02*
Y039710D01*
X045150Y020220D02*
Y024030D01*
Y025870D02*
Y030660D01*
Y031250D02*
Y039710D01*
X045200Y020220D02*
Y024110D01*
Y025870D02*
Y030620D01*
Y031300D02*
Y039710D01*
X045250Y020220D02*
Y024680D01*
Y025170D02*
Y030580D01*
Y031340D02*
Y039710D01*
X045300Y020220D02*
Y024750D01*
Y025100D02*
Y030560D01*
Y031360D02*
Y039710D01*
X045350Y020220D02*
Y030530D01*
Y031380D02*
Y039710D01*
X045400Y020220D02*
Y030530D01*
Y031380D02*
Y039710D01*
X045450Y020220D02*
Y030530D01*
Y031390D02*
Y039710D01*
X045500Y020220D02*
Y030530D01*
Y031390D02*
Y039710D01*
X045550Y020220D02*
Y030530D01*
Y031380D02*
Y039710D01*
X045600Y020220D02*
Y030550D01*
Y031360D02*
Y039710D01*
X045650Y020220D02*
Y030580D01*
Y031340D02*
Y039710D01*
X045700Y020220D02*
Y030610D01*
Y031310D02*
Y039710D01*
X045750Y020220D02*
Y030640D01*
Y031270D02*
Y039710D01*
X045800Y020220D02*
Y030710D01*
Y031200D02*
Y039710D01*
X045850Y020220D02*
Y030800D01*
Y031110D02*
Y039710D01*
X045900Y020220D02*
Y039710D01*
X045950Y020220D02*
Y039710D01*
X046000Y020220D02*
Y039710D01*
X046050Y020220D02*
Y039710D01*
X046100Y020220D02*
Y039710D01*
X040714Y035023D02*
Y034649D01*
X040376*
X040291Y034631*
X040219Y034583*
X039699Y034063*
X039692Y034053*
X039678Y034058*
Y035038*
X039862Y035223*
X040714*
Y035023*
X039700Y034080D02*
Y035060D01*
X039750Y034130D02*
Y035110D01*
X039800Y034180D02*
Y035160D01*
X039850Y034230D02*
Y035220D01*
X039900Y034280D02*
Y035220D01*
X039950Y034330D02*
Y035220D01*
X040000Y034380D02*
Y035220D01*
X040050Y034430D02*
Y035220D01*
X040100Y034480D02*
Y035220D01*
X040150Y034530D02*
Y035220D01*
X040200Y034580D02*
Y035220D01*
X040250Y034620D02*
Y035220D01*
X040300Y034650D02*
Y035220D01*
X040350Y034660D02*
Y035220D01*
X040400Y034660D02*
Y035220D01*
X040450Y034660D02*
Y035220D01*
X040500Y034660D02*
Y035220D01*
X040550Y034660D02*
Y035220D01*
X040600Y034660D02*
Y035220D01*
X040650Y034660D02*
Y035220D01*
X040700Y034660D02*
Y035220D01*
X037455Y034034D02*
X037390Y033956D01*
X037362Y033916*
X037340Y033876*
X037320Y033838*
X037305Y033799*
X037294Y033761*
X037288Y033722*
X037287Y033710*
X037134Y033709*
X037133Y033721*
X037127Y033759*
X037116Y033798*
X037100Y033836*
X037081Y033875*
X037057Y033913*
X037031Y033952*
X036999Y033991*
X036964Y034032*
X036966Y034029*
X037455Y034034*
X037140Y033730D02*
X037280D01*
X037140Y033780D02*
X037290D01*
X037120Y033830D02*
X037310D01*
X037090Y033880D02*
X037330D01*
X037060Y033930D02*
X037360D01*
X037020Y033980D02*
X037400D01*
X037668Y031454D02*
X037672Y031434D01*
X037679Y031413*
X037689Y031392*
X037701Y031371*
X037715Y031349*
X037732Y031327*
X037772Y031280*
X037779Y031273*
X037792Y031286*
X037785Y031293*
X037738Y031333*
X037716Y031350*
X037694Y031364*
X037673Y031376*
X037652Y031386*
X037631Y031393*
X037611Y031397*
X037648Y031395*
X037670Y031417*
X037668Y031454*
X037770Y031300D02*
D01*
X037660Y031400D02*
X037680D01*
X036850Y031120D02*
X036854Y031100D01*
X036861Y031079*
X036871Y031058*
X036883Y031037*
X036897Y031015*
X036914Y030993*
X036954Y030946*
X036961Y030939*
X036974Y030952*
X036967Y030959*
X036920Y030999*
X036898Y031016*
X036876Y031030*
X036855Y031042*
X036834Y031052*
X036813Y031059*
X036793Y031063*
X036830Y031061*
X036852Y031083*
X036850Y031120*
X036850Y031060D02*
Y031100D01*
X036950Y030960D02*
Y030970D01*
X036799Y030090D02*
X036807Y030095D01*
X036769Y030037*
X036763Y029996*
X036905*
Y029946*
X036955*
Y029804*
X036996Y029810*
X037053Y029847*
X037090Y029904*
X037096Y029936*
X037258Y030099*
X037269*
X037299Y030068*
X037299Y029394*
X037097*
X037090Y029404*
X037016Y029453*
X036931Y029471*
X035722*
X035679Y029526*
X035646Y029552*
Y030070*
X035640Y030058*
X035660Y030100*
Y030103*
X036795*
X036799Y030090*
X037090Y029410D02*
X037300D01*
X036990Y029460D02*
X037300D01*
X035710Y029510D02*
X037300D01*
X035660Y029560D02*
X037300D01*
X035660Y029610D02*
X037300D01*
X035660Y029660D02*
X037300D01*
X035660Y029710D02*
X037300D01*
X035660Y029760D02*
X037300D01*
X035660Y029810D02*
X036940D01*
X037010D02*
X037300D01*
X035660Y029860D02*
X036940D01*
X037070D02*
X037300D01*
X035660Y029910D02*
X036940D01*
X037110D02*
X037300D01*
X035660Y029960D02*
X036890D01*
X037130D02*
X037300D01*
X035660Y030010D02*
X036760D01*
X037180D02*
X037300D01*
X035660Y030060D02*
X036780D01*
X037230D02*
X037300D01*
X037728Y028235D02*
X037721Y028228D01*
X037681Y028181*
X037664Y028159*
X037650Y028137*
X037638Y028116*
X037628Y028095*
X037621Y028074*
X037617Y028054*
X037619Y028091*
X037597Y028113*
X037560Y028111*
X037580Y028115*
X037601Y028122*
X037622Y028132*
X037643Y028144*
X037665Y028158*
X037687Y028175*
X037734Y028215*
X037741Y028222*
X037728Y028235*
X037620Y028100D02*
D01*
X037710Y028200D02*
X037700D01*
X039634Y027584D02*
X039575D01*
X039602Y027619*
X039607*
X039634Y027584*
X037988Y027625D02*
X037981Y027618D01*
X037941Y027571*
X037924Y027549*
X037910Y027527*
X037898Y027506*
X037888Y027485*
X037881Y027464*
X037877Y027444*
X037879Y027481*
X037857Y027503*
X037820Y027501*
X037840Y027505*
X037861Y027512*
X037882Y027522*
X037903Y027534*
X037925Y027548*
X037947Y027565*
X037994Y027605*
X038001Y027612*
X037988Y027625*
X037880Y027490D02*
D01*
X037970Y027590D02*
X037960D01*
X036739Y027612D02*
X036733Y027605D01*
X036693Y027558*
X036676Y027536*
X036661Y027514*
X036649Y027493*
X036640Y027471*
X036633Y027451*
X036629Y027431*
X036631Y027468*
X036609Y027490*
X036572Y027488*
X036592Y027492*
X036612Y027499*
X036634Y027508*
X036655Y027520*
X036677Y027535*
X036699Y027552*
X036746Y027592*
X036753Y027599*
X036739Y027612*
X036630Y027480D02*
X036640D01*
X036680Y027530D02*
X036670D01*
X036720Y027580D02*
X036730D01*
X035467Y027570D02*
X035458Y027561D01*
X035356Y027444*
X035349Y027430*
X035341Y027418*
X035347Y027456*
X035318Y027485*
X035280Y027479*
X035293Y027487*
X035305Y027493*
X035321Y027505*
X035355Y027534*
X035422Y027596*
X035432Y027605*
X035467Y027570*
X035330Y027490D02*
Y027510D01*
X035380Y027480D02*
Y027550D01*
X035430Y027540D02*
Y027610D01*
X036474Y027591D02*
X036471Y027587D01*
X036436Y027545*
X036421Y027524*
X036408Y027503*
X036398Y027483*
X036389Y027462*
X036382Y027442*
X036378Y027422*
X036380Y027458*
X036355Y027483*
X036319Y027481*
X036339Y027485*
X036359Y027492*
X036380Y027501*
X036400Y027511*
X036421Y027524*
X036441Y027538*
X036463Y027556*
X036487Y027578*
X036474Y027591*
X036380Y027470D02*
X036390D01*
X036470Y027570D02*
D01*
X038688Y028104D02*
Y027582D01*
X038676Y027575*
X038627Y027500*
X038610Y027415*
Y027356*
X038586Y027343*
X038572Y027352*
X038510Y027365*
Y027166*
X038460*
Y027365*
X038397Y027352*
X038323Y027303*
X038302Y027273*
X038288Y027277*
Y027435*
X038271Y027521*
X038270Y027523*
Y028501*
X038285Y028507*
X038688Y028104*
X038638Y028083D02*
Y027609D01*
X038640Y027611*
X038580Y027520*
X038560Y027420*
Y027386*
X038588Y027401*
X038591Y027399*
X038460Y027427*
Y027216*
X038485Y027191*
X038519Y027429*
X038377Y027399*
X038287Y027339*
X038282Y027331*
X038338Y027314*
Y027440*
X038318Y027542*
X038320Y027539*
Y028467*
X038273Y028448*
X038638Y028083*
X038290Y027290D02*
Y028510D01*
X038340Y027330D02*
Y028450D01*
X038390Y027360D02*
Y028400D01*
X038440Y027380D02*
Y028350D01*
X038490Y027180D02*
Y028300D01*
X038540Y027370D02*
Y028250D01*
X038590Y027360D02*
Y028200D01*
X038640Y027530D02*
Y028150D01*
X037312Y027948D02*
Y025295D01*
X037309Y025284*
X037327Y025196*
X037344Y025170*
Y024945*
X036759*
Y025198*
X036764Y025207*
X036782Y025292*
Y027415*
X036781Y027419*
Y027412*
X036782Y027415*
X036785Y027425*
X036792Y027435*
X036800Y027450*
X036811Y027464*
X036845Y027502*
X036852Y027510*
X037296Y027954*
X037312Y027948*
X036780Y024950D02*
Y027420D01*
X036830Y024950D02*
Y027480D01*
X036880Y024950D02*
Y027530D01*
X036930Y024950D02*
Y027580D01*
X036980Y024950D02*
Y027630D01*
X037030Y024950D02*
Y027680D01*
X037080Y024950D02*
Y027730D01*
X037130Y024950D02*
Y027780D01*
X037180Y024950D02*
Y027830D01*
X037230Y024950D02*
Y027880D01*
X037280Y024950D02*
Y027930D01*
X037330Y024950D02*
Y025190D01*
X035747Y024886D02*
X035743Y024880D01*
X035750Y024849*
X035774Y024831*
X035805Y024818*
X035846Y024810*
X036111Y024793*
X036112Y024792*
X035340Y024359*
Y024553*
X035483Y024654*
X035338Y024799*
X035323Y024796*
X035357Y024805*
X035393Y024819*
X035427Y024835*
X035464Y024856*
X035500Y024880*
X035538Y024908*
X035614Y024974*
X035637Y024996*
X035747Y024886*
X035350Y024390D02*
X035390D01*
X035350Y024440D02*
X035480D01*
X035350Y024490D02*
X035570D01*
X035350Y024540D02*
X035660D01*
X035410Y024590D02*
X035750D01*
X035480Y024640D02*
X035840D01*
X035460Y024690D02*
X035930D01*
X035410Y024740D02*
X036020D01*
X035360Y024790D02*
X036110D01*
X035440Y024840D02*
X035750D01*
X035530Y024890D02*
X035740D01*
X035590Y024940D02*
X035690D01*
X035640Y024990D02*
D01*
X028345Y024209D02*
X028396Y024220D01*
X028550*
Y023844*
X028734*
X028728Y023856*
X028731Y023844*
X028734Y023825*
X028736Y023812*
Y023151*
X028734Y023143*
X028730Y023127*
X028726Y023112*
X028720Y023098*
X028712Y023083*
X028703Y023069*
X028692Y023055*
X028678Y023040*
X028657Y023021*
X028656Y023019*
X028640Y023006*
X028571Y022916*
X028559Y022889*
X028541Y022890*
X028526Y022940*
X028468Y023048*
X028391Y023142*
X028125Y023409*
Y024294*
X028139Y024299*
X028157Y024271*
X028232Y024222*
X028295Y024209*
Y024409*
X028345*
Y024209*
X028140Y023400D02*
Y024290D01*
X028190Y023350D02*
Y024240D01*
X028240Y023300D02*
Y024210D01*
X028290Y023250D02*
Y024410D01*
X028340Y023200D02*
Y024210D01*
X028390Y023150D02*
Y024210D01*
X028440Y023100D02*
Y024210D01*
X028490Y023030D02*
Y024210D01*
X028540Y022900D02*
Y024210D01*
X028590Y022960D02*
Y023830D01*
X028640Y023030D02*
Y023830D01*
X028690Y023080D02*
Y023830D01*
X033460Y024968D02*
X033487Y024930D01*
X033519Y024898*
X033555Y024869*
X033596Y024845*
X033642Y024826*
X033692Y024810*
X033747Y024800*
X033806Y024794*
X033832Y024793*
X033631Y024341*
X033584Y024340*
X033416Y024328*
X033364Y024321*
X033270Y024302*
X033226Y024289*
X033185Y024276*
X033204Y024284*
X033465Y024959*
X033460Y024968*
X033210Y024300D02*
D01*
X033260Y024310D02*
Y024430D01*
X033310Y024320D02*
Y024550D01*
X033360Y024340D02*
Y024680D01*
X033410Y024340D02*
Y024800D01*
X033460Y024350D02*
Y024930D01*
X033510Y024350D02*
Y024900D01*
X033560Y024350D02*
Y024860D01*
X033610Y024350D02*
Y024840D01*
X033660Y024420D02*
Y024820D01*
X033710Y024540D02*
Y024800D01*
X033760Y024650D02*
Y024790D01*
X033810Y024760D02*
Y024780D01*
X031680Y031270D02*
X031730D01*
X031630Y031320D02*
X031870D01*
X031620Y031370D02*
X031840D01*
X031650Y031420D02*
X031790D01*
X031670Y031470D02*
X031740D01*
X031680Y031520D02*
X031690D01*
G54D13*
X030073Y030843D02*
X029947Y031052D01*
X029974Y031031*
X029998Y031019*
X030024Y031009*
X030054Y031002*
X030086Y030997*
X030120Y030995*
X030122Y030995*
Y030942*
X030156*
X030086Y030936*
X030054Y030931*
X030026Y030925*
X030000Y030916*
X029972Y030902*
X029947Y030880*
X030068Y031062*
X030037Y030891*
X029960Y030882*
X029927Y030868*
X029901Y030847*
X029878Y030820*
X029862Y030790*
X029851Y030760*
X029844Y030726*
X029839Y030691*
X029836Y030653*
X029836Y030686*
X029785*
Y030652*
X029778Y030722*
X029773Y030754*
X029765Y030784*
X029754Y030813*
X029736Y030840*
X029713Y030863*
X029949Y030734*
X029942Y030736*
X030072*
Y030851*
X030073Y030843*
X029790Y030740D02*
X029840D01*
X029950D02*
X030060D01*
X029750Y030840D02*
X029740D01*
X029910D02*
X030060D01*
X030010Y030940D02*
X030120D01*
X030070Y031040D02*
X030060D01*
G54D17*
X044870Y022940D02*
Y022970D01*
X044920Y022810D02*
Y023020D01*
X044970Y022870D02*
Y023040D01*
X045020Y022920D02*
Y023000D01*
X045070Y022970D02*
Y022990D01*
X044410Y020850D02*
Y020870D01*
X044460Y020810D02*
Y020870D01*
X038500Y023220D02*
X038640D01*
X038500Y023270D02*
X038650D01*
X038470Y023320D02*
X038680D01*
X038410Y023370D02*
X038740D01*
X038410Y023420D02*
X038740D01*
X038480Y023470D02*
X038670D01*
X038560Y023520D02*
X038590D01*
X036570Y021020D02*
X036670D01*
X036430Y021070D02*
X036650D01*
X036470Y021120D02*
X036640D01*
X036490Y021170D02*
X036630D01*
X036500Y021220D02*
X036520D01*
X039280Y020970D02*
X039330D01*
X039280Y021020D02*
X039440D01*
X039260Y021070D02*
X039530D01*
X039230Y021120D02*
X039430D01*
X039360Y021170D02*
X039370D01*
X042170Y021020D02*
Y021060D01*
X042220Y020920D02*
Y021110D01*
X042270Y020910D02*
Y021120D01*
X042320Y020960D02*
Y021090D01*
X042370Y021010D02*
Y021070D01*
X042420Y021060D02*
D01*
X040170Y021020D02*
Y021060D01*
X040220Y020920D02*
Y021110D01*
X040270Y020910D02*
Y021120D01*
X040320Y020960D02*
Y021090D01*
X040370Y021010D02*
Y021070D01*
X040420Y021060D02*
D01*
X035590Y021050D02*
Y021060D01*
X035640Y021000D02*
Y021070D01*
X035690Y020950D02*
Y021090D01*
X035740Y020900D02*
Y021130D01*
X035790Y020930D02*
Y021110D01*
X035840Y021030D02*
Y021060D01*
X034590Y021050D02*
Y021060D01*
X034640Y021000D02*
Y021070D01*
X034690Y020950D02*
Y021090D01*
X034740Y020900D02*
Y021130D01*
X034790Y020930D02*
Y021110D01*
X034840Y021030D02*
Y021060D01*
X032590Y021050D02*
Y021060D01*
X032640Y021000D02*
Y021070D01*
X032690Y020950D02*
Y021090D01*
X032740Y020900D02*
Y021130D01*
X032790Y020930D02*
Y021110D01*
X032840Y021030D02*
Y021060D01*
X031590Y021050D02*
Y021060D01*
X031640Y021000D02*
Y021070D01*
X031690Y020950D02*
Y021090D01*
X031740Y020900D02*
Y021130D01*
X031790Y020930D02*
Y021110D01*
X031840Y021030D02*
Y021060D01*
%LNee194_yesdig_pcb-2*%
%LPC*%
G36*
X028863Y039290D02*
Y038948D01*
X029205*
X029198Y039001*
X029158Y039097*
X029095Y039180*
X029012Y039243*
X028916Y039283*
X028863Y039290*
G37*
G36*
X045553Y039454D02*
X045450Y039440D01*
X045353Y039400*
X045271Y039337*
X045207Y039254*
X045168Y039158*
X045154Y039055*
X045168Y038952*
X045207Y038856*
X045271Y038773*
X045353Y038710*
X045450Y038670*
X045553Y038656*
X045656Y038670*
X045752Y038710*
X045835Y038773*
X045898Y038856*
X045938Y038952*
X045951Y039055*
X045938Y039158*
X045898Y039254*
X045835Y039337*
X045752Y039400*
X045656Y039440*
X045553Y039454*
G37*
G36*
X044553D02*
X044450Y039440D01*
X044353Y039400*
X044271Y039337*
X044207Y039254*
X044168Y039158*
X044154Y039055*
X044168Y038952*
X044207Y038856*
X044271Y038773*
X044353Y038710*
X044450Y038670*
X044553Y038656*
X044656Y038670*
X044752Y038710*
X044835Y038773*
X044898Y038856*
X044938Y038952*
X044951Y039055*
X044938Y039158*
X044898Y039254*
X044835Y039337*
X044752Y039400*
X044656Y039440*
X044553Y039454*
G37*
G36*
X029205Y038848D02*
X028863D01*
Y038506*
X028916Y038513*
X029012Y038552*
X029095Y038616*
X029158Y038698*
X029198Y038794*
X029205Y038848*
G37*
G36*
X031034Y038188D02*
Y038034D01*
X031188*
X031182Y038066*
X031135Y038135*
X031066Y038182*
X031034Y038188*
G37*
G36*
X030934D02*
X030902Y038182D01*
X030833Y038135*
X030786Y038066*
X030780Y038034*
X030934*
Y038188*
G37*
G36*
X030534D02*
Y038034D01*
X030688*
X030682Y038066*
X030635Y038135*
X030566Y038182*
X030534Y038188*
G37*
G36*
X030434D02*
X030402Y038182D01*
X030333Y038135*
X030286Y038066*
X030280Y038034*
X030434*
Y038188*
G37*
G36*
X030034D02*
Y038034D01*
X030188*
X030182Y038066*
X030135Y038135*
X030066Y038182*
X030034Y038188*
G37*
G36*
X029934D02*
X029902Y038182D01*
X029833Y038135*
X029786Y038066*
X029780Y038034*
X029934*
Y038188*
G37*
G36*
X029534D02*
Y038034D01*
X029688*
X029682Y038066*
X029635Y038135*
X029566Y038182*
X029534Y038188*
G37*
G36*
X029434D02*
X029402Y038182D01*
X029333Y038135*
X029286Y038066*
X029280Y038034*
X029434*
Y038188*
G37*
G36*
X032928Y038139D02*
X032720D01*
Y037912*
X032928*
Y038139*
G37*
G36*
X031188Y037934D02*
X030780D01*
X030786Y037902*
X030833Y037833*
X030861Y037814*
Y037753*
X030842Y037740*
X030795Y037671*
X030789Y037639*
X031197*
X031191Y037671*
X031144Y037740*
X031116Y037759*
Y037820*
X031135Y037833*
X031182Y037902*
X031188Y037934*
G37*
G36*
X030688D02*
X030280D01*
X030286Y037902*
X030333Y037833*
X030361Y037814*
Y037753*
X030342Y037740*
X030295Y037671*
X030289Y037639*
X030697*
X030691Y037671*
X030644Y037740*
X030616Y037759*
Y037820*
X030635Y037833*
X030682Y037902*
X030688Y037934*
G37*
G36*
X030188D02*
X029780D01*
X029786Y037902*
X029833Y037833*
X029861Y037814*
Y037753*
X029842Y037740*
X029795Y037671*
X029789Y037639*
X030197*
X030191Y037671*
X030144Y037740*
X030116Y037759*
Y037820*
X030135Y037833*
X030182Y037902*
X030188Y037934*
G37*
G36*
X029688D02*
X029280D01*
X029286Y037902*
X029333Y037833*
X029361Y037814*
Y037753*
X029342Y037740*
X029295Y037671*
X029289Y037639*
X029697*
X029691Y037671*
X029644Y037740*
X029616Y037759*
Y037820*
X029635Y037833*
X029682Y037902*
X029688Y037934*
G37*
G36*
X031197Y037539D02*
X031043D01*
Y037385*
X031075Y037391*
X031144Y037438*
X031191Y037507*
X031197Y037539*
G37*
G36*
X030943D02*
X030789D01*
X030795Y037507*
X030842Y037438*
X030911Y037391*
X030943Y037385*
Y037539*
G37*
G36*
X030697D02*
X030543D01*
Y037385*
X030575Y037391*
X030644Y037438*
X030691Y037507*
X030697Y037539*
G37*
G36*
X030443D02*
X030289D01*
X030295Y037507*
X030342Y037438*
X030411Y037391*
X030443Y037385*
Y037539*
G37*
G36*
X030197D02*
X030043D01*
Y037385*
X030075Y037391*
X030144Y037438*
X030191Y037507*
X030197Y037539*
G37*
G36*
X029943D02*
X029789D01*
X029795Y037507*
X029842Y037438*
X029911Y037391*
X029943Y037385*
Y037539*
G37*
G36*
X029697D02*
X029543D01*
Y037385*
X029575Y037391*
X029644Y037438*
X029691Y037507*
X029697Y037539*
G37*
G36*
X029443D02*
X029289D01*
X029295Y037507*
X029342Y037438*
X029411Y037391*
X029443Y037385*
Y037539*
G37*
G36*
X033609Y037333D02*
X033577Y037327D01*
X033508Y037280*
X033489Y037252*
X033428*
X033415Y037271*
X033346Y037318*
X033314Y037324*
Y037120*
Y036916*
X033346Y036922*
X033415Y036969*
X033434Y036997*
X033495*
X033508Y036978*
X033577Y036931*
X033609Y036925*
Y037129*
Y037333*
G37*
G36*
X033709D02*
Y037179D01*
X033863*
X033857Y037211*
X033810Y037280*
X033741Y037327*
X033709Y037333*
G37*
G36*
X033214Y037324D02*
X033182Y037318D01*
X033113Y037271*
X033066Y037202*
X033060Y037170*
X033214*
Y037324*
G37*
G36*
X033863Y037079D02*
X033709D01*
Y036925*
X033741Y036931*
X033810Y036978*
X033857Y037047*
X033863Y037079*
G37*
G36*
X042700Y037067D02*
X042532D01*
Y036919*
X042700*
Y037067*
G37*
G36*
X033214Y037070D02*
X033060D01*
X033066Y037038*
X033113Y036969*
X033182Y036922*
X033214Y036916*
Y037070*
G37*
G36*
X033609Y036833D02*
X033577Y036827D01*
X033508Y036780*
X033489Y036752*
X033428*
X033415Y036771*
X033346Y036818*
X033314Y036824*
Y036620*
Y036416*
X033346Y036422*
X033415Y036469*
X033434Y036497*
X033495*
X033508Y036478*
X033577Y036431*
X033609Y036425*
Y036629*
Y036833*
G37*
G36*
X033709D02*
Y036679D01*
X033863*
X033857Y036711*
X033810Y036780*
X033741Y036827*
X033709Y036833*
G37*
G36*
X042700Y036819D02*
X042532D01*
Y036671*
X042700*
Y036819*
G37*
G36*
X033214Y036824D02*
X033182Y036818D01*
X033113Y036771*
X033066Y036702*
X033060Y036670*
X033214*
Y036824*
G37*
G36*
X029996Y036973D02*
Y036621D01*
X030348*
X030341Y036677*
X030300Y036775*
X030235Y036860*
X030151Y036925*
X030052Y036966*
X029996Y036973*
G37*
G36*
X029896D02*
X029841Y036966D01*
X029742Y036925*
X029658Y036860*
X029593Y036775*
X029552Y036677*
X029544Y036621*
X029896*
Y036973*
G37*
G36*
X033863Y036579D02*
X033709D01*
Y036425*
X033741Y036431*
X033810Y036478*
X033857Y036547*
X033863Y036579*
G37*
G36*
X033214Y036570D02*
X033060D01*
X033066Y036538*
X033113Y036469*
X033182Y036422*
X033214Y036416*
Y036570*
G37*
G36*
X033609Y036333D02*
X033577Y036327D01*
X033508Y036280*
X033489Y036252*
X033428*
X033415Y036271*
X033346Y036318*
X033314Y036324*
Y036120*
Y035916*
X033346Y035922*
X033415Y035969*
X033434Y035997*
X033495*
X033508Y035978*
X033577Y035931*
X033609Y035925*
Y036129*
Y036333*
G37*
G36*
X033709D02*
Y036179D01*
X033863*
X033857Y036211*
X033810Y036280*
X033741Y036327*
X033709Y036333*
G37*
G36*
X033214Y036324D02*
X033182Y036318D01*
X033113Y036271*
X033066Y036202*
X033060Y036170*
X033214*
Y036324*
G37*
G36*
X030348Y036521D02*
X029996D01*
Y036169*
X030052Y036176*
X030151Y036217*
X030235Y036282*
X030300Y036367*
X030341Y036465*
X030348Y036521*
G37*
G36*
X029896D02*
X029544D01*
X029552Y036465*
X029593Y036367*
X029658Y036282*
X029742Y036217*
X029841Y036176*
X029896Y036169*
Y036521*
G37*
G36*
X033863Y036079D02*
X033709D01*
Y035925*
X033741Y035931*
X033810Y035978*
X033857Y036047*
X033863Y036079*
G37*
G36*
X033214Y036070D02*
X033060D01*
X033066Y036038*
X033113Y035969*
X033182Y035922*
X033214Y035916*
Y036070*
G37*
G36*
X033609Y035833D02*
X033577Y035827D01*
X033508Y035780*
X033489Y035752*
X033428*
X033415Y035771*
X033346Y035818*
X033314Y035824*
Y035620*
Y035416*
X033346Y035422*
X033415Y035469*
X033434Y035497*
X033495*
X033508Y035478*
X033577Y035431*
X033609Y035425*
Y035629*
Y035833*
G37*
G36*
X033709D02*
Y035679D01*
X033863*
X033857Y035711*
X033810Y035780*
X033741Y035827*
X033709Y035833*
G37*
G36*
X033214Y035824D02*
X033182Y035818D01*
X033113Y035771*
X033066Y035702*
X033060Y035670*
X033214*
Y035824*
G37*
G36*
X033863Y035579D02*
X033709D01*
Y035425*
X033741Y035431*
X033810Y035478*
X033857Y035547*
X033863Y035579*
G37*
G36*
X038257Y035897D02*
Y035416D01*
X038738*
X038726Y035505*
X038673Y035635*
X038587Y035746*
X038476Y035832*
X038346Y035885*
X038257Y035897*
G37*
G36*
X036257D02*
Y035416D01*
X036738*
X036726Y035505*
X036673Y035635*
X036587Y035746*
X036476Y035832*
X036346Y035885*
X036257Y035897*
G37*
G36*
X038157D02*
X038068Y035885D01*
X037938Y035832*
X037827Y035746*
X037741Y035635*
X037688Y035505*
X037676Y035416*
X038157*
Y035897*
G37*
G36*
X036157D02*
X036068Y035885D01*
X035938Y035832*
X035827Y035746*
X035741Y035635*
X035688Y035505*
X035676Y035416*
X036157*
Y035897*
G37*
G36*
X033214Y035570D02*
X033060D01*
X033066Y035538*
X033113Y035469*
X033182Y035422*
X033214Y035416*
Y035570*
G37*
G36*
X038738Y035316D02*
X038257D01*
Y034835*
X038346Y034847*
X038476Y034900*
X038587Y034986*
X038673Y035097*
X038726Y035227*
X038738Y035316*
G37*
G36*
X036738D02*
X036257D01*
Y034835*
X036346Y034847*
X036476Y034900*
X036587Y034986*
X036673Y035097*
X036726Y035227*
X036738Y035316*
G37*
G36*
X038157D02*
X037676D01*
X037688Y035227*
X037741Y035097*
X037827Y034986*
X037938Y034900*
X038068Y034847*
X038157Y034835*
Y035316*
G37*
G36*
X036157D02*
X035676D01*
X035688Y035227*
X035741Y035097*
X035827Y034986*
X035938Y034900*
X036068Y034847*
X036157Y034835*
Y035316*
G37*
G36*
X030058Y034926D02*
X029831D01*
Y034718*
X030058*
Y034926*
G37*
G36*
X029731D02*
X029504D01*
Y034718*
X029731*
Y034926*
G37*
G36*
X033238Y034787D02*
X033011D01*
Y034580*
X033238*
Y034787*
G37*
G36*
X032911D02*
X032684D01*
Y034580*
X032911*
Y034787*
G37*
G36*
X045852Y036348D02*
X045062D01*
Y036157*
X044059*
X043981Y036141*
X043971Y036135*
X043955Y036131*
X043889Y036087*
X043719Y035917*
X043419*
X043341Y035902*
X043314Y035883*
X043039*
Y035543*
Y035140*
X042873*
X042795Y035124*
X042729Y035080*
X041944Y034295*
X041900Y034229*
X041884Y034151*
Y032950*
Y032949*
X041870*
Y032852*
X041869Y032848*
X041870Y032844*
Y032789*
X041857Y032724*
Y031918*
Y031916*
X041854Y031900*
X041851Y031886*
X041847Y031873*
X041842Y031862*
X041836Y031851*
X041830Y031841*
X041823Y031832*
X041817Y031826*
X041811Y031822*
X041755Y031749*
X041720Y031663*
X041708Y031572*
X041720Y031481*
X041755Y031395*
X041811Y031322*
X041884Y031266*
X041970Y031231*
X042061Y031219*
X042152Y031231*
X042238Y031266*
X042311Y031322*
X042367Y031395*
X042402Y031481*
X042414Y031572*
X042402Y031663*
X042367Y031749*
X042311Y031822*
X042305Y031826*
X042299Y031832*
X042292Y031841*
X042286Y031851*
X042280Y031862*
X042275Y031873*
X042271Y031886*
X042268Y031900*
X042265Y031916*
Y031918*
Y032517*
X042267Y032547*
Y032553*
X042432*
Y032751*
Y032949*
X042295*
X042292Y032988*
Y034067*
X042957Y034732*
X043039*
Y034723*
X043799*
Y034763*
Y035249*
X044872*
X045071Y035050*
X045058Y034953*
X045072Y034850*
X045112Y034753*
X045175Y034671*
X045258Y034607*
X045354Y034568*
X045457Y034554*
X045560Y034568*
X045656Y034607*
X045739Y034671*
X045802Y034753*
X045842Y034850*
X045856Y034953*
X045842Y035056*
X045802Y035152*
X045739Y035235*
X045656Y035298*
X045560Y035338*
X045457Y035351*
X045360Y035339*
X045187Y035511*
X045206Y035557*
X045852*
Y036348*
G37*
G36*
X029271Y034067D02*
X029044D01*
Y033859*
X029271*
Y034067*
G37*
G36*
X028944D02*
X028717D01*
Y033859*
X028944*
Y034067*
G37*
G36*
X043799Y034623D02*
X043039D01*
Y034243*
Y033983*
Y033723*
X043314*
X043341Y033705*
X043419Y033689*
X043432*
X045071Y032050*
X045058Y031953*
X045072Y031850*
X045112Y031753*
X045175Y031671*
X045258Y031607*
X045354Y031568*
X045457Y031554*
X045560Y031568*
X045656Y031607*
X045739Y031671*
X045802Y031753*
X045842Y031850*
X045856Y031953*
X045842Y032056*
X045802Y032152*
X045739Y032235*
X045656Y032298*
X045560Y032338*
X045457Y032351*
X045360Y032339*
X043813Y033886*
X043831Y033936*
X044186*
X045071Y033050*
X045058Y032953*
X045072Y032850*
X045112Y032753*
X045175Y032671*
X045258Y032607*
X045354Y032568*
X045457Y032554*
X045560Y032568*
X045656Y032607*
X045739Y032671*
X045802Y032753*
X045842Y032850*
X045856Y032953*
X045842Y033056*
X045802Y033152*
X045739Y033235*
X045656Y033298*
X045560Y033338*
X045457Y033351*
X045360Y033339*
X044535Y034163*
X044554Y034209*
X044912*
X045071Y034050*
X045058Y033953*
X045072Y033850*
X045112Y033753*
X045175Y033671*
X045258Y033607*
X045354Y033568*
X045457Y033554*
X045560Y033568*
X045656Y033607*
X045739Y033671*
X045802Y033753*
X045842Y033850*
X045856Y033953*
X045842Y034056*
X045802Y034152*
X045739Y034235*
X045656Y034298*
X045560Y034338*
X045457Y034351*
X045360Y034339*
X045141Y034557*
X045075Y034602*
X044997Y034617*
X043799*
Y034623*
G37*
G36*
X036257Y033897D02*
Y033416D01*
X036738*
X036726Y033505*
X036673Y033635*
X036587Y033746*
X036476Y033832*
X036346Y033885*
X036257Y033897*
G37*
G36*
X038257D02*
Y033416D01*
X038738*
X038726Y033505*
X038673Y033635*
X038587Y033746*
X038476Y033832*
X038346Y033885*
X038257Y033897*
G37*
G36*
X036157D02*
X036068Y033885D01*
X035938Y033832*
X035827Y033746*
X035741Y033635*
X035688Y033505*
X035676Y033416*
X036157*
Y033897*
G37*
G36*
X038157D02*
X038068Y033885D01*
X037938Y033832*
X037827Y033746*
X037741Y033635*
X037688Y033505*
X037676Y033416*
X038157*
Y033897*
G37*
G36*
X036738Y033316D02*
X036257D01*
Y032835*
X036346Y032847*
X036476Y032900*
X036587Y032986*
X036673Y033097*
X036726Y033227*
X036738Y033316*
G37*
G36*
X038157D02*
X037676D01*
X037688Y033227*
X037741Y033097*
X037827Y032986*
X037938Y032900*
X038068Y032847*
X038157Y032835*
Y033316*
G37*
G36*
X036157D02*
X035676D01*
X035688Y033227*
X035741Y033097*
X035827Y032986*
X035938Y032900*
X036068Y032847*
X036157Y032835*
Y033316*
G37*
G36*
X042700Y032949D02*
X042532D01*
Y032801*
X042700*
Y032949*
G37*
G36*
X030393Y032800D02*
X030389D01*
X030383*
X030381*
X030291*
Y032769*
X030247Y032766*
X029791*
X029713Y032750*
X029702Y032743*
X029683*
X029636Y032734*
X029596Y032707*
X029570Y032667*
X029561Y032621*
Y032503*
X029570Y032456*
X029596Y032416*
X029636Y032390*
X029683Y032381*
X029702*
X029713Y032373*
X029791Y032358*
X030244*
X030291Y032349*
Y032298*
Y032285*
Y032248*
Y032235*
Y032041*
X030569*
X030846*
Y032235*
Y032248*
Y032285*
Y032298*
Y032800*
X030396*
X030393*
G37*
G36*
X042700Y032701D02*
X042532D01*
Y032553*
X042700*
Y032701*
G37*
G36*
X030058Y034618D02*
X029504D01*
Y034424*
Y034411*
Y034374*
Y034361*
Y033964*
X029503Y033961*
X029504Y033957*
Y033859*
X029571*
X029573Y033847*
X029577Y033806*
Y033236*
X029575Y033190*
Y033186*
X029570Y033179*
X029561Y033133*
Y033015*
X029570Y032968*
X029596Y032928*
X029636Y032902*
X029683Y032892*
X029702*
X029713Y032885*
X029791Y032870*
X031389*
X031477Y032782*
X031510Y032746*
X031534Y032716*
X031552Y032690*
X031554Y032687*
Y032203*
X032344*
Y032993*
X031860*
X031857Y032995*
X031832Y033012*
X031774Y033061*
X031618Y033218*
X031551Y033262*
X031473Y033277*
X029986*
X029985Y033296*
Y033813*
X029986Y033823*
X029989Y033846*
X029991Y033859*
X030058*
Y033957*
X030059Y033961*
X030058Y033964*
Y034361*
Y034374*
Y034411*
Y034424*
Y034618*
G37*
G36*
X033238Y034480D02*
X032684D01*
Y034272*
Y034236*
X032678Y034188*
X032643Y034143*
X032608Y034058*
X032596Y033966*
Y032779*
X032564Y032701*
X032550Y032598*
X032564Y032495*
X032604Y032399*
X032667Y032316*
X032750Y032253*
X032846Y032213*
X032949Y032199*
X033052Y032213*
X033148Y032253*
X033231Y032316*
X033294Y032399*
X033334Y032495*
X033348Y032598*
X033334Y032701*
X033302Y032779*
Y033887*
X033314Y033978*
X033302Y034070*
X033267Y034155*
X033242Y034187*
X033238Y034236*
Y034272*
Y034480*
G37*
G36*
X034975Y032187D02*
X034807D01*
Y032039*
X034975*
Y032187*
G37*
G36*
X030846Y031941D02*
X030619D01*
Y031733*
X030846*
Y031941*
G37*
G36*
X030519D02*
X030291D01*
Y031733*
X030519*
Y031941*
G37*
G36*
X030098Y031776D02*
X029871D01*
Y031568*
X030098*
Y031776*
G37*
G36*
X029771D02*
X029543D01*
Y031568*
X029771*
Y031776*
G37*
G36*
X029214Y032768D02*
X028984D01*
X028754*
Y032759*
X028763Y032712*
X028778Y032690*
X028763Y032667*
X028754Y032621*
Y032503*
X028763Y032456*
X028769Y032446*
X028770Y032443*
X028775Y032438*
X028780Y032346*
Y032211*
X028739Y032149*
X028719Y032051*
X028739Y031953*
X028794Y031871*
X028861Y031826*
X028846Y031776*
X028756*
Y031568*
X029310*
Y031776*
X029102*
X029087Y031826*
X029154Y031871*
X029209Y031953*
X029229Y032051*
X029209Y032149*
X029188Y032181*
Y032379*
X029191Y032422*
X029193Y032435*
Y032437*
X029198Y032443*
X029199Y032446*
X029205Y032456*
X029214Y032503*
Y032621*
X029205Y032667*
X029190Y032690*
X029205Y032712*
X029214Y032759*
Y032768*
G37*
G36*
X031949Y031997D02*
X031846Y031983D01*
X031750Y031943*
X031667Y031880*
X031604Y031797*
X031564Y031701*
X031550Y031598*
X031552Y031588*
X031551Y031572*
X031549Y031551*
X031546Y031531*
X031541Y031513*
X031535Y031496*
X031528Y031479*
X031519Y031463*
X031509Y031448*
X031504Y031441*
X031234Y031171*
X030146*
X030098Y031201*
Y031261*
Y031275*
Y031468*
X029543*
Y031275*
Y031261*
Y031225*
Y031211*
Y030815*
Y030811*
Y030807*
Y030710*
X029601*
X029603Y030700*
X029606Y030661*
Y030209*
X029603Y030166*
X029602Y030153*
X029601Y030151*
X029597Y030145*
X029596Y030142*
X029589Y030132*
X029580Y030085*
Y029967*
X029589Y029921*
X029616Y029881*
X029655Y029855*
X029702Y029845*
X029721*
X029732Y029838*
X029810Y029822*
X029888Y029838*
X029899Y029845*
X029919*
X029965Y029855*
X030005Y029881*
X030031Y029921*
X030041Y029967*
Y030085*
X030031Y030132*
X030025Y030142*
X030024Y030145*
X030020Y030150*
X030014Y030242*
Y030660*
X030015Y030672*
X030018Y030694*
X030022Y030710*
X030098*
Y030760*
X030106Y030761*
X030142Y030763*
X031318*
X031396Y030779*
X031462Y030823*
X031792Y031153*
X031799Y031158*
X031814Y031168*
X031830Y031177*
X031847Y031184*
X031864Y031190*
X031882Y031195*
X031902Y031198*
X031923Y031200*
X031939Y031201*
X031949Y031199*
X032052Y031213*
X032148Y031253*
X032231Y031316*
X032294Y031399*
X032334Y031495*
X032348Y031598*
X032334Y031701*
X032294Y031797*
X032231Y031880*
X032148Y031943*
X032052Y031983*
X031949Y031997*
G37*
G36*
X034971Y030680D02*
X034803D01*
Y030532*
X034971*
Y030680*
G37*
G36*
X044685Y030505D02*
X044537D01*
Y030337*
X044685*
Y030505*
G37*
G36*
X044437D02*
X044289D01*
Y030337*
X044437*
Y030505*
G37*
G36*
X034973Y030467D02*
X034805D01*
Y030319*
X034973*
Y030467*
G37*
G36*
Y030219D02*
X034805D01*
Y030071*
X034973*
Y030219*
G37*
G36*
X039293Y030009D02*
X039175D01*
Y029891*
X039193Y029894*
X039251Y029933*
X039290Y029991*
X039293Y030009*
G37*
G36*
X039075D02*
X038957D01*
X038960Y029991*
X038999Y029933*
X039057Y029894*
X039075Y029891*
Y030009*
G37*
G36*
X041911Y029738D02*
Y029584D01*
X042065*
X042059Y029616*
X042012Y029685*
X041943Y029732*
X041911Y029738*
G37*
G36*
X041811D02*
X041779Y029732D01*
X041710Y029685*
X041663Y029616*
X041657Y029584*
X041811*
Y029738*
G37*
G36*
X041411D02*
Y029584D01*
X041565*
X041559Y029616*
X041512Y029685*
X041443Y029732*
X041411Y029738*
G37*
G36*
X041311D02*
X041279Y029732D01*
X041210Y029685*
X041163Y029616*
X041157Y029584*
X041311*
Y029738*
G37*
G36*
X040911D02*
Y029584D01*
X041065*
X041059Y029616*
X041012Y029685*
X040943Y029732*
X040911Y029738*
G37*
G36*
X040811D02*
X040779Y029732D01*
X040710Y029685*
X040663Y029616*
X040657Y029584*
X040811*
Y029738*
G37*
G36*
X040411D02*
Y029584D01*
X040565*
X040559Y029616*
X040512Y029685*
X040443Y029732*
X040411Y029738*
G37*
G36*
X040311D02*
X040279Y029732D01*
X040210Y029685*
X040163Y029616*
X040157Y029584*
X040311*
Y029738*
G37*
G36*
X042065Y029484D02*
X041657D01*
X041663Y029452*
X041710Y029383*
X041738Y029364*
Y029303*
X041719Y029290*
X041672Y029221*
X041666Y029189*
X042074*
X042068Y029221*
X042021Y029290*
X041993Y029309*
Y029370*
X042012Y029383*
X042059Y029452*
X042065Y029484*
G37*
G36*
X041565D02*
X041157D01*
X041163Y029452*
X041210Y029383*
X041238Y029364*
Y029303*
X041219Y029290*
X041172Y029221*
X041166Y029189*
X041574*
X041568Y029221*
X041521Y029290*
X041493Y029309*
Y029370*
X041512Y029383*
X041559Y029452*
X041565Y029484*
G37*
G36*
X041065D02*
X040657D01*
X040663Y029452*
X040710Y029383*
X040738Y029364*
Y029303*
X040719Y029290*
X040672Y029221*
X040666Y029189*
X041074*
X041068Y029221*
X041021Y029290*
X040993Y029309*
Y029370*
X041012Y029383*
X041059Y029452*
X041065Y029484*
G37*
G36*
X040565D02*
X040157D01*
X040163Y029452*
X040210Y029383*
X040238Y029364*
Y029303*
X040219Y029290*
X040172Y029221*
X040166Y029189*
X040574*
X040568Y029221*
X040521Y029290*
X040493Y029309*
Y029370*
X040512Y029383*
X040559Y029452*
X040565Y029484*
G37*
G36*
X030432Y029769D02*
X030428Y029768D01*
X030331*
Y029723*
X030282Y029718*
X029810*
X029732Y029703*
X029721Y029696*
X029702*
X029655Y029686*
X029616Y029660*
X029589Y029620*
X029580Y029574*
Y029455*
X029589Y029409*
X029616Y029369*
X029655Y029343*
X029702Y029333*
X029721*
X029732Y029326*
X029810Y029311*
X030283*
X030331Y029291*
Y029217*
Y029203*
Y029009*
X030608*
X030885*
Y029203*
Y029217*
Y029253*
Y029267*
Y029768*
X030436*
X030432Y029769*
G37*
G36*
X042074Y029089D02*
X041920D01*
Y028935*
X041952Y028941*
X042021Y028988*
X042068Y029057*
X042074Y029089*
G37*
G36*
X041820D02*
X041666D01*
X041672Y029057*
X041719Y028988*
X041788Y028941*
X041820Y028935*
Y029089*
G37*
G36*
X041574D02*
X041420D01*
Y028935*
X041452Y028941*
X041521Y028988*
X041568Y029057*
X041574Y029089*
G37*
G36*
X041320D02*
X041166D01*
X041172Y029057*
X041219Y028988*
X041288Y028941*
X041320Y028935*
Y029089*
G37*
G36*
X041074D02*
X040920D01*
Y028935*
X040952Y028941*
X041021Y028988*
X041068Y029057*
X041074Y029089*
G37*
G36*
X040820D02*
X040666D01*
X040672Y029057*
X040719Y028988*
X040788Y028941*
X040820Y028935*
Y029089*
G37*
G36*
X040574D02*
X040420D01*
Y028935*
X040452Y028941*
X040521Y028988*
X040568Y029057*
X040574Y029089*
G37*
G36*
X040320D02*
X040166D01*
X040172Y029057*
X040219Y028988*
X040288Y028941*
X040320Y028935*
Y029089*
G37*
G36*
X030885Y028909D02*
X030658D01*
Y028702*
X030885*
Y028909*
G37*
G36*
X030558D02*
X030331D01*
Y028702*
X030558*
Y028909*
G37*
G36*
X034971Y028608D02*
X034803D01*
Y028460*
X034971*
Y028608*
G37*
G36*
Y028360D02*
X034803D01*
Y028212*
X034971*
Y028360*
G37*
G36*
X029996Y027922D02*
Y027570D01*
X030348*
X030341Y027625*
X030300Y027724*
X030235Y027809*
X030151Y027874*
X030052Y027914*
X029996Y027922*
G37*
G36*
X029896D02*
X029841Y027914D01*
X029742Y027874*
X029658Y027809*
X029593Y027724*
X029552Y027625*
X029544Y027570*
X029896*
Y027922*
G37*
G36*
X030348Y027470D02*
X029996D01*
Y027118*
X030052Y027125*
X030151Y027166*
X030235Y027231*
X030300Y027315*
X030341Y027414*
X030348Y027470*
G37*
G36*
X029896D02*
X029544D01*
X029552Y027414*
X029593Y027315*
X029658Y027231*
X029742Y027166*
X029841Y027125*
X029896Y027118*
Y027470*
G37*
G36*
X032507Y027194D02*
X032280D01*
Y026987*
X032507*
Y027194*
G37*
G36*
X032180D02*
X031953D01*
Y026987*
X032180*
Y027194*
G37*
G36*
X030184Y026478D02*
X029957D01*
Y026270*
X030184*
Y026478*
G37*
G36*
X029857D02*
X029630D01*
Y026270*
X029857*
Y026478*
G37*
G36*
X029121D02*
X028894D01*
Y026270*
X029121*
Y026478*
G37*
G36*
X028794D02*
X028567D01*
Y026270*
X028794*
Y026478*
G37*
G36*
X044542Y025832D02*
X044350D01*
Y025641*
X044542*
Y025832*
G37*
G36*
X042180D02*
X041988D01*
Y025641*
X042180*
Y025832*
G37*
G36*
X044907Y023617D02*
X044828D01*
X044774Y023606*
X044740Y023583*
X044706Y023606*
X044662Y023614*
Y023346*
X044562*
Y023614*
X044518Y023606*
X044484Y023583*
X044450Y023606*
X044395Y023617*
X044317*
X044262Y023606*
X044216Y023575*
X044185Y023529*
X044174Y023474*
Y023435*
X044168Y023424*
X044152Y023346*
Y021183*
X044110*
Y020392*
X044901*
Y021183*
X044560*
Y021884*
X044621*
Y022126*
X044721*
Y021884*
X045306*
Y022263*
X045307Y022267*
X045306Y022270*
Y022368*
X045294Y022389*
X045300Y022436*
X045305Y022439*
X045330Y022449*
X045403Y022505*
X045459Y022578*
X045494Y022664*
X045506Y022755*
X045494Y022846*
X045459Y022932*
X045403Y023005*
X045330Y023061*
X045244Y023096*
X045153Y023108*
X045146Y023107*
X045138*
X045126Y023109*
X045115Y023111*
X045103Y023115*
X045092Y023120*
X045080Y023126*
X045072Y023130*
Y023346*
X045056Y023424*
X045049Y023435*
Y023474*
X045038Y023529*
X045008Y023575*
X044961Y023606*
X044907Y023617*
G37*
G36*
X032497Y023671D02*
X032329D01*
Y023523*
X032497*
Y023671*
G37*
G36*
X041078D02*
X040910D01*
Y023523*
X041078*
Y023671*
G37*
G36*
X032497Y023423D02*
X032329D01*
Y023275*
X032497*
Y023423*
G37*
G36*
X031677Y023400D02*
X031450D01*
Y023193*
X031677*
Y023400*
G37*
G36*
X031350D02*
X031123D01*
Y023193*
X031350*
Y023400*
G37*
G36*
X029996Y023102D02*
Y022750D01*
X030348*
X030341Y022806*
X030300Y022904*
X030235Y022989*
X030151Y023054*
X030052Y023095*
X029996Y023102*
G37*
G36*
X029896D02*
X029841Y023095D01*
X029742Y023054*
X029658Y022989*
X029593Y022904*
X029552Y022806*
X029544Y022750*
X029896*
Y023102*
G37*
G36*
X030348Y022650D02*
X029996D01*
Y022298*
X030052Y022305*
X030151Y022346*
X030235Y022411*
X030300Y022496*
X030341Y022594*
X030348Y022650*
G37*
G36*
X029896D02*
X029544D01*
X029552Y022594*
X029593Y022496*
X029658Y022411*
X029742Y022346*
X029841Y022305*
X029896Y022298*
Y022650*
G37*
G36*
X042180Y022076D02*
X041988D01*
Y021884*
X042180*
Y022076*
G37*
G36*
X034055Y023896D02*
X033964Y023884D01*
X033878Y023849*
X033805Y023793*
X033749Y023720*
X033746Y023711*
X033741Y023703*
X033737Y023698*
X033732Y023694*
X033727Y023690*
X033721Y023686*
X033713Y023683*
X033703Y023680*
X033690Y023677*
X033686*
X032941*
X032913Y023671*
X032597*
Y023473*
Y023275*
X032913*
X032941Y023269*
X033765*
X033779Y023268*
X033816Y023261*
X033830Y023258*
X033844Y023253*
X033858Y023248*
X033871Y023242*
X033875Y023240*
X033878Y023237*
X033964Y023202*
X034055Y023190*
X034146Y023202*
X034232Y023237*
X034235Y023240*
X034239Y023242*
X034252Y023248*
X034266Y023253*
X034279Y023257*
X034313Y023265*
X034328Y023267*
X034350Y023269*
X034574*
Y023207*
X034573Y023205*
X034572Y023183*
X034568Y023165*
X034561Y023144*
X034550Y023119*
X034535Y023091*
X034515Y023061*
X034491Y023029*
X034437Y022965*
X033583Y022111*
X032625*
X032547Y022095*
X032481Y022051*
X031663Y021233*
X031655Y021227*
X031640Y021217*
X031624Y021208*
X031608Y021201*
X031591Y021195*
X031572Y021191*
X031553Y021187*
X031532Y021185*
X031515*
X031506Y021186*
X031402Y021172*
X031306Y021133*
X031224Y021069*
X031160Y020987*
X031120Y020891*
X031107Y020787*
X031120Y020684*
X031160Y020588*
X031224Y020505*
X031306Y020442*
X031402Y020402*
X031506Y020389*
X031609Y020402*
X031705Y020442*
X031787Y020505*
X031851Y020588*
X031891Y020684*
X031904Y020787*
X031903Y020797*
Y020814*
X031905Y020835*
X031909Y020854*
X031913Y020873*
X031919Y020890*
X031927Y020906*
X031935Y020922*
X031945Y020937*
X031951Y020944*
X032710Y021703*
X033094*
X033099Y021688*
X033102Y021653*
X033044Y021614*
X032663Y021233*
X032655Y021227*
X032640Y021217*
X032624Y021208*
X032608Y021201*
X032591Y021195*
X032572Y021191*
X032553Y021187*
X032532Y021185*
X032515*
X032506Y021186*
X032402Y021172*
X032306Y021133*
X032224Y021069*
X032160Y020987*
X032120Y020891*
X032107Y020787*
X032120Y020684*
X032160Y020588*
X032224Y020505*
X032306Y020442*
X032402Y020402*
X032506Y020389*
X032609Y020402*
X032705Y020442*
X032787Y020505*
X032851Y020588*
X032891Y020684*
X032904Y020787*
X032903Y020797*
Y020814*
X032905Y020835*
X032909Y020854*
X032913Y020873*
X032919Y020890*
X032927Y020906*
X032935Y020922*
X032945Y020937*
X032951Y020944*
X033273Y021266*
X033842*
X033863Y021216*
X033781Y021134*
X033774Y021129*
X033763Y021122*
X033754Y021118*
X033747Y021116*
X033742*
X033738*
X033732Y021117*
X033725Y021120*
X033714Y021126*
X033705Y021133*
X033609Y021172*
X033506Y021186*
X033402Y021172*
X033306Y021133*
X033224Y021069*
X033160Y020987*
X033120Y020891*
X033107Y020787*
X033120Y020684*
X033160Y020588*
X033224Y020505*
X033306Y020442*
X033402Y020402*
X033506Y020389*
X033609Y020402*
X033705Y020442*
X033787Y020505*
X033851Y020588*
X033856Y020600*
X033875Y020631*
X033885Y020646*
X034010Y020787*
X034063Y020840*
X034111Y020817*
X034107Y020787*
X034120Y020684*
X034160Y020588*
X034224Y020505*
X034306Y020442*
X034402Y020402*
X034506Y020389*
X034609Y020402*
X034705Y020442*
X034787Y020505*
X034851Y020588*
X034891Y020684*
X034904Y020787*
X034903Y020797*
Y020814*
X034905Y020835*
X034909Y020854*
X034913Y020873*
X034919Y020890*
X034927Y020906*
X034935Y020922*
X034945Y020937*
X034951Y020944*
X036054Y022047*
X036100Y022028*
Y021670*
X035663Y021233*
X035655Y021227*
X035640Y021217*
X035624Y021208*
X035608Y021201*
X035591Y021195*
X035572Y021191*
X035553Y021187*
X035532Y021185*
X035515*
X035506Y021186*
X035402Y021172*
X035306Y021133*
X035224Y021069*
X035160Y020987*
X035120Y020891*
X035107Y020787*
X035120Y020684*
X035160Y020588*
X035224Y020505*
X035306Y020442*
X035402Y020402*
X035506Y020389*
X035609Y020402*
X035705Y020442*
X035787Y020505*
X035851Y020588*
X035891Y020684*
X035904Y020787*
X035903Y020797*
Y020814*
X035905Y020835*
X035909Y020854*
X035913Y020873*
X035919Y020890*
X035927Y020906*
X035935Y020922*
X035945Y020937*
X035951Y020944*
X036314Y021307*
X036360Y021288*
Y021230*
X036359Y021220*
X036355Y021205*
X036350Y021191*
X036344Y021178*
X036337Y021165*
X036328Y021154*
X036317Y021143*
X036304Y021131*
X036285Y021118*
X036281Y021114*
X036224Y021069*
X036160Y020987*
X036120Y020891*
X036107Y020787*
X036120Y020684*
X036160Y020588*
X036224Y020505*
X036306Y020442*
X036402Y020402*
X036506Y020389*
X036609Y020402*
X036705Y020442*
X036787Y020505*
X036851Y020588*
X036891Y020684*
X036904Y020787*
X036891Y020891*
X036851Y020987*
X036837Y021005*
X036836Y021008*
X036821Y021032*
X036809Y021052*
X036798Y021073*
X036790Y021093*
X036782Y021114*
X036776Y021134*
X036772Y021154*
X036769Y021174*
X036768Y021181*
Y022984*
X036752Y023062*
X036734Y023089*
Y023269*
X037369*
Y023089*
X037351Y023062*
X037335Y022984*
Y021225*
X037334Y021215*
X037330Y021199*
X037325Y021183*
X037319Y021168*
X037311Y021154*
X037302Y021141*
X037290Y021127*
X037277Y021114*
X037259Y021098*
X037254Y021092*
X037224Y021069*
X037160Y020987*
X037120Y020891*
X037107Y020787*
X037120Y020684*
X037160Y020588*
X037224Y020505*
X037306Y020442*
X037402Y020402*
X037506Y020389*
X037609Y020402*
X037705Y020442*
X037787Y020505*
X037851Y020588*
X037891Y020684*
X037904Y020787*
X037891Y020891*
X037851Y020987*
X037820Y021027*
X037816Y021035*
X037800Y021057*
X037787Y021076*
X037776Y021094*
X037766Y021113*
X037759Y021132*
X037752Y021151*
X037747Y021169*
X037744Y021189*
X037743Y021197*
Y021853*
X037789Y021872*
X038302Y021360*
Y021213*
X038300Y021204*
X038297Y021186*
X038292Y021169*
X038285Y021152*
X038277Y021136*
X038268Y021120*
X038256Y021103*
X038243Y021087*
X038231Y021075*
X038224Y021069*
X038160Y020987*
X038120Y020891*
X038107Y020787*
X038120Y020684*
X038160Y020588*
X038224Y020505*
X038306Y020442*
X038402Y020402*
X038506Y020389*
X038609Y020402*
X038705Y020442*
X038787Y020505*
X038851Y020588*
X038891Y020684*
X038904Y020787*
X038891Y020891*
X038851Y020987*
X038787Y021069*
X038780Y021075*
X038768Y021087*
X038755Y021103*
X038743Y021120*
X038734Y021136*
X038726Y021152*
X038719Y021169*
X038714Y021186*
X038711Y021204*
X038709Y021213*
Y021378*
X038756Y021397*
X039120Y021032*
X039126Y021025*
X039133Y021013*
X039139Y021001*
X039142Y020991*
X039143Y020981*
X039144Y020971*
X039143Y020959*
X039140Y020946*
X039134Y020927*
X039133Y020921*
X039120Y020891*
X039107Y020787*
X039120Y020684*
X039160Y020588*
X039224Y020505*
X039306Y020442*
X039402Y020402*
X039506Y020389*
X039609Y020402*
X039705Y020442*
X039787Y020505*
X039851Y020588*
X039891Y020684*
X039904Y020787*
X039891Y020891*
X039851Y020987*
X039787Y021069*
X039705Y021133*
X039653Y021154*
X039644Y021160*
X039619Y021169*
X039572Y021191*
X039553Y021201*
X039512Y021226*
X039496Y021238*
X039472Y021257*
X038587Y022143*
X038601Y022190*
X038612Y022193*
X038678Y022237*
X038692Y022258*
X038742Y022263*
X040060Y020944*
X040066Y020937*
X040076Y020922*
X040084Y020906*
X040092Y020890*
X040098Y020873*
X040102Y020854*
X040106Y020835*
X040108Y020814*
Y020797*
X040107Y020787*
X040120Y020684*
X040160Y020588*
X040224Y020505*
X040306Y020442*
X040402Y020402*
X040506Y020389*
X040609Y020402*
X040705Y020442*
X040787Y020505*
X040851Y020588*
X040891Y020684*
X040904Y020787*
X040891Y020891*
X040851Y020987*
X040787Y021069*
X040705Y021133*
X040609Y021172*
X040506Y021186*
X040496Y021185*
X040479*
X040458Y021187*
X040439Y021191*
X040420Y021195*
X040403Y021201*
X040387Y021208*
X040371Y021217*
X040356Y021227*
X040348Y021233*
X040184Y021397*
X040205Y021447*
X040845*
X041206Y021086*
X041211Y021079*
X041217Y021069*
X041220Y021064*
X041160Y020987*
X041120Y020891*
X041107Y020787*
X041120Y020684*
X041160Y020588*
X041224Y020505*
X041306Y020442*
X041402Y020402*
X041506Y020389*
X041609Y020402*
X041705Y020442*
X041787Y020505*
X041851Y020588*
X041891Y020684*
X041904Y020787*
X041891Y020891*
X041851Y020987*
X041787Y021069*
X041751Y021097*
Y021098*
X041679Y021175*
X041650Y021219*
X041073Y021795*
X041007Y021839*
X040929Y021855*
X040243*
X039541Y022556*
X039529Y022604*
Y022770*
X039532Y022771*
X039547Y022775*
X039568Y022779*
X039583Y022780*
X040225*
X042060Y020944*
X042066Y020937*
X042076Y020922*
X042084Y020906*
X042092Y020890*
X042098Y020873*
X042102Y020854*
X042106Y020835*
X042108Y020814*
Y020797*
X042107Y020787*
X042120Y020684*
X042160Y020588*
X042224Y020505*
X042306Y020442*
X042402Y020402*
X042506Y020389*
X042609Y020402*
X042705Y020442*
X042787Y020505*
X042851Y020588*
X042891Y020684*
X042904Y020787*
X042891Y020891*
X042851Y020987*
X042787Y021069*
X042705Y021133*
X042609Y021172*
X042506Y021186*
X042496Y021185*
X042479*
X042458Y021187*
X042439Y021191*
X042420Y021195*
X042403Y021201*
X042387Y021208*
X042371Y021217*
X042356Y021227*
X042348Y021233*
X041363Y022218*
X041384Y022268*
X041988*
Y022176*
X042230*
Y022126*
X042280*
Y021884*
X042501*
X042546Y021855*
X042624Y021839*
X043081*
X043159Y021855*
X043225Y021899*
X043543Y022217*
X043587Y022283*
X043603Y022361*
Y022455*
X043649Y022490*
X043705Y022563*
X043740Y022649*
X043752Y022740*
X043740Y022831*
X043705Y022917*
X043649Y022990*
X043576Y023046*
X043490Y023081*
X043399Y023093*
X043308Y023081*
X043222Y023046*
X043149Y022990*
X043093Y022917*
X043058Y022831*
X043046Y022740*
X043058Y022649*
X043093Y022563*
X043149Y022490*
X043161Y022481*
X043165Y022416*
X042997Y022247*
X042865*
Y022368*
X042828*
Y022472*
Y023209*
X042812Y023287*
X042768Y023353*
X042667Y023453*
Y023474*
X042656Y023529*
X042626Y023575*
X042580Y023606*
X042525Y023617*
X042446*
X042392Y023606*
X042358Y023583*
X042324Y023606*
X042280Y023614*
Y023346*
X042180*
Y023614*
X042136Y023606*
X042102Y023583*
X042068Y023606*
X042013Y023617*
X041935*
X041880Y023606*
X041834Y023575*
X041803Y023529*
X041793Y023474*
Y023219*
X041798Y023191*
Y023189*
X041799Y023185*
X041803Y023164*
X041810Y023154*
X041811Y023151*
X041814Y023147*
Y023146*
X041815Y023144*
X041816Y023139*
X041818Y023133*
X041819Y023128*
X041821Y023102*
Y022922*
X041786Y022869*
X041770Y022791*
X041783Y022726*
X041755Y022676*
X041440*
X040888Y023228*
X040907Y023275*
X041078*
Y023423*
X040860*
Y023473*
X040810*
Y023671*
X040494*
X040466Y023677*
X034424*
X034420*
X034407Y023680*
X034397Y023683*
X034389Y023686*
X034383Y023690*
X034378Y023694*
X034373Y023698*
X034369Y023703*
X034364Y023711*
X034361Y023720*
X034305Y023793*
X034232Y023849*
X034146Y023884*
X034055Y023896*
G37*
G36*
X029692Y021242D02*
Y021088D01*
X029846*
X029840Y021120*
X029793Y021189*
X029724Y021236*
X029692Y021242*
G37*
G36*
X029592D02*
X029560Y021236D01*
X029491Y021189*
X029444Y021120*
X029438Y021088*
X029592*
Y021242*
G37*
G36*
X029192D02*
Y021088D01*
X029346*
X029340Y021120*
X029293Y021189*
X029224Y021236*
X029192Y021242*
G37*
G36*
X029092D02*
X029060Y021236D01*
X028991Y021189*
X028944Y021120*
X028938Y021088*
X029092*
Y021242*
G37*
G36*
X028692D02*
Y021088D01*
X028846*
X028840Y021120*
X028793Y021189*
X028724Y021236*
X028692Y021242*
G37*
G36*
X028592D02*
X028560Y021236D01*
X028491Y021189*
X028444Y021120*
X028438Y021088*
X028592*
Y021242*
G37*
G36*
X028192D02*
Y021088D01*
X028346*
X028340Y021120*
X028293Y021189*
X028224Y021236*
X028192Y021242*
G37*
G36*
X028092D02*
X028060Y021236D01*
X027991Y021189*
X027944Y021120*
X027938Y021088*
X028092*
Y021242*
G37*
G36*
X029846Y020988D02*
X029438D01*
X029444Y020956*
X029491Y020887*
X029519Y020868*
Y020807*
X029500Y020794*
X029453Y020725*
X029447Y020693*
X029855*
X029849Y020725*
X029802Y020794*
X029774Y020813*
Y020874*
X029793Y020887*
X029840Y020956*
X029846Y020988*
G37*
G36*
X029346D02*
X028938D01*
X028944Y020956*
X028991Y020887*
X029019Y020868*
Y020807*
X029000Y020794*
X028953Y020725*
X028947Y020693*
X029355*
X029349Y020725*
X029302Y020794*
X029274Y020813*
Y020874*
X029293Y020887*
X029340Y020956*
X029346Y020988*
G37*
G36*
X028846D02*
X028438D01*
X028444Y020956*
X028491Y020887*
X028519Y020868*
Y020807*
X028500Y020794*
X028453Y020725*
X028447Y020693*
X028855*
X028849Y020725*
X028802Y020794*
X028774Y020813*
Y020874*
X028793Y020887*
X028840Y020956*
X028846Y020988*
G37*
G36*
X028346D02*
X027938D01*
X027944Y020956*
X027991Y020887*
X028019Y020868*
Y020807*
X028000Y020794*
X027953Y020725*
X027947Y020693*
X028355*
X028349Y020725*
X028302Y020794*
X028274Y020813*
Y020874*
X028293Y020887*
X028340Y020956*
X028346Y020988*
G37*
G36*
X029855Y020593D02*
X029701D01*
Y020439*
X029733Y020445*
X029802Y020492*
X029849Y020561*
X029855Y020593*
G37*
G36*
X029601D02*
X029447D01*
X029453Y020561*
X029500Y020492*
X029569Y020445*
X029601Y020439*
Y020593*
G37*
G36*
X029355D02*
X029201D01*
Y020439*
X029233Y020445*
X029302Y020492*
X029349Y020561*
X029355Y020593*
G37*
G36*
X029101D02*
X028947D01*
X028953Y020561*
X029000Y020492*
X029069Y020445*
X029101Y020439*
Y020593*
G37*
G36*
X028855D02*
X028701D01*
Y020439*
X028733Y020445*
X028802Y020492*
X028849Y020561*
X028855Y020593*
G37*
G36*
X028601D02*
X028447D01*
X028453Y020561*
X028500Y020492*
X028569Y020445*
X028601Y020439*
Y020593*
G37*
G36*
X028355D02*
X028201D01*
Y020439*
X028233Y020445*
X028302Y020492*
X028349Y020561*
X028355Y020593*
G37*
G36*
X028101D02*
X027947D01*
X027953Y020561*
X028000Y020492*
X028069Y020445*
X028101Y020439*
Y020593*
G37*
G36*
X043506Y021186D02*
X043402Y021172D01*
X043306Y021133*
X043224Y021069*
X043160Y020987*
X043120Y020891*
X043107Y020787*
X043120Y020684*
X043160Y020588*
X043224Y020505*
X043306Y020442*
X043402Y020402*
X043506Y020389*
X043609Y020402*
X043705Y020442*
X043787Y020505*
X043851Y020588*
X043891Y020684*
X043904Y020787*
X043891Y020891*
X043851Y020987*
X043787Y021069*
X043705Y021133*
X043609Y021172*
X043506Y021186*
G37*
G36*
X036880Y029921D02*
X036792D01*
X036793Y029914*
X036825Y029866*
X036873Y029834*
X036880Y029833*
Y029921*
G37*
G36*
X036942Y028899D02*
X036924Y028896D01*
X036866Y028857*
X036827Y028799*
X036824Y028781*
X036942*
Y028899*
G37*
%LNee194_yesdig_pcb-3*%
%LPD*%
G54D13*
X034744Y027491D02*
X035383Y028130D01*
X034744Y027405D02*
Y027491D01*
X027946Y030026D02*
X027947D01*
X027946Y033074D02*
X027947D01*
X036026Y028070D02*
X036031Y028065D01*
X035631Y028070D02*
X036026D01*
X035004Y027443D02*
X035631Y028070D01*
X035004Y027395D02*
Y027443D01*
X035265Y027403D02*
X035785Y027923D01*
X036033*
X036620Y038602D02*
X038878D01*
X036073Y038055D02*
X036620Y038602D01*
X035757Y038055D02*
X036073D01*
X038878Y038602D02*
X039331Y039055D01*
X038578Y025285D02*
X038579Y025284D01*
X038578Y025285D02*
Y026175D01*
X042624Y024742D02*
X042628Y024738D01*
X042480Y024081D02*
X042486Y024075D01*
X035415Y028410D02*
X035417Y028412D01*
X037207Y034366D02*
X037211Y034362D01*
X036757Y038005D02*
Y038055D01*
X045065Y022126D02*
X045089Y022102D01*
X043553Y039055D02*
Y039277D01*
X043363Y039467D02*
X043553Y039277D01*
X043356Y039460D02*
X043363Y039467D01*
X042385Y039460D02*
X043356D01*
X041958Y039034D02*
X042385Y039460D01*
X041958Y038887D02*
Y039034D01*
X041126Y038055D02*
X041958Y038887D01*
X038757Y038055D02*
X041126D01*
X041147Y037650D02*
X042553Y039055D01*
X038590Y037650D02*
X041147D01*
X038184Y038055D02*
X038590Y037650D01*
X037757Y038055D02*
X038184D01*
X040958Y038460D02*
X041553Y039055D01*
X037590Y038460D02*
X040958D01*
X037184Y038055D02*
X037590Y038460D01*
X036757Y038055D02*
X037184D01*
X039331Y039055D02*
X040553D01*
X029781Y033083D02*
X029791Y033074D01*
X030549Y032562D02*
X030569Y032542D01*
X030604Y029515D02*
X030608Y029511D01*
X029810Y030957D02*
X029821Y030967D01*
X041974Y022791D02*
Y023346D01*
X044356Y020937D02*
X044506Y020787D01*
X028946Y022700D02*
X028965Y022718D01*
G54D19*
X028965Y024819D03*
Y024449D03*
Y024079D03*
X029905D03*
Y024819D03*
G54D20*
X044671Y022126D03*
X045065D03*
X042230D03*
X042624D03*
X044986Y025591D03*
X044592D03*
X042624D03*
X042230D03*
G54D21*
X038578Y026569D03*
Y026175D03*
X035784Y026570D03*
Y026176D03*
X044487Y030555D03*
Y030949D03*
G54D22*
X029791Y033074D03*
Y032562D03*
X028984D03*
Y032818D03*
Y033074D03*
X029810Y030026D03*
Y029515D03*
X029003D03*
Y029770D03*
Y030026D03*
G54D23*
X029821Y030967D03*
Y031518D03*
X029033Y030967D03*
Y031518D03*
X028844Y025669D03*
Y026220D03*
X029907Y025669D03*
Y026220D03*
X032230Y027244D03*
Y027795D03*
X030608Y028959D03*
Y029511D03*
X031400Y023450D03*
Y024001D03*
X032961Y034530D03*
Y033978D03*
X029781Y034668D03*
Y034117D03*
X030569Y031991D03*
Y032542D03*
X028994Y034117D03*
Y034668D03*
G54D24*
X041119Y035713D03*
Y035453D03*
Y035193D03*
Y034933D03*
Y034673D03*
Y034413D03*
Y034153D03*
Y033893D03*
X043419D03*
Y034153D03*
Y034413D03*
Y034673D03*
Y034933D03*
Y035193D03*
Y035453D03*
Y035713D03*
G54D25*
X036564Y025284D03*
X036304D03*
X036044D03*
X035784D03*
X035524D03*
X035264D03*
X035004D03*
X034744D03*
Y022984D03*
X035004D03*
X035264D03*
X035524D03*
X035784D03*
X036044D03*
X036304D03*
X036564D03*
X039359D03*
X039099D03*
X038839D03*
X038579D03*
X038319D03*
X038059D03*
X037799D03*
X037539D03*
Y025284D03*
X037799D03*
X038059D03*
X038319D03*
X038579D03*
X038839D03*
X039099D03*
X039359D03*
G54D26*
X035021Y028410D03*
X035415D03*
X035025Y031989D03*
X035419D03*
X035021Y031563D03*
X035415D03*
X035027Y031142D03*
X035421D03*
X035023Y030269D03*
X035417D03*
X035021Y030730D03*
X035415D03*
X042088Y032751D03*
X042482D03*
X042088Y036869D03*
X042482D03*
X040466Y023473D03*
X040860D03*
X032941D03*
X032547D03*
G54D27*
X042486Y024075D03*
X042230D03*
X041974D03*
X042486Y023346D03*
X042230D03*
X041974D03*
X044868Y024075D03*
X044612D03*
X044356D03*
X044868Y023346D03*
X044612D03*
X044356D03*
G54D28*
X032978Y038189D03*
X033529D03*
G54D50*
X035970Y030737D03*
X035984Y031563D03*
X036436Y031989D03*
X036433Y031140D03*
X028974Y032051D03*
G54D54*
X038127Y030263D03*
X038007D03*
X038067D03*
G54D55*
X037407Y029053D03*
X037467D03*
X037527D03*
X037587D03*
X037647D03*
X037707D03*
X037767D03*
X037827D03*
X037887D03*
X037947D03*
X038007D03*
X038067D03*
X038127D03*
X038187D03*
X038247D03*
X038307D03*
X038367D03*
X038427D03*
Y030553D03*
X038367D03*
X038307D03*
X038247D03*
X038187D03*
X038127D03*
X038067D03*
X038007D03*
X037947D03*
X037887D03*
X037827D03*
X037767D03*
X037707D03*
X037647D03*
X037587D03*
X037527D03*
X037467D03*
X037407D03*
G54D56*
X042624Y022043D02*
X043081D01*
X042624Y022126D02*
Y022472D01*
X038502Y022381D02*
X038534D01*
X038319Y022564D02*
X038502Y022381D01*
X043517Y033893D02*
X045457Y031953D01*
X043419Y033893D02*
X043517D01*
X043419Y034139D02*
X044252D01*
X044275Y034135D02*
X045457Y032953D01*
X044256Y034135D02*
X044275D01*
X044252Y034139D02*
X044256Y034135D01*
X043803Y035713D02*
X044033Y035943D01*
X044049*
X044059Y035953*
X045457*
X043399Y022361D02*
Y022740D01*
X043081Y022043D02*
X043399Y022361D01*
X042624Y022043D02*
Y022126D01*
X035984Y031563D02*
X036581D01*
X036433Y031140D02*
X036774D01*
X036436Y031989D02*
X037077D01*
X037592Y031474*
X038508Y031573D02*
X039863Y032928D01*
X038908Y031533D02*
Y031534D01*
X040163Y032789*
X044612Y024075D02*
Y024437D01*
X044660Y024485*
X038839Y025284D02*
Y027413D01*
X035708Y025099D02*
Y025284D01*
X035784Y025175D02*
Y026176D01*
X044986Y024193D02*
Y025591D01*
X036854Y030737D02*
X036855Y030738D01*
X035970Y030737D02*
X036854D01*
X035415Y030730D02*
X035422Y030737D01*
X035970*
X035415Y031563D02*
X035984D01*
X038485Y027141D02*
X038578Y027048D01*
Y026569D02*
Y027048D01*
X028320Y024434D02*
X028335Y024449D01*
X028965*
X027946Y024809D02*
X027956Y024819D01*
X035652Y026702D02*
Y026996D01*
Y026702D02*
X035784Y026570D01*
X035524Y022485D02*
X035620Y022389D01*
X035524Y022485D02*
Y022984D01*
X038319Y022564D02*
Y022984D01*
X042230Y022939D02*
X042284Y022885D01*
X042230Y022939D02*
Y023346D01*
X044612Y022185D02*
X044671Y022126D01*
X044612Y022185D02*
Y023346D01*
X029905Y024079D02*
X031322D01*
X036044Y027587D02*
X036146Y027689D01*
X036044Y025284D02*
Y027587D01*
X035417Y030269D02*
X035480Y030332D01*
X036832*
X035412Y028407D02*
Y029259D01*
X033667Y021907D02*
X034744Y022984D01*
X032625Y021907D02*
X033667D01*
X031506Y020787D02*
X032625Y021907D01*
X032506Y020787D02*
X033188Y021470D01*
X033866*
X035004Y022608*
Y022984*
X033730Y020795D02*
X035264Y022329D01*
Y022984*
X033513Y020795D02*
X033730D01*
X043419Y035713D02*
X043803D01*
X040379Y034420D02*
X041112D01*
X039863Y033904D02*
X040379Y034420D01*
X039863Y032928D02*
Y033904D01*
X040613Y034153D02*
X041119D01*
X040163Y033703D02*
X040613Y034153D01*
X040163Y032789D02*
Y033703D01*
X040820Y033893D02*
X041119D01*
X040815Y033898D02*
X040820Y033893D01*
X040480Y033563D02*
X040815Y033898D01*
X040480Y032693D02*
Y033563D01*
X038715Y030928D02*
X040480Y032693D01*
X035419Y031989D02*
X036436D01*
X035423Y031140D02*
X036433D01*
X031473Y033074D02*
X031949Y032598D01*
X029791Y033074D02*
X031473D01*
X031318Y030967D02*
X031949Y031598D01*
X029821Y030967D02*
X031318D01*
X039467Y035713D02*
X041119D01*
X039077Y035323D02*
X039467Y035713D01*
X039077Y033219D02*
Y035323D01*
X038476Y032618D02*
X039077Y033219D01*
X039768Y035452D02*
X041118D01*
X039449Y035133D02*
X039768Y035452D01*
X039449Y033024D02*
Y035133D01*
X038262Y031837D02*
X039449Y033024D01*
X041118Y035452D02*
X041119Y035453D01*
X027947Y030026D02*
X029003D01*
X028946Y029458D02*
X029003Y029515D01*
X028946Y027520D02*
Y029458D01*
X028974Y032051D02*
X028984Y032061D01*
Y032562*
X027947Y033074D02*
X028984D01*
Y034658D02*
X028994Y034668D01*
X041119Y034673D02*
X041412D01*
X041677Y034938*
X041119Y034933D02*
X041124Y034938D01*
X041677*
X042088Y035349*
Y036869*
X042063Y036894D02*
X042088Y036869D01*
X040934Y036894D02*
X042063D01*
X043416Y034936D02*
X043419Y034933D01*
X042873Y034936D02*
X043416D01*
X042088Y034151D02*
X042873Y034936D01*
X042088Y032751D02*
Y034151D01*
X042061Y032724D02*
X042088Y032751D01*
X042061Y031572D02*
Y032724D01*
X044997Y034413D02*
X045457Y033953D01*
X043339Y034413D02*
X044997D01*
X045453Y030949D02*
X045457Y030953D01*
X044407Y030949D02*
X045453D01*
X044484Y030946D02*
X044487Y030949D01*
X044064Y030946D02*
X044484D01*
X043502Y030384D02*
X044064Y030946D01*
X039394Y030384D02*
X043502D01*
X039905Y027429D02*
Y027431D01*
Y027429D02*
X041094Y026240D01*
X042230Y024075D02*
Y025591D01*
X041974Y024075D02*
Y024805D01*
X039605Y027174D02*
X041974Y024805D01*
X039605Y027174D02*
Y027498D01*
X039359Y025284D02*
Y027429D01*
X039099Y025284D02*
Y027408D01*
X038059Y027433D02*
D01*
Y025284D02*
Y027433D01*
X037799Y027423D02*
X037801Y027425D01*
X037799Y025284D02*
Y027423D01*
X037541Y025286D02*
Y028035D01*
X037539Y025284D02*
X037541Y025286D01*
X036302D02*
Y027405D01*
X036553Y025295D02*
Y027412D01*
X034744Y025284D02*
Y027405D01*
X035421Y031142D02*
X035423Y031140D01*
X035417Y029243D02*
Y030269D01*
Y028412D02*
Y029243D01*
X035418Y029242*
X036929*
X035412Y028407D02*
X035415Y028410D01*
X029791Y032562D02*
X030549D01*
X044868Y023040D02*
Y023346D01*
Y023040D02*
X045153Y022755D01*
X041356Y022472D02*
X042624D01*
X045065Y022126D02*
Y022667D01*
X045153Y022755*
X042486Y023346D02*
X042624Y023209D01*
Y022472D02*
Y023209D01*
X040466Y023362D02*
X041356Y022472D01*
X040466Y023362D02*
Y023473D01*
X038570D02*
X040466D01*
X035777D02*
X038570D01*
Y022993D02*
X038579Y022984D01*
X038570Y022993D02*
Y023473D01*
X034125D02*
X035777D01*
X035784Y022984D02*
Y023466D01*
X034055Y023543D02*
X034125Y023473D01*
X033985D02*
X034055Y023543D01*
X032941Y023473D02*
X033985D01*
X035708Y024960D02*
Y025099D01*
X035524Y025284D02*
X035708D01*
Y025099D02*
X035784Y025175D01*
X040309Y022984D02*
X042506Y020787D01*
X039359Y022984D02*
X040309D01*
X039099Y022710D02*
Y022984D01*
Y022710D02*
X040158Y021651D01*
X040929D02*
X041506Y021074D01*
X040158Y021651D02*
X040929D01*
X041506Y020787D02*
Y021074D01*
X038839Y022454D02*
X040506Y020787D01*
X038839Y022454D02*
Y022984D01*
X039506Y020787D02*
Y020935D01*
X038059Y022382D02*
X039506Y020935D01*
X038059Y022382D02*
Y022984D01*
X038506Y020787D02*
Y021444D01*
X037799Y022151D02*
X038506Y021444D01*
X037799Y022151D02*
Y022984D01*
X037506Y020787D02*
X037539Y020821D01*
Y022984*
X036506Y020787D02*
X036564Y020846D01*
Y022984*
X035506Y020787D02*
X036304Y021586D01*
Y022984*
X034506Y020787D02*
X036044Y022326D01*
Y022984*
X033506Y020787D02*
X033513Y020795D01*
X038319Y025284D02*
X038579D01*
X038319Y024717D02*
Y025284D01*
X035315Y024567D02*
X035708Y024960D01*
X044868Y024075D02*
X044986Y024193D01*
X042628Y024511D02*
Y024738D01*
X042480Y024081D02*
Y024363D01*
X042628Y024511*
X042624Y024742D02*
Y025591D01*
X027956Y024819D02*
X028965D01*
X035265Y025285D02*
Y027403D01*
X041094Y026240D02*
X043221D01*
X044356Y024075D02*
Y025105D01*
X043221Y026240D02*
X044356Y025105D01*
X035004Y025284D02*
Y027395D01*
X037211Y032448D02*
Y034362D01*
Y032448D02*
X038067Y031592D01*
X043419Y034139D02*
Y034153D01*
X044957Y035453D02*
X045457Y034953D01*
X043339Y035453D02*
X044957D01*
X029781Y033083D02*
Y034117D01*
X029810Y029515D02*
X030604D01*
X029810Y030026D02*
Y030957D01*
X044356Y020937D02*
Y023346D01*
X031322Y024079D02*
X031400Y024001D01*
X028965Y022718D02*
Y024079D01*
X028839Y025665D02*
X028844Y025669D01*
G54D57*
X037827Y030553D02*
Y031011D01*
X037275Y031563D02*
X037827Y031011D01*
X037660Y030985D02*
X037711D01*
X037767Y030929*
X037089Y031385D02*
X037707Y030766D01*
X037427Y030962D02*
X037647Y030741D01*
X037476Y030828D02*
X037587Y030717D01*
X037086Y030828D02*
X037476D01*
X037527Y030553D02*
Y030692D01*
X037482Y030737D02*
X037527Y030692D01*
X036856Y030737D02*
X037482D01*
X036855Y030738D02*
X036856Y030737D01*
X037016Y031385D02*
X037089D01*
X037707Y030553D02*
Y030766D01*
X037533Y030331D02*
X037870D01*
X037587Y030553D02*
Y030717D01*
X037647Y030553D02*
Y030741D01*
X037199Y030962D02*
X037427D01*
X036774Y031140D02*
X037086Y030828D01*
X036581Y031563D02*
X037275D01*
X037592Y031474D02*
X037889Y031177D01*
X038187Y031046D02*
X038271Y031130D01*
Y031110D02*
Y031130D01*
X038661Y031259D02*
Y031277D01*
X038247Y030845D02*
X038661Y031259D01*
X038908Y031326D02*
Y031533D01*
X038570Y030988D02*
X038908Y031326D01*
X038570Y030988D02*
D01*
X038367Y030785D02*
X038570Y030988D01*
X036948Y030528D02*
X037070Y030406D01*
X037111*
X036948Y030528D02*
X037012D01*
X038830Y027422D02*
X038835Y027417D01*
X037111Y030406D02*
X037113Y030408D01*
X037372*
X037407Y030443*
Y030553*
X036992Y028731D02*
X037002Y028741D01*
X036146Y027689D02*
X036633D01*
X036832Y030332D02*
X036833Y030331D01*
X038427Y030640D02*
X038715Y030928D01*
X038427Y030553D02*
Y030640D01*
X036929Y029242D02*
X036939Y029252D01*
X037450*
X037892*
X037407Y029209D02*
X037450Y029252D01*
X037407Y029053D02*
Y029209D01*
X037947Y029053D02*
Y029193D01*
X037949Y029195*
X037892Y029252D02*
X037949Y029195D01*
X036833Y030331D02*
X037533D01*
X037467Y030397D02*
X037533Y030331D01*
X037947Y030408D02*
Y030553D01*
X037870Y030331D02*
X037947Y030408D01*
X041103Y033877D02*
X041119Y033893D01*
X036930Y029971D02*
X037222Y030263D01*
X038007*
X038921D02*
X039125Y030059D01*
X038127Y030263D02*
X038921D01*
X037863Y028002D02*
X038007Y028146D01*
Y029053*
X038247Y030553D02*
Y030845D01*
X038367Y030553D02*
Y030785D01*
X038187Y030553D02*
Y031046D01*
X037767Y030553D02*
Y030929D01*
X039391Y030381D02*
X039394Y030384D01*
X038323Y030381D02*
X039391D01*
X038427Y028907D02*
X038429D01*
X039905Y027431*
X039605Y027498D02*
Y027644D01*
X038367Y028881D02*
X039605Y027644D01*
X039359Y027429D02*
Y027613D01*
X038950Y028022D02*
X039359Y027613D01*
X038950Y028022D02*
Y028214D01*
X039099Y027408D02*
Y027606D01*
X038890Y027815D02*
X039099Y027606D01*
X038890Y027815D02*
Y028189D01*
X038830Y027422D02*
Y028164D01*
X038127Y027501D02*
Y029053D01*
X038059Y027433D02*
X038127Y027501D01*
X037801Y027425D02*
X038067Y027691D01*
X037887Y028381D02*
Y029053D01*
X037541Y028035D02*
X037887Y028381D01*
X037002Y028741D02*
X037312D01*
X037467Y028896*
Y029053*
X036905Y028228D02*
X037527Y028850D01*
Y029053*
X035481Y028228D02*
X036905D01*
X037587Y028819D02*
Y029053D01*
X036833Y028065D02*
X037587Y028819D01*
X036031Y028065D02*
X036833D01*
X037647Y028792D02*
Y029053D01*
X036778Y027923D02*
X037647Y028792D01*
X036033Y027923D02*
X036778D01*
X037707Y028763D02*
Y029053D01*
X036633Y027689D02*
X037707Y028763D01*
X036637Y027602D02*
X037767Y028732D01*
X036499Y027602D02*
X036637D01*
X036302Y027405D02*
X036499Y027602D01*
X037767Y028732D02*
Y029053D01*
X037827Y028686D02*
Y029053D01*
X036553Y027412D02*
X037827Y028686D01*
X035383Y028130D02*
X035481Y028228D01*
X036302Y025286D02*
X036304Y025284D01*
X037887Y030717D02*
X037889Y030718D01*
Y031177*
X037467Y030397D02*
Y030553D01*
X035777Y023473D02*
X035784Y023466D01*
X038307Y030397D02*
X038323Y030381D01*
X038307Y030397D02*
Y030553D01*
X038427Y028907D02*
Y029053D01*
X038307Y028856D02*
X038950Y028214D01*
X038247Y028832D02*
X038890Y028189D01*
X038187Y028807D02*
X038830Y028164D01*
X038367Y028881D02*
Y029053D01*
X038307Y028856D02*
Y029053D01*
X038247Y028832D02*
Y029053D01*
X038187Y028807D02*
Y029053D01*
X041114Y034158D02*
X041119Y034153D01*
X039353Y025290D02*
X039359Y025284D01*
X038830Y025293D02*
X038839Y025284D01*
X038067Y027691D02*
Y029053D01*
X036553Y025295D02*
X036564Y025284D01*
X035264D02*
X035265Y025285D01*
X035004Y025284D02*
D01*
X038067Y030553D02*
Y031592D01*
X037887Y030553D02*
Y030717D01*
G54D58*
X028013Y025669D02*
X028844D01*
X027946Y025603D02*
X028013Y025669D01*
X027946Y030961D02*
X027953Y030967D01*
X029033*
X032949Y033966D02*
X032961Y033978D01*
X032949Y032598D02*
Y033966D01*
X032230Y029259D02*
X035412D01*
X032230Y027795D02*
Y029259D01*
X032220Y027805D02*
X032230Y027795D01*
X032220Y027805D02*
Y030406D01*
X032949Y031135*
Y031598*
X038465Y024571D02*
X040160D01*
X038461Y024567D02*
X038465Y024571D01*
X035315Y024567D02*
X038461D01*
X029905Y025667D02*
X029907Y025669D01*
X029905Y024819D02*
Y025667D01*
X033529Y038920D02*
X033626Y039017D01*
X033529Y038189D02*
Y038920D01*
X033128Y024567D02*
X035315D01*
X032911Y024784D02*
X033128Y024567D01*
X027946Y034707D02*
X027985Y034668D01*
X028994*
G54D59*
X027866Y036616D02*
X027946Y036535D01*
X033626Y039017D02*
X035899D01*
Y039230*
X038685*
X027497Y027070D02*
X027946Y027520D01*
X027497Y023149D02*
Y027070D01*
Y023149D02*
X027946Y022700D01*
Y030961D02*
Y033074D01*
Y030026D02*
Y030961D01*
Y027520D02*
Y030026D01*
Y033074D02*
Y034707D01*
X031945Y039017D02*
X033626D01*
X032876Y024819D02*
X032911Y024784D01*
X029905Y024819D02*
X032876D01*
X027946Y034707D02*
Y036535D01*
X027813Y036705D02*
Y038898D01*
Y036705D02*
X027946Y036571D01*
G54D60*
X044506Y020787D03*
X040553Y039055D03*
X035757Y038055D03*
X027813Y038898D03*
G54D61*
X043506Y020787D03*
X042506D03*
X041506D03*
X040506D03*
X039506D03*
X038506D03*
X037506D03*
X036506D03*
X035506D03*
X034506D03*
X033506D03*
X032506D03*
X031506D03*
X045553Y039055D03*
X044553D03*
X043553D03*
X042553D03*
X041553D03*
X035757D03*
X036757Y038055D03*
Y039055D03*
X037757Y038055D03*
Y039055D03*
X038757Y038055D03*
Y039055D03*
X032949Y031598D03*
X031949D03*
X032949Y032598D03*
X045457Y034953D03*
Y033953D03*
Y032953D03*
Y031953D03*
Y030953D03*
X028813Y038898D03*
G54D62*
X036207Y035366D03*
X038207D03*
Y033366D03*
X036207D03*
X037207Y034366D03*
G54D63*
X031949Y032598D03*
X045457Y035953D03*
G54D64*
X029946Y027520D03*
X028946D03*
X029946Y022700D03*
X028946D03*
X029946Y036571D03*
X028946D03*
G54D65*
X027946Y027520D03*
Y022700D03*
Y036571D03*
G54D66*
X038534Y022381D03*
X044660Y024485D03*
X038485Y027141D03*
X028320Y024434D03*
X035652Y026996D03*
X035620Y022389D03*
X042284Y022885D03*
X041974Y022791D03*
G54D67*
X043399Y022740D03*
X044967Y024922D03*
X040934Y036894D03*
X042061Y031572D03*
X045153Y022755D03*
X034055Y023543D03*
X040160Y024571D03*
X042628Y024738D03*
G54D68*
X037660Y030985D03*
X037199Y030962D03*
X037016Y031385D03*
X038271Y031110D03*
X038508Y031573D03*
X038661Y031277D03*
X036948Y030528D03*
X036992Y028731D03*
X039125Y030059D03*
X037863Y028002D03*
X038476Y032618D03*
X038262Y031837D03*
G54D69*
X029642Y021038D03*
X029142D03*
X028642D03*
X028142D03*
X028151Y020643D03*
X028651D03*
X029151D03*
X029651D03*
X033264Y037120D03*
Y036620D03*
Y036120D03*
Y035620D03*
X033659Y035629D03*
Y036129D03*
Y036629D03*
Y037129D03*
X030984Y037984D03*
X030484D03*
X029984D03*
X029484D03*
X029493Y037589D03*
X029993D03*
X030493D03*
X030993D03*
X041870Y029139D03*
X041370D03*
X040870D03*
X040370D03*
X040361Y029534D03*
X040861D03*
X041361D03*
X041861D03*
G54D70*
X036930Y029971D03*
G54D71*
X031945Y039017D03*
X032911Y024784D03*
G54D17*
X031887Y031326D02*
X031915Y031326D01*
X031884Y031323*
X031855Y031319*
X031827Y031311*
X031799Y031302*
X031774Y031290*
X031749Y031277*
X031724Y031261*
X031701Y031243*
X031698Y031240*
X031591Y031347*
X031594Y031350*
X031612Y031373*
X031628Y031398*
X031641Y031423*
X031653Y031448*
X031662Y031476*
X031670Y031504*
X031674Y031533*
X031677Y031564*
X031677Y031536*
X031887Y031326*
X029975Y031104D02*
X029985Y031086D01*
X030001Y031073*
X030018Y031065*
X030039Y031057*
X030064Y031051*
X030092Y031047*
X030123Y031045*
X030172Y031043*
Y030892*
X030158*
X030092Y030886*
X030064Y030882*
X030040Y030877*
X030019Y030870*
X030000Y030860*
X029985Y030847*
X029975Y030831*
X029975Y030833*
X029973Y030833*
X029953Y030824*
X029935Y030811*
X029920Y030792*
X029908Y030770*
X029899Y030746*
X029893Y030717*
X029889Y030685*
X029886Y030650*
X029885Y030636*
X029735*
Y030650*
X029728Y030716*
X029724Y030744*
X029717Y030768*
X029709Y030790*
X029697Y030808*
X029683Y030823*
X029665Y030832*
X029947Y030786*
X030022*
Y030846*
X029975Y031104*
X044957Y023058D02*
X044976Y023041D01*
X044996Y023027*
X045017Y023014*
X045038Y023004*
X045060Y022995*
X045082Y022988*
X045104Y022983*
X045128Y022981*
X045092Y022982*
X044925Y022814*
X044926Y022779*
X044924Y022803*
X044919Y022825*
X044912Y022847*
X044903Y022869*
X044893Y022890*
X044881Y022910*
X044866Y022931*
X044849Y022950*
X044848Y022951*
X044956Y023059*
X044956Y023058*
X044432Y020932D02*
X044436Y020920D01*
X044442Y020906*
X044450Y020894*
X044457Y020880*
X044469Y020865*
X044493Y020836*
X044507Y020820*
X044505Y020823*
X044469Y020786*
X044471Y020785*
X044427Y020823*
X044412Y020835*
X044398Y020842*
X044386Y020850*
X044372Y020856*
X044359Y020860*
X044393Y020852*
X044439Y020898*
X044432Y020932*
X038793Y023394D02*
X038829Y023395D01*
X038791Y023389*
X038758Y023378*
X038728Y023361*
X038702Y023340*
X038681Y023314*
X038664Y023284*
X038653Y023251*
X038647Y023213*
X038646Y023198*
X038493*
X038492Y023213*
X038486Y023251*
X038475Y023284*
X038458Y023314*
X038437Y023340*
X038411Y023361*
X038381Y023378*
X038348Y023389*
X038310Y023395*
X038346Y023394*
X038570Y023542*
X038793Y023394*
X036639Y021193D02*
X036640Y021186D01*
X036642Y021156*
X036647Y021129*
X036653Y021102*
X036661Y021074*
X036671Y021047*
X036683Y021019*
X036697Y020991*
X036712Y020966*
X036698Y020988*
X036405Y021048*
X036382Y021031*
X036405Y021051*
X036424Y021071*
X036441Y021093*
X036455Y021116*
X036468Y021142*
X036477Y021169*
X036483Y021197*
X036487Y021226*
X036487Y021226*
X036639Y021193*
X039376Y021171D02*
X039418Y021137D01*
X039441Y021120*
X039489Y021090*
X039516Y021076*
X039570Y021051*
X039541Y021062*
X039273Y020942*
X039263Y020913*
X039268Y020940*
X039271Y020967*
X039269Y020994*
X039265Y021020*
X039257Y021046*
X039246Y021071*
X039231Y021096*
X039213Y021120*
X039217Y021115*
X039369Y021178*
X039376Y021171*
X042258Y021142D02*
X042281Y021123D01*
X042305Y021108*
X042330Y021094*
X042356Y021082*
X042383Y021072*
X042411Y021066*
X042441Y021061*
X042471Y021058*
X042442*
X042235Y020850*
Y020821*
X042231Y020851*
X042226Y020880*
X042219Y020908*
X042210Y020936*
X042198Y020962*
X042184Y020987*
X042169Y021011*
X042150Y021034*
X042147Y021037*
X042254Y021145*
X042258Y021142*
X040258Y021142D02*
X040281Y021123D01*
X040305Y021108*
X040330Y021094*
X040356Y021082*
X040383Y021072*
X040411Y021066*
X040441Y021061*
X040471Y021058*
X040442*
X040235Y020850*
Y020821*
X040231Y020851*
X040226Y020880*
X040219Y020908*
X040210Y020936*
X040198Y020962*
X040184Y020987*
X040169Y021011*
X040150Y021034*
X040147Y021037*
X040255Y021145*
X040258Y021142*
X035863Y021037D02*
X035860Y021034D01*
X035841Y021011*
X035826Y020987*
X035812Y020962*
X035800Y020936*
X035791Y020908*
X035784Y020880*
X035779Y020851*
X035776Y020821*
Y020850*
X035568Y021058*
X035539*
X035569Y021061*
X035599Y021066*
X035627Y021072*
X035654Y021082*
X035680Y021094*
X035705Y021108*
X035729Y021123*
X035752Y021142*
X035756Y021145*
X035863Y021037*
X034863D02*
X034860Y021034D01*
X034841Y021011*
X034826Y020987*
X034812Y020962*
X034800Y020936*
X034791Y020908*
X034784Y020880*
X034779Y020851*
X034776Y020821*
Y020850*
X034568Y021058*
X034539*
X034569Y021061*
X034599Y021066*
X034627Y021072*
X034654Y021082*
X034680Y021094*
X034705Y021108*
X034729Y021123*
X034752Y021142*
X034756Y021145*
X034863Y021037*
X032863D02*
X032860Y021034D01*
X032841Y021011*
X032826Y020987*
X032812Y020962*
X032800Y020936*
X032791Y020908*
X032784Y020880*
X032779Y020851*
X032776Y020821*
Y020850*
X032568Y021058*
X032539*
X032569Y021061*
X032599Y021066*
X032627Y021072*
X032654Y021082*
X032680Y021094*
X032705Y021108*
X032729Y021123*
X032752Y021142*
X032756Y021145*
X032863Y021037*
X031863D02*
X031860Y021034D01*
X031841Y021011*
X031826Y020987*
X031812Y020962*
X031800Y020936*
X031791Y020908*
X031784Y020880*
X031779Y020851*
X031776Y020821*
Y020850*
X031568Y021058*
X031539*
X031569Y021061*
X031599Y021066*
X031627Y021072*
X031654Y021082*
X031680Y021094*
X031705Y021108*
X031729Y021123*
X031752Y021142*
X031756Y021145*
X031863Y021037*
M02*