%FSDAX24Y24*%
%MOIN*%
%SFA1B1*%

%IPPOS*%
%ADD10C,0.000000*%
%ADD16C,0.003900*%
%LNee194_yesdig_pcb-1*%
%LPD*%
G54D10*
X042149Y035808D02*
D01*
X042149Y035799*
X042150Y035791*
X042151Y035783*
X042153Y035774*
X042156Y035766*
X042159Y035759*
X042163Y035751*
X042167Y035744*
X042171Y035737*
X042177Y035730*
X042182Y035724*
X042188Y035718*
X042195Y035713*
X042201Y035708*
X042209Y035704*
X042216Y035700*
X042224Y035696*
X042231Y035693*
X042239Y035691*
X042248Y035689*
X042256Y035688*
X042264Y035688*
X042273*
X042281Y035688*
X042289Y035689*
X042298Y035691*
X042306Y035693*
X042313Y035696*
X042321Y035700*
X042329Y035704*
X042336Y035708*
X042342Y035713*
X042349Y035718*
X042355Y035724*
X042360Y035730*
X042366Y035737*
X042370Y035744*
X042374Y035751*
X042378Y035759*
X042381Y035766*
X042384Y035774*
X042386Y035783*
X042387Y035791*
X042388Y035799*
X042389Y035808*
X036659Y024254D02*
D01*
X036650Y024253*
X036642Y024252*
X036634Y024251*
X036625Y024249*
X036617Y024246*
X036610Y024243*
X036602Y024239*
X036595Y024235*
X036588Y024231*
X036581Y024225*
X036575Y024220*
X036569Y024214*
X036564Y024207*
X036559Y024201*
X036555Y024194*
X036551Y024186*
X036547Y024178*
X036544Y024171*
X036542Y024163*
X036540Y024154*
X036539Y024146*
X036539Y024138*
Y024129*
X036539Y024121*
X036540Y024113*
X036542Y024104*
X036544Y024096*
X036547Y024089*
X036551Y024081*
X036555Y024074*
X036559Y024066*
X036564Y024060*
X036569Y024053*
X036575Y024047*
X036581Y024042*
X036588Y024036*
X036595Y024032*
X036602Y024028*
X036610Y024024*
X036617Y024021*
X036625Y024018*
X036634Y024016*
X036642Y024015*
X036650Y024014*
X036659Y024014*
X039454Y024254D02*
D01*
X039445Y024253*
X039437Y024252*
X039429Y024251*
X039420Y024249*
X039412Y024246*
X039405Y024243*
X039397Y024239*
X039390Y024235*
X039383Y024231*
X039376Y024225*
X039370Y024220*
X039364Y024214*
X039359Y024207*
X039354Y024201*
X039350Y024194*
X039346Y024186*
X039342Y024178*
X039339Y024171*
X039337Y024163*
X039335Y024154*
X039334Y024146*
X039334Y024138*
Y024129*
X039334Y024121*
X039335Y024113*
X039337Y024104*
X039339Y024096*
X039342Y024089*
X039346Y024081*
X039350Y024074*
X039354Y024066*
X039359Y024060*
X039364Y024053*
X039370Y024047*
X039376Y024042*
X039383Y024036*
X039390Y024032*
X039397Y024028*
X039405Y024024*
X039412Y024021*
X039420Y024018*
X039429Y024016*
X039437Y024015*
X039445Y024014*
X039454Y024014*
G54D16*
X038312Y033110D02*
D01*
X038396Y033190*
X038463Y033261*
Y035471D02*
D01*
X038382Y035555*
X038312Y035622*
X036102D02*
D01*
X036017Y035541*
X035951Y035471*
Y033261D02*
D01*
X036031Y033176*
X036102Y033110*
X037457Y034366D02*
D01*
X037456Y034383*
X037454Y034400*
X037451Y034417*
X037447Y034434*
X037441Y034451*
X037435Y034467*
X037427Y034483*
X037419Y034498*
X037409Y034512*
X037398Y034526*
X037386Y034539*
X037374Y034551*
X037360Y034563*
X037346Y034573*
X037332Y034582*
X037316Y034590*
X037300Y034597*
X037284Y034603*
X037267Y034608*
X037250Y034612*
X037233Y034614*
X037215Y034615*
X037198*
X037180Y034614*
X037163Y034612*
X037146Y034608*
X037129Y034603*
X037113Y034597*
X037097Y034590*
X037082Y034582*
X037067Y034573*
X037053Y034563*
X037039Y034551*
X037027Y034539*
X037015Y034526*
X037004Y034512*
X036994Y034498*
X036986Y034483*
X036978Y034467*
X036972Y034451*
X036966Y034434*
X036962Y034417*
X036959Y034400*
X036957Y034383*
X036957Y034366*
X036957Y034348*
X036959Y034331*
X036962Y034314*
X036966Y034297*
X036972Y034280*
X036978Y034264*
X036986Y034248*
X036994Y034233*
X037004Y034219*
X037015Y034205*
X037027Y034192*
X037039Y034180*
X037053Y034168*
X037067Y034158*
X037082Y034149*
X037097Y034141*
X037113Y034134*
X037129Y034128*
X037146Y034123*
X037163Y034119*
X037180Y034117*
X037198Y034116*
X037215*
X037233Y034117*
X037250Y034119*
X037267Y034123*
X037284Y034128*
X037300Y034134*
X037316Y034141*
X037332Y034149*
X037346Y034158*
X037360Y034168*
X037374Y034180*
X037386Y034192*
X037398Y034205*
X037409Y034219*
X037419Y034233*
X037427Y034248*
X037435Y034264*
X037441Y034280*
X037447Y034297*
X037451Y034314*
X037454Y034331*
X037456Y034348*
X037457Y034366*
X038231D02*
D01*
X038228Y034437*
X038221Y034508*
X038208Y034578*
X038191Y034648*
X038169Y034716*
X038142Y034782*
X038111Y034846*
X038075Y034908*
X038035Y034967*
X037991Y035024*
X037943Y035077*
X037892Y035126*
X037837Y035172*
X037779Y035214*
X037719Y035252*
X037655Y035286*
X037590Y035315*
X037523Y035339*
X037454Y035359*
X037384Y035374*
X037314Y035384*
X037242Y035389*
X037171*
X037099Y035384*
X037029Y035374*
X036959Y035359*
X036890Y035339*
X036823Y035315*
X036758Y035286*
X036695Y035252*
X036634Y035214*
X036576Y035172*
X036521Y035126*
X036470Y035077*
X036422Y035024*
X036378Y034967*
X036338Y034908*
X036302Y034846*
X036271Y034782*
X036244Y034716*
X036222Y034648*
X036205Y034578*
X036192Y034508*
X036185Y034437*
X036183Y034366*
X036185Y034294*
X036192Y034223*
X036205Y034153*
X036222Y034083*
X036244Y034015*
X036271Y033949*
X036302Y033885*
X036338Y033823*
X036378Y033764*
X036422Y033707*
X036470Y033654*
X036521Y033605*
X036576Y033559*
X036634Y033517*
X036695Y033479*
X036758Y033445*
X036823Y033416*
X036890Y033392*
X036959Y033372*
X037029Y033357*
X037099Y033347*
X037171Y033342*
X037242*
X037314Y033347*
X037384Y033357*
X037454Y033372*
X037523Y033392*
X037590Y033416*
X037655Y033445*
X037719Y033479*
X037779Y033517*
X037837Y033559*
X037892Y033605*
X037943Y033654*
X037991Y033707*
X038035Y033764*
X038075Y033823*
X038111Y033885*
X038142Y033949*
X038169Y034015*
X038191Y034083*
X038208Y034153*
X038221Y034223*
X038228Y034294*
X038231Y034366*
X038457D02*
D01*
X038453Y034453*
X038444Y034539*
X038429Y034625*
X038408Y034710*
X038381Y034793*
X038348Y034874*
X038310Y034952*
X038267Y035028*
X038218Y035100*
X038164Y035169*
X038106Y035234*
X038043Y035294*
X037976Y035351*
X037905Y035402*
X037832Y035448*
X037754Y035489*
X037675Y035524*
X037593Y035554*
X037509Y035578*
X037424Y035597*
X037337Y035609*
X037250Y035615*
X037163*
X037076Y035609*
X036989Y035597*
X036904Y035578*
X036820Y035554*
X036738Y035524*
X036659Y035489*
X036582Y035448*
X036508Y035402*
X036437Y035351*
X036370Y035294*
X036307Y035234*
X036249Y035169*
X036195Y035100*
X036146Y035028*
X036103Y034952*
X036065Y034874*
X036032Y034793*
X036005Y034710*
X035984Y034625*
X035969Y034539*
X035960Y034453*
X035957Y034366*
X035960Y034278*
X035969Y034192*
X035984Y034106*
X036005Y034021*
X036032Y033938*
X036065Y033857*
X036103Y033779*
X036146Y033703*
X036195Y033631*
X036249Y033562*
X036307Y033497*
X036370Y033437*
X036437Y033380*
X036508Y033329*
X036582Y033283*
X036659Y033242*
X036738Y033207*
X036820Y033177*
X036904Y033153*
X036989Y033134*
X037076Y033122*
X037163Y033116*
X037250*
X037337Y033122*
X037424Y033134*
X037509Y033153*
X037593Y033177*
X037675Y033207*
X037754Y033242*
X037832Y033283*
X037905Y033329*
X037976Y033380*
X038043Y033437*
X038106Y033497*
X038164Y033562*
X038218Y033631*
X038267Y033703*
X038310Y033779*
X038348Y033857*
X038381Y033938*
X038408Y034021*
X038429Y034106*
X038444Y034192*
X038453Y034278*
X038457Y034366*
X044651Y022244D02*
X045084D01*
X044651Y022008D02*
X045084D01*
X044651D02*
Y022244D01*
X045084Y022008D02*
Y022244D01*
X042210D02*
X042643D01*
X042210Y022008D02*
X042643D01*
X042210D02*
Y022244D01*
X042643Y022008D02*
Y022244D01*
X038460Y026589D02*
X038696D01*
X038460Y026155D02*
X038696D01*
Y026589*
X038460Y026155D02*
Y026589D01*
X035666Y026590D02*
X035902D01*
X035666Y026156D02*
X035902D01*
Y026590*
X035666Y026156D02*
Y026590D01*
X029112Y032394D02*
X029663D01*
X029112Y033241D02*
X029663D01*
Y032394D02*
Y033241D01*
X029112Y032394D02*
Y033241D01*
X029634Y030898D02*
Y031587D01*
X030008Y030898D02*
Y031587D01*
X029634Y030898D02*
X030008D01*
X029634Y031587D02*
X030008D01*
X028846Y030898D02*
Y031587D01*
X029220Y030898D02*
Y031587D01*
X028846Y030898D02*
X029220D01*
X028846Y031587D02*
X029220D01*
X029131Y029347D02*
X029682D01*
X029131Y030194D02*
X029682D01*
Y029347D02*
Y030194D01*
X029131Y029347D02*
Y030194D01*
X028657Y025600D02*
Y026289D01*
X029031Y025600D02*
Y026289D01*
X028657Y025600D02*
X029031D01*
X028657Y026289D02*
X029031D01*
X029720Y025600D02*
Y026289D01*
X030094Y025600D02*
Y026289D01*
X029720Y025600D02*
X030094D01*
X029720Y026289D02*
X030094D01*
X044369Y030535D02*
X044605D01*
X044369Y030969D02*
X044605D01*
X044369Y030535D02*
Y030969D01*
X044605Y030535D02*
Y030969D01*
X036107Y035616D02*
X038307D01*
X035957Y033266D02*
Y035466D01*
X036107Y033116D02*
X038307D01*
X038457Y033266D02*
Y035466D01*
X037168Y034119D02*
Y034613D01*
X037246Y034119D02*
Y034613D01*
X036404Y035169D02*
Y035563D01*
X036010Y035169D02*
X036404D01*
X036010D02*
Y035535D01*
X036038Y035563D02*
X036404D01*
X036010Y033197D02*
Y033563D01*
X036038Y033169D02*
X036404D01*
Y033563*
X036010D02*
X036404D01*
X038010Y033169D02*
X038376D01*
X038404Y033197D02*
Y033563D01*
X038010D02*
X038404D01*
X038010Y033169D02*
Y033563D01*
X038404Y035169D02*
Y035535D01*
X038010Y035563D02*
X038376D01*
X038010Y035169D02*
Y035563D01*
Y035169D02*
X038404D01*
X035001Y028292D02*
Y028528D01*
X035435Y028292D02*
Y028528D01*
X035001D02*
X035435D01*
X035001Y028292D02*
X035435D01*
X035005Y031871D02*
Y032107D01*
X035439Y031871D02*
Y032107D01*
X035005D02*
X035439D01*
X035005Y031871D02*
X035439D01*
X035001Y031445D02*
Y031681D01*
X035435Y031445D02*
Y031681D01*
X035001D02*
X035435D01*
X035001Y031445D02*
X035435D01*
X035007Y031024D02*
Y031260D01*
X035441Y031024D02*
Y031260D01*
X035007D02*
X035441D01*
X035007Y031024D02*
X035441D01*
X035003Y030151D02*
Y030387D01*
X035437Y030151D02*
Y030387D01*
X035003D02*
X035437D01*
X035003Y030151D02*
X035437D01*
X035001Y030612D02*
Y030848D01*
X035435Y030612D02*
Y030848D01*
X035001D02*
X035435D01*
X035001Y030612D02*
X035435D01*
X045006Y025472D02*
Y025709D01*
X044572Y025472D02*
Y025709D01*
Y025472D02*
X045006D01*
X044572Y025709D02*
X045006D01*
X042643Y025472D02*
Y025709D01*
X042210Y025472D02*
Y025709D01*
Y025472D02*
X042643D01*
X042210Y025709D02*
X042643D01*
X030521Y027020D02*
Y028020D01*
X027372Y027020D02*
X030521D01*
X027372D02*
Y028020D01*
X030521*
Y022200D02*
Y023200D01*
X027372Y022200D02*
X030521D01*
X027372D02*
Y023200D01*
X030521*
Y036071D02*
Y037071D01*
X027372Y036071D02*
X030521D01*
X027372D02*
Y037071D01*
X030521*
X032043Y027175D02*
X032417D01*
X032043Y027864D02*
X032417D01*
X032043Y027175D02*
Y027864D01*
X032417Y027175D02*
Y027864D01*
X030421Y028890D02*
X030795D01*
X030421Y029579D02*
X030795D01*
X030421Y028890D02*
Y029579D01*
X030795Y028890D02*
Y029579D01*
X032909Y038002D02*
Y038376D01*
X033598Y038002D02*
Y038376D01*
X032909D02*
X033598D01*
X032909Y038002D02*
X033598D01*
X031213Y023381D02*
X031587D01*
X031213Y024070D02*
X031587D01*
X031213Y023381D02*
Y024070D01*
X031587Y023381D02*
Y024070D01*
X032774Y034598D02*
X033148D01*
X032774Y033910D02*
X033148D01*
Y034598*
X032774Y033910D02*
Y034598D01*
X029594Y034737D02*
X029968D01*
X029594Y034048D02*
X029968D01*
Y034737*
X029594Y034048D02*
Y034737D01*
X030382Y031922D02*
X030756D01*
X030382Y032611D02*
X030756D01*
X030382Y031922D02*
Y032611D01*
X030756Y031922D02*
Y032611D01*
X028807Y034048D02*
X029181D01*
X028807Y034737D02*
X029181D01*
X028807Y034048D02*
Y034737D01*
X029181Y034048D02*
Y034737D01*
X042068Y032869D02*
X042502D01*
X042068Y032633D02*
X042502D01*
X042068D02*
Y032869D01*
X042502Y032633D02*
Y032869D01*
X042068Y036987D02*
X042502D01*
X042068Y036751D02*
X042502D01*
X042068D02*
Y036987D01*
X042502Y036751D02*
Y036987D01*
X040446Y023591D02*
X040880D01*
X040446Y023355D02*
X040880D01*
X040446D02*
Y023591D01*
X040880Y023355D02*
Y023591D01*
X032527Y023355D02*
X032961D01*
X032527Y023591D02*
X032961D01*
Y023355D02*
Y023591D01*
X032527Y023355D02*
Y023591D01*
M02*