%FSDAX24Y24*%
%MOIN*%
%SFA1B1*%

%IPPOS*%
%AMD22*
4,1,8,-0.012800,0.005800,-0.012800,-0.005800,-0.010800,-0.007800,0.010800,-0.007800,0.012800,-0.005800,0.012800,0.005800,0.010800,0.007800,-0.010800,0.007800,-0.012800,0.005800,0.0*
1,1,0.004000,-0.010800,0.005800*
1,1,0.004000,-0.010800,-0.005800*
1,1,0.004000,0.010800,-0.005800*
1,1,0.004000,0.010800,0.005800*
%
%AMD27*
4,1,8,-0.003900,-0.016700,0.003900,-0.016700,0.007800,-0.012800,0.007800,0.012800,0.003900,0.016700,-0.003900,0.016700,-0.007800,0.012800,-0.007800,-0.012800,-0.003900,-0.016700,0.0*
1,1,0.007800,-0.003900,-0.012800*
1,1,0.007800,0.003900,-0.012800*
1,1,0.007800,0.003900,0.012800*
1,1,0.007800,-0.003900,0.012800*
%
%ADD19R,0.058000X0.022000*%
%ADD20R,0.028300X0.028300*%
%ADD21R,0.019700X0.023600*%
G04~CAMADD=22~8~0.0~0.0~157.0~256.0~20.0~0.0~15~0.0~0.0~0.0~0.0~0~0.0~0.0~0.0~0.0~0~0.0~0.0~0.0~90.0~256.0~156.0*
%ADD22D22*%
%ADD23R,0.035400X0.031500*%
%ADD24R,0.056000X0.014000*%
%ADD25R,0.014000X0.056000*%
%ADD26R,0.023600X0.019700*%
G04~CAMADD=27~8~0.0~0.0~157.0~335.0~39.0~0.0~15~0.0~0.0~0.0~0.0~0~0.0~0.0~0.0~0.0~0~0.0~0.0~0.0~180.0~156.0~334.0*
%ADD27D27*%
%ADD28R,0.031500X0.035400*%
%ADD54R,0.003000X0.035000*%
%ADD55R,0.003000X0.024000*%
%ADD60R,0.059100X0.059100*%
%ADD61C,0.059100*%
%ADD62C,0.086600*%
%ADD63R,0.059100X0.059100*%
%ADD64C,0.061000*%
%ADD65R,0.061000X0.061000*%
%LNee194_yesdig_pcb-1*%
%LPD*%
G54D19*
X028965Y024819D03*
Y024449D03*
Y024079D03*
X029905D03*
Y024819D03*
G54D20*
X044671Y022126D03*
X045065D03*
X042230D03*
X042624D03*
X044986Y025591D03*
X044592D03*
X042624D03*
X042230D03*
G54D21*
X038578Y026569D03*
Y026175D03*
X035784Y026570D03*
Y026176D03*
X044487Y030555D03*
Y030949D03*
G54D22*
X029791Y033074D03*
Y032562D03*
X028984D03*
Y032818D03*
Y033074D03*
X029810Y030026D03*
Y029515D03*
X029003D03*
Y029770D03*
Y030026D03*
G54D23*
X029821Y030967D03*
Y031518D03*
X029033Y030967D03*
Y031518D03*
X028844Y025669D03*
Y026220D03*
X029907Y025669D03*
Y026220D03*
X032230Y027244D03*
Y027795D03*
X030608Y028959D03*
Y029511D03*
X031400Y023450D03*
Y024001D03*
X032961Y034530D03*
Y033978D03*
X029781Y034668D03*
Y034117D03*
X030569Y031991D03*
Y032542D03*
X028994Y034117D03*
Y034668D03*
G54D24*
X041119Y035713D03*
Y035453D03*
Y035193D03*
Y034933D03*
Y034673D03*
Y034413D03*
Y034153D03*
Y033893D03*
X043419D03*
Y034153D03*
Y034413D03*
Y034673D03*
Y034933D03*
Y035193D03*
Y035453D03*
Y035713D03*
G54D25*
X036564Y025284D03*
X036304D03*
X036044D03*
X035784D03*
X035524D03*
X035264D03*
X035004D03*
X034744D03*
Y022984D03*
X035004D03*
X035264D03*
X035524D03*
X035784D03*
X036044D03*
X036304D03*
X036564D03*
X039359D03*
X039099D03*
X038839D03*
X038579D03*
X038319D03*
X038059D03*
X037799D03*
X037539D03*
Y025284D03*
X037799D03*
X038059D03*
X038319D03*
X038579D03*
X038839D03*
X039099D03*
X039359D03*
G54D26*
X035021Y028410D03*
X035415D03*
X035025Y031989D03*
X035419D03*
X035021Y031563D03*
X035415D03*
X035027Y031142D03*
X035421D03*
X035023Y030269D03*
X035417D03*
X035021Y030730D03*
X035415D03*
X042088Y032751D03*
X042482D03*
X042088Y036869D03*
X042482D03*
X040466Y023473D03*
X040860D03*
X032941D03*
X032547D03*
G54D27*
X042486Y024075D03*
X042230D03*
X041974D03*
X042486Y023346D03*
X042230D03*
X041974D03*
X044868Y024075D03*
X044612D03*
X044356D03*
X044868Y023346D03*
X044612D03*
X044356D03*
G54D28*
X032978Y038189D03*
X033529D03*
G54D54*
X038127Y030263D03*
X038007D03*
X038067D03*
G54D55*
X037407Y029053D03*
X037467D03*
X037527D03*
X037587D03*
X037647D03*
X037707D03*
X037767D03*
X037827D03*
X037887D03*
X037947D03*
X038007D03*
X038067D03*
X038127D03*
X038187D03*
X038247D03*
X038307D03*
X038367D03*
X038427D03*
Y030553D03*
X038367D03*
X038307D03*
X038247D03*
X038187D03*
X038127D03*
X038067D03*
X038007D03*
X037947D03*
X037887D03*
X037827D03*
X037767D03*
X037707D03*
X037647D03*
X037587D03*
X037527D03*
X037467D03*
X037407D03*
G54D60*
X044506Y020787D03*
X040553Y039055D03*
X035757Y038055D03*
X027813Y038898D03*
G54D61*
X043506Y020787D03*
X042506D03*
X041506D03*
X040506D03*
X039506D03*
X038506D03*
X037506D03*
X036506D03*
X035506D03*
X034506D03*
X033506D03*
X032506D03*
X031506D03*
X045553Y039055D03*
X044553D03*
X043553D03*
X042553D03*
X041553D03*
X035757D03*
X036757Y038055D03*
Y039055D03*
X037757Y038055D03*
Y039055D03*
X038757Y038055D03*
Y039055D03*
X032949Y031598D03*
X031949D03*
X032949Y032598D03*
X045457Y034953D03*
Y033953D03*
Y032953D03*
Y031953D03*
Y030953D03*
X028813Y038898D03*
G54D62*
X036207Y035366D03*
X038207D03*
Y033366D03*
X036207D03*
X037207Y034366D03*
G54D63*
X031949Y032598D03*
X045457Y035953D03*
G54D64*
X029946Y027520D03*
X028946D03*
X029946Y022700D03*
X028946D03*
X029946Y036571D03*
X028946D03*
G54D65*
X027946Y027520D03*
Y022700D03*
Y036571D03*
M02*