%FSDAX24Y24*%
%MOIN*%
%SFA1B1*%

%IPPOS*%
%ADD41R,0.067100X0.067100*%
%ADD42C,0.067100*%
%ADD43C,0.094600*%
%ADD44R,0.067100X0.067100*%
%ADD45C,0.069000*%
%ADD46R,0.069000X0.069000*%
%ADD47C,0.028000*%
%ADD48C,0.058000*%
%ADD49C,0.023000*%
%ADD50C,0.030000*%
%ADD51C,0.038000*%
%ADD52C,0.017000*%
%ADD53C,0.128000*%
%LNee194_yesdig_pcb-1*%
%LPD*%
G54D41*
X044506Y020787D03*
X040553Y039055D03*
X035757Y038055D03*
X027813Y038898D03*
G54D42*
X043506Y020787D03*
X042506D03*
X041506D03*
X040506D03*
X039506D03*
X038506D03*
X037506D03*
X036506D03*
X035506D03*
X034506D03*
X033506D03*
X032506D03*
X031506D03*
X045553Y039055D03*
X044553D03*
X043553D03*
X042553D03*
X041553D03*
X035757D03*
X036757Y038055D03*
Y039055D03*
X037757Y038055D03*
Y039055D03*
X038757Y038055D03*
Y039055D03*
X032949Y031598D03*
X031949D03*
X032949Y032598D03*
X045457Y034953D03*
Y033953D03*
Y032953D03*
Y031953D03*
Y030953D03*
X028813Y038898D03*
G54D43*
X036207Y035366D03*
X038207D03*
Y033366D03*
X036207D03*
X037207Y034366D03*
G54D44*
X031949Y032598D03*
X045457Y035953D03*
G54D45*
X029946Y027520D03*
X028946D03*
X029946Y022700D03*
X028946D03*
X029946Y036571D03*
X028946D03*
G54D46*
X027946Y027520D03*
Y022700D03*
Y036571D03*
G54D47*
X038534Y022381D03*
X044660Y024485D03*
X038485Y027141D03*
X028320Y024434D03*
X035652Y026996D03*
X035620Y022389D03*
X042284Y022885D03*
X041974Y022791D03*
G54D48*
X043399Y022740D03*
X044967Y024922D03*
X040934Y036894D03*
X042061Y031572D03*
X045153Y022755D03*
X034055Y023543D03*
X040160Y024571D03*
X042628Y024738D03*
G54D49*
X037660Y030985D03*
X037199Y030962D03*
X037016Y031385D03*
X038271Y031110D03*
X038508Y031573D03*
X038661Y031277D03*
X036948Y030528D03*
X036992Y028731D03*
X039125Y030059D03*
X037863Y028002D03*
X038476Y032618D03*
X038262Y031837D03*
G54D50*
X029642Y021038D03*
X029142D03*
X028642D03*
X028142D03*
X028151Y020643D03*
X028651D03*
X029151D03*
X029651D03*
X033264Y037120D03*
Y036620D03*
Y036120D03*
Y035620D03*
X033659Y035629D03*
Y036129D03*
Y036629D03*
Y037129D03*
X030984Y037984D03*
X030484D03*
X029984D03*
X029484D03*
X029493Y037589D03*
X029993D03*
X030493D03*
X030993D03*
X041870Y029139D03*
X041370D03*
X040870D03*
X040370D03*
X040361Y029534D03*
X040861D03*
X041361D03*
X041861D03*
G54D51*
X035970Y030737D03*
X035984Y031563D03*
X036436Y031989D03*
X036433Y031140D03*
X028974Y032051D03*
G54D52*
X036930Y029971D03*
G54D53*
X031945Y039017D03*
X032911Y024784D03*
M02*