%FSDAX24Y24*%
%MOIN*%
%SFA1B1*%

%IPPOS*%
%ADD73C,0.002000*%
%LNee194_yesdig_pcb-1*%
%LPD*%
G54D73*
X044328Y020787D02*
X044683D01*
X044506Y020610D02*
Y020965D01*
X043328Y020787D02*
X043683D01*
X043506Y020610D02*
Y020965D01*
X042328Y020787D02*
X042683D01*
X042506Y020610D02*
Y020965D01*
X041328Y020787D02*
X041683D01*
X041506Y020610D02*
Y020965D01*
X040328Y020787D02*
X040683D01*
X040506Y020610D02*
Y020965D01*
X039328Y020787D02*
X039683D01*
X039506Y020610D02*
Y020965D01*
X038328Y020787D02*
X038683D01*
X038506Y020610D02*
Y020965D01*
X037328Y020787D02*
X037683D01*
X037506Y020610D02*
Y020965D01*
X036328Y020787D02*
X036683D01*
X036506Y020610D02*
Y020965D01*
X035328Y020787D02*
X035683D01*
X035506Y020610D02*
Y020965D01*
X034328Y020787D02*
X034683D01*
X034506Y020610D02*
Y020965D01*
X033328Y020787D02*
X033683D01*
X033506Y020610D02*
Y020965D01*
X032328Y020787D02*
X032683D01*
X032506Y020610D02*
Y020965D01*
X031328Y020787D02*
X031683D01*
X031506Y020610D02*
Y020965D01*
X035882Y035366D02*
X036532D01*
X036207Y035041D02*
Y035691D01*
X037882Y035366D02*
X038532D01*
X038207Y035041D02*
Y035691D01*
X037882Y033366D02*
X038532D01*
X038207Y033041D02*
Y033691D01*
X035882Y033366D02*
X036532D01*
X036207Y033041D02*
Y033691D01*
X036882Y034366D02*
X037532D01*
X037207Y034041D02*
Y034691D01*
X045376Y039055D02*
X045730D01*
X045553Y038878D02*
Y039232D01*
X044376Y039055D02*
X044730D01*
X044553Y038878D02*
Y039232D01*
X043376Y039055D02*
X043730D01*
X043553Y038878D02*
Y039232D01*
X042376Y039055D02*
X042730D01*
X042553Y038878D02*
Y039232D01*
X041376Y039055D02*
X041730D01*
X041553Y038878D02*
Y039232D01*
X040376Y039055D02*
X040730D01*
X040553Y038878D02*
Y039232D01*
X035580Y038055D02*
X035935D01*
X035757Y037878D02*
Y038232D01*
X035580Y039055D02*
X035935D01*
X035757Y038878D02*
Y039232D01*
X036580Y038055D02*
X036935D01*
X036757Y037878D02*
Y038232D01*
X036580Y039055D02*
X036935D01*
X036757Y038878D02*
Y039232D01*
X037580Y038055D02*
X037935D01*
X037757Y037878D02*
Y038232D01*
X037580Y039055D02*
X037935D01*
X037757Y038878D02*
Y039232D01*
X038580Y038055D02*
X038935D01*
X038757Y037878D02*
Y038232D01*
X038580Y039055D02*
X038935D01*
X038757Y038878D02*
Y039232D01*
X032772Y031598D02*
X033126D01*
X032949Y031421D02*
Y031775D01*
X031772Y031598D02*
X032126D01*
X031949Y031421D02*
Y031775D01*
X032772Y032598D02*
X033126D01*
X032949Y032421D02*
Y032775D01*
X031772Y032598D02*
X032126D01*
X031949Y032421D02*
Y032775D01*
X045280Y035953D02*
X045634D01*
X045457Y035776D02*
Y036130D01*
X045280Y034953D02*
X045634D01*
X045457Y034776D02*
Y035130D01*
X045280Y033953D02*
X045634D01*
X045457Y033776D02*
Y034130D01*
X045280Y032953D02*
X045634D01*
X045457Y032776D02*
Y033130D01*
X045280Y031953D02*
X045634D01*
X045457Y031776D02*
Y032130D01*
X045280Y030953D02*
X045634D01*
X045457Y030776D02*
Y031130D01*
X029746Y027520D02*
X030147D01*
X029946Y027319D02*
Y027720D01*
X028746Y027520D02*
X029147D01*
X028946Y027319D02*
Y027720D01*
X027746Y027520D02*
X028147D01*
X027946Y027319D02*
Y027720D01*
X029746Y022700D02*
X030147D01*
X029946Y022499D02*
Y022901D01*
X028746Y022700D02*
X029147D01*
X028946Y022499D02*
Y022901D01*
X027746Y022700D02*
X028147D01*
X027946Y022499D02*
Y022901D01*
X029746Y036571D02*
X030147D01*
X029946Y036370D02*
Y036772D01*
X028746Y036571D02*
X029147D01*
X028946Y036370D02*
Y036772D01*
X027746Y036571D02*
X028147D01*
X027946Y036370D02*
Y036772D01*
X027635Y038898D02*
X027990D01*
X027813Y038720D02*
Y039075D01*
X028635Y038898D02*
X028990D01*
X028813Y038720D02*
Y039075D01*
X038484Y022381D02*
X038584D01*
X038534Y022331D02*
Y022431D01*
X043259Y022740D02*
X043539D01*
X043399Y022600D02*
Y022880D01*
X037635Y030985D02*
X037685D01*
X037660Y030960D02*
Y031010D01*
X037174Y030962D02*
X037224D01*
X037199Y030937D02*
Y030987D01*
X036991Y031385D02*
X037041D01*
X037016Y031360D02*
Y031410D01*
X038246Y031110D02*
X038296D01*
X038271Y031085D02*
Y031135D01*
X038483Y031573D02*
X038533D01*
X038508Y031548D02*
Y031598D01*
X038636Y031277D02*
X038686D01*
X038661Y031252D02*
Y031302D01*
X044610Y024485D02*
X044710D01*
X044660Y024435D02*
Y024535D01*
X036923Y030528D02*
X036973D01*
X036948Y030503D02*
Y030553D01*
X029592Y021038D02*
X029692D01*
X029642Y020988D02*
Y021088D01*
X029092Y021038D02*
X029192D01*
X029142Y020988D02*
Y021088D01*
X028592Y021038D02*
X028692D01*
X028642Y020988D02*
Y021088D01*
X028092Y021038D02*
X028192D01*
X028142Y020988D02*
Y021088D01*
X028101Y020643D02*
X028201D01*
X028151Y020593D02*
Y020693D01*
X028601Y020643D02*
X028701D01*
X028651Y020593D02*
Y020693D01*
X029101Y020643D02*
X029201D01*
X029151Y020593D02*
Y020693D01*
X029601Y020643D02*
X029701D01*
X029651Y020593D02*
Y020693D01*
X033214Y037120D02*
X033314D01*
X033264Y037070D02*
Y037170D01*
X033214Y036620D02*
X033314D01*
X033264Y036570D02*
Y036670D01*
X033214Y036120D02*
X033314D01*
X033264Y036070D02*
Y036170D01*
X033214Y035620D02*
X033314D01*
X033264Y035570D02*
Y035670D01*
X033609Y035629D02*
X033709D01*
X033659Y035579D02*
Y035679D01*
X033609Y036129D02*
X033709D01*
X033659Y036079D02*
Y036179D01*
X033609Y036629D02*
X033709D01*
X033659Y036579D02*
Y036679D01*
X033609Y037129D02*
X033709D01*
X033659Y037079D02*
Y037179D01*
X030934Y037984D02*
X031034D01*
X030984Y037934D02*
Y038034D01*
X030434Y037984D02*
X030534D01*
X030484Y037934D02*
Y038034D01*
X029934Y037984D02*
X030034D01*
X029984Y037934D02*
Y038034D01*
X029434Y037984D02*
X029534D01*
X029484Y037934D02*
Y038034D01*
X029443Y037589D02*
X029543D01*
X029493Y037539D02*
Y037639D01*
X029943Y037589D02*
X030043D01*
X029993Y037539D02*
Y037639D01*
X030443Y037589D02*
X030543D01*
X030493Y037539D02*
Y037639D01*
X030943Y037589D02*
X031043D01*
X030993Y037539D02*
Y037639D01*
X041820Y029139D02*
X041920D01*
X041870Y029089D02*
Y029189D01*
X041320Y029139D02*
X041420D01*
X041370Y029089D02*
Y029189D01*
X040820Y029139D02*
X040920D01*
X040870Y029089D02*
Y029189D01*
X040320Y029139D02*
X040420D01*
X040370Y029089D02*
Y029189D01*
X040311Y029534D02*
X040411D01*
X040361Y029484D02*
Y029584D01*
X040811Y029534D02*
X040911D01*
X040861Y029484D02*
Y029584D01*
X041311Y029534D02*
X041411D01*
X041361Y029484D02*
Y029584D01*
X041811Y029534D02*
X041911D01*
X041861Y029484D02*
Y029584D01*
X035870Y030737D02*
X036070D01*
X035970Y030637D02*
Y030837D01*
X035884Y031563D02*
X036084D01*
X035984Y031463D02*
Y031663D01*
X038435Y027141D02*
X038535D01*
X038485Y027091D02*
Y027191D01*
X028270Y024434D02*
X028370D01*
X028320Y024384D02*
Y024484D01*
X035602Y026996D02*
X035702D01*
X035652Y026946D02*
Y027046D01*
X036967Y028731D02*
X037017D01*
X036992Y028706D02*
Y028756D01*
X035570Y022389D02*
X035670D01*
X035620Y022339D02*
Y022439D01*
X042234Y022885D02*
X042334D01*
X042284Y022835D02*
Y022935D01*
X044827Y024922D02*
X045107D01*
X044967Y024782D02*
Y025062D01*
X036915Y029971D02*
X036945D01*
X036930Y029956D02*
Y029986D01*
X039100Y030059D02*
X039150D01*
X039125Y030034D02*
Y030084D01*
X037838Y028002D02*
X037888D01*
X037863Y027977D02*
Y028027D01*
X036336Y031989D02*
X036536D01*
X036436Y031889D02*
Y032089D01*
X036333Y031140D02*
X036533D01*
X036433Y031040D02*
Y031240D01*
X038451Y032618D02*
X038501D01*
X038476Y032593D02*
Y032643D01*
X038237Y031837D02*
X038287D01*
X038262Y031812D02*
Y031862D01*
X028874Y032051D02*
X029074D01*
X028974Y031951D02*
Y032151D01*
X040794Y036894D02*
X041074D01*
X040934Y036754D02*
Y037034D01*
X041921Y031572D02*
X042201D01*
X042061Y031432D02*
Y031712D01*
X045013Y022755D02*
X045293D01*
X045153Y022615D02*
Y022895D01*
X033915Y023543D02*
X034195D01*
X034055Y023403D02*
Y023683D01*
X040020Y024571D02*
X040300D01*
X040160Y024431D02*
Y024711D01*
X031445Y039017D02*
X032445D01*
X031945Y038517D02*
Y039517D01*
X042488Y024738D02*
X042768D01*
X042628Y024598D02*
Y024878D01*
X032411Y024784D02*
X033411D01*
X032911Y024284D02*
Y025284D01*
X041924Y022791D02*
X042024D01*
X041974Y022741D02*
Y022841D01*
M02*