G04*
G04 #@! TF.GenerationSoftware,Altium Limited,Altium Designer,18.0.11 (651)*
G04*
G04 Layer_Physical_Order=2*
G04 Layer_Color=16711680*
%FSLAX25Y25*%
%MOIN*%
G70*
G01*
G75*
%ADD13C,0.01000*%
%ADD50C,0.03000*%
%ADD55C,0.02000*%
%ADD56C,0.00300*%
%ADD57C,0.05000*%
%ADD58C,0.10000*%
%ADD59R,0.05906X0.05906*%
%ADD60C,0.05906*%
%ADD61C,0.08661*%
%ADD62R,0.05906X0.05906*%
%ADD63C,0.06102*%
%ADD64R,0.06102X0.06102*%
%ADD65C,0.02000*%
%ADD66C,0.05000*%
%ADD67C,0.01500*%
%ADD68C,0.02200*%
%ADD69C,0.12000*%
G36*
X196340Y-2600D02*
Y-197730D01*
X5960D01*
X3320Y-195090D01*
X3190Y-2944D01*
X3544Y-2590D01*
X51480D01*
X51555Y-3090D01*
X50758Y-3332D01*
X49542Y-3982D01*
X48476Y-4856D01*
X47602Y-5922D01*
X46951Y-7138D01*
X46551Y-8458D01*
X46416Y-9830D01*
X46551Y-11202D01*
X46951Y-12522D01*
X47421Y-13400D01*
Y-43343D01*
X40047Y-50717D01*
X39297Y-51630D01*
X38740Y-52673D01*
X38397Y-53804D01*
X38281Y-54980D01*
Y-92690D01*
X38397Y-93866D01*
X38740Y-94997D01*
X39297Y-96039D01*
X40047Y-96953D01*
X57081Y-113987D01*
Y-148590D01*
X56612Y-149468D01*
X56211Y-150788D01*
X56076Y-152160D01*
X56211Y-153532D01*
X56612Y-154852D01*
X57262Y-156068D01*
X58136Y-157134D01*
X59202Y-158008D01*
X60418Y-158658D01*
X61738Y-159059D01*
X63110Y-159194D01*
X64482Y-159059D01*
X65802Y-158658D01*
X67018Y-158008D01*
X68084Y-157134D01*
X68958Y-156068D01*
X69608Y-154852D01*
X70009Y-153532D01*
X70090Y-152709D01*
X70590Y-152734D01*
Y-164140D01*
X70710Y-165054D01*
X71063Y-165905D01*
X71624Y-166636D01*
X72054Y-167066D01*
X72785Y-167627D01*
X73636Y-167980D01*
X74550Y-168100D01*
X75464Y-167980D01*
X76315Y-167627D01*
X77046Y-167066D01*
X77607Y-166335D01*
X77960Y-165484D01*
X78080Y-164570D01*
X77960Y-163656D01*
X77650Y-162909D01*
Y-138422D01*
X77720Y-137890D01*
Y-89927D01*
X78182Y-89736D01*
X82568Y-94122D01*
X83230Y-94564D01*
X84010Y-94719D01*
X84261Y-94669D01*
X92252D01*
X92725Y-94985D01*
X93700Y-95179D01*
X94675Y-94985D01*
X95502Y-94432D01*
X96055Y-93605D01*
X96249Y-92630D01*
X96055Y-91654D01*
X95651Y-91049D01*
X95917Y-90549D01*
X96747D01*
X97355Y-90955D01*
X98330Y-91149D01*
X99305Y-90955D01*
X100132Y-90402D01*
X100685Y-89575D01*
X100879Y-88600D01*
X100685Y-87625D01*
X100132Y-86798D01*
X99305Y-86245D01*
X98330Y-86051D01*
X97355Y-86245D01*
X97017Y-86471D01*
X96027D01*
X95777Y-85971D01*
X96195Y-85345D01*
X96389Y-84370D01*
X96195Y-83394D01*
X95697Y-82649D01*
X95848Y-82149D01*
X96912D01*
X97385Y-82465D01*
X98360Y-82659D01*
X99335Y-82465D01*
X100162Y-81912D01*
X100715Y-81085D01*
X100909Y-80110D01*
X100715Y-79135D01*
X100162Y-78308D01*
X99335Y-77755D01*
X98360Y-77561D01*
X97385Y-77755D01*
X96912Y-78071D01*
X94525D01*
X90819Y-74365D01*
Y-68900D01*
X91319Y-68801D01*
X91413Y-69028D01*
X92268Y-70142D01*
X93381Y-70996D01*
X94678Y-71533D01*
X95570Y-71651D01*
Y-66340D01*
Y-61029D01*
X94678Y-61146D01*
X93381Y-61683D01*
X92268Y-62538D01*
X91413Y-63651D01*
X91319Y-63879D01*
X90819Y-63779D01*
Y-48900D01*
X91319Y-48801D01*
X91413Y-49028D01*
X92268Y-50142D01*
X93381Y-50996D01*
X94678Y-51533D01*
X95570Y-51651D01*
Y-46340D01*
Y-41029D01*
X94678Y-41146D01*
X93381Y-41683D01*
X92268Y-42538D01*
X91413Y-43651D01*
X91319Y-43879D01*
X90819Y-43779D01*
Y-40115D01*
X96965Y-33969D01*
X109094D01*
X109874Y-33814D01*
X110536Y-33372D01*
X120600Y-23307D01*
X121575Y-23436D01*
X122607Y-23300D01*
X123568Y-22901D01*
X124394Y-22268D01*
X125028Y-21442D01*
X125426Y-20481D01*
X125562Y-19449D01*
X125426Y-18417D01*
X125028Y-17455D01*
X124394Y-16630D01*
X123568Y-15996D01*
X122607Y-15598D01*
X121575Y-15462D01*
X120543Y-15598D01*
X119581Y-15996D01*
X118756Y-16630D01*
X118122Y-17455D01*
X117724Y-18417D01*
X117588Y-19449D01*
X117716Y-20424D01*
X108249Y-29891D01*
X104670D01*
X104479Y-29429D01*
X110600Y-23307D01*
X111575Y-23436D01*
X112607Y-23300D01*
X113568Y-22901D01*
X114394Y-22268D01*
X115027Y-21442D01*
X115426Y-20481D01*
X115562Y-19449D01*
X115426Y-18417D01*
X115027Y-17455D01*
X114394Y-16630D01*
X113568Y-15996D01*
X112607Y-15598D01*
X111575Y-15462D01*
X110543Y-15598D01*
X109581Y-15996D01*
X108756Y-16630D01*
X108122Y-17455D01*
X107724Y-18417D01*
X107588Y-19449D01*
X107716Y-20424D01*
X101339Y-26801D01*
X98116D01*
X97925Y-26339D01*
X100915Y-23349D01*
X101575Y-23436D01*
X102607Y-23300D01*
X103568Y-22901D01*
X104394Y-22268D01*
X105027Y-21442D01*
X105426Y-20481D01*
X105562Y-19449D01*
X105426Y-18417D01*
X105027Y-17455D01*
X104394Y-16630D01*
X103568Y-15996D01*
X102607Y-15598D01*
X101575Y-15462D01*
X100543Y-15598D01*
X99581Y-15996D01*
X98756Y-16630D01*
X98122Y-17455D01*
X97724Y-18417D01*
X97588Y-19449D01*
X97724Y-20481D01*
X97809Y-20687D01*
X95990Y-22507D01*
X95527Y-22315D01*
Y-15496D01*
X87622D01*
Y-20518D01*
X77608Y-30532D01*
X77166Y-31193D01*
X77011Y-31974D01*
Y-81841D01*
X76511Y-82048D01*
X67264Y-72801D01*
X66943Y-72027D01*
X66309Y-71201D01*
X65483Y-70567D01*
X64522Y-70169D01*
X63490Y-70033D01*
X62458Y-70169D01*
X61497Y-70567D01*
X60671Y-71201D01*
X60037Y-72027D01*
X59639Y-72988D01*
X59503Y-74020D01*
X59639Y-75052D01*
X60037Y-76013D01*
X60671Y-76839D01*
X61497Y-77473D01*
X62271Y-77794D01*
X64085Y-79607D01*
X63851Y-80081D01*
X63490Y-80033D01*
X62458Y-80169D01*
X61497Y-80567D01*
X60671Y-81201D01*
X60037Y-82027D01*
X59639Y-82988D01*
X59503Y-84020D01*
X59639Y-85052D01*
X60037Y-86013D01*
X60671Y-86839D01*
X61497Y-87473D01*
X62458Y-87871D01*
X63490Y-88007D01*
X64522Y-87871D01*
X65483Y-87473D01*
X66309Y-86839D01*
X66943Y-86013D01*
X67341Y-85052D01*
X67477Y-84020D01*
X67429Y-83659D01*
X67903Y-83425D01*
X70660Y-86182D01*
Y-137428D01*
X70590Y-137960D01*
Y-151586D01*
X70090Y-151611D01*
X70009Y-150788D01*
X69608Y-149468D01*
X69139Y-148590D01*
Y-111490D01*
X69023Y-110314D01*
X68680Y-109183D01*
X68123Y-108141D01*
X67373Y-107227D01*
X67373Y-107227D01*
X50339Y-90193D01*
Y-87188D01*
X50839Y-86968D01*
X51497Y-87473D01*
X52458Y-87871D01*
X53490Y-88007D01*
X54522Y-87871D01*
X55483Y-87473D01*
X56309Y-86839D01*
X56943Y-86013D01*
X57341Y-85052D01*
X57477Y-84020D01*
X57341Y-82988D01*
X56943Y-82027D01*
X56309Y-81201D01*
X55483Y-80567D01*
X54522Y-80169D01*
X53490Y-80033D01*
X52458Y-80169D01*
X51497Y-80567D01*
X50839Y-81072D01*
X50339Y-80852D01*
Y-77973D01*
X57443D01*
Y-70067D01*
X50339D01*
Y-57477D01*
X57713Y-50103D01*
X58463Y-49190D01*
X59020Y-48147D01*
X59363Y-47016D01*
X59479Y-45840D01*
Y-13400D01*
X59948Y-12522D01*
X60349Y-11202D01*
X60484Y-9830D01*
X60349Y-8458D01*
X59948Y-7138D01*
X59298Y-5922D01*
X58424Y-4856D01*
X57358Y-3982D01*
X56142Y-3332D01*
X55345Y-3090D01*
X55420Y-2590D01*
X196336D01*
X196340Y-2600D01*
D02*
G37*
%LPC*%
G36*
X22626Y-7103D02*
Y-10524D01*
X26047D01*
X25977Y-9992D01*
X25579Y-9030D01*
X24945Y-8204D01*
X24119Y-7571D01*
X23158Y-7173D01*
X22626Y-7103D01*
D02*
G37*
G36*
X21626D02*
X21094Y-7173D01*
X20133Y-7571D01*
X19307Y-8204D01*
X18673Y-9030D01*
X18275Y-9992D01*
X18205Y-10524D01*
X21626D01*
Y-7103D01*
D02*
G37*
G36*
X143480Y-5496D02*
X135575D01*
Y-13402D01*
X143480D01*
Y-5496D01*
D02*
G37*
G36*
X169528Y-5462D02*
X168496Y-5598D01*
X167534Y-5996D01*
X166708Y-6630D01*
X166075Y-7455D01*
X165676Y-8417D01*
X165541Y-9449D01*
X165676Y-10481D01*
X166075Y-11442D01*
X166708Y-12268D01*
X167534Y-12901D01*
X168496Y-13300D01*
X169528Y-13436D01*
X170559Y-13300D01*
X171521Y-12901D01*
X172347Y-12268D01*
X172980Y-11442D01*
X173379Y-10481D01*
X173514Y-9449D01*
X173379Y-8417D01*
X172980Y-7455D01*
X172347Y-6630D01*
X171521Y-5996D01*
X170559Y-5598D01*
X169528Y-5462D01*
D02*
G37*
G36*
X159528D02*
X158496Y-5598D01*
X157534Y-5996D01*
X156708Y-6630D01*
X156075Y-7455D01*
X155676Y-8417D01*
X155541Y-9449D01*
X155676Y-10481D01*
X156075Y-11442D01*
X156708Y-12268D01*
X157534Y-12901D01*
X158496Y-13300D01*
X159528Y-13436D01*
X160559Y-13300D01*
X161521Y-12901D01*
X162347Y-12268D01*
X162980Y-11442D01*
X163379Y-10481D01*
X163514Y-9449D01*
X163379Y-8417D01*
X162980Y-7455D01*
X162347Y-6630D01*
X161521Y-5996D01*
X160559Y-5598D01*
X159528Y-5462D01*
D02*
G37*
G36*
X149528D02*
X148496Y-5598D01*
X147534Y-5996D01*
X146708Y-6630D01*
X146075Y-7455D01*
X145677Y-8417D01*
X145541Y-9449D01*
X145677Y-10481D01*
X146075Y-11442D01*
X146708Y-12268D01*
X147534Y-12901D01*
X148496Y-13300D01*
X149528Y-13436D01*
X150559Y-13300D01*
X151521Y-12901D01*
X152347Y-12268D01*
X152980Y-11442D01*
X153379Y-10481D01*
X153514Y-9449D01*
X153379Y-8417D01*
X152980Y-7455D01*
X152347Y-6630D01*
X151521Y-5996D01*
X150559Y-5598D01*
X149528Y-5462D01*
D02*
G37*
G36*
X111575D02*
X110543Y-5598D01*
X109581Y-5996D01*
X108756Y-6630D01*
X108122Y-7455D01*
X107724Y-8417D01*
X107588Y-9449D01*
X107724Y-10481D01*
X108122Y-11442D01*
X108756Y-12268D01*
X109581Y-12901D01*
X110543Y-13300D01*
X111575Y-13436D01*
X112607Y-13300D01*
X113568Y-12901D01*
X114394Y-12268D01*
X115027Y-11442D01*
X115426Y-10481D01*
X115562Y-9449D01*
X115426Y-8417D01*
X115027Y-7455D01*
X114394Y-6630D01*
X113568Y-5996D01*
X112607Y-5598D01*
X111575Y-5462D01*
D02*
G37*
G36*
X101575D02*
X100543Y-5598D01*
X99581Y-5996D01*
X98756Y-6630D01*
X98122Y-7455D01*
X97724Y-8417D01*
X97588Y-9449D01*
X97724Y-10481D01*
X98122Y-11442D01*
X98756Y-12268D01*
X99581Y-12901D01*
X100543Y-13300D01*
X101575Y-13436D01*
X102607Y-13300D01*
X103568Y-12901D01*
X104394Y-12268D01*
X105027Y-11442D01*
X105426Y-10481D01*
X105562Y-9449D01*
X105426Y-8417D01*
X105027Y-7455D01*
X104394Y-6630D01*
X103568Y-5996D01*
X102607Y-5598D01*
X101575Y-5462D01*
D02*
G37*
G36*
X91575D02*
X90543Y-5598D01*
X89581Y-5996D01*
X88756Y-6630D01*
X88122Y-7455D01*
X87724Y-8417D01*
X87588Y-9449D01*
X87724Y-10481D01*
X88122Y-11442D01*
X88756Y-12268D01*
X89581Y-12901D01*
X90543Y-13300D01*
X91575Y-13436D01*
X92607Y-13300D01*
X93568Y-12901D01*
X94394Y-12268D01*
X95028Y-11442D01*
X95426Y-10481D01*
X95562Y-9449D01*
X95426Y-8417D01*
X95028Y-7455D01*
X94394Y-6630D01*
X93568Y-5996D01*
X92607Y-5598D01*
X91575Y-5462D01*
D02*
G37*
G36*
X26047Y-11524D02*
X22626D01*
Y-14945D01*
X23158Y-14875D01*
X24119Y-14476D01*
X24945Y-13843D01*
X25579Y-13017D01*
X25977Y-12055D01*
X26047Y-11524D01*
D02*
G37*
G36*
X21626D02*
X18205D01*
X18275Y-12055D01*
X18673Y-13017D01*
X19307Y-13843D01*
X20133Y-14476D01*
X21094Y-14875D01*
X21626Y-14945D01*
Y-11524D01*
D02*
G37*
G36*
X16079Y-7071D02*
X8173D01*
Y-14976D01*
X16079D01*
Y-7071D01*
D02*
G37*
G36*
X44340Y-18118D02*
Y-19660D01*
X45882D01*
X45818Y-19341D01*
X45354Y-18646D01*
X44659Y-18182D01*
X44340Y-18118D01*
D02*
G37*
G36*
X43340D02*
X43021Y-18182D01*
X42326Y-18646D01*
X41862Y-19341D01*
X41798Y-19660D01*
X43340D01*
Y-18118D01*
D02*
G37*
G36*
X39340D02*
Y-19660D01*
X40882D01*
X40818Y-19341D01*
X40354Y-18646D01*
X39659Y-18182D01*
X39340Y-18118D01*
D02*
G37*
G36*
X38340D02*
X38021Y-18182D01*
X37326Y-18646D01*
X36862Y-19341D01*
X36798Y-19660D01*
X38340D01*
Y-18118D01*
D02*
G37*
G36*
X34340D02*
Y-19660D01*
X35882D01*
X35818Y-19341D01*
X35354Y-18646D01*
X34659Y-18182D01*
X34340Y-18118D01*
D02*
G37*
G36*
X33340D02*
X33021Y-18182D01*
X32326Y-18646D01*
X31862Y-19341D01*
X31798Y-19660D01*
X33340D01*
Y-18118D01*
D02*
G37*
G36*
X29340D02*
Y-19660D01*
X30882D01*
X30818Y-19341D01*
X30354Y-18646D01*
X29659Y-18182D01*
X29340Y-18118D01*
D02*
G37*
G36*
X28340D02*
X28021Y-18182D01*
X27326Y-18646D01*
X26862Y-19341D01*
X26798Y-19660D01*
X28340D01*
Y-18118D01*
D02*
G37*
G36*
X45882Y-20660D02*
X41798D01*
X41862Y-20979D01*
X42326Y-21674D01*
X42611Y-21864D01*
Y-22466D01*
X42416Y-22596D01*
X41952Y-23291D01*
X41888Y-23610D01*
X45972D01*
X45908Y-23291D01*
X45444Y-22596D01*
X45159Y-22406D01*
Y-21804D01*
X45354Y-21674D01*
X45818Y-20979D01*
X45882Y-20660D01*
D02*
G37*
G36*
X40882D02*
X36798D01*
X36862Y-20979D01*
X37326Y-21674D01*
X37611Y-21864D01*
Y-22466D01*
X37416Y-22596D01*
X36952Y-23291D01*
X36888Y-23610D01*
X40972D01*
X40908Y-23291D01*
X40444Y-22596D01*
X40159Y-22406D01*
Y-21804D01*
X40354Y-21674D01*
X40818Y-20979D01*
X40882Y-20660D01*
D02*
G37*
G36*
X35882D02*
X31798D01*
X31862Y-20979D01*
X32326Y-21674D01*
X32611Y-21864D01*
Y-22466D01*
X32416Y-22596D01*
X31952Y-23291D01*
X31888Y-23610D01*
X35972D01*
X35908Y-23291D01*
X35444Y-22596D01*
X35159Y-22406D01*
Y-21804D01*
X35354Y-21674D01*
X35818Y-20979D01*
X35882Y-20660D01*
D02*
G37*
G36*
X30882D02*
X26798D01*
X26862Y-20979D01*
X27326Y-21674D01*
X27611Y-21864D01*
Y-22466D01*
X27416Y-22596D01*
X26952Y-23291D01*
X26888Y-23610D01*
X30972D01*
X30908Y-23291D01*
X30444Y-22596D01*
X30159Y-22406D01*
Y-21804D01*
X30354Y-21674D01*
X30818Y-20979D01*
X30882Y-20660D01*
D02*
G37*
G36*
X189528Y-5462D02*
X188496Y-5598D01*
X187534Y-5996D01*
X186708Y-6630D01*
X186075Y-7455D01*
X185677Y-8417D01*
X185541Y-9449D01*
X185677Y-10481D01*
X186075Y-11442D01*
X186708Y-12268D01*
X187488Y-12866D01*
Y-19888D01*
X182029Y-25348D01*
X181567Y-25156D01*
Y-12866D01*
X182347Y-12268D01*
X182980Y-11442D01*
X183379Y-10481D01*
X183514Y-9449D01*
X183379Y-8417D01*
X182980Y-7455D01*
X182347Y-6630D01*
X181521Y-5996D01*
X180559Y-5598D01*
X179528Y-5462D01*
X178496Y-5598D01*
X177534Y-5996D01*
X176708Y-6630D01*
X176075Y-7455D01*
X175677Y-8417D01*
X175541Y-9449D01*
X175677Y-10481D01*
X176075Y-11442D01*
X176708Y-12268D01*
X177488Y-12866D01*
Y-25038D01*
X121809Y-80717D01*
X121628Y-80838D01*
X121186Y-81500D01*
X121031Y-82280D01*
X121104Y-82648D01*
X120707Y-83044D01*
X120342Y-83008D01*
X119763Y-82622D01*
X119080Y-82486D01*
X118690Y-82563D01*
X118607Y-82514D01*
X118305Y-82130D01*
X118404Y-81630D01*
X118269Y-80947D01*
X117882Y-80368D01*
X117303Y-79981D01*
X116620Y-79846D01*
X115937Y-79981D01*
X115358Y-80368D01*
X115299Y-80458D01*
X113334D01*
X113143Y-79996D01*
X117833Y-75305D01*
X118077Y-75468D01*
X118760Y-75604D01*
X119443Y-75468D01*
X120022Y-75082D01*
X120408Y-74503D01*
X120544Y-73820D01*
X120408Y-73137D01*
X120022Y-72558D01*
X119443Y-72171D01*
X118760Y-72036D01*
X118077Y-72171D01*
X117498Y-72558D01*
X117405Y-72698D01*
X117211Y-72737D01*
X116831Y-72991D01*
X105129Y-84693D01*
X104843Y-84501D01*
X104160Y-84366D01*
X103477Y-84501D01*
X102898Y-84888D01*
X102512Y-85467D01*
X102376Y-86150D01*
X102512Y-86833D01*
X102898Y-87412D01*
X103477Y-87799D01*
X104160Y-87934D01*
X104392Y-87888D01*
X104817Y-88310D01*
Y-89059D01*
X104728Y-89118D01*
X104341Y-89697D01*
X104206Y-90380D01*
X104341Y-91063D01*
X104728Y-91642D01*
X105307Y-92028D01*
X105990Y-92164D01*
X106673Y-92028D01*
X106775Y-91961D01*
X107250Y-92244D01*
X107250Y-92394D01*
X107240Y-110802D01*
X107240Y-111090D01*
X107390Y-111240D01*
X107678Y-111240D01*
X120280D01*
Y-92051D01*
X120249Y-92020D01*
X112207D01*
X111972Y-91520D01*
X112135Y-91322D01*
X113200D01*
X113649Y-91233D01*
X114029Y-90979D01*
X114929Y-90080D01*
X115426Y-90129D01*
X115448Y-90162D01*
X116027Y-90548D01*
X116710Y-90684D01*
X117393Y-90548D01*
X117972Y-90162D01*
X118359Y-89583D01*
X118494Y-88900D01*
X118652Y-88762D01*
X119168Y-88672D01*
X119830Y-89114D01*
X120610Y-89269D01*
X120790D01*
X121570Y-89114D01*
X122232Y-88672D01*
X123165Y-87739D01*
X124560D01*
X125340Y-87584D01*
X126002Y-87142D01*
X190970Y-22174D01*
X190970Y-22174D01*
X191411Y-21513D01*
X191567Y-20732D01*
Y-12866D01*
X192347Y-12268D01*
X192980Y-11442D01*
X193379Y-10481D01*
X193514Y-9449D01*
X193379Y-8417D01*
X192980Y-7455D01*
X192347Y-6630D01*
X191521Y-5996D01*
X190559Y-5598D01*
X189528Y-5462D01*
D02*
G37*
G36*
X45972Y-24610D02*
X44430D01*
Y-26152D01*
X44749Y-26088D01*
X45444Y-25624D01*
X45908Y-24929D01*
X45972Y-24610D01*
D02*
G37*
G36*
X43430D02*
X41888D01*
X41952Y-24929D01*
X42416Y-25624D01*
X43111Y-26088D01*
X43430Y-26152D01*
Y-24610D01*
D02*
G37*
G36*
X40972D02*
X39430D01*
Y-26152D01*
X39749Y-26088D01*
X40444Y-25624D01*
X40908Y-24929D01*
X40972Y-24610D01*
D02*
G37*
G36*
X38430D02*
X36888D01*
X36952Y-24929D01*
X37416Y-25624D01*
X38111Y-26088D01*
X38430Y-26152D01*
Y-24610D01*
D02*
G37*
G36*
X35972D02*
X34430D01*
Y-26152D01*
X34749Y-26088D01*
X35444Y-25624D01*
X35908Y-24929D01*
X35972Y-24610D01*
D02*
G37*
G36*
X33430D02*
X31888D01*
X31952Y-24929D01*
X32416Y-25624D01*
X33111Y-26088D01*
X33430Y-26152D01*
Y-24610D01*
D02*
G37*
G36*
X30972D02*
X29430D01*
Y-26152D01*
X29749Y-26088D01*
X30444Y-25624D01*
X30908Y-24929D01*
X30972Y-24610D01*
D02*
G37*
G36*
X28430D02*
X26888D01*
X26952Y-24929D01*
X27416Y-25624D01*
X28111Y-26088D01*
X28430Y-26152D01*
Y-24610D01*
D02*
G37*
G36*
X70090Y-26668D02*
X69771Y-26732D01*
X69076Y-27196D01*
X68886Y-27481D01*
X68284D01*
X68154Y-27286D01*
X67459Y-26822D01*
X67140Y-26758D01*
Y-28800D01*
Y-30842D01*
X67459Y-30778D01*
X68154Y-30314D01*
X68344Y-30029D01*
X68946D01*
X69076Y-30224D01*
X69771Y-30688D01*
X70090Y-30752D01*
Y-28710D01*
Y-26668D01*
D02*
G37*
G36*
X71090D02*
Y-28210D01*
X72632D01*
X72568Y-27891D01*
X72104Y-27196D01*
X71409Y-26732D01*
X71090Y-26668D01*
D02*
G37*
G36*
X66140Y-26758D02*
X65821Y-26822D01*
X65126Y-27286D01*
X64662Y-27981D01*
X64598Y-28300D01*
X66140D01*
Y-26758D01*
D02*
G37*
G36*
X72632Y-29210D02*
X71090D01*
Y-30752D01*
X71409Y-30688D01*
X72104Y-30224D01*
X72568Y-29529D01*
X72632Y-29210D01*
D02*
G37*
G36*
X66140Y-29300D02*
X64598D01*
X64662Y-29619D01*
X65126Y-30314D01*
X65821Y-30778D01*
X66140Y-30842D01*
Y-29300D01*
D02*
G37*
G36*
X70090Y-31668D02*
X69771Y-31732D01*
X69076Y-32196D01*
X68886Y-32481D01*
X68284D01*
X68154Y-32286D01*
X67459Y-31822D01*
X67140Y-31758D01*
Y-33800D01*
Y-35842D01*
X67459Y-35778D01*
X68154Y-35314D01*
X68344Y-35029D01*
X68946D01*
X69076Y-35224D01*
X69771Y-35688D01*
X70090Y-35752D01*
Y-33710D01*
Y-31668D01*
D02*
G37*
G36*
X71090D02*
Y-33210D01*
X72632D01*
X72568Y-32891D01*
X72104Y-32196D01*
X71409Y-31732D01*
X71090Y-31668D01*
D02*
G37*
G36*
X66140Y-31758D02*
X65821Y-31822D01*
X65126Y-32286D01*
X64662Y-32981D01*
X64598Y-33300D01*
X66140D01*
Y-31758D01*
D02*
G37*
G36*
X33965Y-30270D02*
Y-33790D01*
X37485D01*
X37411Y-33232D01*
X37003Y-32247D01*
X36354Y-31401D01*
X35508Y-30751D01*
X34522Y-30343D01*
X33965Y-30270D01*
D02*
G37*
G36*
X32965D02*
X32407Y-30343D01*
X31422Y-30751D01*
X30575Y-31401D01*
X29926Y-32247D01*
X29518Y-33232D01*
X29444Y-33790D01*
X32965D01*
Y-30270D01*
D02*
G37*
G36*
X121575Y-5462D02*
X120543Y-5598D01*
X119581Y-5996D01*
X118756Y-6630D01*
X118122Y-7455D01*
X117724Y-8417D01*
X117588Y-9449D01*
X117724Y-10481D01*
X118122Y-11442D01*
X118756Y-12268D01*
X119581Y-12901D01*
X120543Y-13300D01*
X121575Y-13436D01*
X122549Y-13307D01*
X139867Y-30625D01*
X139810Y-31060D01*
X139930Y-31974D01*
X140283Y-32825D01*
X140844Y-33556D01*
X141575Y-34117D01*
X142426Y-34470D01*
X143340Y-34590D01*
X144254Y-34470D01*
X145105Y-34117D01*
X145836Y-33556D01*
X146397Y-32825D01*
X146750Y-31974D01*
X146870Y-31060D01*
X146750Y-30146D01*
X146397Y-29295D01*
X145836Y-28564D01*
X145105Y-28003D01*
X144254Y-27650D01*
X143340Y-27530D01*
X142633Y-27623D01*
X125433Y-10424D01*
X125562Y-9449D01*
X125426Y-8417D01*
X125028Y-7455D01*
X124394Y-6630D01*
X123568Y-5996D01*
X122607Y-5598D01*
X121575Y-5462D01*
D02*
G37*
G36*
X72632Y-34210D02*
X71090D01*
Y-35752D01*
X71409Y-35688D01*
X72104Y-35224D01*
X72568Y-34529D01*
X72632Y-34210D01*
D02*
G37*
G36*
X66140Y-34300D02*
X64598D01*
X64662Y-34619D01*
X65126Y-35314D01*
X65821Y-35778D01*
X66140Y-35842D01*
Y-34300D01*
D02*
G37*
G36*
X70090Y-36668D02*
X69771Y-36732D01*
X69076Y-37196D01*
X68886Y-37481D01*
X68284D01*
X68154Y-37286D01*
X67459Y-36822D01*
X67140Y-36758D01*
Y-38800D01*
Y-40842D01*
X67459Y-40778D01*
X68154Y-40314D01*
X68344Y-40029D01*
X68946D01*
X69076Y-40224D01*
X69771Y-40688D01*
X70090Y-40752D01*
Y-38710D01*
Y-36668D01*
D02*
G37*
G36*
X71090D02*
Y-38210D01*
X72632D01*
X72568Y-37891D01*
X72104Y-37196D01*
X71409Y-36732D01*
X71090Y-36668D01*
D02*
G37*
G36*
X66140Y-36758D02*
X65821Y-36822D01*
X65126Y-37286D01*
X64662Y-37981D01*
X64598Y-38300D01*
X66140D01*
Y-36758D01*
D02*
G37*
G36*
X37485Y-34790D02*
X33965D01*
Y-38310D01*
X34522Y-38237D01*
X35508Y-37829D01*
X36354Y-37179D01*
X37003Y-36333D01*
X37411Y-35348D01*
X37485Y-34790D01*
D02*
G37*
G36*
X32965D02*
X29444D01*
X29518Y-35348D01*
X29926Y-36333D01*
X30575Y-37179D01*
X31422Y-37829D01*
X32407Y-38237D01*
X32965Y-38310D01*
Y-34790D01*
D02*
G37*
G36*
X17516Y-30239D02*
X9413D01*
Y-38341D01*
X17516D01*
Y-30239D01*
D02*
G37*
G36*
X72632Y-39210D02*
X71090D01*
Y-40752D01*
X71409Y-40688D01*
X72104Y-40224D01*
X72568Y-39529D01*
X72632Y-39210D01*
D02*
G37*
G36*
X66140Y-39300D02*
X64598D01*
X64662Y-39619D01*
X65126Y-40314D01*
X65821Y-40778D01*
X66140Y-40842D01*
Y-39300D01*
D02*
G37*
G36*
X70090Y-41668D02*
X69771Y-41732D01*
X69076Y-42196D01*
X68886Y-42481D01*
X68284D01*
X68154Y-42286D01*
X67459Y-41822D01*
X67140Y-41758D01*
Y-43800D01*
Y-45842D01*
X67459Y-45778D01*
X68154Y-45314D01*
X68344Y-45029D01*
X68946D01*
X69076Y-45224D01*
X69771Y-45688D01*
X70090Y-45752D01*
Y-43710D01*
Y-41668D01*
D02*
G37*
G36*
X71090D02*
Y-43210D01*
X72632D01*
X72568Y-42891D01*
X72104Y-42196D01*
X71409Y-41732D01*
X71090Y-41668D01*
D02*
G37*
G36*
X66140Y-41758D02*
X65821Y-41822D01*
X65126Y-42286D01*
X64662Y-42981D01*
X64598Y-43300D01*
X66140D01*
Y-41758D01*
D02*
G37*
G36*
X192523Y-36520D02*
X184617D01*
Y-44425D01*
X192523D01*
Y-36520D01*
D02*
G37*
G36*
X72632Y-44210D02*
X71090D01*
Y-45752D01*
X71409Y-45688D01*
X72104Y-45224D01*
X72568Y-44529D01*
X72632Y-44210D01*
D02*
G37*
G36*
X116570Y-41029D02*
Y-45840D01*
X121381D01*
X121263Y-44948D01*
X120726Y-43651D01*
X119872Y-42538D01*
X118758Y-41683D01*
X117461Y-41146D01*
X116570Y-41029D01*
D02*
G37*
G36*
X96570D02*
Y-45840D01*
X101381D01*
X101263Y-44948D01*
X100726Y-43651D01*
X99872Y-42538D01*
X98758Y-41683D01*
X97461Y-41146D01*
X96570Y-41029D01*
D02*
G37*
G36*
X115570D02*
X114678Y-41146D01*
X113381Y-41683D01*
X112268Y-42538D01*
X111413Y-43651D01*
X110876Y-44948D01*
X110759Y-45840D01*
X115570D01*
Y-41029D01*
D02*
G37*
G36*
X66140Y-44300D02*
X64598D01*
X64662Y-44619D01*
X65126Y-45314D01*
X65821Y-45778D01*
X66140Y-45842D01*
Y-44300D01*
D02*
G37*
G36*
X121381Y-46840D02*
X116570D01*
Y-51651D01*
X117461Y-51533D01*
X118758Y-50996D01*
X119872Y-50142D01*
X120726Y-49028D01*
X121263Y-47731D01*
X121381Y-46840D01*
D02*
G37*
G36*
X101381D02*
X96570D01*
Y-51651D01*
X97461Y-51533D01*
X98758Y-50996D01*
X99872Y-50142D01*
X100726Y-49028D01*
X101263Y-47731D01*
X101381Y-46840D01*
D02*
G37*
G36*
X115570D02*
X110759D01*
X110876Y-47731D01*
X111413Y-49028D01*
X112268Y-50142D01*
X113381Y-50996D01*
X114678Y-51533D01*
X115570Y-51651D01*
Y-46840D01*
D02*
G37*
G36*
X188570Y-46486D02*
X187538Y-46621D01*
X186577Y-47020D01*
X185751Y-47653D01*
X185117Y-48479D01*
X184719Y-49441D01*
X184583Y-50472D01*
X184719Y-51504D01*
X185117Y-52466D01*
X185751Y-53292D01*
X186577Y-53925D01*
X187538Y-54324D01*
X188570Y-54459D01*
X189602Y-54324D01*
X190563Y-53925D01*
X191389Y-53292D01*
X192023Y-52466D01*
X192421Y-51504D01*
X192557Y-50472D01*
X192421Y-49441D01*
X192023Y-48479D01*
X191389Y-47653D01*
X190563Y-47020D01*
X189602Y-46621D01*
X188570Y-46486D01*
D02*
G37*
G36*
X106070Y-50963D02*
X104678Y-51147D01*
X103382Y-51684D01*
X102268Y-52538D01*
X101414Y-53652D01*
X100876Y-54948D01*
X100693Y-56340D01*
X100876Y-57732D01*
X101414Y-59028D01*
X102268Y-60142D01*
X103382Y-60996D01*
X104678Y-61533D01*
X106070Y-61717D01*
X107462Y-61533D01*
X108758Y-60996D01*
X109872Y-60142D01*
X110726Y-59028D01*
X111264Y-57732D01*
X111447Y-56340D01*
X111264Y-54948D01*
X110726Y-53652D01*
X109872Y-52538D01*
X108758Y-51684D01*
X107462Y-51147D01*
X106070Y-50963D01*
D02*
G37*
G36*
X188570Y-56486D02*
X187538Y-56621D01*
X186577Y-57020D01*
X185751Y-57653D01*
X185117Y-58479D01*
X184719Y-59441D01*
X184583Y-60472D01*
X184719Y-61504D01*
X185117Y-62466D01*
X185751Y-63292D01*
X186577Y-63925D01*
X187538Y-64324D01*
X188570Y-64459D01*
X189602Y-64324D01*
X190563Y-63925D01*
X191389Y-63292D01*
X192023Y-62466D01*
X192421Y-61504D01*
X192557Y-60472D01*
X192421Y-59441D01*
X192023Y-58479D01*
X191389Y-57653D01*
X190563Y-57020D01*
X189602Y-56621D01*
X188570Y-56486D01*
D02*
G37*
G36*
X96570Y-61029D02*
Y-65840D01*
X101381D01*
X101263Y-64948D01*
X100726Y-63651D01*
X99872Y-62538D01*
X98758Y-61683D01*
X97461Y-61146D01*
X96570Y-61029D01*
D02*
G37*
G36*
X116570D02*
Y-65840D01*
X121381D01*
X121263Y-64948D01*
X120726Y-63651D01*
X119872Y-62538D01*
X118758Y-61683D01*
X117461Y-61146D01*
X116570Y-61029D01*
D02*
G37*
G36*
X115570D02*
X114678Y-61146D01*
X113381Y-61683D01*
X112268Y-62538D01*
X111413Y-63651D01*
X110876Y-64948D01*
X110759Y-65840D01*
X115570D01*
Y-61029D01*
D02*
G37*
G36*
X121381Y-66840D02*
X116570D01*
Y-71651D01*
X117461Y-71533D01*
X118758Y-70996D01*
X119872Y-70142D01*
X120726Y-69028D01*
X121263Y-67731D01*
X121381Y-66840D01*
D02*
G37*
G36*
X101381D02*
X96570D01*
Y-71651D01*
X97461Y-71533D01*
X98758Y-70996D01*
X99872Y-70142D01*
X100726Y-69028D01*
X101263Y-67731D01*
X101381Y-66840D01*
D02*
G37*
G36*
X115570D02*
X110759D01*
X110876Y-67731D01*
X111413Y-69028D01*
X112268Y-70142D01*
X113381Y-70996D01*
X114678Y-71533D01*
X115570Y-71651D01*
Y-66840D01*
D02*
G37*
G36*
X188570Y-66486D02*
X187538Y-66621D01*
X186577Y-67020D01*
X185751Y-67653D01*
X185117Y-68479D01*
X184719Y-69441D01*
X184583Y-70472D01*
X184719Y-71504D01*
X185117Y-72466D01*
X185751Y-73292D01*
X186577Y-73925D01*
X187538Y-74323D01*
X188570Y-74459D01*
X189602Y-74323D01*
X190563Y-73925D01*
X191389Y-73292D01*
X192023Y-72466D01*
X192421Y-71504D01*
X192557Y-70472D01*
X192421Y-69441D01*
X192023Y-68479D01*
X191389Y-67653D01*
X190563Y-67020D01*
X189602Y-66621D01*
X188570Y-66486D01*
D02*
G37*
G36*
X23465Y-30204D02*
X22407Y-30343D01*
X21421Y-30751D01*
X20575Y-31401D01*
X19926Y-32247D01*
X19518Y-33232D01*
X19378Y-34290D01*
X19518Y-35348D01*
X19926Y-36333D01*
X20575Y-37179D01*
X21421Y-37829D01*
X21701Y-37944D01*
Y-78042D01*
X21385Y-78514D01*
X21191Y-79490D01*
X21385Y-80465D01*
X21938Y-81292D01*
X22764Y-81845D01*
X23740Y-82039D01*
X24715Y-81845D01*
X25542Y-81292D01*
X26095Y-80465D01*
X26289Y-79490D01*
X26095Y-78514D01*
X25779Y-78042D01*
Y-37620D01*
X26354Y-37179D01*
X27003Y-36333D01*
X27411Y-35348D01*
X27551Y-34290D01*
X27411Y-33232D01*
X27003Y-32247D01*
X26354Y-31401D01*
X25508Y-30751D01*
X24522Y-30343D01*
X23465Y-30204D01*
D02*
G37*
G36*
X188570Y-76486D02*
X187538Y-76621D01*
X186577Y-77020D01*
X185751Y-77653D01*
X185117Y-78479D01*
X184719Y-79441D01*
X184583Y-80472D01*
X184719Y-81504D01*
X185117Y-82466D01*
X185751Y-83292D01*
X186577Y-83925D01*
X187538Y-84324D01*
X188570Y-84459D01*
X189602Y-84324D01*
X190563Y-83925D01*
X191389Y-83292D01*
X192023Y-82466D01*
X192421Y-81504D01*
X192557Y-80472D01*
X192421Y-79441D01*
X192023Y-78479D01*
X191389Y-77653D01*
X190563Y-77020D01*
X189602Y-76621D01*
X188570Y-76486D01*
D02*
G37*
G36*
X103980Y-93035D02*
Y-94220D01*
X105165D01*
X105129Y-94037D01*
X104742Y-93458D01*
X104163Y-93072D01*
X103980Y-93035D01*
D02*
G37*
G36*
X102980D02*
X102797Y-93072D01*
X102218Y-93458D01*
X101831Y-94037D01*
X101795Y-94220D01*
X102980D01*
Y-93035D01*
D02*
G37*
G36*
X188570Y-86486D02*
X187538Y-86621D01*
X186577Y-87020D01*
X185751Y-87653D01*
X185117Y-88479D01*
X184719Y-89441D01*
X184583Y-90472D01*
X184719Y-91504D01*
X185117Y-92466D01*
X185751Y-93292D01*
X186577Y-93925D01*
X187538Y-94323D01*
X188570Y-94459D01*
X189602Y-94323D01*
X190563Y-93925D01*
X191389Y-93292D01*
X192023Y-92466D01*
X192421Y-91504D01*
X192557Y-90472D01*
X192421Y-89441D01*
X192023Y-88479D01*
X191389Y-87653D01*
X190563Y-87020D01*
X189602Y-86621D01*
X188570Y-86486D01*
D02*
G37*
G36*
X105165Y-95220D02*
X103980D01*
Y-96405D01*
X104163Y-96368D01*
X104742Y-95982D01*
X105129Y-95403D01*
X105165Y-95220D01*
D02*
G37*
G36*
X102980D02*
X101795D01*
X101831Y-95403D01*
X102218Y-95982D01*
X102797Y-96368D01*
X102980Y-96405D01*
Y-95220D01*
D02*
G37*
G36*
X125750Y-97725D02*
Y-98910D01*
X126935D01*
X126899Y-98727D01*
X126512Y-98148D01*
X125933Y-97761D01*
X125750Y-97725D01*
D02*
G37*
G36*
X124750D02*
X124567Y-97761D01*
X123988Y-98148D01*
X123601Y-98727D01*
X123565Y-98910D01*
X124750D01*
Y-97725D01*
D02*
G37*
G36*
X103800Y-98605D02*
Y-99790D01*
X104985D01*
X104948Y-99607D01*
X104562Y-99028D01*
X103983Y-98642D01*
X103800Y-98605D01*
D02*
G37*
G36*
X102800D02*
X102617Y-98642D01*
X102038Y-99028D01*
X101652Y-99607D01*
X101615Y-99790D01*
X102800D01*
Y-98605D01*
D02*
G37*
G36*
X126935Y-99910D02*
X125750D01*
Y-101095D01*
X125933Y-101058D01*
X126512Y-100672D01*
X126899Y-100093D01*
X126935Y-99910D01*
D02*
G37*
G36*
X124750D02*
X123565D01*
X123601Y-100093D01*
X123988Y-100672D01*
X124567Y-101058D01*
X124750Y-101095D01*
Y-99910D01*
D02*
G37*
G36*
X104985Y-100790D02*
X103800D01*
Y-101975D01*
X103983Y-101938D01*
X104562Y-101552D01*
X104948Y-100973D01*
X104985Y-100790D01*
D02*
G37*
G36*
X102800D02*
X101615D01*
X101652Y-100973D01*
X102038Y-101552D01*
X102617Y-101938D01*
X102800Y-101975D01*
Y-100790D01*
D02*
G37*
G36*
X153110Y-102618D02*
Y-104160D01*
X154652D01*
X154588Y-103841D01*
X154124Y-103146D01*
X153429Y-102682D01*
X153110Y-102618D01*
D02*
G37*
G36*
X152110D02*
X151791Y-102682D01*
X151096Y-103146D01*
X150632Y-103841D01*
X150568Y-104160D01*
X152110D01*
Y-102618D01*
D02*
G37*
G36*
X148110D02*
Y-104160D01*
X149652D01*
X149588Y-103841D01*
X149124Y-103146D01*
X148429Y-102682D01*
X148110Y-102618D01*
D02*
G37*
G36*
X147110D02*
X146791Y-102682D01*
X146096Y-103146D01*
X145632Y-103841D01*
X145568Y-104160D01*
X147110D01*
Y-102618D01*
D02*
G37*
G36*
X143110D02*
Y-104160D01*
X144652D01*
X144588Y-103841D01*
X144124Y-103146D01*
X143429Y-102682D01*
X143110Y-102618D01*
D02*
G37*
G36*
X142110D02*
X141791Y-102682D01*
X141096Y-103146D01*
X140632Y-103841D01*
X140568Y-104160D01*
X142110D01*
Y-102618D01*
D02*
G37*
G36*
X138110D02*
Y-104160D01*
X139652D01*
X139588Y-103841D01*
X139124Y-103146D01*
X138429Y-102682D01*
X138110Y-102618D01*
D02*
G37*
G36*
X137110D02*
X136791Y-102682D01*
X136096Y-103146D01*
X135632Y-103841D01*
X135568Y-104160D01*
X137110D01*
Y-102618D01*
D02*
G37*
G36*
X154652Y-105160D02*
X150568D01*
X150632Y-105479D01*
X151096Y-106174D01*
X151381Y-106364D01*
Y-106966D01*
X151186Y-107096D01*
X150722Y-107791D01*
X150658Y-108110D01*
X154742D01*
X154678Y-107791D01*
X154214Y-107096D01*
X153929Y-106906D01*
Y-106304D01*
X154124Y-106174D01*
X154588Y-105479D01*
X154652Y-105160D01*
D02*
G37*
G36*
X149652D02*
X145568D01*
X145632Y-105479D01*
X146096Y-106174D01*
X146381Y-106364D01*
Y-106966D01*
X146186Y-107096D01*
X145722Y-107791D01*
X145658Y-108110D01*
X149742D01*
X149678Y-107791D01*
X149214Y-107096D01*
X148929Y-106906D01*
Y-106304D01*
X149124Y-106174D01*
X149588Y-105479D01*
X149652Y-105160D01*
D02*
G37*
G36*
X144652D02*
X140568D01*
X140632Y-105479D01*
X141096Y-106174D01*
X141381Y-106364D01*
Y-106966D01*
X141186Y-107096D01*
X140722Y-107791D01*
X140658Y-108110D01*
X144742D01*
X144678Y-107791D01*
X144214Y-107096D01*
X143929Y-106906D01*
Y-106304D01*
X144124Y-106174D01*
X144588Y-105479D01*
X144652Y-105160D01*
D02*
G37*
G36*
X139652D02*
X135568D01*
X135632Y-105479D01*
X136096Y-106174D01*
X136381Y-106364D01*
Y-106966D01*
X136186Y-107096D01*
X135722Y-107791D01*
X135658Y-108110D01*
X139742D01*
X139678Y-107791D01*
X139214Y-107096D01*
X138929Y-106906D01*
Y-106304D01*
X139124Y-106174D01*
X139588Y-105479D01*
X139652Y-105160D01*
D02*
G37*
G36*
X154742Y-109110D02*
X153200D01*
Y-110652D01*
X153519Y-110588D01*
X154214Y-110124D01*
X154678Y-109429D01*
X154742Y-109110D01*
D02*
G37*
G36*
X152200D02*
X150658D01*
X150722Y-109429D01*
X151186Y-110124D01*
X151881Y-110588D01*
X152200Y-110652D01*
Y-109110D01*
D02*
G37*
G36*
X149742D02*
X148200D01*
Y-110652D01*
X148519Y-110588D01*
X149214Y-110124D01*
X149678Y-109429D01*
X149742Y-109110D01*
D02*
G37*
G36*
X147200D02*
X145658D01*
X145722Y-109429D01*
X146186Y-110124D01*
X146881Y-110588D01*
X147200Y-110652D01*
Y-109110D01*
D02*
G37*
G36*
X144742D02*
X143200D01*
Y-110652D01*
X143519Y-110588D01*
X144214Y-110124D01*
X144678Y-109429D01*
X144742Y-109110D01*
D02*
G37*
G36*
X142200D02*
X140658D01*
X140722Y-109429D01*
X141186Y-110124D01*
X141881Y-110588D01*
X142200Y-110652D01*
Y-109110D01*
D02*
G37*
G36*
X139742D02*
X138200D01*
Y-110652D01*
X138519Y-110588D01*
X139214Y-110124D01*
X139678Y-109429D01*
X139742Y-109110D01*
D02*
G37*
G36*
X137200D02*
X135658D01*
X135722Y-109429D01*
X136186Y-110124D01*
X136881Y-110588D01*
X137200Y-110652D01*
Y-109110D01*
D02*
G37*
G36*
X104420Y-111005D02*
Y-112190D01*
X105605D01*
X105569Y-112007D01*
X105182Y-111428D01*
X104603Y-111041D01*
X104420Y-111005D01*
D02*
G37*
G36*
X103420D02*
X103237Y-111041D01*
X102658Y-111428D01*
X102271Y-112007D01*
X102235Y-112190D01*
X103420D01*
Y-111005D01*
D02*
G37*
G36*
X105605Y-113190D02*
X104420D01*
Y-114375D01*
X104603Y-114339D01*
X105182Y-113952D01*
X105569Y-113373D01*
X105605Y-113190D01*
D02*
G37*
G36*
X103420D02*
X102235D01*
X102271Y-113373D01*
X102658Y-113952D01*
X103237Y-114339D01*
X103420Y-114375D01*
Y-113190D01*
D02*
G37*
G36*
X113130Y-118295D02*
Y-119480D01*
X114315D01*
X114278Y-119297D01*
X113892Y-118718D01*
X113313Y-118332D01*
X113130Y-118295D01*
D02*
G37*
G36*
X112130D02*
X111947Y-118332D01*
X111368Y-118718D01*
X110982Y-119297D01*
X110945Y-119480D01*
X112130D01*
Y-118295D01*
D02*
G37*
G36*
X114315Y-120480D02*
X113130D01*
Y-121665D01*
X113313Y-121628D01*
X113892Y-121242D01*
X114278Y-120663D01*
X114315Y-120480D01*
D02*
G37*
G36*
X112130D02*
X110945D01*
X110982Y-120663D01*
X111368Y-121242D01*
X111947Y-121628D01*
X112130Y-121665D01*
Y-120480D01*
D02*
G37*
G36*
X33965Y-120783D02*
Y-124303D01*
X37485D01*
X37411Y-123746D01*
X37003Y-122760D01*
X36354Y-121914D01*
X35508Y-121265D01*
X34522Y-120856D01*
X33965Y-120783D01*
D02*
G37*
G36*
X32965D02*
X32407Y-120856D01*
X31422Y-121265D01*
X30575Y-121914D01*
X29926Y-122760D01*
X29518Y-123746D01*
X29444Y-124303D01*
X32965D01*
Y-120783D01*
D02*
G37*
G36*
X119350Y-126650D02*
Y-128090D01*
X120790D01*
X120734Y-127810D01*
X120292Y-127148D01*
X119630Y-126706D01*
X119350Y-126650D01*
D02*
G37*
G36*
X118350D02*
X118070Y-126706D01*
X117408Y-127148D01*
X116966Y-127810D01*
X116910Y-128090D01*
X118350D01*
Y-126650D01*
D02*
G37*
G36*
X37485Y-125303D02*
X33965D01*
Y-128823D01*
X34522Y-128750D01*
X35508Y-128342D01*
X36354Y-127692D01*
X37003Y-126846D01*
X37411Y-125861D01*
X37485Y-125303D01*
D02*
G37*
G36*
X32965D02*
X29444D01*
X29518Y-125861D01*
X29926Y-126846D01*
X30575Y-127692D01*
X31422Y-128342D01*
X32407Y-128750D01*
X32965Y-128823D01*
Y-125303D01*
D02*
G37*
G36*
X17516Y-120752D02*
X9413D01*
Y-128854D01*
X17516D01*
Y-120752D01*
D02*
G37*
G36*
X23465Y-120717D02*
X22407Y-120856D01*
X21421Y-121265D01*
X20575Y-121914D01*
X19926Y-122760D01*
X19518Y-123746D01*
X19378Y-124803D01*
X19518Y-125861D01*
X19926Y-126846D01*
X20575Y-127692D01*
X21421Y-128342D01*
X22407Y-128750D01*
X23465Y-128889D01*
X24522Y-128750D01*
X25508Y-128342D01*
X26354Y-127692D01*
X27003Y-126846D01*
X27411Y-125861D01*
X27551Y-124803D01*
X27411Y-123746D01*
X27003Y-122760D01*
X26354Y-121914D01*
X25508Y-121265D01*
X24522Y-120856D01*
X23465Y-120717D01*
D02*
G37*
G36*
X91020Y-128100D02*
Y-129540D01*
X92460D01*
X92404Y-129260D01*
X91962Y-128598D01*
X91300Y-128156D01*
X91020Y-128100D01*
D02*
G37*
G36*
X90020D02*
X89740Y-128156D01*
X89078Y-128598D01*
X88636Y-129260D01*
X88580Y-129540D01*
X90020D01*
Y-128100D01*
D02*
G37*
G36*
X120790Y-129090D02*
X119350D01*
Y-130530D01*
X119630Y-130474D01*
X120292Y-130032D01*
X120734Y-129370D01*
X120790Y-129090D01*
D02*
G37*
G36*
X118350D02*
X116910D01*
X116966Y-129370D01*
X117408Y-130032D01*
X118070Y-130474D01*
X118350Y-130530D01*
Y-129090D01*
D02*
G37*
G36*
X92460Y-130540D02*
X91020D01*
Y-131980D01*
X91300Y-131924D01*
X91962Y-131482D01*
X92404Y-130820D01*
X92460Y-130540D01*
D02*
G37*
G36*
X90020D02*
X88580D01*
X88636Y-130820D01*
X89078Y-131482D01*
X89740Y-131924D01*
X90020Y-131980D01*
Y-130540D01*
D02*
G37*
G36*
X154610Y-80750D02*
X153696Y-80870D01*
X152845Y-81223D01*
X152114Y-81784D01*
X151553Y-82515D01*
X151200Y-83366D01*
X151080Y-84280D01*
X151200Y-85194D01*
X151553Y-86045D01*
X152114Y-86776D01*
X187460Y-122122D01*
Y-149477D01*
X186960Y-149576D01*
X186727Y-149015D01*
X186166Y-148284D01*
X185435Y-147723D01*
X184584Y-147370D01*
X183670Y-147250D01*
X182952D01*
X177696Y-141994D01*
X176965Y-141433D01*
X176114Y-141080D01*
X175200Y-140960D01*
X168410D01*
X167496Y-141080D01*
X166645Y-141433D01*
X165914Y-141994D01*
X157784Y-150124D01*
X157148Y-150760D01*
X135600D01*
X134686Y-150880D01*
X133835Y-151233D01*
X133104Y-151794D01*
X132543Y-152525D01*
X132190Y-153376D01*
X132070Y-154290D01*
X132190Y-155204D01*
X132543Y-156055D01*
X133104Y-156786D01*
X133835Y-157347D01*
X134686Y-157700D01*
X135600Y-157820D01*
X158610D01*
X159524Y-157700D01*
X160375Y-157347D01*
X161106Y-156786D01*
X162776Y-155116D01*
X169872Y-148020D01*
X173738D01*
X178958Y-153240D01*
X179158Y-153708D01*
X178716Y-154370D01*
X178660Y-154650D01*
X182703D01*
X182982Y-154310D01*
X183670D01*
X184584Y-154190D01*
X185435Y-153837D01*
X186166Y-153276D01*
X186727Y-152545D01*
X186960Y-151984D01*
X187460Y-152083D01*
Y-165528D01*
X183918Y-169070D01*
X167990D01*
X167076Y-169190D01*
X166225Y-169543D01*
X165494Y-170104D01*
X164933Y-170835D01*
X164580Y-171686D01*
X164460Y-172600D01*
X164580Y-173514D01*
X164933Y-174365D01*
X165494Y-175096D01*
X166225Y-175657D01*
X167076Y-176010D01*
X167990Y-176130D01*
X185380D01*
X186294Y-176010D01*
X187145Y-175657D01*
X187876Y-175096D01*
X193486Y-169486D01*
X194047Y-168755D01*
X194400Y-167904D01*
X194520Y-166990D01*
X194520Y-166990D01*
Y-120660D01*
X194400Y-119746D01*
X194047Y-118895D01*
X193486Y-118164D01*
X157106Y-81784D01*
X156375Y-81223D01*
X155524Y-80870D01*
X154610Y-80750D01*
D02*
G37*
G36*
X17700Y-153720D02*
Y-155160D01*
X19140D01*
X19084Y-154880D01*
X18642Y-154218D01*
X17980Y-153776D01*
X17700Y-153720D01*
D02*
G37*
G36*
X16700D02*
X16420Y-153776D01*
X15758Y-154218D01*
X15316Y-154880D01*
X15260Y-155160D01*
X16700D01*
Y-153720D01*
D02*
G37*
G36*
X182540Y-155650D02*
X181100D01*
Y-157090D01*
X181380Y-157034D01*
X182042Y-156592D01*
X182484Y-155930D01*
X182540Y-155650D01*
D02*
G37*
G36*
X180100D02*
X178660D01*
X178716Y-155930D01*
X179158Y-156592D01*
X179820Y-157034D01*
X180100Y-157090D01*
Y-155650D01*
D02*
G37*
G36*
X19140Y-156160D02*
X17700D01*
Y-157600D01*
X17980Y-157544D01*
X18642Y-157102D01*
X19084Y-156440D01*
X19140Y-156160D01*
D02*
G37*
G36*
X16700D02*
X15260D01*
X15316Y-156440D01*
X15758Y-157102D01*
X16420Y-157544D01*
X16700Y-157600D01*
Y-156160D01*
D02*
G37*
G36*
X156340Y-169210D02*
X156060Y-169266D01*
X155398Y-169708D01*
X155175Y-170042D01*
X154520Y-170206D01*
X153740Y-170051D01*
X152960Y-170206D01*
X152298Y-170648D01*
X151856Y-171310D01*
X151701Y-172090D01*
X151856Y-172871D01*
X152298Y-173532D01*
X166982Y-188216D01*
X166875Y-188816D01*
X166236Y-189307D01*
X165602Y-190132D01*
X165204Y-191094D01*
X165068Y-192126D01*
X165204Y-193158D01*
X165602Y-194119D01*
X166236Y-194945D01*
X167062Y-195579D01*
X168023Y-195977D01*
X169055Y-196113D01*
X170087Y-195977D01*
X171049Y-195579D01*
X171874Y-194945D01*
X172508Y-194119D01*
X172906Y-193158D01*
X173042Y-192126D01*
X172906Y-191094D01*
X172508Y-190132D01*
X171874Y-189307D01*
X171049Y-188673D01*
X170913Y-188225D01*
X170939Y-188186D01*
X171094Y-187405D01*
X170939Y-186625D01*
X170497Y-185963D01*
X157949Y-173416D01*
X158013Y-172772D01*
X158282Y-172592D01*
X158724Y-171930D01*
X158780Y-171650D01*
X156840D01*
Y-171150D01*
X156340D01*
Y-169210D01*
D02*
G37*
G36*
X157340D02*
Y-170650D01*
X158780D01*
X158724Y-170370D01*
X158282Y-169708D01*
X157620Y-169266D01*
X157340Y-169210D01*
D02*
G37*
G36*
X33965Y-168980D02*
Y-172500D01*
X37485D01*
X37411Y-171942D01*
X37003Y-170957D01*
X36354Y-170111D01*
X35508Y-169461D01*
X34522Y-169053D01*
X33965Y-168980D01*
D02*
G37*
G36*
X32965D02*
X32407Y-169053D01*
X31422Y-169461D01*
X30575Y-170111D01*
X29926Y-170957D01*
X29518Y-171942D01*
X29444Y-172500D01*
X32965D01*
Y-168980D01*
D02*
G37*
G36*
X90700Y-174170D02*
Y-175610D01*
X92140D01*
X92084Y-175330D01*
X91642Y-174668D01*
X90980Y-174226D01*
X90700Y-174170D01*
D02*
G37*
G36*
X89700D02*
X89420Y-174226D01*
X88758Y-174668D01*
X88316Y-175330D01*
X88260Y-175610D01*
X89700D01*
Y-174170D01*
D02*
G37*
G36*
X119840Y-174250D02*
Y-175690D01*
X121280D01*
X121224Y-175410D01*
X120782Y-174748D01*
X120120Y-174306D01*
X119840Y-174250D01*
D02*
G37*
G36*
X118840D02*
X118560Y-174306D01*
X117898Y-174748D01*
X117456Y-175410D01*
X117400Y-175690D01*
X118840D01*
Y-174250D01*
D02*
G37*
G36*
X37485Y-173500D02*
X33965D01*
Y-177020D01*
X34522Y-176947D01*
X35508Y-176539D01*
X36354Y-175889D01*
X37003Y-175043D01*
X37411Y-174058D01*
X37485Y-173500D01*
D02*
G37*
G36*
X32965D02*
X29444D01*
X29518Y-174058D01*
X29926Y-175043D01*
X30575Y-175889D01*
X31422Y-176539D01*
X32407Y-176947D01*
X32965Y-177020D01*
Y-173500D01*
D02*
G37*
G36*
X17516Y-168949D02*
X9413D01*
Y-177051D01*
X17516D01*
Y-168949D01*
D02*
G37*
G36*
X23465Y-168914D02*
X22407Y-169053D01*
X21421Y-169461D01*
X20575Y-170111D01*
X19926Y-170957D01*
X19518Y-171942D01*
X19378Y-173000D01*
X19518Y-174058D01*
X19926Y-175043D01*
X20575Y-175889D01*
X21421Y-176539D01*
X22407Y-176947D01*
X23465Y-177086D01*
X24522Y-176947D01*
X25508Y-176539D01*
X26354Y-175889D01*
X27003Y-175043D01*
X27411Y-174058D01*
X27551Y-173000D01*
X27411Y-171942D01*
X27003Y-170957D01*
X26354Y-170111D01*
X25508Y-169461D01*
X24522Y-169053D01*
X23465Y-168914D01*
D02*
G37*
G36*
X92140Y-176610D02*
X90700D01*
Y-178050D01*
X90980Y-177994D01*
X91642Y-177552D01*
X92084Y-176890D01*
X92140Y-176610D01*
D02*
G37*
G36*
X89700D02*
X88260D01*
X88316Y-176890D01*
X88758Y-177552D01*
X89420Y-177994D01*
X89700Y-178050D01*
Y-176610D01*
D02*
G37*
G36*
X121280Y-176690D02*
X119840D01*
Y-178130D01*
X120120Y-178074D01*
X120782Y-177632D01*
X121224Y-176970D01*
X121280Y-176690D01*
D02*
G37*
G36*
X118840D02*
X117400D01*
X117456Y-176970D01*
X117898Y-177632D01*
X118560Y-178074D01*
X118840Y-178130D01*
Y-176690D01*
D02*
G37*
G36*
X30920Y-187578D02*
Y-189120D01*
X32462D01*
X32398Y-188801D01*
X31934Y-188106D01*
X31239Y-187642D01*
X30920Y-187578D01*
D02*
G37*
G36*
X29920D02*
X29601Y-187642D01*
X28906Y-188106D01*
X28442Y-188801D01*
X28378Y-189120D01*
X29920D01*
Y-187578D01*
D02*
G37*
G36*
X25920D02*
Y-189120D01*
X27462D01*
X27398Y-188801D01*
X26934Y-188106D01*
X26239Y-187642D01*
X25920Y-187578D01*
D02*
G37*
G36*
X24920D02*
X24601Y-187642D01*
X23906Y-188106D01*
X23442Y-188801D01*
X23378Y-189120D01*
X24920D01*
Y-187578D01*
D02*
G37*
G36*
X20920D02*
Y-189120D01*
X22462D01*
X22398Y-188801D01*
X21934Y-188106D01*
X21239Y-187642D01*
X20920Y-187578D01*
D02*
G37*
G36*
X19920D02*
X19601Y-187642D01*
X18906Y-188106D01*
X18442Y-188801D01*
X18378Y-189120D01*
X19920D01*
Y-187578D01*
D02*
G37*
G36*
X15920D02*
Y-189120D01*
X17462D01*
X17398Y-188801D01*
X16934Y-188106D01*
X16239Y-187642D01*
X15920Y-187578D01*
D02*
G37*
G36*
X14920D02*
X14601Y-187642D01*
X13906Y-188106D01*
X13442Y-188801D01*
X13378Y-189120D01*
X14920D01*
Y-187578D01*
D02*
G37*
G36*
X32462Y-190120D02*
X28378D01*
X28442Y-190439D01*
X28906Y-191134D01*
X29191Y-191324D01*
Y-191926D01*
X28996Y-192056D01*
X28532Y-192751D01*
X28468Y-193070D01*
X32552D01*
X32488Y-192751D01*
X32024Y-192056D01*
X31739Y-191866D01*
Y-191264D01*
X31934Y-191134D01*
X32398Y-190439D01*
X32462Y-190120D01*
D02*
G37*
G36*
X27462D02*
X23378D01*
X23442Y-190439D01*
X23906Y-191134D01*
X24191Y-191324D01*
Y-191926D01*
X23996Y-192056D01*
X23532Y-192751D01*
X23468Y-193070D01*
X27552D01*
X27488Y-192751D01*
X27024Y-192056D01*
X26739Y-191866D01*
Y-191264D01*
X26934Y-191134D01*
X27398Y-190439D01*
X27462Y-190120D01*
D02*
G37*
G36*
X22462D02*
X18378D01*
X18442Y-190439D01*
X18906Y-191134D01*
X19191Y-191324D01*
Y-191926D01*
X18996Y-192056D01*
X18532Y-192751D01*
X18468Y-193070D01*
X22552D01*
X22488Y-192751D01*
X22024Y-192056D01*
X21739Y-191866D01*
Y-191264D01*
X21934Y-191134D01*
X22398Y-190439D01*
X22462Y-190120D01*
D02*
G37*
G36*
X17462D02*
X13378D01*
X13442Y-190439D01*
X13906Y-191134D01*
X14191Y-191324D01*
Y-191926D01*
X13996Y-192056D01*
X13532Y-192751D01*
X13468Y-193070D01*
X17552D01*
X17488Y-192751D01*
X17024Y-192056D01*
X16739Y-191866D01*
Y-191264D01*
X16934Y-191134D01*
X17398Y-190439D01*
X17462Y-190120D01*
D02*
G37*
G36*
X32552Y-194070D02*
X31010D01*
Y-195612D01*
X31329Y-195548D01*
X32024Y-195084D01*
X32488Y-194389D01*
X32552Y-194070D01*
D02*
G37*
G36*
X30010D02*
X28468D01*
X28532Y-194389D01*
X28996Y-195084D01*
X29691Y-195548D01*
X30010Y-195612D01*
Y-194070D01*
D02*
G37*
G36*
X27552D02*
X26010D01*
Y-195612D01*
X26329Y-195548D01*
X27024Y-195084D01*
X27488Y-194389D01*
X27552Y-194070D01*
D02*
G37*
G36*
X25010D02*
X23468D01*
X23532Y-194389D01*
X23996Y-195084D01*
X24691Y-195548D01*
X25010Y-195612D01*
Y-194070D01*
D02*
G37*
G36*
X22552D02*
X21010D01*
Y-195612D01*
X21329Y-195548D01*
X22024Y-195084D01*
X22488Y-194389D01*
X22552Y-194070D01*
D02*
G37*
G36*
X20010D02*
X18468D01*
X18532Y-194389D01*
X18996Y-195084D01*
X19691Y-195548D01*
X20010Y-195612D01*
Y-194070D01*
D02*
G37*
G36*
X17552D02*
X16010D01*
Y-195612D01*
X16329Y-195548D01*
X17024Y-195084D01*
X17488Y-194389D01*
X17552Y-194070D01*
D02*
G37*
G36*
X15010D02*
X13468D01*
X13532Y-194389D01*
X13996Y-195084D01*
X14691Y-195548D01*
X15010Y-195612D01*
Y-194070D01*
D02*
G37*
G36*
X183008Y-188173D02*
X175102D01*
Y-196079D01*
X183008D01*
Y-188173D01*
D02*
G37*
G36*
X159055Y-188139D02*
X158023Y-188275D01*
X157062Y-188673D01*
X156236Y-189307D01*
X155602Y-190132D01*
X155204Y-191094D01*
X155068Y-192126D01*
X155204Y-193158D01*
X155602Y-194119D01*
X156236Y-194945D01*
X157062Y-195579D01*
X158023Y-195977D01*
X159055Y-196113D01*
X160087Y-195977D01*
X161049Y-195579D01*
X161874Y-194945D01*
X162508Y-194119D01*
X162906Y-193158D01*
X163042Y-192126D01*
X162906Y-191094D01*
X162508Y-190132D01*
X161874Y-189307D01*
X161049Y-188673D01*
X160087Y-188275D01*
X159055Y-188139D01*
D02*
G37*
G36*
X149055D02*
X148023Y-188275D01*
X147062Y-188673D01*
X146236Y-189307D01*
X145602Y-190132D01*
X145204Y-191094D01*
X145068Y-192126D01*
X145204Y-193158D01*
X145602Y-194119D01*
X146236Y-194945D01*
X147062Y-195579D01*
X148023Y-195977D01*
X149055Y-196113D01*
X150087Y-195977D01*
X151049Y-195579D01*
X151874Y-194945D01*
X152508Y-194119D01*
X152906Y-193158D01*
X153042Y-192126D01*
X152906Y-191094D01*
X152508Y-190132D01*
X151874Y-189307D01*
X151049Y-188673D01*
X150087Y-188275D01*
X149055Y-188139D01*
D02*
G37*
G36*
X139055D02*
X138023Y-188275D01*
X137062Y-188673D01*
X136236Y-189307D01*
X135602Y-190132D01*
X135204Y-191094D01*
X135068Y-192126D01*
X135204Y-193158D01*
X135602Y-194119D01*
X136236Y-194945D01*
X137062Y-195579D01*
X138023Y-195977D01*
X139055Y-196113D01*
X140087Y-195977D01*
X141049Y-195579D01*
X141874Y-194945D01*
X142508Y-194119D01*
X142906Y-193158D01*
X143042Y-192126D01*
X142906Y-191094D01*
X142508Y-190132D01*
X141874Y-189307D01*
X141049Y-188673D01*
X140087Y-188275D01*
X139055Y-188139D01*
D02*
G37*
G36*
X129055D02*
X128023Y-188275D01*
X127062Y-188673D01*
X126236Y-189307D01*
X125602Y-190132D01*
X125204Y-191094D01*
X125068Y-192126D01*
X125204Y-193158D01*
X125602Y-194119D01*
X126236Y-194945D01*
X127062Y-195579D01*
X128023Y-195977D01*
X129055Y-196113D01*
X130087Y-195977D01*
X131049Y-195579D01*
X131874Y-194945D01*
X132508Y-194119D01*
X132906Y-193158D01*
X133042Y-192126D01*
X132906Y-191094D01*
X132508Y-190132D01*
X131874Y-189307D01*
X131049Y-188673D01*
X130087Y-188275D01*
X129055Y-188139D01*
D02*
G37*
G36*
X119055D02*
X118023Y-188275D01*
X117062Y-188673D01*
X116236Y-189307D01*
X115602Y-190132D01*
X115204Y-191094D01*
X115068Y-192126D01*
X115204Y-193158D01*
X115602Y-194119D01*
X116236Y-194945D01*
X117062Y-195579D01*
X118023Y-195977D01*
X119055Y-196113D01*
X120087Y-195977D01*
X121049Y-195579D01*
X121874Y-194945D01*
X122508Y-194119D01*
X122906Y-193158D01*
X123042Y-192126D01*
X122906Y-191094D01*
X122508Y-190132D01*
X121874Y-189307D01*
X121049Y-188673D01*
X120087Y-188275D01*
X119055Y-188139D01*
D02*
G37*
G36*
X109055D02*
X108023Y-188275D01*
X107062Y-188673D01*
X106236Y-189307D01*
X105602Y-190132D01*
X105204Y-191094D01*
X105068Y-192126D01*
X105204Y-193158D01*
X105602Y-194119D01*
X106236Y-194945D01*
X107062Y-195579D01*
X108023Y-195977D01*
X109055Y-196113D01*
X110087Y-195977D01*
X111049Y-195579D01*
X111874Y-194945D01*
X112508Y-194119D01*
X112906Y-193158D01*
X113042Y-192126D01*
X112906Y-191094D01*
X112508Y-190132D01*
X111874Y-189307D01*
X111049Y-188673D01*
X110087Y-188275D01*
X109055Y-188139D01*
D02*
G37*
G36*
X99055D02*
X98023Y-188275D01*
X97062Y-188673D01*
X96236Y-189307D01*
X95602Y-190132D01*
X95204Y-191094D01*
X95068Y-192126D01*
X95204Y-193158D01*
X95602Y-194119D01*
X96236Y-194945D01*
X97062Y-195579D01*
X98023Y-195977D01*
X99055Y-196113D01*
X100087Y-195977D01*
X101049Y-195579D01*
X101874Y-194945D01*
X102508Y-194119D01*
X102906Y-193158D01*
X103042Y-192126D01*
X102906Y-191094D01*
X102508Y-190132D01*
X101874Y-189307D01*
X101049Y-188673D01*
X100087Y-188275D01*
X99055Y-188139D01*
D02*
G37*
G36*
X89055D02*
X88023Y-188275D01*
X87062Y-188673D01*
X86236Y-189307D01*
X85602Y-190132D01*
X85204Y-191094D01*
X85068Y-192126D01*
X85204Y-193158D01*
X85602Y-194119D01*
X86236Y-194945D01*
X87062Y-195579D01*
X88023Y-195977D01*
X89055Y-196113D01*
X90087Y-195977D01*
X91049Y-195579D01*
X91874Y-194945D01*
X92508Y-194119D01*
X92906Y-193158D01*
X93042Y-192126D01*
X92906Y-191094D01*
X92508Y-190132D01*
X91874Y-189307D01*
X91049Y-188673D01*
X90087Y-188275D01*
X89055Y-188139D01*
D02*
G37*
G36*
X79055D02*
X78023Y-188275D01*
X77062Y-188673D01*
X76236Y-189307D01*
X75602Y-190132D01*
X75204Y-191094D01*
X75068Y-192126D01*
X75204Y-193158D01*
X75602Y-194119D01*
X76236Y-194945D01*
X77062Y-195579D01*
X78023Y-195977D01*
X79055Y-196113D01*
X80087Y-195977D01*
X81049Y-195579D01*
X81874Y-194945D01*
X82508Y-194119D01*
X82906Y-193158D01*
X83042Y-192126D01*
X82906Y-191094D01*
X82508Y-190132D01*
X81874Y-189307D01*
X81049Y-188673D01*
X80087Y-188275D01*
X79055Y-188139D01*
D02*
G37*
G36*
X69055D02*
X68023Y-188275D01*
X67062Y-188673D01*
X66236Y-189307D01*
X65602Y-190132D01*
X65204Y-191094D01*
X65068Y-192126D01*
X65204Y-193158D01*
X65602Y-194119D01*
X66236Y-194945D01*
X67062Y-195579D01*
X68023Y-195977D01*
X69055Y-196113D01*
X70087Y-195977D01*
X71049Y-195579D01*
X71874Y-194945D01*
X72508Y-194119D01*
X72906Y-193158D01*
X73042Y-192126D01*
X72906Y-191094D01*
X72508Y-190132D01*
X71874Y-189307D01*
X71049Y-188673D01*
X70087Y-188275D01*
X69055Y-188139D01*
D02*
G37*
G36*
X59055D02*
X58023Y-188275D01*
X57062Y-188673D01*
X56236Y-189307D01*
X55602Y-190132D01*
X55204Y-191094D01*
X55068Y-192126D01*
X55204Y-193158D01*
X55602Y-194119D01*
X56236Y-194945D01*
X57062Y-195579D01*
X58023Y-195977D01*
X59055Y-196113D01*
X60087Y-195977D01*
X61049Y-195579D01*
X61874Y-194945D01*
X62508Y-194119D01*
X62906Y-193158D01*
X63042Y-192126D01*
X62906Y-191094D01*
X62508Y-190132D01*
X61874Y-189307D01*
X61049Y-188673D01*
X60087Y-188275D01*
X59055Y-188139D01*
D02*
G37*
G36*
X49055D02*
X48023Y-188275D01*
X47062Y-188673D01*
X46236Y-189307D01*
X45602Y-190132D01*
X45204Y-191094D01*
X45068Y-192126D01*
X45204Y-193158D01*
X45602Y-194119D01*
X46236Y-194945D01*
X47062Y-195579D01*
X48023Y-195977D01*
X49055Y-196113D01*
X50087Y-195977D01*
X51049Y-195579D01*
X51874Y-194945D01*
X52508Y-194119D01*
X52906Y-193158D01*
X53042Y-192126D01*
X52906Y-191094D01*
X52508Y-190132D01*
X51874Y-189307D01*
X51049Y-188673D01*
X50087Y-188275D01*
X49055Y-188139D01*
D02*
G37*
%LPD*%
G36*
X115358Y-82892D02*
X115937Y-83279D01*
X116620Y-83414D01*
X117010Y-83337D01*
X117093Y-83386D01*
X117395Y-83770D01*
X117296Y-84270D01*
X117317Y-84375D01*
X112714Y-88977D01*
X111921D01*
X111862Y-88888D01*
X111283Y-88502D01*
X110600Y-88366D01*
X109917Y-88502D01*
X109338Y-88888D01*
X108951Y-89467D01*
X108816Y-90150D01*
X108951Y-90833D01*
X109338Y-91412D01*
X109500Y-91520D01*
X109349Y-92020D01*
X107659D01*
X107554Y-92020D01*
X107485Y-91933D01*
X107423Y-91765D01*
X107333Y-91520D01*
X107639Y-91063D01*
X107774Y-90380D01*
X107639Y-89697D01*
X107252Y-89118D01*
X107336Y-88622D01*
X113156Y-82802D01*
X115299D01*
X115358Y-82892D01*
D02*
G37*
D13*
X169055Y-192126D02*
Y-187405D01*
D50*
X93700Y-92630D02*
D03*
X93840Y-84370D02*
D03*
X98360Y-80110D02*
D03*
X98330Y-88600D02*
D03*
X23740Y-79490D02*
D03*
D55*
X120610Y-87230D02*
X120790D01*
X122320Y-85700D01*
X23740Y-79490D02*
Y-34565D01*
X23465Y-34290D02*
X23740Y-34565D01*
X84080Y-92630D02*
X93700D01*
X84070Y-92620D02*
X84080Y-92630D01*
X84010Y-92680D02*
X84070Y-92620D01*
X79050Y-87720D02*
X84010Y-92680D01*
X92060Y-84370D02*
X93840D01*
X85630Y-77940D02*
X92060Y-84370D01*
X189528Y-20732D02*
Y-9449D01*
X124560Y-85700D02*
X189528Y-20732D01*
X122320Y-85700D02*
X124560D01*
X123130Y-82280D02*
X179528Y-25882D01*
X123070Y-82280D02*
X123130D01*
X179528Y-25882D02*
Y-9449D01*
X109094Y-31930D02*
X121575Y-19449D01*
X96120Y-31930D02*
X109094D01*
X88780Y-39270D02*
X96120Y-31930D01*
X88780Y-75210D02*
Y-39270D01*
Y-75210D02*
X93680Y-80110D01*
X98360D01*
X102184Y-28840D02*
X111575Y-19449D01*
X93870Y-28840D02*
X102184D01*
X93870Y-28900D02*
Y-28840D01*
X85630Y-37140D02*
X93870Y-28900D01*
X85630Y-77940D02*
Y-37140D01*
X101575Y-19805D02*
Y-19449D01*
X95400Y-25980D02*
X101575Y-19805D01*
X91550Y-25980D02*
X95400D01*
X82420Y-35110D02*
X91550Y-25980D01*
X82420Y-86220D02*
Y-35110D01*
X84710Y-88510D02*
X98240D01*
X82420Y-86220D02*
X84710Y-88510D01*
X79050Y-31974D02*
X91575Y-19449D01*
X79050Y-87720D02*
Y-31974D01*
X98240Y-88510D02*
X98330Y-88600D01*
X143186Y-31060D02*
X143340D01*
X121575Y-9449D02*
X143186Y-31060D01*
X153740Y-172090D02*
X169055Y-187405D01*
D56*
X113200Y-90150D02*
X119080Y-84270D01*
X110600Y-90150D02*
X113200D01*
X105990Y-88310D02*
X112670Y-81630D01*
X105990Y-90380D02*
Y-88310D01*
X104160Y-86150D02*
X105330D01*
X117660Y-73820D01*
X116710Y-88700D02*
X123070Y-82340D01*
X116710Y-88900D02*
Y-88700D01*
X123070Y-82340D02*
Y-82280D01*
X117660Y-73820D02*
X118760D01*
X112670Y-81630D02*
X116620D01*
D57*
X167990Y-172600D02*
X185380D01*
X185530Y-172450D01*
X175200Y-144490D02*
X181490Y-150780D01*
X183670D01*
X168410Y-144490D02*
X175200D01*
X160280Y-152620D02*
X168410Y-144490D01*
X154610Y-84280D02*
X190990Y-120660D01*
Y-166990D02*
Y-120660D01*
X185530Y-172450D02*
X190990Y-166990D01*
X74120Y-164140D02*
X74550Y-164570D01*
X74120Y-164140D02*
Y-137960D01*
X158610Y-154290D02*
X160280Y-152620D01*
X135600Y-154290D02*
X158610D01*
X74120Y-137960D02*
X74190Y-137890D01*
Y-84720D01*
X63490Y-74020D02*
X74190Y-84720D01*
D58*
X53450Y-45840D02*
Y-9830D01*
X44310Y-54980D02*
X53450Y-45840D01*
X44310Y-92690D02*
Y-54980D01*
X63110Y-152160D02*
Y-111490D01*
X44310Y-92690D02*
X63110Y-111490D01*
D59*
X179055Y-192126D02*
D03*
X139528Y-9449D02*
D03*
X91575Y-19449D02*
D03*
X12126Y-11024D02*
D03*
D60*
X169055Y-192126D02*
D03*
X159055D02*
D03*
X149055D02*
D03*
X139055D02*
D03*
X129055D02*
D03*
X119055D02*
D03*
X109055D02*
D03*
X99055D02*
D03*
X89055D02*
D03*
X79055D02*
D03*
X69055D02*
D03*
X59055D02*
D03*
X49055D02*
D03*
X189528Y-9449D02*
D03*
X179528D02*
D03*
X169528D02*
D03*
X159528D02*
D03*
X149528D02*
D03*
X91575D02*
D03*
X101575Y-19449D02*
D03*
Y-9449D02*
D03*
X111575Y-19449D02*
D03*
Y-9449D02*
D03*
X121575Y-19449D02*
D03*
Y-9449D02*
D03*
X63490Y-84020D02*
D03*
X53490D02*
D03*
X63490Y-74020D02*
D03*
X188570Y-50472D02*
D03*
Y-60472D02*
D03*
Y-70472D02*
D03*
Y-80472D02*
D03*
Y-90472D02*
D03*
X22126Y-11024D02*
D03*
D61*
X96070Y-46340D02*
D03*
X116070D02*
D03*
Y-66340D02*
D03*
X96070D02*
D03*
X106070Y-56340D02*
D03*
D62*
X53490Y-74020D02*
D03*
X188570Y-40472D02*
D03*
D63*
X33465Y-124803D02*
D03*
X23465D02*
D03*
X33465Y-173000D02*
D03*
X23465D02*
D03*
X33465Y-34290D02*
D03*
X23465D02*
D03*
D64*
X13465Y-124803D02*
D03*
Y-173000D02*
D03*
Y-34290D02*
D03*
D65*
X119340Y-176190D02*
D03*
X180600Y-155150D02*
D03*
X118850Y-128590D02*
D03*
X17200Y-155660D02*
D03*
X90520Y-130040D02*
D03*
X90200Y-176110D02*
D03*
X156840Y-171150D02*
D03*
X153740Y-172090D02*
D03*
D66*
X167990Y-172600D02*
D03*
X183670Y-150780D02*
D03*
X143340Y-31060D02*
D03*
X154610Y-84280D02*
D03*
X185530Y-172450D02*
D03*
X74550Y-164570D02*
D03*
X135600Y-154290D02*
D03*
X160280Y-152620D02*
D03*
D67*
X110600Y-90150D02*
D03*
X105990Y-90380D02*
D03*
X104160Y-86150D02*
D03*
X116710Y-88900D02*
D03*
X119080Y-84270D02*
D03*
X120610Y-87230D02*
D03*
X103480Y-94720D02*
D03*
X103920Y-112690D02*
D03*
X103300Y-100290D02*
D03*
X125250Y-99410D02*
D03*
X112630Y-119980D02*
D03*
X118760Y-73820D02*
D03*
X116620Y-81630D02*
D03*
D68*
X30420Y-189620D02*
D03*
X25420D02*
D03*
X20420D02*
D03*
X15420D02*
D03*
X15510Y-193570D02*
D03*
X20510D02*
D03*
X25510D02*
D03*
X30510D02*
D03*
X66640Y-28800D02*
D03*
Y-33800D02*
D03*
Y-38800D02*
D03*
Y-43800D02*
D03*
X70590Y-43710D02*
D03*
Y-38710D02*
D03*
Y-33710D02*
D03*
Y-28710D02*
D03*
X43840Y-20160D02*
D03*
X38840D02*
D03*
X33840D02*
D03*
X28840D02*
D03*
X28930Y-24110D02*
D03*
X33930D02*
D03*
X38930D02*
D03*
X43930D02*
D03*
X152700Y-108610D02*
D03*
X147700D02*
D03*
X142700D02*
D03*
X137700D02*
D03*
X137610Y-104660D02*
D03*
X142610D02*
D03*
X147610D02*
D03*
X152610D02*
D03*
D69*
X53450Y-9830D02*
D03*
X63110Y-152160D02*
D03*
M02*
