G04*
G04 #@! TF.GenerationSoftware,Altium Limited,Altium Designer,18.0.11 (651)*
G04*
G04 Layer_Color=16711935*
%FSLAX25Y25*%
%MOIN*%
G70*
G01*
G75*
%ADD10C,0.00000*%
%ADD12C,0.00600*%
%ADD17C,0.00500*%
%ADD70C,0.09449*%
D10*
X27147Y-149612D02*
G03*
X29546Y-149612I1200J0D01*
G01*
D12*
X24947Y-161412D02*
X31747D01*
Y-160212D01*
Y-158212D01*
Y-152812D01*
X29546Y-149612D02*
X31747D01*
X27147D02*
X29546D01*
X24947D02*
X27147D01*
X24947Y-150812D02*
Y-149612D01*
Y-152812D02*
Y-150812D01*
Y-154512D02*
Y-152812D01*
Y-156512D02*
Y-154512D01*
Y-158212D02*
Y-156512D01*
X22446Y-150812D02*
X24947D01*
X22446Y-152812D02*
Y-150812D01*
Y-152812D02*
X24947D01*
X22446Y-154512D02*
X24947D01*
X22446Y-156512D02*
Y-154512D01*
Y-156512D02*
X24947D01*
Y-161412D02*
Y-160212D01*
Y-158212D01*
X22446D02*
X24947D01*
X22446Y-160212D02*
Y-158212D01*
Y-160212D02*
X24947D01*
X31747D02*
X34247D01*
Y-158212D01*
X31747D02*
X34247D01*
X31747Y-150812D02*
Y-149612D01*
Y-152812D02*
Y-150812D01*
Y-152812D02*
X34247D01*
Y-150812D01*
X31747D02*
X34247D01*
D17*
X25375Y-70324D02*
Y-71990D01*
X25708Y-72324D01*
X26375D01*
X26708Y-71990D01*
Y-70324D01*
X27374Y-70657D02*
X27708Y-70324D01*
X28374D01*
X28707Y-70657D01*
Y-70991D01*
X28374Y-71324D01*
X28041D01*
X28374D01*
X28707Y-71657D01*
Y-71990D01*
X28374Y-72324D01*
X27708D01*
X27374Y-71990D01*
X25568Y-100796D02*
Y-102462D01*
X25901Y-102796D01*
X26568D01*
X26901Y-102462D01*
Y-100796D01*
X28900D02*
X27567D01*
Y-101796D01*
X28234Y-101463D01*
X28567D01*
X28900Y-101796D01*
Y-102462D01*
X28567Y-102796D01*
X27901D01*
X27567Y-102462D01*
D70*
X192320Y-192770D02*
D03*
X191980Y-29960D02*
D03*
X8960Y-192020D02*
D03*
X38010Y-9830D02*
D03*
M02*
