M48
;Layer_Color=9474304
;FILE_FORMAT=2:5
INCH,TZ
;TYPE=PLATED
T1F00S00C0.00300
T2F00S00C0.00500
T3F00S00C0.01000
T4F00S00C0.02000
T5F00S00C0.02800
T6F00S00C0.03543
T7F00S00C0.04016
T8F00S00C0.06496
T9F00S00C0.10000
%
T01
X103300Y-100290
T02
X103920Y-112690
X112630Y-119980
X110600Y-90150
X105990Y-90380
X103480Y-94720
X116710Y-88900
X125250Y-99410
X120610Y-87230
X119080Y-84270
X116620Y-81630
X118760Y-73820
X104160Y-86150
T03
X90200Y-176110
X120460Y-177630
X153740Y-172090
X156840Y-171150
X180600Y-155150
X152700Y-108610
X152610Y-104660
X147610
X147700Y-108610
X142700
X142610Y-104660
X137610
X137700Y-108610
X118850Y-128590
X90520Y-130040
X17200Y-155660
X15420Y-189620
X15510Y-193570
X20510
X20420Y-189620
X25420
X25510Y-193570
X30510
X30420Y-189620
X28930Y-24110
X28840Y-20160
X33840
X33930Y-24110
X38930
X38840Y-20160
X43840
X43930Y-24110
X66640Y-28800
X70590Y-28710
Y-33710
X66640Y-33800
Y-38800
X70590Y-38710
Y-43710
X66640Y-43800
T04
X93700Y-92630
X98330Y-88600
X23740Y-79490
X93840Y-84370
X98360Y-80110
T05
X74550Y-164570
X135600Y-154290
X160280Y-152620
X183670Y-150780
X185530Y-172450
X169670Y-180310
X154610Y-84280
X143340Y-31060
T06
X49055Y-192126
X59055
X69055
X79055
X89055
X99055
X109055
X119055
X129055
X139055
X149055
X159055
X169055
X179055
X189370Y-90472
X22126Y-11024
X12126
X91575Y-9449
Y-19449
X101575
Y-9449
X111575
Y-19449
X121575
Y-9449
X139528
X149528
X159528
X169528
X179528
X189528
X189370Y-40472
Y-50472
Y-60472
Y-70472
Y-80472
X63490Y-84020
X53490
Y-74020
X63490
T07
X13465Y-173000
X23465
X33465
Y-124803
X23465
X13465
Y-34290
X23465
X33465
T08
X96070Y-66340
Y-46340
X116070
Y-66340
X106070Y-56340
T09
X63110Y-152160
X53450Y-9830
M30
