G04*
G04 #@! TF.GenerationSoftware,Altium Limited,Altium Designer,18.0.11 (651)*
G04*
G04 Layer_Color=2752767*
%FSLAX25Y25*%
%MOIN*%
G70*
G01*
G75*
%ADD73C,0.00200*%
%ADD74C,0.00267*%
D73*
X178255Y-192926D02*
Y-191326D01*
X179855D01*
Y-192926D01*
X178255D01*
X168255D02*
Y-191326D01*
X169855D01*
Y-192926D01*
X168255D01*
X158255D02*
Y-191326D01*
X159855D01*
Y-192926D01*
X158255D01*
X148255D02*
Y-191326D01*
X149855D01*
Y-192926D01*
X148255D01*
X138255D02*
Y-191326D01*
X139855D01*
Y-192926D01*
X138255D01*
X128255D02*
Y-191326D01*
X129855D01*
Y-192926D01*
X128255D01*
X118255D02*
Y-191326D01*
X119855D01*
Y-192926D01*
X118255D01*
X108255D02*
Y-191326D01*
X109855D01*
Y-192926D01*
X108255D01*
X98255D02*
Y-191326D01*
X99855D01*
Y-192926D01*
X98255D01*
X88255D02*
Y-191326D01*
X89855D01*
Y-192926D01*
X88255D01*
X78255D02*
Y-191326D01*
X79855D01*
Y-192926D01*
X78255D01*
X68255D02*
Y-191326D01*
X69855D01*
Y-192926D01*
X68255D01*
X58255D02*
Y-191326D01*
X59855D01*
Y-192926D01*
X58255D01*
X48255D02*
Y-191326D01*
X49855D01*
Y-192926D01*
X48255D01*
X188728Y-10249D02*
Y-8649D01*
X190328D01*
Y-10249D01*
X188728D01*
X178728D02*
Y-8649D01*
X180328D01*
Y-10249D01*
X178728D01*
X168728D02*
Y-8649D01*
X170328D01*
Y-10249D01*
X168728D01*
X158728D02*
Y-8649D01*
X160328D01*
Y-10249D01*
X158728D01*
X148728D02*
Y-8649D01*
X150328D01*
Y-10249D01*
X148728D01*
X138728D02*
Y-8649D01*
X140328D01*
Y-10249D01*
X138728D01*
X90775Y-20249D02*
Y-18649D01*
X92375D01*
Y-20249D01*
X90775D01*
Y-10249D02*
Y-8649D01*
X92375D01*
Y-10249D01*
X90775D01*
X100775Y-20249D02*
Y-18649D01*
X102375D01*
Y-20249D01*
X100775D01*
Y-10249D02*
Y-8649D01*
X102375D01*
Y-10249D01*
X100775D01*
X110775Y-20249D02*
Y-18649D01*
X112375D01*
Y-20249D01*
X110775D01*
Y-10249D02*
Y-8649D01*
X112375D01*
Y-10249D01*
X110775D01*
X120775Y-20249D02*
Y-18649D01*
X122375D01*
Y-20249D01*
X120775D01*
Y-10249D02*
Y-8649D01*
X122375D01*
Y-10249D01*
X120775D01*
X62690Y-84820D02*
Y-83220D01*
X64290D01*
Y-84820D01*
X62690D01*
X52690D02*
Y-83220D01*
X54290D01*
Y-84820D01*
X52690D01*
X62690Y-74820D02*
Y-73220D01*
X64290D01*
Y-74820D01*
X62690D01*
X52690D02*
Y-73220D01*
X54290D01*
Y-74820D01*
X52690D01*
X187940Y-46972D02*
Y-45372D01*
X189540D01*
Y-46972D01*
X187940D01*
Y-56972D02*
Y-55372D01*
X189540D01*
Y-56972D01*
X187940D01*
Y-66972D02*
Y-65372D01*
X189540D01*
Y-66972D01*
X187940D01*
Y-76972D02*
Y-75372D01*
X189540D01*
Y-76972D01*
X187940D01*
Y-86972D02*
Y-85372D01*
X189540D01*
Y-86972D01*
X187940D01*
Y-96972D02*
Y-95372D01*
X189540D01*
Y-96972D01*
X187940D01*
X33465Y-125603D02*
X32665Y-124003D01*
X34265D01*
X33465Y-125603D01*
X23465D02*
X22665Y-124003D01*
X24265D01*
X23465Y-125603D01*
X13465D02*
X12665Y-124003D01*
X14265D01*
X13465Y-125603D01*
X33465Y-173800D02*
X32665Y-172200D01*
X34265D01*
X33465Y-173800D01*
X23465D02*
X22665Y-172200D01*
X24265D01*
X23465Y-173800D01*
X13465D02*
X12665Y-172200D01*
X14265D01*
X13465Y-173800D01*
X33465Y-35090D02*
X32665Y-33490D01*
X34265D01*
X33465Y-35090D01*
X23465D02*
X22665Y-33490D01*
X24265D01*
X23465Y-35090D01*
X13465D02*
X12665Y-33490D01*
X14265D01*
X13465Y-35090D01*
X11326Y-11824D02*
Y-10224D01*
X12926D01*
Y-11824D01*
X11326D01*
X21326D02*
Y-10224D01*
X22926D01*
Y-11824D01*
X21326D01*
X9370Y-192220D02*
X9770Y-191820D01*
X10170D01*
X9770Y-191420D01*
X10170Y-191020D01*
X9770D01*
X9370Y-190620D01*
X8970Y-191020D01*
X8570D01*
X8970Y-191420D01*
X8570Y-191820D01*
X8970D01*
X9370Y-192220D01*
X191480Y-191550D02*
X191880Y-191150D01*
X192280D01*
X191880Y-190750D01*
X192280Y-190350D01*
X191880D01*
X191480Y-189950D01*
X191080Y-190350D01*
X190680D01*
X191080Y-190750D01*
X190680Y-191150D01*
X191080D01*
X191480Y-191550D01*
X191880Y-31560D02*
X192280Y-31160D01*
X192680D01*
X192280Y-30760D01*
X192680Y-30360D01*
X192280D01*
X191880Y-29960D01*
X191480Y-30360D01*
X191080D01*
X191480Y-30760D01*
X191080Y-31160D01*
X191480D01*
X191880Y-31560D01*
X37610Y-10380D02*
X38010Y-9980D01*
X38410D01*
X38010Y-9580D01*
X38410Y-9180D01*
X38010D01*
X37610Y-8780D01*
X37210Y-9180D01*
X36810D01*
X37210Y-9580D01*
X36810Y-9980D01*
X37210D01*
X37610Y-10380D01*
X133200Y-36840D02*
X133600Y-36040D01*
X133200Y-35240D01*
X134000Y-35640D01*
X134800Y-35240D01*
X134400Y-36040D01*
X134800Y-36840D01*
X134000Y-36440D01*
X133200Y-36840D01*
X118940Y-176590D02*
Y-176990D01*
X119740D01*
Y-176590D01*
X120140D01*
Y-175790D01*
X119740D01*
Y-175390D01*
X118940D01*
Y-175790D01*
X118540D01*
Y-176590D01*
X118940D01*
X167190Y-173400D02*
X167590Y-172600D01*
X167190Y-171800D01*
X167990Y-172200D01*
X168790Y-171800D01*
X168390Y-172600D01*
X168790Y-173400D01*
X167990Y-173000D01*
X167190Y-173400D01*
X109800Y-90950D02*
X110200D01*
X110600Y-90550D01*
X111000Y-90950D01*
X111400D01*
Y-90550D01*
X111000Y-90150D01*
X111400Y-89750D01*
Y-89350D01*
X111000D01*
X110600Y-89750D01*
X110200Y-89350D01*
X109800D01*
Y-89750D01*
X110200Y-90150D01*
X109800Y-90550D01*
Y-90950D01*
X105190Y-91180D02*
X105590D01*
X105990Y-90780D01*
X106390Y-91180D01*
X106790D01*
Y-90780D01*
X106390Y-90380D01*
X106790Y-89980D01*
Y-89580D01*
X106390D01*
X105990Y-89980D01*
X105590Y-89580D01*
X105190D01*
Y-89980D01*
X105590Y-90380D01*
X105190Y-90780D01*
Y-91180D01*
X103360Y-86950D02*
X103760D01*
X104160Y-86550D01*
X104560Y-86950D01*
X104960D01*
Y-86550D01*
X104560Y-86150D01*
X104960Y-85750D01*
Y-85350D01*
X104560D01*
X104160Y-85750D01*
X103760Y-85350D01*
X103360D01*
Y-85750D01*
X103760Y-86150D01*
X103360Y-86550D01*
Y-86950D01*
X115910Y-89700D02*
X116310D01*
X116710Y-89300D01*
X117110Y-89700D01*
X117510D01*
Y-89300D01*
X117110Y-88900D01*
X117510Y-88500D01*
Y-88100D01*
X117110D01*
X116710Y-88500D01*
X116310Y-88100D01*
X115910D01*
Y-88500D01*
X116310Y-88900D01*
X115910Y-89300D01*
Y-89700D01*
X118280Y-85070D02*
X118680D01*
X119080Y-84670D01*
X119480Y-85070D01*
X119880D01*
Y-84670D01*
X119480Y-84270D01*
X119880Y-83870D01*
Y-83470D01*
X119480D01*
X119080Y-83870D01*
X118680Y-83470D01*
X118280D01*
Y-83870D01*
X118680Y-84270D01*
X118280Y-84670D01*
Y-85070D01*
X119810Y-88030D02*
X120210D01*
X120610Y-87630D01*
X121010Y-88030D01*
X121410D01*
Y-87630D01*
X121010Y-87230D01*
X121410Y-86830D01*
Y-86430D01*
X121010D01*
X120610Y-86830D01*
X120210Y-86430D01*
X119810D01*
Y-86830D01*
X120210Y-87230D01*
X119810Y-87630D01*
Y-88030D01*
X180200Y-155550D02*
Y-155950D01*
X181000D01*
Y-155550D01*
X181400D01*
Y-154750D01*
X181000D01*
Y-154350D01*
X180200D01*
Y-154750D01*
X179800D01*
Y-155550D01*
X180200D01*
X102680Y-95520D02*
X103080D01*
X103480Y-95120D01*
X103880Y-95520D01*
X104280D01*
Y-95120D01*
X103880Y-94720D01*
X104280Y-94320D01*
Y-93920D01*
X103880D01*
X103480Y-94320D01*
X103080Y-93920D01*
X102680D01*
Y-94320D01*
X103080Y-94720D01*
X102680Y-95120D01*
Y-95520D01*
X35820Y-189970D02*
Y-190370D01*
X36620D01*
Y-189970D01*
X37020D01*
Y-189170D01*
X36620D01*
Y-188770D01*
X35820D01*
Y-189170D01*
X35420D01*
Y-189970D01*
X35820D01*
X30820D02*
Y-190370D01*
X31620D01*
Y-189970D01*
X32020D01*
Y-189170D01*
X31620D01*
Y-188770D01*
X30820D01*
Y-189170D01*
X30420D01*
Y-189970D01*
X30820D01*
X25820D02*
Y-190370D01*
X26620D01*
Y-189970D01*
X27020D01*
Y-189170D01*
X26620D01*
Y-188770D01*
X25820D01*
Y-189170D01*
X25420D01*
Y-189970D01*
X25820D01*
X20820D02*
Y-190370D01*
X21620D01*
Y-189970D01*
X22020D01*
Y-189170D01*
X21620D01*
Y-188770D01*
X20820D01*
Y-189170D01*
X20420D01*
Y-189970D01*
X20820D01*
X20910Y-193920D02*
Y-194320D01*
X21710D01*
Y-193920D01*
X22110D01*
Y-193120D01*
X21710D01*
Y-192720D01*
X20910D01*
Y-193120D01*
X20510D01*
Y-193920D01*
X20910D01*
X25910D02*
Y-194320D01*
X26710D01*
Y-193920D01*
X27110D01*
Y-193120D01*
X26710D01*
Y-192720D01*
X25910D01*
Y-193120D01*
X25510D01*
Y-193920D01*
X25910D01*
X30910D02*
Y-194320D01*
X31710D01*
Y-193920D01*
X32110D01*
Y-193120D01*
X31710D01*
Y-192720D01*
X30910D01*
Y-193120D01*
X30510D01*
Y-193920D01*
X30910D01*
X35910D02*
Y-194320D01*
X36710D01*
Y-193920D01*
X37110D01*
Y-193120D01*
X36710D01*
Y-192720D01*
X35910D01*
Y-193120D01*
X35510D01*
Y-193920D01*
X35910D01*
X66240Y-29200D02*
Y-29600D01*
X67040D01*
Y-29200D01*
X67440D01*
Y-28400D01*
X67040D01*
Y-28000D01*
X66240D01*
Y-28400D01*
X65840D01*
Y-29200D01*
X66240D01*
Y-34200D02*
Y-34600D01*
X67040D01*
Y-34200D01*
X67440D01*
Y-33400D01*
X67040D01*
Y-33000D01*
X66240D01*
Y-33400D01*
X65840D01*
Y-34200D01*
X66240D01*
Y-39200D02*
Y-39600D01*
X67040D01*
Y-39200D01*
X67440D01*
Y-38400D01*
X67040D01*
Y-38000D01*
X66240D01*
Y-38400D01*
X65840D01*
Y-39200D01*
X66240D01*
Y-44200D02*
Y-44600D01*
X67040D01*
Y-44200D01*
X67440D01*
Y-43400D01*
X67040D01*
Y-43000D01*
X66240D01*
Y-43400D01*
X65840D01*
Y-44200D01*
X66240D01*
X70190Y-44110D02*
Y-44510D01*
X70990D01*
Y-44110D01*
X71390D01*
Y-43310D01*
X70990D01*
Y-42910D01*
X70190D01*
Y-43310D01*
X69790D01*
Y-44110D01*
X70190D01*
Y-39110D02*
Y-39510D01*
X70990D01*
Y-39110D01*
X71390D01*
Y-38310D01*
X70990D01*
Y-37910D01*
X70190D01*
Y-38310D01*
X69790D01*
Y-39110D01*
X70190D01*
Y-34110D02*
Y-34510D01*
X70990D01*
Y-34110D01*
X71390D01*
Y-33310D01*
X70990D01*
Y-32910D01*
X70190D01*
Y-33310D01*
X69790D01*
Y-34110D01*
X70190D01*
Y-29110D02*
Y-29510D01*
X70990D01*
Y-29110D01*
X71390D01*
Y-28310D01*
X70990D01*
Y-27910D01*
X70190D01*
Y-28310D01*
X69790D01*
Y-29110D01*
X70190D01*
X43440Y-20560D02*
Y-20960D01*
X44240D01*
Y-20560D01*
X44640D01*
Y-19760D01*
X44240D01*
Y-19360D01*
X43440D01*
Y-19760D01*
X43040D01*
Y-20560D01*
X43440D01*
X38440D02*
Y-20960D01*
X39240D01*
Y-20560D01*
X39640D01*
Y-19760D01*
X39240D01*
Y-19360D01*
X38440D01*
Y-19760D01*
X38040D01*
Y-20560D01*
X38440D01*
X33440D02*
Y-20960D01*
X34240D01*
Y-20560D01*
X34640D01*
Y-19760D01*
X34240D01*
Y-19360D01*
X33440D01*
Y-19760D01*
X33040D01*
Y-20560D01*
X33440D01*
X28440D02*
Y-20960D01*
X29240D01*
Y-20560D01*
X29640D01*
Y-19760D01*
X29240D01*
Y-19360D01*
X28440D01*
Y-19760D01*
X28040D01*
Y-20560D01*
X28440D01*
X28530Y-24510D02*
Y-24910D01*
X29330D01*
Y-24510D01*
X29730D01*
Y-23710D01*
X29330D01*
Y-23310D01*
X28530D01*
Y-23710D01*
X28130D01*
Y-24510D01*
X28530D01*
X33530D02*
Y-24910D01*
X34330D01*
Y-24510D01*
X34730D01*
Y-23710D01*
X34330D01*
Y-23310D01*
X33530D01*
Y-23710D01*
X33130D01*
Y-24510D01*
X33530D01*
X38530D02*
Y-24910D01*
X39330D01*
Y-24510D01*
X39730D01*
Y-23710D01*
X39330D01*
Y-23310D01*
X38530D01*
Y-23710D01*
X38130D01*
Y-24510D01*
X38530D01*
X43530D02*
Y-24910D01*
X44330D01*
Y-24510D01*
X44730D01*
Y-23710D01*
X44330D01*
Y-23310D01*
X43530D01*
Y-23710D01*
X43130D01*
Y-24510D01*
X43530D01*
X152300Y-109010D02*
Y-109410D01*
X153100D01*
Y-109010D01*
X153500D01*
Y-108210D01*
X153100D01*
Y-107810D01*
X152300D01*
Y-108210D01*
X151900D01*
Y-109010D01*
X152300D01*
X147300D02*
Y-109410D01*
X148100D01*
Y-109010D01*
X148500D01*
Y-108210D01*
X148100D01*
Y-107810D01*
X147300D01*
Y-108210D01*
X146900D01*
Y-109010D01*
X147300D01*
X142300D02*
Y-109410D01*
X143100D01*
Y-109010D01*
X143500D01*
Y-108210D01*
X143100D01*
Y-107810D01*
X142300D01*
Y-108210D01*
X141900D01*
Y-109010D01*
X142300D01*
X137300D02*
Y-109410D01*
X138100D01*
Y-109010D01*
X138500D01*
Y-108210D01*
X138100D01*
Y-107810D01*
X137300D01*
Y-108210D01*
X136900D01*
Y-109010D01*
X137300D01*
X137210Y-105060D02*
Y-105460D01*
X138010D01*
Y-105060D01*
X138410D01*
Y-104260D01*
X138010D01*
Y-103860D01*
X137210D01*
Y-104260D01*
X136810D01*
Y-105060D01*
X137210D01*
X142210D02*
Y-105460D01*
X143010D01*
Y-105060D01*
X143410D01*
Y-104260D01*
X143010D01*
Y-103860D01*
X142210D01*
Y-104260D01*
X141810D01*
Y-105060D01*
X142210D01*
X147210D02*
Y-105460D01*
X148010D01*
Y-105060D01*
X148410D01*
Y-104260D01*
X148010D01*
Y-103860D01*
X147210D01*
Y-104260D01*
X146810D01*
Y-105060D01*
X147210D01*
X152210D02*
Y-105460D01*
X153010D01*
Y-105060D01*
X153410D01*
Y-104260D01*
X153010D01*
Y-103860D01*
X152210D01*
Y-104260D01*
X151810D01*
Y-105060D01*
X152210D01*
X92900Y-92630D02*
X93700Y-91830D01*
X94500Y-92630D01*
X93700Y-93430D01*
X92900Y-92630D01*
X93040Y-84370D02*
X93840Y-83570D01*
X94640Y-84370D01*
X93840Y-85170D01*
X93040Y-84370D01*
X118450Y-128990D02*
Y-129390D01*
X119250D01*
Y-128990D01*
X119650D01*
Y-128190D01*
X119250D01*
Y-127790D01*
X118450D01*
Y-128190D01*
X118050D01*
Y-128990D01*
X118450D01*
X16800Y-156060D02*
Y-156460D01*
X17600D01*
Y-156060D01*
X18000D01*
Y-155260D01*
X17600D01*
Y-154860D01*
X16800D01*
Y-155260D01*
X16400D01*
Y-156060D01*
X16800D01*
X90120Y-130440D02*
Y-130840D01*
X90920D01*
Y-130440D01*
X91320D01*
Y-129640D01*
X90920D01*
Y-129240D01*
X90120D01*
Y-129640D01*
X89720D01*
Y-130440D01*
X90120D01*
X103120Y-113490D02*
X103520D01*
X103920Y-113090D01*
X104320Y-113490D01*
X104720D01*
Y-113090D01*
X104320Y-112690D01*
X104720Y-112290D01*
Y-111890D01*
X104320D01*
X103920Y-112290D01*
X103520Y-111890D01*
X103120D01*
Y-112290D01*
X103520Y-112690D01*
X103120Y-113090D01*
Y-113490D01*
X89800Y-176510D02*
Y-176910D01*
X90600D01*
Y-176510D01*
X91000D01*
Y-175710D01*
X90600D01*
Y-175310D01*
X89800D01*
Y-175710D01*
X89400D01*
Y-176510D01*
X89800D01*
X156440Y-171550D02*
Y-171950D01*
X157240D01*
Y-171550D01*
X157640D01*
Y-170750D01*
X157240D01*
Y-170350D01*
X156440D01*
Y-170750D01*
X156040D01*
Y-171550D01*
X156440D01*
X182870Y-151580D02*
X183270Y-150780D01*
X182870Y-149980D01*
X183670Y-150380D01*
X184470Y-149980D01*
X184070Y-150780D01*
X184470Y-151580D01*
X183670Y-151180D01*
X182870Y-151580D01*
X102500Y-101090D02*
X102900D01*
X103300Y-100690D01*
X103700Y-101090D01*
X104100D01*
Y-100690D01*
X103700Y-100290D01*
X104100Y-99890D01*
Y-99490D01*
X103700D01*
X103300Y-99890D01*
X102900Y-99490D01*
X102500D01*
Y-99890D01*
X102900Y-100290D01*
X102500Y-100690D01*
Y-101090D01*
X124450Y-100210D02*
X124850D01*
X125250Y-99810D01*
X125650Y-100210D01*
X126050D01*
Y-99810D01*
X125650Y-99410D01*
X126050Y-99010D01*
Y-98610D01*
X125650D01*
X125250Y-99010D01*
X124850Y-98610D01*
X124450D01*
Y-99010D01*
X124850Y-99410D01*
X124450Y-99810D01*
Y-100210D01*
X111830Y-120780D02*
X112230D01*
X112630Y-120380D01*
X113030Y-120780D01*
X113430D01*
Y-120380D01*
X113030Y-119980D01*
X113430Y-119580D01*
Y-119180D01*
X113030D01*
X112630Y-119580D01*
X112230Y-119180D01*
X111830D01*
Y-119580D01*
X112230Y-119980D01*
X111830Y-120380D01*
Y-120780D01*
X97560Y-80110D02*
X98360Y-79310D01*
X99160Y-80110D01*
X98360Y-80910D01*
X97560Y-80110D01*
X97530Y-88600D02*
X98330Y-87800D01*
X99130Y-88600D01*
X98330Y-89400D01*
X97530Y-88600D01*
X117960Y-74620D02*
X118360D01*
X118760Y-74220D01*
X119160Y-74620D01*
X119560D01*
Y-74220D01*
X119160Y-73820D01*
X119560Y-73420D01*
Y-73020D01*
X119160D01*
X118760Y-73420D01*
X118360Y-73020D01*
X117960D01*
Y-73420D01*
X118360Y-73820D01*
X117960Y-74220D01*
Y-74620D01*
X115820Y-82430D02*
X116220D01*
X116620Y-82030D01*
X117020Y-82430D01*
X117420D01*
Y-82030D01*
X117020Y-81630D01*
X117420Y-81230D01*
Y-80830D01*
X117020D01*
X116620Y-81230D01*
X116220Y-80830D01*
X115820D01*
Y-81230D01*
X116220Y-81630D01*
X115820Y-82030D01*
Y-82430D01*
X22940Y-79490D02*
X23740Y-78690D01*
X24540Y-79490D01*
X23740Y-80290D01*
X22940Y-79490D01*
X153810Y-85080D02*
X154210Y-84280D01*
X153810Y-83480D01*
X154610Y-83880D01*
X155410Y-83480D01*
X155010Y-84280D01*
X155410Y-85080D01*
X154610Y-84680D01*
X153810Y-85080D01*
X184730Y-173250D02*
X185130Y-172450D01*
X184730Y-171650D01*
X185530Y-172050D01*
X186330Y-171650D01*
X185930Y-172450D01*
X186330Y-173250D01*
X185530Y-172850D01*
X184730Y-173250D01*
X73750Y-165370D02*
X74150Y-164570D01*
X73750Y-163770D01*
X74550Y-164170D01*
X75350Y-163770D01*
X74950Y-164570D01*
X75350Y-165370D01*
X74550Y-164970D01*
X73750Y-165370D01*
X134800Y-155090D02*
X135200Y-154290D01*
X134800Y-153490D01*
X135600Y-153890D01*
X136400Y-153490D01*
X136000Y-154290D01*
X136400Y-155090D01*
X135600Y-154690D01*
X134800Y-155090D01*
X52650Y-10630D02*
Y-9030D01*
X54250D01*
Y-10630D01*
X52650D01*
X53050Y-10230D02*
Y-9430D01*
X53850D01*
Y-10230D01*
X53050D01*
X159480Y-153420D02*
X159880Y-152620D01*
X159480Y-151820D01*
X160280Y-152220D01*
X161080Y-151820D01*
X160680Y-152620D01*
X161080Y-153420D01*
X160280Y-153020D01*
X159480Y-153420D01*
X62310Y-152960D02*
Y-151360D01*
X63910D01*
Y-152960D01*
X62310D01*
X62710Y-152560D02*
Y-151760D01*
X63510D01*
Y-152560D01*
X62710D01*
X153340Y-172490D02*
Y-172890D01*
X154140D01*
Y-172490D01*
X154540D01*
Y-171690D01*
X154140D01*
Y-171290D01*
X153340D01*
Y-171690D01*
X152940D01*
Y-172490D01*
X153340D01*
D74*
X96870Y-46340D02*
G03*
X96870Y-46340I-800J0D01*
G01*
X116870D02*
G03*
X116870Y-46340I-800J0D01*
G01*
Y-66340D02*
G03*
X116870Y-66340I-800J0D01*
G01*
X96870D02*
G03*
X96870Y-66340I-800J0D01*
G01*
X106870Y-56340D02*
G03*
X106870Y-56340I-800J0D01*
G01*
M02*
