G04*
G04 #@! TF.GenerationSoftware,Altium Limited,Altium Designer,18.0.11 (651)*
G04*
G04 Layer_Physical_Order=1*
G04 Layer_Color=255*
%FSLAX25Y25*%
%MOIN*%
G70*
G01*
G75*
%ADD13C,0.01000*%
%ADD19R,0.05800X0.02200*%
%ADD20R,0.02835X0.02835*%
%ADD21R,0.01968X0.02362*%
G04:AMPARAMS|DCode=22|XSize=15.75mil|YSize=25.59mil|CornerRadius=1.97mil|HoleSize=0mil|Usage=FLASHONLY|Rotation=90.000|XOffset=0mil|YOffset=0mil|HoleType=Round|Shape=RoundedRectangle|*
%AMROUNDEDRECTD22*
21,1,0.01575,0.02165,0,0,90.0*
21,1,0.01181,0.02559,0,0,90.0*
1,1,0.00394,0.01083,0.00591*
1,1,0.00394,0.01083,-0.00591*
1,1,0.00394,-0.01083,-0.00591*
1,1,0.00394,-0.01083,0.00591*
%
%ADD22ROUNDEDRECTD22*%
%ADD23R,0.03543X0.03150*%
%ADD24R,0.05600X0.01400*%
%ADD25R,0.01400X0.05600*%
%ADD26R,0.02362X0.01968*%
G04:AMPARAMS|DCode=27|XSize=15.75mil|YSize=33.47mil|CornerRadius=3.94mil|HoleSize=0mil|Usage=FLASHONLY|Rotation=180.000|XOffset=0mil|YOffset=0mil|HoleType=Round|Shape=RoundedRectangle|*
%AMROUNDEDRECTD27*
21,1,0.01575,0.02559,0,0,180.0*
21,1,0.00787,0.03347,0,0,180.0*
1,1,0.00787,-0.00394,0.01280*
1,1,0.00787,0.00394,0.01280*
1,1,0.00787,0.00394,-0.01280*
1,1,0.00787,-0.00394,-0.01280*
%
%ADD27ROUNDEDRECTD27*%
%ADD28R,0.03150X0.03543*%
%ADD49C,0.03000*%
%ADD54R,0.00300X0.03500*%
%ADD55R,0.00300X0.02400*%
%ADD56C,0.02000*%
%ADD57C,0.00300*%
%ADD58C,0.05000*%
%ADD59C,0.10000*%
%ADD60R,0.05906X0.05906*%
%ADD61C,0.05906*%
%ADD62C,0.08661*%
%ADD63R,0.05906X0.05906*%
%ADD64C,0.06102*%
%ADD65R,0.06102X0.06102*%
%ADD66C,0.01500*%
%ADD67C,0.02000*%
%ADD68C,0.02200*%
%ADD69C,0.05000*%
%ADD70C,0.00900*%
%ADD71C,0.12000*%
G36*
X89067Y-3160D02*
X88728Y-3438D01*
X88431Y-3801D01*
X57020D01*
X56142Y-3332D01*
X55576Y-3160D01*
X55650Y-2660D01*
X88888D01*
X89067Y-3160D01*
D02*
G37*
G36*
X168342Y-5325D02*
X168473Y-5423D01*
X168852Y-5674D01*
X170078Y-6386D01*
X170925Y-6848D01*
X167059Y-7829D01*
X167229Y-7551D01*
X167367Y-7287D01*
X167472Y-7037D01*
X167543Y-6801D01*
X167581Y-6579D01*
X167587Y-6372D01*
X167559Y-6178D01*
X167498Y-5999D01*
X167404Y-5834D01*
X167276Y-5684D01*
X168251Y-5243D01*
X168342Y-5325D01*
D02*
G37*
G36*
X136599Y-10449D02*
X136589Y-10354D01*
X136558Y-10269D01*
X136508Y-10194D01*
X136437Y-10129D01*
X136346Y-10074D01*
X136234Y-10029D01*
X136103Y-9994D01*
X135951Y-9969D01*
X135779Y-9954D01*
X135587Y-9949D01*
Y-8949D01*
X135779Y-8944D01*
X135951Y-8929D01*
X136103Y-8904D01*
X136234Y-8869D01*
X136346Y-8824D01*
X136437Y-8769D01*
X136508Y-8704D01*
X136558Y-8629D01*
X136589Y-8544D01*
X136599Y-8449D01*
Y-10449D01*
D02*
G37*
G36*
X159498Y-12401D02*
X159074Y-12405D01*
X158313Y-12456D01*
X157976Y-12505D01*
X157669Y-12568D01*
X157391Y-12647D01*
X157142Y-12741D01*
X156922Y-12850D01*
X156732Y-12974D01*
X156571Y-13113D01*
X155863Y-12406D01*
X156003Y-12245D01*
X156127Y-12054D01*
X156236Y-11834D01*
X156329Y-11585D01*
X156408Y-11307D01*
X156472Y-11000D01*
X156520Y-10663D01*
X156572Y-9903D01*
X156575Y-9478D01*
X159498Y-12401D01*
D02*
G37*
G36*
X149498D02*
X149074Y-12405D01*
X148313Y-12456D01*
X147977Y-12505D01*
X147669Y-12568D01*
X147391Y-12647D01*
X147142Y-12741D01*
X146922Y-12850D01*
X146732Y-12974D01*
X146571Y-13113D01*
X145863Y-12406D01*
X146003Y-12245D01*
X146127Y-12054D01*
X146236Y-11834D01*
X146329Y-11585D01*
X146408Y-11307D01*
X146472Y-11000D01*
X146520Y-10663D01*
X146572Y-9903D01*
X146575Y-9478D01*
X149498Y-12401D01*
D02*
G37*
G36*
X135575Y-13402D02*
X135575D01*
X135491Y-13867D01*
X125705D01*
X125513Y-13405D01*
X127940Y-10978D01*
X135575D01*
Y-13402D01*
D02*
G37*
G36*
X195770Y-197820D02*
X195490Y-198100D01*
X3110D01*
X3096Y-171305D01*
X3596Y-171180D01*
X3957Y-171855D01*
X4707Y-172769D01*
X9201Y-177263D01*
X10115Y-178013D01*
X11157Y-178570D01*
X12288Y-178913D01*
X13465Y-179029D01*
X14641Y-178913D01*
X15772Y-178570D01*
X16814Y-178013D01*
X17728Y-177263D01*
X18477Y-176349D01*
X19035Y-175307D01*
X19229Y-174667D01*
X19759Y-174641D01*
X19926Y-175043D01*
X20575Y-175889D01*
X21421Y-176539D01*
X22407Y-176947D01*
X23465Y-177086D01*
X24522Y-176947D01*
X25508Y-176539D01*
X26354Y-175889D01*
X27003Y-175043D01*
X27411Y-174058D01*
X27551Y-173000D01*
X27411Y-171942D01*
X27003Y-170957D01*
X26530Y-170340D01*
X26502Y-170291D01*
X26399Y-170170D01*
X26354Y-170111D01*
X26339Y-170099D01*
X26318Y-170074D01*
X26174Y-169882D01*
X26050Y-169692D01*
X25945Y-169503D01*
X25859Y-169315D01*
X25789Y-169128D01*
X25736Y-168939D01*
X25697Y-168749D01*
X25686Y-168649D01*
Y-161856D01*
X25699Y-161709D01*
X25734Y-161497D01*
X25774Y-161347D01*
X25789Y-161312D01*
X27547D01*
Y-157612D01*
Y-155358D01*
X28003Y-155175D01*
X28047Y-155177D01*
X28783Y-156075D01*
X29437Y-156612D01*
X29258Y-157112D01*
X29147D01*
Y-161312D01*
X36946D01*
Y-161251D01*
X45228D01*
Y-162425D01*
X45228Y-162563D01*
Y-162925D01*
X45228Y-163063D01*
Y-165000D01*
X48000D01*
X50772D01*
Y-163063D01*
X50772Y-162925D01*
Y-162563D01*
X50772Y-162425D01*
Y-157841D01*
X58998D01*
X59202Y-158008D01*
X60418Y-158658D01*
X61738Y-159059D01*
X63110Y-159194D01*
X64482Y-159059D01*
X65802Y-158658D01*
X65970Y-158569D01*
X65976Y-158567D01*
X66312Y-158428D01*
X66649Y-158312D01*
X67006Y-158211D01*
X67862Y-158034D01*
X68298Y-157972D01*
X69863Y-157860D01*
X118612D01*
X118916Y-157820D01*
X135600D01*
X136514Y-157700D01*
X137365Y-157347D01*
X138096Y-156786D01*
X138657Y-156055D01*
X139010Y-155204D01*
X139130Y-154290D01*
X139010Y-153376D01*
X138657Y-152525D01*
X138096Y-151794D01*
X137365Y-151233D01*
X136514Y-150880D01*
X135600Y-150760D01*
X129292D01*
Y-148217D01*
X129476Y-147942D01*
X129631Y-147161D01*
Y-131378D01*
X130093Y-131187D01*
X151701Y-152795D01*
Y-159252D01*
X151856Y-160032D01*
X151926Y-160136D01*
Y-160531D01*
X152034Y-161075D01*
X152342Y-161536D01*
X152803Y-161844D01*
X153347Y-161952D01*
X154134D01*
X154678Y-161844D01*
X155020Y-161616D01*
X155362Y-161844D01*
X155799Y-161931D01*
Y-159252D01*
X156772D01*
X156799Y-159388D01*
Y-161931D01*
X157237Y-161844D01*
X157579Y-161616D01*
X157921Y-161844D01*
X158465Y-161952D01*
X159252D01*
X159796Y-161844D01*
X160257Y-161536D01*
X160565Y-161075D01*
X160673Y-160531D01*
Y-159991D01*
X160684Y-159974D01*
X160839Y-159194D01*
Y-157215D01*
X161722Y-156332D01*
X162164Y-155670D01*
X162166Y-155661D01*
X162385Y-155417D01*
X162776Y-155116D01*
X163337Y-154385D01*
X163690Y-153534D01*
X163810Y-152620D01*
X163690Y-151706D01*
X163337Y-150855D01*
X162776Y-150124D01*
X162708Y-150072D01*
X162619Y-149979D01*
X162547Y-149890D01*
X162484Y-149795D01*
X162428Y-149693D01*
X162380Y-149580D01*
X162338Y-149455D01*
X162304Y-149317D01*
X162278Y-149164D01*
X162275Y-149135D01*
Y-146839D01*
X162290Y-146561D01*
X162295Y-146512D01*
X162654D01*
Y-145538D01*
X162661Y-145500D01*
X162654Y-145462D01*
Y-141677D01*
X156799D01*
Y-144095D01*
X156299D01*
Y-144595D01*
X153882D01*
Y-145462D01*
X153874Y-145500D01*
X153882Y-145538D01*
Y-146512D01*
X154232D01*
X154260Y-146924D01*
Y-148933D01*
X153798Y-149124D01*
X144794Y-140120D01*
X144882Y-139831D01*
X145020Y-139639D01*
X165365D01*
X175520Y-149794D01*
Y-159252D01*
X175675Y-160032D01*
X175744Y-160136D01*
Y-160531D01*
X175853Y-161075D01*
X176161Y-161536D01*
X176622Y-161844D01*
X177165Y-161952D01*
X177953D01*
X178497Y-161844D01*
X178839Y-161616D01*
X179181Y-161844D01*
X179618Y-161931D01*
Y-159252D01*
X180618D01*
Y-161931D01*
X181056Y-161844D01*
X181398Y-161616D01*
X181740Y-161844D01*
X182283Y-161952D01*
X183071D01*
X183615Y-161844D01*
X184076Y-161536D01*
X184384Y-161075D01*
X184492Y-160531D01*
Y-160321D01*
X185300Y-159513D01*
X185742Y-158851D01*
X185897Y-158071D01*
Y-154130D01*
X185899Y-154114D01*
X185924Y-153951D01*
X185957Y-153800D01*
X185998Y-153662D01*
X186046Y-153533D01*
X186102Y-153415D01*
X186165Y-153304D01*
X186237Y-153200D01*
X186342Y-153070D01*
X186380Y-152997D01*
X186727Y-152545D01*
X187080Y-151694D01*
X187200Y-150780D01*
X187080Y-149866D01*
X186727Y-149015D01*
X186380Y-148563D01*
X186342Y-148490D01*
X186237Y-148360D01*
X186165Y-148256D01*
X186102Y-148145D01*
X186046Y-148027D01*
X185998Y-147898D01*
X185957Y-147760D01*
X185924Y-147609D01*
X185899Y-147446D01*
X185897Y-147430D01*
Y-146839D01*
X185912Y-146561D01*
X185917Y-146512D01*
X186276D01*
Y-145538D01*
X186283Y-145500D01*
X186276Y-145462D01*
Y-141677D01*
X180421D01*
Y-144095D01*
X179921D01*
Y-144595D01*
X177504D01*
Y-145357D01*
X177042Y-145548D01*
X167652Y-136158D01*
X166990Y-135716D01*
X166210Y-135561D01*
X145785D01*
X134532Y-124308D01*
X134492Y-124248D01*
X133830Y-123806D01*
X133050Y-123651D01*
X133005Y-123660D01*
X132990Y-123657D01*
X132915Y-123631D01*
X132811Y-123584D01*
X132682Y-123512D01*
X132532Y-123414D01*
X132372Y-123295D01*
X131970Y-122949D01*
X131884Y-122866D01*
X120599Y-111581D01*
X120280Y-111240D01*
X120280D01*
X120280Y-111240D01*
Y-98541D01*
X122723D01*
X123092Y-98910D01*
X124439D01*
X124433Y-98890D01*
X124407Y-98827D01*
X124378Y-98771D01*
X124344Y-98721D01*
X124306Y-98678D01*
X124518Y-98466D01*
X124561Y-98504D01*
X124611Y-98538D01*
X124667Y-98567D01*
X124730Y-98593D01*
X124799Y-98614D01*
X124875Y-98632D01*
X124957Y-98645D01*
X125046Y-98654D01*
X125242Y-98660D01*
X124993Y-98910D01*
X126935D01*
X126899Y-98727D01*
X126589Y-98264D01*
X126950Y-97904D01*
X127160Y-98044D01*
X127940Y-98199D01*
X169020D01*
X169800Y-98044D01*
X170462Y-97602D01*
X175485Y-92579D01*
X176886D01*
Y-93949D01*
X178870D01*
X180854D01*
Y-92577D01*
X181239Y-92551D01*
X185126D01*
X185217Y-92561D01*
X185397Y-92598D01*
X185571Y-92648D01*
X185741Y-92713D01*
X185908Y-92793D01*
X186074Y-92890D01*
X186240Y-93004D01*
X186405Y-93138D01*
X186502Y-93227D01*
X186551Y-93292D01*
X187377Y-93925D01*
X188338Y-94323D01*
X189370Y-94459D01*
X190402Y-94323D01*
X191364Y-93925D01*
X192189Y-93292D01*
X192823Y-92466D01*
X193221Y-91504D01*
X193357Y-90472D01*
X193221Y-89441D01*
X192823Y-88479D01*
X192189Y-87653D01*
X191364Y-87020D01*
X190402Y-86621D01*
X189370Y-86486D01*
X188338Y-86621D01*
X187377Y-87020D01*
X186551Y-87653D01*
X186482Y-87743D01*
X186338Y-87883D01*
X186180Y-88017D01*
X186021Y-88132D01*
X185861Y-88229D01*
X185699Y-88309D01*
X185534Y-88374D01*
X185364Y-88425D01*
X185187Y-88461D01*
X185095Y-88472D01*
X180864D01*
X180854Y-88472D01*
Y-88330D01*
X179880D01*
X179842Y-88323D01*
X179804Y-88330D01*
X178006D01*
X177996Y-88328D01*
X177968Y-88330D01*
X177936D01*
X177898Y-88323D01*
X177860Y-88330D01*
X176886D01*
Y-88476D01*
X176512Y-88501D01*
X174640D01*
X173860Y-88656D01*
X173198Y-89098D01*
X168175Y-94121D01*
X127940D01*
X127160Y-94276D01*
X126498Y-94718D01*
X126298Y-95017D01*
X120280D01*
Y-93280D01*
X120473Y-93115D01*
X120632Y-92996D01*
X120782Y-92898D01*
X120911Y-92826D01*
X121015Y-92779D01*
X121090Y-92753D01*
X121105Y-92750D01*
X121150Y-92759D01*
X121930Y-92604D01*
X122592Y-92162D01*
X140242Y-74512D01*
X140684Y-73850D01*
X140839Y-73070D01*
Y-65215D01*
X142946Y-63108D01*
X145193D01*
X145973Y-62953D01*
X146249Y-62769D01*
X148993D01*
Y-60168D01*
Y-57569D01*
Y-55092D01*
X149563Y-54710D01*
X152212Y-52062D01*
X152212Y-52062D01*
X156323Y-47951D01*
X156323Y-47950D01*
X156765Y-47289D01*
X156921Y-46508D01*
Y-33304D01*
X156921Y-33294D01*
X158318D01*
Y-31310D01*
Y-29326D01*
X155636D01*
X155412Y-29176D01*
X154631Y-29021D01*
X146803D01*
X146775Y-29018D01*
X146620Y-28993D01*
X146480Y-28959D01*
X146352Y-28917D01*
X146237Y-28868D01*
X146131Y-28812D01*
X146033Y-28749D01*
X145941Y-28677D01*
X145877Y-28617D01*
X145836Y-28564D01*
X145105Y-28003D01*
X144254Y-27650D01*
X143340Y-27530D01*
X142426Y-27650D01*
X141575Y-28003D01*
X140844Y-28564D01*
X140283Y-29295D01*
X139930Y-30146D01*
X139810Y-31060D01*
X139930Y-31974D01*
X140283Y-32825D01*
X140844Y-33556D01*
X141575Y-34117D01*
X142426Y-34470D01*
X143340Y-34590D01*
X144254Y-34470D01*
X145105Y-34117D01*
X145836Y-33556D01*
X145877Y-33503D01*
X145941Y-33443D01*
X146033Y-33371D01*
X146131Y-33308D01*
X146237Y-33252D01*
X146352Y-33203D01*
X146480Y-33161D01*
X146620Y-33127D01*
X146775Y-33102D01*
X146803Y-33099D01*
X152700D01*
Y-33294D01*
X152816D01*
X152842Y-33679D01*
Y-45664D01*
X150762Y-47745D01*
X150575Y-47894D01*
X150330Y-48061D01*
X150078Y-48203D01*
X149819Y-48324D01*
X149551Y-48422D01*
X149493Y-48438D01*
X148993Y-48130D01*
Y-44568D01*
Y-41168D01*
X146249D01*
X145973Y-40984D01*
X145193Y-40829D01*
X128672D01*
X127891Y-40984D01*
X127230Y-41427D01*
X123328Y-45328D01*
X122886Y-45990D01*
X122731Y-46770D01*
Y-66965D01*
X121673Y-68023D01*
X121257Y-67745D01*
X121263Y-67731D01*
X121381Y-66840D01*
X116570D01*
Y-71651D01*
X117461Y-71533D01*
X117475Y-71527D01*
X117753Y-71943D01*
X117318Y-72378D01*
X116876Y-73040D01*
X116721Y-73820D01*
X116876Y-74600D01*
X117318Y-75262D01*
X117980Y-75704D01*
X118760Y-75859D01*
X118810Y-75849D01*
X119056Y-76310D01*
X115178Y-80188D01*
X114854Y-80673D01*
X114275Y-80801D01*
X108149Y-74675D01*
Y-62886D01*
X108187Y-62667D01*
X108260Y-62406D01*
X108368Y-62128D01*
X108513Y-61832D01*
X108698Y-61519D01*
X108915Y-61202D01*
X109508Y-60483D01*
X109734Y-60247D01*
X109872Y-60142D01*
X110726Y-59028D01*
X111264Y-57732D01*
X111447Y-56340D01*
X111264Y-54948D01*
X110726Y-53652D01*
X109872Y-52538D01*
X108758Y-51684D01*
X107462Y-51147D01*
X106070Y-50963D01*
X104678Y-51147D01*
X103382Y-51684D01*
X102268Y-52538D01*
X101414Y-53652D01*
X100876Y-54948D01*
X100693Y-56340D01*
X100876Y-57732D01*
X101414Y-59028D01*
X102268Y-60142D01*
X102431Y-60267D01*
X102714Y-60552D01*
X103025Y-60898D01*
X103294Y-61233D01*
X103520Y-61554D01*
X103705Y-61861D01*
X103851Y-62152D01*
X103959Y-62427D01*
X104033Y-62686D01*
X104071Y-62905D01*
Y-75520D01*
X104226Y-76300D01*
X104668Y-76962D01*
X105391Y-77684D01*
X105144Y-78145D01*
X104770Y-78071D01*
X99808D01*
X99335Y-77755D01*
X98360Y-77561D01*
X97385Y-77755D01*
X96931Y-78058D01*
X96686Y-78071D01*
X88188D01*
X87912Y-78126D01*
X84751D01*
Y-80110D01*
X84251D01*
Y-80610D01*
X82070D01*
Y-82094D01*
X82070D01*
X82030Y-82386D01*
X82030D01*
X82030Y-82578D01*
Y-83870D01*
X84211D01*
Y-84870D01*
X82030D01*
Y-86121D01*
X82030Y-86354D01*
X82030Y-86354D01*
X82090Y-86596D01*
X82090D01*
Y-88080D01*
X84272D01*
Y-89080D01*
X82090D01*
Y-90564D01*
X82090Y-90564D01*
X82030Y-90716D01*
X82030D01*
X82030Y-91039D01*
Y-92200D01*
X84211D01*
Y-92700D01*
X84711D01*
Y-94684D01*
X86832D01*
X87071Y-95184D01*
X86958Y-95326D01*
X84732D01*
Y-97310D01*
Y-99294D01*
X86103D01*
X86129Y-99679D01*
Y-103880D01*
X59730D01*
Y-97402D01*
X65986Y-91146D01*
X66547Y-90415D01*
X66900Y-89564D01*
X67020Y-88650D01*
Y-85826D01*
X67341Y-85052D01*
X67477Y-84020D01*
X67341Y-82988D01*
X66943Y-82027D01*
X66309Y-81201D01*
X65483Y-80567D01*
X64522Y-80169D01*
X63490Y-80033D01*
X62458Y-80169D01*
X61497Y-80567D01*
X60671Y-81201D01*
X60037Y-82027D01*
X59639Y-82988D01*
X59503Y-84020D01*
X59639Y-85052D01*
X59960Y-85826D01*
Y-87188D01*
X53704Y-93444D01*
X53143Y-94175D01*
X52790Y-95026D01*
X52670Y-95940D01*
Y-121948D01*
X52790Y-122862D01*
X53143Y-123713D01*
X53474Y-124144D01*
X53527Y-124622D01*
Y-124984D01*
X53528D01*
Y-127059D01*
X56299D01*
X59071D01*
Y-124984D01*
X59071D01*
X59071Y-124622D01*
X59107Y-124137D01*
X59356Y-123812D01*
X59709Y-122961D01*
X59829Y-122047D01*
Y-110940D01*
X85894D01*
X85914Y-111059D01*
X86066Y-113416D01*
X85702Y-113916D01*
X84711D01*
Y-115900D01*
Y-117884D01*
X85830D01*
X86021Y-118346D01*
X80358Y-124009D01*
X80046Y-124475D01*
X79997Y-124508D01*
X79555Y-125170D01*
X79400Y-125950D01*
Y-147161D01*
X79555Y-147942D01*
X79739Y-148217D01*
Y-150800D01*
X72396D01*
X72155Y-150792D01*
X71664Y-150739D01*
X71232Y-150655D01*
X70857Y-150544D01*
X70538Y-150408D01*
X70269Y-150251D01*
X70045Y-150075D01*
X69856Y-149877D01*
X69696Y-149652D01*
X69617Y-149497D01*
X69608Y-149468D01*
X68958Y-148252D01*
X68084Y-147186D01*
X67018Y-146312D01*
X65802Y-145662D01*
X64482Y-145261D01*
X63110Y-145126D01*
X61738Y-145261D01*
X60418Y-145662D01*
X60191Y-145783D01*
X36812D01*
X36785Y-145671D01*
X36693Y-145150D01*
X36580Y-143954D01*
X36577Y-143802D01*
Y-143493D01*
X36601Y-143307D01*
X36481Y-142393D01*
X36128Y-141542D01*
X35879Y-141217D01*
X35842Y-140732D01*
Y-140370D01*
X35842D01*
Y-138295D01*
X30299D01*
Y-140370D01*
X30299D01*
X30299Y-140732D01*
X30259Y-141215D01*
X29989Y-141566D01*
X29636Y-142418D01*
X29516Y-143332D01*
Y-143544D01*
X29470Y-144581D01*
X29403Y-145136D01*
X29308Y-145671D01*
X29188Y-146172D01*
X29043Y-146640D01*
X28874Y-147075D01*
X28683Y-147479D01*
X28468Y-147853D01*
X28207Y-148234D01*
X28191Y-148271D01*
X28034Y-148462D01*
X27476Y-149505D01*
X27413Y-149712D01*
X19747D01*
Y-149773D01*
X14999D01*
Y-147123D01*
X15230Y-147027D01*
X15477Y-146837D01*
X22441D01*
X23355Y-146717D01*
X24206Y-146364D01*
X24835Y-145882D01*
X25213D01*
Y-145444D01*
X25498Y-145072D01*
X25851Y-144221D01*
X25971Y-143307D01*
X25851Y-142393D01*
X25498Y-141542D01*
X25249Y-141217D01*
X25213Y-140732D01*
Y-140370D01*
X25213D01*
Y-138295D01*
X19669D01*
Y-139777D01*
X14999D01*
Y-131795D01*
X17728Y-129066D01*
X18477Y-128153D01*
X19035Y-127110D01*
X19229Y-126470D01*
X19759Y-126444D01*
X19926Y-126846D01*
X20575Y-127692D01*
X21421Y-128342D01*
X22407Y-128750D01*
X23465Y-128889D01*
X24522Y-128750D01*
X25508Y-128342D01*
X26354Y-127692D01*
X27003Y-126846D01*
X27411Y-125861D01*
X27551Y-124803D01*
X27411Y-123746D01*
X27003Y-122760D01*
X26354Y-121914D01*
X26271Y-121850D01*
X26146Y-121719D01*
X25999Y-121543D01*
X25873Y-121367D01*
X25767Y-121192D01*
X25680Y-121017D01*
X25609Y-120840D01*
X25555Y-120661D01*
X25517Y-120477D01*
X25504Y-120374D01*
Y-107204D01*
X25510Y-107121D01*
X25539Y-106917D01*
X25576Y-106754D01*
X25615Y-106635D01*
X25650Y-106558D01*
X25673Y-106521D01*
X25674Y-106519D01*
X25734Y-106488D01*
X25829Y-106410D01*
X25936Y-106347D01*
X25952Y-106325D01*
X25978Y-106308D01*
X26006Y-106266D01*
X26042Y-106237D01*
X26101Y-106128D01*
X26175Y-106029D01*
X26182Y-106003D01*
X26243Y-105912D01*
X26335Y-105445D01*
Y-104264D01*
X26243Y-103797D01*
X26094Y-103575D01*
X26243Y-103353D01*
X26335Y-102886D01*
Y-102796D01*
X24033D01*
X21730D01*
Y-102886D01*
X21823Y-103353D01*
X21971Y-103575D01*
X21823Y-103797D01*
X21730Y-104264D01*
Y-104419D01*
X21581Y-104642D01*
X21425Y-105423D01*
Y-120374D01*
X21413Y-120477D01*
X21374Y-120661D01*
X21320Y-120840D01*
X21249Y-121017D01*
X21162Y-121192D01*
X21056Y-121367D01*
X20930Y-121543D01*
X20783Y-121719D01*
X20658Y-121850D01*
X20575Y-121914D01*
X19994Y-122672D01*
X19637Y-122612D01*
X19494Y-122539D01*
Y-101776D01*
X21730D01*
Y-101796D01*
X24033D01*
X26335D01*
Y-101705D01*
X26243Y-101238D01*
X26094Y-101016D01*
X26243Y-100794D01*
X26335Y-100327D01*
Y-99146D01*
X26243Y-98679D01*
X25978Y-98283D01*
X25582Y-98019D01*
X25115Y-97926D01*
X24922D01*
X24813Y-97853D01*
X24033Y-97697D01*
X19494D01*
Y-93858D01*
X24332D01*
X25245Y-93737D01*
X26097Y-93385D01*
X26726Y-92902D01*
X27103D01*
Y-92465D01*
X27389Y-92093D01*
X27742Y-91241D01*
X27862Y-90328D01*
X27742Y-89414D01*
X27389Y-88562D01*
X27140Y-88238D01*
X27103Y-87753D01*
Y-87391D01*
X27103D01*
Y-85316D01*
X21560D01*
Y-86797D01*
X19494D01*
Y-71304D01*
X21537D01*
Y-71324D01*
X23840D01*
X26143D01*
Y-71233D01*
X26050Y-70766D01*
X25901Y-70544D01*
X26050Y-70322D01*
X26143Y-69855D01*
Y-68674D01*
X26050Y-68207D01*
X25785Y-67811D01*
X25389Y-67546D01*
X24922Y-67454D01*
X24729D01*
X24620Y-67380D01*
X23840Y-67225D01*
X19494D01*
Y-56850D01*
X21166D01*
Y-58331D01*
X23938D01*
X26710D01*
Y-56257D01*
X26710D01*
X26710Y-55894D01*
X26746Y-55409D01*
X26995Y-55085D01*
X27348Y-54233D01*
X27468Y-53320D01*
X27348Y-52406D01*
X26995Y-51555D01*
X26710Y-51182D01*
Y-50745D01*
X26332D01*
X25703Y-50262D01*
X24852Y-49910D01*
X23938Y-49789D01*
X19494D01*
Y-36554D01*
X19637Y-36481D01*
X19994Y-36421D01*
X20575Y-37179D01*
X21421Y-37829D01*
X22407Y-38237D01*
X23465Y-38376D01*
X24522Y-38237D01*
X25508Y-37829D01*
X26354Y-37179D01*
X27003Y-36333D01*
X27411Y-35348D01*
X27551Y-34290D01*
X27411Y-33232D01*
X27003Y-32247D01*
X26354Y-31401D01*
X25508Y-30751D01*
X24522Y-30343D01*
X23465Y-30204D01*
X22407Y-30343D01*
X21421Y-30751D01*
X20575Y-31401D01*
X19926Y-32247D01*
X19759Y-32649D01*
X19229Y-32623D01*
X19035Y-31983D01*
X18477Y-30940D01*
X18155Y-30547D01*
Y-13072D01*
X18655Y-12973D01*
X18673Y-13017D01*
X19307Y-13843D01*
X20133Y-14476D01*
X21094Y-14875D01*
X21626Y-14945D01*
Y-11024D01*
Y-7103D01*
X21094Y-7173D01*
X20133Y-7571D01*
X19307Y-8204D01*
X18673Y-9030D01*
X18466Y-9531D01*
X17935Y-9505D01*
X17696Y-8716D01*
X17139Y-7674D01*
X16389Y-6761D01*
X15475Y-6011D01*
X14433Y-5454D01*
X13302Y-5110D01*
X12126Y-4995D01*
X10950Y-5110D01*
X9819Y-5454D01*
X8776Y-6011D01*
X7863Y-6761D01*
X7113Y-7674D01*
X6556Y-8716D01*
X6213Y-9847D01*
X6097Y-11024D01*
Y-32951D01*
X6213Y-34128D01*
X6556Y-35259D01*
X7113Y-36301D01*
X7283Y-36508D01*
X7435Y-36794D01*
Y-52930D01*
Y-69260D01*
Y-90390D01*
Y-99740D01*
Y-122306D01*
X4707Y-125034D01*
X3957Y-125948D01*
X3573Y-126666D01*
X3073Y-126541D01*
X3010Y-3123D01*
X3473Y-2660D01*
X51250D01*
X51324Y-3160D01*
X50758Y-3332D01*
X49542Y-3982D01*
X48476Y-4856D01*
X47602Y-5922D01*
X46951Y-7138D01*
X46551Y-8458D01*
X46416Y-9830D01*
X46551Y-11202D01*
X46951Y-12522D01*
X47602Y-13738D01*
X48476Y-14804D01*
X49542Y-15678D01*
X50758Y-16329D01*
X52078Y-16729D01*
X53450Y-16864D01*
X54822Y-16729D01*
X56142Y-16329D01*
X57020Y-15859D01*
X61205D01*
Y-17610D01*
X63779D01*
Y-18110D01*
X64280D01*
Y-20882D01*
X66354D01*
Y-20882D01*
X66716Y-20882D01*
X67202Y-20918D01*
X67526Y-21168D01*
X68378Y-21520D01*
X69291Y-21640D01*
X70205Y-21520D01*
X71056Y-21168D01*
X71429Y-20882D01*
X71866D01*
Y-20504D01*
X72349Y-19875D01*
X72701Y-19024D01*
X72821Y-18110D01*
Y-15859D01*
X87622D01*
Y-23402D01*
X95527D01*
Y-20721D01*
X95813Y-20530D01*
X97143Y-19200D01*
X97439Y-19346D01*
X97589Y-19460D01*
X97724Y-20481D01*
X98122Y-21442D01*
X98756Y-22268D01*
X99581Y-22901D01*
X100543Y-23300D01*
X101575Y-23436D01*
X102607Y-23300D01*
X103568Y-22901D01*
X104394Y-22268D01*
X104945Y-21550D01*
X104946Y-21549D01*
X104947Y-21547D01*
X105027Y-21442D01*
X105045Y-21400D01*
X105052Y-21389D01*
X105135Y-21286D01*
X105215Y-21203D01*
X105293Y-21137D01*
X105369Y-21086D01*
X105447Y-21046D01*
X105529Y-21014D01*
X105620Y-20991D01*
X105704Y-20978D01*
X105843D01*
X106429Y-20862D01*
X106925Y-20530D01*
X107237Y-20218D01*
X107710Y-20379D01*
X107724Y-20481D01*
X108122Y-21442D01*
X108756Y-22268D01*
X109581Y-22901D01*
X110543Y-23300D01*
X111575Y-23436D01*
X112607Y-23300D01*
X113568Y-22901D01*
X114394Y-22268D01*
X114945Y-21550D01*
X114946Y-21549D01*
X114947Y-21547D01*
X115001Y-21477D01*
X115065Y-21429D01*
X115202Y-21382D01*
X115486Y-21367D01*
X115633Y-21402D01*
X118815Y-24583D01*
X119311Y-24915D01*
X119896Y-25031D01*
X145475D01*
X146060Y-24915D01*
X146556Y-24583D01*
X157354Y-13786D01*
X157429Y-13737D01*
X157549Y-13677D01*
X157710Y-13616D01*
X157912Y-13559D01*
X158153Y-13510D01*
X158420Y-13471D01*
X159112Y-13424D01*
X159421Y-13422D01*
X159528Y-13436D01*
X160559Y-13300D01*
X161521Y-12901D01*
X162347Y-12268D01*
X162980Y-11442D01*
X163379Y-10481D01*
X163514Y-9449D01*
X163379Y-8417D01*
X162980Y-7455D01*
X162918Y-7374D01*
X163139Y-6925D01*
X165830D01*
X165992Y-7092D01*
X166098Y-7425D01*
X166075Y-7455D01*
X165676Y-8417D01*
X165541Y-9449D01*
X165676Y-10481D01*
X166075Y-11442D01*
X166708Y-12268D01*
X167534Y-12901D01*
X168496Y-13300D01*
X169528Y-13436D01*
X170559Y-13300D01*
X171521Y-12901D01*
X172347Y-12268D01*
X172980Y-11442D01*
X173379Y-10481D01*
X173514Y-9449D01*
X173379Y-8417D01*
X172980Y-7455D01*
X172347Y-6630D01*
X171521Y-5996D01*
X171405Y-5948D01*
X170578Y-5497D01*
X169389Y-4807D01*
X169062Y-4590D01*
X169026Y-4563D01*
X168711Y-4249D01*
X168215Y-3917D01*
X167630Y-3801D01*
X167298Y-3867D01*
X157849D01*
X157264Y-3983D01*
X156767Y-4315D01*
X153488Y-7594D01*
X153077Y-7513D01*
X152954Y-7421D01*
X152347Y-6630D01*
X151521Y-5996D01*
X150559Y-5598D01*
X149528Y-5462D01*
X148496Y-5598D01*
X147534Y-5996D01*
X146708Y-6630D01*
X146075Y-7455D01*
X145677Y-8417D01*
X145541Y-9449D01*
X145555Y-9556D01*
X145553Y-9864D01*
X145505Y-10556D01*
X145467Y-10824D01*
X145417Y-11065D01*
X145360Y-11266D01*
X145299Y-11427D01*
X145240Y-11548D01*
X145191Y-11623D01*
X143942Y-12871D01*
X143480Y-12680D01*
Y-5496D01*
X135575D01*
Y-7919D01*
X127361D01*
X127258Y-7884D01*
X126860Y-7498D01*
X126764Y-6525D01*
X126421Y-5394D01*
X125864Y-4352D01*
X125114Y-3438D01*
X124775Y-3160D01*
X124954Y-2660D01*
X195770D01*
Y-197820D01*
D02*
G37*
G36*
X114228Y-18110D02*
X114369Y-18286D01*
X114519Y-18442D01*
X114679Y-18576D01*
X114849Y-18690D01*
X115028Y-18783D01*
X115217Y-18856D01*
X115416Y-18907D01*
X115625Y-18938D01*
X115843Y-18949D01*
Y-19949D01*
X115625Y-19959D01*
X115416Y-19990D01*
X115217Y-20042D01*
X115028Y-20114D01*
X114849Y-20208D01*
X114679Y-20321D01*
X114519Y-20456D01*
X114369Y-20611D01*
X114228Y-20787D01*
X114097Y-20984D01*
Y-17914D01*
X114228Y-18110D01*
D02*
G37*
G36*
X104228D02*
X104369Y-18286D01*
X104519Y-18442D01*
X104679Y-18576D01*
X104849Y-18690D01*
X105028Y-18783D01*
X105217Y-18856D01*
X105416Y-18907D01*
X105625Y-18938D01*
X105843Y-18949D01*
Y-19949D01*
X105625Y-19959D01*
X105416Y-19990D01*
X105217Y-20042D01*
X105028Y-20114D01*
X104849Y-20208D01*
X104679Y-20321D01*
X104519Y-20456D01*
X104369Y-20611D01*
X104228Y-20787D01*
X104097Y-20984D01*
Y-17914D01*
X104228Y-18110D01*
D02*
G37*
G36*
X123986Y-17680D02*
X124560Y-18181D01*
X124832Y-18385D01*
X125095Y-18557D01*
X125347Y-18698D01*
X125589Y-18808D01*
X125822Y-18886D01*
X126044Y-18933D01*
X126257Y-18949D01*
Y-19949D01*
X126044Y-19964D01*
X125822Y-20011D01*
X125589Y-20090D01*
X125347Y-20200D01*
X125095Y-20340D01*
X124832Y-20513D01*
X124560Y-20717D01*
X123986Y-21218D01*
X123684Y-21516D01*
Y-17382D01*
X123986Y-17680D01*
D02*
G37*
G36*
X145278Y-29452D02*
X145441Y-29580D01*
X145615Y-29693D01*
X145799Y-29790D01*
X145994Y-29873D01*
X146200Y-29940D01*
X146417Y-29992D01*
X146644Y-30030D01*
X146882Y-30053D01*
X147131Y-30060D01*
Y-32060D01*
X146882Y-32067D01*
X146644Y-32090D01*
X146417Y-32127D01*
X146200Y-32180D01*
X145994Y-32247D01*
X145799Y-32330D01*
X145615Y-32427D01*
X145441Y-32540D01*
X145278Y-32667D01*
X145125Y-32810D01*
Y-29310D01*
X145278Y-29452D01*
D02*
G37*
G36*
X156018Y-32302D02*
X155990Y-32362D01*
X155964Y-32462D01*
X155942Y-32602D01*
X155924Y-32782D01*
X155888Y-33562D01*
X155882Y-34282D01*
X153882D01*
X153880Y-33902D01*
X153773Y-32362D01*
X153744Y-32302D01*
X153712Y-32282D01*
X156051D01*
X156018Y-32302D01*
D02*
G37*
G36*
X151477Y-51327D02*
X147414Y-52561D01*
X147573Y-52382D01*
X147673Y-52223D01*
X147714Y-52081D01*
X147697Y-51959D01*
X147620Y-51855D01*
X147485Y-51771D01*
X147291Y-51705D01*
X147038Y-51658D01*
X146726Y-51629D01*
X146356Y-51620D01*
X148356Y-49620D01*
X148750Y-49606D01*
X149132Y-49563D01*
X149503Y-49493D01*
X149862Y-49394D01*
X150209Y-49266D01*
X150545Y-49111D01*
X150869Y-48927D01*
X151181Y-48715D01*
X151481Y-48474D01*
X151770Y-48206D01*
X151477Y-51327D01*
D02*
G37*
G36*
X141393Y-49768D02*
Y-53761D01*
X137790D01*
X137010Y-53916D01*
X136348Y-54358D01*
X131188Y-59518D01*
X131029Y-59756D01*
X130529Y-59604D01*
Y-49515D01*
X132525Y-47519D01*
X141393D01*
Y-49768D01*
D02*
G37*
G36*
X108746Y-59805D02*
X108100Y-60588D01*
X107837Y-60971D01*
X107615Y-61348D01*
X107433Y-61718D01*
X107292Y-62083D01*
X107191Y-62442D01*
X107130Y-62795D01*
X107110Y-63142D01*
X105110Y-63161D01*
X105090Y-62812D01*
X105028Y-62458D01*
X104926Y-62100D01*
X104783Y-61736D01*
X104599Y-61369D01*
X104375Y-60996D01*
X104109Y-60619D01*
X103803Y-60238D01*
X103455Y-59851D01*
X103067Y-59461D01*
X109130Y-59405D01*
X108746Y-59805D01*
D02*
G37*
G36*
X99449Y-79070D02*
X99485Y-79078D01*
X99537Y-79085D01*
X99692Y-79097D01*
X100207Y-79110D01*
X100378Y-79110D01*
Y-81110D01*
X99431Y-81160D01*
Y-79060D01*
X99449Y-79070D01*
D02*
G37*
G36*
X97289Y-81160D02*
X97271Y-81151D01*
X97235Y-81142D01*
X97183Y-81134D01*
X97028Y-81122D01*
X96513Y-81111D01*
X96342Y-81110D01*
Y-79110D01*
X97289Y-79060D01*
Y-81160D01*
D02*
G37*
G36*
X100640Y-83768D02*
X100787Y-83863D01*
X100956Y-83947D01*
X101150Y-84019D01*
X101366Y-84081D01*
X101606Y-84131D01*
X101869Y-84170D01*
X102466Y-84214D01*
X102799Y-84220D01*
Y-84520D01*
X102466Y-84526D01*
X101869Y-84570D01*
X101606Y-84609D01*
X101366Y-84659D01*
X101150Y-84721D01*
X100956Y-84793D01*
X100787Y-84877D01*
X100640Y-84972D01*
X100517Y-85078D01*
Y-83662D01*
X100640Y-83768D01*
D02*
G37*
G36*
X94929Y-83329D02*
X94965Y-83338D01*
X95017Y-83346D01*
X95172Y-83358D01*
X95687Y-83369D01*
X95858Y-83370D01*
Y-85370D01*
X94911Y-85420D01*
Y-83320D01*
X94929Y-83329D01*
D02*
G37*
G36*
X92769Y-85420D02*
X92751Y-85410D01*
X92715Y-85402D01*
X92663Y-85395D01*
X92508Y-85382D01*
X91993Y-85370D01*
X91822Y-85370D01*
Y-83370D01*
X92769Y-83320D01*
Y-85420D01*
D02*
G37*
G36*
X104824Y-85790D02*
X105154Y-86196D01*
X105213Y-86260D01*
X105334Y-86385D01*
X105199Y-86675D01*
X105150Y-86630D01*
X105100Y-86597D01*
X105049Y-86573D01*
X104998Y-86559D01*
X104946Y-86556D01*
X104894Y-86562D01*
X104841Y-86579D01*
X104788Y-86606D01*
X104734Y-86644D01*
X104679Y-86691D01*
X104773Y-85718D01*
X104824Y-85790D01*
D02*
G37*
G36*
X123748Y-85447D02*
X123543Y-85760D01*
X123460Y-85911D01*
X123390Y-86059D01*
X123332Y-86202D01*
X123287Y-86342D01*
X123256Y-86478D01*
X123236Y-86611D01*
X123230Y-86739D01*
X122930D01*
X122924Y-86611D01*
X122904Y-86478D01*
X122872Y-86342D01*
X122828Y-86202D01*
X122770Y-86059D01*
X122700Y-85911D01*
X122617Y-85760D01*
X122412Y-85447D01*
X122291Y-85284D01*
X123869D01*
X123748Y-85447D01*
D02*
G37*
G36*
X115275Y-84913D02*
X115180Y-85060D01*
X115096Y-85230D01*
X115024Y-85423D01*
X114963Y-85640D01*
X114912Y-85879D01*
X114873Y-86143D01*
X114829Y-86739D01*
X114823Y-87072D01*
X114523D01*
X114518Y-86739D01*
X114473Y-86143D01*
X114434Y-85879D01*
X114384Y-85640D01*
X114322Y-85423D01*
X114250Y-85230D01*
X114166Y-85060D01*
X114072Y-84913D01*
X113966Y-84790D01*
X115381D01*
X115275Y-84913D01*
D02*
G37*
G36*
X110932Y-85422D02*
X110969Y-85592D01*
X111030Y-85772D01*
X111115Y-85959D01*
X111225Y-86156D01*
X111359Y-86361D01*
X111518Y-86575D01*
X111908Y-87028D01*
X112139Y-87267D01*
X111927Y-87479D01*
X111688Y-87248D01*
X111235Y-86858D01*
X111021Y-86699D01*
X110816Y-86565D01*
X110619Y-86455D01*
X110432Y-86370D01*
X110252Y-86309D01*
X110082Y-86272D01*
X109919Y-86260D01*
X110920Y-85259D01*
X110932Y-85422D01*
D02*
G37*
G36*
X120730Y-87970D02*
X120622Y-87989D01*
X120344Y-88056D01*
X120267Y-88082D01*
X120197Y-88110D01*
X120135Y-88139D01*
X120081Y-88170D01*
X120034Y-88203D01*
X119995Y-88237D01*
X119746Y-88062D01*
X119786Y-88017D01*
X119819Y-87966D01*
X119847Y-87909D01*
X119869Y-87848D01*
X119885Y-87780D01*
X119894Y-87708D01*
X119898Y-87630D01*
X119895Y-87547D01*
X119887Y-87459D01*
X119872Y-87365D01*
X120730Y-87970D01*
D02*
G37*
G36*
X116364Y-89565D02*
X116323Y-89547D01*
X116284Y-89535D01*
X116244Y-89528D01*
X116205Y-89527D01*
X116167Y-89532D01*
X116128Y-89543D01*
X116091Y-89559D01*
X116053Y-89581D01*
X116016Y-89609D01*
X115979Y-89643D01*
X115767Y-89431D01*
X115809Y-89386D01*
X115846Y-89342D01*
X115877Y-89297D01*
X115904Y-89252D01*
X115927Y-89207D01*
X115944Y-89161D01*
X115956Y-89115D01*
X115963Y-89069D01*
X115966Y-89022D01*
X115964Y-88975D01*
X116364Y-89565D01*
D02*
G37*
G36*
X99419Y-87559D02*
X99455Y-87568D01*
X99507Y-87576D01*
X99662Y-87587D01*
X100177Y-87599D01*
X100348Y-87600D01*
Y-89600D01*
X99401Y-89650D01*
Y-87550D01*
X99419Y-87559D01*
D02*
G37*
G36*
X97259Y-89650D02*
X97241Y-89640D01*
X97205Y-89632D01*
X97153Y-89625D01*
X96998Y-89613D01*
X96483Y-89600D01*
X96312Y-89600D01*
Y-87600D01*
X97259Y-87550D01*
Y-89650D01*
D02*
G37*
G36*
X111326Y-89926D02*
X111612Y-90429D01*
X111641Y-90466D01*
X111668Y-90496D01*
X111567Y-90819D01*
X111521Y-90778D01*
X111471Y-90746D01*
X111418Y-90723D01*
X111363Y-90709D01*
X111304Y-90703D01*
X111243Y-90706D01*
X111178Y-90717D01*
X111111Y-90737D01*
X111041Y-90766D01*
X110967Y-90804D01*
X111274Y-89820D01*
X111326Y-89926D01*
D02*
G37*
G36*
X102752Y-88762D02*
X102789Y-88932D01*
X102850Y-89112D01*
X102935Y-89299D01*
X103045Y-89496D01*
X103179Y-89701D01*
X103338Y-89915D01*
X103728Y-90368D01*
X103959Y-90607D01*
X103747Y-90819D01*
X103508Y-90588D01*
X103055Y-90198D01*
X102841Y-90039D01*
X102636Y-89905D01*
X102439Y-89795D01*
X102252Y-89710D01*
X102072Y-89649D01*
X101901Y-89612D01*
X101739Y-89600D01*
X102740Y-88599D01*
X102752Y-88762D01*
D02*
G37*
G36*
X106598Y-89926D02*
X106738Y-90046D01*
X106806Y-90095D01*
X106872Y-90136D01*
X106936Y-90170D01*
X106998Y-90196D01*
X107059Y-90215D01*
X107118Y-90226D01*
X107175Y-90230D01*
Y-90530D01*
X107118Y-90534D01*
X107059Y-90545D01*
X106998Y-90564D01*
X106936Y-90590D01*
X106872Y-90624D01*
X106806Y-90665D01*
X106738Y-90714D01*
X106669Y-90770D01*
X106526Y-90905D01*
Y-89855D01*
X106598Y-89926D01*
D02*
G37*
G36*
X179862Y-89375D02*
X179922Y-89403D01*
X180022Y-89429D01*
X180162Y-89451D01*
X180342Y-89469D01*
X181122Y-89505D01*
X181842Y-89512D01*
Y-91511D01*
X181462Y-91513D01*
X179922Y-91620D01*
X179862Y-91649D01*
X179842Y-91681D01*
Y-89342D01*
X179862Y-89375D01*
D02*
G37*
G36*
X177898Y-91681D02*
X177878Y-91654D01*
X177818Y-91630D01*
X177718Y-91609D01*
X177578Y-91591D01*
X177178Y-91562D01*
X175898Y-91540D01*
Y-89540D01*
X176278Y-89538D01*
X177718Y-89443D01*
X177818Y-89413D01*
X177878Y-89380D01*
X177898Y-89342D01*
Y-91681D01*
D02*
G37*
G36*
X187289Y-92567D02*
X187073Y-92366D01*
X186851Y-92187D01*
X186622Y-92029D01*
X186386Y-91891D01*
X186144Y-91775D01*
X185895Y-91680D01*
X185640Y-91606D01*
X185378Y-91554D01*
X185110Y-91522D01*
X184835Y-91511D01*
X184806Y-89512D01*
X185082Y-89501D01*
X185351Y-89468D01*
X185612Y-89415D01*
X185866Y-89339D01*
X186113Y-89242D01*
X186352Y-89123D01*
X186584Y-88983D01*
X186808Y-88822D01*
X187025Y-88638D01*
X187234Y-88434D01*
X187289Y-92567D01*
D02*
G37*
G36*
X121151Y-91720D02*
X120989Y-91732D01*
X120818Y-91769D01*
X120639Y-91830D01*
X120451Y-91915D01*
X120254Y-92025D01*
X120049Y-92159D01*
X119835Y-92318D01*
X119382Y-92708D01*
X119143Y-92939D01*
X118931Y-92727D01*
X119162Y-92488D01*
X119552Y-92035D01*
X119711Y-91821D01*
X119845Y-91616D01*
X119955Y-91419D01*
X120040Y-91232D01*
X120101Y-91052D01*
X120138Y-90882D01*
X120150Y-90719D01*
X121151Y-91720D01*
D02*
G37*
G36*
X118623Y-93459D02*
X118571Y-93514D01*
X118485Y-93615D01*
X118453Y-93661D01*
X118427Y-93705D01*
X118408Y-93746D01*
X118396Y-93785D01*
X118390Y-93820D01*
X118391Y-93853D01*
X118399Y-93883D01*
X118165Y-93292D01*
X118180Y-93316D01*
X118200Y-93329D01*
X118227Y-93332D01*
X118260Y-93326D01*
X118300Y-93308D01*
X118345Y-93281D01*
X118397Y-93243D01*
X118455Y-93195D01*
X118589Y-93068D01*
X118623Y-93459D01*
D02*
G37*
G36*
X94789Y-91589D02*
X94825Y-91598D01*
X94877Y-91606D01*
X95032Y-91618D01*
X95547Y-91629D01*
X95718Y-91630D01*
Y-93630D01*
X94771Y-93680D01*
Y-91580D01*
X94789Y-91589D01*
D02*
G37*
G36*
X92629Y-93680D02*
X92611Y-93670D01*
X92575Y-93662D01*
X92523Y-93655D01*
X92368Y-93642D01*
X91853Y-93630D01*
X91682Y-93630D01*
Y-91630D01*
X92629Y-91580D01*
Y-93680D01*
D02*
G37*
G36*
X104231Y-94829D02*
X104245Y-95013D01*
X104259Y-95095D01*
X104276Y-95171D01*
X104297Y-95240D01*
X104323Y-95303D01*
X104352Y-95359D01*
X104386Y-95409D01*
X104424Y-95452D01*
X104212Y-95664D01*
X104169Y-95626D01*
X104119Y-95592D01*
X104063Y-95563D01*
X104000Y-95537D01*
X103931Y-95516D01*
X103855Y-95499D01*
X103773Y-95485D01*
X103684Y-95476D01*
X103488Y-95470D01*
X104230Y-94727D01*
X104231Y-94829D01*
D02*
G37*
G36*
X108211Y-95657D02*
X108205Y-95660D01*
X108193Y-95669D01*
X108175Y-95685D01*
X107877Y-95975D01*
X107723Y-95705D01*
X107781Y-95645D01*
X107872Y-95538D01*
X107906Y-95490D01*
X107932Y-95445D01*
X107951Y-95405D01*
X107962Y-95368D01*
X107965Y-95335D01*
X107960Y-95306D01*
X107947Y-95280D01*
X108211Y-95657D01*
D02*
G37*
G36*
X109226Y-96368D02*
X109271Y-96404D01*
X109318Y-96436D01*
X109366Y-96464D01*
X109417Y-96487D01*
X109469Y-96506D01*
X109523Y-96521D01*
X109578Y-96531D01*
X109636Y-96538D01*
X109695Y-96540D01*
X109333Y-96840D01*
X108670Y-96540D01*
X108725Y-96538D01*
X108770Y-96531D01*
X108804Y-96521D01*
X108828Y-96506D01*
X108842Y-96487D01*
X108846Y-96464D01*
X108839Y-96436D01*
X108823Y-96404D01*
X108796Y-96368D01*
X108758Y-96328D01*
X109183D01*
X109226Y-96368D01*
D02*
G37*
G36*
X115402Y-97097D02*
X115412Y-97123D01*
X115427Y-97145D01*
X115449Y-97164D01*
X115477Y-97181D01*
X115512Y-97194D01*
X115552Y-97205D01*
X115599Y-97212D01*
X115652Y-97217D01*
X115711Y-97219D01*
Y-97518D01*
X115652Y-97520D01*
X115599Y-97524D01*
X115552Y-97532D01*
X115512Y-97543D01*
X115477Y-97556D01*
X115449Y-97572D01*
X115427Y-97592D01*
X115412Y-97615D01*
X115402Y-97640D01*
X115399Y-97668D01*
Y-97069D01*
X115402Y-97097D01*
D02*
G37*
G36*
X113947Y-97668D02*
X113944Y-97640D01*
X113935Y-97615D01*
X113919Y-97592D01*
X113897Y-97572D01*
X113869Y-97556D01*
X113835Y-97543D01*
X113794Y-97532D01*
X113748Y-97524D01*
X113695Y-97520D01*
X113635Y-97518D01*
Y-97219D01*
X113695Y-97217D01*
X113748Y-97212D01*
X113794Y-97205D01*
X113835Y-97194D01*
X113869Y-97181D01*
X113897Y-97164D01*
X113919Y-97145D01*
X113935Y-97123D01*
X113944Y-97097D01*
X113947Y-97069D01*
Y-97668D01*
D02*
G37*
G36*
X89306Y-98302D02*
X89277Y-98362D01*
X89251Y-98462D01*
X89229Y-98602D01*
X89211Y-98782D01*
X89175Y-99562D01*
X89169Y-100282D01*
X87169D01*
X87167Y-99902D01*
X87060Y-98362D01*
X87032Y-98302D01*
X86999Y-98282D01*
X89338D01*
X89306Y-98302D01*
D02*
G37*
G36*
X103897Y-99905D02*
X103869Y-99936D01*
X103843Y-99968D01*
X103821Y-100002D01*
X103802Y-100038D01*
X103786Y-100075D01*
X103772Y-100114D01*
X103762Y-100154D01*
X103755Y-100196D01*
X103751Y-100240D01*
X103750Y-100285D01*
X103305Y-99840D01*
X103350Y-99839D01*
X103394Y-99835D01*
X103436Y-99828D01*
X103476Y-99818D01*
X103515Y-99804D01*
X103552Y-99788D01*
X103588Y-99769D01*
X103622Y-99747D01*
X103654Y-99721D01*
X103685Y-99693D01*
X103897Y-99905D01*
D02*
G37*
G36*
X102293Y-99219D02*
X102255Y-99245D01*
X101934Y-99724D01*
X101921Y-99790D01*
X103300D01*
Y-100290D01*
X103800D01*
Y-101669D01*
X103866Y-101656D01*
X104345Y-101335D01*
X104666Y-100856D01*
X104734Y-100514D01*
X106485Y-98763D01*
X106801Y-98763D01*
X107246Y-99209D01*
X107243Y-106307D01*
X104845D01*
X104732Y-106138D01*
X104070Y-105696D01*
X103290Y-105541D01*
X91097D01*
X90616Y-104914D01*
X90208Y-104600D01*
Y-99304D01*
X90208Y-99294D01*
X90350D01*
Y-98719D01*
X102141D01*
X102293Y-99219D01*
D02*
G37*
G36*
X22696Y-105343D02*
X22750Y-105445D01*
X25257Y-105587D01*
X25106Y-105666D01*
X24972Y-105774D01*
X24853Y-105910D01*
X24750Y-106074D01*
X24663Y-106265D01*
X24591Y-106485D01*
X24536Y-106733D01*
X24496Y-107009D01*
X24473Y-107313D01*
X24465Y-107645D01*
X22465D01*
X22467Y-107103D01*
X22567Y-105467D01*
X22604Y-105354D01*
X22647Y-105313D01*
X22696Y-105343D01*
D02*
G37*
G36*
X108862Y-107630D02*
X108803Y-107632D01*
X108746Y-107639D01*
X108690Y-107649D01*
X108636Y-107664D01*
X108584Y-107683D01*
X108534Y-107706D01*
X108485Y-107734D01*
X108438Y-107766D01*
X108393Y-107802D01*
X108350Y-107842D01*
X107967Y-107801D01*
X107997Y-107768D01*
X108017Y-107739D01*
X108027Y-107714D01*
X108028Y-107692D01*
X108020Y-107673D01*
X108003Y-107657D01*
X107975Y-107645D01*
X107939Y-107637D01*
X107893Y-107632D01*
X107838Y-107630D01*
X108500Y-107330D01*
X108862Y-107630D01*
D02*
G37*
G36*
X106901Y-109468D02*
X106923Y-109582D01*
Y-111129D01*
X106634Y-111417D01*
X105190D01*
X105053Y-111328D01*
X104995Y-111285D01*
X104892Y-111234D01*
X104603Y-111041D01*
X104420Y-111005D01*
Y-112128D01*
X104467Y-112163D01*
X104703Y-112317D01*
X104774Y-112355D01*
X104842Y-112385D01*
X104906Y-112409D01*
X104967Y-112426D01*
X105024Y-112437D01*
X105077Y-112440D01*
X105118Y-112740D01*
X105058Y-112744D01*
X104999Y-112756D01*
X104939Y-112776D01*
X104879Y-112804D01*
X104819Y-112840D01*
X104760Y-112884D01*
X104700Y-112935D01*
X104640Y-112995D01*
X104580Y-113063D01*
X104521Y-113139D01*
X104420Y-112390D01*
Y-112690D01*
X103920D01*
Y-113190D01*
X102235D01*
X102271Y-113373D01*
X102658Y-113952D01*
X103237Y-114339D01*
X103920Y-114474D01*
X103933Y-114472D01*
X104179Y-114933D01*
X102564Y-116548D01*
X90330D01*
Y-115035D01*
X90332Y-115026D01*
X90330Y-114998D01*
Y-114966D01*
X90337Y-114928D01*
X90330Y-114890D01*
Y-113916D01*
X90229D01*
X90208Y-113573D01*
Y-112268D01*
X90324Y-111075D01*
X90398Y-110628D01*
X90480Y-110271D01*
X90561Y-110024D01*
X90618Y-109904D01*
X90837Y-109619D01*
X103290D01*
X104070Y-109464D01*
X104732Y-109022D01*
X104979Y-108652D01*
X106901D01*
Y-109468D01*
D02*
G37*
G36*
X89743Y-109371D02*
X89612Y-109644D01*
X89497Y-109997D01*
X89397Y-110430D01*
X89312Y-110943D01*
X89189Y-112207D01*
X89161Y-112928D01*
X89169D01*
X89170Y-113308D01*
X89264Y-114848D01*
X89289Y-114908D01*
X89318Y-114928D01*
X86979D01*
X87006Y-114908D01*
X87030Y-114848D01*
X87051Y-114748D01*
X87069Y-114608D01*
X87098Y-114208D01*
X87106Y-113700D01*
X86928Y-110943D01*
X86843Y-110430D01*
X86743Y-109997D01*
X86628Y-109644D01*
X86497Y-109371D01*
X86351Y-109177D01*
X89889D01*
X89743Y-109371D01*
D02*
G37*
G36*
X88916Y-117826D02*
X88807Y-117938D01*
X88547Y-118245D01*
X88482Y-118336D01*
X88429Y-118423D01*
X88388Y-118505D01*
X88357Y-118581D01*
X88338Y-118653D01*
X88330Y-118719D01*
X87811Y-118200D01*
X87877Y-118192D01*
X87949Y-118173D01*
X88025Y-118142D01*
X88107Y-118101D01*
X88194Y-118048D01*
X88285Y-117983D01*
X88485Y-117821D01*
X88592Y-117723D01*
X88704Y-117614D01*
X88916Y-117826D01*
D02*
G37*
G36*
X111629Y-117643D02*
X111398Y-117882D01*
X111008Y-118335D01*
X110849Y-118549D01*
X110715Y-118754D01*
X110605Y-118951D01*
X110520Y-119139D01*
X110459Y-119318D01*
X110422Y-119489D01*
X110410Y-119651D01*
X109409Y-118650D01*
X109572Y-118638D01*
X109742Y-118601D01*
X109922Y-118540D01*
X110109Y-118455D01*
X110306Y-118345D01*
X110511Y-118211D01*
X110725Y-118052D01*
X111178Y-117662D01*
X111417Y-117431D01*
X111629Y-117643D01*
D02*
G37*
G36*
X94711Y-119035D02*
X94774Y-119070D01*
X94850Y-119100D01*
X94941Y-119127D01*
X95046Y-119149D01*
X95166Y-119167D01*
X95448Y-119192D01*
X95787Y-119200D01*
Y-119500D01*
X95610Y-119502D01*
X95166Y-119533D01*
X95046Y-119551D01*
X94941Y-119573D01*
X94850Y-119600D01*
X94774Y-119630D01*
X94711Y-119665D01*
X94663Y-119704D01*
Y-118996D01*
X94711Y-119035D01*
D02*
G37*
G36*
X113574Y-119248D02*
X113536Y-119291D01*
X113502Y-119341D01*
X113473Y-119397D01*
X113447Y-119460D01*
X113426Y-119529D01*
X113409Y-119605D01*
X113395Y-119687D01*
X113386Y-119775D01*
X113380Y-119973D01*
X112637Y-119230D01*
X112739Y-119229D01*
X112923Y-119215D01*
X113005Y-119202D01*
X113081Y-119184D01*
X113150Y-119163D01*
X113213Y-119137D01*
X113269Y-119108D01*
X113319Y-119074D01*
X113362Y-119036D01*
X113574Y-119248D01*
D02*
G37*
G36*
X94731Y-120455D02*
X94794Y-120490D01*
X94870Y-120520D01*
X94961Y-120547D01*
X95066Y-120569D01*
X95186Y-120587D01*
X95468Y-120612D01*
X95807Y-120620D01*
Y-120920D01*
X95630Y-120922D01*
X95186Y-120953D01*
X95066Y-120971D01*
X94961Y-120993D01*
X94870Y-121020D01*
X94794Y-121050D01*
X94731Y-121085D01*
X94683Y-121124D01*
Y-120416D01*
X94731Y-120455D01*
D02*
G37*
G36*
X24476Y-120371D02*
X24510Y-120646D01*
X24567Y-120915D01*
X24646Y-121177D01*
X24748Y-121434D01*
X24873Y-121684D01*
X25021Y-121929D01*
X25192Y-122167D01*
X25385Y-122398D01*
X25600Y-122624D01*
X21329D01*
X21545Y-122398D01*
X21738Y-122167D01*
X21908Y-121929D01*
X22056Y-121684D01*
X22181Y-121434D01*
X22283Y-121177D01*
X22362Y-120915D01*
X22419Y-120646D01*
X22453Y-120371D01*
X22465Y-120090D01*
X24465D01*
X24476Y-120371D01*
D02*
G37*
G36*
X96290Y-122508D02*
X96437Y-122603D01*
X96606Y-122687D01*
X96800Y-122759D01*
X97016Y-122821D01*
X97256Y-122871D01*
X97519Y-122910D01*
X98116Y-122954D01*
X98449Y-122960D01*
Y-123260D01*
X98116Y-123266D01*
X97519Y-123310D01*
X97256Y-123349D01*
X97016Y-123399D01*
X96800Y-123461D01*
X96606Y-123533D01*
X96437Y-123617D01*
X96290Y-123712D01*
X96167Y-123818D01*
Y-122402D01*
X96290Y-122508D01*
D02*
G37*
G36*
X130846Y-124415D02*
X129254D01*
X129900Y-123564D01*
X130200D01*
X130846Y-124415D01*
D02*
G37*
G36*
X127749Y-123952D02*
X127768Y-124042D01*
X127800Y-124141D01*
X127846Y-124250D01*
X127904Y-124368D01*
X128060Y-124634D01*
X128157Y-124781D01*
X128390Y-125105D01*
X126794D01*
X126917Y-124938D01*
X127209Y-124496D01*
X127280Y-124368D01*
X127384Y-124141D01*
X127416Y-124042D01*
X127436Y-123952D01*
X127442Y-123872D01*
X127742D01*
X127749Y-123952D01*
D02*
G37*
G36*
X125148Y-124051D02*
X125168Y-124166D01*
X125200Y-124287D01*
X125245Y-124415D01*
X125303Y-124548D01*
X125374Y-124688D01*
X125554Y-124986D01*
X125663Y-125145D01*
X125786Y-125309D01*
X124199D01*
X124321Y-125145D01*
X124527Y-124834D01*
X124610Y-124688D01*
X124739Y-124415D01*
X124784Y-124287D01*
X124816Y-124166D01*
X124836Y-124051D01*
X124842Y-123942D01*
X125142D01*
X125148Y-124051D01*
D02*
G37*
G36*
X131282Y-123702D02*
X131735Y-124092D01*
X131949Y-124251D01*
X132154Y-124385D01*
X132351Y-124495D01*
X132538Y-124580D01*
X132718Y-124641D01*
X132888Y-124678D01*
X133051Y-124690D01*
X132050Y-125691D01*
X132038Y-125529D01*
X132001Y-125358D01*
X131940Y-125179D01*
X131855Y-124991D01*
X131745Y-124794D01*
X131611Y-124589D01*
X131452Y-124375D01*
X131062Y-123922D01*
X130831Y-123683D01*
X131043Y-123471D01*
X131282Y-123702D01*
D02*
G37*
G36*
X114229Y-123743D02*
X113998Y-123982D01*
X113608Y-124435D01*
X113449Y-124649D01*
X113315Y-124854D01*
X113205Y-125051D01*
X113120Y-125239D01*
X113059Y-125418D01*
X113022Y-125589D01*
X113010Y-125751D01*
X112009Y-124750D01*
X112171Y-124738D01*
X112342Y-124701D01*
X112522Y-124640D01*
X112709Y-124555D01*
X112906Y-124445D01*
X113111Y-124311D01*
X113325Y-124152D01*
X113778Y-123762D01*
X114017Y-123531D01*
X114229Y-123743D01*
D02*
G37*
G36*
X101747Y-123875D02*
X101516Y-124114D01*
X101126Y-124568D01*
X100967Y-124781D01*
X100833Y-124986D01*
X100723Y-125183D01*
X100638Y-125371D01*
X100577Y-125550D01*
X100540Y-125721D01*
X100528Y-125883D01*
X99527Y-124882D01*
X99689Y-124870D01*
X99860Y-124833D01*
X100039Y-124772D01*
X100227Y-124687D01*
X100424Y-124577D01*
X100629Y-124443D01*
X100842Y-124285D01*
X101296Y-123894D01*
X101535Y-123663D01*
X101747Y-123875D01*
D02*
G37*
G36*
X89030Y-124297D02*
X88768Y-124562D01*
X87774Y-125697D01*
X87705Y-125810D01*
X87664Y-125901D01*
X87650Y-125971D01*
X86649Y-124970D01*
X86719Y-124956D01*
X86810Y-124915D01*
X86923Y-124846D01*
X87058Y-124749D01*
X87393Y-124473D01*
X88058Y-123852D01*
X88323Y-123590D01*
X89030Y-124297D01*
D02*
G37*
G36*
X99096Y-124086D02*
X98897Y-124294D01*
X98559Y-124697D01*
X98421Y-124893D01*
X98303Y-125085D01*
X98205Y-125273D01*
X98128Y-125458D01*
X98071Y-125638D01*
X98034Y-125815D01*
X98018Y-125988D01*
X96983Y-124952D01*
X97155Y-124936D01*
X97332Y-124899D01*
X97512Y-124842D01*
X97697Y-124765D01*
X97885Y-124667D01*
X98077Y-124549D01*
X98273Y-124411D01*
X98473Y-124252D01*
X98884Y-123874D01*
X99096Y-124086D01*
D02*
G37*
G36*
X121127Y-118846D02*
Y-124312D01*
X120950Y-124430D01*
X120508Y-125092D01*
X120353Y-125872D01*
Y-126587D01*
X119853Y-126855D01*
X119630Y-126706D01*
X119350Y-126650D01*
Y-128590D01*
X118350D01*
Y-126650D01*
X118070Y-126706D01*
X117408Y-127148D01*
X117131Y-127562D01*
X116631Y-127411D01*
Y-125672D01*
X116476Y-124892D01*
X116446Y-124846D01*
Y-114817D01*
X116908Y-114626D01*
X121127Y-118846D01*
D02*
G37*
G36*
X120662Y-139428D02*
X120582Y-139458D01*
X120511Y-139508D01*
X120450Y-139578D01*
X120398Y-139668D01*
X120356Y-139778D01*
X120323Y-139908D01*
X120299Y-140058D01*
X120285Y-140228D01*
X120280Y-140418D01*
X119280D01*
X119275Y-140228D01*
X119261Y-140058D01*
X119237Y-139908D01*
X119204Y-139778D01*
X119162Y-139668D01*
X119110Y-139578D01*
X119049Y-139508D01*
X118978Y-139458D01*
X118897Y-139428D01*
X118808Y-139418D01*
X120752D01*
X120662Y-139428D01*
D02*
G37*
G36*
X120282Y-143563D02*
X120312Y-144013D01*
X120330Y-144123D01*
X120352Y-144213D01*
X120378Y-144283D01*
X120408Y-144333D01*
X120442Y-144363D01*
X120480Y-144373D01*
X119104D01*
X119138Y-144363D01*
X119167Y-144333D01*
X119194Y-144283D01*
X119217Y-144213D01*
X119236Y-144123D01*
X119252Y-144013D01*
X119273Y-143733D01*
X119280Y-143373D01*
X120280D01*
X120282Y-143563D01*
D02*
G37*
G36*
X119104Y-146125D02*
X119427Y-146152D01*
X119792Y-146161D01*
Y-148161D01*
X119427Y-148170D01*
X119104Y-148197D01*
Y-149073D01*
X119085Y-148900D01*
X119028Y-148745D01*
X118932Y-148608D01*
X118798Y-148490D01*
X118626Y-148389D01*
X118488Y-148336D01*
X118349Y-148389D01*
X118176Y-148490D01*
X118041Y-148608D01*
X117945Y-148745D01*
X117887Y-148900D01*
X117868Y-149073D01*
Y-148197D01*
X117555Y-148170D01*
X117192Y-148161D01*
Y-146161D01*
X117555Y-146152D01*
X117868Y-146126D01*
Y-145249D01*
X117887Y-145423D01*
X117945Y-145578D01*
X118041Y-145714D01*
X118176Y-145833D01*
X118349Y-145933D01*
X118488Y-145987D01*
X118626Y-145933D01*
X118798Y-145833D01*
X118932Y-145714D01*
X119028Y-145578D01*
X119085Y-145423D01*
X119104Y-145249D01*
Y-146125D01*
D02*
G37*
G36*
X161565Y-145520D02*
X161496Y-145580D01*
X161435Y-145680D01*
X161382Y-145820D01*
X161338Y-146000D01*
X161301Y-146220D01*
X161273Y-146480D01*
X161240Y-147120D01*
X161236Y-147500D01*
X159236D01*
X159232Y-147120D01*
X159171Y-146220D01*
X159135Y-146000D01*
X159090Y-145820D01*
X159038Y-145680D01*
X158977Y-145580D01*
X158908Y-145520D01*
X158831Y-145500D01*
X161642D01*
X161565Y-145520D01*
D02*
G37*
G36*
X157627D02*
X157559Y-145580D01*
X157498Y-145680D01*
X157445Y-145820D01*
X157401Y-146000D01*
X157364Y-146220D01*
X157336Y-146480D01*
X157303Y-147120D01*
X157299Y-147500D01*
X155299D01*
X155295Y-147120D01*
X155234Y-146220D01*
X155198Y-146000D01*
X155153Y-145820D01*
X155101Y-145680D01*
X155040Y-145580D01*
X154971Y-145520D01*
X154894Y-145500D01*
X157704D01*
X157627Y-145520D01*
D02*
G37*
G36*
X89927Y-146034D02*
X89962Y-146061D01*
X90021Y-146084D01*
X90102Y-146105D01*
X90208Y-146122D01*
X90336Y-146136D01*
X90863Y-146160D01*
X91085Y-146161D01*
Y-148161D01*
X90863Y-148163D01*
X90102Y-148218D01*
X90021Y-148239D01*
X89962Y-148262D01*
X89927Y-148289D01*
X89915Y-148319D01*
Y-146004D01*
X89927Y-146034D01*
D02*
G37*
G36*
X35561Y-144013D02*
X35681Y-145287D01*
X35786Y-145879D01*
X35921Y-146442D01*
X36086Y-146975D01*
X36281Y-147479D01*
X36506Y-147952D01*
X36761Y-148397D01*
X37046Y-148811D01*
X35686D01*
X35795Y-150524D01*
X35861Y-150674D01*
X35934Y-150724D01*
X30158D01*
X30232Y-150674D01*
X30298Y-150524D01*
X30356Y-150274D01*
X30407Y-149924D01*
X30484Y-148924D01*
X30487Y-148811D01*
X29047D01*
X29332Y-148397D01*
X29587Y-147952D01*
X29812Y-147479D01*
X30007Y-146975D01*
X30172Y-146442D01*
X30307Y-145879D01*
X30411Y-145287D01*
X30487Y-144665D01*
X30547Y-143332D01*
X35546D01*
X35561Y-144013D01*
D02*
G37*
G36*
X107371Y-120351D02*
Y-147071D01*
X107353Y-147161D01*
X107508Y-147942D01*
X107692Y-148217D01*
Y-150800D01*
X101339D01*
Y-147939D01*
X101412Y-147830D01*
X101567Y-147050D01*
Y-125882D01*
X101558Y-125837D01*
X101561Y-125822D01*
X101587Y-125747D01*
X101634Y-125643D01*
X101706Y-125515D01*
X101804Y-125364D01*
X101922Y-125205D01*
X102269Y-124802D01*
X102352Y-124716D01*
X106909Y-120159D01*
X107371Y-120351D01*
D02*
G37*
G36*
X161244Y-149059D02*
X161267Y-149297D01*
X161305Y-149524D01*
X161358Y-149740D01*
X161427Y-149945D01*
X161511Y-150139D01*
X161610Y-150322D01*
X161724Y-150494D01*
X161854Y-150654D01*
X161998Y-150804D01*
X158499Y-150866D01*
X158639Y-150711D01*
X158764Y-150545D01*
X158875Y-150370D01*
X158971Y-150184D01*
X159052Y-149987D01*
X159118Y-149780D01*
X159170Y-149563D01*
X159207Y-149335D01*
X159229Y-149097D01*
X159236Y-148848D01*
X161236Y-148810D01*
X161244Y-149059D01*
D02*
G37*
G36*
X185187Y-145520D02*
X185118Y-145580D01*
X185057Y-145680D01*
X185004Y-145820D01*
X184960Y-146000D01*
X184923Y-146220D01*
X184895Y-146480D01*
X184862Y-147120D01*
X184862Y-147196D01*
X184865Y-147328D01*
X184886Y-147567D01*
X184921Y-147795D01*
X184969Y-148015D01*
X185031Y-148225D01*
X185107Y-148425D01*
X185197Y-148616D01*
X185301Y-148797D01*
X185418Y-148969D01*
X185549Y-149132D01*
X183934Y-150780D01*
X185549Y-152428D01*
X185418Y-152591D01*
X185301Y-152763D01*
X185197Y-152944D01*
X185107Y-153135D01*
X185031Y-153335D01*
X184969Y-153545D01*
X184921Y-153764D01*
X184886Y-153993D01*
X184865Y-154232D01*
X184858Y-154480D01*
X182858Y-154645D01*
X182850Y-154395D01*
X182826Y-154157D01*
X182786Y-153931D01*
X182730Y-153718D01*
X182659Y-153517D01*
X182571Y-153327D01*
X182467Y-153150D01*
X182347Y-152986D01*
X182211Y-152833D01*
X182059Y-152692D01*
X183934Y-150780D01*
X182059Y-148868D01*
X182211Y-148727D01*
X182347Y-148574D01*
X182467Y-148410D01*
X182571Y-148232D01*
X182659Y-148043D01*
X182730Y-147842D01*
X182786Y-147629D01*
X182826Y-147403D01*
X182850Y-147165D01*
X182852Y-147095D01*
X182793Y-146220D01*
X182757Y-146000D01*
X182712Y-145820D01*
X182660Y-145680D01*
X182599Y-145580D01*
X182530Y-145520D01*
X182453Y-145500D01*
X185264D01*
X185187Y-145520D01*
D02*
G37*
G36*
X20759Y-156600D02*
X20739Y-156583D01*
X20678Y-156568D01*
X20579Y-156555D01*
X20258Y-156534D01*
X18758Y-156512D01*
Y-154512D01*
X20759Y-154424D01*
Y-156600D01*
D02*
G37*
G36*
X91792Y-151102D02*
X91704Y-151240D01*
X91730Y-151364D01*
X91871Y-151473D01*
X92126Y-151568D01*
X92496Y-151648D01*
X95122Y-151823D01*
X96064Y-151830D01*
X87150Y-156830D01*
Y-154330D01*
X88454Y-153423D01*
X86876Y-151845D01*
X87183Y-151794D01*
X87500Y-151705D01*
X87826Y-151581D01*
X88162Y-151420D01*
X88507Y-151222D01*
X88862Y-150988D01*
X89227Y-150718D01*
X89985Y-150068D01*
X90378Y-149688D01*
X91792Y-151102D01*
D02*
G37*
G36*
X161645Y-154715D02*
X159706Y-156878D01*
X158093Y-155663D01*
X158241Y-155503D01*
X158363Y-155348D01*
X158458Y-155196D01*
X158527Y-155048D01*
X158569Y-154904D01*
X158584Y-154764D01*
X158573Y-154628D01*
X158535Y-154496D01*
X158470Y-154368D01*
X158379Y-154244D01*
X161645Y-154715D01*
D02*
G37*
G36*
X17700Y-157600D02*
X17945Y-157551D01*
X19747D01*
Y-161312D01*
X21504D01*
X21519Y-161347D01*
X21559Y-161497D01*
X21594Y-161709D01*
X21607Y-161856D01*
Y-168508D01*
X21594Y-168613D01*
X21555Y-168790D01*
X21500Y-168959D01*
X21430Y-169124D01*
X21343Y-169287D01*
X21238Y-169448D01*
X21112Y-169608D01*
X20964Y-169768D01*
X20767Y-169952D01*
X20748Y-169978D01*
X20575Y-170111D01*
X19926Y-170957D01*
X19759Y-171359D01*
X19229Y-171333D01*
X19035Y-170693D01*
X18477Y-169650D01*
X17728Y-168737D01*
X14999Y-166008D01*
Y-156866D01*
X15499Y-156714D01*
X15758Y-157102D01*
X16420Y-157544D01*
X16700Y-157600D01*
Y-155660D01*
X17700D01*
Y-157600D01*
D02*
G37*
G36*
X68822Y-150181D02*
X69067Y-150527D01*
X69358Y-150832D01*
X69696Y-151097D01*
X70080Y-151321D01*
X70511Y-151504D01*
X70989Y-151647D01*
X71513Y-151749D01*
X72083Y-151810D01*
X72701Y-151830D01*
X70477Y-156830D01*
X69864Y-156838D01*
X68190Y-156957D01*
X67686Y-157029D01*
X66764Y-157220D01*
X66343Y-157339D01*
X65951Y-157474D01*
X65586Y-157625D01*
X68624Y-149794D01*
X68822Y-150181D01*
D02*
G37*
G36*
X25457Y-160320D02*
X25286Y-160380D01*
X25137Y-160480D01*
X25006Y-160620D01*
X24896Y-160800D01*
X24806Y-161020D01*
X24736Y-161280D01*
X24687Y-161580D01*
X24656Y-161920D01*
X24646Y-162300D01*
X22647D01*
X22637Y-161920D01*
X22606Y-161580D01*
X22557Y-161280D01*
X22487Y-161020D01*
X22397Y-160800D01*
X22287Y-160620D01*
X22156Y-160480D01*
X22006Y-160380D01*
X21836Y-160320D01*
X21646Y-160300D01*
X25646D01*
X25457Y-160320D01*
D02*
G37*
G36*
X24646Y-168356D02*
X24657Y-168635D01*
X24690Y-168909D01*
X24744Y-169179D01*
X24819Y-169445D01*
X24916Y-169707D01*
X25035Y-169964D01*
X25176Y-170218D01*
X25338Y-170467D01*
X25521Y-170712D01*
X25727Y-170952D01*
X21462Y-170698D01*
X21687Y-170488D01*
X21889Y-170269D01*
X22066Y-170043D01*
X22220Y-169808D01*
X22351Y-169566D01*
X22457Y-169315D01*
X22540Y-169056D01*
X22599Y-168789D01*
X22635Y-168513D01*
X22647Y-168230D01*
X24646Y-168356D01*
D02*
G37*
%LPC*%
G36*
X22626Y-7103D02*
Y-10524D01*
X26047D01*
X25977Y-9992D01*
X25579Y-9030D01*
X24945Y-8204D01*
X24119Y-7571D01*
X23158Y-7173D01*
X22626Y-7103D01*
D02*
G37*
G36*
X189528Y-5462D02*
X188496Y-5598D01*
X187534Y-5996D01*
X186708Y-6630D01*
X186075Y-7455D01*
X185677Y-8417D01*
X185541Y-9449D01*
X185677Y-10481D01*
X186075Y-11442D01*
X186708Y-12268D01*
X187534Y-12901D01*
X188496Y-13300D01*
X189528Y-13436D01*
X190559Y-13300D01*
X191521Y-12901D01*
X192347Y-12268D01*
X192980Y-11442D01*
X193379Y-10481D01*
X193514Y-9449D01*
X193379Y-8417D01*
X192980Y-7455D01*
X192347Y-6630D01*
X191521Y-5996D01*
X190559Y-5598D01*
X189528Y-5462D01*
D02*
G37*
G36*
X179528D02*
X178496Y-5598D01*
X177534Y-5996D01*
X176708Y-6630D01*
X176075Y-7455D01*
X175677Y-8417D01*
X175541Y-9449D01*
X175677Y-10481D01*
X176075Y-11442D01*
X176708Y-12268D01*
X177534Y-12901D01*
X178496Y-13300D01*
X179528Y-13436D01*
X180559Y-13300D01*
X181521Y-12901D01*
X182347Y-12268D01*
X182980Y-11442D01*
X183379Y-10481D01*
X183514Y-9449D01*
X183379Y-8417D01*
X182980Y-7455D01*
X182347Y-6630D01*
X181521Y-5996D01*
X180559Y-5598D01*
X179528Y-5462D01*
D02*
G37*
G36*
X26047Y-11524D02*
X22626D01*
Y-14945D01*
X23158Y-14875D01*
X24119Y-14476D01*
X24945Y-13843D01*
X25579Y-13017D01*
X25977Y-12055D01*
X26047Y-11524D01*
D02*
G37*
G36*
X44340Y-18118D02*
Y-19660D01*
X45882D01*
X45818Y-19341D01*
X45354Y-18646D01*
X44659Y-18182D01*
X44340Y-18118D01*
D02*
G37*
G36*
X43340D02*
X43021Y-18182D01*
X42326Y-18646D01*
X41862Y-19341D01*
X41798Y-19660D01*
X43340D01*
Y-18118D01*
D02*
G37*
G36*
X39340D02*
Y-19660D01*
X40882D01*
X40818Y-19341D01*
X40354Y-18646D01*
X39659Y-18182D01*
X39340Y-18118D01*
D02*
G37*
G36*
X38340D02*
X38021Y-18182D01*
X37326Y-18646D01*
X36862Y-19341D01*
X36798Y-19660D01*
X38340D01*
Y-18118D01*
D02*
G37*
G36*
X34340D02*
Y-19660D01*
X35882D01*
X35818Y-19341D01*
X35354Y-18646D01*
X34659Y-18182D01*
X34340Y-18118D01*
D02*
G37*
G36*
X33340D02*
X33021Y-18182D01*
X32326Y-18646D01*
X31862Y-19341D01*
X31798Y-19660D01*
X33340D01*
Y-18118D01*
D02*
G37*
G36*
X29340D02*
Y-19660D01*
X30882D01*
X30818Y-19341D01*
X30354Y-18646D01*
X29659Y-18182D01*
X29340Y-18118D01*
D02*
G37*
G36*
X28340D02*
X28021Y-18182D01*
X27326Y-18646D01*
X26862Y-19341D01*
X26798Y-19660D01*
X28340D01*
Y-18118D01*
D02*
G37*
G36*
X63279Y-18610D02*
X61205D01*
Y-20882D01*
X63279D01*
Y-18610D01*
D02*
G37*
G36*
X45882Y-20660D02*
X41798D01*
X41862Y-20979D01*
X42326Y-21674D01*
X42611Y-21864D01*
Y-22466D01*
X42416Y-22596D01*
X41952Y-23291D01*
X41888Y-23610D01*
X45972D01*
X45908Y-23291D01*
X45444Y-22596D01*
X45159Y-22406D01*
Y-21804D01*
X45354Y-21674D01*
X45818Y-20979D01*
X45882Y-20660D01*
D02*
G37*
G36*
X40882D02*
X36798D01*
X36862Y-20979D01*
X37326Y-21674D01*
X37611Y-21864D01*
Y-22466D01*
X37416Y-22596D01*
X36952Y-23291D01*
X36888Y-23610D01*
X40972D01*
X40908Y-23291D01*
X40444Y-22596D01*
X40159Y-22406D01*
Y-21804D01*
X40354Y-21674D01*
X40818Y-20979D01*
X40882Y-20660D01*
D02*
G37*
G36*
X35882D02*
X31798D01*
X31862Y-20979D01*
X32326Y-21674D01*
X32611Y-21864D01*
Y-22466D01*
X32416Y-22596D01*
X31952Y-23291D01*
X31888Y-23610D01*
X35972D01*
X35908Y-23291D01*
X35444Y-22596D01*
X35159Y-22406D01*
Y-21804D01*
X35354Y-21674D01*
X35818Y-20979D01*
X35882Y-20660D01*
D02*
G37*
G36*
X30882D02*
X26798D01*
X26862Y-20979D01*
X27326Y-21674D01*
X27611Y-21864D01*
Y-22466D01*
X27416Y-22596D01*
X26952Y-23291D01*
X26888Y-23610D01*
X30972D01*
X30908Y-23291D01*
X30444Y-22596D01*
X30159Y-22406D01*
Y-21804D01*
X30354Y-21674D01*
X30818Y-20979D01*
X30882Y-20660D01*
D02*
G37*
G36*
X45972Y-24610D02*
X44430D01*
Y-26152D01*
X44749Y-26088D01*
X45444Y-25624D01*
X45908Y-24929D01*
X45972Y-24610D01*
D02*
G37*
G36*
X43430D02*
X41888D01*
X41952Y-24929D01*
X42416Y-25624D01*
X43111Y-26088D01*
X43430Y-26152D01*
Y-24610D01*
D02*
G37*
G36*
X40972D02*
X39430D01*
Y-26152D01*
X39749Y-26088D01*
X40444Y-25624D01*
X40908Y-24929D01*
X40972Y-24610D01*
D02*
G37*
G36*
X38430D02*
X36888D01*
X36952Y-24929D01*
X37416Y-25624D01*
X38111Y-26088D01*
X38430Y-26152D01*
Y-24610D01*
D02*
G37*
G36*
X35972D02*
X34430D01*
Y-26152D01*
X34749Y-26088D01*
X35444Y-25624D01*
X35908Y-24929D01*
X35972Y-24610D01*
D02*
G37*
G36*
X33430D02*
X31888D01*
X31952Y-24929D01*
X32416Y-25624D01*
X33111Y-26088D01*
X33430Y-26152D01*
Y-24610D01*
D02*
G37*
G36*
X30972D02*
X29430D01*
Y-26152D01*
X29749Y-26088D01*
X30444Y-25624D01*
X30908Y-24929D01*
X30972Y-24610D01*
D02*
G37*
G36*
X28430D02*
X26888D01*
X26952Y-24929D01*
X27416Y-25624D01*
X28111Y-26088D01*
X28430Y-26152D01*
Y-24610D01*
D02*
G37*
G36*
X70090Y-26668D02*
X69771Y-26732D01*
X69076Y-27196D01*
X68886Y-27481D01*
X68284D01*
X68154Y-27286D01*
X67459Y-26822D01*
X67140Y-26758D01*
Y-28800D01*
Y-30842D01*
X67459Y-30778D01*
X68154Y-30314D01*
X68344Y-30029D01*
X68946D01*
X69076Y-30224D01*
X69771Y-30688D01*
X70090Y-30752D01*
Y-28710D01*
Y-26668D01*
D02*
G37*
G36*
X71090D02*
Y-28210D01*
X72632D01*
X72568Y-27891D01*
X72104Y-27196D01*
X71409Y-26732D01*
X71090Y-26668D01*
D02*
G37*
G36*
X66140Y-26758D02*
X65821Y-26822D01*
X65126Y-27286D01*
X64662Y-27981D01*
X64598Y-28300D01*
X66140D01*
Y-26758D01*
D02*
G37*
G36*
X72632Y-29210D02*
X71090D01*
Y-30752D01*
X71409Y-30688D01*
X72104Y-30224D01*
X72568Y-29529D01*
X72632Y-29210D01*
D02*
G37*
G36*
X161000Y-29326D02*
X159318D01*
Y-30810D01*
X161000D01*
Y-29326D01*
D02*
G37*
G36*
X66140Y-29300D02*
X64598D01*
X64662Y-29619D01*
X65126Y-30314D01*
X65821Y-30778D01*
X66140Y-30842D01*
Y-29300D01*
D02*
G37*
G36*
X70090Y-31668D02*
X69771Y-31732D01*
X69076Y-32196D01*
X68886Y-32481D01*
X68284D01*
X68154Y-32286D01*
X67459Y-31822D01*
X67140Y-31758D01*
Y-33800D01*
Y-35842D01*
X67459Y-35778D01*
X68154Y-35314D01*
X68344Y-35029D01*
X68946D01*
X69076Y-35224D01*
X69771Y-35688D01*
X70090Y-35752D01*
Y-33710D01*
Y-31668D01*
D02*
G37*
G36*
X71090D02*
Y-33210D01*
X72632D01*
X72568Y-32891D01*
X72104Y-32196D01*
X71409Y-31732D01*
X71090Y-31668D01*
D02*
G37*
G36*
X161000Y-31810D02*
X159318D01*
Y-33294D01*
X161000D01*
Y-31810D01*
D02*
G37*
G36*
X66140Y-31758D02*
X65821Y-31822D01*
X65126Y-32286D01*
X64662Y-32981D01*
X64598Y-33300D01*
X66140D01*
Y-31758D01*
D02*
G37*
G36*
X33965Y-30270D02*
Y-33790D01*
X37485D01*
X37411Y-33232D01*
X37003Y-32247D01*
X36354Y-31401D01*
X35508Y-30751D01*
X34522Y-30343D01*
X33965Y-30270D01*
D02*
G37*
G36*
X32965D02*
X32407Y-30343D01*
X31422Y-30751D01*
X30575Y-31401D01*
X29926Y-32247D01*
X29518Y-33232D01*
X29444Y-33790D01*
X32965D01*
Y-30270D01*
D02*
G37*
G36*
X72632Y-34210D02*
X71090D01*
Y-35752D01*
X71409Y-35688D01*
X72104Y-35224D01*
X72568Y-34529D01*
X72632Y-34210D01*
D02*
G37*
G36*
X66140Y-34300D02*
X64598D01*
X64662Y-34619D01*
X65126Y-35314D01*
X65821Y-35778D01*
X66140Y-35842D01*
Y-34300D01*
D02*
G37*
G36*
X70090Y-36668D02*
X69771Y-36732D01*
X69076Y-37196D01*
X68886Y-37481D01*
X68284D01*
X68154Y-37286D01*
X67459Y-36822D01*
X67140Y-36758D01*
Y-38800D01*
Y-40842D01*
X67459Y-40778D01*
X68154Y-40314D01*
X68344Y-40029D01*
X68946D01*
X69076Y-40224D01*
X69771Y-40688D01*
X70090Y-40752D01*
Y-38710D01*
Y-36668D01*
D02*
G37*
G36*
X71090D02*
Y-38210D01*
X72632D01*
X72568Y-37891D01*
X72104Y-37196D01*
X71409Y-36732D01*
X71090Y-36668D01*
D02*
G37*
G36*
X66140Y-36758D02*
X65821Y-36822D01*
X65126Y-37286D01*
X64662Y-37981D01*
X64598Y-38300D01*
X66140D01*
Y-36758D01*
D02*
G37*
G36*
X37485Y-34790D02*
X33965D01*
Y-38310D01*
X34522Y-38237D01*
X35508Y-37829D01*
X36354Y-37179D01*
X37003Y-36333D01*
X37411Y-35348D01*
X37485Y-34790D01*
D02*
G37*
G36*
X32965D02*
X29444D01*
X29518Y-35348D01*
X29926Y-36333D01*
X30575Y-37179D01*
X31422Y-37829D01*
X32407Y-38237D01*
X32965Y-38310D01*
Y-34790D01*
D02*
G37*
G36*
X72632Y-39210D02*
X71090D01*
Y-40752D01*
X71409Y-40688D01*
X72104Y-40224D01*
X72568Y-39529D01*
X72632Y-39210D01*
D02*
G37*
G36*
X66140Y-39300D02*
X64598D01*
X64662Y-39619D01*
X65126Y-40314D01*
X65821Y-40778D01*
X66140Y-40842D01*
Y-39300D01*
D02*
G37*
G36*
X70090Y-41668D02*
X69771Y-41732D01*
X69076Y-42196D01*
X68886Y-42481D01*
X68284D01*
X68154Y-42286D01*
X67459Y-41822D01*
X67140Y-41758D01*
Y-43800D01*
Y-45842D01*
X67459Y-45778D01*
X68154Y-45314D01*
X68344Y-45029D01*
X68946D01*
X69076Y-45224D01*
X69771Y-45688D01*
X70090Y-45752D01*
Y-43710D01*
Y-41668D01*
D02*
G37*
G36*
X71090D02*
Y-43210D01*
X72632D01*
X72568Y-42891D01*
X72104Y-42196D01*
X71409Y-41732D01*
X71090Y-41668D01*
D02*
G37*
G36*
X66140Y-41758D02*
X65821Y-41822D01*
X65126Y-42286D01*
X64662Y-42981D01*
X64598Y-43300D01*
X66140D01*
Y-41758D01*
D02*
G37*
G36*
X72632Y-44210D02*
X71090D01*
Y-45752D01*
X71409Y-45688D01*
X72104Y-45224D01*
X72568Y-44529D01*
X72632Y-44210D01*
D02*
G37*
G36*
X116570Y-41029D02*
Y-45840D01*
X121381D01*
X121263Y-44948D01*
X120726Y-43651D01*
X119872Y-42538D01*
X118758Y-41683D01*
X117461Y-41146D01*
X116570Y-41029D01*
D02*
G37*
G36*
X96570D02*
Y-45840D01*
X101381D01*
X101263Y-44948D01*
X100726Y-43651D01*
X99872Y-42538D01*
X98758Y-41683D01*
X97461Y-41146D01*
X96570Y-41029D01*
D02*
G37*
G36*
X115570D02*
X114678Y-41146D01*
X113381Y-41683D01*
X112268Y-42538D01*
X111413Y-43651D01*
X110876Y-44948D01*
X110759Y-45840D01*
X115570D01*
Y-41029D01*
D02*
G37*
G36*
X95570D02*
X94678Y-41146D01*
X93381Y-41683D01*
X92268Y-42538D01*
X91413Y-43651D01*
X90876Y-44948D01*
X90759Y-45840D01*
X95570D01*
Y-41029D01*
D02*
G37*
G36*
X66140Y-44300D02*
X64598D01*
X64662Y-44619D01*
X65126Y-45314D01*
X65821Y-45778D01*
X66140Y-45842D01*
Y-44300D01*
D02*
G37*
G36*
X121381Y-46840D02*
X116570D01*
Y-51651D01*
X117461Y-51533D01*
X118758Y-50996D01*
X119872Y-50142D01*
X120726Y-49028D01*
X121263Y-47731D01*
X121381Y-46840D01*
D02*
G37*
G36*
X101381D02*
X96570D01*
Y-51651D01*
X97461Y-51533D01*
X98758Y-50996D01*
X99872Y-50142D01*
X100726Y-49028D01*
X101263Y-47731D01*
X101381Y-46840D01*
D02*
G37*
G36*
X115570D02*
X110759D01*
X110876Y-47731D01*
X111413Y-49028D01*
X112268Y-50142D01*
X113381Y-50996D01*
X114678Y-51533D01*
X115570Y-51651D01*
Y-46840D01*
D02*
G37*
G36*
X95570D02*
X90759D01*
X90876Y-47731D01*
X91413Y-49028D01*
X92268Y-50142D01*
X93381Y-50996D01*
X94678Y-51533D01*
X95570Y-51651D01*
Y-46840D01*
D02*
G37*
G36*
X34584Y-50745D02*
X32312D01*
Y-52820D01*
X34584D01*
Y-50745D01*
D02*
G37*
G36*
X31312D02*
X29040D01*
Y-52820D01*
X31312D01*
Y-50745D01*
D02*
G37*
G36*
X66382Y-52129D02*
X64110D01*
Y-54204D01*
X66382D01*
Y-52129D01*
D02*
G37*
G36*
X63110D02*
X60838D01*
Y-54204D01*
X63110D01*
Y-52129D01*
D02*
G37*
G36*
X193323Y-36520D02*
X185417D01*
Y-38334D01*
X185392Y-38344D01*
X185240Y-38385D01*
X185026Y-38420D01*
X184876Y-38433D01*
X174428D01*
X173647Y-38589D01*
X172986Y-39031D01*
X171187Y-40829D01*
X168193D01*
X167413Y-40984D01*
X167137Y-41168D01*
X164393D01*
Y-44568D01*
Y-48601D01*
X162730D01*
X161950Y-48756D01*
X161288Y-49198D01*
X153440Y-57047D01*
X152998Y-57708D01*
X152842Y-58489D01*
Y-70496D01*
X152842Y-70506D01*
X152700D01*
Y-71480D01*
X152693Y-71518D01*
X152700Y-71556D01*
Y-72110D01*
X152571Y-72761D01*
Y-80817D01*
X152568Y-80845D01*
X152543Y-81000D01*
X152509Y-81140D01*
X152467Y-81268D01*
X152418Y-81384D01*
X152362Y-81489D01*
X152299Y-81587D01*
X152227Y-81679D01*
X152167Y-81743D01*
X152114Y-81784D01*
X151553Y-82515D01*
X151200Y-83366D01*
X151080Y-84280D01*
X151200Y-85194D01*
X151553Y-86045D01*
X152114Y-86776D01*
X152845Y-87337D01*
X153696Y-87690D01*
X154610Y-87810D01*
X155524Y-87690D01*
X156375Y-87337D01*
X157106Y-86776D01*
X157667Y-86045D01*
X158020Y-85194D01*
X158140Y-84280D01*
X158020Y-83366D01*
X157667Y-82515D01*
X157106Y-81784D01*
X157053Y-81743D01*
X156993Y-81679D01*
X156921Y-81587D01*
X156858Y-81489D01*
X156802Y-81383D01*
X156753Y-81268D01*
X156711Y-81140D01*
X156677Y-81000D01*
X156652Y-80845D01*
X156649Y-80817D01*
Y-74835D01*
X156666Y-74530D01*
X156673Y-74474D01*
X158318D01*
Y-72490D01*
Y-70506D01*
X156947D01*
X156921Y-70121D01*
Y-59333D01*
X163575Y-52679D01*
X164393D01*
Y-52768D01*
X171993D01*
Y-52368D01*
Y-47508D01*
X183521D01*
X184916Y-48902D01*
X184973Y-48975D01*
X185073Y-49126D01*
X185159Y-49284D01*
X185232Y-49448D01*
X185292Y-49621D01*
X185338Y-49805D01*
X185372Y-50001D01*
X185392Y-50210D01*
X185396Y-50376D01*
X185383Y-50472D01*
X185519Y-51504D01*
X185917Y-52466D01*
X186551Y-53292D01*
X187377Y-53925D01*
X188338Y-54324D01*
X189370Y-54459D01*
X190402Y-54324D01*
X191364Y-53925D01*
X192189Y-53292D01*
X192823Y-52466D01*
X193221Y-51504D01*
X193357Y-50472D01*
X193221Y-49441D01*
X192823Y-48479D01*
X192189Y-47653D01*
X191364Y-47020D01*
X190402Y-46621D01*
X189370Y-46486D01*
X189273Y-46498D01*
X189108Y-46494D01*
X188899Y-46474D01*
X188703Y-46441D01*
X188519Y-46394D01*
X188346Y-46334D01*
X188181Y-46262D01*
X188024Y-46176D01*
X187872Y-46075D01*
X187800Y-46018D01*
X186669Y-44887D01*
X186860Y-44425D01*
X193323D01*
Y-36520D01*
D02*
G37*
G36*
X26710Y-59331D02*
X24438D01*
Y-61406D01*
X26710D01*
Y-59331D01*
D02*
G37*
G36*
X23438D02*
X21166D01*
Y-61406D01*
X23438D01*
Y-59331D01*
D02*
G37*
G36*
X171993Y-53768D02*
X164393D01*
Y-57569D01*
Y-60168D01*
Y-62769D01*
X167803D01*
X167845Y-62776D01*
X167879Y-62769D01*
X168316D01*
X168431Y-62815D01*
X168679Y-62949D01*
X168984Y-63149D01*
X169329Y-63408D01*
X170063Y-64049D01*
X184916Y-78902D01*
X184973Y-78975D01*
X185073Y-79127D01*
X185159Y-79284D01*
X185232Y-79448D01*
X185292Y-79621D01*
X185338Y-79805D01*
X185372Y-80001D01*
X185392Y-80210D01*
X185396Y-80376D01*
X185383Y-80472D01*
X185519Y-81504D01*
X185917Y-82466D01*
X186551Y-83292D01*
X187377Y-83925D01*
X188338Y-84324D01*
X189370Y-84459D01*
X190402Y-84324D01*
X191364Y-83925D01*
X192189Y-83292D01*
X192823Y-82466D01*
X193221Y-81504D01*
X193357Y-80472D01*
X193221Y-79441D01*
X192823Y-78479D01*
X192189Y-77653D01*
X191364Y-77020D01*
X190402Y-76621D01*
X189370Y-76486D01*
X189273Y-76498D01*
X189108Y-76494D01*
X188899Y-76474D01*
X188703Y-76441D01*
X188519Y-76394D01*
X188346Y-76334D01*
X188181Y-76262D01*
X188024Y-76176D01*
X187872Y-76076D01*
X187800Y-76018D01*
X172926Y-61145D01*
X173133Y-60645D01*
X176658D01*
X184916Y-68902D01*
X184973Y-68975D01*
X185073Y-69126D01*
X185159Y-69284D01*
X185232Y-69448D01*
X185292Y-69621D01*
X185338Y-69805D01*
X185372Y-70001D01*
X185392Y-70210D01*
X185396Y-70376D01*
X185383Y-70472D01*
X185519Y-71504D01*
X185917Y-72466D01*
X186551Y-73292D01*
X187377Y-73925D01*
X188338Y-74323D01*
X189370Y-74459D01*
X190402Y-74323D01*
X191364Y-73925D01*
X192189Y-73292D01*
X192823Y-72466D01*
X193221Y-71504D01*
X193357Y-70472D01*
X193221Y-69441D01*
X192823Y-68479D01*
X192189Y-67653D01*
X191364Y-67020D01*
X190402Y-66621D01*
X189370Y-66486D01*
X189273Y-66498D01*
X189108Y-66494D01*
X188899Y-66474D01*
X188703Y-66441D01*
X188519Y-66394D01*
X188346Y-66334D01*
X188181Y-66262D01*
X188024Y-66176D01*
X187872Y-66075D01*
X187800Y-66018D01*
X180151Y-58370D01*
X180342Y-57908D01*
X183922D01*
X184916Y-58902D01*
X184973Y-58975D01*
X185073Y-59127D01*
X185159Y-59284D01*
X185232Y-59448D01*
X185292Y-59621D01*
X185338Y-59805D01*
X185372Y-60001D01*
X185392Y-60210D01*
X185396Y-60376D01*
X185383Y-60472D01*
X185519Y-61504D01*
X185917Y-62466D01*
X186551Y-63292D01*
X187377Y-63925D01*
X188338Y-64324D01*
X189370Y-64459D01*
X190402Y-64324D01*
X191364Y-63925D01*
X192189Y-63292D01*
X192823Y-62466D01*
X193221Y-61504D01*
X193357Y-60472D01*
X193221Y-59441D01*
X192823Y-58479D01*
X192189Y-57653D01*
X191364Y-57020D01*
X190402Y-56621D01*
X189370Y-56486D01*
X189273Y-56498D01*
X189108Y-56494D01*
X188899Y-56474D01*
X188703Y-56441D01*
X188519Y-56394D01*
X188346Y-56334D01*
X188181Y-56262D01*
X188024Y-56176D01*
X187872Y-56076D01*
X187800Y-56018D01*
X186208Y-54427D01*
X185547Y-53984D01*
X184766Y-53829D01*
X171993D01*
Y-53768D01*
D02*
G37*
G36*
X96570Y-61029D02*
Y-65840D01*
X101381D01*
X101263Y-64948D01*
X100726Y-63651D01*
X99872Y-62538D01*
X98758Y-61683D01*
X97461Y-61146D01*
X96570Y-61029D01*
D02*
G37*
G36*
X116570D02*
Y-65840D01*
X121381D01*
X121263Y-64948D01*
X120726Y-63651D01*
X119872Y-62538D01*
X118758Y-61683D01*
X117461Y-61146D01*
X116570Y-61029D01*
D02*
G37*
G36*
X95570D02*
X94678Y-61146D01*
X93381Y-61683D01*
X92268Y-62538D01*
X91413Y-63651D01*
X90876Y-64948D01*
X90759Y-65840D01*
X95570D01*
Y-61029D01*
D02*
G37*
G36*
X115570D02*
X114678Y-61146D01*
X113381Y-61683D01*
X112268Y-62538D01*
X111413Y-63651D01*
X110876Y-64948D01*
X110759Y-65840D01*
X115570D01*
Y-61029D01*
D02*
G37*
G36*
X101381Y-66840D02*
X96570D01*
Y-71651D01*
X97461Y-71533D01*
X98758Y-70996D01*
X99872Y-70142D01*
X100726Y-69028D01*
X101263Y-67731D01*
X101381Y-66840D01*
D02*
G37*
G36*
X115570D02*
X110759D01*
X110876Y-67731D01*
X111413Y-69028D01*
X112268Y-70142D01*
X113381Y-70996D01*
X114678Y-71533D01*
X115570Y-71651D01*
Y-66840D01*
D02*
G37*
G36*
X95570D02*
X90759D01*
X90876Y-67731D01*
X91413Y-69028D01*
X92268Y-70142D01*
X93381Y-70996D01*
X94678Y-71533D01*
X95570Y-71651D01*
Y-66840D01*
D02*
G37*
G36*
X161000Y-70506D02*
X159318D01*
Y-71990D01*
X161000D01*
Y-70506D01*
D02*
G37*
G36*
X37926Y-71997D02*
X37888Y-72005D01*
X37825D01*
X37812Y-72004D01*
X37808Y-72005D01*
X36914D01*
Y-72308D01*
X36470Y-72343D01*
X31910D01*
X31130Y-72499D01*
X31021Y-72572D01*
X30828D01*
X30361Y-72665D01*
X29965Y-72929D01*
X29700Y-73325D01*
X29607Y-73792D01*
Y-74973D01*
X29700Y-75440D01*
X29965Y-75836D01*
X30361Y-76100D01*
X30828Y-76193D01*
X31021D01*
X31130Y-76266D01*
X31910Y-76422D01*
X36441D01*
X36914Y-76510D01*
Y-77016D01*
X36914Y-77154D01*
Y-77516D01*
X36914Y-77654D01*
Y-79591D01*
X39686D01*
X42458D01*
Y-77654D01*
X42458Y-77516D01*
Y-77154D01*
X42458Y-77016D01*
Y-72005D01*
X37965D01*
X37926Y-71997D01*
D02*
G37*
G36*
X161000Y-72990D02*
X159318D01*
Y-74474D01*
X161000D01*
Y-72990D01*
D02*
G37*
G36*
X34584Y-53820D02*
X29040D01*
Y-55757D01*
X29040Y-55894D01*
Y-56257D01*
X29040Y-56394D01*
Y-60356D01*
X29033Y-60394D01*
X29040Y-60432D01*
Y-61406D01*
X29710D01*
X29734Y-61525D01*
X29773Y-61936D01*
Y-67644D01*
X29750Y-68097D01*
X29745Y-68140D01*
X29700Y-68207D01*
X29607Y-68674D01*
Y-69855D01*
X29700Y-70322D01*
X29965Y-70718D01*
X30361Y-70982D01*
X30828Y-71075D01*
X31021D01*
X31130Y-71148D01*
X31910Y-71304D01*
X47890D01*
X48765Y-72179D01*
X49101Y-72540D01*
X49340Y-72839D01*
X49523Y-73100D01*
X49537Y-73125D01*
Y-77973D01*
X57443D01*
Y-70067D01*
X52595D01*
X52570Y-70053D01*
X52320Y-69878D01*
X51742Y-69388D01*
X50176Y-67823D01*
X49515Y-67380D01*
X48735Y-67225D01*
X33864D01*
X33851Y-67040D01*
Y-61870D01*
X33858Y-61772D01*
X33887Y-61541D01*
X33915Y-61406D01*
X34584D01*
Y-60432D01*
X34591Y-60394D01*
X34584Y-60356D01*
Y-56394D01*
X34584Y-56257D01*
Y-55894D01*
X34584Y-55757D01*
Y-53820D01*
D02*
G37*
G36*
X66382Y-55204D02*
X60838D01*
Y-57279D01*
X60838D01*
Y-57641D01*
X60781Y-58117D01*
X60433Y-58571D01*
X60080Y-59422D01*
X59960Y-60336D01*
Y-72214D01*
X59639Y-72988D01*
X59503Y-74020D01*
X59639Y-75052D01*
X60037Y-76013D01*
X60671Y-76839D01*
X61497Y-77473D01*
X62458Y-77871D01*
X63490Y-78007D01*
X64522Y-77871D01*
X65483Y-77473D01*
X66309Y-76839D01*
X66943Y-76013D01*
X67341Y-75052D01*
X67477Y-74020D01*
X67341Y-72988D01*
X67020Y-72214D01*
Y-61128D01*
X67140Y-60216D01*
X67020Y-59302D01*
X66667Y-58451D01*
X66418Y-58126D01*
X66382Y-57641D01*
Y-57279D01*
X66382D01*
Y-55204D01*
D02*
G37*
G36*
X83751Y-78126D02*
X82070D01*
Y-79610D01*
X83751D01*
Y-78126D01*
D02*
G37*
G36*
X42458Y-80591D02*
X40186D01*
Y-82666D01*
X42458D01*
Y-80591D01*
D02*
G37*
G36*
X39186D02*
X36914D01*
Y-82666D01*
X39186D01*
Y-80591D01*
D02*
G37*
G36*
X34977Y-82241D02*
X32706D01*
Y-84316D01*
X34977D01*
Y-82241D01*
D02*
G37*
G36*
X31706D02*
X29434D01*
Y-84316D01*
X31706D01*
Y-82241D01*
D02*
G37*
G36*
X26143Y-72324D02*
X23840D01*
X21537D01*
Y-72414D01*
X21630Y-72881D01*
X21778Y-73103D01*
X21630Y-73325D01*
X21537Y-73792D01*
Y-74973D01*
X21630Y-75440D01*
X21693Y-75535D01*
X21701Y-75566D01*
X21746Y-75624D01*
X21800Y-76540D01*
Y-77893D01*
X21385Y-78514D01*
X21191Y-79490D01*
X21385Y-80465D01*
X21938Y-81292D01*
X22609Y-81741D01*
X22457Y-82241D01*
X21560D01*
Y-84316D01*
X27103D01*
Y-82241D01*
X25023D01*
X24871Y-81741D01*
X25542Y-81292D01*
X26095Y-80465D01*
X26289Y-79490D01*
X26095Y-78514D01*
X25879Y-78191D01*
Y-76208D01*
X25910Y-75780D01*
X25927Y-75653D01*
X25932Y-75625D01*
X25978Y-75566D01*
X25986Y-75535D01*
X26050Y-75440D01*
X26143Y-74973D01*
Y-73792D01*
X26050Y-73325D01*
X25901Y-73103D01*
X26050Y-72881D01*
X26143Y-72414D01*
Y-72324D01*
D02*
G37*
G36*
X53490Y-80033D02*
X52458Y-80169D01*
X51497Y-80567D01*
X50671Y-81201D01*
X50037Y-82027D01*
X49639Y-82988D01*
X49503Y-84020D01*
X49516Y-84117D01*
X49512Y-84283D01*
X49492Y-84492D01*
X49458Y-84688D01*
X49411Y-84871D01*
X49352Y-85044D01*
X49279Y-85209D01*
X49193Y-85366D01*
X49093Y-85518D01*
X49036Y-85590D01*
X46338Y-88288D01*
X35462D01*
X34977Y-87992D01*
X34977Y-87391D01*
X34977Y-87253D01*
Y-85316D01*
X29434D01*
Y-87253D01*
X29434Y-87391D01*
Y-87753D01*
X29434Y-87890D01*
Y-91852D01*
X29427Y-91890D01*
X29434Y-91928D01*
Y-92902D01*
X30015D01*
X30032Y-93001D01*
X30064Y-93394D01*
Y-97912D01*
X30033Y-98339D01*
X30016Y-98466D01*
X30011Y-98494D01*
X29965Y-98553D01*
X29957Y-98584D01*
X29893Y-98679D01*
X29800Y-99146D01*
Y-100327D01*
X29893Y-100794D01*
X30158Y-101190D01*
X30554Y-101455D01*
X31021Y-101548D01*
X31214D01*
X31323Y-101621D01*
X32103Y-101776D01*
X32884Y-101621D01*
X32993Y-101548D01*
X33186D01*
X33653Y-101455D01*
X34049Y-101190D01*
X34313Y-100794D01*
X34406Y-100327D01*
Y-99146D01*
X34313Y-98679D01*
X34250Y-98584D01*
X34242Y-98553D01*
X34197Y-98495D01*
X34143Y-97580D01*
Y-93405D01*
X34152Y-93282D01*
X34184Y-93058D01*
X34220Y-92902D01*
X34977D01*
Y-92405D01*
X35058Y-92392D01*
X35423Y-92367D01*
X47183D01*
X47963Y-92211D01*
X48624Y-91769D01*
X51920Y-88474D01*
X51992Y-88417D01*
X52144Y-88317D01*
X52301Y-88231D01*
X52466Y-88158D01*
X52639Y-88099D01*
X52823Y-88052D01*
X53018Y-88018D01*
X53227Y-87998D01*
X53393Y-87994D01*
X53490Y-88007D01*
X54522Y-87871D01*
X55483Y-87473D01*
X56309Y-86839D01*
X56943Y-86013D01*
X57341Y-85052D01*
X57477Y-84020D01*
X57341Y-82988D01*
X56943Y-82027D01*
X56309Y-81201D01*
X55483Y-80567D01*
X54522Y-80169D01*
X53490Y-80033D01*
D02*
G37*
G36*
X83711Y-93200D02*
X82030D01*
Y-94684D01*
X83711D01*
Y-93200D01*
D02*
G37*
G36*
X180854Y-94949D02*
X179370D01*
Y-96630D01*
X180854D01*
Y-94949D01*
D02*
G37*
G36*
X178370D02*
X176886D01*
Y-96630D01*
X178370D01*
Y-94949D01*
D02*
G37*
G36*
X83732Y-95326D02*
X82050D01*
Y-96810D01*
X83732D01*
Y-95326D01*
D02*
G37*
G36*
Y-97810D02*
X82050D01*
Y-99294D01*
X83732D01*
Y-97810D01*
D02*
G37*
G36*
X126935Y-99910D02*
X125750D01*
Y-101095D01*
X125933Y-101058D01*
X126512Y-100672D01*
X126899Y-100093D01*
X126935Y-99910D01*
D02*
G37*
G36*
X124750D02*
X123565D01*
X123601Y-100093D01*
X123988Y-100672D01*
X124567Y-101058D01*
X124750Y-101095D01*
Y-99910D01*
D02*
G37*
G36*
X153110Y-102618D02*
Y-104160D01*
X154652D01*
X154588Y-103841D01*
X154124Y-103146D01*
X153429Y-102682D01*
X153110Y-102618D01*
D02*
G37*
G36*
X152110D02*
X151791Y-102682D01*
X151096Y-103146D01*
X150632Y-103841D01*
X150568Y-104160D01*
X152110D01*
Y-102618D01*
D02*
G37*
G36*
X148110D02*
Y-104160D01*
X149652D01*
X149588Y-103841D01*
X149124Y-103146D01*
X148429Y-102682D01*
X148110Y-102618D01*
D02*
G37*
G36*
X147110D02*
X146791Y-102682D01*
X146096Y-103146D01*
X145632Y-103841D01*
X145568Y-104160D01*
X147110D01*
Y-102618D01*
D02*
G37*
G36*
X143110D02*
Y-104160D01*
X144652D01*
X144588Y-103841D01*
X144124Y-103146D01*
X143429Y-102682D01*
X143110Y-102618D01*
D02*
G37*
G36*
X142110D02*
X141791Y-102682D01*
X141096Y-103146D01*
X140632Y-103841D01*
X140568Y-104160D01*
X142110D01*
Y-102618D01*
D02*
G37*
G36*
X138110D02*
Y-104160D01*
X139652D01*
X139588Y-103841D01*
X139124Y-103146D01*
X138429Y-102682D01*
X138110Y-102618D01*
D02*
G37*
G36*
X137110D02*
X136791Y-102682D01*
X136096Y-103146D01*
X135632Y-103841D01*
X135568Y-104160D01*
X137110D01*
Y-102618D01*
D02*
G37*
G36*
X154652Y-105160D02*
X150568D01*
X150632Y-105479D01*
X151096Y-106174D01*
X151381Y-106364D01*
Y-106966D01*
X151186Y-107096D01*
X150722Y-107791D01*
X150658Y-108110D01*
X154742D01*
X154678Y-107791D01*
X154214Y-107096D01*
X153929Y-106906D01*
Y-106304D01*
X154124Y-106174D01*
X154588Y-105479D01*
X154652Y-105160D01*
D02*
G37*
G36*
X149652D02*
X145568D01*
X145632Y-105479D01*
X146096Y-106174D01*
X146381Y-106364D01*
Y-106966D01*
X146186Y-107096D01*
X145722Y-107791D01*
X145658Y-108110D01*
X149742D01*
X149678Y-107791D01*
X149214Y-107096D01*
X148929Y-106906D01*
Y-106304D01*
X149124Y-106174D01*
X149588Y-105479D01*
X149652Y-105160D01*
D02*
G37*
G36*
X144652D02*
X140568D01*
X140632Y-105479D01*
X141096Y-106174D01*
X141381Y-106364D01*
Y-106966D01*
X141186Y-107096D01*
X140722Y-107791D01*
X140658Y-108110D01*
X144742D01*
X144678Y-107791D01*
X144214Y-107096D01*
X143929Y-106906D01*
Y-106304D01*
X144124Y-106174D01*
X144588Y-105479D01*
X144652Y-105160D01*
D02*
G37*
G36*
X139652D02*
X135568D01*
X135632Y-105479D01*
X136096Y-106174D01*
X136381Y-106364D01*
Y-106966D01*
X136186Y-107096D01*
X135722Y-107791D01*
X135658Y-108110D01*
X139742D01*
X139678Y-107791D01*
X139214Y-107096D01*
X138929Y-106906D01*
Y-106304D01*
X139124Y-106174D01*
X139588Y-105479D01*
X139652Y-105160D01*
D02*
G37*
G36*
X38320Y-102312D02*
X38282Y-102320D01*
X37308D01*
Y-102773D01*
X36820Y-102815D01*
X32103D01*
X31323Y-102971D01*
X31214Y-103044D01*
X31021D01*
X30554Y-103137D01*
X30158Y-103401D01*
X29893Y-103797D01*
X29800Y-104264D01*
Y-105445D01*
X29893Y-105912D01*
X30158Y-106308D01*
X30554Y-106573D01*
X31021Y-106666D01*
X31214D01*
X31323Y-106739D01*
X32103Y-106894D01*
X36826D01*
X37308Y-107088D01*
X37308Y-107831D01*
X37308Y-107969D01*
Y-109906D01*
X40080D01*
X42851D01*
Y-107969D01*
X42851Y-107831D01*
Y-107469D01*
X42851Y-107331D01*
Y-102320D01*
X38358D01*
X38320Y-102312D01*
D02*
G37*
G36*
X154742Y-109110D02*
X153200D01*
Y-110652D01*
X153519Y-110588D01*
X154214Y-110124D01*
X154678Y-109429D01*
X154742Y-109110D01*
D02*
G37*
G36*
X152200D02*
X150658D01*
X150722Y-109429D01*
X151186Y-110124D01*
X151881Y-110588D01*
X152200Y-110652D01*
Y-109110D01*
D02*
G37*
G36*
X149742D02*
X148200D01*
Y-110652D01*
X148519Y-110588D01*
X149214Y-110124D01*
X149678Y-109429D01*
X149742Y-109110D01*
D02*
G37*
G36*
X147200D02*
X145658D01*
X145722Y-109429D01*
X146186Y-110124D01*
X146881Y-110588D01*
X147200Y-110652D01*
Y-109110D01*
D02*
G37*
G36*
X144742D02*
X143200D01*
Y-110652D01*
X143519Y-110588D01*
X144214Y-110124D01*
X144678Y-109429D01*
X144742Y-109110D01*
D02*
G37*
G36*
X142200D02*
X140658D01*
X140722Y-109429D01*
X141186Y-110124D01*
X141881Y-110588D01*
X142200Y-110652D01*
Y-109110D01*
D02*
G37*
G36*
X139742D02*
X138200D01*
Y-110652D01*
X138519Y-110588D01*
X139214Y-110124D01*
X139678Y-109429D01*
X139742Y-109110D01*
D02*
G37*
G36*
X137200D02*
X135658D01*
X135722Y-109429D01*
X136186Y-110124D01*
X136881Y-110588D01*
X137200Y-110652D01*
Y-109110D01*
D02*
G37*
G36*
X42851Y-110906D02*
X40580D01*
Y-112981D01*
X42851D01*
Y-110906D01*
D02*
G37*
G36*
X39580D02*
X37308D01*
Y-112981D01*
X39580D01*
Y-110906D01*
D02*
G37*
G36*
X83711Y-113916D02*
X82030D01*
Y-115400D01*
X83711D01*
Y-113916D01*
D02*
G37*
G36*
Y-116400D02*
X82030D01*
Y-117884D01*
X83711D01*
Y-116400D01*
D02*
G37*
G36*
X33965Y-120783D02*
Y-124303D01*
X37485D01*
X37411Y-123746D01*
X37003Y-122760D01*
X36354Y-121914D01*
X35508Y-121265D01*
X34522Y-120856D01*
X33965Y-120783D01*
D02*
G37*
G36*
X32965D02*
X32407Y-120856D01*
X31422Y-121265D01*
X30575Y-121914D01*
X29926Y-122760D01*
X29518Y-123746D01*
X29444Y-124303D01*
X32965D01*
Y-120783D01*
D02*
G37*
G36*
X37485Y-125303D02*
X33965D01*
Y-128823D01*
X34522Y-128750D01*
X35508Y-128342D01*
X36354Y-127692D01*
X37003Y-126846D01*
X37411Y-125861D01*
X37485Y-125303D01*
D02*
G37*
G36*
X32965D02*
X29444D01*
X29518Y-125861D01*
X29926Y-126846D01*
X30575Y-127692D01*
X31422Y-128342D01*
X32407Y-128750D01*
X32965Y-128823D01*
Y-125303D01*
D02*
G37*
G36*
X59071Y-128059D02*
X56799D01*
Y-130134D01*
X59071D01*
Y-128059D01*
D02*
G37*
G36*
X55799D02*
X53528D01*
Y-130134D01*
X55799D01*
Y-128059D01*
D02*
G37*
G36*
X35842Y-135221D02*
X33571D01*
Y-137295D01*
X35842D01*
Y-135221D01*
D02*
G37*
G36*
X32571D02*
X30299D01*
Y-137295D01*
X32571D01*
Y-135221D01*
D02*
G37*
G36*
X25213D02*
X22941D01*
Y-137295D01*
X25213D01*
Y-135221D01*
D02*
G37*
G36*
X21941D02*
X19669D01*
Y-137295D01*
X21941D01*
Y-135221D01*
D02*
G37*
G36*
X179421Y-141677D02*
X177504D01*
Y-143595D01*
X179421D01*
Y-141677D01*
D02*
G37*
G36*
X155799D02*
X153882D01*
Y-143595D01*
X155799D01*
Y-141677D01*
D02*
G37*
G36*
X183071Y-163835D02*
X182283D01*
X181740Y-163943D01*
X181398Y-164172D01*
X181056Y-163943D01*
X180618Y-163856D01*
Y-166535D01*
X179618D01*
Y-163856D01*
X179181Y-163943D01*
X178839Y-164172D01*
X178497Y-163943D01*
X177953Y-163835D01*
X177165D01*
X176622Y-163943D01*
X176161Y-164251D01*
X175853Y-164712D01*
X175744Y-165256D01*
Y-165651D01*
X175675Y-165755D01*
X175520Y-166535D01*
Y-188173D01*
X175102D01*
Y-196079D01*
X183008D01*
Y-188173D01*
X179598D01*
Y-181158D01*
X180209D01*
Y-178740D01*
X181209D01*
Y-181158D01*
X187063D01*
Y-177373D01*
X187071Y-177335D01*
X187063Y-177297D01*
Y-176323D01*
X187063D01*
X186935Y-176112D01*
X187004Y-175645D01*
X187047Y-175610D01*
X187295Y-175507D01*
X188026Y-174946D01*
X188587Y-174215D01*
X188940Y-173364D01*
X189060Y-172450D01*
X188940Y-171536D01*
X188587Y-170685D01*
X188026Y-169954D01*
X187295Y-169393D01*
X186444Y-169040D01*
X185530Y-168920D01*
X185463Y-168929D01*
X185376Y-168926D01*
X185260Y-168911D01*
X185146Y-168887D01*
X185032Y-168852D01*
X184915Y-168805D01*
X184796Y-168744D01*
X184716Y-168695D01*
Y-166535D01*
X184561Y-165755D01*
X184492Y-165651D01*
Y-165256D01*
X184384Y-164712D01*
X184076Y-164251D01*
X183615Y-163943D01*
X183071Y-163835D01*
D02*
G37*
G36*
X58972Y-163286D02*
X57290D01*
Y-164770D01*
X58972D01*
Y-163286D01*
D02*
G37*
G36*
X144780D02*
X143098D01*
Y-164770D01*
X144780D01*
Y-163286D01*
D02*
G37*
G36*
X58972Y-165770D02*
X57290D01*
Y-167254D01*
X58972D01*
Y-165770D01*
D02*
G37*
G36*
X50772Y-166000D02*
X48500D01*
Y-168075D01*
X50772D01*
Y-166000D01*
D02*
G37*
G36*
X47500D02*
X45228D01*
Y-168075D01*
X47500D01*
Y-166000D01*
D02*
G37*
G36*
X33965Y-168980D02*
Y-172500D01*
X37485D01*
X37411Y-171942D01*
X37003Y-170957D01*
X36354Y-170111D01*
X35508Y-169461D01*
X34522Y-169053D01*
X33965Y-168980D01*
D02*
G37*
G36*
X32965D02*
X32407Y-169053D01*
X31422Y-169461D01*
X30575Y-170111D01*
X29926Y-170957D01*
X29518Y-171942D01*
X29444Y-172500D01*
X32965D01*
Y-168980D01*
D02*
G37*
G36*
X37485Y-173500D02*
X33965D01*
Y-177020D01*
X34522Y-176947D01*
X35508Y-176539D01*
X36354Y-175889D01*
X37003Y-175043D01*
X37411Y-174058D01*
X37485Y-173500D01*
D02*
G37*
G36*
X32965D02*
X29444D01*
X29518Y-174058D01*
X29926Y-175043D01*
X30575Y-175889D01*
X31422Y-176539D01*
X32407Y-176947D01*
X32965Y-177020D01*
Y-173500D01*
D02*
G37*
G36*
X155799Y-179240D02*
X153882D01*
Y-181158D01*
X155799D01*
Y-179240D01*
D02*
G37*
G36*
X74550Y-161040D02*
X73636Y-161160D01*
X72785Y-161513D01*
X72054Y-162074D01*
X71493Y-162805D01*
X71460Y-162885D01*
X71407Y-162970D01*
X71368Y-163020D01*
X71325Y-163062D01*
X71275Y-163099D01*
X71212Y-163135D01*
X71131Y-163170D01*
X71028Y-163201D01*
X70900Y-163226D01*
X70861Y-163231D01*
X63408D01*
X63132Y-163286D01*
X59971D01*
Y-165270D01*
Y-167254D01*
X63132D01*
X63408Y-167309D01*
X71654D01*
X71793Y-167324D01*
X72157Y-167387D01*
X72299Y-167424D01*
X72445Y-167469D01*
X72580Y-167521D01*
X72707Y-167577D01*
X72746Y-167597D01*
X72785Y-167627D01*
X73636Y-167980D01*
X74550Y-168100D01*
X75464Y-167980D01*
X76315Y-167627D01*
X76354Y-167597D01*
X76393Y-167577D01*
X76520Y-167520D01*
X76656Y-167469D01*
X76788Y-167428D01*
X77133Y-167349D01*
X77284Y-167326D01*
X77497Y-167309D01*
X79739D01*
Y-167929D01*
X79734Y-167947D01*
X79718Y-168169D01*
X79681Y-168348D01*
X79609Y-168563D01*
X79498Y-168811D01*
X79346Y-169088D01*
X79148Y-169393D01*
X78913Y-169713D01*
X78366Y-170351D01*
X69826Y-178891D01*
X60251D01*
X60251Y-178891D01*
X59471Y-179046D01*
X58809Y-179488D01*
X50625Y-187672D01*
X50553Y-187729D01*
X50401Y-187829D01*
X50244Y-187915D01*
X50079Y-187988D01*
X49906Y-188047D01*
X49723Y-188094D01*
X49527Y-188128D01*
X49318Y-188148D01*
X49152Y-188152D01*
X49055Y-188139D01*
X48023Y-188275D01*
X47062Y-188673D01*
X46236Y-189307D01*
X45602Y-190132D01*
X45204Y-191094D01*
X45068Y-192126D01*
X45204Y-193158D01*
X45602Y-194119D01*
X46236Y-194945D01*
X47062Y-195579D01*
X48023Y-195977D01*
X49055Y-196113D01*
X50087Y-195977D01*
X51049Y-195579D01*
X51874Y-194945D01*
X52508Y-194119D01*
X52906Y-193158D01*
X53042Y-192126D01*
X53029Y-192029D01*
X53033Y-191863D01*
X53053Y-191654D01*
X53087Y-191458D01*
X53134Y-191275D01*
X53193Y-191102D01*
X53266Y-190937D01*
X53352Y-190780D01*
X53452Y-190628D01*
X53509Y-190556D01*
X61096Y-182969D01*
X64938D01*
X64992Y-183117D01*
X65021Y-183469D01*
X64439Y-183858D01*
X60625Y-187672D01*
X60553Y-187729D01*
X60401Y-187829D01*
X60244Y-187915D01*
X60079Y-187988D01*
X59906Y-188047D01*
X59723Y-188094D01*
X59527Y-188128D01*
X59318Y-188148D01*
X59152Y-188152D01*
X59055Y-188139D01*
X58023Y-188275D01*
X57062Y-188673D01*
X56236Y-189307D01*
X55602Y-190132D01*
X55204Y-191094D01*
X55068Y-192126D01*
X55204Y-193158D01*
X55602Y-194119D01*
X56236Y-194945D01*
X57062Y-195579D01*
X58023Y-195977D01*
X59055Y-196113D01*
X60087Y-195977D01*
X61049Y-195579D01*
X61874Y-194945D01*
X62508Y-194119D01*
X62906Y-193158D01*
X63042Y-192126D01*
X63029Y-192029D01*
X63033Y-191863D01*
X63053Y-191654D01*
X63087Y-191458D01*
X63134Y-191275D01*
X63193Y-191102D01*
X63266Y-190937D01*
X63352Y-190780D01*
X63452Y-190628D01*
X63509Y-190556D01*
X66726Y-187339D01*
X72420D01*
X72627Y-187839D01*
X71807Y-188659D01*
X71737Y-188713D01*
X71626Y-188779D01*
X71539Y-188818D01*
X71473Y-188836D01*
X71422Y-188842D01*
X71375Y-188840D01*
X71320Y-188828D01*
X71246Y-188801D01*
X71140Y-188744D01*
X71049Y-188673D01*
X70087Y-188275D01*
X69055Y-188139D01*
X68023Y-188275D01*
X67062Y-188673D01*
X66236Y-189307D01*
X65602Y-190132D01*
X65204Y-191094D01*
X65068Y-192126D01*
X65204Y-193158D01*
X65602Y-194119D01*
X66236Y-194945D01*
X67062Y-195579D01*
X68023Y-195977D01*
X69055Y-196113D01*
X70087Y-195977D01*
X71049Y-195579D01*
X71874Y-194945D01*
X72508Y-194119D01*
X72556Y-194003D01*
X72751Y-193686D01*
X72854Y-193543D01*
X74104Y-192130D01*
X74633Y-191601D01*
X75107Y-191834D01*
X75068Y-192126D01*
X75204Y-193158D01*
X75602Y-194119D01*
X76236Y-194945D01*
X77062Y-195579D01*
X78023Y-195977D01*
X79055Y-196113D01*
X80087Y-195977D01*
X81049Y-195579D01*
X81874Y-194945D01*
X82508Y-194119D01*
X82906Y-193158D01*
X83042Y-192126D01*
X83029Y-192029D01*
X83033Y-191863D01*
X83053Y-191654D01*
X83087Y-191458D01*
X83134Y-191275D01*
X83193Y-191102D01*
X83266Y-190937D01*
X83352Y-190780D01*
X83452Y-190628D01*
X83509Y-190556D01*
X94538Y-179527D01*
X95000Y-179718D01*
Y-183297D01*
X90625Y-187672D01*
X90553Y-187729D01*
X90401Y-187829D01*
X90244Y-187915D01*
X90079Y-187988D01*
X89906Y-188047D01*
X89723Y-188094D01*
X89527Y-188128D01*
X89318Y-188148D01*
X89152Y-188152D01*
X89055Y-188139D01*
X88023Y-188275D01*
X87062Y-188673D01*
X86236Y-189307D01*
X85602Y-190132D01*
X85204Y-191094D01*
X85068Y-192126D01*
X85204Y-193158D01*
X85602Y-194119D01*
X86236Y-194945D01*
X87062Y-195579D01*
X88023Y-195977D01*
X89055Y-196113D01*
X90087Y-195977D01*
X91049Y-195579D01*
X91874Y-194945D01*
X92508Y-194119D01*
X92906Y-193158D01*
X93042Y-192126D01*
X93029Y-192029D01*
X93033Y-191863D01*
X93053Y-191654D01*
X93087Y-191458D01*
X93134Y-191275D01*
X93193Y-191102D01*
X93266Y-190937D01*
X93352Y-190780D01*
X93452Y-190628D01*
X93509Y-190556D01*
X97138Y-186927D01*
X97600Y-187118D01*
Y-187703D01*
X97588Y-187798D01*
X97551Y-187954D01*
X97502Y-188095D01*
X97442Y-188224D01*
X97368Y-188345D01*
X97279Y-188461D01*
X97171Y-188574D01*
X97042Y-188686D01*
X96854Y-188820D01*
X96812Y-188865D01*
X96236Y-189307D01*
X95602Y-190132D01*
X95204Y-191094D01*
X95068Y-192126D01*
X95204Y-193158D01*
X95602Y-194119D01*
X96236Y-194945D01*
X97062Y-195579D01*
X98023Y-195977D01*
X99055Y-196113D01*
X100087Y-195977D01*
X101049Y-195579D01*
X101874Y-194945D01*
X102508Y-194119D01*
X102906Y-193158D01*
X103042Y-192126D01*
X102906Y-191094D01*
X102508Y-190132D01*
X102371Y-189954D01*
X102356Y-189917D01*
X102207Y-189685D01*
X102088Y-189477D01*
X101985Y-189270D01*
X101896Y-189067D01*
X101823Y-188865D01*
X101763Y-188664D01*
X101718Y-188464D01*
X101685Y-188264D01*
X101679Y-188194D01*
Y-170161D01*
X101523Y-169381D01*
X101339Y-169106D01*
Y-167309D01*
X107692D01*
Y-169106D01*
X107508Y-169381D01*
X107353Y-170161D01*
Y-187754D01*
X107341Y-187849D01*
X107304Y-188015D01*
X107254Y-188169D01*
X107190Y-188315D01*
X107112Y-188455D01*
X107017Y-188592D01*
X106905Y-188726D01*
X106771Y-188859D01*
X106585Y-189016D01*
X106537Y-189076D01*
X106236Y-189307D01*
X105602Y-190132D01*
X105204Y-191094D01*
X105068Y-192126D01*
X105204Y-193158D01*
X105602Y-194119D01*
X106236Y-194945D01*
X107062Y-195579D01*
X108023Y-195977D01*
X109055Y-196113D01*
X110087Y-195977D01*
X111049Y-195579D01*
X111874Y-194945D01*
X112508Y-194119D01*
X112906Y-193158D01*
X113042Y-192126D01*
X112906Y-191094D01*
X112508Y-190132D01*
X112201Y-189733D01*
X112159Y-189648D01*
X111996Y-189434D01*
X111868Y-189244D01*
X111758Y-189056D01*
X111664Y-188868D01*
X111586Y-188681D01*
X111523Y-188494D01*
X111475Y-188305D01*
X111440Y-188114D01*
X111431Y-188031D01*
Y-181468D01*
X111893Y-181277D01*
X117016Y-186400D01*
Y-187866D01*
X117005Y-187958D01*
X116969Y-188136D01*
X116918Y-188308D01*
X116853Y-188476D01*
X116773Y-188640D01*
X116676Y-188803D01*
X116562Y-188965D01*
X116428Y-189127D01*
X116314Y-189247D01*
X116236Y-189307D01*
X115602Y-190132D01*
X115204Y-191094D01*
X115068Y-192126D01*
X115204Y-193158D01*
X115602Y-194119D01*
X116236Y-194945D01*
X117062Y-195579D01*
X118023Y-195977D01*
X119055Y-196113D01*
X120087Y-195977D01*
X121049Y-195579D01*
X121874Y-194945D01*
X122508Y-194119D01*
X122906Y-193158D01*
X123042Y-192126D01*
X122906Y-191094D01*
X122508Y-190132D01*
X121874Y-189307D01*
X121797Y-189247D01*
X121682Y-189128D01*
X121549Y-188965D01*
X121434Y-188803D01*
X121337Y-188640D01*
X121257Y-188476D01*
X121192Y-188308D01*
X121142Y-188136D01*
X121105Y-187958D01*
X121094Y-187866D01*
Y-186221D01*
X121556Y-186030D01*
X125204Y-189677D01*
X125260Y-189752D01*
X125334Y-189875D01*
X125385Y-189987D01*
X125417Y-190090D01*
X125435Y-190191D01*
X125439Y-190294D01*
X125429Y-190408D01*
X125402Y-190535D01*
X125337Y-190730D01*
X125330Y-190791D01*
X125204Y-191094D01*
X125068Y-192126D01*
X125204Y-193158D01*
X125602Y-194119D01*
X126236Y-194945D01*
X127062Y-195579D01*
X128023Y-195977D01*
X129055Y-196113D01*
X130087Y-195977D01*
X131049Y-195579D01*
X131874Y-194945D01*
X132508Y-194119D01*
X132906Y-193158D01*
X133042Y-192126D01*
X132906Y-191094D01*
X132508Y-190132D01*
X131874Y-189307D01*
X131049Y-188673D01*
X130526Y-188457D01*
X130444Y-188405D01*
X130193Y-188307D01*
X129721Y-188092D01*
X129528Y-187990D01*
X129120Y-187738D01*
X128959Y-187624D01*
X128725Y-187431D01*
X121272Y-179979D01*
X121405Y-179404D01*
X121902Y-179072D01*
X122106Y-178767D01*
X122749Y-178704D01*
X134601Y-190556D01*
X134658Y-190628D01*
X134758Y-190780D01*
X134844Y-190937D01*
X134917Y-191102D01*
X134976Y-191275D01*
X135023Y-191458D01*
X135057Y-191654D01*
X135077Y-191863D01*
X135081Y-192029D01*
X135068Y-192126D01*
X135204Y-193158D01*
X135602Y-194119D01*
X136236Y-194945D01*
X137062Y-195579D01*
X138023Y-195977D01*
X139055Y-196113D01*
X140087Y-195977D01*
X141049Y-195579D01*
X141874Y-194945D01*
X142508Y-194119D01*
X142906Y-193158D01*
X143042Y-192126D01*
X142906Y-191094D01*
X142508Y-190132D01*
X141874Y-189307D01*
X141049Y-188673D01*
X140087Y-188275D01*
X139055Y-188139D01*
X138958Y-188152D01*
X138793Y-188148D01*
X138584Y-188128D01*
X138388Y-188094D01*
X138204Y-188047D01*
X138031Y-187988D01*
X137866Y-187915D01*
X137709Y-187829D01*
X137557Y-187729D01*
X137485Y-187672D01*
X135842Y-186029D01*
X136049Y-185529D01*
X142445D01*
X146057Y-189141D01*
X146108Y-189205D01*
X146173Y-189310D01*
X146196Y-189359D01*
X145602Y-190132D01*
X145204Y-191094D01*
X145068Y-192126D01*
X145204Y-193158D01*
X145602Y-194119D01*
X146236Y-194945D01*
X147062Y-195579D01*
X148023Y-195977D01*
X149055Y-196113D01*
X150087Y-195977D01*
X151049Y-195579D01*
X151874Y-194945D01*
X152508Y-194119D01*
X152906Y-193158D01*
X153042Y-192126D01*
X152906Y-191094D01*
X152508Y-190132D01*
X151874Y-189307D01*
X151511Y-189028D01*
X151506Y-189020D01*
X150791Y-188253D01*
X150497Y-187813D01*
X144732Y-182048D01*
X144070Y-181606D01*
X143290Y-181451D01*
X136427D01*
X129414Y-174438D01*
X129292Y-173961D01*
X129292D01*
X129292Y-173961D01*
Y-172300D01*
X129317Y-172290D01*
X129470Y-172249D01*
X129684Y-172214D01*
X129833Y-172201D01*
X136246D01*
X154601Y-190556D01*
X154658Y-190628D01*
X154758Y-190780D01*
X154844Y-190937D01*
X154917Y-191102D01*
X154976Y-191275D01*
X155023Y-191458D01*
X155057Y-191654D01*
X155077Y-191863D01*
X155081Y-192029D01*
X155068Y-192126D01*
X155204Y-193158D01*
X155602Y-194119D01*
X156236Y-194945D01*
X157062Y-195579D01*
X158023Y-195977D01*
X159055Y-196113D01*
X160087Y-195977D01*
X161049Y-195579D01*
X161874Y-194945D01*
X162508Y-194119D01*
X162906Y-193158D01*
X163042Y-192126D01*
X162906Y-191094D01*
X162508Y-190132D01*
X161874Y-189307D01*
X161049Y-188673D01*
X160087Y-188275D01*
X159055Y-188139D01*
X158958Y-188152D01*
X158793Y-188148D01*
X158583Y-188128D01*
X158388Y-188094D01*
X158204Y-188047D01*
X158031Y-187988D01*
X157867Y-187915D01*
X157709Y-187829D01*
X157557Y-187729D01*
X157485Y-187672D01*
X147632Y-177819D01*
X147839Y-177319D01*
X153882D01*
Y-178240D01*
X156299D01*
Y-178740D01*
X156799D01*
Y-181158D01*
X162654D01*
Y-177389D01*
X162767Y-177351D01*
X162948Y-177319D01*
X163795D01*
X165780Y-179304D01*
X165797Y-179324D01*
X165889Y-179452D01*
X165964Y-179576D01*
X166024Y-179695D01*
X166072Y-179812D01*
X166107Y-179926D01*
X166131Y-180040D01*
X166146Y-180156D01*
X166149Y-180243D01*
X166140Y-180310D01*
X166260Y-181224D01*
X166613Y-182075D01*
X167174Y-182806D01*
X167905Y-183367D01*
X168756Y-183720D01*
X169670Y-183840D01*
X170584Y-183720D01*
X171435Y-183367D01*
X172166Y-182806D01*
X172727Y-182075D01*
X173080Y-181224D01*
X173200Y-180310D01*
X173080Y-179396D01*
X172727Y-178545D01*
X172166Y-177814D01*
X171435Y-177253D01*
X170584Y-176900D01*
X169670Y-176780D01*
X169603Y-176789D01*
X169516Y-176786D01*
X169400Y-176771D01*
X169286Y-176747D01*
X169172Y-176712D01*
X169055Y-176665D01*
X168936Y-176604D01*
X168812Y-176529D01*
X168684Y-176437D01*
X168664Y-176420D01*
X166082Y-173838D01*
X165420Y-173396D01*
X164640Y-173241D01*
X162948D01*
X162767Y-173209D01*
X162622Y-173161D01*
X162526Y-173109D01*
X162461Y-173056D01*
X162407Y-172990D01*
X162356Y-172894D01*
X162307Y-172749D01*
X162275Y-172568D01*
Y-167913D01*
X162275Y-167913D01*
X162120Y-167133D01*
X161678Y-166472D01*
X161678Y-166471D01*
X160673Y-165466D01*
Y-165256D01*
X160565Y-164712D01*
X160257Y-164251D01*
X159796Y-163943D01*
X159252Y-163835D01*
X158465D01*
X157921Y-163943D01*
X157579Y-164172D01*
X157237Y-163943D01*
X156799Y-163856D01*
Y-166535D01*
X155799D01*
Y-163856D01*
X155362Y-163943D01*
X155020Y-164172D01*
X154678Y-163943D01*
X154134Y-163835D01*
X153347D01*
X152803Y-163943D01*
X152342Y-164251D01*
X152034Y-164712D01*
X151926Y-165256D01*
Y-167815D01*
X151979Y-168087D01*
X151978Y-168113D01*
X151993Y-168154D01*
X152034Y-168359D01*
X152103Y-168463D01*
X152112Y-168488D01*
X152136Y-168528D01*
X152141Y-168538D01*
X152151Y-168565D01*
X152164Y-168607D01*
X152178Y-168666D01*
X152188Y-168720D01*
X152211Y-168981D01*
Y-170779D01*
X151856Y-171310D01*
X151701Y-172090D01*
X151830Y-172741D01*
X151548Y-173241D01*
X148405D01*
X142880Y-167716D01*
X143071Y-167254D01*
X144780D01*
Y-165770D01*
X142598D01*
Y-165270D01*
X142098D01*
Y-163286D01*
X138938D01*
X138662Y-163231D01*
X78239D01*
X78200Y-163226D01*
X78072Y-163201D01*
X77969Y-163170D01*
X77888Y-163135D01*
X77825Y-163099D01*
X77775Y-163062D01*
X77732Y-163020D01*
X77693Y-162970D01*
X77640Y-162885D01*
X77607Y-162805D01*
X77046Y-162074D01*
X76315Y-161513D01*
X75464Y-161160D01*
X74550Y-161040D01*
D02*
G37*
G36*
X30920Y-187578D02*
Y-189120D01*
X32462D01*
X32398Y-188801D01*
X31934Y-188106D01*
X31239Y-187642D01*
X30920Y-187578D01*
D02*
G37*
G36*
X29920D02*
X29601Y-187642D01*
X28906Y-188106D01*
X28442Y-188801D01*
X28378Y-189120D01*
X29920D01*
Y-187578D01*
D02*
G37*
G36*
X25920D02*
Y-189120D01*
X27462D01*
X27398Y-188801D01*
X26934Y-188106D01*
X26239Y-187642D01*
X25920Y-187578D01*
D02*
G37*
G36*
X24920D02*
X24601Y-187642D01*
X23906Y-188106D01*
X23442Y-188801D01*
X23378Y-189120D01*
X24920D01*
Y-187578D01*
D02*
G37*
G36*
X20920D02*
Y-189120D01*
X22462D01*
X22398Y-188801D01*
X21934Y-188106D01*
X21239Y-187642D01*
X20920Y-187578D01*
D02*
G37*
G36*
X19920D02*
X19601Y-187642D01*
X18906Y-188106D01*
X18442Y-188801D01*
X18378Y-189120D01*
X19920D01*
Y-187578D01*
D02*
G37*
G36*
X15920D02*
Y-189120D01*
X17462D01*
X17398Y-188801D01*
X16934Y-188106D01*
X16239Y-187642D01*
X15920Y-187578D01*
D02*
G37*
G36*
X14920D02*
X14601Y-187642D01*
X13906Y-188106D01*
X13442Y-188801D01*
X13378Y-189120D01*
X14920D01*
Y-187578D01*
D02*
G37*
G36*
X32462Y-190120D02*
X28378D01*
X28442Y-190439D01*
X28906Y-191134D01*
X29191Y-191324D01*
Y-191926D01*
X28996Y-192056D01*
X28532Y-192751D01*
X28468Y-193070D01*
X32552D01*
X32488Y-192751D01*
X32024Y-192056D01*
X31739Y-191866D01*
Y-191264D01*
X31934Y-191134D01*
X32398Y-190439D01*
X32462Y-190120D01*
D02*
G37*
G36*
X27462D02*
X23378D01*
X23442Y-190439D01*
X23906Y-191134D01*
X24191Y-191324D01*
Y-191926D01*
X23996Y-192056D01*
X23532Y-192751D01*
X23468Y-193070D01*
X27552D01*
X27488Y-192751D01*
X27024Y-192056D01*
X26739Y-191866D01*
Y-191264D01*
X26934Y-191134D01*
X27398Y-190439D01*
X27462Y-190120D01*
D02*
G37*
G36*
X22462D02*
X18378D01*
X18442Y-190439D01*
X18906Y-191134D01*
X19191Y-191324D01*
Y-191926D01*
X18996Y-192056D01*
X18532Y-192751D01*
X18468Y-193070D01*
X22552D01*
X22488Y-192751D01*
X22024Y-192056D01*
X21739Y-191866D01*
Y-191264D01*
X21934Y-191134D01*
X22398Y-190439D01*
X22462Y-190120D01*
D02*
G37*
G36*
X17462D02*
X13378D01*
X13442Y-190439D01*
X13906Y-191134D01*
X14191Y-191324D01*
Y-191926D01*
X13996Y-192056D01*
X13532Y-192751D01*
X13468Y-193070D01*
X17552D01*
X17488Y-192751D01*
X17024Y-192056D01*
X16739Y-191866D01*
Y-191264D01*
X16934Y-191134D01*
X17398Y-190439D01*
X17462Y-190120D01*
D02*
G37*
G36*
X32552Y-194070D02*
X31010D01*
Y-195612D01*
X31329Y-195548D01*
X32024Y-195084D01*
X32488Y-194389D01*
X32552Y-194070D01*
D02*
G37*
G36*
X30010D02*
X28468D01*
X28532Y-194389D01*
X28996Y-195084D01*
X29691Y-195548D01*
X30010Y-195612D01*
Y-194070D01*
D02*
G37*
G36*
X27552D02*
X26010D01*
Y-195612D01*
X26329Y-195548D01*
X27024Y-195084D01*
X27488Y-194389D01*
X27552Y-194070D01*
D02*
G37*
G36*
X25010D02*
X23468D01*
X23532Y-194389D01*
X23996Y-195084D01*
X24691Y-195548D01*
X25010Y-195612D01*
Y-194070D01*
D02*
G37*
G36*
X22552D02*
X21010D01*
Y-195612D01*
X21329Y-195548D01*
X22024Y-195084D01*
X22488Y-194389D01*
X22552Y-194070D01*
D02*
G37*
G36*
X20010D02*
X18468D01*
X18532Y-194389D01*
X18996Y-195084D01*
X19691Y-195548D01*
X20010Y-195612D01*
Y-194070D01*
D02*
G37*
G36*
X17552D02*
X16010D01*
Y-195612D01*
X16329Y-195548D01*
X17024Y-195084D01*
X17488Y-194389D01*
X17552Y-194070D01*
D02*
G37*
G36*
X15010D02*
X13468D01*
X13532Y-194389D01*
X13996Y-195084D01*
X14691Y-195548D01*
X15010Y-195612D01*
Y-194070D01*
D02*
G37*
G36*
X169055Y-188139D02*
X168023Y-188275D01*
X167062Y-188673D01*
X166236Y-189307D01*
X165602Y-190132D01*
X165204Y-191094D01*
X165068Y-192126D01*
X165204Y-193158D01*
X165602Y-194119D01*
X166236Y-194945D01*
X167062Y-195579D01*
X168023Y-195977D01*
X169055Y-196113D01*
X170087Y-195977D01*
X171049Y-195579D01*
X171874Y-194945D01*
X172508Y-194119D01*
X172906Y-193158D01*
X173042Y-192126D01*
X172906Y-191094D01*
X172508Y-190132D01*
X171874Y-189307D01*
X171049Y-188673D01*
X170087Y-188275D01*
X169055Y-188139D01*
D02*
G37*
%LPD*%
G36*
X186441Y-42472D02*
X186421Y-42282D01*
X186361Y-42112D01*
X186260Y-41962D01*
X186119Y-41832D01*
X185938Y-41722D01*
X185717Y-41632D01*
X185455Y-41562D01*
X185154Y-41512D01*
X184812Y-41482D01*
X184429Y-41472D01*
Y-39472D01*
X184812Y-39462D01*
X185154Y-39432D01*
X185455Y-39382D01*
X185717Y-39312D01*
X185938Y-39222D01*
X186119Y-39112D01*
X186260Y-38982D01*
X186361Y-38832D01*
X186421Y-38662D01*
X186441Y-38472D01*
Y-42472D01*
D02*
G37*
G36*
X187062Y-46735D02*
X187275Y-46903D01*
X187498Y-47050D01*
X187730Y-47177D01*
X187973Y-47284D01*
X188227Y-47372D01*
X188490Y-47439D01*
X188763Y-47486D01*
X189047Y-47513D01*
X189341Y-47520D01*
X186417Y-50443D01*
X186410Y-50149D01*
X186383Y-49866D01*
X186336Y-49592D01*
X186269Y-49329D01*
X186182Y-49076D01*
X186075Y-48833D01*
X185948Y-48600D01*
X185800Y-48377D01*
X185633Y-48165D01*
X185446Y-47962D01*
X186860Y-46548D01*
X187062Y-46735D01*
D02*
G37*
G36*
X155883Y-69898D02*
X155990Y-71438D01*
X156018Y-71498D01*
X156051Y-71518D01*
X153712D01*
X153744Y-71498D01*
X153773Y-71438D01*
X153799Y-71338D01*
X153821Y-71198D01*
X153839Y-71018D01*
X153875Y-70238D01*
X153882Y-69518D01*
X155882D01*
X155883Y-69898D01*
D02*
G37*
G36*
X155967Y-73482D02*
X155892Y-73542D01*
X155826Y-73642D01*
X155769Y-73782D01*
X155720Y-73962D01*
X155681Y-74182D01*
X155650Y-74442D01*
X155614Y-75082D01*
X155610Y-75462D01*
X153610D01*
X153712Y-73462D01*
X156051D01*
X155967Y-73482D01*
D02*
G37*
G36*
X155617Y-80738D02*
X155640Y-80976D01*
X155677Y-81203D01*
X155730Y-81420D01*
X155798Y-81626D01*
X155880Y-81821D01*
X155977Y-82005D01*
X156090Y-82179D01*
X156218Y-82342D01*
X156360Y-82495D01*
X152860D01*
X153003Y-82342D01*
X153130Y-82179D01*
X153243Y-82005D01*
X153340Y-81821D01*
X153422Y-81626D01*
X153490Y-81420D01*
X153542Y-81203D01*
X153580Y-80976D01*
X153603Y-80738D01*
X153610Y-80489D01*
X155610D01*
X155617Y-80738D01*
D02*
G37*
G36*
X187062Y-56735D02*
X187275Y-56903D01*
X187498Y-57050D01*
X187730Y-57177D01*
X187973Y-57284D01*
X188227Y-57371D01*
X188490Y-57439D01*
X188763Y-57486D01*
X189047Y-57513D01*
X189341Y-57520D01*
X186417Y-60443D01*
X186410Y-60149D01*
X186383Y-59866D01*
X186336Y-59592D01*
X186269Y-59329D01*
X186182Y-59076D01*
X186075Y-58833D01*
X185948Y-58600D01*
X185800Y-58377D01*
X185633Y-58165D01*
X185446Y-57962D01*
X186860Y-56548D01*
X187062Y-56735D01*
D02*
G37*
G36*
X169365Y-61085D02*
X170981Y-60381D01*
X170995Y-60449D01*
X171037Y-60541D01*
X171108Y-60655D01*
X171207Y-60791D01*
X171490Y-61132D01*
X172126Y-61812D01*
X172395Y-62083D01*
X171361Y-63878D01*
X170867Y-63398D01*
X169972Y-62616D01*
X169571Y-62314D01*
X169202Y-62072D01*
X168864Y-61890D01*
X168558Y-61767D01*
X168282Y-61704D01*
X168038Y-61700D01*
X167826Y-61756D01*
X168254Y-61570D01*
X168193Y-61568D01*
Y-60568D01*
X168344Y-60566D01*
X168624Y-60542D01*
X168752Y-60521D01*
X168873Y-60494D01*
X168987Y-60461D01*
X169093Y-60422D01*
X169191Y-60377D01*
X169282Y-60326D01*
X169365Y-60269D01*
Y-61085D01*
D02*
G37*
G36*
X187062Y-66735D02*
X187275Y-66903D01*
X187498Y-67050D01*
X187730Y-67177D01*
X187973Y-67284D01*
X188227Y-67371D01*
X188490Y-67439D01*
X188763Y-67486D01*
X189047Y-67513D01*
X189341Y-67520D01*
X186417Y-70443D01*
X186410Y-70149D01*
X186383Y-69866D01*
X186336Y-69592D01*
X186269Y-69329D01*
X186182Y-69076D01*
X186075Y-68833D01*
X185948Y-68600D01*
X185800Y-68377D01*
X185633Y-68165D01*
X185446Y-67962D01*
X186860Y-66548D01*
X187062Y-66735D01*
D02*
G37*
G36*
Y-76735D02*
X187275Y-76903D01*
X187498Y-77050D01*
X187730Y-77177D01*
X187973Y-77284D01*
X188227Y-77372D01*
X188490Y-77439D01*
X188763Y-77486D01*
X189047Y-77513D01*
X189341Y-77520D01*
X186417Y-80443D01*
X186410Y-80149D01*
X186383Y-79866D01*
X186336Y-79592D01*
X186269Y-79329D01*
X186182Y-79076D01*
X186075Y-78833D01*
X185948Y-78600D01*
X185800Y-78377D01*
X185633Y-78165D01*
X185446Y-77962D01*
X186860Y-76548D01*
X187062Y-76735D01*
D02*
G37*
G36*
X37926Y-76142D02*
X37906Y-75998D01*
X37846Y-75869D01*
X37746Y-75755D01*
X37606Y-75656D01*
X37426Y-75573D01*
X37206Y-75504D01*
X36946Y-75451D01*
X36646Y-75413D01*
X36306Y-75390D01*
X35926Y-75383D01*
Y-73383D01*
X36306Y-73379D01*
X37426Y-73291D01*
X37606Y-73251D01*
X37746Y-73203D01*
X37846Y-73148D01*
X37906Y-73086D01*
X37926Y-73017D01*
Y-76142D01*
D02*
G37*
G36*
X33427Y-60414D02*
X33298Y-60474D01*
X33184Y-60574D01*
X33086Y-60714D01*
X33002Y-60894D01*
X32934Y-61114D01*
X32880Y-61374D01*
X32842Y-61674D01*
X32820Y-62014D01*
X32812Y-62394D01*
X30812D01*
X30804Y-62014D01*
X30744Y-61374D01*
X30691Y-61114D01*
X30622Y-60894D01*
X30539Y-60714D01*
X30440Y-60574D01*
X30326Y-60474D01*
X30197Y-60414D01*
X30052Y-60394D01*
X33572D01*
X33427Y-60414D01*
D02*
G37*
G36*
X32815Y-66841D02*
X32893Y-67951D01*
X32928Y-68139D01*
X32970Y-68291D01*
X33018Y-68407D01*
X33073Y-68488D01*
X33135Y-68532D01*
X30686D01*
X30710Y-68502D01*
X30732Y-68434D01*
X30750Y-68326D01*
X30767Y-68179D01*
X30801Y-67505D01*
X30812Y-66480D01*
X32812Y-66474D01*
X32815Y-66841D01*
D02*
G37*
G36*
X50960Y-70062D02*
X51697Y-70687D01*
X52023Y-70914D01*
X52320Y-71085D01*
X52589Y-71200D01*
X52829Y-71257D01*
X53040Y-71259D01*
X53223Y-71203D01*
X53378Y-71091D01*
X50561Y-73908D01*
X50673Y-73753D01*
X50729Y-73570D01*
X50727Y-73359D01*
X50670Y-73119D01*
X50555Y-72850D01*
X50384Y-72553D01*
X50157Y-72227D01*
X49873Y-71873D01*
X49135Y-71079D01*
X50549Y-69665D01*
X50960Y-70062D01*
D02*
G37*
G36*
X25021Y-75152D02*
X24983Y-75227D01*
X24949Y-75339D01*
X24920Y-75489D01*
X24896Y-75676D01*
X24860Y-76162D01*
X24840Y-77173D01*
X22840D01*
X22837Y-76799D01*
X22759Y-75489D01*
X22730Y-75339D01*
X22696Y-75227D01*
X22658Y-75152D01*
X22615Y-75115D01*
X25064D01*
X25021Y-75152D01*
D02*
G37*
G36*
X24840Y-77570D02*
X24859Y-78491D01*
X22763Y-78351D01*
X22778Y-78330D01*
X22791Y-78292D01*
X22802Y-78237D01*
X22812Y-78166D01*
X22827Y-77974D01*
X22840Y-77390D01*
X24840Y-77570D01*
D02*
G37*
G36*
X53461Y-86973D02*
X53167Y-86980D01*
X52883Y-87007D01*
X52610Y-87054D01*
X52346Y-87121D01*
X52093Y-87208D01*
X51850Y-87315D01*
X51617Y-87442D01*
X51395Y-87590D01*
X51182Y-87757D01*
X50980Y-87944D01*
X49566Y-86530D01*
X49753Y-86328D01*
X49920Y-86115D01*
X50068Y-85892D01*
X50195Y-85660D01*
X50302Y-85417D01*
X50389Y-85163D01*
X50456Y-84900D01*
X50503Y-84627D01*
X50530Y-84343D01*
X50537Y-84049D01*
X53461Y-86973D01*
D02*
G37*
G36*
X33985Y-88872D02*
X34045Y-88967D01*
X34145Y-89052D01*
X34285Y-89125D01*
X34465Y-89187D01*
X34685Y-89237D01*
X34945Y-89277D01*
X35245Y-89305D01*
X35965Y-89328D01*
Y-91328D01*
X35585Y-91333D01*
X34945Y-91378D01*
X34685Y-91417D01*
X34465Y-91468D01*
X34285Y-91530D01*
X34145Y-91603D01*
X34045Y-91688D01*
X33985Y-91783D01*
X33965Y-91890D01*
X33802Y-91910D01*
X33655Y-91970D01*
X33526Y-92070D01*
X33414Y-92210D01*
X33319Y-92390D01*
X33241Y-92610D01*
X33181Y-92870D01*
X33138Y-93170D01*
X33112Y-93510D01*
X33103Y-93890D01*
X31103D01*
X31097Y-93510D01*
X31044Y-92870D01*
X30998Y-92610D01*
X30939Y-92390D01*
X30867Y-92210D01*
X30781Y-92070D01*
X30683Y-91970D01*
X30571Y-91910D01*
X30446Y-91890D01*
X33965D01*
Y-88765D01*
X33985Y-88872D01*
D02*
G37*
G36*
X33106Y-97320D02*
X33184Y-98631D01*
X33213Y-98780D01*
X33247Y-98892D01*
X33285Y-98967D01*
X33328Y-99005D01*
X30879D01*
X30922Y-98967D01*
X30960Y-98892D01*
X30994Y-98780D01*
X31023Y-98631D01*
X31047Y-98444D01*
X31083Y-97957D01*
X31103Y-96946D01*
X33103D01*
X33106Y-97320D01*
D02*
G37*
G36*
X38320Y-106457D02*
X38300Y-106343D01*
X38240Y-106240D01*
X38140Y-106150D01*
X38000Y-106072D01*
X37820Y-106005D01*
X37600Y-105951D01*
X37340Y-105909D01*
X37040Y-105879D01*
X36320Y-105855D01*
Y-103855D01*
X36700Y-103849D01*
X37600Y-103771D01*
X37820Y-103724D01*
X38000Y-103666D01*
X38140Y-103598D01*
X38240Y-103520D01*
X38300Y-103431D01*
X38320Y-103332D01*
Y-106457D01*
D02*
G37*
G36*
X183738Y-169233D02*
X183922Y-169385D01*
X184109Y-169519D01*
X184299Y-169635D01*
X184493Y-169733D01*
X184689Y-169813D01*
X184889Y-169875D01*
X185091Y-169918D01*
X185296Y-169943D01*
X185505Y-169950D01*
X183030Y-172425D01*
X183023Y-172216D01*
X182998Y-172011D01*
X182955Y-171809D01*
X182893Y-171609D01*
X182813Y-171413D01*
X182715Y-171219D01*
X182599Y-171029D01*
X182465Y-170842D01*
X182313Y-170658D01*
X182142Y-170476D01*
X183556Y-169062D01*
X183738Y-169233D01*
D02*
G37*
G36*
X186535Y-174739D02*
X186366Y-174826D01*
X186215Y-174932D01*
X186082Y-175057D01*
X185966Y-175200D01*
X185868Y-175361D01*
X185788Y-175541D01*
X185726Y-175740D01*
X185681Y-175957D01*
X185672Y-176041D01*
X185711Y-176615D01*
X185747Y-176835D01*
X185792Y-177015D01*
X185844Y-177155D01*
X185905Y-177255D01*
X185974Y-177315D01*
X186051Y-177335D01*
X183240D01*
X183317Y-177315D01*
X183386Y-177255D01*
X183447Y-177155D01*
X183500Y-177015D01*
X183544Y-176835D01*
X183581Y-176615D01*
X183609Y-176355D01*
X183642Y-175715D01*
X183644Y-175488D01*
X183642Y-175345D01*
X183584Y-174652D01*
X183550Y-174438D01*
X183458Y-174037D01*
X183400Y-173850D01*
X183262Y-173501D01*
X186535Y-174739D01*
D02*
G37*
G36*
X181128Y-175715D02*
X181158Y-176055D01*
X181208Y-176355D01*
X181277Y-176615D01*
X181367Y-176835D01*
X181477Y-177015D01*
X181606Y-177155D01*
X181755Y-177255D01*
X181925Y-177315D01*
X182114Y-177335D01*
X179303D01*
X179118Y-175335D01*
X181118D01*
X181128Y-175715D01*
D02*
G37*
G36*
X178570Y-190606D02*
X178604Y-190708D01*
X178652Y-190817D01*
X178716Y-190933D01*
X178794Y-191056D01*
X178887Y-191186D01*
X179118Y-191466D01*
X179256Y-191616D01*
X179409Y-191772D01*
X178702Y-192480D01*
X178545Y-192327D01*
X178115Y-191958D01*
X177985Y-191865D01*
X177863Y-191787D01*
X177746Y-191723D01*
X177637Y-191675D01*
X177535Y-191641D01*
X177439Y-191623D01*
X178552Y-190510D01*
X178570Y-190606D01*
D02*
G37*
G36*
X76856Y-163557D02*
X76976Y-163707D01*
X77112Y-163839D01*
X77265Y-163953D01*
X77434Y-164050D01*
X77620Y-164129D01*
X77823Y-164191D01*
X78043Y-164235D01*
X78279Y-164261D01*
X78532Y-164270D01*
X77883Y-166270D01*
X77636Y-166275D01*
X77166Y-166313D01*
X76943Y-166347D01*
X76522Y-166443D01*
X76323Y-166505D01*
X76132Y-166577D01*
X75949Y-166659D01*
X75774Y-166750D01*
X76754Y-163390D01*
X76856Y-163557D01*
D02*
G37*
G36*
X73326Y-166750D02*
X73151Y-166659D01*
X72968Y-166577D01*
X72777Y-166505D01*
X72578Y-166443D01*
X72371Y-166390D01*
X71934Y-166313D01*
X71703Y-166289D01*
X71217Y-166270D01*
X70568Y-164270D01*
X70821Y-164261D01*
X71057Y-164235D01*
X71277Y-164191D01*
X71480Y-164129D01*
X71666Y-164050D01*
X71835Y-163953D01*
X71988Y-163839D01*
X72124Y-163707D01*
X72243Y-163557D01*
X72346Y-163390D01*
X73326Y-166750D01*
D02*
G37*
G36*
X122700Y-166270D02*
X122320Y-166290D01*
X121980Y-166350D01*
X121680Y-166450D01*
X121420Y-166590D01*
X121200Y-166770D01*
X121020Y-166990D01*
X120880Y-167250D01*
X120780Y-167550D01*
X120720Y-167890D01*
X120700Y-168270D01*
X118700D01*
X118680Y-167890D01*
X118620Y-167550D01*
X118520Y-167250D01*
X118380Y-166990D01*
X118200Y-166770D01*
X117980Y-166590D01*
X117720Y-166450D01*
X117420Y-166350D01*
X117080Y-166290D01*
X116700Y-166270D01*
X119700Y-164270D01*
X122700Y-166270D01*
D02*
G37*
G36*
X159689Y-166103D02*
X159757Y-166136D01*
X159851Y-166199D01*
X159969Y-166291D01*
X160283Y-166567D01*
X160943Y-167206D01*
X159529Y-168621D01*
X159457Y-168545D01*
X159398Y-168477D01*
X159352Y-168415D01*
X159320Y-168360D01*
X159300Y-168312D01*
X159294Y-168271D01*
X159301Y-168237D01*
X159321Y-168209D01*
X159354Y-168189D01*
X159401Y-168175D01*
X159629Y-166128D01*
X159647Y-166101D01*
X159689Y-166103D01*
D02*
G37*
G36*
X154445Y-168044D02*
X154402Y-168134D01*
X154364Y-168233D01*
X154331Y-168341D01*
X154304Y-168458D01*
X154281Y-168585D01*
X154250Y-168865D01*
X154243Y-169020D01*
X154240Y-169183D01*
X153240D01*
X153238Y-169020D01*
X153200Y-168585D01*
X153177Y-168458D01*
X153149Y-168341D01*
X153116Y-168233D01*
X153078Y-168134D01*
X153035Y-168044D01*
X152987Y-167964D01*
X154493D01*
X154445Y-168044D01*
D02*
G37*
G36*
X154242Y-170732D02*
X154258Y-170925D01*
X154272Y-171011D01*
X154290Y-171090D01*
X154312Y-171162D01*
X154338Y-171226D01*
X154368Y-171283D01*
X154402Y-171333D01*
X154440Y-171376D01*
X153040D01*
X153078Y-171333D01*
X153112Y-171283D01*
X153142Y-171226D01*
X153168Y-171162D01*
X153190Y-171090D01*
X153208Y-171011D01*
X153222Y-170925D01*
X153232Y-170832D01*
X153240Y-170624D01*
X154240D01*
X154242Y-170732D01*
D02*
G37*
G36*
X128288Y-168351D02*
X128349Y-168521D01*
X128449Y-168671D01*
X128590Y-168801D01*
X128771Y-168911D01*
X128992Y-169001D01*
X129254Y-169071D01*
X129556Y-169121D01*
X129898Y-169151D01*
X130280Y-169161D01*
Y-171161D01*
X129898Y-171171D01*
X129556Y-171201D01*
X129254Y-171251D01*
X128992Y-171321D01*
X128771Y-171411D01*
X128590Y-171521D01*
X128449Y-171651D01*
X128349Y-171801D01*
X128288Y-171971D01*
X128268Y-172161D01*
Y-168161D01*
X128288Y-168351D01*
D02*
G37*
G36*
X80751Y-172949D02*
X80737Y-172833D01*
X80695Y-172759D01*
X80624Y-172727D01*
X80525Y-172737D01*
X80398Y-172789D01*
X80242Y-172882D01*
X80058Y-173018D01*
X79846Y-173196D01*
X79337Y-173678D01*
X78630Y-171556D01*
X79033Y-171139D01*
X79712Y-170347D01*
X79988Y-169973D01*
X80221Y-169612D01*
X80412Y-169265D01*
X80560Y-168933D01*
X80667Y-168615D01*
X80730Y-168311D01*
X80751Y-168021D01*
Y-172949D01*
D02*
G37*
G36*
X161256Y-172660D02*
X161316Y-173000D01*
X161416Y-173300D01*
X161556Y-173560D01*
X161736Y-173780D01*
X161956Y-173960D01*
X162216Y-174100D01*
X162516Y-174200D01*
X162856Y-174260D01*
X163236Y-174280D01*
Y-176280D01*
X162856Y-176300D01*
X162516Y-176360D01*
X162216Y-176460D01*
X161956Y-176600D01*
X161736Y-176780D01*
X161556Y-177000D01*
X161455Y-177188D01*
X161496Y-177255D01*
X161565Y-177315D01*
X161642Y-177335D01*
X161391D01*
X161316Y-177560D01*
X161256Y-177900D01*
X161236Y-178280D01*
X159236D01*
X159216Y-177900D01*
X159156Y-177560D01*
X159081Y-177335D01*
X158831D01*
X158908Y-177315D01*
X158977Y-177255D01*
X159018Y-177188D01*
X158916Y-177000D01*
X158736Y-176780D01*
X158516Y-176600D01*
X158256Y-176460D01*
X157956Y-176360D01*
X157616Y-176300D01*
X157236Y-176280D01*
Y-174280D01*
X157616Y-174260D01*
X157956Y-174200D01*
X158256Y-174100D01*
X158516Y-173960D01*
X158736Y-173780D01*
X158916Y-173560D01*
X159056Y-173300D01*
X159156Y-173000D01*
X159216Y-172660D01*
X159236Y-172280D01*
X161236D01*
X161256Y-172660D01*
D02*
G37*
G36*
X167877Y-177093D02*
X168062Y-177245D01*
X168249Y-177379D01*
X168439Y-177496D01*
X168633Y-177593D01*
X168829Y-177673D01*
X169028Y-177735D01*
X169231Y-177778D01*
X169437Y-177803D01*
X169645Y-177810D01*
X167170Y-180285D01*
X167163Y-180077D01*
X167138Y-179871D01*
X167095Y-179669D01*
X167033Y-179469D01*
X166953Y-179273D01*
X166856Y-179079D01*
X166739Y-178889D01*
X166605Y-178702D01*
X166453Y-178517D01*
X166282Y-178336D01*
X167696Y-176922D01*
X167877Y-177093D01*
D02*
G37*
G36*
X73884Y-190881D02*
X73543Y-191225D01*
X72056Y-192906D01*
X71901Y-193121D01*
X71671Y-193497D01*
X70614Y-189618D01*
X70824Y-189732D01*
X71035Y-189810D01*
X71246Y-189855D01*
X71458Y-189864D01*
X71670Y-189839D01*
X71883Y-189780D01*
X72096Y-189686D01*
X72310Y-189558D01*
X72524Y-189395D01*
X72739Y-189197D01*
X73884Y-190881D01*
D02*
G37*
G36*
X120066Y-187852D02*
X120098Y-188120D01*
X120151Y-188382D01*
X120226Y-188637D01*
X120322Y-188884D01*
X120439Y-189125D01*
X120578Y-189358D01*
X120738Y-189585D01*
X120919Y-189805D01*
X121122Y-190017D01*
X116988D01*
X117191Y-189805D01*
X117372Y-189585D01*
X117532Y-189358D01*
X117671Y-189125D01*
X117788Y-188884D01*
X117884Y-188637D01*
X117959Y-188382D01*
X118012Y-188120D01*
X118044Y-187852D01*
X118055Y-187576D01*
X120055D01*
X120066Y-187852D01*
D02*
G37*
G36*
X150760Y-189715D02*
X146931Y-190075D01*
X147063Y-189916D01*
X147157Y-189750D01*
X147215Y-189578D01*
X147235Y-189399D01*
X147218Y-189214D01*
X147163Y-189022D01*
X147072Y-188824D01*
X146943Y-188618D01*
X146777Y-188407D01*
X146574Y-188188D01*
X148429Y-187215D01*
X150760Y-189715D01*
D02*
G37*
G36*
X110392Y-187722D02*
X110402Y-187993D01*
X110430Y-188260D01*
X110478Y-188524D01*
X110545Y-188784D01*
X110631Y-189040D01*
X110737Y-189293D01*
X110861Y-189542D01*
X111005Y-189787D01*
X111167Y-190029D01*
X111349Y-190267D01*
X107242Y-189795D01*
X107461Y-189611D01*
X107656Y-189416D01*
X107829Y-189211D01*
X107978Y-188995D01*
X108105Y-188768D01*
X108208Y-188531D01*
X108289Y-188284D01*
X108346Y-188025D01*
X108381Y-187757D01*
X108392Y-187477D01*
X110392Y-187722D01*
D02*
G37*
G36*
X100639Y-187863D02*
X100648Y-188130D01*
X100674Y-188395D01*
X100717Y-188660D01*
X100777Y-188922D01*
X100854Y-189184D01*
X100949Y-189443D01*
X101060Y-189702D01*
X101189Y-189959D01*
X101335Y-190214D01*
X101498Y-190468D01*
X97446Y-189650D01*
X97673Y-189488D01*
X97876Y-189313D01*
X98055Y-189125D01*
X98210Y-188923D01*
X98341Y-188708D01*
X98448Y-188479D01*
X98532Y-188237D01*
X98592Y-187982D01*
X98627Y-187713D01*
X98639Y-187431D01*
X100639Y-187863D01*
D02*
G37*
G36*
X127933Y-188100D02*
X128338Y-188433D01*
X128556Y-188589D01*
X129022Y-188875D01*
X129270Y-189007D01*
X129796Y-189247D01*
X130075Y-189355D01*
X126305Y-191051D01*
X126387Y-190803D01*
X126439Y-190559D01*
X126460Y-190318D01*
X126451Y-190082D01*
X126410Y-189850D01*
X126339Y-189622D01*
X126238Y-189399D01*
X126105Y-189179D01*
X125942Y-188964D01*
X125748Y-188752D01*
X127745Y-187921D01*
X127933Y-188100D01*
D02*
G37*
G36*
X156747Y-188389D02*
X156960Y-188556D01*
X157183Y-188704D01*
X157415Y-188831D01*
X157659Y-188938D01*
X157912Y-189025D01*
X158175Y-189092D01*
X158448Y-189139D01*
X158732Y-189166D01*
X159026Y-189173D01*
X156103Y-192096D01*
X156096Y-191803D01*
X156068Y-191519D01*
X156021Y-191246D01*
X155954Y-190982D01*
X155867Y-190729D01*
X155760Y-190486D01*
X155633Y-190253D01*
X155485Y-190031D01*
X155318Y-189818D01*
X155131Y-189616D01*
X156545Y-188202D01*
X156747Y-188389D01*
D02*
G37*
G36*
X136747D02*
X136960Y-188556D01*
X137183Y-188704D01*
X137416Y-188831D01*
X137659Y-188938D01*
X137912Y-189025D01*
X138175Y-189092D01*
X138448Y-189139D01*
X138732Y-189166D01*
X139026Y-189173D01*
X136102Y-192096D01*
X136095Y-191803D01*
X136068Y-191519D01*
X136021Y-191246D01*
X135954Y-190982D01*
X135867Y-190729D01*
X135760Y-190486D01*
X135633Y-190253D01*
X135485Y-190031D01*
X135318Y-189818D01*
X135131Y-189616D01*
X136545Y-188202D01*
X136747Y-188389D01*
D02*
G37*
G36*
X92980Y-189616D02*
X92792Y-189818D01*
X92625Y-190031D01*
X92478Y-190253D01*
X92350Y-190486D01*
X92243Y-190729D01*
X92156Y-190982D01*
X92089Y-191246D01*
X92042Y-191519D01*
X92015Y-191803D01*
X92008Y-192096D01*
X89085Y-189173D01*
X89378Y-189166D01*
X89662Y-189139D01*
X89935Y-189092D01*
X90199Y-189025D01*
X90452Y-188938D01*
X90695Y-188831D01*
X90928Y-188704D01*
X91150Y-188556D01*
X91363Y-188389D01*
X91565Y-188202D01*
X92980Y-189616D01*
D02*
G37*
G36*
X82980D02*
X82792Y-189818D01*
X82625Y-190031D01*
X82478Y-190253D01*
X82350Y-190486D01*
X82243Y-190729D01*
X82156Y-190982D01*
X82089Y-191246D01*
X82042Y-191519D01*
X82015Y-191803D01*
X82008Y-192096D01*
X79085Y-189173D01*
X79378Y-189166D01*
X79662Y-189139D01*
X79935Y-189092D01*
X80199Y-189025D01*
X80452Y-188938D01*
X80695Y-188831D01*
X80928Y-188704D01*
X81150Y-188556D01*
X81363Y-188389D01*
X81565Y-188202D01*
X82980Y-189616D01*
D02*
G37*
G36*
X62980D02*
X62792Y-189818D01*
X62625Y-190031D01*
X62478Y-190253D01*
X62350Y-190486D01*
X62243Y-190729D01*
X62156Y-190982D01*
X62089Y-191246D01*
X62042Y-191519D01*
X62015Y-191803D01*
X62008Y-192096D01*
X59085Y-189173D01*
X59378Y-189166D01*
X59662Y-189139D01*
X59935Y-189092D01*
X60199Y-189025D01*
X60452Y-188938D01*
X60695Y-188831D01*
X60928Y-188704D01*
X61150Y-188556D01*
X61363Y-188389D01*
X61565Y-188202D01*
X62980Y-189616D01*
D02*
G37*
G36*
X52979D02*
X52792Y-189818D01*
X52625Y-190031D01*
X52478Y-190253D01*
X52350Y-190486D01*
X52243Y-190729D01*
X52156Y-190982D01*
X52089Y-191246D01*
X52042Y-191519D01*
X52015Y-191803D01*
X52008Y-192096D01*
X49085Y-189173D01*
X49378Y-189166D01*
X49662Y-189139D01*
X49935Y-189092D01*
X50199Y-189025D01*
X50452Y-188938D01*
X50695Y-188831D01*
X50928Y-188704D01*
X51150Y-188556D01*
X51363Y-188389D01*
X51565Y-188202D01*
X52979Y-189616D01*
D02*
G37*
%LPC*%
G36*
X102800Y-100790D02*
X101921D01*
X101934Y-100856D01*
X102255Y-101335D01*
X102734Y-101656D01*
X102800Y-101669D01*
Y-100790D01*
D02*
G37*
G36*
X103420Y-111005D02*
X103237Y-111041D01*
X102658Y-111428D01*
X102271Y-112007D01*
X102235Y-112190D01*
X103420D01*
Y-111005D01*
D02*
G37*
%LPD*%
D13*
X81439Y-125091D02*
X87830Y-118700D01*
X81439Y-125950D02*
Y-125091D01*
X13465Y-99740D02*
X13468Y-99737D01*
X13465Y-69260D02*
X13469Y-69265D01*
X94260Y-119300D02*
X94310Y-119350D01*
X90310Y-119300D02*
X94260D01*
X84044Y-125566D02*
X90310Y-119300D01*
X84044Y-126050D02*
Y-125566D01*
X86650Y-125970D02*
X91850Y-120770D01*
X94330D01*
X100200Y-13980D02*
X122775D01*
X94731Y-19449D02*
X100200Y-13980D01*
X91575Y-19449D02*
X94731D01*
X122775Y-13980D02*
X127306Y-9449D01*
X119780Y-147149D02*
X119792Y-147161D01*
X119780Y-147149D02*
Y-138249D01*
X160236Y-152576D02*
X160280Y-152620D01*
X158800Y-159194D02*
X158858Y-159252D01*
X88148Y-115900D02*
X88169Y-115880D01*
X106070Y-56340D02*
X106110Y-56380D01*
X101575Y-19945D02*
Y-19449D01*
X184646Y-178740D02*
X184886Y-178980D01*
X169528Y-9449D02*
Y-7228D01*
X167630Y-5330D02*
X169528Y-7228D01*
X167564Y-5396D02*
X167630Y-5330D01*
X157849Y-5396D02*
X167564D01*
X153580Y-9665D02*
X157849Y-5396D01*
X153580Y-11128D02*
Y-9665D01*
X145259Y-19449D02*
X153580Y-11128D01*
X121575Y-19449D02*
X145259D01*
X145475Y-23502D02*
X159528Y-9449D01*
X119896Y-23502D02*
X145475D01*
X115843Y-19449D02*
X119896Y-23502D01*
X111575Y-19449D02*
X115843D01*
X143580Y-15396D02*
X149528Y-9449D01*
X109896Y-15396D02*
X143580D01*
X105843Y-19449D02*
X109896Y-15396D01*
X101575Y-19449D02*
X105843D01*
X127306Y-9449D02*
X139528D01*
X168193Y-61068D02*
X169966D01*
X31812Y-69166D02*
X31910Y-69265D01*
X39489Y-74383D02*
X39686Y-74579D01*
X40040Y-104855D02*
X40080Y-104894D01*
X32103Y-90430D02*
X32206Y-90328D01*
X153740Y-172090D02*
Y-166535D01*
X177559Y-190630D02*
X179055Y-192126D01*
X23465Y-173000D02*
X23647Y-172818D01*
D19*
Y-151812D02*
D03*
Y-155512D02*
D03*
Y-159212D02*
D03*
X33046D02*
D03*
Y-151812D02*
D03*
D20*
X180709Y-178740D02*
D03*
X184646D02*
D03*
X156299D02*
D03*
X160236D02*
D03*
X183858Y-144095D02*
D03*
X179921D02*
D03*
X160236D02*
D03*
X156299D02*
D03*
D21*
X119780Y-134311D02*
D03*
Y-138249D02*
D03*
X91840Y-134301D02*
D03*
Y-138239D02*
D03*
X178870Y-94449D02*
D03*
Y-90512D02*
D03*
D22*
X31910Y-69265D02*
D03*
Y-74383D02*
D03*
X23840D02*
D03*
Y-71824D02*
D03*
Y-69265D02*
D03*
X32103Y-99737D02*
D03*
Y-104855D02*
D03*
X24033D02*
D03*
Y-102296D02*
D03*
Y-99737D02*
D03*
D23*
X32206Y-90328D02*
D03*
Y-84816D02*
D03*
X24332Y-90328D02*
D03*
Y-84816D02*
D03*
X22441Y-143307D02*
D03*
Y-137795D02*
D03*
X33071Y-143307D02*
D03*
Y-137795D02*
D03*
X56299Y-127559D02*
D03*
Y-122047D02*
D03*
X40080Y-110406D02*
D03*
Y-104894D02*
D03*
X48000Y-165500D02*
D03*
Y-159988D02*
D03*
X63610Y-54704D02*
D03*
Y-60216D02*
D03*
X31812Y-53320D02*
D03*
Y-58831D02*
D03*
X39686Y-80091D02*
D03*
Y-74579D02*
D03*
X23938Y-58831D02*
D03*
Y-53320D02*
D03*
D24*
X145193Y-42869D02*
D03*
Y-45469D02*
D03*
Y-48068D02*
D03*
Y-50669D02*
D03*
Y-53268D02*
D03*
Y-55869D02*
D03*
Y-58469D02*
D03*
Y-61068D02*
D03*
X168193D02*
D03*
Y-58469D02*
D03*
Y-55869D02*
D03*
Y-53268D02*
D03*
Y-50669D02*
D03*
Y-48068D02*
D03*
Y-45469D02*
D03*
Y-42869D02*
D03*
D25*
X99639Y-147161D02*
D03*
X97039D02*
D03*
X94439D02*
D03*
X91839D02*
D03*
X89239D02*
D03*
X86639D02*
D03*
X84039D02*
D03*
X81439D02*
D03*
Y-170161D02*
D03*
X84039D02*
D03*
X86639D02*
D03*
X89239D02*
D03*
X91839D02*
D03*
X94439D02*
D03*
X97039D02*
D03*
X99639D02*
D03*
X127592D02*
D03*
X124992D02*
D03*
X122392D02*
D03*
X119792D02*
D03*
X117192D02*
D03*
X114592D02*
D03*
X111992D02*
D03*
X109392D02*
D03*
Y-147161D02*
D03*
X111992D02*
D03*
X114592D02*
D03*
X117192D02*
D03*
X119792D02*
D03*
X122392D02*
D03*
X124992D02*
D03*
X127592D02*
D03*
D26*
X84211Y-115900D02*
D03*
X88148D02*
D03*
X84251Y-80110D02*
D03*
X88188D02*
D03*
X84211Y-84370D02*
D03*
X88148D02*
D03*
X84272Y-88580D02*
D03*
X88209D02*
D03*
X84232Y-97310D02*
D03*
X88169D02*
D03*
X84211Y-92700D02*
D03*
X88148D02*
D03*
X154882Y-72490D02*
D03*
X158818D02*
D03*
X154882Y-31310D02*
D03*
X158818D02*
D03*
X138662Y-165270D02*
D03*
X142598D02*
D03*
X63408D02*
D03*
X59471D02*
D03*
D27*
X158858Y-159252D02*
D03*
X156299D02*
D03*
X153740D02*
D03*
X158858Y-166535D02*
D03*
X156299D02*
D03*
X153740D02*
D03*
X182677Y-159252D02*
D03*
X180118D02*
D03*
X177559D02*
D03*
X182677Y-166535D02*
D03*
X180118D02*
D03*
X177559D02*
D03*
D28*
X63779Y-18110D02*
D03*
X69291D02*
D03*
D49*
X93700Y-92630D02*
D03*
X93840Y-84370D02*
D03*
X98360Y-80110D02*
D03*
X98330Y-88600D02*
D03*
X23740Y-79490D02*
D03*
D54*
X115273Y-97369D02*
D03*
X114073D02*
D03*
X114673D02*
D03*
D55*
X108073Y-109468D02*
D03*
X108673D02*
D03*
X109273D02*
D03*
X109873D02*
D03*
X110473D02*
D03*
X111073D02*
D03*
X111673D02*
D03*
X112273D02*
D03*
X112873D02*
D03*
X113473D02*
D03*
X114073D02*
D03*
X114673D02*
D03*
X115273D02*
D03*
X115873D02*
D03*
X116473D02*
D03*
X117073D02*
D03*
X117673D02*
D03*
X118273D02*
D03*
Y-94468D02*
D03*
X117673D02*
D03*
X117073D02*
D03*
X116473D02*
D03*
X115873D02*
D03*
X115273D02*
D03*
X114673D02*
D03*
X114073D02*
D03*
X113473D02*
D03*
X112873D02*
D03*
X112273D02*
D03*
X111673D02*
D03*
X111073D02*
D03*
X110473D02*
D03*
X109873D02*
D03*
X109273D02*
D03*
X108673D02*
D03*
X108073D02*
D03*
D56*
X93840Y-84370D02*
X99810D01*
X98330Y-88600D02*
X101740D01*
X98360Y-80110D02*
X104770D01*
X109920Y-85260D01*
X119080Y-84270D02*
X132630Y-70720D01*
X123080Y-84670D02*
Y-84660D01*
X135630Y-72110D01*
X180118Y-159252D02*
Y-155632D01*
X180600Y-155150D01*
X122392Y-147161D02*
Y-125872D01*
X91085Y-149007D02*
Y-147161D01*
X91840Y-148252D02*
Y-138239D01*
X183858Y-158071D02*
Y-144095D01*
X102540Y-92630D02*
X102550Y-92620D01*
X93700Y-92630D02*
X102540D01*
X88148Y-92700D02*
X88218Y-92630D01*
X93700D01*
X88148Y-84370D02*
X93840D01*
X118850Y-128590D02*
X119780Y-129520D01*
Y-134311D02*
Y-129520D01*
X17200Y-155660D02*
X17348Y-155512D01*
X23647D01*
X13465Y-151910D02*
X13563Y-151812D01*
X90520Y-132982D02*
Y-130040D01*
Y-132982D02*
X91840Y-134301D01*
X89239Y-175149D02*
X90200Y-176110D01*
X89239Y-175149D02*
Y-170161D01*
X117192Y-174362D02*
X120460Y-177630D01*
X117192Y-174362D02*
Y-170161D01*
X156299Y-170609D02*
X156840Y-171150D01*
X156299Y-170609D02*
Y-166535D01*
X180118Y-178150D02*
X180709Y-178740D01*
X180118Y-178150D02*
Y-166535D01*
X33046Y-159212D02*
X47224D01*
X94439Y-124131D02*
X95460Y-123110D01*
X94439Y-147161D02*
Y-124131D01*
X88169Y-97310D02*
X88798Y-96680D01*
X102320D01*
X88120Y-115928D02*
Y-107410D01*
X164640Y-175280D02*
X169670Y-180310D01*
X160236Y-175280D02*
X164640D01*
X70671Y-180930D02*
X81439Y-170161D01*
X60251Y-180930D02*
X70671D01*
X49055Y-192126D02*
X60251Y-180930D01*
X59055Y-192126D02*
X65881Y-185300D01*
X72660D01*
X84039Y-173921D01*
Y-170161D01*
X71299Y-192051D02*
X86639Y-176711D01*
Y-170161D01*
X69130Y-192051D02*
X71299D01*
X174428Y-40472D02*
X189370D01*
X172031Y-42869D02*
X174428Y-40472D01*
X168193Y-42869D02*
X172031D01*
X137790Y-55800D02*
X145124D01*
X132630Y-60960D02*
X137790Y-55800D01*
X132630Y-70720D02*
Y-60960D01*
X140131Y-58469D02*
X145193D01*
X135630Y-62970D02*
X140131Y-58469D01*
X135630Y-72110D02*
Y-62970D01*
X142199Y-61068D02*
X145193D01*
X142150Y-61020D02*
X142199Y-61068D01*
X138800Y-64370D02*
X142150Y-61020D01*
X138800Y-73070D02*
Y-64370D01*
X121150Y-90720D02*
X138800Y-73070D01*
X88188Y-80110D02*
X98360D01*
X88228Y-88600D02*
X98330D01*
X48735Y-69265D02*
X53490Y-74020D01*
X31910Y-69265D02*
X48735D01*
X47183Y-90328D02*
X53490Y-84020D01*
X32206Y-90328D02*
X47183D01*
X128672Y-42869D02*
X145193D01*
X124770Y-46770D02*
X128672Y-42869D01*
X124770Y-67810D02*
Y-46770D01*
X118760Y-73820D02*
X124770Y-67810D01*
X131680Y-45480D02*
X145181D01*
X128490Y-48670D02*
X131680Y-45480D01*
X128490Y-69760D02*
Y-48670D01*
X116620Y-81630D02*
X128490Y-69760D01*
X145181Y-45480D02*
X145193Y-45469D01*
X13468Y-99737D02*
X24033D01*
X23465Y-105423D02*
X24033Y-104855D01*
X23465Y-124803D02*
Y-105423D01*
X23740Y-79490D02*
X23840Y-79390D01*
Y-74383D01*
X13469Y-69265D02*
X23840D01*
Y-53418D02*
X23938Y-53320D01*
X145193Y-53268D02*
X148122D01*
X150770Y-50620D01*
X145193Y-50669D02*
X145241Y-50620D01*
X150770D01*
X154882Y-46508D01*
Y-31310D01*
X154631Y-31060D02*
X154882Y-31310D01*
X143340Y-31060D02*
X154631D01*
X168164Y-50640D02*
X168193Y-50669D01*
X162730Y-50640D02*
X168164D01*
X154882Y-58489D02*
X162730Y-50640D01*
X154882Y-72490D02*
Y-58489D01*
X154610Y-72761D02*
X154882Y-72490D01*
X154610Y-84280D02*
Y-72761D01*
X184766Y-55869D02*
X189370Y-60472D01*
X168193Y-55869D02*
X184766D01*
X189331Y-90512D02*
X189370Y-90472D01*
X178870Y-90512D02*
X189331D01*
X178841Y-90540D02*
X178870Y-90512D01*
X174640Y-90540D02*
X178841D01*
X169020Y-96160D02*
X174640Y-90540D01*
X127940Y-96160D02*
X169020D01*
X133050Y-125710D02*
Y-125690D01*
Y-125710D02*
X144940Y-137600D01*
X156299Y-159252D02*
Y-144095D01*
X153740Y-159252D02*
Y-151950D01*
X130050Y-128260D02*
X153740Y-151950D01*
X130050Y-128260D02*
Y-125020D01*
X127592Y-147161D02*
Y-125708D01*
X124992Y-147161D02*
Y-125918D01*
X114590Y-125670D02*
X114592Y-125672D01*
Y-147161D02*
Y-125672D01*
X111992Y-125768D02*
X112010Y-125750D01*
X111992Y-147161D02*
Y-125768D01*
X109410Y-147143D02*
Y-119650D01*
X109392Y-147161D02*
X109410Y-147143D01*
X97018Y-147141D02*
Y-125952D01*
X99528Y-147050D02*
Y-125882D01*
X81439Y-147161D02*
Y-125950D01*
X88209Y-88580D02*
X88228Y-88600D01*
X88169Y-107570D02*
Y-97310D01*
Y-115880D02*
Y-107570D01*
X88178Y-107580D01*
X103290D01*
X88120Y-115928D02*
X88148Y-115900D01*
X31910Y-74383D02*
X39489D01*
X182677Y-169597D02*
Y-166535D01*
Y-169597D02*
X185530Y-172450D01*
X160236Y-178740D02*
Y-175280D01*
X147560D02*
X160236D01*
X184646Y-178740D02*
Y-173334D01*
X185530Y-172450D01*
X158858Y-166535D02*
X160236Y-167913D01*
Y-175280D02*
Y-167913D01*
X138662Y-166382D02*
X147560Y-175280D01*
X138662Y-166382D02*
Y-165270D01*
X119700D02*
X138662D01*
X91770D02*
X119700D01*
Y-170069D02*
X119792Y-170161D01*
X119700Y-170069D02*
Y-165270D01*
X75250D02*
X91770D01*
X91839Y-170161D02*
Y-165339D01*
X74550Y-164570D02*
X75250Y-165270D01*
X73850D02*
X74550Y-164570D01*
X63408Y-165270D02*
X73850D01*
X91085Y-150395D02*
Y-149007D01*
X89239Y-147161D02*
X91085D01*
Y-149007D02*
X91840Y-148252D01*
X137091Y-170161D02*
X159055Y-192126D01*
X127592Y-170161D02*
X137091D01*
X124992Y-172900D02*
Y-170161D01*
Y-172900D02*
X135582Y-183490D01*
X143290D02*
X149055Y-189255D01*
X135582Y-183490D02*
X143290D01*
X149055Y-192126D02*
Y-189255D01*
X122392Y-175463D02*
X139055Y-192126D01*
X122392Y-175463D02*
Y-170161D01*
X129055Y-192126D02*
Y-190645D01*
X114592Y-176182D02*
X129055Y-190645D01*
X114592Y-176182D02*
Y-170161D01*
X119055Y-192126D02*
Y-185555D01*
X111992Y-178492D02*
X119055Y-185555D01*
X111992Y-178492D02*
Y-170161D01*
X109055Y-192126D02*
X109392Y-191789D01*
Y-170161D01*
X99055Y-192126D02*
X99639Y-191542D01*
Y-170161D01*
X89055Y-192126D02*
X97039Y-184142D01*
Y-170161D01*
X79055Y-192126D02*
X94439Y-176742D01*
Y-170161D01*
X69055Y-192126D02*
X69130Y-192051D01*
X117192Y-147161D02*
X119792D01*
X117192Y-152830D02*
Y-147161D01*
X87150Y-154330D02*
X91085Y-150395D01*
X182677Y-159252D02*
X183858Y-158071D01*
X160280Y-154890D02*
Y-152620D01*
X158800Y-159194D02*
Y-156370D01*
X160280Y-154890D01*
X160236Y-152576D02*
Y-144095D01*
X13563Y-151812D02*
X23647D01*
X86650Y-147151D02*
Y-125970D01*
X144940Y-137600D02*
X166210D01*
X177559Y-159252D02*
Y-148949D01*
X166210Y-137600D02*
X177559Y-148949D01*
X84044Y-147157D02*
Y-126050D01*
X106110Y-75520D02*
Y-56380D01*
Y-75520D02*
X114673Y-84083D01*
X169966Y-61068D02*
X189370Y-80472D01*
X168193Y-58605D02*
X177503D01*
X189370Y-70472D01*
X168193Y-58605D02*
Y-58469D01*
X184366Y-45469D02*
X189370Y-50472D01*
X168193Y-45469D02*
X184366D01*
X31812Y-69166D02*
Y-58831D01*
X32103Y-104855D02*
X40040D01*
X32103Y-99737D02*
Y-90430D01*
X177559Y-190630D02*
Y-166535D01*
X47224Y-159212D02*
X48000Y-159988D01*
X23647Y-172818D02*
Y-159212D01*
X22393Y-143355D02*
X22441Y-143307D01*
D57*
X112273Y-94468D02*
Y-89893D01*
X106750Y-84370D02*
X112273Y-89893D01*
X110600Y-90150D02*
X111110D01*
X111673Y-90713D01*
X104887Y-86150D02*
X111073Y-92337D01*
X108268Y-90380D02*
X110473Y-92585D01*
X108760Y-91720D02*
X109873Y-92834D01*
X104860Y-91720D02*
X108760D01*
X109273Y-94468D02*
Y-93082D01*
X108821Y-92630D02*
X109273Y-93082D01*
X102560Y-92630D02*
X108821D01*
X102550Y-92620D02*
X102560Y-92630D01*
X104160Y-86150D02*
X104887D01*
X111073Y-94468D02*
Y-92337D01*
X109333Y-96690D02*
X112700D01*
X109873Y-94468D02*
Y-92834D01*
X110473Y-94468D02*
Y-92585D01*
X105990Y-90380D02*
X108268D01*
X101740Y-88600D02*
X104860Y-91720D01*
X99810Y-84370D02*
X106750D01*
X109920Y-85260D02*
X112890Y-88230D01*
X115873Y-89537D02*
X116710Y-88700D01*
Y-88900D02*
Y-88700D01*
X120610Y-87410D02*
Y-87230D01*
X116473Y-91547D02*
X120610Y-87410D01*
X123080Y-86739D02*
Y-84670D01*
X119700Y-90119D02*
X123080Y-86739D01*
X119700Y-90120D02*
Y-90119D01*
X117673Y-92147D02*
X119700Y-90120D01*
X103480Y-94720D02*
X104700Y-95940D01*
X105110D01*
X103480Y-94720D02*
X104120D01*
X122300Y-125780D02*
X122350Y-125830D01*
X105110Y-95940D02*
X105130Y-95920D01*
X107720D01*
X108073Y-95567D01*
Y-94468D01*
X103920Y-112690D02*
X104020Y-112590D01*
X95460Y-123110D02*
X100330D01*
X102320Y-96680D02*
X102330Y-96690D01*
X118273Y-93597D02*
X121150Y-90720D01*
X118273Y-94468D02*
Y-93597D01*
X103290Y-107580D02*
X103390Y-107480D01*
X108500D01*
X112920D01*
X108073Y-107907D02*
X108500Y-107480D01*
X108073Y-109468D02*
Y-107907D01*
X113473Y-109468D02*
Y-108067D01*
X113490Y-108050D01*
X112920Y-107480D02*
X113490Y-108050D01*
X102330Y-96690D02*
X109333D01*
X108673Y-96031D02*
X109333Y-96690D01*
X113473Y-95917D02*
Y-94468D01*
X112700Y-96690D02*
X113473Y-95917D01*
X145031Y-61230D02*
X145193Y-61068D01*
X103300Y-100290D02*
X106221Y-97369D01*
X114073D01*
X123208D02*
X125250Y-99410D01*
X115273Y-97369D02*
X123208D01*
X112630Y-119980D02*
X114073Y-118537D01*
Y-109468D01*
X116473Y-94468D02*
Y-91547D01*
X117673Y-94468D02*
Y-92147D01*
X115873Y-94468D02*
Y-89537D01*
X111673Y-94468D02*
Y-90713D01*
X127910Y-96190D02*
X127940Y-96160D01*
X117233Y-96190D02*
X127910D01*
X118273Y-110933D02*
X118293D01*
X133050Y-125690D01*
X130050Y-125020D02*
Y-123564D01*
X117673Y-111188D02*
X130050Y-123564D01*
X127592Y-125708D02*
Y-123872D01*
X123500Y-119780D02*
X127592Y-123872D01*
X123500Y-119780D02*
Y-117863D01*
X124992Y-125918D02*
Y-123942D01*
X122900Y-121850D02*
X124992Y-123942D01*
X122900Y-121850D02*
Y-118112D01*
X122300Y-125780D02*
Y-118360D01*
X115273Y-124987D02*
Y-109468D01*
X114590Y-125670D02*
X115273Y-124987D01*
X112010Y-125750D02*
X114673Y-123087D01*
X112873Y-116187D02*
Y-109468D01*
X109410Y-119650D02*
X112873Y-116187D01*
X104020Y-112590D02*
X107120D01*
X108673Y-111037D01*
Y-109468D01*
X103050Y-117720D02*
X109273Y-111497D01*
Y-109468D01*
X88810Y-117720D02*
X103050D01*
X109873Y-111807D02*
Y-109468D01*
X102330Y-119350D02*
X109873Y-111807D01*
X94310Y-119350D02*
X102330D01*
X110473Y-112077D02*
Y-109468D01*
X101780Y-120770D02*
X110473Y-112077D01*
X94330Y-120770D02*
X101780D01*
X111073Y-112367D02*
Y-109468D01*
X100330Y-123110D02*
X111073Y-112367D01*
X100370Y-123980D02*
X111673Y-112677D01*
X98990Y-123980D02*
X100370D01*
X97018Y-125952D02*
X98990Y-123980D01*
X111673Y-112677D02*
Y-109468D01*
X112273Y-113137D02*
Y-109468D01*
X99528Y-125882D02*
X112273Y-113137D01*
X87830Y-118700D02*
X88810Y-117720D01*
X97018Y-147141D02*
X97039Y-147161D01*
X112873Y-92834D02*
X112890Y-92817D01*
Y-88230D01*
X108673Y-96031D02*
Y-94468D01*
X91770Y-165270D02*
X91839Y-165339D01*
X117073Y-96031D02*
X117233Y-96190D01*
X117073Y-96031D02*
Y-94468D01*
X118273Y-110933D02*
Y-109468D01*
X117073Y-111436D02*
X123500Y-117863D01*
X116473Y-111685D02*
X122900Y-118112D01*
X115873Y-111933D02*
X122300Y-118360D01*
X117673Y-111188D02*
Y-109468D01*
X117073Y-111436D02*
Y-109468D01*
X116473Y-111685D02*
Y-109468D01*
X115873Y-111933D02*
Y-109468D01*
X145144Y-58420D02*
X145193Y-58469D01*
X127530Y-147099D02*
X127592Y-147161D01*
X122300Y-147069D02*
X122392Y-147161D01*
X114673Y-123087D02*
Y-109468D01*
X99528Y-147050D02*
X99639Y-147161D01*
X86639D02*
X86650Y-147151D01*
X84039Y-147161D02*
X84044Y-147157D01*
X114673Y-94468D02*
Y-84083D01*
X112873Y-94468D02*
Y-92834D01*
D58*
X14128Y-143307D02*
X22441D01*
X13465Y-143970D02*
X14128Y-143307D01*
X13465Y-90390D02*
X13527Y-90328D01*
X24332D01*
X63490Y-60336D02*
X63610Y-60216D01*
X63490Y-74020D02*
Y-60336D01*
X56299Y-107410D02*
X88120D01*
X56299Y-122047D02*
Y-107410D01*
X56200Y-121948D02*
X56299Y-122047D01*
X56200Y-121948D02*
Y-95940D01*
X63490Y-88650D01*
Y-84020D01*
X118652Y-154290D02*
X135600D01*
X118612Y-154330D02*
X118652Y-154290D01*
X87150Y-154330D02*
X118612D01*
X33046Y-143332D02*
X33071Y-143307D01*
X33046Y-151812D02*
Y-143332D01*
X69291Y-10799D02*
X70260Y-9830D01*
X69291Y-18110D02*
Y-10799D01*
X65280Y-154330D02*
X87150D01*
X63110Y-152160D02*
X65280Y-154330D01*
X13465Y-52930D02*
X13854Y-53320D01*
X23938D01*
D59*
X12661Y-33843D02*
X13465Y-34646D01*
X70260Y-9830D02*
X92991D01*
Y-7702D01*
X120851D01*
X8970Y-129298D02*
X13465Y-124803D01*
X8970Y-168505D02*
Y-129298D01*
Y-168505D02*
X13465Y-173000D01*
Y-90390D02*
Y-69260D01*
Y-99740D02*
Y-90390D01*
Y-124803D02*
Y-99740D01*
Y-69260D02*
Y-52930D01*
X53450Y-9830D02*
X70260D01*
X62762Y-151812D02*
X63110Y-152160D01*
X33046Y-151812D02*
X62762D01*
X13465Y-52930D02*
Y-34646D01*
X12126Y-32951D02*
Y-11024D01*
Y-32951D02*
X13465Y-34290D01*
D60*
X179055Y-192126D02*
D03*
X139528Y-9449D02*
D03*
X91575Y-19449D02*
D03*
X12126Y-11024D02*
D03*
D61*
X169055Y-192126D02*
D03*
X159055D02*
D03*
X149055D02*
D03*
X139055D02*
D03*
X129055D02*
D03*
X119055D02*
D03*
X109055D02*
D03*
X99055D02*
D03*
X89055D02*
D03*
X79055D02*
D03*
X69055D02*
D03*
X59055D02*
D03*
X49055D02*
D03*
X189528Y-9449D02*
D03*
X179528D02*
D03*
X169528D02*
D03*
X159528D02*
D03*
X149528D02*
D03*
X91575D02*
D03*
X101575Y-19449D02*
D03*
Y-9449D02*
D03*
X111575Y-19449D02*
D03*
Y-9449D02*
D03*
X121575Y-19449D02*
D03*
Y-9449D02*
D03*
X63490Y-84020D02*
D03*
X53490D02*
D03*
X63490Y-74020D02*
D03*
X189370Y-50472D02*
D03*
Y-60472D02*
D03*
Y-70472D02*
D03*
Y-80472D02*
D03*
Y-90472D02*
D03*
X22126Y-11024D02*
D03*
D62*
X96070Y-46340D02*
D03*
X116070D02*
D03*
Y-66340D02*
D03*
X96070D02*
D03*
X106070Y-56340D02*
D03*
D63*
X53490Y-74020D02*
D03*
X189370Y-40472D02*
D03*
D64*
X33465Y-124803D02*
D03*
X23465D02*
D03*
X33465Y-173000D02*
D03*
X23465D02*
D03*
X33465Y-34290D02*
D03*
X23465D02*
D03*
D65*
X13465Y-124803D02*
D03*
Y-173000D02*
D03*
Y-34290D02*
D03*
D66*
X110600Y-90150D02*
D03*
X105990Y-90380D02*
D03*
X104160Y-86150D02*
D03*
X116710Y-88900D02*
D03*
X119080Y-84270D02*
D03*
X120610Y-87230D02*
D03*
X103480Y-94720D02*
D03*
X103920Y-112690D02*
D03*
X125250Y-99410D02*
D03*
X112630Y-119980D02*
D03*
X118760Y-73820D02*
D03*
X116620Y-81630D02*
D03*
D67*
X180600Y-155150D02*
D03*
X118850Y-128590D02*
D03*
X17200Y-155660D02*
D03*
X90520Y-130040D02*
D03*
X90200Y-176110D02*
D03*
X120460Y-177630D02*
D03*
X156840Y-171150D02*
D03*
X153740Y-172090D02*
D03*
D68*
X30420Y-189620D02*
D03*
X25420D02*
D03*
X20420D02*
D03*
X15420D02*
D03*
X15510Y-193570D02*
D03*
X20510D02*
D03*
X25510D02*
D03*
X30510D02*
D03*
X66640Y-28800D02*
D03*
Y-33800D02*
D03*
Y-38800D02*
D03*
Y-43800D02*
D03*
X70590Y-43710D02*
D03*
Y-38710D02*
D03*
Y-33710D02*
D03*
Y-28710D02*
D03*
X43840Y-20160D02*
D03*
X38840D02*
D03*
X33840D02*
D03*
X28840D02*
D03*
X28930Y-24110D02*
D03*
X33930D02*
D03*
X38930D02*
D03*
X43930D02*
D03*
X152700Y-108610D02*
D03*
X147700D02*
D03*
X142700D02*
D03*
X137700D02*
D03*
X137610Y-104660D02*
D03*
X142610D02*
D03*
X147610D02*
D03*
X152610D02*
D03*
D69*
X183670Y-150780D02*
D03*
X169670Y-180310D02*
D03*
X143340Y-31060D02*
D03*
X154610Y-84280D02*
D03*
X185530Y-172450D02*
D03*
X74550Y-164570D02*
D03*
X135600Y-154290D02*
D03*
X160280Y-152620D02*
D03*
D70*
X103300Y-100290D02*
D03*
D71*
X53450Y-9830D02*
D03*
X63110Y-152160D02*
D03*
M02*
