G04*
G04 #@! TF.GenerationSoftware,Altium Limited,Altium Designer,18.0.11 (651)*
G04*
G04 Layer_Color=128*
%FSLAX25Y25*%
%MOIN*%
G70*
G01*
G75*
%ADD73C,0.00200*%
D73*
X177284Y-192126D02*
X180827D01*
X179055Y-193898D02*
Y-190354D01*
X167283Y-192126D02*
X170827D01*
X169055Y-193898D02*
Y-190354D01*
X157283Y-192126D02*
X160827D01*
X159055Y-193898D02*
Y-190354D01*
X147283Y-192126D02*
X150827D01*
X149055Y-193898D02*
Y-190354D01*
X137284Y-192126D02*
X140827D01*
X139055Y-193898D02*
Y-190354D01*
X127284Y-192126D02*
X130827D01*
X129055Y-193898D02*
Y-190354D01*
X117283Y-192126D02*
X120827D01*
X119055Y-193898D02*
Y-190354D01*
X107283Y-192126D02*
X110827D01*
X109055Y-193898D02*
Y-190354D01*
X97284Y-192126D02*
X100827D01*
X99055Y-193898D02*
Y-190354D01*
X87283Y-192126D02*
X90827D01*
X89055Y-193898D02*
Y-190354D01*
X77284Y-192126D02*
X80827D01*
X79055Y-193898D02*
Y-190354D01*
X67283Y-192126D02*
X70827D01*
X69055Y-193898D02*
Y-190354D01*
X57284Y-192126D02*
X60827D01*
X59055Y-193898D02*
Y-190354D01*
X47284Y-192126D02*
X50827D01*
X49055Y-193898D02*
Y-190354D01*
X92822Y-46340D02*
X99318D01*
X96070Y-49588D02*
Y-43092D01*
X112822Y-46340D02*
X119318D01*
X116070Y-49588D02*
Y-43092D01*
X112822Y-66340D02*
X119318D01*
X116070Y-69588D02*
Y-63092D01*
X92822Y-66340D02*
X99318D01*
X96070Y-69588D02*
Y-63092D01*
X102822Y-56340D02*
X109318D01*
X106070Y-59588D02*
Y-53092D01*
X187756Y-9449D02*
X191299D01*
X189528Y-11220D02*
Y-7677D01*
X177756Y-9449D02*
X181299D01*
X179528Y-11220D02*
Y-7677D01*
X167756Y-9449D02*
X171299D01*
X169528Y-11220D02*
Y-7677D01*
X157756Y-9449D02*
X161299D01*
X159528Y-11220D02*
Y-7677D01*
X147756Y-9449D02*
X151299D01*
X149528Y-11220D02*
Y-7677D01*
X137756Y-9449D02*
X141299D01*
X139528Y-11220D02*
Y-7677D01*
X89803Y-19449D02*
X93347D01*
X91575Y-21220D02*
Y-17677D01*
X89803Y-9449D02*
X93347D01*
X91575Y-11220D02*
Y-7677D01*
X99803Y-19449D02*
X103347D01*
X101575Y-21220D02*
Y-17677D01*
X99803Y-9449D02*
X103347D01*
X101575Y-11220D02*
Y-7677D01*
X109803Y-19449D02*
X113347D01*
X111575Y-21220D02*
Y-17677D01*
X109803Y-9449D02*
X113347D01*
X111575Y-11220D02*
Y-7677D01*
X119803Y-19449D02*
X123346D01*
X121575Y-21220D02*
Y-17677D01*
X119803Y-9449D02*
X123346D01*
X121575Y-11220D02*
Y-7677D01*
X61718Y-84020D02*
X65262D01*
X63490Y-85792D02*
Y-82248D01*
X51718Y-84020D02*
X55262D01*
X53490Y-85792D02*
Y-82248D01*
X61718Y-74020D02*
X65262D01*
X63490Y-75792D02*
Y-72248D01*
X51718Y-74020D02*
X55262D01*
X53490Y-75792D02*
Y-72248D01*
X187598Y-40472D02*
X191142D01*
X189370Y-42244D02*
Y-38701D01*
X187598Y-50472D02*
X191142D01*
X189370Y-52244D02*
Y-48701D01*
X187598Y-60472D02*
X191142D01*
X189370Y-62244D02*
Y-58701D01*
X187598Y-70472D02*
X191142D01*
X189370Y-72244D02*
Y-68701D01*
X187598Y-80472D02*
X191142D01*
X189370Y-82244D02*
Y-78701D01*
X187598Y-90472D02*
X191142D01*
X189370Y-92244D02*
Y-88701D01*
X31457Y-124803D02*
X35472D01*
X33465Y-126811D02*
Y-122795D01*
X21457Y-124803D02*
X25472D01*
X23465Y-126811D02*
Y-122795D01*
X11457Y-124803D02*
X15472D01*
X13465Y-126811D02*
Y-122795D01*
X31457Y-173000D02*
X35472D01*
X33465Y-175008D02*
Y-170992D01*
X21457Y-173000D02*
X25472D01*
X23465Y-175008D02*
Y-170992D01*
X11457Y-173000D02*
X15472D01*
X13465Y-175008D02*
Y-170992D01*
X31457Y-34290D02*
X35472D01*
X33465Y-36298D02*
Y-32282D01*
X21457Y-34290D02*
X25472D01*
X23465Y-36298D02*
Y-32282D01*
X11457Y-34290D02*
X15472D01*
X13465Y-36298D02*
Y-32282D01*
X10354Y-11024D02*
X13898D01*
X12126Y-12795D02*
Y-9252D01*
X20354Y-11024D02*
X23898D01*
X22126Y-12795D02*
Y-9252D01*
X110350Y-90150D02*
X110850D01*
X110600Y-90400D02*
Y-89900D01*
X105740Y-90380D02*
X106240D01*
X105990Y-90630D02*
Y-90130D01*
X103910Y-86150D02*
X104410D01*
X104160Y-86400D02*
Y-85900D01*
X116460Y-88900D02*
X116960D01*
X116710Y-89150D02*
Y-88650D01*
X118830Y-84270D02*
X119330D01*
X119080Y-84520D02*
Y-84020D01*
X120360Y-87230D02*
X120860D01*
X120610Y-87480D02*
Y-86980D01*
X180100Y-155150D02*
X181100D01*
X180600Y-155650D02*
Y-154650D01*
X103230Y-94720D02*
X103730D01*
X103480Y-94970D02*
Y-94470D01*
X29920Y-189620D02*
X30920D01*
X30420Y-190120D02*
Y-189120D01*
X24920Y-189620D02*
X25920D01*
X25420Y-190120D02*
Y-189120D01*
X19920Y-189620D02*
X20920D01*
X20420Y-190120D02*
Y-189120D01*
X14920Y-189620D02*
X15920D01*
X15420Y-190120D02*
Y-189120D01*
X15010Y-193570D02*
X16010D01*
X15510Y-194070D02*
Y-193070D01*
X20010Y-193570D02*
X21010D01*
X20510Y-194070D02*
Y-193070D01*
X25010Y-193570D02*
X26010D01*
X25510Y-194070D02*
Y-193070D01*
X30010Y-193570D02*
X31010D01*
X30510Y-194070D02*
Y-193070D01*
X66140Y-28800D02*
X67140D01*
X66640Y-29300D02*
Y-28300D01*
X66140Y-33800D02*
X67140D01*
X66640Y-34300D02*
Y-33300D01*
X66140Y-38800D02*
X67140D01*
X66640Y-39300D02*
Y-38300D01*
X66140Y-43800D02*
X67140D01*
X66640Y-44300D02*
Y-43300D01*
X70090Y-43710D02*
X71090D01*
X70590Y-44210D02*
Y-43210D01*
X70090Y-38710D02*
X71090D01*
X70590Y-39210D02*
Y-38210D01*
X70090Y-33710D02*
X71090D01*
X70590Y-34210D02*
Y-33210D01*
X70090Y-28710D02*
X71090D01*
X70590Y-29210D02*
Y-28210D01*
X43340Y-20160D02*
X44340D01*
X43840Y-20660D02*
Y-19660D01*
X38340Y-20160D02*
X39340D01*
X38840Y-20660D02*
Y-19660D01*
X33340Y-20160D02*
X34340D01*
X33840Y-20660D02*
Y-19660D01*
X28340Y-20160D02*
X29340D01*
X28840Y-20660D02*
Y-19660D01*
X28430Y-24110D02*
X29430D01*
X28930Y-24610D02*
Y-23610D01*
X33430Y-24110D02*
X34430D01*
X33930Y-24610D02*
Y-23610D01*
X38430Y-24110D02*
X39430D01*
X38930Y-24610D02*
Y-23610D01*
X43430Y-24110D02*
X44430D01*
X43930Y-24610D02*
Y-23610D01*
X152200Y-108610D02*
X153200D01*
X152700Y-109110D02*
Y-108110D01*
X147200Y-108610D02*
X148200D01*
X147700Y-109110D02*
Y-108110D01*
X142200Y-108610D02*
X143200D01*
X142700Y-109110D02*
Y-108110D01*
X137200Y-108610D02*
X138200D01*
X137700Y-109110D02*
Y-108110D01*
X137110Y-104660D02*
X138110D01*
X137610Y-105160D02*
Y-104160D01*
X142110Y-104660D02*
X143110D01*
X142610Y-105160D02*
Y-104160D01*
X147110Y-104660D02*
X148110D01*
X147610Y-105160D02*
Y-104160D01*
X152110Y-104660D02*
X153110D01*
X152610Y-105160D02*
Y-104160D01*
X92700Y-92630D02*
X94700D01*
X93700Y-93630D02*
Y-91630D01*
X92840Y-84370D02*
X94840D01*
X93840Y-85370D02*
Y-83370D01*
X118350Y-128590D02*
X119350D01*
X118850Y-129090D02*
Y-128090D01*
X16700Y-155660D02*
X17700D01*
X17200Y-156160D02*
Y-155160D01*
X90020Y-130040D02*
X91020D01*
X90520Y-130540D02*
Y-129540D01*
X103670Y-112690D02*
X104170D01*
X103920Y-112940D02*
Y-112440D01*
X89700Y-176110D02*
X90700D01*
X90200Y-176610D02*
Y-175610D01*
X119960Y-177630D02*
X120960D01*
X120460Y-178130D02*
Y-177130D01*
X156340Y-171150D02*
X157340D01*
X156840Y-171650D02*
Y-170650D01*
X182270Y-150780D02*
X185070D01*
X183670Y-152180D02*
Y-149380D01*
X168270Y-180310D02*
X171070D01*
X169670Y-181710D02*
Y-178910D01*
X103150Y-100290D02*
X103450D01*
X103300Y-100440D02*
Y-100140D01*
X125000Y-99410D02*
X125500D01*
X125250Y-99660D02*
Y-99160D01*
X112380Y-119980D02*
X112880D01*
X112630Y-120230D02*
Y-119730D01*
X97360Y-80110D02*
X99360D01*
X98360Y-81110D02*
Y-79110D01*
X97330Y-88600D02*
X99330D01*
X98330Y-89600D02*
Y-87600D01*
X118510Y-73820D02*
X119010D01*
X118760Y-74070D02*
Y-73570D01*
X116370Y-81630D02*
X116870D01*
X116620Y-81880D02*
Y-81380D01*
X22740Y-79490D02*
X24740D01*
X23740Y-80490D02*
Y-78490D01*
X141940Y-31060D02*
X144740D01*
X143340Y-32460D02*
Y-29660D01*
X153210Y-84280D02*
X156010D01*
X154610Y-85680D02*
Y-82880D01*
X184130Y-172450D02*
X186930D01*
X185530Y-173850D02*
Y-171050D01*
X73150Y-164570D02*
X75950D01*
X74550Y-165970D02*
Y-163170D01*
X134200Y-154290D02*
X137000D01*
X135600Y-155690D02*
Y-152890D01*
X48450Y-9830D02*
X58450D01*
X53450Y-14830D02*
Y-4830D01*
X158880Y-152620D02*
X161680D01*
X160280Y-154020D02*
Y-151220D01*
X58110Y-152160D02*
X68110D01*
X63110Y-157160D02*
Y-147160D01*
X153240Y-172090D02*
X154240D01*
X153740Y-172590D02*
Y-171590D01*
M02*
