G04*
G04 #@! TF.GenerationSoftware,Altium Limited,Altium Designer,18.0.9 (584)*
G04*
G04 Layer_Color=255*
%FSAX24Y24*%
%MOIN*%
G70*
G01*
G75*
%ADD19R,0.0580X0.0220*%
%ADD20R,0.0283X0.0283*%
%ADD21R,0.0197X0.0236*%
G04:AMPARAMS|DCode=22|XSize=15.7mil|YSize=25.6mil|CornerRadius=2mil|HoleSize=0mil|Usage=FLASHONLY|Rotation=90.000|XOffset=0mil|YOffset=0mil|HoleType=Round|Shape=RoundedRectangle|*
%AMROUNDEDRECTD22*
21,1,0.0157,0.0217,0,0,90.0*
21,1,0.0118,0.0256,0,0,90.0*
1,1,0.0039,0.0108,0.0059*
1,1,0.0039,0.0108,-0.0059*
1,1,0.0039,-0.0108,-0.0059*
1,1,0.0039,-0.0108,0.0059*
%
%ADD22ROUNDEDRECTD22*%
%ADD23R,0.0354X0.0315*%
%ADD24R,0.0560X0.0140*%
%ADD25R,0.0140X0.0560*%
%ADD26R,0.0236X0.0197*%
G04:AMPARAMS|DCode=27|XSize=15.7mil|YSize=33.5mil|CornerRadius=3.9mil|HoleSize=0mil|Usage=FLASHONLY|Rotation=180.000|XOffset=0mil|YOffset=0mil|HoleType=Round|Shape=RoundedRectangle|*
%AMROUNDEDRECTD27*
21,1,0.0157,0.0256,0,0,180.0*
21,1,0.0079,0.0335,0,0,180.0*
1,1,0.0079,-0.0039,0.0128*
1,1,0.0079,0.0039,0.0128*
1,1,0.0079,0.0039,-0.0128*
1,1,0.0079,-0.0039,-0.0128*
%
%ADD27ROUNDEDRECTD27*%
%ADD28R,0.0315X0.0354*%
%ADD54R,0.0030X0.0350*%
%ADD55R,0.0030X0.0240*%
%ADD60R,0.0591X0.0591*%
%ADD61C,0.0591*%
%ADD62C,0.0866*%
%ADD63R,0.0591X0.0591*%
%ADD64C,0.0610*%
%ADD65R,0.0610X0.0610*%
D19*
X028965Y024819D02*
D03*
Y024449D02*
D03*
Y024079D02*
D03*
X029905D02*
D03*
Y024819D02*
D03*
D20*
X044671Y022126D02*
D03*
X045065D02*
D03*
X042230D02*
D03*
X042624D02*
D03*
X044986Y025591D02*
D03*
X044592D02*
D03*
X042624D02*
D03*
X042230D02*
D03*
D21*
X038578Y026569D02*
D03*
Y026175D02*
D03*
X035784Y026570D02*
D03*
Y026176D02*
D03*
X044487Y030555D02*
D03*
Y030949D02*
D03*
D22*
X029791Y033074D02*
D03*
Y032562D02*
D03*
X028984D02*
D03*
Y032818D02*
D03*
Y033074D02*
D03*
X029810Y030026D02*
D03*
Y029515D02*
D03*
X029003D02*
D03*
Y029770D02*
D03*
Y030026D02*
D03*
D23*
X029821Y030967D02*
D03*
Y031518D02*
D03*
X029033Y030967D02*
D03*
Y031518D02*
D03*
X028844Y025669D02*
D03*
Y026220D02*
D03*
X029907Y025669D02*
D03*
Y026220D02*
D03*
X032230Y027244D02*
D03*
Y027795D02*
D03*
X030608Y028959D02*
D03*
Y029511D02*
D03*
X031400Y023450D02*
D03*
Y024001D02*
D03*
X032961Y034530D02*
D03*
Y033978D02*
D03*
X029781Y034668D02*
D03*
Y034117D02*
D03*
X030569Y031991D02*
D03*
Y032542D02*
D03*
X028994Y034117D02*
D03*
Y034668D02*
D03*
D24*
X041119Y035713D02*
D03*
Y035453D02*
D03*
Y035193D02*
D03*
Y034933D02*
D03*
Y034673D02*
D03*
Y034413D02*
D03*
Y034153D02*
D03*
Y033893D02*
D03*
X043419D02*
D03*
Y034153D02*
D03*
Y034413D02*
D03*
Y034673D02*
D03*
Y034933D02*
D03*
Y035193D02*
D03*
Y035453D02*
D03*
Y035713D02*
D03*
D25*
X036564Y025284D02*
D03*
X036304D02*
D03*
X036044D02*
D03*
X035784D02*
D03*
X035524D02*
D03*
X035264D02*
D03*
X035004D02*
D03*
X034744D02*
D03*
Y022984D02*
D03*
X035004D02*
D03*
X035264D02*
D03*
X035524D02*
D03*
X035784D02*
D03*
X036044D02*
D03*
X036304D02*
D03*
X036564D02*
D03*
X039359D02*
D03*
X039099D02*
D03*
X038839D02*
D03*
X038579D02*
D03*
X038319D02*
D03*
X038059D02*
D03*
X037799D02*
D03*
X037539D02*
D03*
Y025284D02*
D03*
X037799D02*
D03*
X038059D02*
D03*
X038319D02*
D03*
X038579D02*
D03*
X038839D02*
D03*
X039099D02*
D03*
X039359D02*
D03*
D26*
X035021Y028410D02*
D03*
X035415D02*
D03*
X035025Y031989D02*
D03*
X035419D02*
D03*
X035021Y031563D02*
D03*
X035415D02*
D03*
X035027Y031142D02*
D03*
X035421D02*
D03*
X035023Y030269D02*
D03*
X035417D02*
D03*
X035021Y030730D02*
D03*
X035415D02*
D03*
X042088Y032751D02*
D03*
X042482D02*
D03*
X042088Y036869D02*
D03*
X042482D02*
D03*
X040466Y023473D02*
D03*
X040860D02*
D03*
X032941D02*
D03*
X032547D02*
D03*
D27*
X042486Y024075D02*
D03*
X042230D02*
D03*
X041974D02*
D03*
X042486Y023346D02*
D03*
X042230D02*
D03*
X041974D02*
D03*
X044868Y024075D02*
D03*
X044612D02*
D03*
X044356D02*
D03*
X044868Y023346D02*
D03*
X044612D02*
D03*
X044356D02*
D03*
D28*
X032978Y038189D02*
D03*
X033529D02*
D03*
D54*
X038127Y030263D02*
D03*
X038007D02*
D03*
X038067D02*
D03*
D55*
X037407Y029053D02*
D03*
X037467D02*
D03*
X037527D02*
D03*
X037587D02*
D03*
X037647D02*
D03*
X037707D02*
D03*
X037767D02*
D03*
X037827D02*
D03*
X037887D02*
D03*
X037947D02*
D03*
X038007D02*
D03*
X038067D02*
D03*
X038127D02*
D03*
X038187D02*
D03*
X038247D02*
D03*
X038307D02*
D03*
X038367D02*
D03*
X038427D02*
D03*
Y030553D02*
D03*
X038367D02*
D03*
X038307D02*
D03*
X038247D02*
D03*
X038187D02*
D03*
X038127D02*
D03*
X038067D02*
D03*
X038007D02*
D03*
X037947D02*
D03*
X037887D02*
D03*
X037827D02*
D03*
X037767D02*
D03*
X037707D02*
D03*
X037647D02*
D03*
X037587D02*
D03*
X037527D02*
D03*
X037467D02*
D03*
X037407D02*
D03*
D60*
X044506Y020787D02*
D03*
X040553Y039055D02*
D03*
X035757Y038055D02*
D03*
X027813Y038898D02*
D03*
D61*
X043506Y020787D02*
D03*
X042506D02*
D03*
X041506D02*
D03*
X040506D02*
D03*
X039506D02*
D03*
X038506D02*
D03*
X037506D02*
D03*
X036506D02*
D03*
X035506D02*
D03*
X034506D02*
D03*
X033506D02*
D03*
X032506D02*
D03*
X031506D02*
D03*
X045553Y039055D02*
D03*
X044553D02*
D03*
X043553D02*
D03*
X042553D02*
D03*
X041553D02*
D03*
X035757D02*
D03*
X036757Y038055D02*
D03*
Y039055D02*
D03*
X037757Y038055D02*
D03*
Y039055D02*
D03*
X038757Y038055D02*
D03*
Y039055D02*
D03*
X032949Y031598D02*
D03*
X031949D02*
D03*
X032949Y032598D02*
D03*
X045457Y034953D02*
D03*
Y033953D02*
D03*
Y032953D02*
D03*
Y031953D02*
D03*
Y030953D02*
D03*
X028813Y038898D02*
D03*
D62*
X036207Y035366D02*
D03*
X038207D02*
D03*
Y033366D02*
D03*
X036207D02*
D03*
X037207Y034366D02*
D03*
D63*
X031949Y032598D02*
D03*
X045457Y035953D02*
D03*
D64*
X029946Y027520D02*
D03*
X028946D02*
D03*
X029946Y022700D02*
D03*
X028946D02*
D03*
X029946Y036571D02*
D03*
X028946D02*
D03*
D65*
X027946Y027520D02*
D03*
Y022700D02*
D03*
Y036571D02*
D03*
M02*
