G04*
G04 #@! TF.GenerationSoftware,Altium Limited,Altium Designer,18.0.9 (584)*
G04*
G04 Layer_Color=65535*
%FSAX24Y24*%
%MOIN*%
G70*
G01*
G75*
%ADD10C,0.0000*%
%ADD11C,0.0098*%
%ADD12C,0.0060*%
%ADD13C,0.0100*%
%ADD14C,0.0079*%
%ADD15C,0.0010*%
%ADD16C,0.0039*%
%ADD17C,0.0050*%
G36*
X035079Y022604D02*
Y022504D01*
X034929D01*
Y022604D01*
X035079D01*
D02*
G37*
G36*
X037874D02*
Y022504D01*
X037724D01*
Y022604D01*
X037874D01*
D02*
G37*
G36*
X043799Y034228D02*
X043899D01*
Y034078D01*
X043799D01*
Y034228D01*
D02*
G37*
D10*
X029385Y024929D02*
G03*
X029485Y024929I000050J000112D01*
G01*
D11*
X029033Y033369D02*
G03*
X029033Y033369I-000049J000000D01*
G01*
X029052Y030322D02*
G03*
X029052Y030322I-000049J000000D01*
G01*
D12*
X042149Y035808D02*
G03*
X042389Y035808I000120J000000D01*
G01*
X036659Y024254D02*
G03*
X036659Y024014I000000J-000120D01*
G01*
X039454Y024254D02*
G03*
X039454Y024014I000000J-000120D01*
G01*
X041528Y033798D02*
X043011D01*
X041528Y035808D02*
X043011D01*
X034649Y023392D02*
Y024875D01*
X036659Y023392D02*
Y024875D01*
X039454Y023392D02*
Y024875D01*
X037444Y023392D02*
Y024875D01*
D13*
X042802Y024242D02*
G03*
X042802Y024242I-000050J000000D01*
G01*
X045184D02*
G03*
X045184Y024242I-000050J000000D01*
G01*
D14*
X029506Y032385D02*
Y033251D01*
X029269Y032385D02*
Y033251D01*
Y032385D02*
X029506D01*
X029269Y033251D02*
X029506D01*
X029525Y029337D02*
Y030204D01*
X029289Y029337D02*
Y030204D01*
Y029337D02*
X029525D01*
X029289Y030204D02*
X029525D01*
X031006Y020287D02*
Y021287D01*
X045006D01*
Y020287D02*
Y021287D01*
X044256Y020287D02*
X045006D01*
X031006D02*
X044256D01*
X036742Y035616D02*
X037672D01*
X035957Y033901D02*
Y034831D01*
X036742Y033116D02*
X037672D01*
X038457Y033901D02*
Y034831D01*
X040053Y038555D02*
X046053D01*
X040053Y039555D02*
X046053D01*
X040053Y038555D02*
Y039555D01*
X046053Y038555D02*
Y039555D01*
X039257Y037555D02*
Y039555D01*
X035257Y037555D02*
Y039555D01*
X039257D01*
X035257Y037555D02*
X039257D01*
X033449Y031098D02*
Y033098D01*
X031449D02*
X033449D01*
X031449Y031098D02*
X033449D01*
X031449D02*
Y033098D01*
X044957Y030453D02*
X045957D01*
X044957Y036453D02*
X045957D01*
Y030453D02*
Y036453D01*
X044957Y030453D02*
Y036453D01*
X030521Y027020D02*
Y028020D01*
X027372Y027020D02*
X030521D01*
X027372D02*
Y028020D01*
X030521D01*
Y022200D02*
Y023200D01*
X027372Y022200D02*
X030521D01*
X027372D02*
Y023200D01*
X030521D01*
Y036071D02*
Y037071D01*
X027372Y036071D02*
X030521D01*
X027372D02*
Y037071D01*
X030521D01*
X029313Y038398D02*
Y039398D01*
X027313Y038398D02*
X029313D01*
X027313D02*
Y039398D01*
X029313D01*
D15*
X038067Y029893D02*
Y030013D01*
D16*
X042683Y023346D02*
Y024075D01*
X041777Y023346D02*
Y024075D01*
X045065Y023346D02*
Y024075D01*
X044159Y023346D02*
Y024075D01*
D17*
X027060Y038221D02*
Y038054D01*
X027143Y037971D01*
X027227Y038054D01*
Y038221D01*
X027310Y037971D02*
Y038221D01*
X027435D01*
X027477Y038179D01*
Y038096D01*
X027435Y038054D01*
X027310D01*
X027685Y038221D02*
X027601D01*
X027560Y038179D01*
Y038013D01*
X027601Y037971D01*
X027685D01*
X027726Y038013D01*
Y038179D01*
X027685Y038221D01*
X027976Y038179D02*
X027935Y038221D01*
X027851D01*
X027810Y038179D01*
Y038138D01*
X027851Y038096D01*
X027935D01*
X027976Y038054D01*
Y038013D01*
X027935Y037971D01*
X027851D01*
X027810Y038013D01*
X028060Y038054D02*
X028226D01*
X028060Y038138D02*
X028226D01*
X028476Y038221D02*
X028310D01*
Y038096D01*
X028393Y038138D01*
X028435D01*
X028476Y038096D01*
Y038013D01*
X028435Y037971D01*
X028351D01*
X028310Y038013D01*
X028560Y038221D02*
Y038054D01*
X028643Y037971D01*
X028726Y038054D01*
Y038221D01*
X033329Y033481D02*
Y033314D01*
X033412Y033231D01*
X033496Y033314D01*
Y033481D01*
X033579D02*
Y033231D01*
X033704D01*
X033746Y033273D01*
Y033439D01*
X033704Y033481D01*
X033579D01*
X033829D02*
Y033231D01*
X033954D01*
X033995Y033273D01*
Y033439D01*
X033954Y033481D01*
X033829D01*
X034079Y033189D02*
X034245D01*
X034329Y033439D02*
X034370Y033481D01*
X034454D01*
X034495Y033439D01*
Y033398D01*
X034454Y033356D01*
X034412D01*
X034454D01*
X034495Y033314D01*
Y033273D01*
X034454Y033231D01*
X034370D01*
X034329Y033273D01*
X034579Y033439D02*
X034620Y033481D01*
X034704D01*
X034745Y033439D01*
Y033398D01*
X034704Y033356D01*
X034662D01*
X034704D01*
X034745Y033314D01*
Y033273D01*
X034704Y033231D01*
X034620D01*
X034579Y033273D01*
X034829Y033481D02*
Y033314D01*
X034912Y033231D01*
X034995Y033314D01*
Y033481D01*
X032614Y030703D02*
Y030536D01*
X032697Y030453D01*
X032781Y030536D01*
Y030703D01*
X032864D02*
Y030453D01*
X032989D01*
X033031Y030495D01*
Y030536D01*
X032989Y030578D01*
X032864D01*
X032989D01*
X033031Y030620D01*
Y030661D01*
X032989Y030703D01*
X032864D01*
X033114Y030453D02*
Y030620D01*
X033197Y030703D01*
X033280Y030620D01*
Y030453D01*
Y030578D01*
X033114D01*
X033364Y030703D02*
X033530D01*
X033447D01*
Y030453D01*
X029741Y021813D02*
X029699Y021855D01*
X029616D01*
X029574Y021813D01*
Y021647D01*
X029616Y021605D01*
X029699D01*
X029741Y021647D01*
Y021730D01*
X029657D01*
X029824Y021605D02*
Y021855D01*
X029991Y021605D01*
Y021855D01*
X030074D02*
Y021605D01*
X030199D01*
X030240Y021647D01*
Y021813D01*
X030199Y021855D01*
X030074D01*
X029823Y026801D02*
X029781Y026843D01*
X029698D01*
X029656Y026801D01*
Y026635D01*
X029698Y026593D01*
X029781D01*
X029823Y026635D01*
Y026718D01*
X029739D01*
X029906Y026593D02*
Y026843D01*
X030073Y026593D01*
Y026843D01*
X030156D02*
Y026593D01*
X030281D01*
X030322Y026635D01*
Y026801D01*
X030281Y026843D01*
X030156D01*
X029849Y035762D02*
X029807Y035804D01*
X029724D01*
X029682Y035762D01*
Y035596D01*
X029724Y035554D01*
X029807D01*
X029849Y035596D01*
Y035679D01*
X029765D01*
X029932Y035554D02*
Y035804D01*
X030099Y035554D01*
Y035804D01*
X030182D02*
Y035554D01*
X030307D01*
X030348Y035596D01*
Y035762D01*
X030307Y035804D01*
X030182D01*
X027444Y021855D02*
Y021688D01*
X027527Y021605D01*
X027611Y021688D01*
Y021855D01*
X027694Y021605D02*
Y021855D01*
X027819D01*
X027861Y021813D01*
Y021730D01*
X027819Y021688D01*
X027694D01*
X028069Y021855D02*
X027985D01*
X027944Y021813D01*
Y021647D01*
X027985Y021605D01*
X028069D01*
X028110Y021647D01*
Y021813D01*
X028069Y021855D01*
X028360Y021813D02*
X028319Y021855D01*
X028235D01*
X028194Y021813D01*
Y021772D01*
X028235Y021730D01*
X028319D01*
X028360Y021688D01*
Y021647D01*
X028319Y021605D01*
X028235D01*
X028194Y021647D01*
X027485Y026831D02*
Y026664D01*
X027568Y026581D01*
X027652Y026664D01*
Y026831D01*
X027735Y026581D02*
Y026831D01*
X027860D01*
X027902Y026789D01*
Y026706D01*
X027860Y026664D01*
X027735D01*
X028110Y026831D02*
X028026D01*
X027985Y026789D01*
Y026623D01*
X028026Y026581D01*
X028110D01*
X028151Y026623D01*
Y026789D01*
X028110Y026831D01*
X028401Y026789D02*
X028360Y026831D01*
X028276D01*
X028235Y026789D01*
Y026748D01*
X028276Y026706D01*
X028360D01*
X028401Y026664D01*
Y026623D01*
X028360Y026581D01*
X028276D01*
X028235Y026623D01*
X027488Y035804D02*
Y035637D01*
X027571Y035554D01*
X027655Y035637D01*
Y035804D01*
X027738Y035554D02*
Y035804D01*
X027863D01*
X027905Y035762D01*
Y035679D01*
X027863Y035637D01*
X027738D01*
X028113Y035804D02*
X028029D01*
X027988Y035762D01*
Y035596D01*
X028029Y035554D01*
X028113D01*
X028154Y035596D01*
Y035762D01*
X028113Y035804D01*
X028404Y035762D02*
X028363Y035804D01*
X028279D01*
X028238Y035762D01*
Y035721D01*
X028279Y035679D01*
X028363D01*
X028404Y035637D01*
Y035596D01*
X028363Y035554D01*
X028279D01*
X028238Y035596D01*
X043959Y021750D02*
Y021500D01*
X044084D01*
X044126Y021542D01*
Y021709D01*
X044084Y021750D01*
X043959D01*
X044376D02*
X044209D01*
Y021625D01*
X044292D01*
X044209D01*
Y021500D01*
X044625Y021709D02*
X044584Y021750D01*
X044500D01*
X044459Y021709D01*
Y021542D01*
X044500Y021500D01*
X044584D01*
X044625Y021542D01*
X044709Y021750D02*
Y021500D01*
X044875D01*
X044959Y021750D02*
Y021500D01*
Y021584D01*
X045125Y021750D01*
X045000Y021625D01*
X045125Y021500D01*
X045209Y021625D02*
X045375D01*
X043008Y022122D02*
Y021872D01*
X043133D01*
X043175Y021914D01*
Y022080D01*
X043133Y022122D01*
X043008D01*
X043425D02*
X043258D01*
Y021997D01*
X043341D01*
X043258D01*
Y021872D01*
X043674Y022080D02*
X043633Y022122D01*
X043549D01*
X043508Y022080D01*
Y021914D01*
X043549Y021872D01*
X043633D01*
X043674Y021914D01*
X043758Y022122D02*
Y021872D01*
X043924D01*
X044008Y022122D02*
Y021872D01*
Y021955D01*
X044174Y022122D01*
X044049Y021997D01*
X044174Y021872D01*
X044258Y021997D02*
X044424D01*
X044341Y022080D02*
Y021914D01*
X042165Y021750D02*
X042332D01*
X042248D01*
Y021500D01*
X042415Y021750D02*
Y021500D01*
X042540D01*
X042582Y021542D01*
Y021709D01*
X042540Y021750D01*
X042415D01*
X042790D02*
X042706D01*
X042665Y021709D01*
Y021542D01*
X042706Y021500D01*
X042790D01*
X042831Y021542D01*
Y021709D01*
X042790Y021750D01*
X041197D02*
X041364D01*
X041280D01*
Y021500D01*
X041447Y021750D02*
Y021500D01*
X041572D01*
X041614Y021542D01*
Y021709D01*
X041572Y021750D01*
X041447D01*
X041697D02*
X041780D01*
X041738D01*
Y021500D01*
X041697D01*
X041780D01*
X040156Y021750D02*
X040323D01*
X040239D01*
Y021500D01*
X040406D02*
Y021750D01*
X040489Y021667D01*
X040573Y021750D01*
Y021500D01*
X040822Y021709D02*
X040781Y021750D01*
X040697D01*
X040656Y021709D01*
Y021667D01*
X040697Y021625D01*
X040781D01*
X040822Y021584D01*
Y021542D01*
X040781Y021500D01*
X040697D01*
X040656Y021542D01*
X039134Y021750D02*
X039301D01*
X039217D01*
Y021500D01*
X039551Y021709D02*
X039509Y021750D01*
X039426D01*
X039384Y021709D01*
Y021542D01*
X039426Y021500D01*
X039509D01*
X039551Y021542D01*
X039634Y021750D02*
Y021500D01*
Y021584D01*
X039800Y021750D01*
X039675Y021625D01*
X039800Y021500D01*
X037983Y022146D02*
X038150D01*
X038066D01*
Y021896D01*
X038233D02*
Y022146D01*
X038358D01*
X038400Y022104D01*
Y022021D01*
X038358Y021979D01*
X038233D01*
X038316D02*
X038400Y021896D01*
X038649Y022104D02*
X038608Y022146D01*
X038524D01*
X038483Y022104D01*
Y022063D01*
X038524Y022021D01*
X038608D01*
X038649Y021979D01*
Y021938D01*
X038608Y021896D01*
X038524D01*
X038483Y021938D01*
X038733Y022146D02*
X038899D01*
X038816D01*
Y021896D01*
X038983D02*
Y022063D01*
X039108D01*
X039149Y022021D01*
Y021896D01*
X037110Y021750D02*
Y021500D01*
X037277D01*
X037485Y021750D02*
X037402D01*
X037360Y021709D01*
Y021542D01*
X037402Y021500D01*
X037485D01*
X037527Y021542D01*
Y021709D01*
X037485Y021750D01*
X037610Y021500D02*
Y021667D01*
X037693Y021750D01*
X037776Y021667D01*
Y021500D01*
Y021625D01*
X037610D01*
X037860Y021750D02*
Y021500D01*
X037985D01*
X038026Y021542D01*
Y021709D01*
X037985Y021750D01*
X037860D01*
X036331Y022141D02*
X036289Y022183D01*
X036206D01*
X036164Y022141D01*
Y022100D01*
X036206Y022058D01*
X036289D01*
X036331Y022016D01*
Y021975D01*
X036289Y021933D01*
X036206D01*
X036164Y021975D01*
X036581Y022141D02*
X036539Y022183D01*
X036456D01*
X036414Y022141D01*
Y021975D01*
X036456Y021933D01*
X036539D01*
X036581Y021975D01*
X036664Y022183D02*
X036747D01*
X036705D01*
Y021933D01*
X036664D01*
X036747D01*
X036997Y022183D02*
X036914D01*
X036872Y022141D01*
Y021975D01*
X036914Y021933D01*
X036997D01*
X037039Y021975D01*
Y022141D01*
X036997Y022183D01*
X034686Y021750D02*
X034644Y021792D01*
X034561D01*
X034519Y021750D01*
Y021709D01*
X034561Y021667D01*
X034644D01*
X034686Y021625D01*
Y021584D01*
X034644Y021542D01*
X034561D01*
X034519Y021584D01*
X034936Y021750D02*
X034894Y021792D01*
X034811D01*
X034769Y021750D01*
Y021584D01*
X034811Y021542D01*
X034894D01*
X034936Y021584D01*
X035019Y021542D02*
Y021709D01*
X035102Y021792D01*
X035185Y021709D01*
Y021542D01*
Y021667D01*
X035019D01*
X035269Y021542D02*
Y021792D01*
X035435Y021542D01*
Y021792D01*
X035519Y021500D02*
X035685D01*
X035894Y021792D02*
X035810D01*
X035769Y021750D01*
Y021584D01*
X035810Y021542D01*
X035894D01*
X035935Y021584D01*
Y021750D01*
X035894Y021792D01*
X036019D02*
Y021584D01*
X036060Y021542D01*
X036143D01*
X036185Y021584D01*
Y021792D01*
X036268D02*
X036435D01*
X036352D01*
Y021542D01*
X033787Y022139D02*
X033745Y022181D01*
X033662D01*
X033620Y022139D01*
Y022098D01*
X033662Y022056D01*
X033745D01*
X033787Y022014D01*
Y021973D01*
X033745Y021931D01*
X033662D01*
X033620Y021973D01*
X034037Y022139D02*
X033995Y022181D01*
X033912D01*
X033870Y022139D01*
Y021973D01*
X033912Y021931D01*
X033995D01*
X034037Y021973D01*
X034120Y021931D02*
Y022098D01*
X034203Y022181D01*
X034286Y022098D01*
Y021931D01*
Y022056D01*
X034120D01*
X034370Y021931D02*
Y022181D01*
X034536Y021931D01*
Y022181D01*
X034620Y021889D02*
X034786D01*
X034870Y022181D02*
X034953D01*
X034911D01*
Y021931D01*
X034870D01*
X034953D01*
X035078D02*
Y022181D01*
X035244Y021931D01*
Y022181D01*
X033077Y021500D02*
Y021750D01*
X033202D01*
X033244Y021709D01*
Y021625D01*
X033202Y021584D01*
X033077D01*
X033327Y021750D02*
Y021500D01*
Y021625D01*
X033494D01*
Y021750D01*
Y021500D01*
X033577Y021750D02*
X033660D01*
X033618D01*
Y021500D01*
X033577D01*
X033660D01*
X033785Y021750D02*
Y021500D01*
X033910D01*
X033952Y021542D01*
Y021584D01*
X033910Y021625D01*
X033785D01*
X033910D01*
X033952Y021667D01*
Y021709D01*
X033910Y021750D01*
X033785D01*
X032251Y021500D02*
Y021750D01*
X032376D01*
X032418Y021709D01*
Y021625D01*
X032376Y021584D01*
X032251D01*
X032501Y021750D02*
Y021500D01*
Y021625D01*
X032668D01*
Y021750D01*
Y021500D01*
X032751Y021750D02*
X032834D01*
X032792D01*
Y021500D01*
X032751D01*
X032834D01*
X031234D02*
Y021750D01*
X031359D01*
X031401Y021709D01*
Y021625D01*
X031359Y021584D01*
X031234D01*
X031317D02*
X031401Y021500D01*
X031651Y021709D02*
X031609Y021750D01*
X031526D01*
X031484Y021709D01*
Y021667D01*
X031526Y021625D01*
X031609D01*
X031651Y021584D01*
Y021542D01*
X031609Y021500D01*
X031526D01*
X031484Y021542D01*
X031734Y021750D02*
X031900D01*
X031817D01*
Y021500D01*
X029694Y038987D02*
X029652Y039029D01*
X029569D01*
X029527Y038987D01*
Y038821D01*
X029569Y038779D01*
X029652D01*
X029694Y038821D01*
Y038904D01*
X029610D01*
X029777Y038779D02*
Y039029D01*
X029944Y038779D01*
Y039029D01*
X030027D02*
Y038779D01*
X030152D01*
X030193Y038821D01*
Y038987D01*
X030152Y039029D01*
X030027D01*
X045606Y030085D02*
X045356D01*
Y029960D01*
X045398Y029918D01*
X045439D01*
X045481Y029960D01*
Y030085D01*
Y029960D01*
X045523Y029918D01*
X045564D01*
X045606Y029960D01*
Y030085D01*
X045564Y029668D02*
X045606Y029710D01*
Y029793D01*
X045564Y029835D01*
X045398D01*
X045356Y029793D01*
Y029710D01*
X045398Y029668D01*
X045481D01*
Y029752D01*
X045356Y029419D02*
Y029585D01*
X045523Y029419D01*
X045564D01*
X045606Y029460D01*
Y029544D01*
X045564Y029585D01*
Y029335D02*
X045606Y029294D01*
Y029210D01*
X045564Y029169D01*
X045398D01*
X045356Y029210D01*
Y029294D01*
X045398Y029335D01*
X045564D01*
Y029085D02*
X045606Y029044D01*
Y028960D01*
X045564Y028919D01*
X045398D01*
X045356Y028960D01*
Y029044D01*
X045398Y029085D01*
X045564D01*
X045356Y028835D02*
X045606D01*
X045523Y028752D01*
X045606Y028669D01*
X045356D01*
X045606Y028585D02*
X045439D01*
X045356Y028502D01*
X045439Y028419D01*
X045606D01*
X046124Y032457D02*
X046291D01*
X046374Y032374D01*
X046291Y032290D01*
X046124D01*
X046249D01*
Y032457D01*
X046374Y032207D02*
X046124D01*
Y032082D01*
X046166Y032040D01*
X046332D01*
X046374Y032082D01*
Y032207D01*
X046332Y031791D02*
X046374Y031832D01*
Y031916D01*
X046332Y031957D01*
X046166D01*
X046124Y031916D01*
Y031832D01*
X046166Y031791D01*
X046374Y031541D02*
Y031707D01*
X046249D01*
X046291Y031624D01*
Y031582D01*
X046249Y031541D01*
X046166D01*
X046124Y031582D01*
Y031666D01*
X046166Y031707D01*
X046374Y031457D02*
X046124D01*
Y031332D01*
X046166Y031291D01*
X046207D01*
X046249Y031332D01*
Y031457D01*
Y031332D01*
X046291Y031291D01*
X046332D01*
X046374Y031332D01*
Y031457D01*
X046124Y031207D02*
X046374D01*
X046291Y031124D01*
X046374Y031041D01*
X046124D01*
X046332Y030791D02*
X046374Y030833D01*
Y030916D01*
X046332Y030957D01*
X046291D01*
X046249Y030916D01*
Y030833D01*
X046207Y030791D01*
X046166D01*
X046124Y030833D01*
Y030916D01*
X046166Y030957D01*
X046374Y030708D02*
X046124D01*
Y030583D01*
X046166Y030541D01*
X046207D01*
X046249Y030583D01*
Y030708D01*
Y030583D01*
X046291Y030541D01*
X046332D01*
X046374Y030583D01*
Y030708D01*
X044437Y033970D02*
Y033887D01*
Y033928D01*
X044687D01*
X044645Y033970D01*
X044687Y033762D02*
X044437D01*
Y033637D01*
X044479Y033595D01*
X044520D01*
X044562Y033637D01*
Y033762D01*
Y033637D01*
X044604Y033595D01*
X044645D01*
X044687Y033637D01*
Y033762D01*
X044645Y033345D02*
X044687Y033387D01*
Y033470D01*
X044645Y033512D01*
X044604D01*
X044562Y033470D01*
Y033387D01*
X044520Y033345D01*
X044479D01*
X044437Y033387D01*
Y033470D01*
X044479Y033512D01*
X044437Y033262D02*
X044604D01*
X044687Y033179D01*
X044604Y033095D01*
X044437D01*
X044562D01*
Y033262D01*
X044687Y032887D02*
Y032970D01*
X044645Y033012D01*
X044479D01*
X044437Y032970D01*
Y032887D01*
X044479Y032845D01*
X044645D01*
X044687Y032887D01*
Y032762D02*
X044479D01*
X044437Y032720D01*
Y032637D01*
X044479Y032595D01*
X044687D01*
Y032512D02*
Y032346D01*
Y032429D01*
X044437D01*
Y032262D02*
X044687D01*
Y032137D01*
X044645Y032096D01*
X044562D01*
X044520Y032137D01*
Y032262D01*
X044687Y032012D02*
X044479D01*
X044437Y031971D01*
Y031887D01*
X044479Y031846D01*
X044687D01*
Y031762D02*
Y031596D01*
Y031679D01*
X044437D01*
X046326Y034708D02*
X046368Y034750D01*
Y034833D01*
X046326Y034875D01*
X046285D01*
X046243Y034833D01*
Y034750D01*
X046201Y034708D01*
X046160D01*
X046118Y034750D01*
Y034833D01*
X046160Y034875D01*
X046326Y034458D02*
X046368Y034500D01*
Y034583D01*
X046326Y034625D01*
X046160D01*
X046118Y034583D01*
Y034500D01*
X046160Y034458D01*
X046118Y034375D02*
X046368D01*
X046285Y034292D01*
X046368Y034209D01*
X046118D01*
X046368Y034125D02*
X046160D01*
X046118Y034084D01*
Y034000D01*
X046160Y033959D01*
X046368D01*
Y033875D02*
X046118Y033709D01*
X046368D02*
X046118Y033875D01*
X046326Y033459D02*
X046368Y033500D01*
Y033584D01*
X046326Y033625D01*
X046285D01*
X046243Y033584D01*
Y033500D01*
X046201Y033459D01*
X046160D01*
X046118Y033500D01*
Y033584D01*
X046160Y033625D01*
X046368Y033209D02*
Y033375D01*
X046118D01*
Y033209D01*
X046243Y033375D02*
Y033292D01*
X046368Y033126D02*
X046118D01*
Y032959D01*
X044675Y035651D02*
X044467D01*
X044425Y035609D01*
Y035526D01*
X044467Y035484D01*
X044675D01*
X044425Y035401D02*
X044592D01*
X044675Y035318D01*
X044592Y035234D01*
X044425D01*
X044550D01*
Y035401D01*
X044425Y035151D02*
X044675D01*
Y035026D01*
X044633Y034985D01*
X044550D01*
X044508Y035026D01*
Y035151D01*
Y035068D02*
X044425Y034985D01*
X044675Y034901D02*
Y034735D01*
Y034818D01*
X044425D01*
Y034651D02*
X044675D01*
Y034526D01*
X044633Y034485D01*
X044550D01*
X044508Y034526D01*
Y034651D01*
Y034568D02*
X044425Y034485D01*
X044675Y034401D02*
X044425Y034235D01*
X044675D02*
X044425Y034401D01*
X046368Y036798D02*
X046160D01*
X046118Y036756D01*
Y036673D01*
X046160Y036631D01*
X046368D01*
X046118Y036548D02*
X046285D01*
X046368Y036465D01*
X046285Y036381D01*
X046118D01*
X046243D01*
Y036548D01*
X046118Y036298D02*
X046368D01*
Y036173D01*
X046326Y036132D01*
X046243D01*
X046201Y036173D01*
Y036298D01*
Y036215D02*
X046118Y036132D01*
X046368Y036048D02*
Y035882D01*
Y035965D01*
X046118D01*
X046368Y035798D02*
Y035632D01*
Y035715D01*
X046118D01*
X046368Y035548D02*
X046118Y035382D01*
X046368D02*
X046118Y035548D01*
X044965Y037639D02*
Y037806D01*
X045048Y037889D01*
X045132Y037806D01*
Y037639D01*
Y037764D01*
X044965D01*
X045215Y037889D02*
Y037639D01*
X045340D01*
X045382Y037681D01*
Y037848D01*
X045340Y037889D01*
X045215D01*
X045631Y037848D02*
X045590Y037889D01*
X045506D01*
X045465Y037848D01*
Y037681D01*
X045506Y037639D01*
X045590D01*
X045631Y037681D01*
X045715Y037889D02*
X045798D01*
X045756D01*
Y037639D01*
X045715D01*
X045798D01*
X045923D02*
Y037889D01*
X046090Y037639D01*
Y037889D01*
X043500Y038156D02*
Y038323D01*
X043583Y038406D01*
X043667Y038323D01*
Y038156D01*
Y038281D01*
X043500D01*
X043750Y038406D02*
Y038156D01*
X043875D01*
X043917Y038198D01*
Y038364D01*
X043875Y038406D01*
X043750D01*
X044166Y038364D02*
X044125Y038406D01*
X044041D01*
X044000Y038364D01*
Y038198D01*
X044041Y038156D01*
X044125D01*
X044166Y038198D01*
X044416Y038156D02*
X044250D01*
X044416Y038323D01*
Y038364D01*
X044375Y038406D01*
X044291D01*
X044250Y038364D01*
X044500D02*
X044541Y038406D01*
X044625D01*
X044666Y038364D01*
Y038198D01*
X044625Y038156D01*
X044541D01*
X044500Y038198D01*
Y038364D01*
X044750D02*
X044791Y038406D01*
X044875D01*
X044916Y038364D01*
Y038198D01*
X044875Y038156D01*
X044791D01*
X044750Y038198D01*
Y038364D01*
X045000Y038156D02*
Y038406D01*
X045083Y038323D01*
X045166Y038406D01*
Y038156D01*
X045249Y038406D02*
Y038239D01*
X045333Y038156D01*
X045416Y038239D01*
Y038406D01*
X043033Y037889D02*
Y037723D01*
X043116Y037639D01*
X043200Y037723D01*
Y037889D01*
X043283D02*
Y037639D01*
X043408D01*
X043450Y037681D01*
Y037848D01*
X043408Y037889D01*
X043283D01*
X043533D02*
Y037639D01*
X043658D01*
X043699Y037681D01*
Y037848D01*
X043658Y037889D01*
X043533D01*
X043783Y037639D02*
Y037889D01*
X043908D01*
X043949Y037848D01*
Y037764D01*
X043908Y037723D01*
X043783D01*
X044033Y037639D02*
Y037806D01*
X044116Y037889D01*
X044199Y037806D01*
Y037639D01*
Y037764D01*
X044033D01*
X038183Y036942D02*
Y036775D01*
X038266Y036692D01*
X038350Y036775D01*
Y036942D01*
X038433D02*
Y036692D01*
X038558D01*
X038600Y036734D01*
Y036900D01*
X038558Y036942D01*
X038433D01*
X038683D02*
Y036692D01*
X038808D01*
X038849Y036734D01*
Y036900D01*
X038808Y036942D01*
X038683D01*
X038933Y036692D02*
Y036942D01*
X039058D01*
X039099Y036900D01*
Y036817D01*
X039058Y036775D01*
X038933D01*
X039183Y036692D02*
Y036859D01*
X039266Y036942D01*
X039349Y036859D01*
Y036692D01*
Y036817D01*
X039183D01*
X037263Y037381D02*
Y037214D01*
X037346Y037131D01*
X037430Y037214D01*
Y037381D01*
X037513D02*
Y037131D01*
X037638D01*
X037680Y037173D01*
Y037339D01*
X037638Y037381D01*
X037513D01*
X037763D02*
Y037131D01*
X037888D01*
X037929Y037173D01*
Y037339D01*
X037888Y037381D01*
X037763D01*
X038013Y037131D02*
Y037298D01*
X038096Y037381D01*
X038179Y037298D01*
Y037131D01*
Y037256D01*
X038013D01*
X042124Y038406D02*
Y038239D01*
X042207Y038156D01*
X042291Y038239D01*
Y038406D01*
X042374D02*
Y038156D01*
X042499D01*
X042541Y038198D01*
Y038364D01*
X042499Y038406D01*
X042374D01*
X042624D02*
Y038156D01*
X042749D01*
X042790Y038198D01*
Y038364D01*
X042749Y038406D01*
X042624D01*
X042874Y038156D02*
Y038323D01*
X042957Y038406D01*
X043040Y038323D01*
Y038156D01*
Y038281D01*
X042874D01*
X040556Y037931D02*
Y037764D01*
X040639Y037681D01*
X040723Y037764D01*
Y037931D01*
X040806D02*
Y037681D01*
X040931D01*
X040973Y037723D01*
Y037889D01*
X040931Y037931D01*
X040806D01*
X041056D02*
Y037681D01*
X041181D01*
X041222Y037723D01*
Y037889D01*
X041181Y037931D01*
X041056D01*
X041306Y037681D02*
Y037931D01*
X041431D01*
X041472Y037889D01*
Y037806D01*
X041431Y037764D01*
X041306D01*
X041389D02*
X041472Y037681D01*
X041722Y037931D02*
X041556D01*
Y037806D01*
X041639D01*
X041556D01*
Y037681D01*
X041806Y037639D02*
X041972D01*
X042180Y037931D02*
X042097D01*
X042056Y037889D01*
Y037723D01*
X042097Y037681D01*
X042180D01*
X042222Y037723D01*
Y037889D01*
X042180Y037931D01*
X042305D02*
Y037723D01*
X042347Y037681D01*
X042430D01*
X042472Y037723D01*
Y037931D01*
X042555D02*
X042722D01*
X042639D01*
Y037681D01*
X035496Y036948D02*
Y036781D01*
X035579Y036698D01*
X035663Y036781D01*
Y036948D01*
X035746D02*
Y036698D01*
X035871D01*
X035913Y036740D01*
Y036906D01*
X035871Y036948D01*
X035746D01*
X035996D02*
Y036698D01*
X036121D01*
X036162Y036740D01*
Y036906D01*
X036121Y036948D01*
X035996D01*
X036246Y036698D02*
Y036948D01*
X036371D01*
X036412Y036906D01*
Y036823D01*
X036371Y036781D01*
X036246D01*
X036329D02*
X036412Y036698D01*
X036662Y036948D02*
X036496D01*
Y036823D01*
X036579D01*
X036496D01*
Y036698D01*
X036746Y036656D02*
X036912D01*
X037120Y036948D02*
X037037D01*
X036996Y036906D01*
Y036740D01*
X037037Y036698D01*
X037120D01*
X037162Y036740D01*
Y036906D01*
X037120Y036948D01*
X037245D02*
Y036740D01*
X037287Y036698D01*
X037370D01*
X037412Y036740D01*
Y036948D01*
X037495D02*
X037662D01*
X037579D01*
Y036698D01*
X039474Y038406D02*
Y038239D01*
X039557Y038156D01*
X039641Y038239D01*
Y038406D01*
X039724D02*
Y038156D01*
X039849D01*
X039891Y038198D01*
Y038364D01*
X039849Y038406D01*
X039724D01*
X039974D02*
Y038156D01*
X040099D01*
X040140Y038198D01*
Y038364D01*
X040099Y038406D01*
X039974D01*
X040224D02*
Y038156D01*
X040349D01*
X040390Y038198D01*
Y038364D01*
X040349Y038406D01*
X040224D01*
X040474Y038114D02*
X040640D01*
X040849Y038406D02*
X040765D01*
X040724Y038364D01*
Y038198D01*
X040765Y038156D01*
X040849D01*
X040890Y038198D01*
Y038364D01*
X040849Y038406D01*
X040974D02*
Y038198D01*
X041015Y038156D01*
X041098D01*
X041140Y038198D01*
Y038406D01*
X041223D02*
X041390D01*
X041307D01*
Y038156D01*
X034063Y037393D02*
Y037226D01*
X034146Y037143D01*
X034230Y037226D01*
Y037393D01*
X034313D02*
Y037143D01*
X034438D01*
X034480Y037185D01*
Y037351D01*
X034438Y037393D01*
X034313D01*
X034563D02*
Y037143D01*
X034688D01*
X034729Y037185D01*
Y037351D01*
X034688Y037393D01*
X034563D01*
X034813D02*
Y037143D01*
X034938D01*
X034979Y037185D01*
Y037351D01*
X034938Y037393D01*
X034813D01*
X035063Y037101D02*
X035229D01*
X035438Y037393D02*
X035354D01*
X035313Y037351D01*
Y037185D01*
X035354Y037143D01*
X035438D01*
X035479Y037185D01*
Y037351D01*
X035438Y037393D01*
X035563D02*
Y037185D01*
X035604Y037143D01*
X035687D01*
X035729Y037185D01*
Y037393D01*
X035812D02*
X035979D01*
X035896D01*
Y037143D01*
X039357Y039022D02*
X039391Y039055D01*
X039457D01*
X039491Y039022D01*
Y038988D01*
X039457Y038955D01*
X039491Y038922D01*
Y038888D01*
X039457Y038855D01*
X039391D01*
X039357Y038888D01*
Y038922D01*
X039391Y038955D01*
X039357Y038988D01*
Y039022D01*
X039391Y038955D02*
X039457D01*
X039357Y038055D02*
X039491D01*
Y038022D01*
X039357Y037888D01*
Y037855D01*
X034957D02*
X035024D01*
X034991D01*
Y038055D01*
X034957Y038022D01*
X034891Y038855D02*
X034757D01*
X034891Y038988D01*
Y039022D01*
X034857Y039055D01*
X034791D01*
X034757Y039022D01*
X031749Y033398D02*
Y033331D01*
Y033365D01*
X031949D01*
X031916Y033398D01*
X032898Y033305D02*
Y033438D01*
X033031Y033305D01*
X033065D01*
X033098Y033338D01*
Y033405D01*
X033065Y033438D01*
X032749Y030898D02*
X032949D01*
X032849Y030998D01*
Y030865D01*
X031916Y030998D02*
X031949Y030965D01*
Y030898D01*
X031916Y030865D01*
X031882D01*
X031849Y030898D01*
Y030931D01*
Y030898D01*
X031816Y030865D01*
X031782D01*
X031749Y030898D01*
Y030965D01*
X031782Y030998D01*
X040760Y036390D02*
Y036223D01*
X040793Y036190D01*
X040860D01*
X040893Y036223D01*
Y036390D01*
X041093Y036190D02*
X040960D01*
X041093Y036323D01*
Y036357D01*
X041060Y036390D01*
X040993D01*
X040960Y036357D01*
X041810Y024790D02*
Y024623D01*
X041843Y024590D01*
X041910D01*
X041943Y024623D01*
Y024790D01*
X042143D02*
X042077Y024757D01*
X042010Y024690D01*
Y024623D01*
X042043Y024590D01*
X042110D01*
X042143Y024623D01*
Y024657D01*
X042110Y024690D01*
X042010D01*
X041365Y022198D02*
X041332Y022231D01*
X041265D01*
X041232Y022198D01*
Y022064D01*
X041265Y022031D01*
X041332D01*
X041365Y022064D01*
X041565Y022031D02*
X041432D01*
X041565Y022164D01*
Y022198D01*
X041532Y022231D01*
X041465D01*
X041432Y022198D01*
X041732Y022031D02*
Y022231D01*
X041632Y022131D01*
X041765D01*
X045717Y022246D02*
X045684Y022279D01*
X045617D01*
X045584Y022246D01*
Y022112D01*
X045617Y022079D01*
X045684D01*
X045717Y022112D01*
X045784Y022079D02*
X045851D01*
X045817D01*
Y022279D01*
X045784Y022246D01*
X046084Y022279D02*
X046017Y022246D01*
X045951Y022179D01*
Y022112D01*
X045984Y022079D01*
X046051D01*
X046084Y022112D01*
Y022146D01*
X046051Y022179D01*
X045951D01*
X039807Y039694D02*
Y039894D01*
X039907D01*
X039940Y039861D01*
Y039794D01*
X039907Y039761D01*
X039807D01*
X040007Y039861D02*
X040040Y039894D01*
X040107D01*
X040140Y039861D01*
Y039827D01*
X040107Y039794D01*
X040140Y039761D01*
Y039727D01*
X040107Y039694D01*
X040040D01*
X040007Y039727D01*
Y039761D01*
X040040Y039794D01*
X040007Y039827D01*
Y039861D01*
X040040Y039794D02*
X040107D01*
X044970Y036740D02*
Y036940D01*
X045070D01*
X045103Y036907D01*
Y036840D01*
X045070Y036807D01*
X044970D01*
X045303Y036940D02*
X045237Y036907D01*
X045170Y036840D01*
Y036773D01*
X045203Y036740D01*
X045270D01*
X045303Y036773D01*
Y036807D01*
X045270Y036840D01*
X045170D01*
X030492Y021149D02*
Y021349D01*
X030592D01*
X030625Y021316D01*
Y021249D01*
X030592Y021216D01*
X030492D01*
X030692Y021349D02*
X030825D01*
Y021316D01*
X030692Y021182D01*
Y021149D01*
X034054Y025912D02*
Y025745D01*
X034087Y025712D01*
X034154D01*
X034187Y025745D01*
Y025912D01*
X034254Y025745D02*
X034287Y025712D01*
X034354D01*
X034387Y025745D01*
Y025879D01*
X034354Y025912D01*
X034287D01*
X034254Y025879D01*
Y025845D01*
X034287Y025812D01*
X034387D01*
X036675Y030071D02*
Y029904D01*
X036708Y029871D01*
X036775D01*
X036808Y029904D01*
Y030071D01*
X036875Y030038D02*
X036908Y030071D01*
X036975D01*
X037008Y030038D01*
Y030004D01*
X036975Y029971D01*
X037008Y029938D01*
Y029904D01*
X036975Y029871D01*
X036908D01*
X036875Y029904D01*
Y029938D01*
X036908Y029971D01*
X036875Y030004D01*
Y030038D01*
X036908Y029971D02*
X036975D01*
X037360Y026140D02*
Y025973D01*
X037393Y025940D01*
X037460D01*
X037493Y025973D01*
Y026140D01*
X037560D02*
X037693D01*
Y026107D01*
X037560Y025973D01*
Y025940D01*
X028335Y030382D02*
Y030215D01*
X028368Y030182D01*
X028435D01*
X028468Y030215D01*
Y030382D01*
X028668D02*
X028535D01*
Y030282D01*
X028602Y030315D01*
X028635D01*
X028668Y030282D01*
Y030215D01*
X028635Y030182D01*
X028568D01*
X028535Y030215D01*
X044190Y024790D02*
Y024623D01*
X044223Y024590D01*
X044290D01*
X044323Y024623D01*
Y024790D01*
X044490Y024590D02*
Y024790D01*
X044390Y024690D01*
X044523D01*
X028481Y025265D02*
Y025098D01*
X028514Y025065D01*
X028581D01*
X028614Y025098D01*
Y025265D01*
X028681Y025065D02*
X028748D01*
X028714D01*
Y025265D01*
X028681Y025232D01*
X028407Y033250D02*
Y033083D01*
X028440Y033050D01*
X028507D01*
X028540Y033083D01*
Y033250D01*
X028607Y033217D02*
X028640Y033250D01*
X028707D01*
X028740Y033217D01*
Y033183D01*
X028707Y033150D01*
X028674D01*
X028707D01*
X028740Y033117D01*
Y033083D01*
X028707Y033050D01*
X028640D01*
X028607Y033083D01*
X036618Y036062D02*
Y036262D01*
X036718D01*
X036751Y036229D01*
Y036162D01*
X036718Y036129D01*
X036618D01*
X036685D02*
X036751Y036062D01*
X036951Y036262D02*
X036818D01*
Y036162D01*
X036885D01*
X036818D01*
Y036062D01*
X037018Y036029D02*
X037151D01*
X037318Y036262D02*
X037251D01*
X037218Y036229D01*
Y036095D01*
X037251Y036062D01*
X037318D01*
X037351Y036095D01*
Y036229D01*
X037318Y036262D01*
X037418D02*
Y036095D01*
X037451Y036062D01*
X037518D01*
X037551Y036095D01*
Y036262D01*
X037618D02*
X037751D01*
X037684D01*
Y036062D01*
X037818D02*
X037884D01*
X037851D01*
Y036262D01*
X037818Y036229D01*
X027320Y039690D02*
Y039890D01*
X027420D01*
X027453Y039857D01*
Y039790D01*
X027420Y039757D01*
X027320D01*
X027520Y039723D02*
X027553Y039690D01*
X027620D01*
X027653Y039723D01*
Y039857D01*
X027620Y039890D01*
X027553D01*
X027520Y039857D01*
Y039823D01*
X027553Y039790D01*
X027653D01*
X027320Y028370D02*
Y028570D01*
X027420D01*
X027453Y028537D01*
Y028470D01*
X027420Y028437D01*
X027320D01*
X027653Y028570D02*
X027520D01*
Y028470D01*
X027587Y028503D01*
X027620D01*
X027653Y028470D01*
Y028403D01*
X027620Y028370D01*
X027553D01*
X027520Y028403D01*
X027320Y023550D02*
Y023750D01*
X027420D01*
X027453Y023717D01*
Y023650D01*
X027420Y023617D01*
X027320D01*
X027653Y023550D02*
X027520D01*
X027653Y023683D01*
Y023717D01*
X027620Y023750D01*
X027553D01*
X027520Y023717D01*
X027320Y037420D02*
Y037620D01*
X027420D01*
X027453Y037587D01*
Y037520D01*
X027420Y037487D01*
X027320D01*
X027520Y037587D02*
X027553Y037620D01*
X027620D01*
X027653Y037587D01*
Y037553D01*
X027620Y037520D01*
X027587D01*
X027620D01*
X027653Y037487D01*
Y037453D01*
X027620Y037420D01*
X027553D01*
X027520Y037453D01*
X031460Y033900D02*
Y034100D01*
X031560D01*
X031593Y034067D01*
Y034000D01*
X031560Y033967D01*
X031460D01*
X031760Y033900D02*
Y034100D01*
X031660Y034000D01*
X031793D01*
X034835Y039577D02*
Y039827D01*
X034960D01*
X035002Y039785D01*
Y039702D01*
X034960Y039660D01*
X034835D01*
X035085Y039577D02*
X035168D01*
X035127D01*
Y039827D01*
X035085Y039785D01*
X032553Y024047D02*
X032520Y024080D01*
X032453D01*
X032420Y024047D01*
Y023913D01*
X032453Y023880D01*
X032520D01*
X032553Y023913D01*
X032753Y023880D02*
X032620D01*
X032753Y024013D01*
Y024047D01*
X032720Y024080D01*
X032653D01*
X032620Y024047D01*
X032820Y023913D02*
X032853Y023880D01*
X032920D01*
X032953Y023913D01*
Y024047D01*
X032920Y024080D01*
X032853D01*
X032820Y024047D01*
Y024013D01*
X032853Y023980D01*
X032953D01*
X036206Y026790D02*
X036173Y026823D01*
X036106D01*
X036073Y026790D01*
Y026656D01*
X036106Y026623D01*
X036173D01*
X036206Y026656D01*
X036406Y026623D02*
X036273D01*
X036406Y026756D01*
Y026790D01*
X036373Y026823D01*
X036306D01*
X036273Y026790D01*
X036473D02*
X036506Y026823D01*
X036573D01*
X036606Y026790D01*
Y026756D01*
X036573Y026723D01*
X036606Y026690D01*
Y026656D01*
X036573Y026623D01*
X036506D01*
X036473Y026656D01*
Y026690D01*
X036506Y026723D01*
X036473Y026756D01*
Y026790D01*
X036506Y026723D02*
X036573D01*
X040473Y024047D02*
X040440Y024080D01*
X040373D01*
X040340Y024047D01*
Y023913D01*
X040373Y023880D01*
X040440D01*
X040473Y023913D01*
X040673Y023880D02*
X040540D01*
X040673Y024013D01*
Y024047D01*
X040640Y024080D01*
X040573D01*
X040540Y024047D01*
X040740Y024080D02*
X040873D01*
Y024047D01*
X040740Y023913D01*
Y023880D01*
X039053Y026619D02*
X039020Y026652D01*
X038953D01*
X038920Y026619D01*
Y026485D01*
X038953Y026452D01*
X039020D01*
X039053Y026485D01*
X039253Y026452D02*
X039120D01*
X039253Y026585D01*
Y026619D01*
X039220Y026652D01*
X039153D01*
X039120Y026619D01*
X039453Y026652D02*
X039387Y026619D01*
X039320Y026552D01*
Y026485D01*
X039353Y026452D01*
X039420D01*
X039453Y026485D01*
Y026519D01*
X039420Y026552D01*
X039320D01*
X042053Y026367D02*
X042020Y026400D01*
X041953D01*
X041920Y026367D01*
Y026233D01*
X041953Y026200D01*
X042020D01*
X042053Y026233D01*
X042253Y026200D02*
X042120D01*
X042253Y026333D01*
Y026367D01*
X042220Y026400D01*
X042153D01*
X042120Y026367D01*
X042453Y026400D02*
X042320D01*
Y026300D01*
X042387Y026333D01*
X042420D01*
X042453Y026300D01*
Y026233D01*
X042420Y026200D01*
X042353D01*
X042320Y026233D01*
X034217Y028455D02*
X034184Y028488D01*
X034117D01*
X034084Y028455D01*
Y028321D01*
X034117Y028288D01*
X034184D01*
X034217Y028321D01*
X034417Y028288D02*
X034284D01*
X034417Y028421D01*
Y028455D01*
X034384Y028488D01*
X034317D01*
X034284Y028455D01*
X034484D02*
X034517Y028488D01*
X034584D01*
X034617Y028455D01*
Y028421D01*
X034584Y028388D01*
X034551D01*
X034584D01*
X034617Y028355D01*
Y028321D01*
X034584Y028288D01*
X034517D01*
X034484Y028321D01*
X034219Y030313D02*
X034186Y030346D01*
X034119D01*
X034086Y030313D01*
Y030179D01*
X034119Y030146D01*
X034186D01*
X034219Y030179D01*
X034419Y030146D02*
X034286D01*
X034419Y030279D01*
Y030313D01*
X034386Y030346D01*
X034319D01*
X034286Y030313D01*
X034619Y030146D02*
X034486D01*
X034619Y030279D01*
Y030313D01*
X034586Y030346D01*
X034519D01*
X034486Y030313D01*
X032173Y028427D02*
X032140Y028460D01*
X032073D01*
X032040Y028427D01*
Y028293D01*
X032073Y028260D01*
X032140D01*
X032173Y028293D01*
X032373Y028260D02*
X032240D01*
X032373Y028393D01*
Y028427D01*
X032340Y028460D01*
X032273D01*
X032240Y028427D01*
X032440Y028260D02*
X032507D01*
X032473D01*
Y028460D01*
X032440Y028427D01*
X030271Y031242D02*
X030238Y031275D01*
X030171D01*
X030138Y031242D01*
Y031108D01*
X030171Y031075D01*
X030238D01*
X030271Y031108D01*
X030471Y031075D02*
X030338D01*
X030471Y031208D01*
Y031242D01*
X030438Y031275D01*
X030371D01*
X030338Y031242D01*
X030538D02*
X030571Y031275D01*
X030638D01*
X030671Y031242D01*
Y031108D01*
X030638Y031075D01*
X030571D01*
X030538Y031108D01*
Y031242D01*
X030553Y030147D02*
X030520Y030180D01*
X030453D01*
X030420Y030147D01*
Y030013D01*
X030453Y029980D01*
X030520D01*
X030553Y030013D01*
X030620Y029980D02*
X030687D01*
X030653D01*
Y030180D01*
X030620Y030147D01*
X030787Y030013D02*
X030820Y029980D01*
X030887D01*
X030920Y030013D01*
Y030147D01*
X030887Y030180D01*
X030820D01*
X030787Y030147D01*
Y030113D01*
X030820Y030080D01*
X030920D01*
X028326Y031487D02*
X028293Y031520D01*
X028226D01*
X028193Y031487D01*
Y031353D01*
X028226Y031320D01*
X028293D01*
X028326Y031353D01*
X028393Y031320D02*
X028460D01*
X028426D01*
Y031520D01*
X028393Y031487D01*
X028560D02*
X028593Y031520D01*
X028660D01*
X028693Y031487D01*
Y031453D01*
X028660Y031420D01*
X028693Y031387D01*
Y031353D01*
X028660Y031320D01*
X028593D01*
X028560Y031353D01*
Y031387D01*
X028593Y031420D01*
X028560Y031453D01*
Y031487D01*
X028593Y031420D02*
X028660D01*
X044413Y026367D02*
X044380Y026400D01*
X044313D01*
X044280Y026367D01*
Y026233D01*
X044313Y026200D01*
X044380D01*
X044413Y026233D01*
X044480Y026200D02*
X044547D01*
X044513D01*
Y026400D01*
X044480Y026367D01*
X044647Y026400D02*
X044780D01*
Y026367D01*
X044647Y026233D01*
Y026200D01*
X042093Y033327D02*
X042060Y033360D01*
X041993D01*
X041960Y033327D01*
Y033193D01*
X041993Y033160D01*
X042060D01*
X042093Y033193D01*
X042293Y033360D02*
X042227Y033327D01*
X042160Y033260D01*
Y033193D01*
X042193Y033160D01*
X042260D01*
X042293Y033193D01*
Y033227D01*
X042260Y033260D01*
X042160D01*
X042093Y037447D02*
X042060Y037480D01*
X041993D01*
X041960Y037447D01*
Y037313D01*
X041993Y037280D01*
X042060D01*
X042093Y037313D01*
X042293Y037480D02*
X042160D01*
Y037380D01*
X042227Y037413D01*
X042260D01*
X042293Y037380D01*
Y037313D01*
X042260Y037280D01*
X042193D01*
X042160Y037313D01*
X032943Y038847D02*
X032910Y038880D01*
X032843D01*
X032810Y038847D01*
Y038713D01*
X032843Y038680D01*
X032910D01*
X032943Y038713D01*
X033110Y038680D02*
Y038880D01*
X033010Y038780D01*
X033143D01*
X030539Y026373D02*
X030506Y026406D01*
X030439D01*
X030406Y026373D01*
Y026239D01*
X030439Y026206D01*
X030506D01*
X030539Y026239D01*
X030606Y026373D02*
X030639Y026406D01*
X030706D01*
X030739Y026373D01*
Y026339D01*
X030706Y026306D01*
X030673D01*
X030706D01*
X030739Y026273D01*
Y026239D01*
X030706Y026206D01*
X030639D01*
X030606Y026239D01*
X031343Y024637D02*
X031310Y024670D01*
X031243D01*
X031210Y024637D01*
Y024503D01*
X031243Y024470D01*
X031310D01*
X031343Y024503D01*
X031543Y024470D02*
X031410D01*
X031543Y024603D01*
Y024637D01*
X031510Y024670D01*
X031443D01*
X031410Y024637D01*
X028437Y026310D02*
X028404Y026343D01*
X028337D01*
X028304Y026310D01*
Y026176D01*
X028337Y026143D01*
X028404D01*
X028437Y026176D01*
X028504Y026143D02*
X028571D01*
X028537D01*
Y026343D01*
X028504Y026310D01*
X044079Y031420D02*
X044046Y031453D01*
X043979D01*
X043946Y031420D01*
Y031286D01*
X043979Y031253D01*
X044046D01*
X044079Y031286D01*
X044146Y031453D02*
X044279D01*
Y031420D01*
X044146Y031286D01*
Y031253D01*
X034473Y031190D02*
X034440Y031223D01*
X034373D01*
X034340Y031190D01*
Y031056D01*
X034373Y031023D01*
X034440D01*
X034473Y031056D01*
X034540D02*
X034573Y031023D01*
X034640D01*
X034673Y031056D01*
Y031190D01*
X034640Y031223D01*
X034573D01*
X034540Y031190D01*
Y031156D01*
X034573Y031123D01*
X034673D01*
X032903Y035167D02*
X032870Y035200D01*
X032803D01*
X032770Y035167D01*
Y035033D01*
X032803Y035000D01*
X032870D01*
X032903Y035033D01*
X032970Y035000D02*
X033037D01*
X033003D01*
Y035200D01*
X032970Y035167D01*
X033270Y035200D02*
X033137D01*
Y035100D01*
X033203Y035133D01*
X033237D01*
X033270Y035100D01*
Y035033D01*
X033237Y035000D01*
X033170D01*
X033137Y035033D01*
X029723Y035297D02*
X029690Y035330D01*
X029623D01*
X029590Y035297D01*
Y035163D01*
X029623Y035130D01*
X029690D01*
X029723Y035163D01*
X029790Y035130D02*
X029857D01*
X029823D01*
Y035330D01*
X029790Y035297D01*
X030057Y035130D02*
Y035330D01*
X029957Y035230D01*
X030090D01*
X030513Y033177D02*
X030480Y033210D01*
X030413D01*
X030380Y033177D01*
Y033043D01*
X030413Y033010D01*
X030480D01*
X030513Y033043D01*
X030580Y033010D02*
X030647D01*
X030613D01*
Y033210D01*
X030580Y033177D01*
X030747D02*
X030780Y033210D01*
X030847D01*
X030880Y033177D01*
Y033143D01*
X030847Y033110D01*
X030813D01*
X030847D01*
X030880Y033077D01*
Y033043D01*
X030847Y033010D01*
X030780D01*
X030747Y033043D01*
X028943Y035297D02*
X028910Y035330D01*
X028843D01*
X028810Y035297D01*
Y035163D01*
X028843Y035130D01*
X028910D01*
X028943Y035163D01*
X029010Y035130D02*
X029077D01*
X029043D01*
Y035330D01*
X029010Y035297D01*
X029310Y035130D02*
X029177D01*
X029310Y035263D01*
Y035297D01*
X029277Y035330D01*
X029210D01*
X029177Y035297D01*
X034467Y030748D02*
X034434Y030781D01*
X034367D01*
X034334Y030748D01*
Y030614D01*
X034367Y030581D01*
X034434D01*
X034467Y030614D01*
X034534Y030748D02*
X034567Y030781D01*
X034634D01*
X034667Y030748D01*
Y030714D01*
X034634Y030681D01*
X034667Y030648D01*
Y030614D01*
X034634Y030581D01*
X034567D01*
X034534Y030614D01*
Y030648D01*
X034567Y030681D01*
X034534Y030714D01*
Y030748D01*
X034567Y030681D02*
X034634D01*
X034346Y032067D02*
X034313Y032100D01*
X034246D01*
X034213Y032067D01*
Y031933D01*
X034246Y031900D01*
X034313D01*
X034346Y031933D01*
X034413Y031900D02*
X034480D01*
X034446D01*
Y032100D01*
X034413Y032067D01*
X034580Y031900D02*
X034646D01*
X034613D01*
Y032100D01*
X034580Y032067D01*
X034259Y031642D02*
X034226Y031675D01*
X034159D01*
X034126Y031642D01*
Y031508D01*
X034159Y031475D01*
X034226D01*
X034259Y031508D01*
X034326Y031475D02*
X034392D01*
X034359D01*
Y031675D01*
X034326Y031642D01*
X034492D02*
X034526Y031675D01*
X034592D01*
X034625Y031642D01*
Y031508D01*
X034592Y031475D01*
X034526D01*
X034492Y031508D01*
Y031642D01*
M02*
