G04*
G04 #@! TF.GenerationSoftware,Altium Limited,Altium Designer,18.0.9 (584)*
G04*
G04 Layer_Physical_Order=1*
G04 Layer_Color=255*
%FSAX24Y24*%
%MOIN*%
G70*
G01*
G75*
%ADD13C,0.0100*%
%ADD19R,0.0580X0.0220*%
%ADD20R,0.0283X0.0283*%
%ADD21R,0.0197X0.0236*%
G04:AMPARAMS|DCode=22|XSize=15.7mil|YSize=25.6mil|CornerRadius=2mil|HoleSize=0mil|Usage=FLASHONLY|Rotation=90.000|XOffset=0mil|YOffset=0mil|HoleType=Round|Shape=RoundedRectangle|*
%AMROUNDEDRECTD22*
21,1,0.0157,0.0217,0,0,90.0*
21,1,0.0118,0.0256,0,0,90.0*
1,1,0.0039,0.0108,0.0059*
1,1,0.0039,0.0108,-0.0059*
1,1,0.0039,-0.0108,-0.0059*
1,1,0.0039,-0.0108,0.0059*
%
%ADD22ROUNDEDRECTD22*%
%ADD23R,0.0354X0.0315*%
%ADD24R,0.0560X0.0140*%
%ADD25R,0.0140X0.0560*%
%ADD26R,0.0236X0.0197*%
G04:AMPARAMS|DCode=27|XSize=15.7mil|YSize=33.5mil|CornerRadius=3.9mil|HoleSize=0mil|Usage=FLASHONLY|Rotation=180.000|XOffset=0mil|YOffset=0mil|HoleType=Round|Shape=RoundedRectangle|*
%AMROUNDEDRECTD27*
21,1,0.0157,0.0256,0,0,180.0*
21,1,0.0079,0.0335,0,0,180.0*
1,1,0.0079,-0.0039,0.0128*
1,1,0.0079,0.0039,0.0128*
1,1,0.0079,0.0039,-0.0128*
1,1,0.0079,-0.0039,-0.0128*
%
%ADD27ROUNDEDRECTD27*%
%ADD28R,0.0315X0.0354*%
%ADD50C,0.0300*%
%ADD54R,0.0030X0.0350*%
%ADD55R,0.0030X0.0240*%
%ADD56C,0.0200*%
%ADD57C,0.0030*%
%ADD58C,0.0500*%
%ADD59C,0.1000*%
%ADD60R,0.0591X0.0591*%
%ADD61C,0.0591*%
%ADD62C,0.0866*%
%ADD63R,0.0591X0.0591*%
%ADD64C,0.0610*%
%ADD65R,0.0610X0.0610*%
%ADD66C,0.0200*%
%ADD67C,0.0500*%
%ADD68C,0.0150*%
%ADD69C,0.0220*%
%ADD70C,0.0090*%
%ADD71C,0.1200*%
G36*
X035507Y039684D02*
X035473Y039656D01*
X035443Y039620D01*
X032302D01*
X032214Y039667D01*
X032158Y039684D01*
X032165Y039734D01*
X035489D01*
X035507Y039684D01*
D02*
G37*
G36*
X043434Y039468D02*
X043447Y039458D01*
X043485Y039433D01*
X043608Y039361D01*
X043693Y039315D01*
X043306Y039217D01*
X043323Y039245D01*
X043337Y039271D01*
X043347Y039296D01*
X043354Y039320D01*
X043358Y039342D01*
X043359Y039363D01*
X043356Y039382D01*
X043350Y039400D01*
X043340Y039417D01*
X043328Y039432D01*
X043425Y039476D01*
X043434Y039468D01*
D02*
G37*
G36*
X040260Y038955D02*
X040259Y038965D01*
X040256Y038973D01*
X040251Y038981D01*
X040244Y038987D01*
X040235Y038993D01*
X040223Y038997D01*
X040210Y039001D01*
X040195Y039003D01*
X040178Y039005D01*
X040159Y039005D01*
Y039105D01*
X040178Y039106D01*
X040195Y039107D01*
X040210Y039110D01*
X040223Y039113D01*
X040235Y039118D01*
X040244Y039123D01*
X040251Y039130D01*
X040256Y039137D01*
X040259Y039146D01*
X040260Y039155D01*
Y038955D01*
D02*
G37*
G36*
X042550Y038760D02*
X042507Y038760D01*
X042431Y038754D01*
X042398Y038750D01*
X042367Y038743D01*
X042339Y038735D01*
X042314Y038726D01*
X042292Y038715D01*
X042273Y038703D01*
X042257Y038689D01*
X042186Y038759D01*
X042200Y038776D01*
X042213Y038795D01*
X042224Y038817D01*
X042233Y038841D01*
X042241Y038869D01*
X042247Y038900D01*
X042252Y038934D01*
X042257Y039010D01*
X042257Y039052D01*
X042550Y038760D01*
D02*
G37*
G36*
X041550D02*
X041507Y038760D01*
X041431Y038754D01*
X041398Y038750D01*
X041367Y038743D01*
X041339Y038735D01*
X041314Y038726D01*
X041292Y038715D01*
X041273Y038703D01*
X041257Y038689D01*
X041186Y038759D01*
X041200Y038776D01*
X041213Y038795D01*
X041224Y038817D01*
X041233Y038841D01*
X041241Y038869D01*
X041247Y038900D01*
X041252Y038934D01*
X041257Y039010D01*
X041257Y039052D01*
X041550Y038760D01*
D02*
G37*
G36*
X040157Y038660D02*
X040157D01*
X040149Y038613D01*
X039170D01*
X039151Y038660D01*
X039394Y038902D01*
X040157D01*
Y038660D01*
D02*
G37*
G36*
X046177Y020218D02*
X046149Y020190D01*
X026911D01*
X026910Y022869D01*
X026960Y022882D01*
X026996Y022815D01*
X027071Y022723D01*
X027520Y022274D01*
X027611Y022199D01*
X027716Y022143D01*
X027829Y022109D01*
X027946Y022097D01*
X028064Y022109D01*
X028177Y022143D01*
X028281Y022199D01*
X028373Y022274D01*
X028448Y022365D01*
X028503Y022469D01*
X028523Y022533D01*
X028576Y022536D01*
X028593Y022496D01*
X028658Y022411D01*
X028742Y022346D01*
X028841Y022305D01*
X028946Y022291D01*
X029052Y022305D01*
X029151Y022346D01*
X029235Y022411D01*
X029300Y022496D01*
X029341Y022594D01*
X029355Y022700D01*
X029341Y022806D01*
X029300Y022904D01*
X029253Y022966D01*
X029250Y022971D01*
X029240Y022983D01*
X029235Y022989D01*
X029234Y022990D01*
X029232Y022993D01*
X029217Y023012D01*
X029205Y023031D01*
X029195Y023050D01*
X029186Y023068D01*
X029179Y023087D01*
X029174Y023106D01*
X029170Y023125D01*
X029169Y023135D01*
Y023814D01*
X029170Y023829D01*
X029173Y023850D01*
X029177Y023865D01*
X029179Y023869D01*
X029355D01*
Y024239D01*
Y024464D01*
X029400Y024483D01*
X029405Y024482D01*
X029478Y024392D01*
X029544Y024339D01*
X029526Y024289D01*
X029515D01*
Y023869D01*
X030295D01*
Y023875D01*
X031123D01*
Y023757D01*
X031123Y023744D01*
Y023707D01*
X031123Y023694D01*
Y023500D01*
X031400D01*
X031677D01*
Y023694D01*
X031677Y023707D01*
Y023744D01*
X031677Y023757D01*
Y024216D01*
X032500D01*
X032520Y024199D01*
X032642Y024134D01*
X032774Y024094D01*
X032911Y024081D01*
X033048Y024094D01*
X033180Y024134D01*
X033197Y024143D01*
X033198Y024143D01*
X033231Y024157D01*
X033265Y024169D01*
X033301Y024179D01*
X033386Y024197D01*
X033430Y024203D01*
X033586Y024214D01*
X038461D01*
X038492Y024218D01*
X040160D01*
X040251Y024230D01*
X040337Y024265D01*
X040410Y024321D01*
X040466Y024394D01*
X040501Y024480D01*
X040513Y024571D01*
X040501Y024662D01*
X040466Y024748D01*
X040410Y024821D01*
X040337Y024877D01*
X040251Y024912D01*
X040160Y024924D01*
X039529D01*
Y025178D01*
X039548Y025206D01*
X039563Y025284D01*
Y026862D01*
X039609Y026881D01*
X041770Y024721D01*
Y024075D01*
X041786Y023997D01*
X041793Y023986D01*
Y023947D01*
X041803Y023892D01*
X041834Y023846D01*
X041880Y023816D01*
X041935Y023805D01*
X042013D01*
X042068Y023816D01*
X042102Y023838D01*
X042136Y023816D01*
X042180Y023807D01*
Y024075D01*
X042277D01*
X042280Y024061D01*
Y023807D01*
X042324Y023816D01*
X042358Y023838D01*
X042392Y023816D01*
X042446Y023805D01*
X042525D01*
X042580Y023816D01*
X042626Y023846D01*
X042656Y023892D01*
X042667Y023947D01*
Y024001D01*
X042668Y024003D01*
X042684Y024081D01*
Y024279D01*
X042772Y024367D01*
X042816Y024433D01*
X042817Y024434D01*
X042838Y024458D01*
X042878Y024488D01*
X042934Y024561D01*
X042969Y024647D01*
X042981Y024738D01*
X042969Y024829D01*
X042934Y024915D01*
X042878Y024988D01*
X042871Y024993D01*
X042862Y025002D01*
X042855Y025011D01*
X042848Y025020D01*
X042843Y025031D01*
X042838Y025042D01*
X042834Y025054D01*
X042830Y025068D01*
X042828Y025084D01*
X042828Y025087D01*
Y025316D01*
X042829Y025344D01*
X042829Y025349D01*
X042865D01*
Y025446D01*
X042866Y025450D01*
X042865Y025454D01*
Y025832D01*
X042280D01*
Y025591D01*
X042230D01*
Y025541D01*
X041988D01*
Y025454D01*
X041987Y025450D01*
X041988Y025446D01*
Y025349D01*
X042023D01*
X042026Y025308D01*
Y025107D01*
X041980Y025088D01*
X041079Y025988D01*
X041088Y026017D01*
X041102Y026036D01*
X043137D01*
X044152Y025021D01*
Y024075D01*
X044168Y023997D01*
X044174Y023986D01*
Y023947D01*
X044185Y023892D01*
X044216Y023846D01*
X044262Y023816D01*
X044317Y023805D01*
X044395D01*
X044450Y023816D01*
X044484Y023838D01*
X044518Y023816D01*
X044562Y023807D01*
Y024075D01*
X044662D01*
Y023807D01*
X044706Y023816D01*
X044740Y023838D01*
X044774Y023816D01*
X044828Y023805D01*
X044907D01*
X044961Y023816D01*
X045008Y023846D01*
X045038Y023892D01*
X045049Y023947D01*
Y023968D01*
X045130Y024049D01*
X045174Y024115D01*
X045190Y024193D01*
Y024587D01*
X045190Y024589D01*
X045192Y024605D01*
X045196Y024620D01*
X045200Y024634D01*
X045205Y024647D01*
X045210Y024658D01*
X045217Y024670D01*
X045224Y024680D01*
X045234Y024693D01*
X045238Y024700D01*
X045273Y024745D01*
X045308Y024831D01*
X045320Y024922D01*
X045308Y025013D01*
X045273Y025099D01*
X045238Y025144D01*
X045234Y025151D01*
X045224Y025164D01*
X045217Y025174D01*
X045210Y025185D01*
X045205Y025197D01*
X045200Y025210D01*
X045196Y025224D01*
X045192Y025239D01*
X045190Y025255D01*
X045190Y025257D01*
Y025316D01*
X045191Y025344D01*
X045192Y025349D01*
X045228D01*
Y025446D01*
X045228Y025450D01*
X045228Y025454D01*
Y025832D01*
X044642D01*
Y025591D01*
X044592D01*
Y025541D01*
X044350D01*
Y025464D01*
X044304Y025445D01*
X043365Y026384D01*
X043299Y026428D01*
X043221Y026444D01*
X041178D01*
X040053Y027569D01*
X040049Y027575D01*
X039983Y027619D01*
X039905Y027635D01*
X039900Y027634D01*
X039899Y027634D01*
X039891Y027637D01*
X039881Y027642D01*
X039868Y027649D01*
X039853Y027659D01*
X039837Y027670D01*
X039797Y027705D01*
X039788Y027713D01*
X038660Y028842D01*
X038628Y028876D01*
X038628D01*
X038628Y028876D01*
Y030146D01*
X038872D01*
X038909Y030109D01*
X039044D01*
X039043Y030111D01*
X039041Y030117D01*
X039038Y030123D01*
X039034Y030128D01*
X039031Y030132D01*
X039052Y030153D01*
X039056Y030150D01*
X039061Y030146D01*
X039067Y030143D01*
X039073Y030141D01*
X039080Y030139D01*
X039087Y030137D01*
X039096Y030136D01*
X039105Y030135D01*
X039124Y030134D01*
X039099Y030109D01*
X039293D01*
X039290Y030127D01*
X039259Y030174D01*
X039295Y030210D01*
X039316Y030196D01*
X039394Y030180D01*
X043502D01*
X043580Y030196D01*
X043646Y030240D01*
X044148Y030742D01*
X044289D01*
Y030605D01*
X044487D01*
X044685D01*
Y030745D01*
X045118D01*
X045175Y030671D01*
X045258Y030607D01*
X045354Y030568D01*
X045457Y030554D01*
X045560Y030568D01*
X045656Y030607D01*
X045739Y030671D01*
X045802Y030753D01*
X045842Y030850D01*
X045856Y030953D01*
X045842Y031056D01*
X045802Y031152D01*
X045739Y031235D01*
X045656Y031298D01*
X045560Y031338D01*
X045457Y031351D01*
X045354Y031338D01*
X045258Y031298D01*
X045175Y031235D01*
X045112Y031153D01*
X044685D01*
Y031167D01*
X044289D01*
Y031150D01*
X044064D01*
X043986Y031134D01*
X043920Y031090D01*
X043418Y030588D01*
X039394D01*
X039316Y030572D01*
X039250Y030528D01*
X039230Y030498D01*
X038628D01*
Y030672D01*
X038647Y030689D01*
X038663Y030700D01*
X038678Y030710D01*
X038691Y030717D01*
X038701Y030722D01*
X038709Y030725D01*
X038710Y030725D01*
X038715Y030724D01*
X038793Y030740D01*
X038859Y030784D01*
X040624Y032549D01*
X040668Y032615D01*
X040684Y032693D01*
Y033479D01*
X040895Y033689D01*
X041119D01*
X041197Y033705D01*
X041225Y033723D01*
X041499D01*
Y033983D01*
Y034243D01*
Y034491D01*
X041556Y034529D01*
X041821Y034794D01*
X041821Y034794D01*
X042232Y035205D01*
X042232Y035205D01*
X042277Y035271D01*
X042292Y035349D01*
Y036670D01*
X042292Y036671D01*
X042432D01*
Y036869D01*
Y037067D01*
X042164D01*
X042141Y037082D01*
X042063Y037098D01*
X041280D01*
X041278Y037098D01*
X041262Y037101D01*
X041248Y037104D01*
X041235Y037108D01*
X041224Y037113D01*
X041213Y037119D01*
X041203Y037125D01*
X041194Y037132D01*
X041188Y037138D01*
X041184Y037144D01*
X041111Y037200D01*
X041025Y037235D01*
X040934Y037247D01*
X040843Y037235D01*
X040757Y037200D01*
X040684Y037144D01*
X040628Y037071D01*
X040593Y036985D01*
X040581Y036894D01*
X040593Y036803D01*
X040628Y036717D01*
X040684Y036644D01*
X040757Y036588D01*
X040843Y036553D01*
X040934Y036541D01*
X041025Y036553D01*
X041111Y036588D01*
X041184Y036644D01*
X041188Y036650D01*
X041194Y036656D01*
X041203Y036663D01*
X041213Y036669D01*
X041224Y036675D01*
X041235Y036680D01*
X041248Y036684D01*
X041262Y036687D01*
X041278Y036690D01*
X041280Y036690D01*
X041870D01*
Y036671D01*
X041882D01*
X041884Y036632D01*
Y035434D01*
X041676Y035226D01*
X041657Y035211D01*
X041633Y035194D01*
X041608Y035180D01*
X041582Y035168D01*
X041555Y035158D01*
X041549Y035156D01*
X041499Y035187D01*
Y035543D01*
Y035883D01*
X041225D01*
X041197Y035902D01*
X041119Y035917D01*
X039467D01*
X039389Y035902D01*
X039323Y035857D01*
X038933Y035467D01*
X038889Y035401D01*
X038873Y035323D01*
Y033303D01*
X038767Y033198D01*
X038726Y033225D01*
X038726Y033227D01*
X038738Y033316D01*
X038257D01*
Y032835D01*
X038346Y032847D01*
X038348Y032847D01*
X038375Y032806D01*
X038332Y032762D01*
X038288Y032696D01*
X038272Y032618D01*
X038288Y032540D01*
X038332Y032474D01*
X038398Y032430D01*
X038476Y032414D01*
X038481Y032415D01*
X038506Y032369D01*
X038118Y031981D01*
X038085Y031933D01*
X038027Y031920D01*
X037415Y032532D01*
Y033711D01*
X037419Y033733D01*
X037426Y033759D01*
X037437Y033787D01*
X037451Y033817D01*
X037470Y033848D01*
X037491Y033880D01*
X037551Y033952D01*
X037573Y033975D01*
X037587Y033986D01*
X037673Y034097D01*
X037726Y034227D01*
X037745Y034366D01*
X037726Y034505D01*
X037673Y034635D01*
X037587Y034746D01*
X037476Y034832D01*
X037346Y034885D01*
X037207Y034904D01*
X037068Y034885D01*
X036938Y034832D01*
X036827Y034746D01*
X036741Y034635D01*
X036688Y034505D01*
X036669Y034366D01*
X036688Y034227D01*
X036741Y034097D01*
X036827Y033986D01*
X036843Y033973D01*
X036871Y033945D01*
X036903Y033910D01*
X036929Y033877D01*
X036952Y033845D01*
X036971Y033814D01*
X036985Y033785D01*
X036996Y033757D01*
X037003Y033731D01*
X037007Y033710D01*
Y032448D01*
X037023Y032370D01*
X037067Y032304D01*
X037139Y032232D01*
X037114Y032185D01*
X037077Y032193D01*
X036581D01*
X036534Y032225D01*
X036436Y032244D01*
X036338Y032225D01*
X036293Y032194D01*
X036269Y032193D01*
X035419D01*
X035391Y032187D01*
X035075D01*
Y031989D01*
X035025D01*
Y031939D01*
X034807D01*
Y031791D01*
X034807D01*
X034803Y031761D01*
X034803D01*
X034803Y031742D01*
Y031613D01*
X035021D01*
Y031513D01*
X034803D01*
Y031388D01*
X034803Y031365D01*
X034803Y031365D01*
X034809Y031340D01*
X034809D01*
Y031192D01*
X035027D01*
Y031092D01*
X034809D01*
Y030944D01*
X034809Y030944D01*
X034803Y030928D01*
X034803D01*
X034803Y030896D01*
Y030780D01*
X035021D01*
Y030730D01*
X035071D01*
Y030532D01*
X035283D01*
X035307Y030482D01*
X035296Y030467D01*
X035073D01*
Y030269D01*
Y030071D01*
X035210D01*
X035213Y030032D01*
Y029612D01*
X032573D01*
Y030260D01*
X033199Y030885D01*
X033255Y030958D01*
X033290Y031044D01*
X033302Y031135D01*
Y031417D01*
X033334Y031495D01*
X033348Y031598D01*
X033334Y031701D01*
X033294Y031797D01*
X033231Y031880D01*
X033148Y031943D01*
X033052Y031983D01*
X032949Y031997D01*
X032846Y031983D01*
X032750Y031943D01*
X032667Y031880D01*
X032604Y031797D01*
X032564Y031701D01*
X032550Y031598D01*
X032564Y031495D01*
X032596Y031417D01*
Y031281D01*
X031970Y030656D01*
X031914Y030583D01*
X031879Y030497D01*
X031867Y030406D01*
Y027805D01*
X031879Y027714D01*
X031914Y027629D01*
X031947Y027586D01*
X031953Y027538D01*
Y027502D01*
X031953D01*
Y027294D01*
X032230D01*
X032507D01*
Y027502D01*
X032507D01*
X032507Y027538D01*
X032511Y027586D01*
X032536Y027619D01*
X032571Y027704D01*
X032583Y027795D01*
Y028906D01*
X035189D01*
X035191Y028894D01*
X035207Y028658D01*
X035170Y028608D01*
X035071D01*
Y028410D01*
Y028212D01*
X035183D01*
X035202Y028165D01*
X034636Y027599D01*
X034605Y027552D01*
X034600Y027549D01*
X034556Y027483D01*
X034540Y027405D01*
Y025284D01*
X034556Y025206D01*
X034574Y025178D01*
Y024920D01*
X033840D01*
X033815Y024921D01*
X033766Y024926D01*
X033723Y024934D01*
X033686Y024946D01*
X033654Y024959D01*
X033627Y024975D01*
X033604Y024992D01*
X033586Y025012D01*
X033570Y025035D01*
X033562Y025050D01*
X033561Y025053D01*
X033496Y025175D01*
X033408Y025281D01*
X033302Y025369D01*
X033180Y025434D01*
X033048Y025474D01*
X032911Y025487D01*
X032774Y025474D01*
X032642Y025434D01*
X032619Y025422D01*
X030281D01*
X030278Y025433D01*
X030269Y025485D01*
X030258Y025605D01*
X030258Y025620D01*
Y025651D01*
X030260Y025669D01*
X030248Y025761D01*
X030213Y025846D01*
X030188Y025878D01*
X030184Y025927D01*
Y025963D01*
X030184D01*
Y026170D01*
X029630D01*
Y025963D01*
X029630D01*
X029630Y025927D01*
X029626Y025878D01*
X029599Y025843D01*
X029564Y025758D01*
X029552Y025667D01*
Y025646D01*
X029547Y025542D01*
X029540Y025486D01*
X029531Y025433D01*
X029519Y025383D01*
X029504Y025336D01*
X029487Y025292D01*
X029468Y025252D01*
X029447Y025215D01*
X029421Y025177D01*
X029419Y025173D01*
X029403Y025154D01*
X029348Y025050D01*
X029341Y025029D01*
X028575D01*
Y025023D01*
X028100D01*
Y025288D01*
X028123Y025297D01*
X028148Y025316D01*
X028844D01*
X028935Y025328D01*
X029021Y025364D01*
X029083Y025412D01*
X029121D01*
Y025456D01*
X029150Y025493D01*
X029185Y025578D01*
X029197Y025669D01*
X029185Y025761D01*
X029150Y025846D01*
X029125Y025878D01*
X029121Y025927D01*
Y025963D01*
X029121D01*
Y026170D01*
X028567D01*
Y026022D01*
X028100D01*
Y026820D01*
X028373Y027093D01*
X028448Y027185D01*
X028503Y027289D01*
X028523Y027353D01*
X028576Y027356D01*
X028593Y027315D01*
X028658Y027231D01*
X028742Y027166D01*
X028841Y027125D01*
X028946Y027111D01*
X029052Y027125D01*
X029151Y027166D01*
X029235Y027231D01*
X029300Y027315D01*
X029341Y027414D01*
X029355Y027520D01*
X029341Y027625D01*
X029300Y027724D01*
X029235Y027809D01*
X029227Y027815D01*
X029215Y027828D01*
X029200Y027846D01*
X029187Y027863D01*
X029177Y027881D01*
X029168Y027898D01*
X029161Y027916D01*
X029156Y027934D01*
X029152Y027952D01*
X029150Y027963D01*
Y029280D01*
X029151Y029288D01*
X029154Y029308D01*
X029158Y029325D01*
X029161Y029337D01*
X029165Y029344D01*
X029167Y029348D01*
X029167Y029348D01*
X029173Y029351D01*
X029183Y029359D01*
X029194Y029365D01*
X029195Y029367D01*
X029198Y029369D01*
X029201Y029373D01*
X029204Y029376D01*
X029210Y029387D01*
X029218Y029397D01*
X029218Y029400D01*
X029224Y029409D01*
X029234Y029455D01*
Y029574D01*
X029224Y029620D01*
X029209Y029642D01*
X029224Y029665D01*
X029234Y029711D01*
Y029720D01*
X029003D01*
X028773D01*
Y029711D01*
X028782Y029665D01*
X028797Y029642D01*
X028782Y029620D01*
X028773Y029574D01*
Y029558D01*
X028758Y029536D01*
X028743Y029458D01*
Y027963D01*
X028741Y027952D01*
X028737Y027934D01*
X028732Y027916D01*
X028725Y027898D01*
X028716Y027881D01*
X028706Y027863D01*
X028693Y027846D01*
X028678Y027828D01*
X028666Y027815D01*
X028658Y027809D01*
X028599Y027733D01*
X028564Y027739D01*
X028549Y027746D01*
Y029822D01*
X028773D01*
Y029820D01*
X029003D01*
X029234D01*
Y029829D01*
X029224Y029876D01*
X029209Y029898D01*
X029224Y029921D01*
X029234Y029967D01*
Y030085D01*
X029224Y030132D01*
X029198Y030172D01*
X029158Y030198D01*
X029112Y030207D01*
X029092D01*
X029081Y030215D01*
X029003Y030230D01*
X028549D01*
Y030614D01*
X029033D01*
X029125Y030626D01*
X029210Y030662D01*
X029273Y030710D01*
X029310D01*
Y030754D01*
X029339Y030791D01*
X029374Y030876D01*
X029386Y030967D01*
X029374Y031059D01*
X029339Y031144D01*
X029314Y031176D01*
X029310Y031225D01*
Y031261D01*
X029310D01*
Y031468D01*
X028756D01*
Y031320D01*
X028549D01*
Y032870D01*
X028754D01*
Y032868D01*
X028984D01*
X029214D01*
Y032877D01*
X029205Y032923D01*
X029190Y032946D01*
X029205Y032968D01*
X029214Y033015D01*
Y033133D01*
X029205Y033179D01*
X029179Y033219D01*
X029139Y033245D01*
X029092Y033255D01*
X029073D01*
X029062Y033262D01*
X028984Y033277D01*
X028549D01*
Y034315D01*
X028717D01*
Y034167D01*
X028994D01*
X029271D01*
Y034374D01*
X029271D01*
X029271Y034411D01*
X029275Y034459D01*
X029300Y034492D01*
X029335Y034577D01*
X029347Y034668D01*
X029335Y034759D01*
X029300Y034845D01*
X029271Y034882D01*
Y034926D01*
X029233D01*
X029170Y034974D01*
X029085Y035009D01*
X028994Y035021D01*
X028549D01*
Y036345D01*
X028564Y036352D01*
X028599Y036358D01*
X028658Y036282D01*
X028742Y036217D01*
X028841Y036176D01*
X028946Y036162D01*
X029052Y036176D01*
X029151Y036217D01*
X029235Y036282D01*
X029300Y036367D01*
X029341Y036465D01*
X029355Y036571D01*
X029341Y036677D01*
X029300Y036775D01*
X029235Y036860D01*
X029151Y036925D01*
X029052Y036966D01*
X028946Y036980D01*
X028841Y036966D01*
X028742Y036925D01*
X028658Y036860D01*
X028593Y036775D01*
X028576Y036735D01*
X028523Y036738D01*
X028503Y036802D01*
X028448Y036906D01*
X028416Y036945D01*
Y038693D01*
X028465Y038703D01*
X028467Y038698D01*
X028531Y038616D01*
X028613Y038552D01*
X028709Y038513D01*
X028763Y038506D01*
Y038898D01*
Y039290D01*
X028709Y039283D01*
X028613Y039243D01*
X028531Y039180D01*
X028467Y039097D01*
X028447Y039047D01*
X028394Y039049D01*
X028370Y039128D01*
X028314Y039233D01*
X028239Y039324D01*
X028148Y039399D01*
X028043Y039455D01*
X027930Y039489D01*
X027813Y039501D01*
X027695Y039489D01*
X027582Y039455D01*
X027478Y039399D01*
X027386Y039324D01*
X027311Y039233D01*
X027256Y039128D01*
X027221Y039015D01*
X027210Y038898D01*
Y036705D01*
X027221Y036587D01*
X027256Y036474D01*
X027311Y036370D01*
X027328Y036349D01*
X027344Y036321D01*
Y034707D01*
Y033074D01*
Y030961D01*
Y030026D01*
Y027769D01*
X027071Y027497D01*
X026996Y027405D01*
X026957Y027333D01*
X026907Y027346D01*
X026901Y039688D01*
X026947Y039734D01*
X031725D01*
X031732Y039684D01*
X031676Y039667D01*
X031554Y039602D01*
X031448Y039514D01*
X031360Y039408D01*
X031295Y039286D01*
X031255Y039154D01*
X031242Y039017D01*
X031255Y038880D01*
X031295Y038748D01*
X031360Y038626D01*
X031448Y038520D01*
X031554Y038432D01*
X031676Y038367D01*
X031808Y038327D01*
X031945Y038314D01*
X032082Y038327D01*
X032214Y038367D01*
X032302Y038414D01*
X032720D01*
Y038239D01*
X032978D01*
Y038189D01*
X033028D01*
Y037912D01*
X033235D01*
Y037912D01*
X033272Y037912D01*
X033320Y037908D01*
X033353Y037883D01*
X033438Y037848D01*
X033529Y037836D01*
X033621Y037848D01*
X033706Y037883D01*
X033743Y037912D01*
X033787D01*
Y037950D01*
X033835Y038012D01*
X033870Y038098D01*
X033882Y038189D01*
Y038414D01*
X035362D01*
Y037660D01*
X036153D01*
Y037928D01*
X036181Y037947D01*
X036314Y038080D01*
X036344Y038065D01*
X036359Y038054D01*
X036372Y037952D01*
X036412Y037856D01*
X036476Y037773D01*
X036558Y037710D01*
X036654Y037670D01*
X036757Y037656D01*
X036861Y037670D01*
X036957Y037710D01*
X037039Y037773D01*
X037095Y037845D01*
X037095Y037845D01*
X037095Y037845D01*
X037103Y037856D01*
X037105Y037860D01*
X037105Y037861D01*
X037113Y037871D01*
X037122Y037880D01*
X037129Y037886D01*
X037137Y037891D01*
X037145Y037895D01*
X037153Y037899D01*
X037162Y037901D01*
X037170Y037902D01*
X037184D01*
X037243Y037914D01*
X037292Y037947D01*
X037324Y037978D01*
X037371Y037962D01*
X037372Y037952D01*
X037412Y037856D01*
X037476Y037773D01*
X037558Y037710D01*
X037654Y037670D01*
X037757Y037656D01*
X037861Y037670D01*
X037957Y037710D01*
X038039Y037773D01*
X038095Y037845D01*
X038095Y037845D01*
X038095Y037845D01*
X038100Y037852D01*
X038106Y037857D01*
X038120Y037862D01*
X038149Y037863D01*
X038163Y037860D01*
X038481Y037542D01*
X038531Y037509D01*
X038590Y037497D01*
X041147D01*
X041206Y037509D01*
X041256Y037542D01*
X042335Y038621D01*
X042343Y038626D01*
X042355Y038632D01*
X042371Y038638D01*
X042391Y038644D01*
X042415Y038649D01*
X042442Y038653D01*
X042511Y038658D01*
X042542Y038658D01*
X042553Y038656D01*
X042656Y038670D01*
X042752Y038710D01*
X042835Y038773D01*
X042898Y038856D01*
X042938Y038952D01*
X042951Y039055D01*
X042938Y039158D01*
X042898Y039254D01*
X042892Y039263D01*
X042914Y039307D01*
X043183D01*
X043199Y039291D01*
X043210Y039257D01*
X043207Y039254D01*
X043168Y039158D01*
X043154Y039055D01*
X043168Y038952D01*
X043207Y038856D01*
X043271Y038773D01*
X043353Y038710D01*
X043450Y038670D01*
X043553Y038656D01*
X043656Y038670D01*
X043752Y038710D01*
X043835Y038773D01*
X043898Y038856D01*
X043938Y038952D01*
X043951Y039055D01*
X043938Y039158D01*
X043898Y039254D01*
X043835Y039337D01*
X043752Y039400D01*
X043740Y039405D01*
X043658Y039450D01*
X043539Y039519D01*
X043506Y039541D01*
X043503Y039544D01*
X043471Y039575D01*
X043422Y039608D01*
X043363Y039620D01*
X043330Y039613D01*
X042385D01*
X042326Y039602D01*
X042277Y039569D01*
X041949Y039241D01*
X041908Y039249D01*
X041895Y039258D01*
X041835Y039337D01*
X041752Y039400D01*
X041656Y039440D01*
X041553Y039454D01*
X041450Y039440D01*
X041353Y039400D01*
X041271Y039337D01*
X041207Y039254D01*
X041168Y039158D01*
X041154Y039055D01*
X041155Y039044D01*
X041155Y039014D01*
X041151Y038944D01*
X041147Y038918D01*
X041142Y038894D01*
X041136Y038873D01*
X041130Y038857D01*
X041124Y038845D01*
X041119Y038838D01*
X040994Y038713D01*
X040948Y038732D01*
Y039450D01*
X040157D01*
Y039208D01*
X039336D01*
X039326Y039212D01*
X039286Y039250D01*
X039276Y039347D01*
X039242Y039461D01*
X039186Y039565D01*
X039111Y039656D01*
X039077Y039684D01*
X039095Y039734D01*
X046177D01*
Y020218D01*
D02*
G37*
G36*
X038023Y038189D02*
X038037Y038171D01*
X038052Y038156D01*
X038068Y038142D01*
X038085Y038131D01*
X038103Y038122D01*
X038122Y038114D01*
X038142Y038109D01*
X038162Y038106D01*
X038184Y038105D01*
Y038005D01*
X038162Y038004D01*
X038142Y038001D01*
X038122Y037996D01*
X038103Y037989D01*
X038085Y037979D01*
X038068Y037968D01*
X038052Y037954D01*
X038037Y037939D01*
X038023Y037921D01*
X038010Y037902D01*
Y038209D01*
X038023Y038189D01*
D02*
G37*
G36*
X037023D02*
X037037Y038171D01*
X037052Y038156D01*
X037068Y038142D01*
X037085Y038131D01*
X037103Y038122D01*
X037122Y038114D01*
X037142Y038109D01*
X037162Y038106D01*
X037184Y038105D01*
Y038005D01*
X037162Y038004D01*
X037142Y038001D01*
X037122Y037996D01*
X037103Y037989D01*
X037085Y037979D01*
X037068Y037968D01*
X037052Y037954D01*
X037037Y037939D01*
X037023Y037921D01*
X037010Y037902D01*
Y038209D01*
X037023Y038189D01*
D02*
G37*
G36*
X038999Y038232D02*
X039056Y038182D01*
X039083Y038162D01*
X039109Y038144D01*
X039135Y038130D01*
X039159Y038119D01*
X039182Y038111D01*
X039204Y038107D01*
X039226Y038105D01*
Y038005D01*
X039204Y038004D01*
X039182Y037999D01*
X039159Y037991D01*
X039135Y037980D01*
X039109Y037966D01*
X039083Y037949D01*
X039056Y037928D01*
X038999Y037878D01*
X038968Y037848D01*
Y038262D01*
X038999Y038232D01*
D02*
G37*
G36*
X041128Y037055D02*
X041144Y037042D01*
X041161Y037031D01*
X041180Y037021D01*
X041199Y037013D01*
X041220Y037006D01*
X041242Y037001D01*
X041264Y036997D01*
X041288Y036995D01*
X041313Y036994D01*
Y036794D01*
X041288Y036793D01*
X041264Y036791D01*
X041242Y036787D01*
X041220Y036782D01*
X041199Y036775D01*
X041180Y036767D01*
X041161Y036757D01*
X041144Y036746D01*
X041128Y036733D01*
X041113Y036719D01*
Y037069D01*
X041128Y037055D01*
D02*
G37*
G36*
X042202Y036770D02*
X042199Y036764D01*
X042196Y036754D01*
X042194Y036740D01*
X042192Y036722D01*
X042189Y036644D01*
X042188Y036572D01*
X041988D01*
X041988Y036610D01*
X041977Y036764D01*
X041974Y036770D01*
X041971Y036772D01*
X042205D01*
X042202Y036770D01*
D02*
G37*
G36*
X041748Y034867D02*
X041341Y034744D01*
X041357Y034762D01*
X041367Y034778D01*
X041371Y034792D01*
X041370Y034804D01*
X041362Y034814D01*
X041349Y034823D01*
X041329Y034830D01*
X041304Y034834D01*
X041273Y034837D01*
X041236Y034838D01*
X041436Y035038D01*
X041475Y035039D01*
X041513Y035044D01*
X041550Y035051D01*
X041586Y035061D01*
X041621Y035073D01*
X041654Y035089D01*
X041687Y035107D01*
X041718Y035129D01*
X041748Y035153D01*
X041777Y035179D01*
X041748Y034867D01*
D02*
G37*
G36*
X040739Y035023D02*
Y034624D01*
X040379D01*
X040301Y034608D01*
X040235Y034564D01*
X039719Y034048D01*
X039703Y034024D01*
X039653Y034040D01*
Y035049D01*
X039852Y035248D01*
X040739D01*
Y035023D01*
D02*
G37*
G36*
X037475Y034019D02*
X037410Y033941D01*
X037384Y033903D01*
X037362Y033865D01*
X037343Y033828D01*
X037329Y033792D01*
X037319Y033756D01*
X037313Y033720D01*
X037311Y033686D01*
X037111Y033684D01*
X037109Y033719D01*
X037103Y033754D01*
X037093Y033790D01*
X037078Y033826D01*
X037060Y033863D01*
X037037Y033900D01*
X037011Y033938D01*
X036980Y033976D01*
X036946Y034015D01*
X036907Y034054D01*
X037513Y034060D01*
X037475Y034019D01*
D02*
G37*
G36*
X036545Y032093D02*
X036548Y032092D01*
X036554Y032091D01*
X036569Y032090D01*
X036621Y032089D01*
X036638Y032089D01*
Y031889D01*
X036543Y031884D01*
Y032094D01*
X036545Y032093D01*
D02*
G37*
G36*
X036329Y031884D02*
X036327Y031885D01*
X036324Y031886D01*
X036318Y031887D01*
X036303Y031888D01*
X036251Y031889D01*
X036234Y031889D01*
Y032089D01*
X036329Y032094D01*
Y031884D01*
D02*
G37*
G36*
X036664Y031623D02*
X036679Y031614D01*
X036696Y031605D01*
X036715Y031598D01*
X036737Y031592D01*
X036761Y031587D01*
X036787Y031583D01*
X036847Y031579D01*
X036880Y031578D01*
Y031548D01*
X036847Y031547D01*
X036787Y031543D01*
X036761Y031539D01*
X036737Y031534D01*
X036715Y031528D01*
X036696Y031521D01*
X036679Y031512D01*
X036664Y031503D01*
X036652Y031492D01*
Y031634D01*
X036664Y031623D01*
D02*
G37*
G36*
X036093Y031667D02*
X036096Y031666D01*
X036102Y031665D01*
X036117Y031664D01*
X036169Y031663D01*
X036186Y031663D01*
Y031463D01*
X036091Y031458D01*
Y031668D01*
X036093Y031667D01*
D02*
G37*
G36*
X035877Y031458D02*
X035875Y031459D01*
X035872Y031460D01*
X035866Y031461D01*
X035851Y031462D01*
X035799Y031463D01*
X035782Y031463D01*
Y031663D01*
X035877Y031668D01*
Y031458D01*
D02*
G37*
G36*
X037082Y031421D02*
X037115Y031380D01*
X037121Y031374D01*
X037133Y031361D01*
X037120Y031333D01*
X037115Y031337D01*
X037110Y031340D01*
X037105Y031343D01*
X037100Y031344D01*
X037095Y031344D01*
X037089Y031344D01*
X037084Y031342D01*
X037079Y031339D01*
X037073Y031336D01*
X037068Y031331D01*
X037077Y031428D01*
X037082Y031421D01*
D02*
G37*
G36*
X038975Y031455D02*
X038954Y031424D01*
X038946Y031409D01*
X038939Y031394D01*
X038933Y031380D01*
X038929Y031366D01*
X038926Y031352D01*
X038924Y031339D01*
X038923Y031326D01*
X038893D01*
X038892Y031339D01*
X038890Y031352D01*
X038887Y031366D01*
X038883Y031380D01*
X038877Y031394D01*
X038870Y031409D01*
X038862Y031424D01*
X038841Y031455D01*
X038829Y031472D01*
X038987D01*
X038975Y031455D01*
D02*
G37*
G36*
X038127Y031509D02*
X038118Y031494D01*
X038110Y031477D01*
X038102Y031458D01*
X038096Y031436D01*
X038091Y031412D01*
X038087Y031386D01*
X038083Y031326D01*
X038082Y031293D01*
X038052D01*
X038052Y031326D01*
X038047Y031386D01*
X038043Y031412D01*
X038038Y031436D01*
X038032Y031458D01*
X038025Y031477D01*
X038017Y031494D01*
X038007Y031509D01*
X037997Y031521D01*
X038138D01*
X038127Y031509D01*
D02*
G37*
G36*
X037693Y031458D02*
X037697Y031441D01*
X037703Y031423D01*
X037712Y031404D01*
X037723Y031384D01*
X037736Y031364D01*
X037752Y031343D01*
X037791Y031297D01*
X037814Y031273D01*
X037793Y031252D01*
X037769Y031275D01*
X037723Y031314D01*
X037702Y031330D01*
X037682Y031343D01*
X037662Y031354D01*
X037643Y031363D01*
X037625Y031369D01*
X037608Y031373D01*
X037592Y031374D01*
X037692Y031474D01*
X037693Y031458D01*
D02*
G37*
G36*
X038673Y031203D02*
X038662Y031201D01*
X038634Y031194D01*
X038627Y031192D01*
X038620Y031189D01*
X038614Y031186D01*
X038608Y031183D01*
X038603Y031180D01*
X038600Y031176D01*
X038575Y031194D01*
X038579Y031198D01*
X038582Y031203D01*
X038585Y031209D01*
X038587Y031215D01*
X038588Y031222D01*
X038589Y031229D01*
X038590Y031237D01*
X038590Y031245D01*
X038589Y031254D01*
X038587Y031264D01*
X038673Y031203D01*
D02*
G37*
G36*
X038236Y031043D02*
X038232Y031045D01*
X038228Y031047D01*
X038224Y031047D01*
X038221Y031047D01*
X038217Y031047D01*
X038213Y031046D01*
X038209Y031044D01*
X038205Y031042D01*
X038202Y031039D01*
X038198Y031036D01*
X038177Y031057D01*
X038181Y031061D01*
X038185Y031066D01*
X038188Y031070D01*
X038190Y031075D01*
X038193Y031079D01*
X038194Y031084D01*
X038196Y031089D01*
X038196Y031093D01*
X038197Y031098D01*
X038196Y031102D01*
X038236Y031043D01*
D02*
G37*
G36*
X036542Y031244D02*
X036545Y031243D01*
X036551Y031242D01*
X036566Y031241D01*
X036618Y031240D01*
X036635Y031240D01*
Y031040D01*
X036540Y031035D01*
Y031245D01*
X036542Y031244D01*
D02*
G37*
G36*
X036326Y031035D02*
X036324Y031036D01*
X036321Y031037D01*
X036315Y031038D01*
X036300Y031039D01*
X036248Y031040D01*
X036231Y031040D01*
Y031240D01*
X036326Y031245D01*
Y031035D01*
D02*
G37*
G36*
X037733Y031007D02*
X037761Y030957D01*
X037764Y030953D01*
X037767Y030950D01*
X037757Y030918D01*
X037752Y030922D01*
X037747Y030925D01*
X037742Y030928D01*
X037736Y030929D01*
X037730Y030930D01*
X037724Y030929D01*
X037718Y030928D01*
X037711Y030926D01*
X037704Y030923D01*
X037697Y030920D01*
X037727Y031018D01*
X037733Y031007D01*
D02*
G37*
G36*
X036875Y031124D02*
X036879Y031107D01*
X036885Y031089D01*
X036894Y031070D01*
X036905Y031050D01*
X036918Y031030D01*
X036934Y031009D01*
X036973Y030963D01*
X036996Y030939D01*
X036975Y030918D01*
X036951Y030941D01*
X036905Y030980D01*
X036884Y030996D01*
X036864Y031009D01*
X036844Y031020D01*
X036825Y031029D01*
X036807Y031035D01*
X036790Y031039D01*
X036774Y031040D01*
X036874Y031140D01*
X036875Y031124D01*
D02*
G37*
G36*
X037260Y031007D02*
X037274Y030995D01*
X037281Y030991D01*
X037287Y030986D01*
X037294Y030983D01*
X037300Y030980D01*
X037306Y030979D01*
X037312Y030977D01*
X037317Y030977D01*
Y030947D01*
X037312Y030947D01*
X037306Y030945D01*
X037300Y030944D01*
X037294Y030941D01*
X037287Y030938D01*
X037281Y030933D01*
X037274Y030929D01*
X037267Y030923D01*
X037253Y030910D01*
Y031014D01*
X037260Y031007D01*
D02*
G37*
G36*
X038715Y030828D02*
X038699Y030827D01*
X038682Y030823D01*
X038664Y030817D01*
X038645Y030808D01*
X038625Y030797D01*
X038605Y030784D01*
X038584Y030768D01*
X038538Y030729D01*
X038514Y030706D01*
X038493Y030727D01*
X038516Y030751D01*
X038555Y030797D01*
X038571Y030818D01*
X038584Y030838D01*
X038595Y030858D01*
X038604Y030877D01*
X038610Y030895D01*
X038614Y030912D01*
X038615Y030928D01*
X038715Y030828D01*
D02*
G37*
G36*
X038462Y030654D02*
X038457Y030649D01*
X038449Y030639D01*
X038445Y030634D01*
X038443Y030629D01*
X038441Y030625D01*
X038440Y030622D01*
X038439Y030618D01*
X038439Y030615D01*
X038440Y030612D01*
X038417Y030671D01*
X038418Y030668D01*
X038420Y030667D01*
X038423Y030667D01*
X038426Y030667D01*
X038430Y030669D01*
X038435Y030672D01*
X038440Y030676D01*
X038445Y030681D01*
X038459Y030693D01*
X038462Y030654D01*
D02*
G37*
G36*
X036079Y030841D02*
X036082Y030840D01*
X036088Y030839D01*
X036103Y030838D01*
X036155Y030837D01*
X036172Y030837D01*
Y030637D01*
X036077Y030632D01*
Y030842D01*
X036079Y030841D01*
D02*
G37*
G36*
X035863Y030632D02*
X035861Y030633D01*
X035858Y030634D01*
X035852Y030635D01*
X035837Y030636D01*
X035785Y030637D01*
X035768Y030637D01*
Y030837D01*
X035863Y030842D01*
Y030632D01*
D02*
G37*
G36*
X037023Y030517D02*
X037025Y030499D01*
X037026Y030490D01*
X037028Y030483D01*
X037030Y030476D01*
X037032Y030470D01*
X037035Y030464D01*
X037039Y030459D01*
X037042Y030455D01*
X037021Y030434D01*
X037017Y030437D01*
X037012Y030441D01*
X037006Y030444D01*
X037000Y030446D01*
X036993Y030448D01*
X036986Y030450D01*
X036977Y030451D01*
X036968Y030452D01*
X036949Y030453D01*
X037023Y030527D01*
X037023Y030517D01*
D02*
G37*
G36*
X037421Y030434D02*
X037421Y030434D01*
X037419Y030433D01*
X037417Y030431D01*
X037388Y030403D01*
X037372Y030430D01*
X037378Y030435D01*
X037387Y030446D01*
X037391Y030451D01*
X037393Y030455D01*
X037395Y030460D01*
X037396Y030463D01*
X037396Y030466D01*
X037396Y030469D01*
X037395Y030472D01*
X037421Y030434D01*
D02*
G37*
G36*
X037523Y030363D02*
X037527Y030360D01*
X037532Y030356D01*
X037537Y030354D01*
X037542Y030351D01*
X037547Y030349D01*
X037552Y030348D01*
X037558Y030347D01*
X037564Y030346D01*
X037569Y030346D01*
X037533Y030316D01*
X037467Y030346D01*
X037473Y030346D01*
X037477Y030347D01*
X037480Y030348D01*
X037483Y030349D01*
X037484Y030351D01*
X037485Y030354D01*
X037484Y030356D01*
X037482Y030360D01*
X037480Y030363D01*
X037476Y030367D01*
X037518D01*
X037523Y030363D01*
D02*
G37*
G36*
X038140Y030290D02*
X038141Y030288D01*
X038143Y030285D01*
X038145Y030284D01*
X038148Y030282D01*
X038151Y030281D01*
X038155Y030280D01*
X038160Y030279D01*
X038165Y030278D01*
X038171Y030278D01*
Y030248D01*
X038165Y030248D01*
X038160Y030248D01*
X038155Y030247D01*
X038151Y030246D01*
X038148Y030244D01*
X038145Y030243D01*
X038143Y030241D01*
X038141Y030239D01*
X038140Y030236D01*
X038140Y030233D01*
Y030293D01*
X038140Y030290D01*
D02*
G37*
G36*
X037995Y030233D02*
X037994Y030236D01*
X037993Y030239D01*
X037992Y030241D01*
X037990Y030243D01*
X037987Y030244D01*
X037983Y030246D01*
X037979Y030247D01*
X037975Y030248D01*
X037969Y030248D01*
X037964Y030248D01*
Y030278D01*
X037969Y030278D01*
X037975Y030279D01*
X037979Y030280D01*
X037983Y030281D01*
X037987Y030282D01*
X037990Y030284D01*
X037992Y030285D01*
X037993Y030288D01*
X037994Y030290D01*
X037995Y030293D01*
Y030233D01*
D02*
G37*
G36*
X035531Y030170D02*
X035528Y030164D01*
X035525Y030154D01*
X035523Y030140D01*
X035521Y030122D01*
X035518Y030044D01*
X035517Y029972D01*
X035317D01*
X035317Y030010D01*
X035306Y030164D01*
X035303Y030170D01*
X035300Y030172D01*
X035534D01*
X035531Y030170D01*
D02*
G37*
G36*
X036990Y030009D02*
X036987Y030006D01*
X036984Y030003D01*
X036982Y030000D01*
X036980Y029996D01*
X036979Y029993D01*
X036977Y029989D01*
X036976Y029985D01*
X036976Y029980D01*
X036975Y029976D01*
X036975Y029971D01*
X036930Y030016D01*
X036935Y030016D01*
X036939Y030017D01*
X036944Y030017D01*
X036948Y030018D01*
X036952Y030020D01*
X036955Y030021D01*
X036959Y030023D01*
X036962Y030025D01*
X036965Y030028D01*
X036968Y030031D01*
X036990Y030009D01*
D02*
G37*
G36*
X036829Y030078D02*
X036825Y030076D01*
X036793Y030028D01*
X036792Y030021D01*
X036930D01*
Y029971D01*
X036980D01*
Y029833D01*
X036987Y029834D01*
X037035Y029866D01*
X037067Y029914D01*
X037073Y029949D01*
X037248Y030124D01*
X037280Y030124D01*
X037325Y030079D01*
X037324Y029369D01*
X037085D01*
X037073Y029386D01*
X037007Y029430D01*
X036929Y029446D01*
X035710D01*
X035662Y029509D01*
X035621Y029540D01*
Y030070D01*
X035621Y030071D01*
X035635D01*
Y030128D01*
X036814D01*
X036829Y030078D01*
D02*
G37*
G36*
X028870Y029466D02*
X028875Y029455D01*
X029126Y029441D01*
X029111Y029433D01*
X029097Y029423D01*
X029085Y029409D01*
X029075Y029393D01*
X029066Y029373D01*
X029059Y029351D01*
X029054Y029327D01*
X029050Y029299D01*
X029047Y029269D01*
X029046Y029235D01*
X028846D01*
X028847Y029290D01*
X028857Y029453D01*
X028860Y029465D01*
X028865Y029469D01*
X028870Y029466D01*
D02*
G37*
G36*
X037486Y029237D02*
X037480Y029237D01*
X037475Y029236D01*
X037469Y029235D01*
X037464Y029234D01*
X037458Y029232D01*
X037453Y029229D01*
X037449Y029227D01*
X037444Y029223D01*
X037439Y029220D01*
X037435Y029216D01*
X037397Y029220D01*
X037400Y029223D01*
X037402Y029226D01*
X037403Y029229D01*
X037403Y029231D01*
X037402Y029233D01*
X037400Y029234D01*
X037398Y029235D01*
X037394Y029236D01*
X037389Y029237D01*
X037384Y029237D01*
X037450Y029267D01*
X037486Y029237D01*
D02*
G37*
G36*
X037290Y029053D02*
X037292Y029042D01*
Y028887D01*
X037263Y028858D01*
X037119D01*
X037105Y028867D01*
X037100Y028872D01*
X037089Y028877D01*
X037060Y028896D01*
X037042Y028899D01*
Y028787D01*
X037047Y028784D01*
X037070Y028768D01*
X037077Y028765D01*
X037084Y028761D01*
X037091Y028759D01*
X037097Y028757D01*
X037102Y028756D01*
X037108Y028756D01*
X037112Y028726D01*
X037106Y028726D01*
X037100Y028724D01*
X037094Y028722D01*
X037088Y028720D01*
X037082Y028716D01*
X037076Y028712D01*
X037070Y028706D01*
X037064Y028700D01*
X037058Y028694D01*
X037052Y028686D01*
X037042Y028761D01*
Y028731D01*
X036992D01*
Y028681D01*
X036824D01*
X036827Y028663D01*
X036866Y028605D01*
X036924Y028566D01*
X036992Y028553D01*
X036993Y028553D01*
X037018Y028507D01*
X036856Y028345D01*
X035633D01*
Y028496D01*
X035633Y028497D01*
X035633Y028500D01*
Y028503D01*
X035634Y028507D01*
X035633Y028511D01*
Y028608D01*
X035623D01*
X035621Y028643D01*
Y028773D01*
X035632Y028892D01*
X035640Y028937D01*
X035648Y028973D01*
X035656Y028998D01*
X035662Y029010D01*
X035684Y029038D01*
X036929D01*
X037007Y029054D01*
X037073Y029098D01*
X037098Y029135D01*
X037290D01*
Y029053D01*
D02*
G37*
G36*
X035574Y029063D02*
X035561Y029036D01*
X035550Y029000D01*
X035540Y028957D01*
X035531Y028906D01*
X035519Y028779D01*
X035516Y028707D01*
X035517D01*
X035517Y028669D01*
X035526Y028515D01*
X035529Y028509D01*
X035532Y028507D01*
X035298D01*
X035301Y028509D01*
X035303Y028515D01*
X035305Y028525D01*
X035307Y028539D01*
X035310Y028579D01*
X035311Y028630D01*
X035293Y028906D01*
X035284Y028957D01*
X035274Y029000D01*
X035263Y029036D01*
X035250Y029063D01*
X035235Y029082D01*
X035589D01*
X035574Y029063D01*
D02*
G37*
G36*
X035492Y028217D02*
X035481Y028206D01*
X035455Y028176D01*
X035448Y028166D01*
X035443Y028158D01*
X035439Y028150D01*
X035436Y028142D01*
X035434Y028135D01*
X035433Y028128D01*
X035381Y028180D01*
X035388Y028181D01*
X035395Y028183D01*
X035403Y028186D01*
X035411Y028190D01*
X035419Y028195D01*
X035429Y028202D01*
X035448Y028218D01*
X035459Y028228D01*
X035470Y028239D01*
X035492Y028217D01*
D02*
G37*
G36*
X037763Y028236D02*
X037740Y028212D01*
X037701Y028166D01*
X037685Y028145D01*
X037672Y028125D01*
X037661Y028105D01*
X037652Y028086D01*
X037646Y028068D01*
X037642Y028051D01*
X037641Y028035D01*
X037541Y028135D01*
X037557Y028136D01*
X037574Y028140D01*
X037592Y028146D01*
X037611Y028155D01*
X037631Y028166D01*
X037651Y028179D01*
X037672Y028195D01*
X037718Y028234D01*
X037742Y028257D01*
X037763Y028236D01*
D02*
G37*
G36*
X036071Y028097D02*
X036077Y028093D01*
X036085Y028090D01*
X036094Y028087D01*
X036105Y028085D01*
X036117Y028083D01*
X036145Y028081D01*
X036179Y028080D01*
Y028050D01*
X036161Y028050D01*
X036117Y028047D01*
X036105Y028045D01*
X036094Y028043D01*
X036085Y028040D01*
X036077Y028037D01*
X036071Y028033D01*
X036066Y028030D01*
Y028100D01*
X036071Y028097D01*
D02*
G37*
G36*
X037957Y028075D02*
X037954Y028071D01*
X037950Y028066D01*
X037947Y028060D01*
X037945Y028054D01*
X037943Y028047D01*
X037941Y028040D01*
X037940Y028031D01*
X037939Y028022D01*
X037938Y028003D01*
X037864Y028077D01*
X037874Y028077D01*
X037892Y028079D01*
X037901Y028080D01*
X037908Y028082D01*
X037915Y028084D01*
X037921Y028086D01*
X037927Y028089D01*
X037932Y028093D01*
X037936Y028096D01*
X037957Y028075D01*
D02*
G37*
G36*
X036073Y027955D02*
X036079Y027951D01*
X036087Y027948D01*
X036096Y027945D01*
X036107Y027943D01*
X036119Y027941D01*
X036147Y027939D01*
X036181Y027938D01*
Y027908D01*
X036163Y027908D01*
X036119Y027905D01*
X036107Y027903D01*
X036096Y027901D01*
X036087Y027898D01*
X036079Y027895D01*
X036073Y027891D01*
X036068Y027888D01*
Y027958D01*
X036073Y027955D01*
D02*
G37*
G36*
X029048Y027963D02*
X029051Y027935D01*
X029057Y027909D01*
X029065Y027882D01*
X029075Y027857D01*
X029087Y027832D01*
X029102Y027807D01*
X029119Y027783D01*
X029138Y027760D01*
X029160Y027738D01*
X028733D01*
X028754Y027760D01*
X028774Y027783D01*
X028791Y027807D01*
X028806Y027832D01*
X028818Y027857D01*
X028828Y027882D01*
X028836Y027909D01*
X028842Y027935D01*
X028845Y027963D01*
X028846Y027991D01*
X029046D01*
X029048Y027963D01*
D02*
G37*
G36*
X036229Y027749D02*
X036244Y027740D01*
X036261Y027731D01*
X036280Y027724D01*
X036302Y027718D01*
X036326Y027713D01*
X036352Y027709D01*
X036412Y027705D01*
X036445Y027704D01*
Y027674D01*
X036412Y027673D01*
X036352Y027669D01*
X036326Y027665D01*
X036302Y027660D01*
X036280Y027654D01*
X036261Y027647D01*
X036244Y027638D01*
X036229Y027629D01*
X036217Y027618D01*
Y027760D01*
X036229Y027749D01*
D02*
G37*
G36*
X039685Y027559D02*
X039525D01*
X039590Y027644D01*
X039620D01*
X039685Y027559D01*
D02*
G37*
G36*
X039375Y027605D02*
X039377Y027596D01*
X039380Y027586D01*
X039385Y027575D01*
X039390Y027563D01*
X039406Y027537D01*
X039416Y027522D01*
X039439Y027489D01*
X039279D01*
X039292Y027506D01*
X039321Y027550D01*
X039328Y027563D01*
X039338Y027586D01*
X039342Y027596D01*
X039344Y027605D01*
X039344Y027613D01*
X039374D01*
X039375Y027605D01*
D02*
G37*
G36*
X039115Y027595D02*
X039117Y027583D01*
X039120Y027571D01*
X039125Y027559D01*
X039130Y027545D01*
X039137Y027531D01*
X039155Y027501D01*
X039166Y027486D01*
X039179Y027469D01*
X039020D01*
X039032Y027486D01*
X039053Y027517D01*
X039061Y027531D01*
X039074Y027559D01*
X039078Y027571D01*
X039082Y027583D01*
X039084Y027595D01*
X039084Y027606D01*
X039114D01*
X039115Y027595D01*
D02*
G37*
G36*
X039728Y027630D02*
X039774Y027591D01*
X039795Y027575D01*
X039815Y027562D01*
X039835Y027551D01*
X039854Y027542D01*
X039872Y027536D01*
X039889Y027532D01*
X039905Y027531D01*
X039805Y027431D01*
X039804Y027447D01*
X039800Y027464D01*
X039794Y027482D01*
X039785Y027501D01*
X039774Y027521D01*
X039761Y027541D01*
X039745Y027562D01*
X039706Y027608D01*
X039683Y027632D01*
X039704Y027653D01*
X039728Y027630D01*
D02*
G37*
G36*
X038023Y027626D02*
X038000Y027602D01*
X037961Y027556D01*
X037945Y027535D01*
X037932Y027515D01*
X037921Y027495D01*
X037912Y027476D01*
X037906Y027458D01*
X037902Y027441D01*
X037901Y027425D01*
X037801Y027525D01*
X037817Y027526D01*
X037834Y027530D01*
X037852Y027536D01*
X037871Y027545D01*
X037891Y027556D01*
X037911Y027569D01*
X037932Y027585D01*
X037978Y027624D01*
X038002Y027647D01*
X038023Y027626D01*
D02*
G37*
G36*
X036775Y027613D02*
X036752Y027589D01*
X036713Y027543D01*
X036697Y027522D01*
X036683Y027501D01*
X036672Y027482D01*
X036664Y027463D01*
X036658Y027445D01*
X036654Y027428D01*
X036653Y027412D01*
X036553Y027512D01*
X036569Y027513D01*
X036586Y027517D01*
X036604Y027523D01*
X036623Y027531D01*
X036642Y027542D01*
X036663Y027556D01*
X036684Y027572D01*
X036730Y027611D01*
X036753Y027634D01*
X036775Y027613D01*
D02*
G37*
G36*
X035503Y027570D02*
X035477Y027544D01*
X035377Y027430D01*
X035371Y027419D01*
X035366Y027410D01*
X035365Y027403D01*
X035265Y027503D01*
X035272Y027504D01*
X035281Y027509D01*
X035292Y027515D01*
X035306Y027525D01*
X035339Y027553D01*
X035406Y027615D01*
X035432Y027641D01*
X035503Y027570D01*
D02*
G37*
G36*
X036510Y027591D02*
X036490Y027571D01*
X036456Y027530D01*
X036442Y027511D01*
X036430Y027491D01*
X036421Y027473D01*
X036413Y027454D01*
X036407Y027436D01*
X036403Y027419D01*
X036402Y027401D01*
X036298Y027505D01*
X036316Y027506D01*
X036333Y027510D01*
X036351Y027516D01*
X036370Y027524D01*
X036388Y027533D01*
X036408Y027545D01*
X036427Y027559D01*
X036447Y027575D01*
X036488Y027613D01*
X036510Y027591D01*
D02*
G37*
G36*
X038713Y028115D02*
Y027569D01*
X038695Y027557D01*
X038651Y027491D01*
X038635Y027413D01*
Y027341D01*
X038585Y027315D01*
X038563Y027329D01*
X038535Y027335D01*
Y027141D01*
X038435D01*
Y027335D01*
X038407Y027329D01*
X038341Y027285D01*
X038313Y027244D01*
X038263Y027259D01*
Y027433D01*
X038248Y027511D01*
X038245Y027515D01*
Y028518D01*
X038291Y028537D01*
X038713Y028115D01*
D02*
G37*
G36*
X038666Y026057D02*
X038658Y026054D01*
X038651Y026049D01*
X038645Y026042D01*
X038640Y026033D01*
X038636Y026022D01*
X038632Y026009D01*
X038630Y025994D01*
X038628Y025977D01*
X038628Y025958D01*
X038528D01*
X038528Y025977D01*
X038526Y025994D01*
X038524Y026009D01*
X038520Y026022D01*
X038516Y026033D01*
X038511Y026042D01*
X038505Y026049D01*
X038498Y026054D01*
X038490Y026057D01*
X038481Y026058D01*
X038675D01*
X038666Y026057D01*
D02*
G37*
G36*
X038628Y025644D02*
X038631Y025599D01*
X038633Y025588D01*
X038635Y025579D01*
X038638Y025572D01*
X038641Y025567D01*
X038644Y025564D01*
X038648Y025563D01*
X038510D01*
X038514Y025564D01*
X038517Y025567D01*
X038519Y025572D01*
X038522Y025579D01*
X038524Y025588D01*
X038525Y025599D01*
X038527Y025627D01*
X038528Y025663D01*
X038628D01*
X038628Y025644D01*
D02*
G37*
G36*
X038510Y025387D02*
X038543Y025385D01*
X038579Y025384D01*
Y025184D01*
X038543Y025183D01*
X038510Y025180D01*
Y025093D01*
X038509Y025110D01*
X038503Y025125D01*
X038493Y025139D01*
X038480Y025151D01*
X038463Y025161D01*
X038449Y025166D01*
X038435Y025161D01*
X038418Y025151D01*
X038404Y025139D01*
X038395Y025125D01*
X038389Y025110D01*
X038387Y025093D01*
Y025180D01*
X038356Y025183D01*
X038319Y025184D01*
Y025384D01*
X038356Y025385D01*
X038387Y025387D01*
Y025475D01*
X038389Y025458D01*
X038395Y025442D01*
X038404Y025429D01*
X038418Y025417D01*
X038435Y025407D01*
X038449Y025401D01*
X038463Y025407D01*
X038480Y025417D01*
X038493Y025429D01*
X038503Y025442D01*
X038509Y025458D01*
X038510Y025475D01*
Y025387D01*
D02*
G37*
G36*
X042756Y025448D02*
X042750Y025442D01*
X042743Y025432D01*
X042738Y025418D01*
X042734Y025400D01*
X042730Y025378D01*
X042727Y025352D01*
X042724Y025288D01*
X042724Y025250D01*
X042524D01*
X042523Y025288D01*
X042517Y025378D01*
X042513Y025400D01*
X042509Y025418D01*
X042504Y025432D01*
X042498Y025442D01*
X042491Y025448D01*
X042483Y025450D01*
X042764D01*
X042756Y025448D01*
D02*
G37*
G36*
X042363D02*
X042356Y025442D01*
X042350Y025432D01*
X042345Y025418D01*
X042340Y025400D01*
X042336Y025378D01*
X042334Y025352D01*
X042330Y025288D01*
X042330Y025250D01*
X042130D01*
X042130Y025288D01*
X042123Y025378D01*
X042120Y025400D01*
X042115Y025418D01*
X042110Y025432D01*
X042104Y025442D01*
X042097Y025448D01*
X042089Y025450D01*
X042370D01*
X042363Y025448D01*
D02*
G37*
G36*
X035593Y025397D02*
X035596Y025394D01*
X035602Y025392D01*
X035610Y025390D01*
X035621Y025388D01*
X035634Y025386D01*
X035686Y025384D01*
X035708Y025384D01*
Y025184D01*
X035686Y025184D01*
X035610Y025178D01*
X035602Y025176D01*
X035596Y025174D01*
X035593Y025171D01*
X035592Y025168D01*
Y025400D01*
X035593Y025397D01*
D02*
G37*
G36*
X030156Y025599D02*
X030168Y025471D01*
X030179Y025412D01*
X030192Y025356D01*
X030209Y025303D01*
X030228Y025252D01*
X030251Y025205D01*
X030276Y025160D01*
X030305Y025119D01*
X030169D01*
X030179Y024948D01*
X030186Y024933D01*
X030193Y024928D01*
X029616D01*
X029623Y024933D01*
X029630Y024948D01*
X029636Y024973D01*
X029641Y025008D01*
X029648Y025108D01*
X029649Y025119D01*
X029505D01*
X029533Y025160D01*
X029559Y025205D01*
X029581Y025252D01*
X029601Y025303D01*
X029617Y025356D01*
X029631Y025412D01*
X029641Y025471D01*
X029649Y025534D01*
X029655Y025667D01*
X030155D01*
X030156Y025599D01*
D02*
G37*
G36*
X037337Y027965D02*
Y025293D01*
X037335Y025284D01*
X037351Y025206D01*
X037369Y025178D01*
Y024920D01*
X036734D01*
Y025206D01*
X036741Y025217D01*
X036757Y025295D01*
Y027412D01*
X036756Y027416D01*
X036756Y027418D01*
X036759Y027425D01*
X036763Y027436D01*
X036771Y027449D01*
X036780Y027464D01*
X036792Y027480D01*
X036827Y027520D01*
X036835Y027528D01*
X037291Y027984D01*
X037337Y027965D01*
D02*
G37*
G36*
X042724Y025094D02*
X042727Y025070D01*
X042730Y025048D01*
X042736Y025026D01*
X042743Y025006D01*
X042751Y024986D01*
X042761Y024968D01*
X042772Y024951D01*
X042785Y024935D01*
X042800Y024920D01*
X042450Y024913D01*
X042464Y024929D01*
X042476Y024945D01*
X042488Y024963D01*
X042497Y024982D01*
X042505Y025001D01*
X042512Y025022D01*
X042517Y025044D01*
X042521Y025066D01*
X042523Y025090D01*
X042524Y025115D01*
X042724Y025119D01*
X042724Y025094D01*
D02*
G37*
G36*
X045119Y025448D02*
X045112Y025442D01*
X045106Y025432D01*
X045100Y025418D01*
X045096Y025400D01*
X045092Y025378D01*
X045089Y025352D01*
X045086Y025288D01*
X045086Y025280D01*
X045087Y025267D01*
X045089Y025243D01*
X045092Y025220D01*
X045097Y025199D01*
X045103Y025178D01*
X045111Y025157D01*
X045120Y025138D01*
X045130Y025120D01*
X045142Y025103D01*
X045155Y025087D01*
X044993Y024922D01*
X045155Y024757D01*
X045142Y024741D01*
X045130Y024724D01*
X045120Y024706D01*
X045111Y024687D01*
X045103Y024666D01*
X045097Y024645D01*
X045092Y024624D01*
X045089Y024601D01*
X045087Y024577D01*
X045086Y024552D01*
X044886Y024536D01*
X044885Y024561D01*
X044883Y024584D01*
X044879Y024607D01*
X044873Y024628D01*
X044866Y024648D01*
X044857Y024667D01*
X044847Y024685D01*
X044835Y024701D01*
X044821Y024717D01*
X044806Y024731D01*
X044993Y024922D01*
X044806Y025113D01*
X044821Y025127D01*
X044835Y025143D01*
X044847Y025159D01*
X044857Y025177D01*
X044866Y025196D01*
X044873Y025216D01*
X044879Y025237D01*
X044883Y025260D01*
X044885Y025283D01*
X044885Y025291D01*
X044879Y025378D01*
X044876Y025400D01*
X044871Y025418D01*
X044866Y025432D01*
X044860Y025442D01*
X044853Y025448D01*
X044845Y025450D01*
X045126D01*
X045119Y025448D01*
D02*
G37*
G36*
X028676Y024340D02*
X028674Y024342D01*
X028668Y024343D01*
X028658Y024345D01*
X028626Y024347D01*
X028476Y024349D01*
Y024549D01*
X028676Y024558D01*
Y024340D01*
D02*
G37*
G36*
X035779Y024890D02*
X035770Y024876D01*
X035773Y024864D01*
X035787Y024853D01*
X035813Y024843D01*
X035850Y024835D01*
X036112Y024818D01*
X036206Y024817D01*
X035315Y024317D01*
Y024567D01*
X035445Y024658D01*
X035288Y024815D01*
X035318Y024821D01*
X035350Y024829D01*
X035383Y024842D01*
X035416Y024858D01*
X035451Y024878D01*
X035486Y024901D01*
X035523Y024928D01*
X035598Y024993D01*
X035638Y025031D01*
X035779Y024890D01*
D02*
G37*
G36*
X042764Y024529D02*
X042571Y024312D01*
X042409Y024434D01*
X042424Y024450D01*
X042436Y024465D01*
X042446Y024480D01*
X042453Y024495D01*
X042457Y024510D01*
X042458Y024524D01*
X042457Y024537D01*
X042453Y024550D01*
X042447Y024563D01*
X042438Y024576D01*
X042764Y024529D01*
D02*
G37*
G36*
X028370Y024240D02*
X028394Y024245D01*
X028575D01*
Y023869D01*
X028750D01*
X028752Y023865D01*
X028756Y023850D01*
X028759Y023829D01*
X028761Y023814D01*
Y023149D01*
X028759Y023139D01*
X028755Y023121D01*
X028750Y023104D01*
X028743Y023088D01*
X028734Y023071D01*
X028724Y023055D01*
X028711Y023039D01*
X028696Y023023D01*
X028677Y023005D01*
X028675Y023002D01*
X028658Y022989D01*
X028593Y022904D01*
X028576Y022864D01*
X028523Y022867D01*
X028503Y022931D01*
X028448Y023035D01*
X028373Y023126D01*
X028100Y023399D01*
Y024313D01*
X028150Y024329D01*
X028176Y024290D01*
X028242Y024246D01*
X028270Y024240D01*
Y024434D01*
X028370D01*
Y024240D01*
D02*
G37*
G36*
X033482Y024982D02*
X033507Y024947D01*
X033536Y024917D01*
X033570Y024890D01*
X033608Y024868D01*
X033651Y024850D01*
X033699Y024835D01*
X033751Y024825D01*
X033808Y024819D01*
X033870Y024817D01*
X033648Y024317D01*
X033586Y024316D01*
X033419Y024304D01*
X033369Y024297D01*
X033276Y024278D01*
X033234Y024266D01*
X033195Y024253D01*
X033159Y024237D01*
X033462Y025021D01*
X033482Y024982D01*
D02*
G37*
G36*
X029146Y023968D02*
X029129Y023962D01*
X029114Y023952D01*
X029101Y023938D01*
X029090Y023920D01*
X029081Y023898D01*
X029074Y023872D01*
X029069Y023842D01*
X029066Y023808D01*
X029065Y023770D01*
X028865D01*
X028864Y023808D01*
X028861Y023842D01*
X028856Y023872D01*
X028849Y023898D01*
X028840Y023920D01*
X028829Y023938D01*
X028816Y023952D01*
X028801Y023962D01*
X028784Y023968D01*
X028765Y023970D01*
X029165D01*
X029146Y023968D01*
D02*
G37*
G36*
X029065Y023164D02*
X029066Y023137D01*
X029069Y023109D01*
X029074Y023082D01*
X029082Y023055D01*
X029092Y023029D01*
X029104Y023004D01*
X029118Y022978D01*
X029134Y022953D01*
X029152Y022929D01*
X029173Y022905D01*
X028746Y022930D01*
X028769Y022951D01*
X028789Y022973D01*
X028807Y022996D01*
X028822Y023019D01*
X028835Y023043D01*
X028846Y023068D01*
X028854Y023094D01*
X028860Y023121D01*
X028863Y023149D01*
X028865Y023177D01*
X029065Y023164D01*
D02*
G37*
%LPC*%
G36*
X028863Y039290D02*
Y038948D01*
X029205D01*
X029198Y039001D01*
X029158Y039097D01*
X029095Y039180D01*
X029012Y039243D01*
X028916Y039283D01*
X028863Y039290D01*
D02*
G37*
G36*
X045553Y039454D02*
X045450Y039440D01*
X045353Y039400D01*
X045271Y039337D01*
X045207Y039254D01*
X045168Y039158D01*
X045154Y039055D01*
X045168Y038952D01*
X045207Y038856D01*
X045271Y038773D01*
X045353Y038710D01*
X045450Y038670D01*
X045553Y038656D01*
X045656Y038670D01*
X045752Y038710D01*
X045835Y038773D01*
X045898Y038856D01*
X045938Y038952D01*
X045951Y039055D01*
X045938Y039158D01*
X045898Y039254D01*
X045835Y039337D01*
X045752Y039400D01*
X045656Y039440D01*
X045553Y039454D01*
D02*
G37*
G36*
X044553D02*
X044450Y039440D01*
X044353Y039400D01*
X044271Y039337D01*
X044207Y039254D01*
X044168Y039158D01*
X044154Y039055D01*
X044168Y038952D01*
X044207Y038856D01*
X044271Y038773D01*
X044353Y038710D01*
X044450Y038670D01*
X044553Y038656D01*
X044656Y038670D01*
X044752Y038710D01*
X044835Y038773D01*
X044898Y038856D01*
X044938Y038952D01*
X044951Y039055D01*
X044938Y039158D01*
X044898Y039254D01*
X044835Y039337D01*
X044752Y039400D01*
X044656Y039440D01*
X044553Y039454D01*
D02*
G37*
G36*
X029205Y038848D02*
X028863D01*
Y038506D01*
X028916Y038513D01*
X029012Y038552D01*
X029095Y038616D01*
X029158Y038698D01*
X029198Y038794D01*
X029205Y038848D01*
D02*
G37*
G36*
X031034Y038188D02*
Y038034D01*
X031188D01*
X031182Y038066D01*
X031135Y038135D01*
X031066Y038182D01*
X031034Y038188D01*
D02*
G37*
G36*
X030934D02*
X030902Y038182D01*
X030833Y038135D01*
X030786Y038066D01*
X030780Y038034D01*
X030934D01*
Y038188D01*
D02*
G37*
G36*
X030534D02*
Y038034D01*
X030688D01*
X030682Y038066D01*
X030635Y038135D01*
X030566Y038182D01*
X030534Y038188D01*
D02*
G37*
G36*
X030434D02*
X030402Y038182D01*
X030333Y038135D01*
X030286Y038066D01*
X030280Y038034D01*
X030434D01*
Y038188D01*
D02*
G37*
G36*
X030034D02*
Y038034D01*
X030188D01*
X030182Y038066D01*
X030135Y038135D01*
X030066Y038182D01*
X030034Y038188D01*
D02*
G37*
G36*
X029934D02*
X029902Y038182D01*
X029833Y038135D01*
X029786Y038066D01*
X029780Y038034D01*
X029934D01*
Y038188D01*
D02*
G37*
G36*
X029534D02*
Y038034D01*
X029688D01*
X029682Y038066D01*
X029635Y038135D01*
X029566Y038182D01*
X029534Y038188D01*
D02*
G37*
G36*
X029434D02*
X029402Y038182D01*
X029333Y038135D01*
X029286Y038066D01*
X029280Y038034D01*
X029434D01*
Y038188D01*
D02*
G37*
G36*
X032928Y038139D02*
X032720D01*
Y037912D01*
X032928D01*
Y038139D01*
D02*
G37*
G36*
X031188Y037934D02*
X030780D01*
X030786Y037902D01*
X030833Y037833D01*
X030861Y037814D01*
Y037753D01*
X030842Y037740D01*
X030795Y037671D01*
X030789Y037639D01*
X031197D01*
X031191Y037671D01*
X031144Y037740D01*
X031116Y037759D01*
Y037820D01*
X031135Y037833D01*
X031182Y037902D01*
X031188Y037934D01*
D02*
G37*
G36*
X030688D02*
X030280D01*
X030286Y037902D01*
X030333Y037833D01*
X030361Y037814D01*
Y037753D01*
X030342Y037740D01*
X030295Y037671D01*
X030289Y037639D01*
X030697D01*
X030691Y037671D01*
X030644Y037740D01*
X030616Y037759D01*
Y037820D01*
X030635Y037833D01*
X030682Y037902D01*
X030688Y037934D01*
D02*
G37*
G36*
X030188D02*
X029780D01*
X029786Y037902D01*
X029833Y037833D01*
X029861Y037814D01*
Y037753D01*
X029842Y037740D01*
X029795Y037671D01*
X029789Y037639D01*
X030197D01*
X030191Y037671D01*
X030144Y037740D01*
X030116Y037759D01*
Y037820D01*
X030135Y037833D01*
X030182Y037902D01*
X030188Y037934D01*
D02*
G37*
G36*
X029688D02*
X029280D01*
X029286Y037902D01*
X029333Y037833D01*
X029361Y037814D01*
Y037753D01*
X029342Y037740D01*
X029295Y037671D01*
X029289Y037639D01*
X029697D01*
X029691Y037671D01*
X029644Y037740D01*
X029616Y037759D01*
Y037820D01*
X029635Y037833D01*
X029682Y037902D01*
X029688Y037934D01*
D02*
G37*
G36*
X031197Y037539D02*
X031043D01*
Y037385D01*
X031075Y037391D01*
X031144Y037438D01*
X031191Y037507D01*
X031197Y037539D01*
D02*
G37*
G36*
X030943D02*
X030789D01*
X030795Y037507D01*
X030842Y037438D01*
X030911Y037391D01*
X030943Y037385D01*
Y037539D01*
D02*
G37*
G36*
X030697D02*
X030543D01*
Y037385D01*
X030575Y037391D01*
X030644Y037438D01*
X030691Y037507D01*
X030697Y037539D01*
D02*
G37*
G36*
X030443D02*
X030289D01*
X030295Y037507D01*
X030342Y037438D01*
X030411Y037391D01*
X030443Y037385D01*
Y037539D01*
D02*
G37*
G36*
X030197D02*
X030043D01*
Y037385D01*
X030075Y037391D01*
X030144Y037438D01*
X030191Y037507D01*
X030197Y037539D01*
D02*
G37*
G36*
X029943D02*
X029789D01*
X029795Y037507D01*
X029842Y037438D01*
X029911Y037391D01*
X029943Y037385D01*
Y037539D01*
D02*
G37*
G36*
X029697D02*
X029543D01*
Y037385D01*
X029575Y037391D01*
X029644Y037438D01*
X029691Y037507D01*
X029697Y037539D01*
D02*
G37*
G36*
X029443D02*
X029289D01*
X029295Y037507D01*
X029342Y037438D01*
X029411Y037391D01*
X029443Y037385D01*
Y037539D01*
D02*
G37*
G36*
X033609Y037333D02*
X033577Y037327D01*
X033508Y037280D01*
X033489Y037252D01*
X033428D01*
X033415Y037271D01*
X033346Y037318D01*
X033314Y037324D01*
Y037120D01*
Y036916D01*
X033346Y036922D01*
X033415Y036969D01*
X033434Y036997D01*
X033495D01*
X033508Y036978D01*
X033577Y036931D01*
X033609Y036925D01*
Y037129D01*
Y037333D01*
D02*
G37*
G36*
X033709D02*
Y037179D01*
X033863D01*
X033857Y037211D01*
X033810Y037280D01*
X033741Y037327D01*
X033709Y037333D01*
D02*
G37*
G36*
X033214Y037324D02*
X033182Y037318D01*
X033113Y037271D01*
X033066Y037202D01*
X033060Y037170D01*
X033214D01*
Y037324D01*
D02*
G37*
G36*
X033863Y037079D02*
X033709D01*
Y036925D01*
X033741Y036931D01*
X033810Y036978D01*
X033857Y037047D01*
X033863Y037079D01*
D02*
G37*
G36*
X042700Y037067D02*
X042532D01*
Y036919D01*
X042700D01*
Y037067D01*
D02*
G37*
G36*
X033214Y037070D02*
X033060D01*
X033066Y037038D01*
X033113Y036969D01*
X033182Y036922D01*
X033214Y036916D01*
Y037070D01*
D02*
G37*
G36*
X033609Y036833D02*
X033577Y036827D01*
X033508Y036780D01*
X033489Y036752D01*
X033428D01*
X033415Y036771D01*
X033346Y036818D01*
X033314Y036824D01*
Y036620D01*
Y036416D01*
X033346Y036422D01*
X033415Y036469D01*
X033434Y036497D01*
X033495D01*
X033508Y036478D01*
X033577Y036431D01*
X033609Y036425D01*
Y036629D01*
Y036833D01*
D02*
G37*
G36*
X033709D02*
Y036679D01*
X033863D01*
X033857Y036711D01*
X033810Y036780D01*
X033741Y036827D01*
X033709Y036833D01*
D02*
G37*
G36*
X042700Y036819D02*
X042532D01*
Y036671D01*
X042700D01*
Y036819D01*
D02*
G37*
G36*
X033214Y036824D02*
X033182Y036818D01*
X033113Y036771D01*
X033066Y036702D01*
X033060Y036670D01*
X033214D01*
Y036824D01*
D02*
G37*
G36*
X029996Y036973D02*
Y036621D01*
X030348D01*
X030341Y036677D01*
X030300Y036775D01*
X030235Y036860D01*
X030151Y036925D01*
X030052Y036966D01*
X029996Y036973D01*
D02*
G37*
G36*
X029896D02*
X029841Y036966D01*
X029742Y036925D01*
X029658Y036860D01*
X029593Y036775D01*
X029552Y036677D01*
X029544Y036621D01*
X029896D01*
Y036973D01*
D02*
G37*
G36*
X033863Y036579D02*
X033709D01*
Y036425D01*
X033741Y036431D01*
X033810Y036478D01*
X033857Y036547D01*
X033863Y036579D01*
D02*
G37*
G36*
X033214Y036570D02*
X033060D01*
X033066Y036538D01*
X033113Y036469D01*
X033182Y036422D01*
X033214Y036416D01*
Y036570D01*
D02*
G37*
G36*
X033609Y036333D02*
X033577Y036327D01*
X033508Y036280D01*
X033489Y036252D01*
X033428D01*
X033415Y036271D01*
X033346Y036318D01*
X033314Y036324D01*
Y036120D01*
Y035916D01*
X033346Y035922D01*
X033415Y035969D01*
X033434Y035997D01*
X033495D01*
X033508Y035978D01*
X033577Y035931D01*
X033609Y035925D01*
Y036129D01*
Y036333D01*
D02*
G37*
G36*
X033709D02*
Y036179D01*
X033863D01*
X033857Y036211D01*
X033810Y036280D01*
X033741Y036327D01*
X033709Y036333D01*
D02*
G37*
G36*
X033214Y036324D02*
X033182Y036318D01*
X033113Y036271D01*
X033066Y036202D01*
X033060Y036170D01*
X033214D01*
Y036324D01*
D02*
G37*
G36*
X030348Y036521D02*
X029996D01*
Y036169D01*
X030052Y036176D01*
X030151Y036217D01*
X030235Y036282D01*
X030300Y036367D01*
X030341Y036465D01*
X030348Y036521D01*
D02*
G37*
G36*
X029896D02*
X029544D01*
X029552Y036465D01*
X029593Y036367D01*
X029658Y036282D01*
X029742Y036217D01*
X029841Y036176D01*
X029896Y036169D01*
Y036521D01*
D02*
G37*
G36*
X033863Y036079D02*
X033709D01*
Y035925D01*
X033741Y035931D01*
X033810Y035978D01*
X033857Y036047D01*
X033863Y036079D01*
D02*
G37*
G36*
X033214Y036070D02*
X033060D01*
X033066Y036038D01*
X033113Y035969D01*
X033182Y035922D01*
X033214Y035916D01*
Y036070D01*
D02*
G37*
G36*
X033609Y035833D02*
X033577Y035827D01*
X033508Y035780D01*
X033489Y035752D01*
X033428D01*
X033415Y035771D01*
X033346Y035818D01*
X033314Y035824D01*
Y035620D01*
Y035416D01*
X033346Y035422D01*
X033415Y035469D01*
X033434Y035497D01*
X033495D01*
X033508Y035478D01*
X033577Y035431D01*
X033609Y035425D01*
Y035629D01*
Y035833D01*
D02*
G37*
G36*
X033709D02*
Y035679D01*
X033863D01*
X033857Y035711D01*
X033810Y035780D01*
X033741Y035827D01*
X033709Y035833D01*
D02*
G37*
G36*
X033214Y035824D02*
X033182Y035818D01*
X033113Y035771D01*
X033066Y035702D01*
X033060Y035670D01*
X033214D01*
Y035824D01*
D02*
G37*
G36*
X033863Y035579D02*
X033709D01*
Y035425D01*
X033741Y035431D01*
X033810Y035478D01*
X033857Y035547D01*
X033863Y035579D01*
D02*
G37*
G36*
X038257Y035897D02*
Y035416D01*
X038738D01*
X038726Y035505D01*
X038673Y035635D01*
X038587Y035746D01*
X038476Y035832D01*
X038346Y035885D01*
X038257Y035897D01*
D02*
G37*
G36*
X036257D02*
Y035416D01*
X036738D01*
X036726Y035505D01*
X036673Y035635D01*
X036587Y035746D01*
X036476Y035832D01*
X036346Y035885D01*
X036257Y035897D01*
D02*
G37*
G36*
X038157D02*
X038068Y035885D01*
X037938Y035832D01*
X037827Y035746D01*
X037741Y035635D01*
X037688Y035505D01*
X037676Y035416D01*
X038157D01*
Y035897D01*
D02*
G37*
G36*
X036157D02*
X036068Y035885D01*
X035938Y035832D01*
X035827Y035746D01*
X035741Y035635D01*
X035688Y035505D01*
X035676Y035416D01*
X036157D01*
Y035897D01*
D02*
G37*
G36*
X033214Y035570D02*
X033060D01*
X033066Y035538D01*
X033113Y035469D01*
X033182Y035422D01*
X033214Y035416D01*
Y035570D01*
D02*
G37*
G36*
X038738Y035316D02*
X038257D01*
Y034835D01*
X038346Y034847D01*
X038476Y034900D01*
X038587Y034986D01*
X038673Y035097D01*
X038726Y035227D01*
X038738Y035316D01*
D02*
G37*
G36*
X036738D02*
X036257D01*
Y034835D01*
X036346Y034847D01*
X036476Y034900D01*
X036587Y034986D01*
X036673Y035097D01*
X036726Y035227D01*
X036738Y035316D01*
D02*
G37*
G36*
X038157D02*
X037676D01*
X037688Y035227D01*
X037741Y035097D01*
X037827Y034986D01*
X037938Y034900D01*
X038068Y034847D01*
X038157Y034835D01*
Y035316D01*
D02*
G37*
G36*
X036157D02*
X035676D01*
X035688Y035227D01*
X035741Y035097D01*
X035827Y034986D01*
X035938Y034900D01*
X036068Y034847D01*
X036157Y034835D01*
Y035316D01*
D02*
G37*
G36*
X030058Y034926D02*
X029831D01*
Y034718D01*
X030058D01*
Y034926D01*
D02*
G37*
G36*
X029731D02*
X029504D01*
Y034718D01*
X029731D01*
Y034926D01*
D02*
G37*
G36*
X033238Y034787D02*
X033011D01*
Y034580D01*
X033238D01*
Y034787D01*
D02*
G37*
G36*
X032911D02*
X032684D01*
Y034580D01*
X032911D01*
Y034787D01*
D02*
G37*
G36*
X045852Y036348D02*
X045062D01*
Y036157D01*
X044059D01*
X043981Y036141D01*
X043971Y036135D01*
X043955Y036131D01*
X043889Y036087D01*
X043719Y035917D01*
X043419D01*
X043341Y035902D01*
X043314Y035883D01*
X043039D01*
Y035543D01*
Y035140D01*
X042873D01*
X042795Y035124D01*
X042729Y035080D01*
X041944Y034295D01*
X041900Y034229D01*
X041884Y034151D01*
Y032950D01*
X041884Y032949D01*
X041870D01*
Y032852D01*
X041869Y032848D01*
X041870Y032844D01*
Y032789D01*
X041857Y032724D01*
Y031918D01*
X041857Y031916D01*
X041854Y031900D01*
X041851Y031886D01*
X041847Y031873D01*
X041842Y031862D01*
X041836Y031851D01*
X041830Y031841D01*
X041823Y031832D01*
X041817Y031826D01*
X041811Y031822D01*
X041755Y031749D01*
X041720Y031663D01*
X041708Y031572D01*
X041720Y031481D01*
X041755Y031395D01*
X041811Y031322D01*
X041884Y031266D01*
X041970Y031231D01*
X042061Y031219D01*
X042152Y031231D01*
X042238Y031266D01*
X042311Y031322D01*
X042367Y031395D01*
X042402Y031481D01*
X042414Y031572D01*
X042402Y031663D01*
X042367Y031749D01*
X042311Y031822D01*
X042305Y031826D01*
X042299Y031832D01*
X042292Y031841D01*
X042286Y031851D01*
X042280Y031862D01*
X042275Y031873D01*
X042271Y031886D01*
X042268Y031900D01*
X042265Y031916D01*
X042265Y031918D01*
Y032517D01*
X042267Y032547D01*
X042267Y032553D01*
X042432D01*
Y032751D01*
Y032949D01*
X042295D01*
X042292Y032988D01*
Y034067D01*
X042957Y034732D01*
X043039D01*
Y034723D01*
X043799D01*
Y034763D01*
Y035249D01*
X044872D01*
X045071Y035050D01*
X045058Y034953D01*
X045072Y034850D01*
X045112Y034753D01*
X045175Y034671D01*
X045258Y034607D01*
X045354Y034568D01*
X045457Y034554D01*
X045560Y034568D01*
X045656Y034607D01*
X045739Y034671D01*
X045802Y034753D01*
X045842Y034850D01*
X045856Y034953D01*
X045842Y035056D01*
X045802Y035152D01*
X045739Y035235D01*
X045656Y035298D01*
X045560Y035338D01*
X045457Y035351D01*
X045360Y035339D01*
X045187Y035511D01*
X045206Y035557D01*
X045852D01*
Y036348D01*
D02*
G37*
G36*
X029271Y034067D02*
X029044D01*
Y033859D01*
X029271D01*
Y034067D01*
D02*
G37*
G36*
X028944D02*
X028717D01*
Y033859D01*
X028944D01*
Y034067D01*
D02*
G37*
G36*
X043799Y034623D02*
X043039D01*
Y034243D01*
Y033983D01*
Y033723D01*
X043314D01*
X043341Y033705D01*
X043419Y033689D01*
X043432D01*
X045071Y032050D01*
X045058Y031953D01*
X045072Y031850D01*
X045112Y031753D01*
X045175Y031671D01*
X045258Y031607D01*
X045354Y031568D01*
X045457Y031554D01*
X045560Y031568D01*
X045656Y031607D01*
X045739Y031671D01*
X045802Y031753D01*
X045842Y031850D01*
X045856Y031953D01*
X045842Y032056D01*
X045802Y032152D01*
X045739Y032235D01*
X045656Y032298D01*
X045560Y032338D01*
X045457Y032351D01*
X045360Y032339D01*
X043813Y033886D01*
X043831Y033936D01*
X044186D01*
X045071Y033050D01*
X045058Y032953D01*
X045072Y032850D01*
X045112Y032753D01*
X045175Y032671D01*
X045258Y032607D01*
X045354Y032568D01*
X045457Y032554D01*
X045560Y032568D01*
X045656Y032607D01*
X045739Y032671D01*
X045802Y032753D01*
X045842Y032850D01*
X045856Y032953D01*
X045842Y033056D01*
X045802Y033152D01*
X045739Y033235D01*
X045656Y033298D01*
X045560Y033338D01*
X045457Y033351D01*
X045360Y033339D01*
X044535Y034163D01*
X044554Y034209D01*
X044912D01*
X045071Y034050D01*
X045058Y033953D01*
X045072Y033850D01*
X045112Y033753D01*
X045175Y033671D01*
X045258Y033607D01*
X045354Y033568D01*
X045457Y033554D01*
X045560Y033568D01*
X045656Y033607D01*
X045739Y033671D01*
X045802Y033753D01*
X045842Y033850D01*
X045856Y033953D01*
X045842Y034056D01*
X045802Y034152D01*
X045739Y034235D01*
X045656Y034298D01*
X045560Y034338D01*
X045457Y034351D01*
X045360Y034339D01*
X045141Y034557D01*
X045075Y034602D01*
X044997Y034617D01*
X043799D01*
Y034623D01*
D02*
G37*
G36*
X036257Y033897D02*
Y033416D01*
X036738D01*
X036726Y033505D01*
X036673Y033635D01*
X036587Y033746D01*
X036476Y033832D01*
X036346Y033885D01*
X036257Y033897D01*
D02*
G37*
G36*
X038257D02*
Y033416D01*
X038738D01*
X038726Y033505D01*
X038673Y033635D01*
X038587Y033746D01*
X038476Y033832D01*
X038346Y033885D01*
X038257Y033897D01*
D02*
G37*
G36*
X036157D02*
X036068Y033885D01*
X035938Y033832D01*
X035827Y033746D01*
X035741Y033635D01*
X035688Y033505D01*
X035676Y033416D01*
X036157D01*
Y033897D01*
D02*
G37*
G36*
X038157D02*
X038068Y033885D01*
X037938Y033832D01*
X037827Y033746D01*
X037741Y033635D01*
X037688Y033505D01*
X037676Y033416D01*
X038157D01*
Y033897D01*
D02*
G37*
G36*
X036738Y033316D02*
X036257D01*
Y032835D01*
X036346Y032847D01*
X036476Y032900D01*
X036587Y032986D01*
X036673Y033097D01*
X036726Y033227D01*
X036738Y033316D01*
D02*
G37*
G36*
X038157D02*
X037676D01*
X037688Y033227D01*
X037741Y033097D01*
X037827Y032986D01*
X037938Y032900D01*
X038068Y032847D01*
X038157Y032835D01*
Y033316D01*
D02*
G37*
G36*
X036157D02*
X035676D01*
X035688Y033227D01*
X035741Y033097D01*
X035827Y032986D01*
X035938Y032900D01*
X036068Y032847D01*
X036157Y032835D01*
Y033316D01*
D02*
G37*
G36*
X042700Y032949D02*
X042532D01*
Y032801D01*
X042700D01*
Y032949D01*
D02*
G37*
G36*
X030393Y032800D02*
X030389Y032800D01*
X030383D01*
X030381Y032800D01*
X030381Y032800D01*
X030291D01*
Y032769D01*
X030247Y032766D01*
X029791D01*
X029713Y032750D01*
X029702Y032743D01*
X029683D01*
X029636Y032734D01*
X029596Y032707D01*
X029570Y032667D01*
X029561Y032621D01*
Y032503D01*
X029570Y032456D01*
X029596Y032416D01*
X029636Y032390D01*
X029683Y032381D01*
X029702D01*
X029713Y032373D01*
X029791Y032358D01*
X030244D01*
X030291Y032349D01*
Y032298D01*
X030291Y032285D01*
Y032248D01*
X030291Y032235D01*
Y032041D01*
X030569D01*
X030846D01*
Y032235D01*
X030846Y032248D01*
Y032285D01*
X030846Y032298D01*
Y032800D01*
X030396D01*
X030393Y032800D01*
D02*
G37*
G36*
X042700Y032701D02*
X042532D01*
Y032553D01*
X042700D01*
Y032701D01*
D02*
G37*
G36*
X030058Y034618D02*
X029504D01*
Y034424D01*
X029504Y034411D01*
Y034374D01*
X029504Y034361D01*
Y033964D01*
X029503Y033961D01*
X029504Y033957D01*
Y033859D01*
X029571D01*
X029573Y033847D01*
X029577Y033806D01*
Y033236D01*
X029575Y033190D01*
X029575Y033186D01*
X029570Y033179D01*
X029561Y033133D01*
Y033015D01*
X029570Y032968D01*
X029596Y032928D01*
X029636Y032902D01*
X029683Y032892D01*
X029702D01*
X029713Y032885D01*
X029791Y032870D01*
X031389D01*
X031477Y032782D01*
X031510Y032746D01*
X031534Y032716D01*
X031552Y032690D01*
X031554Y032687D01*
Y032203D01*
X032344D01*
Y032993D01*
X031860D01*
X031857Y032995D01*
X031832Y033012D01*
X031774Y033061D01*
X031618Y033218D01*
X031551Y033262D01*
X031473Y033277D01*
X029986D01*
X029985Y033296D01*
Y033813D01*
X029986Y033823D01*
X029989Y033846D01*
X029991Y033859D01*
X030058D01*
Y033957D01*
X030059Y033961D01*
X030058Y033964D01*
Y034361D01*
X030058Y034374D01*
Y034411D01*
X030058Y034424D01*
Y034618D01*
D02*
G37*
G36*
X033238Y034480D02*
X032684D01*
Y034272D01*
X032684D01*
Y034236D01*
X032678Y034188D01*
X032643Y034143D01*
X032608Y034058D01*
X032596Y033966D01*
Y032779D01*
X032564Y032701D01*
X032550Y032598D01*
X032564Y032495D01*
X032604Y032399D01*
X032667Y032316D01*
X032750Y032253D01*
X032846Y032213D01*
X032949Y032199D01*
X033052Y032213D01*
X033148Y032253D01*
X033231Y032316D01*
X033294Y032399D01*
X033334Y032495D01*
X033348Y032598D01*
X033334Y032701D01*
X033302Y032779D01*
Y033887D01*
X033314Y033978D01*
X033302Y034070D01*
X033267Y034155D01*
X033242Y034187D01*
X033238Y034236D01*
Y034272D01*
X033238D01*
Y034480D01*
D02*
G37*
G36*
X034975Y032187D02*
X034807D01*
Y032039D01*
X034975D01*
Y032187D01*
D02*
G37*
G36*
X030846Y031941D02*
X030619D01*
Y031733D01*
X030846D01*
Y031941D01*
D02*
G37*
G36*
X030519D02*
X030291D01*
Y031733D01*
X030519D01*
Y031941D01*
D02*
G37*
G36*
X030098Y031776D02*
X029871D01*
Y031568D01*
X030098D01*
Y031776D01*
D02*
G37*
G36*
X029771D02*
X029543D01*
Y031568D01*
X029771D01*
Y031776D01*
D02*
G37*
G36*
X029214Y032768D02*
X028984D01*
X028754D01*
Y032759D01*
X028763Y032712D01*
X028778Y032690D01*
X028763Y032667D01*
X028754Y032621D01*
Y032503D01*
X028763Y032456D01*
X028769Y032446D01*
X028770Y032443D01*
X028775Y032438D01*
X028780Y032346D01*
Y032211D01*
X028739Y032149D01*
X028719Y032051D01*
X028739Y031953D01*
X028794Y031871D01*
X028861Y031826D01*
X028846Y031776D01*
X028756D01*
Y031568D01*
X029310D01*
Y031776D01*
X029102D01*
X029087Y031826D01*
X029154Y031871D01*
X029209Y031953D01*
X029229Y032051D01*
X029209Y032149D01*
X029188Y032181D01*
Y032379D01*
X029191Y032422D01*
X029193Y032435D01*
X029193Y032437D01*
X029198Y032443D01*
X029199Y032446D01*
X029205Y032456D01*
X029214Y032503D01*
Y032621D01*
X029205Y032667D01*
X029190Y032690D01*
X029205Y032712D01*
X029214Y032759D01*
Y032768D01*
D02*
G37*
G36*
X031949Y031997D02*
X031846Y031983D01*
X031750Y031943D01*
X031667Y031880D01*
X031604Y031797D01*
X031564Y031701D01*
X031550Y031598D01*
X031552Y031588D01*
X031551Y031572D01*
X031549Y031551D01*
X031546Y031531D01*
X031541Y031513D01*
X031535Y031496D01*
X031528Y031479D01*
X031519Y031463D01*
X031509Y031448D01*
X031504Y031441D01*
X031234Y031171D01*
X030146D01*
X030098Y031201D01*
X030098Y031261D01*
X030098Y031275D01*
Y031468D01*
X029543D01*
Y031275D01*
X029543Y031261D01*
Y031225D01*
X029543Y031211D01*
Y030815D01*
X029543Y030811D01*
X029543Y030807D01*
Y030710D01*
X029601D01*
X029603Y030700D01*
X029606Y030661D01*
Y030209D01*
X029603Y030166D01*
X029602Y030153D01*
X029601Y030151D01*
X029597Y030145D01*
X029596Y030142D01*
X029589Y030132D01*
X029580Y030085D01*
Y029967D01*
X029589Y029921D01*
X029616Y029881D01*
X029655Y029855D01*
X029702Y029845D01*
X029721D01*
X029732Y029838D01*
X029810Y029822D01*
X029888Y029838D01*
X029899Y029845D01*
X029919D01*
X029965Y029855D01*
X030005Y029881D01*
X030031Y029921D01*
X030041Y029967D01*
Y030085D01*
X030031Y030132D01*
X030025Y030142D01*
X030024Y030145D01*
X030020Y030150D01*
X030014Y030242D01*
Y030660D01*
X030015Y030672D01*
X030018Y030694D01*
X030022Y030710D01*
X030098D01*
Y030760D01*
X030106Y030761D01*
X030142Y030763D01*
X031318D01*
X031396Y030779D01*
X031462Y030823D01*
X031792Y031153D01*
X031799Y031158D01*
X031814Y031168D01*
X031830Y031177D01*
X031847Y031184D01*
X031864Y031190D01*
X031882Y031195D01*
X031902Y031198D01*
X031923Y031200D01*
X031939Y031201D01*
X031949Y031199D01*
X032052Y031213D01*
X032148Y031253D01*
X032231Y031316D01*
X032294Y031399D01*
X032334Y031495D01*
X032348Y031598D01*
X032334Y031701D01*
X032294Y031797D01*
X032231Y031880D01*
X032148Y031943D01*
X032052Y031983D01*
X031949Y031997D01*
D02*
G37*
G36*
X034971Y030680D02*
X034803D01*
Y030532D01*
X034971D01*
Y030680D01*
D02*
G37*
G36*
X044685Y030505D02*
X044537D01*
Y030337D01*
X044685D01*
Y030505D01*
D02*
G37*
G36*
X044437D02*
X044289D01*
Y030337D01*
X044437D01*
Y030505D01*
D02*
G37*
G36*
X034973Y030467D02*
X034805D01*
Y030319D01*
X034973D01*
Y030467D01*
D02*
G37*
G36*
Y030219D02*
X034805D01*
Y030071D01*
X034973D01*
Y030219D01*
D02*
G37*
G36*
X039293Y030009D02*
X039175D01*
Y029891D01*
X039193Y029894D01*
X039251Y029933D01*
X039290Y029991D01*
X039293Y030009D01*
D02*
G37*
G36*
X039075D02*
X038957D01*
X038960Y029991D01*
X038999Y029933D01*
X039057Y029894D01*
X039075Y029891D01*
Y030009D01*
D02*
G37*
G36*
X041911Y029738D02*
Y029584D01*
X042065D01*
X042059Y029616D01*
X042012Y029685D01*
X041943Y029732D01*
X041911Y029738D01*
D02*
G37*
G36*
X041811D02*
X041779Y029732D01*
X041710Y029685D01*
X041663Y029616D01*
X041657Y029584D01*
X041811D01*
Y029738D01*
D02*
G37*
G36*
X041411D02*
Y029584D01*
X041565D01*
X041559Y029616D01*
X041512Y029685D01*
X041443Y029732D01*
X041411Y029738D01*
D02*
G37*
G36*
X041311D02*
X041279Y029732D01*
X041210Y029685D01*
X041163Y029616D01*
X041157Y029584D01*
X041311D01*
Y029738D01*
D02*
G37*
G36*
X040911D02*
Y029584D01*
X041065D01*
X041059Y029616D01*
X041012Y029685D01*
X040943Y029732D01*
X040911Y029738D01*
D02*
G37*
G36*
X040811D02*
X040779Y029732D01*
X040710Y029685D01*
X040663Y029616D01*
X040657Y029584D01*
X040811D01*
Y029738D01*
D02*
G37*
G36*
X040411D02*
Y029584D01*
X040565D01*
X040559Y029616D01*
X040512Y029685D01*
X040443Y029732D01*
X040411Y029738D01*
D02*
G37*
G36*
X040311D02*
X040279Y029732D01*
X040210Y029685D01*
X040163Y029616D01*
X040157Y029584D01*
X040311D01*
Y029738D01*
D02*
G37*
G36*
X042065Y029484D02*
X041657D01*
X041663Y029452D01*
X041710Y029383D01*
X041738Y029364D01*
Y029303D01*
X041719Y029290D01*
X041672Y029221D01*
X041666Y029189D01*
X042074D01*
X042068Y029221D01*
X042021Y029290D01*
X041993Y029309D01*
Y029370D01*
X042012Y029383D01*
X042059Y029452D01*
X042065Y029484D01*
D02*
G37*
G36*
X041565D02*
X041157D01*
X041163Y029452D01*
X041210Y029383D01*
X041238Y029364D01*
Y029303D01*
X041219Y029290D01*
X041172Y029221D01*
X041166Y029189D01*
X041574D01*
X041568Y029221D01*
X041521Y029290D01*
X041493Y029309D01*
Y029370D01*
X041512Y029383D01*
X041559Y029452D01*
X041565Y029484D01*
D02*
G37*
G36*
X041065D02*
X040657D01*
X040663Y029452D01*
X040710Y029383D01*
X040738Y029364D01*
Y029303D01*
X040719Y029290D01*
X040672Y029221D01*
X040666Y029189D01*
X041074D01*
X041068Y029221D01*
X041021Y029290D01*
X040993Y029309D01*
Y029370D01*
X041012Y029383D01*
X041059Y029452D01*
X041065Y029484D01*
D02*
G37*
G36*
X040565D02*
X040157D01*
X040163Y029452D01*
X040210Y029383D01*
X040238Y029364D01*
Y029303D01*
X040219Y029290D01*
X040172Y029221D01*
X040166Y029189D01*
X040574D01*
X040568Y029221D01*
X040521Y029290D01*
X040493Y029309D01*
Y029370D01*
X040512Y029383D01*
X040559Y029452D01*
X040565Y029484D01*
D02*
G37*
G36*
X030432Y029769D02*
X030428Y029768D01*
X030331D01*
Y029723D01*
X030282Y029718D01*
X029810D01*
X029732Y029703D01*
X029721Y029696D01*
X029702D01*
X029655Y029686D01*
X029616Y029660D01*
X029589Y029620D01*
X029580Y029574D01*
Y029455D01*
X029589Y029409D01*
X029616Y029369D01*
X029655Y029343D01*
X029702Y029333D01*
X029721D01*
X029732Y029326D01*
X029810Y029311D01*
X030283D01*
X030331Y029291D01*
X030331Y029217D01*
X030331Y029203D01*
Y029009D01*
X030608D01*
X030885D01*
Y029203D01*
X030885Y029217D01*
Y029253D01*
X030885Y029267D01*
Y029768D01*
X030436D01*
X030432Y029769D01*
D02*
G37*
G36*
X042074Y029089D02*
X041920D01*
Y028935D01*
X041952Y028941D01*
X042021Y028988D01*
X042068Y029057D01*
X042074Y029089D01*
D02*
G37*
G36*
X041820D02*
X041666D01*
X041672Y029057D01*
X041719Y028988D01*
X041788Y028941D01*
X041820Y028935D01*
Y029089D01*
D02*
G37*
G36*
X041574D02*
X041420D01*
Y028935D01*
X041452Y028941D01*
X041521Y028988D01*
X041568Y029057D01*
X041574Y029089D01*
D02*
G37*
G36*
X041320D02*
X041166D01*
X041172Y029057D01*
X041219Y028988D01*
X041288Y028941D01*
X041320Y028935D01*
Y029089D01*
D02*
G37*
G36*
X041074D02*
X040920D01*
Y028935D01*
X040952Y028941D01*
X041021Y028988D01*
X041068Y029057D01*
X041074Y029089D01*
D02*
G37*
G36*
X040820D02*
X040666D01*
X040672Y029057D01*
X040719Y028988D01*
X040788Y028941D01*
X040820Y028935D01*
Y029089D01*
D02*
G37*
G36*
X040574D02*
X040420D01*
Y028935D01*
X040452Y028941D01*
X040521Y028988D01*
X040568Y029057D01*
X040574Y029089D01*
D02*
G37*
G36*
X040320D02*
X040166D01*
X040172Y029057D01*
X040219Y028988D01*
X040288Y028941D01*
X040320Y028935D01*
Y029089D01*
D02*
G37*
G36*
X030885Y028909D02*
X030658D01*
Y028702D01*
X030885D01*
Y028909D01*
D02*
G37*
G36*
X030558D02*
X030331D01*
Y028702D01*
X030558D01*
Y028909D01*
D02*
G37*
G36*
X034971Y028608D02*
X034803D01*
Y028460D01*
X034971D01*
Y028608D01*
D02*
G37*
G36*
Y028360D02*
X034803D01*
Y028212D01*
X034971D01*
Y028360D01*
D02*
G37*
G36*
X029996Y027922D02*
Y027570D01*
X030348D01*
X030341Y027625D01*
X030300Y027724D01*
X030235Y027809D01*
X030151Y027874D01*
X030052Y027914D01*
X029996Y027922D01*
D02*
G37*
G36*
X029896D02*
X029841Y027914D01*
X029742Y027874D01*
X029658Y027809D01*
X029593Y027724D01*
X029552Y027625D01*
X029544Y027570D01*
X029896D01*
Y027922D01*
D02*
G37*
G36*
X030348Y027470D02*
X029996D01*
Y027118D01*
X030052Y027125D01*
X030151Y027166D01*
X030235Y027231D01*
X030300Y027315D01*
X030341Y027414D01*
X030348Y027470D01*
D02*
G37*
G36*
X029896D02*
X029544D01*
X029552Y027414D01*
X029593Y027315D01*
X029658Y027231D01*
X029742Y027166D01*
X029841Y027125D01*
X029896Y027118D01*
Y027470D01*
D02*
G37*
G36*
X032507Y027194D02*
X032280D01*
Y026987D01*
X032507D01*
Y027194D01*
D02*
G37*
G36*
X032180D02*
X031953D01*
Y026987D01*
X032180D01*
Y027194D01*
D02*
G37*
G36*
X030184Y026478D02*
X029957D01*
Y026270D01*
X030184D01*
Y026478D01*
D02*
G37*
G36*
X029857D02*
X029630D01*
Y026270D01*
X029857D01*
Y026478D01*
D02*
G37*
G36*
X029121D02*
X028894D01*
Y026270D01*
X029121D01*
Y026478D01*
D02*
G37*
G36*
X028794D02*
X028567D01*
Y026270D01*
X028794D01*
Y026478D01*
D02*
G37*
G36*
X044542Y025832D02*
X044350D01*
Y025641D01*
X044542D01*
Y025832D01*
D02*
G37*
G36*
X042180D02*
X041988D01*
Y025641D01*
X042180D01*
Y025832D01*
D02*
G37*
G36*
X044907Y023617D02*
X044828D01*
X044774Y023606D01*
X044740Y023583D01*
X044706Y023606D01*
X044662Y023614D01*
Y023346D01*
X044562D01*
Y023614D01*
X044518Y023606D01*
X044484Y023583D01*
X044450Y023606D01*
X044395Y023617D01*
X044317D01*
X044262Y023606D01*
X044216Y023575D01*
X044185Y023529D01*
X044174Y023474D01*
Y023435D01*
X044168Y023424D01*
X044152Y023346D01*
Y021183D01*
X044110D01*
Y020392D01*
X044901D01*
Y021183D01*
X044560D01*
Y021884D01*
X044621D01*
Y022126D01*
X044721D01*
Y021884D01*
X045306D01*
Y022263D01*
X045307Y022267D01*
X045306Y022270D01*
Y022368D01*
X045306D01*
X045294Y022389D01*
X045300Y022436D01*
X045305Y022439D01*
X045330Y022449D01*
X045403Y022505D01*
X045459Y022578D01*
X045494Y022664D01*
X045506Y022755D01*
X045494Y022846D01*
X045459Y022932D01*
X045403Y023005D01*
X045330Y023061D01*
X045244Y023096D01*
X045153Y023108D01*
X045146Y023107D01*
X045138Y023107D01*
X045126Y023109D01*
X045115Y023111D01*
X045103Y023115D01*
X045092Y023120D01*
X045080Y023126D01*
X045072Y023130D01*
Y023346D01*
X045056Y023424D01*
X045049Y023435D01*
Y023474D01*
X045038Y023529D01*
X045008Y023575D01*
X044961Y023606D01*
X044907Y023617D01*
D02*
G37*
G36*
X032497Y023671D02*
X032329D01*
Y023523D01*
X032497D01*
Y023671D01*
D02*
G37*
G36*
X041078D02*
X040910D01*
Y023523D01*
X041078D01*
Y023671D01*
D02*
G37*
G36*
X032497Y023423D02*
X032329D01*
Y023275D01*
X032497D01*
Y023423D01*
D02*
G37*
G36*
X031677Y023400D02*
X031450D01*
Y023193D01*
X031677D01*
Y023400D01*
D02*
G37*
G36*
X031350D02*
X031123D01*
Y023193D01*
X031350D01*
Y023400D01*
D02*
G37*
G36*
X029996Y023102D02*
Y022750D01*
X030348D01*
X030341Y022806D01*
X030300Y022904D01*
X030235Y022989D01*
X030151Y023054D01*
X030052Y023095D01*
X029996Y023102D01*
D02*
G37*
G36*
X029896D02*
X029841Y023095D01*
X029742Y023054D01*
X029658Y022989D01*
X029593Y022904D01*
X029552Y022806D01*
X029544Y022750D01*
X029896D01*
Y023102D01*
D02*
G37*
G36*
X030348Y022650D02*
X029996D01*
Y022298D01*
X030052Y022305D01*
X030151Y022346D01*
X030235Y022411D01*
X030300Y022496D01*
X030341Y022594D01*
X030348Y022650D01*
D02*
G37*
G36*
X029896D02*
X029544D01*
X029552Y022594D01*
X029593Y022496D01*
X029658Y022411D01*
X029742Y022346D01*
X029841Y022305D01*
X029896Y022298D01*
Y022650D01*
D02*
G37*
G36*
X042180Y022076D02*
X041988D01*
Y021884D01*
X042180D01*
Y022076D01*
D02*
G37*
G36*
X034055Y023896D02*
X033964Y023884D01*
X033878Y023849D01*
X033805Y023793D01*
X033749Y023720D01*
X033746Y023711D01*
X033741Y023703D01*
X033737Y023698D01*
X033732Y023694D01*
X033727Y023690D01*
X033721Y023686D01*
X033713Y023683D01*
X033703Y023680D01*
X033690Y023677D01*
X033686Y023677D01*
X032941D01*
X032913Y023671D01*
X032597D01*
Y023473D01*
Y023275D01*
X032913D01*
X032941Y023269D01*
X033765D01*
X033779Y023268D01*
X033816Y023261D01*
X033830Y023258D01*
X033844Y023253D01*
X033858Y023248D01*
X033871Y023242D01*
X033875Y023240D01*
X033878Y023237D01*
X033964Y023202D01*
X034055Y023190D01*
X034146Y023202D01*
X034232Y023237D01*
X034235Y023240D01*
X034239Y023242D01*
X034252Y023248D01*
X034266Y023253D01*
X034279Y023257D01*
X034313Y023265D01*
X034328Y023267D01*
X034350Y023269D01*
X034574D01*
Y023207D01*
X034573Y023205D01*
X034572Y023183D01*
X034568Y023165D01*
X034561Y023144D01*
X034550Y023119D01*
X034535Y023091D01*
X034515Y023061D01*
X034491Y023029D01*
X034437Y022965D01*
X033583Y022111D01*
X032625D01*
X032625Y022111D01*
X032547Y022095D01*
X032481Y022051D01*
X031663Y021233D01*
X031655Y021227D01*
X031640Y021217D01*
X031624Y021208D01*
X031608Y021201D01*
X031591Y021195D01*
X031572Y021191D01*
X031553Y021187D01*
X031532Y021185D01*
X031515Y021185D01*
X031506Y021186D01*
X031402Y021172D01*
X031306Y021133D01*
X031224Y021069D01*
X031160Y020987D01*
X031120Y020891D01*
X031107Y020787D01*
X031120Y020684D01*
X031160Y020588D01*
X031224Y020505D01*
X031306Y020442D01*
X031402Y020402D01*
X031506Y020389D01*
X031609Y020402D01*
X031705Y020442D01*
X031787Y020505D01*
X031851Y020588D01*
X031891Y020684D01*
X031904Y020787D01*
X031903Y020797D01*
X031903Y020814D01*
X031905Y020835D01*
X031909Y020854D01*
X031913Y020873D01*
X031919Y020890D01*
X031927Y020906D01*
X031935Y020922D01*
X031945Y020937D01*
X031951Y020944D01*
X032710Y021703D01*
X033094D01*
X033099Y021688D01*
X033102Y021653D01*
X033044Y021614D01*
X032663Y021233D01*
X032655Y021227D01*
X032640Y021217D01*
X032624Y021208D01*
X032608Y021201D01*
X032591Y021195D01*
X032572Y021191D01*
X032553Y021187D01*
X032532Y021185D01*
X032515Y021185D01*
X032506Y021186D01*
X032402Y021172D01*
X032306Y021133D01*
X032224Y021069D01*
X032160Y020987D01*
X032120Y020891D01*
X032107Y020787D01*
X032120Y020684D01*
X032160Y020588D01*
X032224Y020505D01*
X032306Y020442D01*
X032402Y020402D01*
X032506Y020389D01*
X032609Y020402D01*
X032705Y020442D01*
X032787Y020505D01*
X032851Y020588D01*
X032891Y020684D01*
X032904Y020787D01*
X032903Y020797D01*
X032903Y020814D01*
X032905Y020835D01*
X032909Y020854D01*
X032913Y020873D01*
X032919Y020890D01*
X032927Y020906D01*
X032935Y020922D01*
X032945Y020937D01*
X032951Y020944D01*
X033273Y021266D01*
X033842D01*
X033863Y021216D01*
X033781Y021134D01*
X033774Y021129D01*
X033763Y021122D01*
X033754Y021118D01*
X033747Y021116D01*
X033742Y021116D01*
X033738Y021116D01*
X033732Y021117D01*
X033725Y021120D01*
X033714Y021126D01*
X033705Y021133D01*
X033609Y021172D01*
X033506Y021186D01*
X033402Y021172D01*
X033306Y021133D01*
X033224Y021069D01*
X033160Y020987D01*
X033120Y020891D01*
X033107Y020787D01*
X033120Y020684D01*
X033160Y020588D01*
X033224Y020505D01*
X033306Y020442D01*
X033402Y020402D01*
X033506Y020389D01*
X033609Y020402D01*
X033705Y020442D01*
X033787Y020505D01*
X033851Y020588D01*
X033856Y020600D01*
X033875Y020631D01*
X033885Y020646D01*
X034010Y020787D01*
X034063Y020840D01*
X034111Y020817D01*
X034107Y020787D01*
X034120Y020684D01*
X034160Y020588D01*
X034224Y020505D01*
X034306Y020442D01*
X034402Y020402D01*
X034506Y020389D01*
X034609Y020402D01*
X034705Y020442D01*
X034787Y020505D01*
X034851Y020588D01*
X034891Y020684D01*
X034904Y020787D01*
X034903Y020797D01*
X034903Y020814D01*
X034905Y020835D01*
X034909Y020854D01*
X034913Y020873D01*
X034919Y020890D01*
X034927Y020906D01*
X034935Y020922D01*
X034945Y020937D01*
X034951Y020944D01*
X036054Y022047D01*
X036100Y022028D01*
Y021670D01*
X035663Y021233D01*
X035655Y021227D01*
X035640Y021217D01*
X035624Y021208D01*
X035608Y021201D01*
X035591Y021195D01*
X035572Y021191D01*
X035553Y021187D01*
X035532Y021185D01*
X035515Y021185D01*
X035506Y021186D01*
X035402Y021172D01*
X035306Y021133D01*
X035224Y021069D01*
X035160Y020987D01*
X035120Y020891D01*
X035107Y020787D01*
X035120Y020684D01*
X035160Y020588D01*
X035224Y020505D01*
X035306Y020442D01*
X035402Y020402D01*
X035506Y020389D01*
X035609Y020402D01*
X035705Y020442D01*
X035787Y020505D01*
X035851Y020588D01*
X035891Y020684D01*
X035904Y020787D01*
X035903Y020797D01*
X035903Y020814D01*
X035905Y020835D01*
X035909Y020854D01*
X035913Y020873D01*
X035919Y020890D01*
X035927Y020906D01*
X035935Y020922D01*
X035945Y020937D01*
X035951Y020944D01*
X036314Y021307D01*
X036360Y021288D01*
Y021230D01*
X036359Y021220D01*
X036355Y021205D01*
X036350Y021191D01*
X036344Y021178D01*
X036337Y021165D01*
X036328Y021154D01*
X036317Y021143D01*
X036304Y021131D01*
X036285Y021118D01*
X036281Y021114D01*
X036224Y021069D01*
X036160Y020987D01*
X036120Y020891D01*
X036107Y020787D01*
X036120Y020684D01*
X036160Y020588D01*
X036224Y020505D01*
X036306Y020442D01*
X036402Y020402D01*
X036506Y020389D01*
X036609Y020402D01*
X036705Y020442D01*
X036787Y020505D01*
X036851Y020588D01*
X036891Y020684D01*
X036904Y020787D01*
X036891Y020891D01*
X036851Y020987D01*
X036837Y021005D01*
X036836Y021008D01*
X036821Y021032D01*
X036809Y021052D01*
X036798Y021073D01*
X036790Y021093D01*
X036782Y021114D01*
X036776Y021134D01*
X036772Y021154D01*
X036769Y021174D01*
X036768Y021181D01*
Y022984D01*
X036752Y023062D01*
X036734Y023089D01*
Y023269D01*
X037369D01*
Y023089D01*
X037351Y023062D01*
X037335Y022984D01*
Y021225D01*
X037334Y021215D01*
X037330Y021199D01*
X037325Y021183D01*
X037319Y021168D01*
X037311Y021154D01*
X037302Y021141D01*
X037290Y021127D01*
X037277Y021114D01*
X037259Y021098D01*
X037254Y021092D01*
X037224Y021069D01*
X037160Y020987D01*
X037120Y020891D01*
X037107Y020787D01*
X037120Y020684D01*
X037160Y020588D01*
X037224Y020505D01*
X037306Y020442D01*
X037402Y020402D01*
X037506Y020389D01*
X037609Y020402D01*
X037705Y020442D01*
X037787Y020505D01*
X037851Y020588D01*
X037891Y020684D01*
X037904Y020787D01*
X037891Y020891D01*
X037851Y020987D01*
X037820Y021027D01*
X037816Y021035D01*
X037800Y021057D01*
X037787Y021076D01*
X037776Y021094D01*
X037766Y021113D01*
X037759Y021132D01*
X037752Y021151D01*
X037747Y021169D01*
X037744Y021189D01*
X037743Y021197D01*
Y021853D01*
X037789Y021872D01*
X038302Y021360D01*
Y021213D01*
X038300Y021204D01*
X038297Y021186D01*
X038292Y021169D01*
X038285Y021152D01*
X038277Y021136D01*
X038268Y021120D01*
X038256Y021103D01*
X038243Y021087D01*
X038231Y021075D01*
X038224Y021069D01*
X038160Y020987D01*
X038120Y020891D01*
X038107Y020787D01*
X038120Y020684D01*
X038160Y020588D01*
X038224Y020505D01*
X038306Y020442D01*
X038402Y020402D01*
X038506Y020389D01*
X038609Y020402D01*
X038705Y020442D01*
X038787Y020505D01*
X038851Y020588D01*
X038891Y020684D01*
X038904Y020787D01*
X038891Y020891D01*
X038851Y020987D01*
X038787Y021069D01*
X038780Y021075D01*
X038768Y021087D01*
X038755Y021103D01*
X038743Y021120D01*
X038734Y021136D01*
X038726Y021152D01*
X038719Y021169D01*
X038714Y021186D01*
X038711Y021204D01*
X038709Y021213D01*
Y021378D01*
X038756Y021397D01*
X039120Y021032D01*
X039126Y021025D01*
X039133Y021013D01*
X039139Y021001D01*
X039142Y020991D01*
X039143Y020981D01*
X039144Y020971D01*
X039143Y020959D01*
X039140Y020946D01*
X039134Y020927D01*
X039133Y020921D01*
X039120Y020891D01*
X039107Y020787D01*
X039120Y020684D01*
X039160Y020588D01*
X039224Y020505D01*
X039306Y020442D01*
X039402Y020402D01*
X039506Y020389D01*
X039609Y020402D01*
X039705Y020442D01*
X039787Y020505D01*
X039851Y020588D01*
X039891Y020684D01*
X039904Y020787D01*
X039891Y020891D01*
X039851Y020987D01*
X039787Y021069D01*
X039705Y021133D01*
X039653Y021154D01*
X039644Y021160D01*
X039619Y021169D01*
X039572Y021191D01*
X039553Y021201D01*
X039512Y021226D01*
X039496Y021238D01*
X039472Y021257D01*
X038587Y022143D01*
X038601Y022190D01*
X038612Y022193D01*
X038678Y022237D01*
X038692Y022258D01*
X038742Y022263D01*
X040060Y020944D01*
X040066Y020937D01*
X040076Y020922D01*
X040084Y020906D01*
X040092Y020890D01*
X040098Y020873D01*
X040102Y020854D01*
X040106Y020835D01*
X040108Y020814D01*
X040108Y020797D01*
X040107Y020787D01*
X040120Y020684D01*
X040160Y020588D01*
X040224Y020505D01*
X040306Y020442D01*
X040402Y020402D01*
X040506Y020389D01*
X040609Y020402D01*
X040705Y020442D01*
X040787Y020505D01*
X040851Y020588D01*
X040891Y020684D01*
X040904Y020787D01*
X040891Y020891D01*
X040851Y020987D01*
X040787Y021069D01*
X040705Y021133D01*
X040609Y021172D01*
X040506Y021186D01*
X040496Y021185D01*
X040479Y021185D01*
X040458Y021187D01*
X040439Y021191D01*
X040420Y021195D01*
X040403Y021201D01*
X040387Y021208D01*
X040371Y021217D01*
X040356Y021227D01*
X040348Y021233D01*
X040184Y021397D01*
X040205Y021447D01*
X040845D01*
X041206Y021086D01*
X041211Y021079D01*
X041217Y021069D01*
X041220Y021064D01*
X041160Y020987D01*
X041120Y020891D01*
X041107Y020787D01*
X041120Y020684D01*
X041160Y020588D01*
X041224Y020505D01*
X041306Y020442D01*
X041402Y020402D01*
X041506Y020389D01*
X041609Y020402D01*
X041705Y020442D01*
X041787Y020505D01*
X041851Y020588D01*
X041891Y020684D01*
X041904Y020787D01*
X041891Y020891D01*
X041851Y020987D01*
X041787Y021069D01*
X041751Y021097D01*
X041751Y021098D01*
X041679Y021175D01*
X041650Y021219D01*
X041073Y021795D01*
X041007Y021839D01*
X040929Y021855D01*
X040243D01*
X039541Y022556D01*
X039529Y022604D01*
X039529D01*
X039529Y022604D01*
Y022770D01*
X039532Y022771D01*
X039547Y022775D01*
X039568Y022779D01*
X039583Y022780D01*
X040225D01*
X042060Y020944D01*
X042066Y020937D01*
X042076Y020922D01*
X042084Y020906D01*
X042092Y020890D01*
X042098Y020873D01*
X042102Y020854D01*
X042106Y020835D01*
X042108Y020814D01*
X042108Y020797D01*
X042107Y020787D01*
X042120Y020684D01*
X042160Y020588D01*
X042224Y020505D01*
X042306Y020442D01*
X042402Y020402D01*
X042506Y020389D01*
X042609Y020402D01*
X042705Y020442D01*
X042787Y020505D01*
X042851Y020588D01*
X042891Y020684D01*
X042904Y020787D01*
X042891Y020891D01*
X042851Y020987D01*
X042787Y021069D01*
X042705Y021133D01*
X042609Y021172D01*
X042506Y021186D01*
X042496Y021185D01*
X042479Y021185D01*
X042458Y021187D01*
X042439Y021191D01*
X042420Y021195D01*
X042403Y021201D01*
X042387Y021208D01*
X042371Y021217D01*
X042356Y021227D01*
X042348Y021233D01*
X041363Y022218D01*
X041384Y022268D01*
X041988D01*
Y022176D01*
X042230D01*
Y022126D01*
X042280D01*
Y021884D01*
X042501D01*
X042546Y021855D01*
X042624Y021839D01*
X043081D01*
X043159Y021855D01*
X043225Y021899D01*
X043543Y022217D01*
X043587Y022283D01*
X043603Y022361D01*
Y022455D01*
X043649Y022490D01*
X043705Y022563D01*
X043740Y022649D01*
X043752Y022740D01*
X043740Y022831D01*
X043705Y022917D01*
X043649Y022990D01*
X043576Y023046D01*
X043490Y023081D01*
X043399Y023093D01*
X043308Y023081D01*
X043222Y023046D01*
X043149Y022990D01*
X043093Y022917D01*
X043058Y022831D01*
X043046Y022740D01*
X043058Y022649D01*
X043093Y022563D01*
X043149Y022490D01*
X043161Y022481D01*
X043165Y022416D01*
X042997Y022247D01*
X042865D01*
Y022368D01*
X042828D01*
Y022472D01*
Y023209D01*
X042828Y023209D01*
X042812Y023287D01*
X042768Y023353D01*
X042768Y023353D01*
X042667Y023453D01*
Y023474D01*
X042656Y023529D01*
X042626Y023575D01*
X042580Y023606D01*
X042525Y023617D01*
X042446D01*
X042392Y023606D01*
X042358Y023583D01*
X042324Y023606D01*
X042280Y023614D01*
Y023346D01*
X042180D01*
Y023614D01*
X042136Y023606D01*
X042102Y023583D01*
X042068Y023606D01*
X042013Y023617D01*
X041935D01*
X041880Y023606D01*
X041834Y023575D01*
X041803Y023529D01*
X041793Y023474D01*
Y023219D01*
X041798Y023191D01*
X041798Y023189D01*
X041799Y023185D01*
X041803Y023164D01*
X041810Y023154D01*
X041811Y023151D01*
X041814Y023147D01*
X041814Y023146D01*
X041815Y023144D01*
X041816Y023139D01*
X041818Y023133D01*
X041819Y023128D01*
X041821Y023102D01*
Y022922D01*
X041786Y022869D01*
X041770Y022791D01*
X041783Y022726D01*
X041755Y022676D01*
X041440D01*
X040888Y023228D01*
X040907Y023275D01*
X041078D01*
Y023423D01*
X040860D01*
Y023473D01*
X040810D01*
Y023671D01*
X040494D01*
X040466Y023677D01*
X034424D01*
X034420Y023677D01*
X034407Y023680D01*
X034397Y023683D01*
X034389Y023686D01*
X034383Y023690D01*
X034378Y023694D01*
X034373Y023698D01*
X034369Y023703D01*
X034364Y023711D01*
X034361Y023720D01*
X034305Y023793D01*
X034232Y023849D01*
X034146Y023884D01*
X034055Y023896D01*
D02*
G37*
G36*
X029692Y021242D02*
Y021088D01*
X029846D01*
X029840Y021120D01*
X029793Y021189D01*
X029724Y021236D01*
X029692Y021242D01*
D02*
G37*
G36*
X029592D02*
X029560Y021236D01*
X029491Y021189D01*
X029444Y021120D01*
X029438Y021088D01*
X029592D01*
Y021242D01*
D02*
G37*
G36*
X029192D02*
Y021088D01*
X029346D01*
X029340Y021120D01*
X029293Y021189D01*
X029224Y021236D01*
X029192Y021242D01*
D02*
G37*
G36*
X029092D02*
X029060Y021236D01*
X028991Y021189D01*
X028944Y021120D01*
X028938Y021088D01*
X029092D01*
Y021242D01*
D02*
G37*
G36*
X028692D02*
Y021088D01*
X028846D01*
X028840Y021120D01*
X028793Y021189D01*
X028724Y021236D01*
X028692Y021242D01*
D02*
G37*
G36*
X028592D02*
X028560Y021236D01*
X028491Y021189D01*
X028444Y021120D01*
X028438Y021088D01*
X028592D01*
Y021242D01*
D02*
G37*
G36*
X028192D02*
Y021088D01*
X028346D01*
X028340Y021120D01*
X028293Y021189D01*
X028224Y021236D01*
X028192Y021242D01*
D02*
G37*
G36*
X028092D02*
X028060Y021236D01*
X027991Y021189D01*
X027944Y021120D01*
X027938Y021088D01*
X028092D01*
Y021242D01*
D02*
G37*
G36*
X029846Y020988D02*
X029438D01*
X029444Y020956D01*
X029491Y020887D01*
X029519Y020868D01*
Y020807D01*
X029500Y020794D01*
X029453Y020725D01*
X029447Y020693D01*
X029855D01*
X029849Y020725D01*
X029802Y020794D01*
X029774Y020813D01*
Y020874D01*
X029793Y020887D01*
X029840Y020956D01*
X029846Y020988D01*
D02*
G37*
G36*
X029346D02*
X028938D01*
X028944Y020956D01*
X028991Y020887D01*
X029019Y020868D01*
Y020807D01*
X029000Y020794D01*
X028953Y020725D01*
X028947Y020693D01*
X029355D01*
X029349Y020725D01*
X029302Y020794D01*
X029274Y020813D01*
Y020874D01*
X029293Y020887D01*
X029340Y020956D01*
X029346Y020988D01*
D02*
G37*
G36*
X028846D02*
X028438D01*
X028444Y020956D01*
X028491Y020887D01*
X028519Y020868D01*
Y020807D01*
X028500Y020794D01*
X028453Y020725D01*
X028447Y020693D01*
X028855D01*
X028849Y020725D01*
X028802Y020794D01*
X028774Y020813D01*
Y020874D01*
X028793Y020887D01*
X028840Y020956D01*
X028846Y020988D01*
D02*
G37*
G36*
X028346D02*
X027938D01*
X027944Y020956D01*
X027991Y020887D01*
X028019Y020868D01*
Y020807D01*
X028000Y020794D01*
X027953Y020725D01*
X027947Y020693D01*
X028355D01*
X028349Y020725D01*
X028302Y020794D01*
X028274Y020813D01*
Y020874D01*
X028293Y020887D01*
X028340Y020956D01*
X028346Y020988D01*
D02*
G37*
G36*
X029855Y020593D02*
X029701D01*
Y020439D01*
X029733Y020445D01*
X029802Y020492D01*
X029849Y020561D01*
X029855Y020593D01*
D02*
G37*
G36*
X029601D02*
X029447D01*
X029453Y020561D01*
X029500Y020492D01*
X029569Y020445D01*
X029601Y020439D01*
Y020593D01*
D02*
G37*
G36*
X029355D02*
X029201D01*
Y020439D01*
X029233Y020445D01*
X029302Y020492D01*
X029349Y020561D01*
X029355Y020593D01*
D02*
G37*
G36*
X029101D02*
X028947D01*
X028953Y020561D01*
X029000Y020492D01*
X029069Y020445D01*
X029101Y020439D01*
Y020593D01*
D02*
G37*
G36*
X028855D02*
X028701D01*
Y020439D01*
X028733Y020445D01*
X028802Y020492D01*
X028849Y020561D01*
X028855Y020593D01*
D02*
G37*
G36*
X028601D02*
X028447D01*
X028453Y020561D01*
X028500Y020492D01*
X028569Y020445D01*
X028601Y020439D01*
Y020593D01*
D02*
G37*
G36*
X028355D02*
X028201D01*
Y020439D01*
X028233Y020445D01*
X028302Y020492D01*
X028349Y020561D01*
X028355Y020593D01*
D02*
G37*
G36*
X028101D02*
X027947D01*
X027953Y020561D01*
X028000Y020492D01*
X028069Y020445D01*
X028101Y020439D01*
Y020593D01*
D02*
G37*
G36*
X043506Y021186D02*
X043402Y021172D01*
X043306Y021133D01*
X043224Y021069D01*
X043160Y020987D01*
X043120Y020891D01*
X043107Y020787D01*
X043120Y020684D01*
X043160Y020588D01*
X043224Y020505D01*
X043306Y020442D01*
X043402Y020402D01*
X043506Y020389D01*
X043609Y020402D01*
X043705Y020442D01*
X043787Y020505D01*
X043851Y020588D01*
X043891Y020684D01*
X043904Y020787D01*
X043891Y020891D01*
X043851Y020987D01*
X043787Y021069D01*
X043705Y021133D01*
X043609Y021172D01*
X043506Y021186D01*
D02*
G37*
%LPD*%
G36*
X042188Y033010D02*
X042199Y032856D01*
X042202Y032850D01*
X042205Y032848D01*
X041971D01*
X041974Y032850D01*
X041977Y032856D01*
X041980Y032866D01*
X041982Y032880D01*
X041984Y032898D01*
X041987Y032976D01*
X041988Y033048D01*
X042188D01*
X042188Y033010D01*
D02*
G37*
G36*
X042197Y032652D02*
X042189Y032646D01*
X042183Y032636D01*
X042177Y032622D01*
X042172Y032604D01*
X042168Y032582D01*
X042165Y032556D01*
X042161Y032492D01*
X042161Y032454D01*
X041961D01*
X041971Y032654D01*
X042205D01*
X042197Y032652D01*
D02*
G37*
G36*
X042162Y031926D02*
X042164Y031902D01*
X042168Y031880D01*
X042173Y031858D01*
X042180Y031837D01*
X042188Y031818D01*
X042198Y031799D01*
X042209Y031782D01*
X042222Y031766D01*
X042236Y031751D01*
X041886D01*
X041900Y031766D01*
X041913Y031782D01*
X041924Y031799D01*
X041934Y031818D01*
X041942Y031837D01*
X041949Y031858D01*
X041954Y031880D01*
X041958Y031902D01*
X041960Y031926D01*
X041961Y031951D01*
X042161D01*
X042162Y031926D01*
D02*
G37*
G36*
X030393Y032386D02*
X030391Y032400D01*
X030385Y032413D01*
X030375Y032425D01*
X030361Y032434D01*
X030343Y032443D01*
X030321Y032450D01*
X030295Y032455D01*
X030265Y032459D01*
X030231Y032461D01*
X030193Y032462D01*
Y032662D01*
X030231Y032662D01*
X030343Y032671D01*
X030361Y032675D01*
X030375Y032680D01*
X030385Y032685D01*
X030391Y032691D01*
X030393Y032698D01*
Y032386D01*
D02*
G37*
G36*
X029943Y033959D02*
X029930Y033953D01*
X029918Y033943D01*
X029909Y033929D01*
X029900Y033911D01*
X029893Y033889D01*
X029888Y033863D01*
X029884Y033833D01*
X029882Y033799D01*
X029881Y033761D01*
X029681D01*
X029680Y033799D01*
X029674Y033863D01*
X029669Y033889D01*
X029662Y033911D01*
X029654Y033929D01*
X029644Y033943D01*
X029633Y033953D01*
X029620Y033959D01*
X029605Y033961D01*
X029957D01*
X029943Y033959D01*
D02*
G37*
G36*
X029882Y033316D02*
X029889Y033205D01*
X029893Y033186D01*
X029897Y033171D01*
X029902Y033159D01*
X029907Y033151D01*
X029913Y033147D01*
X029669D01*
X029671Y033150D01*
X029673Y033157D01*
X029675Y033167D01*
X029677Y033182D01*
X029680Y033249D01*
X029681Y033352D01*
X029881Y033353D01*
X029882Y033316D01*
D02*
G37*
G36*
X031696Y032994D02*
X031770Y032931D01*
X031802Y032909D01*
X031832Y032891D01*
X031859Y032880D01*
X031883Y032874D01*
X031904Y032874D01*
X031922Y032880D01*
X031938Y032891D01*
X031656Y032609D01*
X031667Y032625D01*
X031673Y032643D01*
X031673Y032664D01*
X031667Y032688D01*
X031656Y032715D01*
X031638Y032745D01*
X031616Y032777D01*
X031587Y032813D01*
X031514Y032892D01*
X031655Y033033D01*
X031696Y032994D01*
D02*
G37*
G36*
X029102Y032485D02*
X029098Y032477D01*
X029095Y032466D01*
X029092Y032451D01*
X029090Y032432D01*
X029086Y032384D01*
X029084Y032283D01*
X028884D01*
X028884Y032320D01*
X028876Y032451D01*
X028873Y032466D01*
X028870Y032477D01*
X028866Y032485D01*
X028862Y032489D01*
X029106D01*
X029102Y032485D01*
D02*
G37*
G36*
X029084Y032243D02*
X029086Y032151D01*
X028876Y032165D01*
X028878Y032167D01*
X028879Y032171D01*
X028880Y032176D01*
X028881Y032183D01*
X028883Y032203D01*
X028884Y032261D01*
X029084Y032243D01*
D02*
G37*
G36*
X031946Y031303D02*
X031917Y031302D01*
X031888Y031299D01*
X031861Y031295D01*
X031835Y031288D01*
X031809Y031279D01*
X031785Y031268D01*
X031762Y031256D01*
X031739Y031241D01*
X031718Y031224D01*
X031698Y031206D01*
X031557Y031347D01*
X031575Y031367D01*
X031592Y031388D01*
X031607Y031411D01*
X031619Y031434D01*
X031630Y031458D01*
X031639Y031484D01*
X031646Y031510D01*
X031650Y031537D01*
X031653Y031566D01*
X031654Y031595D01*
X031946Y031303D01*
D02*
G37*
G36*
X029999Y031113D02*
X030005Y031103D01*
X030015Y031095D01*
X030029Y031088D01*
X030047Y031081D01*
X030069Y031076D01*
X030095Y031072D01*
X030125Y031070D01*
X030197Y031067D01*
Y030867D01*
X030159Y030867D01*
X030095Y030862D01*
X030069Y030858D01*
X030047Y030853D01*
X030029Y030847D01*
X030015Y030840D01*
X030005Y030831D01*
X029999Y030822D01*
X029997Y030811D01*
X029980Y030809D01*
X029966Y030803D01*
X029953Y030793D01*
X029941Y030779D01*
X029932Y030761D01*
X029924Y030739D01*
X029918Y030713D01*
X029914Y030683D01*
X029911Y030649D01*
X029910Y030611D01*
X029710D01*
X029710Y030649D01*
X029704Y030713D01*
X029700Y030739D01*
X029694Y030761D01*
X029687Y030779D01*
X029678Y030793D01*
X029668Y030803D01*
X029657Y030809D01*
X029645Y030811D01*
X029997D01*
Y031124D01*
X029999Y031113D01*
D02*
G37*
G36*
X029911Y030268D02*
X029918Y030137D01*
X029921Y030122D01*
X029925Y030111D01*
X029929Y030103D01*
X029933Y030100D01*
X029688D01*
X029692Y030103D01*
X029696Y030111D01*
X029699Y030122D01*
X029702Y030137D01*
X029705Y030156D01*
X029708Y030204D01*
X029710Y030305D01*
X029910D01*
X029911Y030268D01*
D02*
G37*
G36*
X030432Y029354D02*
X030430Y029366D01*
X030424Y029376D01*
X030414Y029385D01*
X030400Y029393D01*
X030382Y029399D01*
X030360Y029405D01*
X030334Y029409D01*
X030304Y029412D01*
X030232Y029415D01*
Y029615D01*
X030270Y029615D01*
X030360Y029623D01*
X030382Y029628D01*
X030400Y029633D01*
X030414Y029640D01*
X030424Y029648D01*
X030430Y029657D01*
X030432Y029667D01*
Y029354D01*
D02*
G37*
G36*
X044974Y023077D02*
X044992Y023061D01*
X045011Y023048D01*
X045030Y023036D01*
X045049Y023027D01*
X045069Y023019D01*
X045089Y023013D01*
X045109Y023008D01*
X045130Y023006D01*
X045150Y023005D01*
X044903Y022757D01*
X044902Y022778D01*
X044900Y022799D01*
X044895Y022819D01*
X044889Y022839D01*
X044881Y022859D01*
X044872Y022878D01*
X044860Y022897D01*
X044847Y022916D01*
X044831Y022934D01*
X044814Y022952D01*
X044956Y023094D01*
X044974Y023077D01*
D02*
G37*
G36*
X045254Y022526D02*
X045237Y022517D01*
X045222Y022507D01*
X045208Y022494D01*
X045197Y022480D01*
X045187Y022464D01*
X045179Y022446D01*
X045173Y022426D01*
X045168Y022404D01*
X045167Y022396D01*
X045171Y022339D01*
X045175Y022317D01*
X045179Y022299D01*
X045184Y022285D01*
X045191Y022275D01*
X045197Y022269D01*
X045205Y022267D01*
X044924D01*
X044932Y022269D01*
X044939Y022275D01*
X044945Y022285D01*
X044950Y022299D01*
X044954Y022317D01*
X044958Y022339D01*
X044961Y022365D01*
X044964Y022429D01*
X044964Y022451D01*
X044964Y022466D01*
X044958Y022535D01*
X044955Y022556D01*
X044946Y022596D01*
X044940Y022615D01*
X044926Y022650D01*
X045254Y022526D01*
D02*
G37*
G36*
X044713Y022429D02*
X044716Y022395D01*
X044721Y022365D01*
X044728Y022339D01*
X044737Y022317D01*
X044748Y022299D01*
X044761Y022285D01*
X044776Y022275D01*
X044792Y022269D01*
X044811Y022267D01*
X044530D01*
X044512Y022467D01*
X044712D01*
X044713Y022429D01*
D02*
G37*
G36*
X044457Y020939D02*
X044460Y020929D01*
X044465Y020918D01*
X044472Y020907D01*
X044479Y020894D01*
X044489Y020881D01*
X044512Y020853D01*
X044526Y020838D01*
X044541Y020823D01*
X044470Y020752D01*
X044454Y020767D01*
X044412Y020804D01*
X044399Y020814D01*
X044386Y020821D01*
X044375Y020828D01*
X044364Y020833D01*
X044353Y020836D01*
X044344Y020838D01*
X044455Y020949D01*
X044457Y020939D01*
D02*
G37*
G36*
X034286Y023644D02*
X034298Y023629D01*
X034311Y023616D01*
X034326Y023605D01*
X034343Y023595D01*
X034362Y023587D01*
X034382Y023581D01*
X034404Y023577D01*
X034428Y023574D01*
X034453Y023573D01*
X034388Y023373D01*
X034364Y023373D01*
X034317Y023369D01*
X034294Y023365D01*
X034252Y023356D01*
X034232Y023349D01*
X034213Y023342D01*
X034195Y023334D01*
X034177Y023325D01*
X034275Y023661D01*
X034286Y023644D01*
D02*
G37*
G36*
X033933Y023325D02*
X033915Y023334D01*
X033897Y023342D01*
X033878Y023349D01*
X033858Y023356D01*
X033837Y023361D01*
X033793Y023369D01*
X033770Y023371D01*
X033722Y023373D01*
X033657Y023573D01*
X033682Y023574D01*
X033706Y023577D01*
X033728Y023581D01*
X033748Y023587D01*
X033767Y023595D01*
X033784Y023605D01*
X033799Y023616D01*
X033812Y023629D01*
X033824Y023644D01*
X033835Y023661D01*
X033933Y023325D01*
D02*
G37*
G36*
X038870Y023373D02*
X038832Y023371D01*
X038798Y023365D01*
X038768Y023355D01*
X038742Y023341D01*
X038720Y023323D01*
X038702Y023301D01*
X038688Y023275D01*
X038678Y023245D01*
X038672Y023211D01*
X038670Y023173D01*
X038470D01*
X038468Y023211D01*
X038462Y023245D01*
X038452Y023275D01*
X038438Y023301D01*
X038420Y023323D01*
X038398Y023341D01*
X038372Y023355D01*
X038342Y023365D01*
X038308Y023371D01*
X038270Y023373D01*
X038570Y023573D01*
X038870Y023373D01*
D02*
G37*
G36*
X042045Y023196D02*
X042040Y023187D01*
X042036Y023177D01*
X042033Y023166D01*
X042030Y023154D01*
X042028Y023142D01*
X042025Y023113D01*
X042024Y023098D01*
X042024Y023082D01*
X041924D01*
X041924Y023098D01*
X041920Y023142D01*
X041918Y023154D01*
X041915Y023166D01*
X041912Y023177D01*
X041908Y023187D01*
X041904Y023196D01*
X041899Y023204D01*
X042049D01*
X042045Y023196D01*
D02*
G37*
G36*
X042024Y022927D02*
X042026Y022907D01*
X042027Y022899D01*
X042029Y022891D01*
X042031Y022884D01*
X042034Y022877D01*
X042037Y022872D01*
X042040Y022867D01*
X042044Y022862D01*
X041904D01*
X041908Y022867D01*
X041911Y022872D01*
X041914Y022877D01*
X041917Y022884D01*
X041919Y022891D01*
X041921Y022899D01*
X041922Y022907D01*
X041923Y022917D01*
X041924Y022938D01*
X042024D01*
X042024Y022927D01*
D02*
G37*
G36*
X039429Y023165D02*
X039435Y023148D01*
X039445Y023133D01*
X039459Y023120D01*
X039477Y023109D01*
X039499Y023100D01*
X039525Y023093D01*
X039556Y023088D01*
X039590Y023085D01*
X039628Y023084D01*
Y022884D01*
X039590Y022883D01*
X039556Y022880D01*
X039525Y022875D01*
X039499Y022868D01*
X039477Y022859D01*
X039459Y022848D01*
X039445Y022835D01*
X039435Y022820D01*
X039429Y022803D01*
X039427Y022784D01*
Y023184D01*
X039429Y023165D01*
D02*
G37*
G36*
X034675Y022705D02*
X034674Y022717D01*
X034669Y022724D01*
X034662Y022727D01*
X034653Y022726D01*
X034640Y022721D01*
X034624Y022712D01*
X034606Y022698D01*
X034585Y022680D01*
X034534Y022632D01*
X034463Y022844D01*
X034503Y022886D01*
X034571Y022965D01*
X034599Y023003D01*
X034622Y023039D01*
X034641Y023073D01*
X034656Y023107D01*
X034667Y023139D01*
X034673Y023169D01*
X034675Y023198D01*
Y022705D01*
D02*
G37*
G36*
X033988Y020912D02*
X033954Y020877D01*
X033806Y020709D01*
X033790Y020688D01*
X033767Y020650D01*
X033661Y021038D01*
X033682Y021027D01*
X033704Y021019D01*
X033725Y021015D01*
X033746Y021014D01*
X033767Y021016D01*
X033788Y021022D01*
X033810Y021031D01*
X033831Y021044D01*
X033852Y021061D01*
X033874Y021080D01*
X033988Y020912D01*
D02*
G37*
G36*
X038607Y021215D02*
X038610Y021188D01*
X038615Y021162D01*
X038623Y021136D01*
X038632Y021112D01*
X038644Y021088D01*
X038658Y021064D01*
X038674Y021042D01*
X038692Y021020D01*
X038712Y020998D01*
X038299D01*
X038319Y021020D01*
X038337Y021042D01*
X038353Y021064D01*
X038367Y021088D01*
X038379Y021112D01*
X038388Y021136D01*
X038396Y021162D01*
X038401Y021188D01*
X038404Y021215D01*
X038406Y021242D01*
X038606D01*
X038607Y021215D01*
D02*
G37*
G36*
X041676Y021028D02*
X041293Y020993D01*
X041306Y021008D01*
X041316Y021025D01*
X041321Y021042D01*
X041323Y021060D01*
X041322Y021079D01*
X041316Y021098D01*
X041307Y021118D01*
X041294Y021138D01*
X041278Y021159D01*
X041257Y021181D01*
X041443Y021279D01*
X041676Y021028D01*
D02*
G37*
G36*
X037639Y021228D02*
X037640Y021201D01*
X037643Y021174D01*
X037648Y021148D01*
X037655Y021122D01*
X037663Y021096D01*
X037674Y021071D01*
X037686Y021046D01*
X037700Y021021D01*
X037717Y020997D01*
X037735Y020973D01*
X037324Y021020D01*
X037346Y021039D01*
X037366Y021058D01*
X037383Y021079D01*
X037398Y021100D01*
X037410Y021123D01*
X037421Y021147D01*
X037429Y021172D01*
X037435Y021197D01*
X037438Y021224D01*
X037439Y021252D01*
X037639Y021228D01*
D02*
G37*
G36*
X036664Y021214D02*
X036665Y021187D01*
X036667Y021160D01*
X036672Y021134D01*
X036678Y021108D01*
X036685Y021082D01*
X036695Y021056D01*
X036706Y021030D01*
X036719Y021004D01*
X036734Y020979D01*
X036750Y020953D01*
X036345Y021035D01*
X036367Y021051D01*
X036388Y021069D01*
X036405Y021088D01*
X036421Y021108D01*
X036434Y021129D01*
X036445Y021152D01*
X036453Y021176D01*
X036459Y021202D01*
X036463Y021229D01*
X036464Y021257D01*
X036664Y021214D01*
D02*
G37*
G36*
X039393Y021190D02*
X039434Y021157D01*
X039456Y021141D01*
X039502Y021112D01*
X039527Y021099D01*
X039580Y021075D01*
X039607Y021065D01*
X039230Y020895D01*
X039239Y020920D01*
X039244Y020944D01*
X039246Y020968D01*
X039245Y020992D01*
X039241Y021015D01*
X039234Y021038D01*
X039224Y021060D01*
X039211Y021082D01*
X039194Y021104D01*
X039175Y021125D01*
X039375Y021208D01*
X039393Y021190D01*
D02*
G37*
G36*
X042275Y021161D02*
X042296Y021144D01*
X042318Y021130D01*
X042342Y021117D01*
X042366Y021106D01*
X042391Y021097D01*
X042417Y021091D01*
X042445Y021086D01*
X042473Y021083D01*
X042503Y021083D01*
X042210Y020790D01*
X042210Y020820D01*
X042207Y020848D01*
X042202Y020875D01*
X042195Y020902D01*
X042187Y020927D01*
X042176Y020951D01*
X042163Y020975D01*
X042149Y020997D01*
X042132Y021018D01*
X042113Y021038D01*
X042254Y021180D01*
X042275Y021161D01*
D02*
G37*
G36*
X040275D02*
X040296Y021144D01*
X040318Y021130D01*
X040342Y021117D01*
X040366Y021106D01*
X040391Y021097D01*
X040417Y021091D01*
X040445Y021086D01*
X040473Y021083D01*
X040503Y021083D01*
X040210Y020790D01*
X040210Y020820D01*
X040207Y020848D01*
X040202Y020875D01*
X040195Y020902D01*
X040187Y020927D01*
X040176Y020951D01*
X040163Y020975D01*
X040149Y020997D01*
X040132Y021018D01*
X040113Y021038D01*
X040255Y021180D01*
X040275Y021161D01*
D02*
G37*
G36*
X035898Y021038D02*
X035879Y021018D01*
X035862Y020997D01*
X035848Y020975D01*
X035835Y020951D01*
X035824Y020927D01*
X035816Y020902D01*
X035809Y020875D01*
X035804Y020848D01*
X035801Y020820D01*
X035801Y020790D01*
X035508Y021083D01*
X035538Y021083D01*
X035566Y021086D01*
X035594Y021091D01*
X035620Y021097D01*
X035645Y021106D01*
X035669Y021117D01*
X035693Y021130D01*
X035715Y021144D01*
X035736Y021161D01*
X035757Y021180D01*
X035898Y021038D01*
D02*
G37*
G36*
X034898D02*
X034879Y021018D01*
X034862Y020997D01*
X034848Y020975D01*
X034835Y020951D01*
X034824Y020927D01*
X034816Y020902D01*
X034809Y020875D01*
X034804Y020848D01*
X034801Y020820D01*
X034801Y020790D01*
X034508Y021083D01*
X034538Y021083D01*
X034566Y021086D01*
X034594Y021091D01*
X034620Y021097D01*
X034645Y021106D01*
X034669Y021117D01*
X034693Y021130D01*
X034715Y021144D01*
X034736Y021161D01*
X034757Y021180D01*
X034898Y021038D01*
D02*
G37*
G36*
X032898D02*
X032879Y021018D01*
X032862Y020997D01*
X032848Y020975D01*
X032835Y020951D01*
X032824Y020927D01*
X032816Y020902D01*
X032809Y020875D01*
X032804Y020848D01*
X032801Y020820D01*
X032801Y020790D01*
X032508Y021083D01*
X032538Y021083D01*
X032566Y021086D01*
X032594Y021091D01*
X032620Y021097D01*
X032645Y021106D01*
X032669Y021117D01*
X032693Y021130D01*
X032715Y021144D01*
X032736Y021161D01*
X032757Y021180D01*
X032898Y021038D01*
D02*
G37*
G36*
X031898D02*
X031879Y021018D01*
X031862Y020997D01*
X031848Y020975D01*
X031835Y020951D01*
X031824Y020927D01*
X031816Y020902D01*
X031809Y020875D01*
X031804Y020848D01*
X031801Y020820D01*
X031801Y020790D01*
X031508Y021083D01*
X031538Y021083D01*
X031566Y021086D01*
X031594Y021091D01*
X031620Y021097D01*
X031645Y021106D01*
X031669Y021117D01*
X031693Y021130D01*
X031715Y021144D01*
X031736Y021161D01*
X031757Y021180D01*
X031898Y021038D01*
D02*
G37*
%LPC*%
G36*
X036880Y029921D02*
X036792D01*
X036793Y029914D01*
X036825Y029866D01*
X036873Y029834D01*
X036880Y029833D01*
Y029921D01*
D02*
G37*
G36*
X036942Y028899D02*
X036924Y028896D01*
X036866Y028857D01*
X036827Y028799D01*
X036824Y028781D01*
X036942D01*
Y028899D01*
D02*
G37*
%LPD*%
D13*
X034744Y027491D02*
X035383Y028130D01*
X034744Y027405D02*
Y027491D01*
X027946Y030026D02*
X027947Y030026D01*
X027946Y033074D02*
X027947Y033074D01*
X036026Y028070D02*
X036031Y028065D01*
X035631Y028070D02*
X036026D01*
X035004Y027443D02*
X035631Y028070D01*
X035004Y027395D02*
Y027443D01*
X035265Y027403D02*
X035785Y027923D01*
X036033D01*
X036620Y038602D02*
X038878D01*
X036073Y038055D02*
X036620Y038602D01*
X035757Y038055D02*
X036073D01*
X038878Y038602D02*
X039331Y039055D01*
X038578Y025285D02*
X038579Y025284D01*
X038578Y025285D02*
Y026175D01*
X042624Y024742D02*
X042628Y024738D01*
X042480Y024081D02*
X042486Y024075D01*
X035415Y028410D02*
X035417Y028412D01*
X037207Y034366D02*
X037211Y034362D01*
X036757Y038005D02*
Y038055D01*
X045065Y022126D02*
X045089Y022102D01*
X043553Y039055D02*
Y039277D01*
X043363Y039467D02*
X043553Y039277D01*
X043356Y039460D02*
X043363Y039467D01*
X042385Y039460D02*
X043356D01*
X041958Y039034D02*
X042385Y039460D01*
X041958Y038887D02*
Y039034D01*
X041126Y038055D02*
X041958Y038887D01*
X038757Y038055D02*
X041126D01*
X041147Y037650D02*
X042553Y039055D01*
X038590Y037650D02*
X041147D01*
X038184Y038055D02*
X038590Y037650D01*
X037757Y038055D02*
X038184D01*
X040958Y038460D02*
X041553Y039055D01*
X037590Y038460D02*
X040958D01*
X037184Y038055D02*
X037590Y038460D01*
X036757Y038055D02*
X037184D01*
X039331Y039055D02*
X040553D01*
X029781Y033083D02*
X029791Y033074D01*
X030549Y032562D02*
X030569Y032542D01*
X030604Y029515D02*
X030608Y029511D01*
X029810Y030957D02*
X029821Y030967D01*
X041974Y022791D02*
Y023346D01*
X044356Y020937D02*
X044506Y020787D01*
X028946Y022700D02*
X028965Y022718D01*
D19*
Y024819D02*
D03*
Y024449D02*
D03*
Y024079D02*
D03*
X029905D02*
D03*
Y024819D02*
D03*
D20*
X044671Y022126D02*
D03*
X045065D02*
D03*
X042230D02*
D03*
X042624D02*
D03*
X044986Y025591D02*
D03*
X044592D02*
D03*
X042624D02*
D03*
X042230D02*
D03*
D21*
X038578Y026569D02*
D03*
Y026175D02*
D03*
X035784Y026570D02*
D03*
Y026176D02*
D03*
X044487Y030555D02*
D03*
Y030949D02*
D03*
D22*
X029791Y033074D02*
D03*
Y032562D02*
D03*
X028984D02*
D03*
Y032818D02*
D03*
Y033074D02*
D03*
X029810Y030026D02*
D03*
Y029515D02*
D03*
X029003D02*
D03*
Y029770D02*
D03*
Y030026D02*
D03*
D23*
X029821Y030967D02*
D03*
Y031518D02*
D03*
X029033Y030967D02*
D03*
Y031518D02*
D03*
X028844Y025669D02*
D03*
Y026220D02*
D03*
X029907Y025669D02*
D03*
Y026220D02*
D03*
X032230Y027244D02*
D03*
Y027795D02*
D03*
X030608Y028959D02*
D03*
Y029511D02*
D03*
X031400Y023450D02*
D03*
Y024001D02*
D03*
X032961Y034530D02*
D03*
Y033978D02*
D03*
X029781Y034668D02*
D03*
Y034117D02*
D03*
X030569Y031991D02*
D03*
Y032542D02*
D03*
X028994Y034117D02*
D03*
Y034668D02*
D03*
D24*
X041119Y035713D02*
D03*
Y035453D02*
D03*
Y035193D02*
D03*
Y034933D02*
D03*
Y034673D02*
D03*
Y034413D02*
D03*
Y034153D02*
D03*
Y033893D02*
D03*
X043419D02*
D03*
Y034153D02*
D03*
Y034413D02*
D03*
Y034673D02*
D03*
Y034933D02*
D03*
Y035193D02*
D03*
Y035453D02*
D03*
Y035713D02*
D03*
D25*
X036564Y025284D02*
D03*
X036304D02*
D03*
X036044D02*
D03*
X035784D02*
D03*
X035524D02*
D03*
X035264D02*
D03*
X035004D02*
D03*
X034744D02*
D03*
Y022984D02*
D03*
X035004D02*
D03*
X035264D02*
D03*
X035524D02*
D03*
X035784D02*
D03*
X036044D02*
D03*
X036304D02*
D03*
X036564D02*
D03*
X039359D02*
D03*
X039099D02*
D03*
X038839D02*
D03*
X038579D02*
D03*
X038319D02*
D03*
X038059D02*
D03*
X037799D02*
D03*
X037539D02*
D03*
Y025284D02*
D03*
X037799D02*
D03*
X038059D02*
D03*
X038319D02*
D03*
X038579D02*
D03*
X038839D02*
D03*
X039099D02*
D03*
X039359D02*
D03*
D26*
X035021Y028410D02*
D03*
X035415D02*
D03*
X035025Y031989D02*
D03*
X035419D02*
D03*
X035021Y031563D02*
D03*
X035415D02*
D03*
X035027Y031142D02*
D03*
X035421D02*
D03*
X035023Y030269D02*
D03*
X035417D02*
D03*
X035021Y030730D02*
D03*
X035415D02*
D03*
X042088Y032751D02*
D03*
X042482D02*
D03*
X042088Y036869D02*
D03*
X042482D02*
D03*
X040466Y023473D02*
D03*
X040860D02*
D03*
X032941D02*
D03*
X032547D02*
D03*
D27*
X042486Y024075D02*
D03*
X042230D02*
D03*
X041974D02*
D03*
X042486Y023346D02*
D03*
X042230D02*
D03*
X041974D02*
D03*
X044868Y024075D02*
D03*
X044612D02*
D03*
X044356D02*
D03*
X044868Y023346D02*
D03*
X044612D02*
D03*
X044356D02*
D03*
D28*
X032978Y038189D02*
D03*
X033529D02*
D03*
D50*
X035970Y030737D02*
D03*
X035984Y031563D02*
D03*
X036436Y031989D02*
D03*
X036433Y031140D02*
D03*
X028974Y032051D02*
D03*
D54*
X038127Y030263D02*
D03*
X038007D02*
D03*
X038067D02*
D03*
D55*
X037407Y029053D02*
D03*
X037467D02*
D03*
X037527D02*
D03*
X037587D02*
D03*
X037647D02*
D03*
X037707D02*
D03*
X037767D02*
D03*
X037827D02*
D03*
X037887D02*
D03*
X037947D02*
D03*
X038007D02*
D03*
X038067D02*
D03*
X038127D02*
D03*
X038187D02*
D03*
X038247D02*
D03*
X038307D02*
D03*
X038367D02*
D03*
X038427D02*
D03*
Y030553D02*
D03*
X038367D02*
D03*
X038307D02*
D03*
X038247D02*
D03*
X038187D02*
D03*
X038127D02*
D03*
X038067D02*
D03*
X038007D02*
D03*
X037947D02*
D03*
X037887D02*
D03*
X037827D02*
D03*
X037767D02*
D03*
X037707D02*
D03*
X037647D02*
D03*
X037587D02*
D03*
X037527D02*
D03*
X037467D02*
D03*
X037407D02*
D03*
D56*
X042624Y022043D02*
X043081D01*
X042624Y022126D02*
Y022472D01*
X038502Y022381D02*
X038534D01*
X038319Y022564D02*
X038502Y022381D01*
X043517Y033893D02*
X045457Y031953D01*
X043419Y033893D02*
X043517D01*
X043419Y034139D02*
X044252D01*
X044275Y034135D02*
X045457Y032953D01*
X044256Y034135D02*
X044275D01*
X044252Y034139D02*
X044256Y034135D01*
X043803Y035713D02*
X044033Y035943D01*
X044049D01*
X044059Y035953D01*
X045457D01*
X043399Y022361D02*
Y022740D01*
X043081Y022043D02*
X043399Y022361D01*
X042624Y022043D02*
Y022126D01*
X035984Y031563D02*
X036581D01*
X036433Y031140D02*
X036774D01*
X036436Y031989D02*
X037077D01*
X037592Y031474D01*
X038508Y031573D02*
X039863Y032928D01*
X038908Y031533D02*
Y031534D01*
X040163Y032789D01*
X044612Y024075D02*
Y024437D01*
X044660Y024485D01*
X038839Y025284D02*
Y027413D01*
X035708Y025099D02*
Y025284D01*
X035784Y025175D02*
Y026176D01*
X044986Y024193D02*
Y025591D01*
X036854Y030737D02*
X036855Y030738D01*
X035970Y030737D02*
X036854D01*
X035415Y030730D02*
X035422Y030737D01*
X035970D01*
X035415Y031563D02*
X035984D01*
X038485Y027141D02*
X038578Y027048D01*
Y026569D02*
Y027048D01*
X028320Y024434D02*
X028335Y024449D01*
X028965D01*
X027946Y024809D02*
X027956Y024819D01*
X035652Y026702D02*
Y026996D01*
Y026702D02*
X035784Y026570D01*
X035524Y022485D02*
X035620Y022389D01*
X035524Y022485D02*
Y022984D01*
X038319Y022564D02*
Y022984D01*
X042230Y022939D02*
X042284Y022885D01*
X042230Y022939D02*
Y023346D01*
X044612Y022185D02*
X044671Y022126D01*
X044612Y022185D02*
Y023346D01*
X029905Y024079D02*
X031322D01*
X036044Y027587D02*
X036146Y027689D01*
X036044Y025284D02*
Y027587D01*
X035417Y030269D02*
X035480Y030332D01*
X036832D01*
X035412Y028407D02*
Y029259D01*
X033667Y021907D02*
X034744Y022984D01*
X032625Y021907D02*
X033667D01*
X031506Y020787D02*
X032625Y021907D01*
X032506Y020787D02*
X033188Y021470D01*
X033866D01*
X035004Y022608D01*
Y022984D01*
X033730Y020795D02*
X035264Y022329D01*
Y022984D01*
X033513Y020795D02*
X033730D01*
X043419Y035713D02*
X043803D01*
X040379Y034420D02*
X041112D01*
X039863Y033904D02*
X040379Y034420D01*
X039863Y032928D02*
Y033904D01*
X040613Y034153D02*
X041119D01*
X040163Y033703D02*
X040613Y034153D01*
X040163Y032789D02*
Y033703D01*
X040820Y033893D02*
X041119D01*
X040815Y033898D02*
X040820Y033893D01*
X040480Y033563D02*
X040815Y033898D01*
X040480Y032693D02*
Y033563D01*
X038715Y030928D02*
X040480Y032693D01*
X035419Y031989D02*
X036436D01*
X035423Y031140D02*
X036433D01*
X031473Y033074D02*
X031949Y032598D01*
X029791Y033074D02*
X031473D01*
X031318Y030967D02*
X031949Y031598D01*
X029821Y030967D02*
X031318D01*
X039467Y035713D02*
X041119D01*
X039077Y035323D02*
X039467Y035713D01*
X039077Y033219D02*
Y035323D01*
X038476Y032618D02*
X039077Y033219D01*
X039768Y035452D02*
X041118D01*
X039449Y035133D02*
X039768Y035452D01*
X039449Y033024D02*
Y035133D01*
X038262Y031837D02*
X039449Y033024D01*
X041118Y035452D02*
X041119Y035453D01*
X027947Y030026D02*
X029003D01*
X028946Y029458D02*
X029003Y029515D01*
X028946Y027520D02*
Y029458D01*
X028974Y032051D02*
X028984Y032061D01*
Y032562D01*
X027947Y033074D02*
X028984D01*
Y034658D02*
X028994Y034668D01*
X041119Y034673D02*
X041412D01*
X041677Y034938D01*
X041119Y034933D02*
X041124Y034938D01*
X041677D01*
X042088Y035349D01*
Y036869D01*
X042063Y036894D02*
X042088Y036869D01*
X040934Y036894D02*
X042063D01*
X043416Y034936D02*
X043419Y034933D01*
X042873Y034936D02*
X043416D01*
X042088Y034151D02*
X042873Y034936D01*
X042088Y032751D02*
Y034151D01*
X042061Y032724D02*
X042088Y032751D01*
X042061Y031572D02*
Y032724D01*
X044997Y034413D02*
X045457Y033953D01*
X043339Y034413D02*
X044997D01*
X045453Y030949D02*
X045457Y030953D01*
X044407Y030949D02*
X045453D01*
X044484Y030946D02*
X044487Y030949D01*
X044064Y030946D02*
X044484D01*
X043502Y030384D02*
X044064Y030946D01*
X039394Y030384D02*
X043502D01*
X039905Y027429D02*
Y027431D01*
Y027429D02*
X041094Y026240D01*
X042230Y024075D02*
Y025591D01*
X041974Y024075D02*
Y024805D01*
X039605Y027174D02*
X041974Y024805D01*
X039605Y027174D02*
Y027498D01*
X039359Y025284D02*
Y027429D01*
X039099Y025284D02*
Y027408D01*
X038059Y027433D02*
X038059Y027433D01*
Y025284D02*
Y027433D01*
X037799Y027423D02*
X037801Y027425D01*
X037799Y025284D02*
Y027423D01*
X037541Y025286D02*
Y028035D01*
X037539Y025284D02*
X037541Y025286D01*
X036302Y025286D02*
Y027405D01*
X036553Y025295D02*
Y027412D01*
X034744Y025284D02*
Y027405D01*
X035421Y031142D02*
X035423Y031140D01*
X035417Y029243D02*
Y030269D01*
Y028412D02*
Y029243D01*
X035418Y029242D01*
X036929D01*
X035412Y028407D02*
X035415Y028410D01*
X029791Y032562D02*
X030549D01*
X044868Y023040D02*
Y023346D01*
Y023040D02*
X045153Y022755D01*
X041356Y022472D02*
X042624D01*
X045065Y022126D02*
Y022667D01*
X045153Y022755D01*
X042486Y023346D02*
X042624Y023209D01*
Y022472D02*
Y023209D01*
X040466Y023362D02*
X041356Y022472D01*
X040466Y023362D02*
Y023473D01*
X038570D02*
X040466D01*
X035777D02*
X038570D01*
Y022993D02*
X038579Y022984D01*
X038570Y022993D02*
Y023473D01*
X034125D02*
X035777D01*
X035784Y022984D02*
Y023466D01*
X034055Y023543D02*
X034125Y023473D01*
X033985D02*
X034055Y023543D01*
X032941Y023473D02*
X033985D01*
X035708Y024960D02*
Y025099D01*
X035524Y025284D02*
X035708D01*
Y025099D02*
X035784Y025175D01*
X040309Y022984D02*
X042506Y020787D01*
X039359Y022984D02*
X040309D01*
X039099Y022710D02*
Y022984D01*
Y022710D02*
X040158Y021651D01*
X040929D02*
X041506Y021074D01*
X040158Y021651D02*
X040929D01*
X041506Y020787D02*
Y021074D01*
X038839Y022454D02*
X040506Y020787D01*
X038839Y022454D02*
Y022984D01*
X039506Y020787D02*
Y020935D01*
X038059Y022382D02*
X039506Y020935D01*
X038059Y022382D02*
Y022984D01*
X038506Y020787D02*
Y021444D01*
X037799Y022151D02*
X038506Y021444D01*
X037799Y022151D02*
Y022984D01*
X037506Y020787D02*
X037539Y020821D01*
Y022984D01*
X036506Y020787D02*
X036564Y020846D01*
Y022984D01*
X035506Y020787D02*
X036304Y021586D01*
Y022984D01*
X034506Y020787D02*
X036044Y022326D01*
Y022984D01*
X033506Y020787D02*
X033513Y020795D01*
X038319Y025284D02*
X038579D01*
X038319Y024717D02*
Y025284D01*
X035315Y024567D02*
X035708Y024960D01*
X044868Y024075D02*
X044986Y024193D01*
X042628Y024511D02*
Y024738D01*
X042480Y024081D02*
Y024363D01*
X042628Y024511D01*
X042624Y024742D02*
Y025591D01*
X027956Y024819D02*
X028965D01*
X035265Y025285D02*
Y027403D01*
X041094Y026240D02*
X043221D01*
X044356Y024075D02*
Y025105D01*
X043221Y026240D02*
X044356Y025105D01*
X035004Y025284D02*
Y027395D01*
X037211Y032448D02*
Y034362D01*
Y032448D02*
X038067Y031592D01*
X043419Y034139D02*
Y034153D01*
X044957Y035453D02*
X045457Y034953D01*
X043339Y035453D02*
X044957D01*
X029781Y033083D02*
Y034117D01*
X029810Y029515D02*
X030604D01*
X029810Y030026D02*
Y030957D01*
X044356Y020937D02*
Y023346D01*
X031322Y024079D02*
X031400Y024001D01*
X028965Y022718D02*
Y024079D01*
X028839Y025665D02*
X028844Y025669D01*
D57*
X037827Y030553D02*
Y031011D01*
X037275Y031563D02*
X037827Y031011D01*
X037660Y030985D02*
X037711D01*
X037767Y030929D01*
X037089Y031385D02*
X037707Y030766D01*
X037427Y030962D02*
X037647Y030741D01*
X037476Y030828D02*
X037587Y030717D01*
X037086Y030828D02*
X037476D01*
X037527Y030553D02*
Y030692D01*
X037482Y030737D02*
X037527Y030692D01*
X036856Y030737D02*
X037482D01*
X036855Y030738D02*
X036856Y030737D01*
X037016Y031385D02*
X037089D01*
X037707Y030553D02*
Y030766D01*
X037533Y030331D02*
X037870D01*
X037587Y030553D02*
Y030717D01*
X037647Y030553D02*
Y030741D01*
X037199Y030962D02*
X037427D01*
X036774Y031140D02*
X037086Y030828D01*
X036581Y031563D02*
X037275D01*
X037592Y031474D02*
X037889Y031177D01*
X038187Y031046D02*
X038271Y031130D01*
Y031110D02*
Y031130D01*
X038661Y031259D02*
Y031277D01*
X038247Y030845D02*
X038661Y031259D01*
X038908Y031326D02*
Y031533D01*
X038570Y030988D02*
X038908Y031326D01*
X038570Y030988D02*
Y030988D01*
X038367Y030785D02*
X038570Y030988D01*
X036948Y030528D02*
X037070Y030406D01*
X037111D01*
X036948Y030528D02*
X037012D01*
X038830Y027422D02*
X038835Y027417D01*
X037111Y030406D02*
X037113Y030408D01*
X037372D01*
X037407Y030443D01*
Y030553D01*
X036992Y028731D02*
X037002Y028741D01*
X036146Y027689D02*
X036633D01*
X036832Y030332D02*
X036833Y030331D01*
X038427Y030640D02*
X038715Y030928D01*
X038427Y030553D02*
Y030640D01*
X036929Y029242D02*
X036939Y029252D01*
X037450D01*
X037892D01*
X037407Y029209D02*
X037450Y029252D01*
X037407Y029053D02*
Y029209D01*
X037947Y029053D02*
Y029193D01*
X037949Y029195D01*
X037892Y029252D02*
X037949Y029195D01*
X036833Y030331D02*
X037533D01*
X037467Y030397D02*
X037533Y030331D01*
X037947Y030408D02*
Y030553D01*
X037870Y030331D02*
X037947Y030408D01*
X041103Y033877D02*
X041119Y033893D01*
X036930Y029971D02*
X037222Y030263D01*
X038007D01*
X038921D02*
X039125Y030059D01*
X038127Y030263D02*
X038921D01*
X037863Y028002D02*
X038007Y028146D01*
Y029053D01*
X038247Y030553D02*
Y030845D01*
X038367Y030553D02*
Y030785D01*
X038187Y030553D02*
Y031046D01*
X037767Y030553D02*
Y030929D01*
X039391Y030381D02*
X039394Y030384D01*
X038323Y030381D02*
X039391D01*
X038427Y028907D02*
X038429D01*
X039905Y027431D01*
X039605Y027498D02*
Y027644D01*
X038367Y028881D02*
X039605Y027644D01*
X039359Y027429D02*
Y027613D01*
X038950Y028022D02*
X039359Y027613D01*
X038950Y028022D02*
Y028214D01*
X039099Y027408D02*
Y027606D01*
X038890Y027815D02*
X039099Y027606D01*
X038890Y027815D02*
Y028189D01*
X038830Y027422D02*
Y028164D01*
X038127Y027501D02*
Y029053D01*
X038059Y027433D02*
X038127Y027501D01*
X037801Y027425D02*
X038067Y027691D01*
X037887Y028381D02*
Y029053D01*
X037541Y028035D02*
X037887Y028381D01*
X037002Y028741D02*
X037312D01*
X037467Y028896D01*
Y029053D01*
X036905Y028228D02*
X037527Y028850D01*
Y029053D01*
X035481Y028228D02*
X036905D01*
X037587Y028819D02*
Y029053D01*
X036833Y028065D02*
X037587Y028819D01*
X036031Y028065D02*
X036833D01*
X037647Y028792D02*
Y029053D01*
X036778Y027923D02*
X037647Y028792D01*
X036033Y027923D02*
X036778D01*
X037707Y028763D02*
Y029053D01*
X036633Y027689D02*
X037707Y028763D01*
X036637Y027602D02*
X037767Y028732D01*
X036499Y027602D02*
X036637D01*
X036302Y027405D02*
X036499Y027602D01*
X037767Y028732D02*
Y029053D01*
X037827Y028686D02*
Y029053D01*
X036553Y027412D02*
X037827Y028686D01*
X035383Y028130D02*
X035481Y028228D01*
X036302Y025286D02*
X036304Y025284D01*
X037887Y030717D02*
X037889Y030718D01*
Y031177D01*
X037467Y030397D02*
Y030553D01*
X035777Y023473D02*
X035784Y023466D01*
X038307Y030397D02*
X038323Y030381D01*
X038307Y030397D02*
Y030553D01*
X038427Y028907D02*
Y029053D01*
X038307Y028856D02*
X038950Y028214D01*
X038247Y028832D02*
X038890Y028189D01*
X038187Y028807D02*
X038830Y028164D01*
X038367Y028881D02*
Y029053D01*
X038307Y028856D02*
Y029053D01*
X038247Y028832D02*
Y029053D01*
X038187Y028807D02*
Y029053D01*
X041114Y034158D02*
X041119Y034153D01*
X039353Y025290D02*
X039359Y025284D01*
X038830Y025293D02*
X038839Y025284D01*
X038067Y027691D02*
Y029053D01*
X036553Y025295D02*
X036564Y025284D01*
X035264D02*
X035265Y025285D01*
X035004Y025284D02*
X035004Y025284D01*
X038067Y030553D02*
Y031592D01*
X037887Y030553D02*
Y030717D01*
D58*
X028013Y025669D02*
X028844D01*
X027946Y025603D02*
X028013Y025669D01*
X027946Y030961D02*
X027953Y030967D01*
X029033D01*
X032949Y033966D02*
X032961Y033978D01*
X032949Y032598D02*
Y033966D01*
X032230Y029259D02*
X035412D01*
X032230Y027795D02*
Y029259D01*
X032220Y027805D02*
X032230Y027795D01*
X032220Y027805D02*
Y030406D01*
X032949Y031135D01*
Y031598D01*
X038465Y024571D02*
X040160D01*
X038461Y024567D02*
X038465Y024571D01*
X035315Y024567D02*
X038461D01*
X029905Y025667D02*
X029907Y025669D01*
X029905Y024819D02*
Y025667D01*
X033529Y038920D02*
X033626Y039017D01*
X033529Y038189D02*
Y038920D01*
X033128Y024567D02*
X035315D01*
X032911Y024784D02*
X033128Y024567D01*
X027946Y034707D02*
X027985Y034668D01*
X028994D01*
D59*
X027866Y036616D02*
X027946Y036535D01*
X033626Y039017D02*
X035899D01*
Y039230D01*
X038685D01*
X027497Y027070D02*
X027946Y027520D01*
X027497Y023149D02*
Y027070D01*
Y023149D02*
X027946Y022700D01*
Y030961D02*
Y033074D01*
Y030026D02*
Y030961D01*
Y027520D02*
Y030026D01*
Y033074D02*
Y034707D01*
X031945Y039017D02*
X033626D01*
X032876Y024819D02*
X032911Y024784D01*
X029905Y024819D02*
X032876D01*
X027946Y034707D02*
Y036535D01*
X027813Y036705D02*
Y038898D01*
Y036705D02*
X027946Y036571D01*
D60*
X044506Y020787D02*
D03*
X040553Y039055D02*
D03*
X035757Y038055D02*
D03*
X027813Y038898D02*
D03*
D61*
X043506Y020787D02*
D03*
X042506D02*
D03*
X041506D02*
D03*
X040506D02*
D03*
X039506D02*
D03*
X038506D02*
D03*
X037506D02*
D03*
X036506D02*
D03*
X035506D02*
D03*
X034506D02*
D03*
X033506D02*
D03*
X032506D02*
D03*
X031506D02*
D03*
X045553Y039055D02*
D03*
X044553D02*
D03*
X043553D02*
D03*
X042553D02*
D03*
X041553D02*
D03*
X035757D02*
D03*
X036757Y038055D02*
D03*
Y039055D02*
D03*
X037757Y038055D02*
D03*
Y039055D02*
D03*
X038757Y038055D02*
D03*
Y039055D02*
D03*
X032949Y031598D02*
D03*
X031949D02*
D03*
X032949Y032598D02*
D03*
X045457Y034953D02*
D03*
Y033953D02*
D03*
Y032953D02*
D03*
Y031953D02*
D03*
Y030953D02*
D03*
X028813Y038898D02*
D03*
D62*
X036207Y035366D02*
D03*
X038207D02*
D03*
Y033366D02*
D03*
X036207D02*
D03*
X037207Y034366D02*
D03*
D63*
X031949Y032598D02*
D03*
X045457Y035953D02*
D03*
D64*
X029946Y027520D02*
D03*
X028946D02*
D03*
X029946Y022700D02*
D03*
X028946D02*
D03*
X029946Y036571D02*
D03*
X028946D02*
D03*
D65*
X027946Y027520D02*
D03*
Y022700D02*
D03*
Y036571D02*
D03*
D66*
X038534Y022381D02*
D03*
X044660Y024485D02*
D03*
X038485Y027141D02*
D03*
X028320Y024434D02*
D03*
X035652Y026996D02*
D03*
X035620Y022389D02*
D03*
X042284Y022885D02*
D03*
X041974Y022791D02*
D03*
D67*
X043399Y022740D02*
D03*
X044967Y024922D02*
D03*
X040934Y036894D02*
D03*
X042061Y031572D02*
D03*
X045153Y022755D02*
D03*
X034055Y023543D02*
D03*
X040160Y024571D02*
D03*
X042628Y024738D02*
D03*
D68*
X037660Y030985D02*
D03*
X037199Y030962D02*
D03*
X037016Y031385D02*
D03*
X038271Y031110D02*
D03*
X038508Y031573D02*
D03*
X038661Y031277D02*
D03*
X036948Y030528D02*
D03*
X036992Y028731D02*
D03*
X039125Y030059D02*
D03*
X037863Y028002D02*
D03*
X038476Y032618D02*
D03*
X038262Y031837D02*
D03*
D69*
X029642Y021038D02*
D03*
X029142D02*
D03*
X028642D02*
D03*
X028142D02*
D03*
X028151Y020643D02*
D03*
X028651D02*
D03*
X029151D02*
D03*
X029651D02*
D03*
X033264Y037120D02*
D03*
Y036620D02*
D03*
Y036120D02*
D03*
Y035620D02*
D03*
X033659Y035629D02*
D03*
Y036129D02*
D03*
Y036629D02*
D03*
Y037129D02*
D03*
X030984Y037984D02*
D03*
X030484D02*
D03*
X029984D02*
D03*
X029484D02*
D03*
X029493Y037589D02*
D03*
X029993D02*
D03*
X030493D02*
D03*
X030993D02*
D03*
X041870Y029139D02*
D03*
X041370D02*
D03*
X040870D02*
D03*
X040370D02*
D03*
X040361Y029534D02*
D03*
X040861D02*
D03*
X041361D02*
D03*
X041861D02*
D03*
D70*
X036930Y029971D02*
D03*
D71*
X031945Y039017D02*
D03*
X032911Y024784D02*
D03*
M02*
