M48
;Layer_Color=9474304
;FILE_FORMAT=2:4
INCH
;TYPE=PLATED
T1F00S00C0.0030
T2F00S00C0.0050
T3F00S00C0.0100
T4F00S00C0.0200
T5F00S00C0.0280
T6F00S00C0.0354
T7F00S00C0.0402
T8F00S00C0.0650
T9F00S00C0.1000
%
T01
X036930Y029971
T02
X036992Y028731
X037863Y028002
X037660Y030985
X037199Y030962
X036948Y030528
X038271Y031110
X039125Y030059
X038661Y031277
X038508Y031573
X038262Y031837
X038476Y032618
X037016Y031385
T03
X035620Y022389
X038534Y022381
X041974Y022791
X042284Y022885
X044660Y024485
X041870Y029139
X041861Y029534
X041361
X041370Y029139
X040870
X040861Y029534
X040361
X040370Y029139
X038485Y027141
X035652Y026996
X028320Y024434
X028142Y021038
X028151Y020643
X028651
X028642Y021038
X029142
X029151Y020643
X029651
X029642Y021038
X029493Y037589
X029484Y037984
X029984
X029993Y037589
X030493
X030484Y037984
X030984
X030993Y037589
X033264Y037120
X033659Y037129
Y036629
X033264Y036620
Y036120
X033659Y036129
Y035629
X033264Y035620
T04
X035970Y030737
X036433Y031140
X028974Y032051
X035984Y031563
X036436Y031989
T05
X034055Y023543
X040160Y024571
X042628Y024738
X044967Y024922
X045153Y022755
X043399Y022740
X042061Y031572
X040934Y036894
T06
X031506Y020787
X032506
X033506
X034506
X035506
X036506
X037506
X038506
X039506
X040506
X041506
X042506
X043506
X044506
X045457Y030953
X028813Y038898
X027813
X035757Y039055
Y038055
X036757
Y039055
X037757
Y038055
X038757
Y039055
X040553
X041553
X042553
X043553
X044553
X045553
X045457Y035953
Y034953
Y033953
Y032953
Y031953
X032949Y031598
X031949
Y032598
X032949
T07
X027946Y022700
X028946
X029946
Y027520
X028946
X027946
Y036571
X028946
X029946
T08
X036207Y033366
Y035366
X038207
Y033366
X037207Y034366
T09
X032911Y024784
X031945Y039017
M30
