G04*
G04 #@! TF.GenerationSoftware,Altium Limited,Altium Designer,18.0.9 (584)*
G04*
G04 Layer_Color=16711935*
%FSAX24Y24*%
%MOIN*%
G70*
G01*
G75*
%ADD10C,0.0000*%
%ADD16C,0.0039*%
D10*
X042149Y035808D02*
G03*
X042389Y035808I000120J000000D01*
G01*
X036659Y024254D02*
G03*
X036659Y024014I000000J-000120D01*
G01*
X039454Y024254D02*
G03*
X039454Y024014I000000J-000120D01*
G01*
D16*
X038312Y033110D02*
G03*
X038463Y033261I-001105J001256D01*
G01*
Y035471D02*
G03*
X038312Y035622I-001256J-001105D01*
G01*
X036102D02*
G03*
X035951Y035471I001105J-001256D01*
G01*
Y033261D02*
G03*
X036102Y033110I001256J001105D01*
G01*
X037457Y034366D02*
G03*
X037457Y034366I-000250J000000D01*
G01*
X038231D02*
G03*
X038231Y034366I-001024J000000D01*
G01*
X038457D02*
G03*
X038457Y034366I-001250J000000D01*
G01*
X044651Y022244D02*
X045084D01*
X044651Y022008D02*
X045084D01*
X044651D02*
Y022244D01*
X045084Y022008D02*
Y022244D01*
X042210D02*
X042643D01*
X042210Y022008D02*
X042643D01*
X042210D02*
Y022244D01*
X042643Y022008D02*
Y022244D01*
X038460Y026589D02*
X038696D01*
X038460Y026155D02*
X038696D01*
Y026589D01*
X038460Y026155D02*
Y026589D01*
X035666Y026590D02*
X035902D01*
X035666Y026156D02*
X035902D01*
Y026590D01*
X035666Y026156D02*
Y026590D01*
X029112Y032394D02*
X029663D01*
X029112Y033241D02*
X029663D01*
Y032394D02*
Y033241D01*
X029112Y032394D02*
Y033241D01*
X029634Y030898D02*
Y031587D01*
X030008Y030898D02*
Y031587D01*
X029634Y030898D02*
X030008D01*
X029634Y031587D02*
X030008D01*
X028846Y030898D02*
Y031587D01*
X029220Y030898D02*
Y031587D01*
X028846Y030898D02*
X029220D01*
X028846Y031587D02*
X029220D01*
X029131Y029347D02*
X029682D01*
X029131Y030194D02*
X029682D01*
Y029347D02*
Y030194D01*
X029131Y029347D02*
Y030194D01*
X028657Y025600D02*
Y026289D01*
X029031Y025600D02*
Y026289D01*
X028657Y025600D02*
X029031D01*
X028657Y026289D02*
X029031D01*
X029720Y025600D02*
Y026289D01*
X030094Y025600D02*
Y026289D01*
X029720Y025600D02*
X030094D01*
X029720Y026289D02*
X030094D01*
X044369Y030535D02*
X044605D01*
X044369Y030969D02*
X044605D01*
X044369Y030535D02*
Y030969D01*
X044605Y030535D02*
Y030969D01*
X036107Y035616D02*
X038307D01*
X035957Y033266D02*
Y035466D01*
X036107Y033116D02*
X038307D01*
X038457Y033266D02*
Y035466D01*
X037168Y034119D02*
Y034613D01*
X037246Y034119D02*
Y034613D01*
X036404Y035169D02*
Y035563D01*
X036010Y035169D02*
X036404D01*
X036010D02*
Y035535D01*
X036038Y035563D02*
X036404D01*
X036010Y033197D02*
Y033563D01*
X036038Y033169D02*
X036404D01*
Y033563D01*
X036010D02*
X036404D01*
X038010Y033169D02*
X038376D01*
X038404Y033197D02*
Y033563D01*
X038010D02*
X038404D01*
X038010Y033169D02*
Y033563D01*
X038404Y035169D02*
Y035535D01*
X038010Y035563D02*
X038376D01*
X038010Y035169D02*
Y035563D01*
Y035169D02*
X038404D01*
X035001Y028292D02*
Y028528D01*
X035435Y028292D02*
Y028528D01*
X035001D02*
X035435D01*
X035001Y028292D02*
X035435D01*
X035005Y031871D02*
Y032107D01*
X035439Y031871D02*
Y032107D01*
X035005D02*
X035439D01*
X035005Y031871D02*
X035439D01*
X035001Y031445D02*
Y031681D01*
X035435Y031445D02*
Y031681D01*
X035001D02*
X035435D01*
X035001Y031445D02*
X035435D01*
X035007Y031024D02*
Y031260D01*
X035441Y031024D02*
Y031260D01*
X035007D02*
X035441D01*
X035007Y031024D02*
X035441D01*
X035003Y030151D02*
Y030387D01*
X035437Y030151D02*
Y030387D01*
X035003D02*
X035437D01*
X035003Y030151D02*
X035437D01*
X035001Y030612D02*
Y030848D01*
X035435Y030612D02*
Y030848D01*
X035001D02*
X035435D01*
X035001Y030612D02*
X035435D01*
X045006Y025472D02*
Y025709D01*
X044572Y025472D02*
Y025709D01*
Y025472D02*
X045006D01*
X044572Y025709D02*
X045006D01*
X042643Y025472D02*
Y025709D01*
X042210Y025472D02*
Y025709D01*
Y025472D02*
X042643D01*
X042210Y025709D02*
X042643D01*
X030521Y027020D02*
Y028020D01*
X027372Y027020D02*
X030521D01*
X027372D02*
Y028020D01*
X030521D01*
Y022200D02*
Y023200D01*
X027372Y022200D02*
X030521D01*
X027372D02*
Y023200D01*
X030521D01*
Y036071D02*
Y037071D01*
X027372Y036071D02*
X030521D01*
X027372D02*
Y037071D01*
X030521D01*
X032043Y027175D02*
X032417D01*
X032043Y027864D02*
X032417D01*
X032043Y027175D02*
Y027864D01*
X032417Y027175D02*
Y027864D01*
X030421Y028890D02*
X030795D01*
X030421Y029579D02*
X030795D01*
X030421Y028890D02*
Y029579D01*
X030795Y028890D02*
Y029579D01*
X032909Y038002D02*
Y038376D01*
X033598Y038002D02*
Y038376D01*
X032909D02*
X033598D01*
X032909Y038002D02*
X033598D01*
X031213Y023381D02*
X031587D01*
X031213Y024070D02*
X031587D01*
X031213Y023381D02*
Y024070D01*
X031587Y023381D02*
Y024070D01*
X032774Y034598D02*
X033148D01*
X032774Y033910D02*
X033148D01*
Y034598D01*
X032774Y033910D02*
Y034598D01*
X029594Y034737D02*
X029968D01*
X029594Y034048D02*
X029968D01*
Y034737D01*
X029594Y034048D02*
Y034737D01*
X030382Y031922D02*
X030756D01*
X030382Y032611D02*
X030756D01*
X030382Y031922D02*
Y032611D01*
X030756Y031922D02*
Y032611D01*
X028807Y034048D02*
X029181D01*
X028807Y034737D02*
X029181D01*
X028807Y034048D02*
Y034737D01*
X029181Y034048D02*
Y034737D01*
X042068Y032869D02*
X042502D01*
X042068Y032633D02*
X042502D01*
X042068D02*
Y032869D01*
X042502Y032633D02*
Y032869D01*
X042068Y036987D02*
X042502D01*
X042068Y036751D02*
X042502D01*
X042068D02*
Y036987D01*
X042502Y036751D02*
Y036987D01*
X040446Y023591D02*
X040880D01*
X040446Y023355D02*
X040880D01*
X040446D02*
Y023591D01*
X040880Y023355D02*
Y023591D01*
X032527Y023355D02*
X032961D01*
X032527Y023591D02*
X032961D01*
Y023355D02*
Y023591D01*
X032527Y023355D02*
Y023591D01*
M02*
