G04*
G04 #@! TF.GenerationSoftware,Altium Limited,Altium Designer,18.0.9 (584)*
G04*
G04 Layer_Color=8388736*
%FSAX24Y24*%
%MOIN*%
G70*
G01*
G75*
%ADD29R,0.1500X0.1900*%
%ADD30R,0.0660X0.0300*%
%ADD31R,0.0363X0.0363*%
%ADD32R,0.0277X0.0316*%
G04:AMPARAMS|DCode=33|XSize=20.5mil|YSize=30.4mil|CornerRadius=4.4mil|HoleSize=0mil|Usage=FLASHONLY|Rotation=90.000|XOffset=0mil|YOffset=0mil|HoleType=Round|Shape=RoundedRectangle|*
%AMROUNDEDRECTD33*
21,1,0.0205,0.0217,0,0,90.0*
21,1,0.0118,0.0304,0,0,90.0*
1,1,0.0087,0.0108,0.0059*
1,1,0.0087,0.0108,-0.0059*
1,1,0.0087,-0.0108,-0.0059*
1,1,0.0087,-0.0108,0.0059*
%
%ADD33ROUNDEDRECTD33*%
%ADD34R,0.0434X0.0395*%
%ADD35R,0.0110X0.0320*%
%ADD36R,0.0630X0.0210*%
%ADD37R,0.0210X0.0630*%
%ADD38R,0.0316X0.0277*%
G04:AMPARAMS|DCode=39|XSize=20.5mil|YSize=38.3mil|CornerRadius=6.3mil|HoleSize=0mil|Usage=FLASHONLY|Rotation=180.000|XOffset=0mil|YOffset=0mil|HoleType=Round|Shape=RoundedRectangle|*
%AMROUNDEDRECTD39*
21,1,0.0205,0.0256,0,0,180.0*
21,1,0.0079,0.0383,0,0,180.0*
1,1,0.0127,-0.0039,0.0128*
1,1,0.0127,0.0039,0.0128*
1,1,0.0127,0.0039,-0.0128*
1,1,0.0127,-0.0039,-0.0128*
%
%ADD39ROUNDEDRECTD39*%
%ADD40R,0.0395X0.0434*%
%ADD41R,0.0671X0.0671*%
%ADD42C,0.0671*%
%ADD43C,0.0946*%
%ADD44R,0.0671X0.0671*%
%ADD45C,0.0690*%
%ADD46R,0.0690X0.0690*%
%ADD47C,0.0280*%
%ADD48C,0.0580*%
%ADD49C,0.0230*%
%ADD50C,0.0300*%
%ADD51C,0.0380*%
%ADD52C,0.0170*%
%ADD53C,0.1280*%
D29*
X037917Y029803D02*
D03*
D30*
X028965Y024819D02*
D03*
Y024449D02*
D03*
Y024079D02*
D03*
X029905D02*
D03*
Y024819D02*
D03*
D31*
X044671Y022126D02*
D03*
X045065D02*
D03*
X042230D02*
D03*
X042624D02*
D03*
X044986Y025591D02*
D03*
X044592D02*
D03*
X042624D02*
D03*
X042230D02*
D03*
D32*
X038578Y026569D02*
D03*
Y026175D02*
D03*
X035784Y026570D02*
D03*
Y026176D02*
D03*
X044487Y030555D02*
D03*
Y030949D02*
D03*
D33*
X029791Y033074D02*
D03*
Y032562D02*
D03*
X028984D02*
D03*
Y032818D02*
D03*
Y033074D02*
D03*
X029810Y030026D02*
D03*
Y029515D02*
D03*
X029003D02*
D03*
Y029770D02*
D03*
Y030026D02*
D03*
D34*
X029821Y030967D02*
D03*
Y031518D02*
D03*
X029033Y030967D02*
D03*
Y031518D02*
D03*
X028844Y025669D02*
D03*
Y026220D02*
D03*
X029907Y025669D02*
D03*
Y026220D02*
D03*
X032230Y027244D02*
D03*
Y027795D02*
D03*
X030608Y028959D02*
D03*
Y029511D02*
D03*
X031400Y023450D02*
D03*
Y024001D02*
D03*
X032961Y034530D02*
D03*
Y033978D02*
D03*
X029781Y034668D02*
D03*
Y034117D02*
D03*
X030569Y031991D02*
D03*
Y032542D02*
D03*
X028994Y034117D02*
D03*
Y034668D02*
D03*
D35*
X037407Y029053D02*
D03*
X037467D02*
D03*
X037527D02*
D03*
X037587D02*
D03*
X037647D02*
D03*
X037707D02*
D03*
X037767D02*
D03*
X037827D02*
D03*
X037887D02*
D03*
X037947D02*
D03*
X038007D02*
D03*
X038067D02*
D03*
X038127D02*
D03*
X038187D02*
D03*
X038247D02*
D03*
X038307D02*
D03*
X038367D02*
D03*
X038427D02*
D03*
Y030553D02*
D03*
X038367D02*
D03*
X038307D02*
D03*
X038247D02*
D03*
X038187D02*
D03*
X038127D02*
D03*
X038067D02*
D03*
X038007D02*
D03*
X037947D02*
D03*
X037887D02*
D03*
X037827D02*
D03*
X037767D02*
D03*
X037707D02*
D03*
X037647D02*
D03*
X037587D02*
D03*
X037527D02*
D03*
X037467D02*
D03*
X037407D02*
D03*
D36*
X041119Y035713D02*
D03*
Y035453D02*
D03*
Y035193D02*
D03*
Y034933D02*
D03*
Y034673D02*
D03*
Y034413D02*
D03*
Y034153D02*
D03*
Y033893D02*
D03*
X043419D02*
D03*
Y034153D02*
D03*
Y034413D02*
D03*
Y034673D02*
D03*
Y034933D02*
D03*
Y035193D02*
D03*
Y035453D02*
D03*
Y035713D02*
D03*
D37*
X036564Y025284D02*
D03*
X036304D02*
D03*
X036044D02*
D03*
X035784D02*
D03*
X035524D02*
D03*
X035264D02*
D03*
X035004D02*
D03*
X034744D02*
D03*
Y022984D02*
D03*
X035004D02*
D03*
X035264D02*
D03*
X035524D02*
D03*
X035784D02*
D03*
X036044D02*
D03*
X036304D02*
D03*
X036564D02*
D03*
X039359D02*
D03*
X039099D02*
D03*
X038839D02*
D03*
X038579D02*
D03*
X038319D02*
D03*
X038059D02*
D03*
X037799D02*
D03*
X037539D02*
D03*
Y025284D02*
D03*
X037799D02*
D03*
X038059D02*
D03*
X038319D02*
D03*
X038579D02*
D03*
X038839D02*
D03*
X039099D02*
D03*
X039359D02*
D03*
D38*
X035021Y028410D02*
D03*
X035415D02*
D03*
X035025Y031989D02*
D03*
X035419D02*
D03*
X035021Y031563D02*
D03*
X035415D02*
D03*
X035027Y031142D02*
D03*
X035421D02*
D03*
X035023Y030269D02*
D03*
X035417D02*
D03*
X035021Y030730D02*
D03*
X035415D02*
D03*
X042088Y032751D02*
D03*
X042482D02*
D03*
X042088Y036869D02*
D03*
X042482D02*
D03*
X040466Y023473D02*
D03*
X040860D02*
D03*
X032941D02*
D03*
X032547D02*
D03*
D39*
X042486Y024075D02*
D03*
X042230D02*
D03*
X041974D02*
D03*
X042486Y023346D02*
D03*
X042230D02*
D03*
X041974D02*
D03*
X044868Y024075D02*
D03*
X044612D02*
D03*
X044356D02*
D03*
X044868Y023346D02*
D03*
X044612D02*
D03*
X044356D02*
D03*
D40*
X032978Y038189D02*
D03*
X033529D02*
D03*
D41*
X044506Y020787D02*
D03*
X040553Y039055D02*
D03*
X035757Y038055D02*
D03*
X027813Y038898D02*
D03*
D42*
X043506Y020787D02*
D03*
X042506D02*
D03*
X041506D02*
D03*
X040506D02*
D03*
X039506D02*
D03*
X038506D02*
D03*
X037506D02*
D03*
X036506D02*
D03*
X035506D02*
D03*
X034506D02*
D03*
X033506D02*
D03*
X032506D02*
D03*
X031506D02*
D03*
X045553Y039055D02*
D03*
X044553D02*
D03*
X043553D02*
D03*
X042553D02*
D03*
X041553D02*
D03*
X035757D02*
D03*
X036757Y038055D02*
D03*
Y039055D02*
D03*
X037757Y038055D02*
D03*
Y039055D02*
D03*
X038757Y038055D02*
D03*
Y039055D02*
D03*
X032949Y031598D02*
D03*
X031949D02*
D03*
X032949Y032598D02*
D03*
X045457Y034953D02*
D03*
Y033953D02*
D03*
Y032953D02*
D03*
Y031953D02*
D03*
Y030953D02*
D03*
X028813Y038898D02*
D03*
D43*
X036207Y035366D02*
D03*
X038207D02*
D03*
Y033366D02*
D03*
X036207D02*
D03*
X037207Y034366D02*
D03*
D44*
X031949Y032598D02*
D03*
X045457Y035953D02*
D03*
D45*
X029946Y027520D02*
D03*
X028946D02*
D03*
X029946Y022700D02*
D03*
X028946D02*
D03*
X029946Y036571D02*
D03*
X028946D02*
D03*
D46*
X027946Y027520D02*
D03*
Y022700D02*
D03*
Y036571D02*
D03*
D47*
X038534Y022381D02*
D03*
X044660Y024485D02*
D03*
X038485Y027141D02*
D03*
X028320Y024434D02*
D03*
X035652Y026996D02*
D03*
X035620Y022389D02*
D03*
X042284Y022885D02*
D03*
X041974Y022791D02*
D03*
D48*
X043399Y022740D02*
D03*
X044967Y024922D02*
D03*
X040934Y036894D02*
D03*
X042061Y031572D02*
D03*
X045153Y022755D02*
D03*
X034055Y023543D02*
D03*
X040160Y024571D02*
D03*
X042628Y024738D02*
D03*
D49*
X037660Y030985D02*
D03*
X037199Y030962D02*
D03*
X037016Y031385D02*
D03*
X038271Y031110D02*
D03*
X038508Y031573D02*
D03*
X038661Y031277D02*
D03*
X036948Y030528D02*
D03*
X036992Y028731D02*
D03*
X039125Y030059D02*
D03*
X037863Y028002D02*
D03*
X038476Y032618D02*
D03*
X038262Y031837D02*
D03*
D50*
X029642Y021038D02*
D03*
X029142D02*
D03*
X028642D02*
D03*
X028142D02*
D03*
X028151Y020643D02*
D03*
X028651D02*
D03*
X029151D02*
D03*
X029651D02*
D03*
X033264Y037120D02*
D03*
Y036620D02*
D03*
Y036120D02*
D03*
Y035620D02*
D03*
X033659Y035629D02*
D03*
Y036129D02*
D03*
Y036629D02*
D03*
Y037129D02*
D03*
X030984Y037984D02*
D03*
X030484D02*
D03*
X029984D02*
D03*
X029484D02*
D03*
X029493Y037589D02*
D03*
X029993D02*
D03*
X030493D02*
D03*
X030993D02*
D03*
X041870Y029139D02*
D03*
X041370D02*
D03*
X040870D02*
D03*
X040370D02*
D03*
X040361Y029534D02*
D03*
X040861D02*
D03*
X041361D02*
D03*
X041861D02*
D03*
D51*
X035970Y030737D02*
D03*
X035984Y031563D02*
D03*
X036436Y031989D02*
D03*
X036433Y031140D02*
D03*
X028974Y032051D02*
D03*
D52*
X036930Y029971D02*
D03*
D53*
X031945Y039017D02*
D03*
X032911Y024784D02*
D03*
M02*
