G04*
G04 #@! TF.GenerationSoftware,Altium Limited,Altium Designer,18.0.9 (584)*
G04*
G04 Layer_Color=32768*
%FSAX24Y24*%
%MOIN*%
G70*
G01*
G75*
%ADD12C,0.0060*%
%ADD16C,0.0039*%
%ADD72C,0.0020*%
G36*
X034549Y022604D02*
Y025664D01*
X036759D01*
Y022604D01*
X034549D01*
D02*
G37*
G36*
X037344D02*
Y025664D01*
X039554D01*
Y022604D01*
X037344D01*
D02*
G37*
G36*
X043799Y033698D02*
X040739D01*
Y035908D01*
X043799D01*
Y033698D01*
D02*
G37*
D12*
X040739D02*
Y035908D01*
X043799D01*
Y033698D02*
Y035908D01*
X040739Y033698D02*
X043799D01*
X034549Y025664D02*
X036759D01*
Y022604D02*
Y025664D01*
X034549Y022604D02*
X036759D01*
X034549D02*
Y025664D01*
X037344Y022604D02*
Y025664D01*
Y022604D02*
X039554D01*
Y025664D01*
X037344D02*
X039554D01*
D16*
X038440Y026726D02*
X038716D01*
X038440Y026018D02*
X038716D01*
Y026726D01*
X038440Y026018D02*
Y026726D01*
X038578Y026254D02*
Y026490D01*
X038460Y026372D02*
X038696D01*
X035646Y026727D02*
X035922D01*
X035646Y026019D02*
X035922D01*
Y026727D01*
X035646Y026019D02*
Y026727D01*
X035784Y026255D02*
Y026491D01*
X035666Y026373D02*
X035902D01*
X029388Y032621D02*
Y033015D01*
X029191Y032818D02*
X029584D01*
X029634Y031243D02*
X030008D01*
X029821Y031056D02*
Y031430D01*
X029604Y030770D02*
Y031715D01*
X030037Y030770D02*
Y031715D01*
X029604Y030770D02*
X030037D01*
X029604Y031715D02*
X030037D01*
X028846Y031243D02*
X029220D01*
X029033Y031056D02*
Y031430D01*
X028817Y030770D02*
Y031715D01*
X029250Y030770D02*
Y031715D01*
X028817Y030770D02*
X029250D01*
X028817Y031715D02*
X029250D01*
X029407Y029574D02*
Y029967D01*
X029210Y029770D02*
X029604D01*
X028657Y025945D02*
X029031D01*
X028844Y025758D02*
Y026132D01*
X028628Y025472D02*
Y026417D01*
X029061Y025472D02*
Y026417D01*
X028628Y025472D02*
X029061D01*
X028628Y026417D02*
X029061D01*
X029720Y025945D02*
X030094D01*
X029907Y025758D02*
Y026132D01*
X029691Y025472D02*
Y026417D01*
X030124Y025472D02*
Y026417D01*
X029691Y025472D02*
X030124D01*
X029691Y026417D02*
X030124D01*
X044349Y030398D02*
X044625D01*
X044349Y031106D02*
X044625D01*
X044349Y030398D02*
Y031106D01*
X044625Y030398D02*
Y031106D01*
X044487Y030634D02*
Y030870D01*
X044369Y030752D02*
X044605D01*
X036957Y034366D02*
X037407D01*
X037207Y034166D02*
Y034616D01*
X034864Y028272D02*
Y028548D01*
X035572Y028272D02*
Y028548D01*
X034864D02*
X035572D01*
X034864Y028272D02*
X035572D01*
X035100Y028410D02*
X035336D01*
X035218Y028292D02*
Y028528D01*
X034868Y031851D02*
Y032127D01*
X035576Y031851D02*
Y032127D01*
X034868D02*
X035576D01*
X034868Y031851D02*
X035576D01*
X035104Y031989D02*
X035340D01*
X035222Y031871D02*
Y032107D01*
X034864Y031425D02*
Y031701D01*
X035572Y031425D02*
Y031701D01*
X034864D02*
X035572D01*
X034864Y031425D02*
X035572D01*
X035100Y031563D02*
X035336D01*
X035218Y031445D02*
Y031681D01*
X034870Y031004D02*
Y031280D01*
X035578Y031004D02*
Y031280D01*
X034870D02*
X035578D01*
X034870Y031004D02*
X035578D01*
X035106Y031142D02*
X035342D01*
X035224Y031024D02*
Y031260D01*
X034866Y030131D02*
Y030407D01*
X035574Y030131D02*
Y030407D01*
X034866D02*
X035574D01*
X034866Y030131D02*
X035574D01*
X035102Y030269D02*
X035338D01*
X035220Y030151D02*
Y030387D01*
X034864Y030592D02*
Y030868D01*
X035572Y030592D02*
Y030868D01*
X034864D02*
X035572D01*
X034864Y030592D02*
X035572D01*
X035100Y030730D02*
X035336D01*
X035218Y030612D02*
Y030848D01*
X032013Y027047D02*
X032446D01*
X032013Y027992D02*
X032446D01*
X032013Y027047D02*
Y027992D01*
X032446Y027047D02*
Y027992D01*
X032230Y027333D02*
Y027707D01*
X032043Y027520D02*
X032417D01*
X030391Y028763D02*
X030825D01*
X030391Y029707D02*
X030825D01*
X030391Y028763D02*
Y029707D01*
X030825Y028763D02*
Y029707D01*
X030608Y029048D02*
Y029422D01*
X030421Y029235D02*
X030795D01*
X032781Y037972D02*
Y038406D01*
X033726Y037972D02*
Y038406D01*
X032781D02*
X033726D01*
X032781Y037972D02*
X033726D01*
X033067Y038189D02*
X033441D01*
X033254Y038002D02*
Y038376D01*
X031183Y023253D02*
X031617D01*
X031183Y024198D02*
X031617D01*
X031183Y023253D02*
Y024198D01*
X031617Y023253D02*
Y024198D01*
X031400Y023539D02*
Y023913D01*
X031213Y023726D02*
X031587D01*
X032744Y034726D02*
X033178D01*
X032744Y033782D02*
X033178D01*
Y034726D01*
X032744Y033782D02*
Y034726D01*
X032961Y034067D02*
Y034441D01*
X032774Y034254D02*
X033148D01*
X029565Y034865D02*
X029998D01*
X029565Y033920D02*
X029998D01*
Y034865D01*
X029565Y033920D02*
Y034865D01*
X029781Y034205D02*
Y034579D01*
X029594Y034392D02*
X029968D01*
X030352Y031794D02*
X030785D01*
X030352Y032739D02*
X030785D01*
X030352Y031794D02*
Y032739D01*
X030785Y031794D02*
Y032739D01*
X030569Y032079D02*
Y032453D01*
X030382Y032266D02*
X030756D01*
X028777Y033920D02*
X029210D01*
X028777Y034865D02*
X029210D01*
X028777Y033920D02*
Y034865D01*
X029210Y033920D02*
Y034865D01*
X028994Y034205D02*
Y034579D01*
X028807Y034392D02*
X029181D01*
X042285Y032633D02*
Y032869D01*
X042167Y032751D02*
X042403D01*
X041931Y032889D02*
X042639D01*
X041931Y032613D02*
X042639D01*
X041931D02*
Y032889D01*
X042639Y032613D02*
Y032889D01*
X042285Y036751D02*
Y036987D01*
X042167Y036869D02*
X042403D01*
X041931Y037007D02*
X042639D01*
X041931Y036731D02*
X042639D01*
X041931D02*
Y037007D01*
X042639Y036731D02*
Y037007D01*
X040663Y023355D02*
Y023591D01*
X040545Y023473D02*
X040781D01*
X040309Y023611D02*
X041017D01*
X040309Y023335D02*
X041017D01*
X040309D02*
Y023611D01*
X041017Y023335D02*
Y023611D01*
X032744Y023355D02*
Y023591D01*
X032626Y023473D02*
X032862D01*
X032390Y023335D02*
X033098D01*
X032390Y023611D02*
X033098D01*
Y023335D02*
Y023611D01*
X032390Y023335D02*
Y023611D01*
D72*
X044868Y022008D02*
Y022244D01*
X044750Y022126D02*
X044986D01*
X044317Y022480D02*
X045419D01*
X044317Y021772D02*
X045419D01*
X044317D02*
Y022480D01*
X045419Y021772D02*
Y022480D01*
X042427Y022008D02*
Y022244D01*
X042309Y022126D02*
X042545D01*
X041876Y022480D02*
X042978D01*
X041876Y021772D02*
X042978D01*
X041876D02*
Y022480D01*
X042978Y021772D02*
Y022480D01*
X028817Y032345D02*
X029958D01*
X028817Y033290D02*
X029958D01*
Y032345D02*
Y033290D01*
X028817Y032345D02*
Y033290D01*
X028836Y029298D02*
X029978D01*
X028836Y030243D02*
X029978D01*
Y029298D02*
Y030243D01*
X028836Y029298D02*
Y030243D01*
X038679Y032894D02*
Y035838D01*
X035735Y032894D02*
X038679D01*
X035735D02*
Y035838D01*
X038679D01*
X045340Y025236D02*
Y025945D01*
X044238Y025236D02*
Y025945D01*
Y025236D02*
X045340D01*
X044238Y025945D02*
X045340D01*
X044671Y025591D02*
X044907D01*
X044789Y025472D02*
Y025709D01*
X042978Y025236D02*
Y025945D01*
X041876Y025236D02*
Y025945D01*
Y025236D02*
X042978D01*
X041876Y025945D02*
X042978D01*
X042309Y025591D02*
X042545D01*
X042427Y025472D02*
Y025709D01*
X030610Y026931D02*
Y028108D01*
X027283Y026931D02*
X030610D01*
X027283D02*
Y028108D01*
X030610D01*
Y022111D02*
Y023289D01*
X027283Y022111D02*
X030610D01*
X027283D02*
Y023289D01*
X030610D01*
Y035982D02*
Y037160D01*
X027283Y035982D02*
X030610D01*
X027283D02*
Y037160D01*
X030610D01*
M02*
